<svg xmlns="http://www.w3.org/2000/svg" xmlns:xlink="http://www.w3.org/1999/xlink" id="body_10" preserveAspectRatio="xMinYMin meet" viewBox="0 0 793 1123"><defs><clipPath id="1"><path id="" clip-rule="evenodd" transform="matrix(1 0 0 1 0 0)" d="M0 842L0 -0.03997803L0 -0.03997803L595.56 -0.03997803L595.56 -0.03997803L595.56 842L595.56 842L0 842z" /></clipPath><clipPath id="2"><path id="" clip-rule="evenodd" transform="matrix(1 0 0 1 0 0)" d="M529.44 806.48L541.919 806.48L541.919 806.48L541.919 792.32L541.919 792.32L529.44 792.32z" /></clipPath><clipPath id="3"><path id="" clip-rule="evenodd" transform="matrix(1 0 0 1 0 0)" d="M529.44 806.48L541.919 806.48L541.919 806.48L541.919 792.32L541.919 792.32L529.44 792.32z" /></clipPath><clipPath id="4"><path id="" clip-rule="evenodd" transform="matrix(1 0 0 1 0 0)" d="M77.16 726.68L518.76 726.68L518.76 726.68L518.76 35.96002L518.76 35.96002L77.16 35.96002z" /></clipPath><clipPath id="5"><path id="" clip-rule="evenodd" transform="matrix(1 0 0 1 0 0)" d="M36 800L56.16 800L56.16 800L56.16 726.681L56.16 726.681L36 726.681z" /></clipPath><clipPath id="6"><path id="" clip-rule="evenodd" transform="matrix(1 0 0 1 0 0)" d="M36 800L56.16 800L56.16 800L56.16 726.681L56.16 726.681L36 726.681z" /></clipPath><clipPath id="7"><path id="" clip-rule="evenodd" transform="matrix(1 0 0 1 0 0)" d="M56.16 800L77.16 800L77.16 800L77.16 726.681L77.16 726.681L56.16 726.681z" /></clipPath><clipPath id="8"><path id="" clip-rule="evenodd" transform="matrix(1 0 0 1 0 0)" d="M77.16 800L518.76 800L518.76 800L518.76 726.681L518.76 726.681L77.16 726.681z" /></clipPath><clipPath id="9"><path id="" clip-rule="evenodd" transform="matrix(1 0 0 1 0 0)" d="M77.16 800L518.76 800L518.76 800L518.76 726.681L518.76 726.681L77.16 726.681z" /></clipPath><clipPath id="10"><path id="" clip-rule="evenodd" transform="matrix(1 0 0 1 0 0)" d="M77.16 800L518.76 800L518.76 800L518.76 726.681L518.76 726.681L77.16 726.681z" /></clipPath><clipPath id="11"><path id="" clip-rule="evenodd" transform="matrix(1 0 0 1 0 0)" d="M77.16 800L518.76 800L518.76 800L518.76 726.681L518.76 726.681L77.16 726.681z" /></clipPath><clipPath id="12"><path id="" clip-rule="evenodd" transform="matrix(1 0 0 1 0 0)" d="M249.12 50L332.16 50L332.16 50L332.16 91.40002L332.16 91.40002L249.12 91.40002z" /></clipPath><clipPath id="13"><path id="" clip-rule="evenodd" transform="matrix(1 0 0 1 0 0)" d="M251.04 56.47998L330.12 56.47998L330.12 56.47998L330.12 86.95996L330.12 86.95996L251.04 86.95996z" /></clipPath><clipPath id="14"><path id="" clip-rule="evenodd" transform="matrix(1 0 0 1 0 0)" d="M258.214 51.53601C 255.019 51.53601 252.428 54.12598 252.428 57.32098L252.428 57.32098L252.428 57.32098L252.428 57.32098L252.428 80.45898C 252.428 83.65399 255.019 86.24402 258.214 86.24402L258.214 86.24402L258.214 86.24402L258.214 86.24402L323.046 86.24402C 326.241 86.24402 328.831 83.65399 328.831 80.45898L328.831 80.45898L328.831 80.45898L328.831 80.45898L328.831 57.32098C 328.831 54.12598 326.241 51.53601 323.046 51.53601L323.046 51.53601L323.046 51.53601z" /></clipPath><linearGradient gradientUnits="userSpaceOnUse" transform="matrix(1 0 0 1 0 0)" id="3167" x1="273.2762" y1="755.757" x2="273.2762" y2="790.464"><stop stop-color="#2787A0" offset="0%" /><stop stop-color="#2788A1" offset="1%" /><stop stop-color="#2788A1" offset="2%" /><stop stop-color="#2889A2" offset="3%" /><stop stop-color="#2889A2" offset="4%" /><stop stop-color="#288AA3" offset="5%" /><stop stop-color="#288AA4" offset="6%" /><stop stop-color="#288BA4" offset="7%" /><stop stop-color="#288BA5" offset="8%" /><stop stop-color="#298CA6" offset="9%" /><stop stop-color="#298CA6" offset="10%" /><stop stop-color="#298DA7" offset="11%" /><stop stop-color="#298DA7" offset="12%" /><stop stop-color="#298EA8" offset="13%" /><stop stop-color="#2A8EA9" offset="14%" /><stop stop-color="#2A8FA9" offset="15%" /><stop stop-color="#2A8FAA" offset="16%" /><stop stop-color="#2A90AB" offset="17%" /><stop stop-color="#2A90AB" offset="18%" /><stop stop-color="#2B91AC" offset="19%" /><stop stop-color="#2B92AC" offset="20%" /><stop stop-color="#2B92AD" offset="21%" /><stop stop-color="#2B93AE" offset="22%" /><stop stop-color="#2B93AE" offset="23%" /><stop stop-color="#2B94AF" offset="24%" /><stop stop-color="#2C94B0" offset="25%" /><stop stop-color="#2C95B0" offset="26%" /><stop stop-color="#2C95B1" offset="27%" /><stop stop-color="#2C96B1" offset="28%" /><stop stop-color="#2C96B2" offset="29%" /><stop stop-color="#2D97B3" offset="30%" /><stop stop-color="#2D97B3" offset="31%" /><stop stop-color="#2D98B4" offset="32%" /><stop stop-color="#2D98B5" offset="33%" /><stop stop-color="#2D99B5" offset="34%" /><stop stop-color="#2E99B6" offset="35%" /><stop stop-color="#2E9AB6" offset="36%" /><stop stop-color="#2E9AB7" offset="37%" /><stop stop-color="#2E9BB8" offset="38%" /><stop stop-color="#2E9BB8" offset="39%" /><stop stop-color="#2F9CB9" offset="40%" /><stop stop-color="#2F9DBA" offset="41%" /><stop stop-color="#2F9DBA" offset="42%" /><stop stop-color="#2F9EBB" offset="43%" /><stop stop-color="#2F9EBB" offset="44%" /><stop stop-color="#2F9FBC" offset="45%" /><stop stop-color="#309FBD" offset="46%" /><stop stop-color="#30A0BD" offset="47%" /><stop stop-color="#30A0BE" offset="48%" /><stop stop-color="#30A1BF" offset="49%" /><stop stop-color="#30A1BF" offset="50%" /><stop stop-color="#31A2C0" offset="51%" /><stop stop-color="#31A2C0" offset="52%" /><stop stop-color="#31A3C1" offset="53%" /><stop stop-color="#31A3C2" offset="54%" /><stop stop-color="#31A4C2" offset="55%" /><stop stop-color="#32A4C3" offset="56%" /><stop stop-color="#32A5C4" offset="57%" /><stop stop-color="#32A5C4" offset="58%" /><stop stop-color="#32A6C5" offset="59%" /><stop stop-color="#32A7C5" offset="60%" /><stop stop-color="#32A7C6" offset="61%" /><stop stop-color="#33A8C7" offset="62%" /><stop stop-color="#33A8C7" offset="63%" /><stop stop-color="#33A9C8" offset="64%" /><stop stop-color="#33A9C9" offset="65%" /><stop stop-color="#33AAC9" offset="66%" /><stop stop-color="#34AACA" offset="67%" /><stop stop-color="#34ABCA" offset="68%" /><stop stop-color="#34ABCB" offset="69%" /><stop stop-color="#34ACCC" offset="70%" /><stop stop-color="#34ACCC" offset="71%" /><stop stop-color="#35ADCD" offset="72%" /><stop stop-color="#35ADCE" offset="73%" /><stop stop-color="#35AECE" offset="74%" /><stop stop-color="#35AECF" offset="75%" /><stop stop-color="#35AFCF" offset="76%" /><stop stop-color="#35AFD0" offset="77%" /><stop stop-color="#36B0D1" offset="78%" /><stop stop-color="#36B0D1" offset="79%" /><stop stop-color="#36B1D2" offset="80%" /><stop stop-color="#36B1D2" offset="81%" /><stop stop-color="#36B1D2" offset="82%" /><stop stop-color="#36B1D3" offset="83%" /><stop stop-color="#36B1D3" offset="84%" /><stop stop-color="#36B2D3" offset="85%" /><stop stop-color="#35B2D3" offset="86%" /><stop stop-color="#35B2D3" offset="87%" /><stop stop-color="#35B2D4" offset="88%" /><stop stop-color="#35B2D4" offset="89%" /><stop stop-color="#35B2D4" offset="90%" /><stop stop-color="#35B2D4" offset="91%" /><stop stop-color="#35B2D4" offset="92%" /><stop stop-color="#35B2D5" offset="93%" /><stop stop-color="#35B2D5" offset="94%" /><stop stop-color="#35B3D5" offset="95%" /><stop stop-color="#34B3D5" offset="96%" /><stop stop-color="#34B3D5" offset="97%" /><stop stop-color="#34B3D6" offset="98%" /><stop stop-color="#34B3D6" offset="99%" /><stop stop-color="#34B3D6" offset="100%" /></linearGradient><clipPath id="15"><path id="" clip-rule="evenodd" transform="matrix(1 0 0 1 0 0)" d="M77.16 726.68L518.76 726.68L518.76 726.68L518.76 35.96002L518.76 35.96002L77.16 35.96002z" /></clipPath><clipPath id="16"><path id="" clip-rule="evenodd" transform="matrix(1 0 0 1 0 0)" d="M331.32 90.79999L391.44 90.79999L391.44 90.79999L391.44 132.32L391.44 132.32L331.32 132.32z" /></clipPath><clipPath id="17"><path id="" clip-rule="evenodd" transform="matrix(1 0 0 1 0 0)" d="M336.12 97.40002L386.52 97.40002L386.52 97.40002L386.52 127.76L386.52 127.76L336.12 127.76z" /></clipPath><clipPath id="18"><path id="" clip-rule="evenodd" transform="matrix(1 0 0 1 0 0)" d="M340.51 92.409C 337.315 92.409 334.725 94.99799 334.725 98.19299L334.725 98.19299L334.725 98.19299L334.725 98.19299L334.725 121.331C 334.725 124.526 337.315 127.116 340.51 127.116L340.51 127.116L340.51 127.116L340.51 127.116L382.336 127.116C 385.531 127.116 388.121 124.526 388.121 121.331L388.121 121.331L388.121 121.331L388.121 121.331L388.121 98.19299C 388.121 94.99799 385.531 92.409 382.336 92.409L382.336 92.409L382.336 92.409z" /></clipPath><linearGradient gradientUnits="userSpaceOnUse" transform="matrix(1 0 0 1 0 0)" id="8647" x1="344.0694" y1="714.884" x2="344.0694" y2="749.591"><stop stop-color="#24AA7C" offset="0%" /><stop stop-color="#24AB7D" offset="1%" /><stop stop-color="#24AB7D" offset="2%" /><stop stop-color="#25AC7E" offset="3%" /><stop stop-color="#25AD7E" offset="4%" /><stop stop-color="#25AD7F" offset="5%" /><stop stop-color="#25AE7F" offset="6%" /><stop stop-color="#25AF80" offset="7%" /><stop stop-color="#25AF80" offset="8%" /><stop stop-color="#26B081" offset="9%" /><stop stop-color="#26B181" offset="10%" /><stop stop-color="#26B182" offset="11%" /><stop stop-color="#26B282" offset="12%" /><stop stop-color="#26B283" offset="13%" /><stop stop-color="#26B383" offset="14%" /><stop stop-color="#27B484" offset="15%" /><stop stop-color="#27B484" offset="16%" /><stop stop-color="#27B585" offset="17%" /><stop stop-color="#27B685" offset="18%" /><stop stop-color="#27B686" offset="19%" /><stop stop-color="#27B786" offset="20%" /><stop stop-color="#28B887" offset="21%" /><stop stop-color="#28B887" offset="22%" /><stop stop-color="#28B988" offset="23%" /><stop stop-color="#28BA88" offset="24%" /><stop stop-color="#28BA89" offset="25%" /><stop stop-color="#29BB89" offset="26%" /><stop stop-color="#29BC8A" offset="27%" /><stop stop-color="#29BC8A" offset="28%" /><stop stop-color="#29BD8B" offset="29%" /><stop stop-color="#29BE8B" offset="30%" /><stop stop-color="#29BE8C" offset="31%" /><stop stop-color="#2ABF8C" offset="32%" /><stop stop-color="#2ABF8D" offset="33%" /><stop stop-color="#2AC08D" offset="34%" /><stop stop-color="#2AC18E" offset="35%" /><stop stop-color="#2AC18E" offset="36%" /><stop stop-color="#2AC28F" offset="37%" /><stop stop-color="#2BC38F" offset="38%" /><stop stop-color="#2BC390" offset="39%" /><stop stop-color="#2BC490" offset="40%" /><stop stop-color="#2BC591" offset="41%" /><stop stop-color="#2BC591" offset="42%" /><stop stop-color="#2CC692" offset="43%" /><stop stop-color="#2CC792" offset="44%" /><stop stop-color="#2CC793" offset="45%" /><stop stop-color="#2CC893" offset="46%" /><stop stop-color="#2CC994" offset="47%" /><stop stop-color="#2CC994" offset="48%" /><stop stop-color="#2DCA95" offset="49%" /><stop stop-color="#2DCA95" offset="50%" /><stop stop-color="#2DCB96" offset="51%" /><stop stop-color="#2DCC96" offset="52%" /><stop stop-color="#2DCC96" offset="53%" /><stop stop-color="#2DCD97" offset="54%" /><stop stop-color="#2ECE97" offset="55%" /><stop stop-color="#2ECE98" offset="56%" /><stop stop-color="#2ECF98" offset="57%" /><stop stop-color="#2ED099" offset="58%" /><stop stop-color="#2ED099" offset="59%" /><stop stop-color="#2ED19A" offset="60%" /><stop stop-color="#2FD29A" offset="61%" /><stop stop-color="#2FD29B" offset="62%" /><stop stop-color="#2FD39B" offset="63%" /><stop stop-color="#2FD49C" offset="64%" /><stop stop-color="#2FD49C" offset="65%" /><stop stop-color="#30D59D" offset="66%" /><stop stop-color="#30D69D" offset="67%" /><stop stop-color="#30D69E" offset="68%" /><stop stop-color="#30D79E" offset="69%" /><stop stop-color="#30D79F" offset="70%" /><stop stop-color="#30D89F" offset="71%" /><stop stop-color="#31D9A0" offset="72%" /><stop stop-color="#31D9A0" offset="73%" /><stop stop-color="#31DAA1" offset="74%" /><stop stop-color="#31DBA1" offset="75%" /><stop stop-color="#31DBA2" offset="76%" /><stop stop-color="#31DCA2" offset="77%" /><stop stop-color="#32DDA3" offset="78%" /><stop stop-color="#32DDA3" offset="79%" /><stop stop-color="#32DEA4" offset="80%" /><stop stop-color="#32DEA4" offset="81%" /><stop stop-color="#32DEA4" offset="82%" /><stop stop-color="#32DFA4" offset="83%" /><stop stop-color="#31DFA4" offset="84%" /><stop stop-color="#31DFA4" offset="85%" /><stop stop-color="#31DFA5" offset="86%" /><stop stop-color="#31E0A5" offset="87%" /><stop stop-color="#31E0A5" offset="88%" /><stop stop-color="#31E0A5" offset="89%" /><stop stop-color="#30E0A5" offset="90%" /><stop stop-color="#30E1A5" offset="91%" /><stop stop-color="#30E1A5" offset="92%" /><stop stop-color="#30E1A5" offset="93%" /><stop stop-color="#30E1A5" offset="94%" /><stop stop-color="#30E2A5" offset="95%" /><stop stop-color="#30E2A6" offset="96%" /><stop stop-color="#2FE2A6" offset="97%" /><stop stop-color="#2FE2A6" offset="98%" /><stop stop-color="#2FE3A6" offset="99%" /><stop stop-color="#2FE3A6" offset="100%" /></linearGradient><clipPath id="19"><path id="" clip-rule="evenodd" transform="matrix(1 0 0 1 0 0)" d="M77.16 726.68L518.76 726.68L518.76 726.68L518.76 35.96002L518.76 35.96002L77.16 35.96002z" /></clipPath><clipPath id="20"><path id="" clip-rule="evenodd" transform="matrix(1 0 0 1 0 0)" d="M316.08 172.64L406.68 172.64L406.68 172.64L406.68 214.04L406.68 214.04L316.08 214.04z" /></clipPath><clipPath id="21"><path id="" clip-rule="evenodd" transform="matrix(1 0 0 1 0 0)" d="M315.12 179.12L407.88 179.12L407.88 179.12L407.88 209.48L407.88 209.48L315.12 209.48z" /></clipPath><clipPath id="22"><path id="" clip-rule="evenodd" transform="matrix(1 0 0 1 0 0)" d="M325.277 174.154C 322.082 174.154 319.493 176.743 319.493 179.938L319.493 179.938L319.493 179.938L319.493 179.938L319.493 203.077C 319.493 206.272 322.082 208.862 325.277 208.862L325.277 208.862L325.277 208.862L325.277 208.862L397.57 208.862C 400.764 208.862 403.354 206.272 403.354 203.077L403.354 203.077L403.354 203.077L403.354 203.077L403.354 179.938C 403.354 176.743 400.764 174.154 397.57 174.154L397.57 174.154L397.57 174.154z" /></clipPath><linearGradient gradientUnits="userSpaceOnUse" transform="matrix(1 0 0 1 0 0)" id="14115" x1="344.0692" y1="633.139" x2="344.0692" y2="667.846"><stop stop-color="#21B331" offset="0%" /><stop stop-color="#21B431" offset="1%" /><stop stop-color="#21B431" offset="2%" /><stop stop-color="#22B532" offset="3%" /><stop stop-color="#22B632" offset="4%" /><stop stop-color="#22B632" offset="5%" /><stop stop-color="#22B732" offset="6%" /><stop stop-color="#22B833" offset="7%" /><stop stop-color="#22B933" offset="8%" /><stop stop-color="#23B933" offset="9%" /><stop stop-color="#23BA33" offset="10%" /><stop stop-color="#23BB33" offset="11%" /><stop stop-color="#23BB34" offset="12%" /><stop stop-color="#23BC34" offset="13%" /><stop stop-color="#23BD34" offset="14%" /><stop stop-color="#24BD34" offset="15%" /><stop stop-color="#24BE35" offset="16%" /><stop stop-color="#24BF35" offset="17%" /><stop stop-color="#24BF35" offset="18%" /><stop stop-color="#24C035" offset="19%" /><stop stop-color="#25C136" offset="20%" /><stop stop-color="#25C136" offset="21%" /><stop stop-color="#25C236" offset="22%" /><stop stop-color="#25C336" offset="23%" /><stop stop-color="#25C436" offset="24%" /><stop stop-color="#25C437" offset="25%" /><stop stop-color="#26C537" offset="26%" /><stop stop-color="#26C637" offset="27%" /><stop stop-color="#26C637" offset="28%" /><stop stop-color="#26C738" offset="29%" /><stop stop-color="#26C838" offset="30%" /><stop stop-color="#26C838" offset="31%" /><stop stop-color="#27C938" offset="32%" /><stop stop-color="#27CA38" offset="33%" /><stop stop-color="#27CA39" offset="34%" /><stop stop-color="#27CB39" offset="35%" /><stop stop-color="#27CC39" offset="36%" /><stop stop-color="#27CC39" offset="37%" /><stop stop-color="#28CD3A" offset="38%" /><stop stop-color="#28CE3A" offset="39%" /><stop stop-color="#28CF3A" offset="40%" /><stop stop-color="#28CF3A" offset="41%" /><stop stop-color="#28D03A" offset="42%" /><stop stop-color="#29D13B" offset="43%" /><stop stop-color="#29D13B" offset="44%" /><stop stop-color="#29D23B" offset="45%" /><stop stop-color="#29D33B" offset="46%" /><stop stop-color="#29D33C" offset="47%" /><stop stop-color="#29D43C" offset="48%" /><stop stop-color="#2AD53C" offset="49%" /><stop stop-color="#2AD53C" offset="50%" /><stop stop-color="#2AD63C" offset="51%" /><stop stop-color="#2AD73D" offset="52%" /><stop stop-color="#2AD73D" offset="53%" /><stop stop-color="#2AD83D" offset="54%" /><stop stop-color="#2BD93D" offset="55%" /><stop stop-color="#2BDA3E" offset="56%" /><stop stop-color="#2BDA3E" offset="57%" /><stop stop-color="#2BDB3E" offset="58%" /><stop stop-color="#2BDC3E" offset="59%" /><stop stop-color="#2CDC3E" offset="60%" /><stop stop-color="#2CDD3F" offset="61%" /><stop stop-color="#2CDE3F" offset="62%" /><stop stop-color="#2CDE3F" offset="63%" /><stop stop-color="#2CDF3F" offset="64%" /><stop stop-color="#2CE040" offset="65%" /><stop stop-color="#2DE040" offset="66%" /><stop stop-color="#2DE140" offset="67%" /><stop stop-color="#2DE240" offset="68%" /><stop stop-color="#2DE241" offset="69%" /><stop stop-color="#2DE341" offset="70%" /><stop stop-color="#2DE441" offset="71%" /><stop stop-color="#2EE441" offset="72%" /><stop stop-color="#2EE541" offset="73%" /><stop stop-color="#2EE642" offset="74%" /><stop stop-color="#2EE742" offset="75%" /><stop stop-color="#2EE742" offset="76%" /><stop stop-color="#2EE842" offset="77%" /><stop stop-color="#2FE943" offset="78%" /><stop stop-color="#2FE943" offset="79%" /><stop stop-color="#2FEA43" offset="80%" /><stop stop-color="#2FEA43" offset="81%" /><stop stop-color="#2FEA43" offset="82%" /><stop stop-color="#2EEB43" offset="83%" /><stop stop-color="#2EEB42" offset="84%" /><stop stop-color="#2EEB42" offset="85%" /><stop stop-color="#2EEB42" offset="86%" /><stop stop-color="#2EEC42" offset="87%" /><stop stop-color="#2DEC42" offset="88%" /><stop stop-color="#2DEC42" offset="89%" /><stop stop-color="#2DED41" offset="90%" /><stop stop-color="#2DED41" offset="91%" /><stop stop-color="#2DED41" offset="92%" /><stop stop-color="#2CED41" offset="93%" /><stop stop-color="#2CEE41" offset="94%" /><stop stop-color="#2CEE41" offset="95%" /><stop stop-color="#2CEE41" offset="96%" /><stop stop-color="#2CEE40" offset="97%" /><stop stop-color="#2BEF40" offset="98%" /><stop stop-color="#2BEF40" offset="99%" /><stop stop-color="#2BEF40" offset="100%" /></linearGradient><clipPath id="23"><path id="" clip-rule="evenodd" transform="matrix(1 0 0 1 0 0)" d="M77.16 726.68L518.76 726.68L518.76 726.68L518.76 35.96002L518.76 35.96002L77.16 35.96002z" /></clipPath><clipPath id="24"><path id="" clip-rule="evenodd" transform="matrix(1 0 0 1 0 0)" d="M260.52 213.44L320.64 213.44L320.64 213.44L320.64 254.96L320.64 254.96L260.52 254.96z" /></clipPath><clipPath id="25"><path id="" clip-rule="evenodd" transform="matrix(1 0 0 1 0 0)" d="M264.36 219.92L317.04 219.92L317.04 219.92L317.04 250.4L317.04 250.4L264.36 250.4z" /></clipPath><clipPath id="26"><path id="" clip-rule="evenodd" transform="matrix(1 0 0 1 0 0)" d="M269.716 215.027C 266.521 215.027 263.931 217.616 263.931 220.811L263.931 220.811L263.931 220.811L263.931 220.811L263.931 243.949C 263.931 247.144 266.521 249.733 269.716 249.733L269.716 249.733L269.716 249.733L269.716 249.733L311.543 249.733C 314.738 249.733 317.328 247.144 317.328 243.949L317.328 243.949L317.328 243.949L317.328 243.949L317.328 220.811C 317.328 217.616 314.738 215.027 311.543 215.027L311.543 215.027L311.543 215.027z" /></clipPath><linearGradient gradientUnits="userSpaceOnUse" transform="matrix(1 0 0 1 0 0)" id="19585" x1="273.2765" y1="592.266" x2="273.2765" y2="626.974"><stop stop-color="#65BC1F" offset="0%" /><stop stop-color="#65BD1F" offset="1%" /><stop stop-color="#66BD1F" offset="2%" /><stop stop-color="#66BE1F" offset="3%" /><stop stop-color="#67BF20" offset="4%" /><stop stop-color="#67C020" offset="5%" /><stop stop-color="#67C020" offset="6%" /><stop stop-color="#68C120" offset="7%" /><stop stop-color="#68C220" offset="8%" /><stop stop-color="#69C220" offset="9%" /><stop stop-color="#69C321" offset="10%" /><stop stop-color="#6AC421" offset="11%" /><stop stop-color="#6AC521" offset="12%" /><stop stop-color="#6AC521" offset="13%" /><stop stop-color="#6BC621" offset="14%" /><stop stop-color="#6BC721" offset="15%" /><stop stop-color="#6CC722" offset="16%" /><stop stop-color="#6CC822" offset="17%" /><stop stop-color="#6CC922" offset="18%" /><stop stop-color="#6DCA22" offset="19%" /><stop stop-color="#6DCA22" offset="20%" /><stop stop-color="#6ECB22" offset="21%" /><stop stop-color="#6ECC23" offset="22%" /><stop stop-color="#6ECC23" offset="23%" /><stop stop-color="#6FCD23" offset="24%" /><stop stop-color="#6FCE23" offset="25%" /><stop stop-color="#70CF23" offset="26%" /><stop stop-color="#70CF23" offset="27%" /><stop stop-color="#71D024" offset="28%" /><stop stop-color="#71D124" offset="29%" /><stop stop-color="#71D124" offset="30%" /><stop stop-color="#72D224" offset="31%" /><stop stop-color="#72D324" offset="32%" /><stop stop-color="#73D424" offset="33%" /><stop stop-color="#73D425" offset="34%" /><stop stop-color="#73D525" offset="35%" /><stop stop-color="#74D625" offset="36%" /><stop stop-color="#74D625" offset="37%" /><stop stop-color="#75D725" offset="38%" /><stop stop-color="#75D825" offset="39%" /><stop stop-color="#75D826" offset="40%" /><stop stop-color="#76D926" offset="41%" /><stop stop-color="#76DA26" offset="42%" /><stop stop-color="#77DB26" offset="43%" /><stop stop-color="#77DB26" offset="44%" /><stop stop-color="#78DC26" offset="45%" /><stop stop-color="#78DD26" offset="46%" /><stop stop-color="#78DD27" offset="47%" /><stop stop-color="#79DE27" offset="48%" /><stop stop-color="#79DF27" offset="49%" /><stop stop-color="#7AE027" offset="50%" /><stop stop-color="#7AE027" offset="51%" /><stop stop-color="#7AE127" offset="52%" /><stop stop-color="#7BE228" offset="53%" /><stop stop-color="#7BE228" offset="54%" /><stop stop-color="#7CE328" offset="55%" /><stop stop-color="#7CE428" offset="56%" /><stop stop-color="#7DE528" offset="57%" /><stop stop-color="#7DE528" offset="58%" /><stop stop-color="#7DE629" offset="59%" /><stop stop-color="#7EE729" offset="60%" /><stop stop-color="#7EE729" offset="61%" /><stop stop-color="#7FE829" offset="62%" /><stop stop-color="#7FE929" offset="63%" /><stop stop-color="#7FEA29" offset="64%" /><stop stop-color="#80EA2A" offset="65%" /><stop stop-color="#80EB2A" offset="66%" /><stop stop-color="#81EC2A" offset="67%" /><stop stop-color="#81EC2A" offset="68%" /><stop stop-color="#81ED2A" offset="69%" /><stop stop-color="#82EE2A" offset="70%" /><stop stop-color="#82EF2B" offset="71%" /><stop stop-color="#83EF2B" offset="72%" /><stop stop-color="#83F02B" offset="73%" /><stop stop-color="#84F12B" offset="74%" /><stop stop-color="#84F12B" offset="75%" /><stop stop-color="#84F22B" offset="76%" /><stop stop-color="#85F32C" offset="77%" /><stop stop-color="#85F42C" offset="78%" /><stop stop-color="#86F42C" offset="79%" /><stop stop-color="#86F52C" offset="80%" /><stop stop-color="#86F52C" offset="81%" /><stop stop-color="#86F62C" offset="82%" /><stop stop-color="#86F62C" offset="83%" /><stop stop-color="#86F62B" offset="84%" /><stop stop-color="#86F62B" offset="85%" /><stop stop-color="#86F72B" offset="86%" /><stop stop-color="#86F72B" offset="87%" /><stop stop-color="#86F72B" offset="88%" /><stop stop-color="#86F82B" offset="89%" /><stop stop-color="#86F82A" offset="90%" /><stop stop-color="#86F82A" offset="91%" /><stop stop-color="#86F92A" offset="92%" /><stop stop-color="#86F92A" offset="93%" /><stop stop-color="#86F92A" offset="94%" /><stop stop-color="#86FA2A" offset="95%" /><stop stop-color="#86FA2A" offset="96%" /><stop stop-color="#86FA29" offset="97%" /><stop stop-color="#86FA29" offset="98%" /><stop stop-color="#86FB29" offset="99%" /><stop stop-color="#86FB29" offset="100%" /></linearGradient><clipPath id="27"><path id="" clip-rule="evenodd" transform="matrix(1 0 0 1 0 0)" d="M77.16 726.68L518.76 726.68L518.76 726.68L518.76 35.96002L518.76 35.96002L77.16 35.96002z" /></clipPath><clipPath id="28"><path id="" clip-rule="evenodd" transform="matrix(1 0 0 1 0 0)" d="M175.44 172.64L264.24 172.64L264.24 172.64L264.24 214.04L264.24 214.04L175.44 214.04z" /></clipPath><clipPath id="29"><path id="" clip-rule="evenodd" transform="matrix(1 0 0 1 0 0)" d="M182.04 179.12L257.76 179.12L257.76 179.12L257.76 209.48L257.76 209.48L182.04 209.48z" /></clipPath><clipPath id="30"><path id="" clip-rule="evenodd" transform="matrix(1 0 0 1 0 0)" d="M184.63 174.154C 181.436 174.154 178.846 176.743 178.846 179.938L178.846 179.938L178.846 179.938L178.846 179.938L178.846 203.077C 178.846 206.271 181.436 208.861 184.63 208.861L184.63 208.861L184.63 208.861L184.63 208.861L255.042 208.861C 258.237 208.861 260.826 206.271 260.826 203.077L260.826 203.077L260.826 203.077L260.826 203.077L260.826 179.938C 260.826 176.743 258.237 174.154 255.042 174.154L255.042 174.154L255.042 174.154z" /></clipPath><linearGradient gradientUnits="userSpaceOnUse" transform="matrix(1 0 0 1 0 0)" id="25053" x1="202.4826" y1="633.139" x2="202.4826" y2="667.846"><stop stop-color="#C3C41E" offset="0%" /><stop stop-color="#C4C51E" offset="1%" /><stop stop-color="#C5C51E" offset="2%" /><stop stop-color="#C5C61E" offset="3%" /><stop stop-color="#C6C71F" offset="4%" /><stop stop-color="#C7C81F" offset="5%" /><stop stop-color="#C8C81F" offset="6%" /><stop stop-color="#C8C91F" offset="7%" /><stop stop-color="#C9CA1F" offset="8%" /><stop stop-color="#CACB1F" offset="9%" /><stop stop-color="#CBCB20" offset="10%" /><stop stop-color="#CBCC20" offset="11%" /><stop stop-color="#CCCD20" offset="12%" /><stop stop-color="#CDCE20" offset="13%" /><stop stop-color="#CECE20" offset="14%" /><stop stop-color="#CECF20" offset="15%" /><stop stop-color="#CFD021" offset="16%" /><stop stop-color="#D0D121" offset="17%" /><stop stop-color="#D1D121" offset="18%" /><stop stop-color="#D1D221" offset="19%" /><stop stop-color="#D2D321" offset="20%" /><stop stop-color="#D3D321" offset="21%" /><stop stop-color="#D4D422" offset="22%" /><stop stop-color="#D4D522" offset="23%" /><stop stop-color="#D5D622" offset="24%" /><stop stop-color="#D6D622" offset="25%" /><stop stop-color="#D7D722" offset="26%" /><stop stop-color="#D7D822" offset="27%" /><stop stop-color="#D8D923" offset="28%" /><stop stop-color="#D9D923" offset="29%" /><stop stop-color="#DADA23" offset="30%" /><stop stop-color="#DADB23" offset="31%" /><stop stop-color="#DBDC23" offset="32%" /><stop stop-color="#DCDC23" offset="33%" /><stop stop-color="#DDDD24" offset="34%" /><stop stop-color="#DDDE24" offset="35%" /><stop stop-color="#DEDF24" offset="36%" /><stop stop-color="#DFDF24" offset="37%" /><stop stop-color="#E0E024" offset="38%" /><stop stop-color="#E0E124" offset="39%" /><stop stop-color="#E1E124" offset="40%" /><stop stop-color="#E2E225" offset="41%" /><stop stop-color="#E3E325" offset="42%" /><stop stop-color="#E3E425" offset="43%" /><stop stop-color="#E4E425" offset="44%" /><stop stop-color="#E5E525" offset="45%" /><stop stop-color="#E6E625" offset="46%" /><stop stop-color="#E6E726" offset="47%" /><stop stop-color="#E7E726" offset="48%" /><stop stop-color="#E8E826" offset="49%" /><stop stop-color="#E9E926" offset="50%" /><stop stop-color="#E9EA26" offset="51%" /><stop stop-color="#EAEA26" offset="52%" /><stop stop-color="#EBEB27" offset="53%" /><stop stop-color="#ECEC27" offset="54%" /><stop stop-color="#ECED27" offset="55%" /><stop stop-color="#EDED27" offset="56%" /><stop stop-color="#EEEE27" offset="57%" /><stop stop-color="#EFEF27" offset="58%" /><stop stop-color="#EFF028" offset="59%" /><stop stop-color="#F0F028" offset="60%" /><stop stop-color="#F1F128" offset="61%" /><stop stop-color="#F2F228" offset="62%" /><stop stop-color="#F2F228" offset="63%" /><stop stop-color="#F3F328" offset="64%" /><stop stop-color="#F4F429" offset="65%" /><stop stop-color="#F5F529" offset="66%" /><stop stop-color="#F5F529" offset="67%" /><stop stop-color="#F6F629" offset="68%" /><stop stop-color="#F7F729" offset="69%" /><stop stop-color="#F8F829" offset="70%" /><stop stop-color="#F8F82A" offset="71%" /><stop stop-color="#F9F92A" offset="72%" /><stop stop-color="#FAFA2A" offset="73%" /><stop stop-color="#FBFB2A" offset="74%" /><stop stop-color="#FBFB2A" offset="75%" /><stop stop-color="#FCFC2A" offset="76%" /><stop stop-color="#FDFD2B" offset="77%" /><stop stop-color="#FDFE2B" offset="78%" /><stop stop-color="#FEFE2B" offset="79%" /><stop stop-color="#FFFF2B" offset="80%" /><stop stop-color="#FFFF2B" offset="81%" /><stop stop-color="#FFFF2B" offset="82%" /><stop stop-color="#FFFF2A" offset="83%" /><stop stop-color="#FFFF2A" offset="84%" /><stop stop-color="#FFFF2A" offset="85%" /><stop stop-color="#FFFF2A" offset="86%" /><stop stop-color="#FFFF2A" offset="87%" /><stop stop-color="#FFFF29" offset="88%" /><stop stop-color="#FFFF29" offset="89%" /><stop stop-color="#FFFF29" offset="90%" /><stop stop-color="#FFFF29" offset="91%" /><stop stop-color="#FFFF29" offset="92%" /><stop stop-color="#FFFF28" offset="93%" /><stop stop-color="#FFFF28" offset="94%" /><stop stop-color="#FFFF28" offset="95%" /><stop stop-color="#FFFF28" offset="96%" /><stop stop-color="#FFFF28" offset="97%" /><stop stop-color="#FFFF27" offset="98%" /><stop stop-color="#FFFF27" offset="99%" /><stop stop-color="#FFFF27" offset="100%" /></linearGradient><clipPath id="31"><path id="" clip-rule="evenodd" transform="matrix(1 0 0 1 0 0)" d="M77.16 726.68L518.76 726.68L518.76 726.68L518.76 35.96002L518.76 35.96002L77.16 35.96002z" /></clipPath><clipPath id="32"><path id="" clip-rule="evenodd" transform="matrix(1 0 0 1 0 0)" d="M177 90.79999L262.68 90.79999L262.68 90.79999L262.68 132.32L262.68 132.32L177 132.32z" /></clipPath><clipPath id="33"><path id="" clip-rule="evenodd" transform="matrix(1 0 0 1 0 0)" d="M180 97.40002L259.56 97.40002L259.56 97.40002L259.56 127.76L259.56 127.76L180 127.76z" /></clipPath><clipPath id="34"><path id="" clip-rule="evenodd" transform="matrix(1 0 0 1 0 0)" d="M186.174 92.409C 182.979 92.409 180.389 94.99799 180.389 98.19299L180.389 98.19299L180.389 98.19299L180.389 98.19299L180.389 121.331C 180.389 124.526 182.979 127.116 186.174 127.116L186.174 127.116L186.174 127.116L186.174 127.116L253.499 127.116C 256.693 127.116 259.284 124.526 259.284 121.331L259.284 121.331L259.284 121.331L259.284 121.331L259.284 98.19299C 259.284 94.99799 256.693 92.409 253.499 92.409L253.499 92.409L253.499 92.409z" /></clipPath><linearGradient gradientUnits="userSpaceOnUse" transform="matrix(1 0 0 1 0 0)" id="30527" x1="202.4823" y1="714.884" x2="202.4823" y2="749.591"><stop stop-color="#CB6C1D" offset="0%" /><stop stop-color="#CC6C1D" offset="1%" /><stop stop-color="#CC6D1D" offset="2%" /><stop stop-color="#CD6D1D" offset="3%" /><stop stop-color="#CE6E1E" offset="4%" /><stop stop-color="#CE6E1E" offset="5%" /><stop stop-color="#CF6F1E" offset="6%" /><stop stop-color="#D06F1E" offset="7%" /><stop stop-color="#D06F1E" offset="8%" /><stop stop-color="#D1701E" offset="9%" /><stop stop-color="#D1701F" offset="10%" /><stop stop-color="#D2711F" offset="11%" /><stop stop-color="#D3711F" offset="12%" /><stop stop-color="#D3721F" offset="13%" /><stop stop-color="#D4721F" offset="14%" /><stop stop-color="#D5731F" offset="15%" /><stop stop-color="#D57320" offset="16%" /><stop stop-color="#D67320" offset="17%" /><stop stop-color="#D77420" offset="18%" /><stop stop-color="#D77420" offset="19%" /><stop stop-color="#D87520" offset="20%" /><stop stop-color="#D97520" offset="21%" /><stop stop-color="#D97621" offset="22%" /><stop stop-color="#DA7621" offset="23%" /><stop stop-color="#DB7621" offset="24%" /><stop stop-color="#DB7721" offset="25%" /><stop stop-color="#DC7721" offset="26%" /><stop stop-color="#DD7821" offset="27%" /><stop stop-color="#DD7822" offset="28%" /><stop stop-color="#DE7922" offset="29%" /><stop stop-color="#DE7922" offset="30%" /><stop stop-color="#DF7A22" offset="31%" /><stop stop-color="#E07A22" offset="32%" /><stop stop-color="#E07A22" offset="33%" /><stop stop-color="#E17B23" offset="34%" /><stop stop-color="#E27B23" offset="35%" /><stop stop-color="#E27C23" offset="36%" /><stop stop-color="#E37C23" offset="37%" /><stop stop-color="#E47D23" offset="38%" /><stop stop-color="#E47D23" offset="39%" /><stop stop-color="#E57D23" offset="40%" /><stop stop-color="#E67E24" offset="41%" /><stop stop-color="#E67E24" offset="42%" /><stop stop-color="#E77F24" offset="43%" /><stop stop-color="#E87F24" offset="44%" /><stop stop-color="#E88024" offset="45%" /><stop stop-color="#E98024" offset="46%" /><stop stop-color="#EA8125" offset="47%" /><stop stop-color="#EA8125" offset="48%" /><stop stop-color="#EB8125" offset="49%" /><stop stop-color="#EB8225" offset="50%" /><stop stop-color="#EC8225" offset="51%" /><stop stop-color="#ED8325" offset="52%" /><stop stop-color="#ED8326" offset="53%" /><stop stop-color="#EE8426" offset="54%" /><stop stop-color="#EF8426" offset="55%" /><stop stop-color="#EF8426" offset="56%" /><stop stop-color="#F08526" offset="57%" /><stop stop-color="#F18526" offset="58%" /><stop stop-color="#F18627" offset="59%" /><stop stop-color="#F28627" offset="60%" /><stop stop-color="#F38727" offset="61%" /><stop stop-color="#F38727" offset="62%" /><stop stop-color="#F48827" offset="63%" /><stop stop-color="#F58827" offset="64%" /><stop stop-color="#F58828" offset="65%" /><stop stop-color="#F68928" offset="66%" /><stop stop-color="#F78928" offset="67%" /><stop stop-color="#F78A28" offset="68%" /><stop stop-color="#F88A28" offset="69%" /><stop stop-color="#F88B28" offset="70%" /><stop stop-color="#F98B29" offset="71%" /><stop stop-color="#FA8B29" offset="72%" /><stop stop-color="#FA8C29" offset="73%" /><stop stop-color="#FB8C29" offset="74%" /><stop stop-color="#FC8D29" offset="75%" /><stop stop-color="#FC8D29" offset="76%" /><stop stop-color="#FD8E2A" offset="77%" /><stop stop-color="#FE8E2A" offset="78%" /><stop stop-color="#FE8F2A" offset="79%" /><stop stop-color="#FF8F2A" offset="80%" /><stop stop-color="#FF8F2A" offset="81%" /><stop stop-color="#FF8F2A" offset="82%" /><stop stop-color="#FF8F29" offset="83%" /><stop stop-color="#FF8F29" offset="84%" /><stop stop-color="#FF8F29" offset="85%" /><stop stop-color="#FF8F29" offset="86%" /><stop stop-color="#FF8F29" offset="87%" /><stop stop-color="#FF8F28" offset="88%" /><stop stop-color="#FF8F28" offset="89%" /><stop stop-color="#FF8F28" offset="90%" /><stop stop-color="#FF8F28" offset="91%" /><stop stop-color="#FF8F28" offset="92%" /><stop stop-color="#FF8F27" offset="93%" /><stop stop-color="#FF8F27" offset="94%" /><stop stop-color="#FF8F27" offset="95%" /><stop stop-color="#FF8F27" offset="96%" /><stop stop-color="#FF8F27" offset="97%" /><stop stop-color="#FF8F26" offset="98%" /><stop stop-color="#FF8F26" offset="99%" /><stop stop-color="#FF8F26" offset="100%" /></linearGradient><clipPath id="35"><path id="" clip-rule="evenodd" transform="matrix(1 0 0 1 0 0)" d="M77.16 726.68L518.76 726.68L518.76 726.68L518.76 35.96002L518.76 35.96002L77.16 35.96002z" /></clipPath></defs><g transform="matrix(1.333333 0 0 1.333333 0 0)"><g clip-path="url(#1)"><g clip-path="url(#2)"></g><g clip-path="url(#3)"></g><g clip-path="url(#4)"></g><g clip-path="url(#5)"></g><g clip-path="url(#6)"></g><g clip-path="url(#7)"></g><g clip-path="url(#8)"></g><g clip-path="url(#9)"></g><g clip-path="url(#10)"></g><g clip-path="url(#11)"></g><g clip-path="url(#12)"><g transform="matrix(0.48 0 0 0.475862 249.12 49.99994)"><g transform="matrix(1 0 0 1 0 0)"><image x="0" y="0" xlink:href="img_12.png" width="173" height="87" /></g></g></g><g clip-path="url(#13)"><g transform="matrix(0.4792727 0 0 0.47625 251.04 56.4801)"><g transform="matrix(1 0 0 1 0 0)"><image x="0" y="0" xlink:href="img_13.png" width="165" height="64" /></g></g></g><g clip-path="url(#14)"><g><path id="1250" transform="matrix(1 0 0 -1 0 842)" d="M252.4281 790.464L328.8311 790.464L328.8311 790.464L328.8311 755.757L328.8311 755.757L252.4281 755.757" stroke="none" fill="url(#3167)" /><path id="1251" transform="matrix(1 0 0 -1 0 842)" d="M0 755.757L595 755.757L595 755.757L595 0L595 0L0 0" stroke="none" fill="#2787A0" fill-rule="evenodd" /></g></g><g clip-path="url(#15)"><path id="1264" transform="matrix(1 0 0 -1 0 842)" d="M332.9666 761.2927C 336.8466 758.9437 340.5246 756.2757 343.9616 753.3167" stroke="#4BACC6" stroke-width="0.75" fill="none" /><path id="1265" transform="matrix(1 0 0 -1 0 842)" d="M341.7307 759.8919L343.9637 753.3149L343.9637 753.3149L337.1397 754.6079" stroke="#4BACC6" stroke-width="0.75" stroke-linecap="round" fill="none" /></g><g clip-path="url(#16)"><g transform="matrix(0.4771429 0 0 0.4772414 331.32 90.80011)"><g transform="matrix(1 0 0 1 0 0)"><image x="0" y="0" xlink:href="img_14.png" width="126" height="87" /></g></g></g><g clip-path="url(#17)"><g transform="matrix(0.48 0 0 0.474375 336.12 97.3999)"><g transform="matrix(1 0 0 1 0 0)"><image x="0" y="0" xlink:href="img_15.png" width="105" height="64" /></g></g></g><g clip-path="url(#18)"><g><path id="1268" transform="matrix(1 0 0 -1 0 842)" d="M334.7254 749.591L388.1214 749.591L388.1214 749.591L388.1214 714.884L388.1214 714.884L334.7254 714.884" stroke="none" fill="url(#8647)" /></g></g><g clip-path="url(#19)"><path id="1277" transform="matrix(1 0 0 -1 0 842)" d="M371.1015 705.7384C 372.7555 696.4784 372.7985 687.0044 371.2305 677.7334" stroke="#49D1A3" stroke-width="0.75" fill="none" /><path id="1278" transform="matrix(1 0 0 -1 0 842)" d="M375.7044 683.0352L371.2284 677.7232L371.2284 677.7232L368.8074 684.2342" stroke="#49D1A3" stroke-width="0.75" stroke-linecap="round" fill="none" /></g><g clip-path="url(#20)"><g transform="matrix(0.4793651 0 0 0.475862 316.08 172.64)"><g transform="matrix(1 0 0 1 0 0)"><image x="0" y="0" xlink:href="img_16.png" width="189" height="87" /></g></g></g><g clip-path="url(#21)"><g transform="matrix(0.4781443 0 0 0.474375 315.12 179.12)"><g transform="matrix(1 0 0 1 0 0)"><image x="0" y="0" xlink:href="img_17.png" width="194" height="64" /></g></g></g><g clip-path="url(#22)"><g><path id="1281" transform="matrix(1 0 0 -1 0 842)" d="M319.4922 667.846L403.3542 667.846L403.3542 667.846L403.3542 633.139L403.3542 633.139L319.4922 633.139" stroke="none" fill="url(#14115)" /><path id="1282" transform="matrix(1 0 0 -1 0 842)" d="M0 633.139L595 633.139L595 633.139L595 0L595 0L0 0" stroke="none" fill="#21B331" fill-rule="evenodd" /></g></g><g clip-path="url(#23)"><path id="1298" transform="matrix(1 0 0 -1 0 842)" d="M342.6452 628.3042C 337.1812 623.7972 331.1562 620.0202 324.7212 617.0682" stroke="#47DC57" stroke-width="0.75" fill="none" /><path id="1299" transform="matrix(1 0 0 -1 0 842)" d="M331.6258 616.3555L324.7158 617.0656L324.7158 617.0656L328.7358 622.7305" stroke="#47DC57" stroke-width="0.75" stroke-linecap="round" fill="none" /></g><g clip-path="url(#24)"><g transform="matrix(0.4771429 0 0 0.4772414 260.52 213.4401)"><g transform="matrix(1 0 0 1 0 0)"><image x="0" y="0" xlink:href="img_18.png" width="126" height="87" /></g></g></g><g clip-path="url(#25)"><g transform="matrix(0.478909 0 0 0.47625 264.36 219.92)"><g transform="matrix(1 0 0 1 0 0)"><image x="0" y="0" xlink:href="img_19.png" width="110" height="64" /></g></g></g><g clip-path="url(#26)"><g><path id="1302" transform="matrix(1 0 0 -1 0 842)" d="M263.9315 626.974L317.3275 626.974L317.3275 626.974L317.3275 592.266L317.3275 592.266L263.9315 592.266" stroke="none" fill="url(#19585)" /></g></g><g clip-path="url(#27)"><path id="1312" transform="matrix(1 0 0 -1 0 842)" d="M257.2199 616.759C 250.7559 619.654 244.6969 623.376 239.1939 627.831" stroke="#8DE646" stroke-width="0.75" fill="none" /><path id="1313" transform="matrix(1 0 0 -1 0 842)" d="M241.6209 621.3276L239.1889 627.8346L239.1889 627.8346L246.0499 626.7476" stroke="#8DE646" stroke-width="0.75" stroke-linecap="round" fill="none" /></g><g clip-path="url(#28)"><g transform="matrix(0.48 0 0 0.475862 175.44 172.64)"><g transform="matrix(1 0 0 1 0 0)"><image x="0" y="0" xlink:href="img_20.png" width="185" height="87" /></g></g></g><g clip-path="url(#29)"><g transform="matrix(0.4792405 0 0 0.474375 182.04 179.12)"><g transform="matrix(1 0 0 1 0 0)"><image x="0" y="0" xlink:href="img_21.png" width="158" height="64" /></g></g></g><g clip-path="url(#30)"><g><path id="1316" transform="matrix(1 0 0 -1 0 842)" d="M178.8466 667.846L260.8265 667.846L260.8265 667.846L260.8265 633.139L260.8265 633.139L178.8466 633.139" stroke="none" fill="url(#25053)" /></g></g><g clip-path="url(#31)"><path id="1329" transform="matrix(1 0 0 -1 0 842)" d="M210.1582 676.9916C 208.5042 686.2516 208.4612 695.7256 210.0292 704.9966" stroke="#EEEF46" stroke-width="0.75" fill="none" /><path id="1330" transform="matrix(1 0 0 -1 0 842)" d="M205.5547 699.6953L210.0307 705.0073L210.0307 705.0073L212.4507 698.4963" stroke="#EEEF46" stroke-width="0.75" stroke-linecap="round" fill="none" /></g><g clip-path="url(#32)"><g transform="matrix(0.4786592 0 0 0.4772414 177 90.80005)"><g transform="matrix(1 0 0 1 0 0)"><image x="0" y="0" xlink:href="img_22.png" width="179" height="87" /></g></g></g><g clip-path="url(#33)"><g transform="matrix(0.4792771 0 0 0.474375 180 97.40002)"><g transform="matrix(1 0 0 1 0 0)"><image x="0" y="0" xlink:href="img_23.png" width="166" height="64" /></g></g></g><g clip-path="url(#34)"><g><path id="1333" transform="matrix(1 0 0 -1 0 842)" d="M180.3893 749.591L259.2833 749.591L259.2833 749.591L259.2833 714.884L259.2833 714.884L180.3893 714.884" stroke="none" fill="url(#30527)" /></g></g><g clip-path="url(#35)"><path id="1347" transform="matrix(1 0 0 -1 0 842)" d="M236.735 752.8275C 240.145 755.8185 243.799 758.5195 247.656 760.9035" stroke="#F79646" stroke-width="0.75" fill="none" /><path id="1348" transform="matrix(1 0 0 -1 0 842)" d="M240.7149 760.7604L247.6599 760.9054L247.6599 760.9054L244.3669 754.7884" stroke="#F79646" stroke-width="0.75" stroke-linecap="round" fill="none" /></g></g></g></svg>