<svg xmlns="http://www.w3.org/2000/svg" xmlns:xlink="http://www.w3.org/1999/xlink" id="body_8" preserveAspectRatio="xMinYMin meet" viewBox="0 0 793 1123"><defs><clipPath id="1"><path id="" clip-rule="evenodd" transform="matrix(1 0 0 1 0 0)" d="M0 842L0 -0.03997803L0 -0.03997803L595.56 -0.03997803L595.56 -0.03997803L595.56 842L595.56 842L0 842z" /></clipPath><clipPath id="2"><path id="" clip-rule="evenodd" transform="matrix(1 0 0 1 0 0)" d="M529.44 806.48L541.919 806.48L541.919 806.48L541.919 792.32L541.919 792.32L529.44 792.32z" /></clipPath><clipPath id="3"><path id="" clip-rule="evenodd" transform="matrix(1 0 0 1 0 0)" d="M529.44 806.48L541.919 806.48L541.919 806.48L541.919 792.32L541.919 792.32L529.44 792.32z" /></clipPath><clipPath id="4"><path id="" clip-rule="evenodd" transform="matrix(1 0 0 1 0 0)" d="M36 269.84L58.8 269.84L58.8 269.84L58.8 35.96002L58.8 35.96002L36 35.96002z" /></clipPath><clipPath id="5"><path id="" clip-rule="evenodd" transform="matrix(1 0 0 1 0 0)" d="M58.8 269.84L85.8 269.84L85.8 269.84L85.8 35.96002L85.8 35.96002L58.8 35.96002z" /></clipPath><clipPath id="6"><path id="" clip-rule="evenodd" transform="matrix(1 0 0 1 0 0)" d="M58.8 269.84L85.8 269.84L85.8 269.84L85.8 35.96002L85.8 35.96002L58.8 35.96002z" /></clipPath><clipPath id="7"><path id="" clip-rule="evenodd" transform="matrix(1 0 0 1 0 0)" d="M85.8 269.84L531.241 269.84L531.241 269.84L531.241 35.96002L531.241 35.96002L85.8 35.96002z" /></clipPath><clipPath id="8"><path id="" clip-rule="evenodd" transform="matrix(1 0 0 1 0 0)" d="M85.8 269.84L531.241 269.84L531.241 269.84L531.241 35.96002L531.241 35.96002L85.8 35.96002z" /></clipPath><clipPath id="9"><path id="" clip-rule="evenodd" transform="matrix(1 0 0 1 0 0)" d="M85.8 269.84L531.241 269.84L531.241 269.84L531.241 35.96002L531.241 35.96002L85.8 35.96002z" /></clipPath><clipPath id="10"><path id="" clip-rule="evenodd" transform="matrix(1 0 0 1 0 0)" d="M85.8 269.84L531.241 269.84L531.241 269.84L531.241 35.96002L531.241 35.96002L85.8 35.96002z" /></clipPath><clipPath id="11"><path id="" clip-rule="evenodd" transform="matrix(1 0 0 1 0 0)" d="M85.8 269.84L531.241 269.84L531.241 269.84L531.241 35.96002L531.241 35.96002L85.8 35.96002z" /></clipPath><clipPath id="12"><path id="" clip-rule="evenodd" transform="matrix(1 0 0 1 0 0)" d="M85.8 269.84L531.241 269.84L531.241 269.84L531.241 35.96002L531.241 35.96002L85.8 35.96002z" /></clipPath><clipPath id="13"><path id="" clip-rule="evenodd" transform="matrix(1 0 0 1 0 0)" d="M85.8 269.84L531.241 269.84L531.241 269.84L531.241 35.96002L531.241 35.96002L85.8 35.96002z" /></clipPath><clipPath id="14"><path id="" clip-rule="evenodd" transform="matrix(1 0 0 1 0 0)" d="M85.8 269.84L531.241 269.84L531.241 269.84L531.241 35.96002L531.241 35.96002L85.8 35.96002z" /></clipPath><clipPath id="15"><path id="" clip-rule="evenodd" transform="matrix(1 0 0 1 0 0)" d="M85.8 269.84L531.241 269.84L531.241 269.84L531.241 35.96002L531.241 35.96002L85.8 35.96002z" /></clipPath><clipPath id="16"><path id="" clip-rule="evenodd" transform="matrix(1 0 0 1 0 0)" d="M85.8 269.84L531.241 269.84L531.241 269.84L531.241 35.96002L531.241 35.96002L85.8 35.96002z" /></clipPath><clipPath id="17"><path id="" clip-rule="evenodd" transform="matrix(1 0 0 1 0 0)" d="M85.8 269.84L531.241 269.84L531.241 269.84L531.241 35.96002L531.241 35.96002L85.8 35.96002z" /></clipPath><clipPath id="18"><path id="" clip-rule="evenodd" transform="matrix(1 0 0 1 0 0)" d="M85.8 269.84L531.241 269.84L531.241 269.84L531.241 35.96002L531.241 35.96002L85.8 35.96002z" /></clipPath><clipPath id="19"><path id="" clip-rule="evenodd" transform="matrix(1 0 0 1 0 0)" d="M85.8 269.84L531.241 269.84L531.241 269.84L531.241 35.96002L531.241 35.96002L85.8 35.96002z" /></clipPath><clipPath id="20"><path id="" clip-rule="evenodd" transform="matrix(1 0 0 1 0 0)" d="M85.8 269.84L531.241 269.84L531.241 269.84L531.241 35.96002L531.241 35.96002L85.8 35.96002z" /></clipPath><clipPath id="21"><path id="" clip-rule="evenodd" transform="matrix(1 0 0 1 0 0)" d="M86.28 81.56L226.919 81.56L226.919 81.56L226.919 64.27997L226.919 64.27997L86.28 64.27997z" /></clipPath><clipPath id="22"><path id="" clip-rule="evenodd" transform="matrix(1 0 0 1 0 0)" d="M86.28 81.56L226.919 81.56L226.919 81.56L226.919 64.27997L226.919 64.27997L86.28 64.27997z" /></clipPath><clipPath id="23"><path id="" clip-rule="evenodd" transform="matrix(1 0 0 1 0 0)" d="M226.92 81.56L381.72 81.56L381.72 81.56L381.72 64.27997L381.72 64.27997L226.92 64.27997z" /></clipPath><clipPath id="24"><path id="" clip-rule="evenodd" transform="matrix(1 0 0 1 0 0)" d="M226.92 81.56L381.72 81.56L381.72 81.56L381.72 64.27997L381.72 64.27997L226.92 64.27997z" /></clipPath><clipPath id="25"><path id="" clip-rule="evenodd" transform="matrix(1 0 0 1 0 0)" d="M86.28 123.44L226.68 123.44L226.68 123.44L226.68 82.03998L226.68 82.03998L86.28 82.03998z" /></clipPath><clipPath id="26"><path id="" clip-rule="evenodd" transform="matrix(1 0 0 1 0 0)" d="M86.28 123.44L226.68 123.44L226.68 123.44L226.68 82.03998L226.68 82.03998L86.28 82.03998z" /></clipPath><clipPath id="27"><path id="" clip-rule="evenodd" transform="matrix(1 0 0 1 0 0)" d="M86.28 123.44L226.68 123.44L226.68 123.44L226.68 82.03998L226.68 82.03998L86.28 82.03998z" /></clipPath><clipPath id="28"><path id="" clip-rule="evenodd" transform="matrix(1 0 0 1 0 0)" d="M227.16 123.44L381.72 123.44L381.72 123.44L381.72 82.03998L381.72 82.03998L227.16 82.03998z" /></clipPath><clipPath id="29"><path id="" clip-rule="evenodd" transform="matrix(1 0 0 1 0 0)" d="M227.16 123.44L381.72 123.44L381.72 123.44L381.72 82.03998L381.72 82.03998L227.16 82.03998z" /></clipPath><clipPath id="30"><path id="" clip-rule="evenodd" transform="matrix(1 0 0 1 0 0)" d="M227.16 123.44L381.72 123.44L381.72 123.44L381.72 82.03998L381.72 82.03998L227.16 82.03998z" /></clipPath><clipPath id="31"><path id="" clip-rule="evenodd" transform="matrix(1 0 0 1 0 0)" d="M86.28 165.32L226.68 165.32L226.68 165.32L226.68 123.92L226.68 123.92L86.28 123.92z" /></clipPath><clipPath id="32"><path id="" clip-rule="evenodd" transform="matrix(1 0 0 1 0 0)" d="M86.28 165.32L226.68 165.32L226.68 165.32L226.68 123.92L226.68 123.92L86.28 123.92z" /></clipPath><clipPath id="33"><path id="" clip-rule="evenodd" transform="matrix(1 0 0 1 0 0)" d="M86.28 165.32L226.68 165.32L226.68 165.32L226.68 123.92L226.68 123.92L86.28 123.92z" /></clipPath><clipPath id="34"><path id="" clip-rule="evenodd" transform="matrix(1 0 0 1 0 0)" d="M227.16 165.32L381.72 165.32L381.72 165.32L381.72 123.92L381.72 123.92L227.16 123.92z" /></clipPath><clipPath id="35"><path id="" clip-rule="evenodd" transform="matrix(1 0 0 1 0 0)" d="M227.16 165.32L381.72 165.32L381.72 165.32L381.72 123.92L381.72 123.92L227.16 123.92z" /></clipPath><clipPath id="36"><path id="" clip-rule="evenodd" transform="matrix(1 0 0 1 0 0)" d="M227.16 165.32L381.72 165.32L381.72 165.32L381.72 123.92L381.72 123.92L227.16 123.92z" /></clipPath><clipPath id="37"><path id="" clip-rule="evenodd" transform="matrix(1 0 0 1 0 0)" d="M227.16 165.32L381.72 165.32L381.72 165.32L381.72 123.92L381.72 123.92L227.16 123.92z" /></clipPath><clipPath id="38"><path id="" clip-rule="evenodd" transform="matrix(1 0 0 1 0 0)" d="M86.28 207.2L226.68 207.2L226.68 207.2L226.68 165.8L226.68 165.8L86.28 165.8z" /></clipPath><clipPath id="39"><path id="" clip-rule="evenodd" transform="matrix(1 0 0 1 0 0)" d="M86.28 207.2L226.68 207.2L226.68 207.2L226.68 165.8L226.68 165.8L86.28 165.8z" /></clipPath><clipPath id="40"><path id="" clip-rule="evenodd" transform="matrix(1 0 0 1 0 0)" d="M86.28 207.2L226.68 207.2L226.68 207.2L226.68 165.8L226.68 165.8L86.28 165.8z" /></clipPath><clipPath id="41"><path id="" clip-rule="evenodd" transform="matrix(1 0 0 1 0 0)" d="M227.16 207.2L381.72 207.2L381.72 207.2L381.72 165.8L381.72 165.8L227.16 165.8z" /></clipPath><clipPath id="42"><path id="" clip-rule="evenodd" transform="matrix(1 0 0 1 0 0)" d="M227.16 207.2L381.72 207.2L381.72 207.2L381.72 165.8L381.72 165.8L227.16 165.8z" /></clipPath><clipPath id="43"><path id="" clip-rule="evenodd" transform="matrix(1 0 0 1 0 0)" d="M227.16 207.2L381.72 207.2L381.72 207.2L381.72 165.8L381.72 165.8L227.16 165.8z" /></clipPath><clipPath id="44"><path id="" clip-rule="evenodd" transform="matrix(1 0 0 1 0 0)" d="M86.28 242.24L226.68 242.24L226.68 242.24L226.68 207.68L226.68 207.68L86.28 207.68z" /></clipPath><clipPath id="45"><path id="" clip-rule="evenodd" transform="matrix(1 0 0 1 0 0)" d="M227.16 242.24L381.72 242.24L381.72 242.24L381.72 207.68L381.72 207.68L227.16 207.68z" /></clipPath><clipPath id="46"><path id="" clip-rule="evenodd" transform="matrix(1 0 0 1 0 0)" d="M531.24 269.84L560.04 269.84L560.04 269.84L560.04 35.96002L560.04 35.96002L531.24 35.96002z" /></clipPath><clipPath id="47"><path id="" clip-rule="evenodd" transform="matrix(1 0 0 1 0 0)" d="M531.24 269.84L560.04 269.84L560.04 269.84L560.04 35.96002L560.04 35.96002L531.24 35.96002z" /></clipPath><clipPath id="48"><path id="" clip-rule="evenodd" transform="matrix(1 0 0 1 0 0)" d="M36 664.52L58.8 664.52L58.8 664.52L58.8 269.84L58.8 269.84L36 269.84z" /></clipPath><clipPath id="49"><path id="" clip-rule="evenodd" transform="matrix(1 0 0 1 0 0)" d="M58.8 664.52L85.8 664.52L85.8 664.52L85.8 269.84L85.8 269.84L58.8 269.84z" /></clipPath><clipPath id="50"><path id="" clip-rule="evenodd" transform="matrix(1 0 0 1 0 0)" d="M58.8 664.52L85.8 664.52L85.8 664.52L85.8 269.84L85.8 269.84L58.8 269.84z" /></clipPath><clipPath id="51"><path id="" clip-rule="evenodd" transform="matrix(1 0 0 1 0 0)" d="M85.8 664.52L531.241 664.52L531.241 664.52L531.241 269.84L531.241 269.84L85.8 269.84z" /></clipPath><clipPath id="52"><path id="" clip-rule="evenodd" transform="matrix(1 0 0 1 0 0)" d="M85.8 664.52L531.241 664.52L531.241 664.52L531.241 269.84L531.241 269.84L85.8 269.84z" /></clipPath><clipPath id="53"><path id="" clip-rule="evenodd" transform="matrix(1 0 0 1 0 0)" d="M85.8 664.52L531.241 664.52L531.241 664.52L531.241 269.84L531.241 269.84L85.8 269.84z" /></clipPath><clipPath id="54"><path id="" clip-rule="evenodd" transform="matrix(1 0 0 1 0 0)" d="M85.8 664.52L531.241 664.52L531.241 664.52L531.241 269.84L531.241 269.84L85.8 269.84z" /></clipPath><clipPath id="55"><path id="" clip-rule="evenodd" transform="matrix(1 0 0 1 0 0)" d="M85.8 664.52L531.241 664.52L531.241 664.52L531.241 269.84L531.241 269.84L85.8 269.84z" /></clipPath><clipPath id="56"><path id="" clip-rule="evenodd" transform="matrix(1 0 0 1 0 0)" d="M85.8 664.52L531.241 664.52L531.241 664.52L531.241 269.84L531.241 269.84L85.8 269.84z" /></clipPath><clipPath id="57"><path id="" clip-rule="evenodd" transform="matrix(1 0 0 1 0 0)" d="M85.8 664.52L531.241 664.52L531.241 664.52L531.241 269.84L531.241 269.84L85.8 269.84z" /></clipPath><clipPath id="58"><path id="" clip-rule="evenodd" transform="matrix(1 0 0 1 0 0)" d="M85.8 664.52L531.241 664.52L531.241 664.52L531.241 269.84L531.241 269.84L85.8 269.84z" /></clipPath><clipPath id="59"><path id="" clip-rule="evenodd" transform="matrix(1 0 0 1 0 0)" d="M85.8 664.52L531.241 664.52L531.241 664.52L531.241 269.84L531.241 269.84L85.8 269.84z" /></clipPath><clipPath id="60"><path id="" clip-rule="evenodd" transform="matrix(1 0 0 1 0 0)" d="M85.8 664.52L531.241 664.52L531.241 664.52L531.241 269.84L531.241 269.84L85.8 269.84z" /></clipPath><clipPath id="61"><path id="" clip-rule="evenodd" transform="matrix(1 0 0 1 0 0)" d="M85.8 664.52L531.241 664.52L531.241 664.52L531.241 269.84L531.241 269.84L85.8 269.84z" /></clipPath><clipPath id="62"><path id="" clip-rule="evenodd" transform="matrix(1 0 0 1 0 0)" d="M85.8 664.52L531.241 664.52L531.241 664.52L531.241 269.84L531.241 269.84L85.8 269.84z" /></clipPath><clipPath id="63"><path id="" clip-rule="evenodd" transform="matrix(1 0 0 1 0 0)" d="M85.8 664.52L531.241 664.52L531.241 664.52L531.241 269.84L531.241 269.84L85.8 269.84z" /></clipPath><clipPath id="64"><path id="" clip-rule="evenodd" transform="matrix(1 0 0 1 0 0)" d="M85.8 664.52L531.241 664.52L531.241 664.52L531.241 269.84L531.241 269.84L85.8 269.84z" /></clipPath><clipPath id="65"><path id="" clip-rule="evenodd" transform="matrix(1 0 0 1 0 0)" d="M85.8 664.52L531.241 664.52L531.241 664.52L531.241 269.84L531.241 269.84L85.8 269.84z" /></clipPath><clipPath id="66"><path id="" clip-rule="evenodd" transform="matrix(1 0 0 1 0 0)" d="M85.8 664.52L531.241 664.52L531.241 664.52L531.241 269.84L531.241 269.84L85.8 269.84z" /></clipPath><clipPath id="67"><path id="" clip-rule="evenodd" transform="matrix(1 0 0 1 0 0)" d="M85.8 664.52L531.241 664.52L531.241 664.52L531.241 269.84L531.241 269.84L85.8 269.84z" /></clipPath><clipPath id="68"><path id="" clip-rule="evenodd" transform="matrix(1 0 0 1 0 0)" d="M85.8 664.52L531.241 664.52L531.241 664.52L531.241 269.84L531.241 269.84L85.8 269.84z" /></clipPath><clipPath id="69"><path id="" clip-rule="evenodd" transform="matrix(1 0 0 1 0 0)" d="M85.8 664.52L531.241 664.52L531.241 664.52L531.241 269.84L531.241 269.84L85.8 269.84z" /></clipPath><clipPath id="70"><path id="" clip-rule="evenodd" transform="matrix(1 0 0 1 0 0)" d="M85.8 664.52L531.241 664.52L531.241 664.52L531.241 269.84L531.241 269.84L85.8 269.84z" /></clipPath><clipPath id="71"><path id="" clip-rule="evenodd" transform="matrix(1 0 0 1 0 0)" d="M85.8 664.52L531.241 664.52L531.241 664.52L531.241 269.84L531.241 269.84L85.8 269.84z" /></clipPath><clipPath id="72"><path id="" clip-rule="evenodd" transform="matrix(1 0 0 1 0 0)" d="M85.8 664.52L531.241 664.52L531.241 664.52L531.241 269.84L531.241 269.84L85.8 269.84z" /></clipPath><clipPath id="73"><path id="" clip-rule="evenodd" transform="matrix(1 0 0 1 0 0)" d="M85.8 664.52L531.241 664.52L531.241 664.52L531.241 269.84L531.241 269.84L85.8 269.84z" /></clipPath><clipPath id="74"><path id="" clip-rule="evenodd" transform="matrix(1 0 0 1 0 0)" d="M531.24 664.52L560.04 664.52L560.04 664.52L560.04 269.84L560.04 269.84L531.24 269.84z" /></clipPath><clipPath id="75"><path id="" clip-rule="evenodd" transform="matrix(1 0 0 1 0 0)" d="M531.24 664.52L560.04 664.52L560.04 664.52L560.04 269.84L560.04 269.84L531.24 269.84z" /></clipPath><clipPath id="76"><path id="" clip-rule="evenodd" transform="matrix(1 0 0 1 0 0)" d="M36 678.32L58.8 678.32L58.8 678.32L58.8 664.52L58.8 664.52L36 664.52z" /></clipPath><clipPath id="77"><path id="" clip-rule="evenodd" transform="matrix(1 0 0 1 0 0)" d="M58.8 678.32L85.8 678.32L85.8 678.32L85.8 664.52L85.8 664.52L58.8 664.52z" /></clipPath><clipPath id="78"><path id="" clip-rule="evenodd" transform="matrix(1 0 0 1 0 0)" d="M85.8 678.32L531.241 678.32L531.241 678.32L531.241 664.52L531.241 664.52L85.8 664.52z" /></clipPath><clipPath id="79"><path id="" clip-rule="evenodd" transform="matrix(1 0 0 1 0 0)" d="M85.8 678.32L531.241 678.32L531.241 678.32L531.241 664.52L531.241 664.52L85.8 664.52z" /></clipPath><clipPath id="80"><path id="" clip-rule="evenodd" transform="matrix(1 0 0 1 0 0)" d="M531.24 678.32L560.04 678.32L560.04 678.32L560.04 664.52L560.04 664.52L531.24 664.52z" /></clipPath><clipPath id="81"><path id="" clip-rule="evenodd" transform="matrix(1 0 0 1 0 0)" d="M36 795.92L58.8 795.92L58.8 795.92L58.8 678.32L58.8 678.32L36 678.32z" /></clipPath><clipPath id="82"><path id="" clip-rule="evenodd" transform="matrix(1 0 0 1 0 0)" d="M36 795.92L58.8 795.92L58.8 795.92L58.8 678.32L58.8 678.32L36 678.32z" /></clipPath><clipPath id="83"><path id="" clip-rule="evenodd" transform="matrix(1 0 0 1 0 0)" d="M58.8 795.92L85.8 795.92L85.8 795.92L85.8 678.32L85.8 678.32L58.8 678.32z" /></clipPath><clipPath id="84"><path id="" clip-rule="evenodd" transform="matrix(1 0 0 1 0 0)" d="M58.8 795.92L85.8 795.92L85.8 795.92L85.8 678.32L85.8 678.32L58.8 678.32z" /></clipPath><clipPath id="85"><path id="" clip-rule="evenodd" transform="matrix(1 0 0 1 0 0)" d="M85.8 795.92L531.241 795.92L531.241 795.92L531.241 678.32L531.241 678.32L85.8 678.32z" /></clipPath><clipPath id="86"><path id="" clip-rule="evenodd" transform="matrix(1 0 0 1 0 0)" d="M85.8 795.92L531.241 795.92L531.241 795.92L531.241 678.32L531.241 678.32L85.8 678.32z" /></clipPath><clipPath id="87"><path id="" clip-rule="evenodd" transform="matrix(1 0 0 1 0 0)" d="M85.8 795.92L531.241 795.92L531.241 795.92L531.241 678.32L531.241 678.32L85.8 678.32z" /></clipPath><clipPath id="88"><path id="" clip-rule="evenodd" transform="matrix(1 0 0 1 0 0)" d="M85.8 795.92L531.241 795.92L531.241 795.92L531.241 678.32L531.241 678.32L85.8 678.32z" /></clipPath><clipPath id="89"><path id="" clip-rule="evenodd" transform="matrix(1 0 0 1 0 0)" d="M85.8 795.92L531.241 795.92L531.241 795.92L531.241 678.32L531.241 678.32L85.8 678.32z" /></clipPath><clipPath id="90"><path id="" clip-rule="evenodd" transform="matrix(1 0 0 1 0 0)" d="M85.8 795.92L531.241 795.92L531.241 795.92L531.241 678.32L531.241 678.32L85.8 678.32z" /></clipPath><clipPath id="91"><path id="" clip-rule="evenodd" transform="matrix(1 0 0 1 0 0)" d="M85.8 795.92L531.241 795.92L531.241 795.92L531.241 678.32L531.241 678.32L85.8 678.32z" /></clipPath><clipPath id="92"><path id="" clip-rule="evenodd" transform="matrix(1 0 0 1 0 0)" d="M85.8 795.92L531.241 795.92L531.241 795.92L531.241 678.32L531.241 678.32L85.8 678.32z" /></clipPath><clipPath id="93"><path id="" clip-rule="evenodd" transform="matrix(1 0 0 1 0 0)" d="M85.8 795.92L531.241 795.92L531.241 795.92L531.241 678.32L531.241 678.32L85.8 678.32z" /></clipPath><clipPath id="94"><path id="" clip-rule="evenodd" transform="matrix(1 0 0 1 0 0)" d="M85.8 795.92L531.241 795.92L531.241 795.92L531.241 678.32L531.241 678.32L85.8 678.32z" /></clipPath><clipPath id="95"><path id="" clip-rule="evenodd" transform="matrix(1 0 0 1 0 0)" d="M85.8 795.92L531.241 795.92L531.241 795.92L531.241 678.32L531.241 678.32L85.8 678.32z" /></clipPath><clipPath id="96"><path id="" clip-rule="evenodd" transform="matrix(1 0 0 1 0 0)" d="M85.8 795.92L531.241 795.92L531.241 795.92L531.241 678.32L531.241 678.32L85.8 678.32z" /></clipPath><clipPath id="97"><path id="" clip-rule="evenodd" transform="matrix(1 0 0 1 0 0)" d="M85.8 795.92L531.241 795.92L531.241 795.92L531.241 678.32L531.241 678.32L85.8 678.32z" /></clipPath><clipPath id="98"><path id="" clip-rule="evenodd" transform="matrix(1 0 0 1 0 0)" d="M85.8 795.92L531.241 795.92L531.241 795.92L531.241 678.32L531.241 678.32L85.8 678.32z" /></clipPath><clipPath id="99"><path id="" clip-rule="evenodd" transform="matrix(1 0 0 1 0 0)" d="M531.24 795.92L560.04 795.92L560.04 795.92L560.04 678.32L560.04 678.32L531.24 678.32z" /></clipPath><clipPath id="100"><path id="" clip-rule="evenodd" transform="matrix(1 0 0 1 0 0)" d="M531.24 795.92L560.04 795.92L560.04 795.92L560.04 678.32L560.04 678.32L531.24 678.32z" /></clipPath></defs><g transform="matrix(1.333333 0 0 1.333333 0 0)"><g clip-path="url(#1)"><g clip-path="url(#2)"></g><g clip-path="url(#3)"></g><g clip-path="url(#4)"></g><g clip-path="url(#5)"></g><g clip-path="url(#6)"></g><g clip-path="url(#7)"></g><g clip-path="url(#8)"></g><g clip-path="url(#9)"></g><g clip-path="url(#10)"></g><g clip-path="url(#11)"></g><g clip-path="url(#12)"></g><g clip-path="url(#13)"></g><g clip-path="url(#14)"></g><g clip-path="url(#15)"></g><g clip-path="url(#16)"></g><g clip-path="url(#17)"></g><g clip-path="url(#18)"></g><g clip-path="url(#19)"></g><g clip-path="url(#20)"></g><path id="74" transform="matrix(1 0 0 -1 0 842)" d="M86.28 760.44L226.92 760.44L226.92 760.44L226.92 777.72L226.92 777.72L86.28 777.72z" stroke="none" fill="#F79646" fill-rule="evenodd" /><path id="75" transform="matrix(1 0 0 -1 0 842)" d="M91.44 763.92L221.52 763.92L221.52 777.72L91.44 777.72z" stroke="none" fill="#F79646" fill-rule="nonzero" /><g clip-path="url(#21)"></g><g clip-path="url(#22)"></g><path id="97" transform="matrix(1 0 0 -1 0 842)" d="M226.92 760.44L381.72 760.44L381.72 760.44L381.72 777.72L381.72 777.72L226.92 777.72z" stroke="none" fill="#F79646" fill-rule="evenodd" /><path id="98" transform="matrix(1 0 0 -1 0 842)" d="M232.32 763.92L376.56 763.92L376.56 777.72L232.32 777.72z" stroke="none" fill="#F79646" fill-rule="nonzero" /><g clip-path="url(#23)"></g><g clip-path="url(#24)"></g><path id="122" transform="matrix(1 0 0 -1 0 842)" d="M85.8 777.72L86.28101 777.72L86.28101 778.201L85.8 778.201z" stroke="none" fill="#F79646" fill-rule="nonzero" /><path id="123" transform="matrix(1 0 0 -1 0 842)" d="M85.8 777.72L86.28101 777.72L86.28101 778.201L85.8 778.201z" stroke="none" fill="#F79646" fill-rule="nonzero" /><path id="124" transform="matrix(1 0 0 -1 0 842)" d="M86.28 777.72L227.04 777.72L227.04 778.201L86.28 778.201z" stroke="none" fill="#F79646" fill-rule="nonzero" /><path id="125" transform="matrix(1 0 0 -1 0 842)" d="M227.04 777.72L227.52 777.72L227.52 778.201L227.04 778.201z" stroke="none" fill="#F79646" fill-rule="nonzero" /><path id="126" transform="matrix(1 0 0 -1 0 842)" d="M227.52 777.72L381.72 777.72L381.72 778.201L227.52 778.201z" stroke="none" fill="#F79646" fill-rule="nonzero" /><path id="127" transform="matrix(1 0 0 -1 0 842)" d="M381.72 777.72L382.201 777.72L382.201 778.201L381.72 778.201z" stroke="none" fill="#F79646" fill-rule="nonzero" /><path id="128" transform="matrix(1 0 0 -1 0 842)" d="M381.72 777.72L382.201 777.72L382.201 778.201L381.72 778.201z" stroke="none" fill="#F79646" fill-rule="nonzero" /><path id="129" transform="matrix(1 0 0 -1 0 842)" d="M85.8 760.44L86.28101 760.44L86.28101 777.72L85.8 777.72z" stroke="none" fill="#F79646" fill-rule="nonzero" /><path id="130" transform="matrix(1 0 0 -1 0 842)" d="M381.72 760.44L382.201 760.44L382.201 777.72L381.72 777.72z" stroke="none" fill="#F79646" fill-rule="nonzero" /><path id="131" transform="matrix(1 0 0 -1 0 842)" d="M86.28 718.56L226.68 718.56L226.68 718.56L226.68 759.96L226.68 759.96L86.28 759.96z" stroke="none" fill="#FDE9D9" fill-rule="evenodd" /><path id="132" transform="matrix(1 0 0 -1 0 842)" d="M91.44 746.16L221.52 746.16L221.52 759.96L91.44 759.96z" stroke="none" fill="#FDE9D9" fill-rule="nonzero" /><g clip-path="url(#25)"></g><path id="151" transform="matrix(1 0 0 -1 0 842)" d="M91.44 732.36L221.52 732.36L221.52 732.36L221.52 746.16L221.52 746.16L91.44 746.16z" stroke="none" fill="#FDE9D9" fill-rule="evenodd" /><path id="173" transform="matrix(1 0 0 -1 0 842)" d="M91.44 718.56L221.52 718.56L221.52 732.36L91.44 732.36z" stroke="none" fill="#FDE9D9" fill-rule="nonzero" /><g clip-path="url(#26)"></g><g clip-path="url(#27)"></g><path id="178" transform="matrix(1 0 0 -1 0 842)" d="M227.16 718.56L381.72 718.56L381.72 718.56L381.72 759.96L381.72 759.96L227.16 759.96z" stroke="none" fill="#FDE9D9" fill-rule="evenodd" /><path id="179" transform="matrix(1 0 0 -1 0 842)" d="M232.32 746.16L376.56 746.16L376.56 759.96L232.32 759.96z" stroke="none" fill="#FDE9D9" fill-rule="nonzero" /><g clip-path="url(#28)"></g><path id="198" transform="matrix(1 0 0 -1 0 842)" d="M232.32 732.36L376.56 732.36L376.56 732.36L376.56 746.16L376.56 746.16L232.32 746.16z" stroke="none" fill="#FDE9D9" fill-rule="evenodd" /><path id="216" transform="matrix(1 0 0 -1 0 842)" d="M232.32 718.56L376.56 718.56L376.56 732.36L232.32 732.36z" stroke="none" fill="#FDE9D9" fill-rule="nonzero" /><g clip-path="url(#29)"></g><g clip-path="url(#30)"></g><path id="240" transform="matrix(1 0 0 -1 0 842)" d="M85.8 759.96L86.28101 759.96L86.28101 760.44L85.8 760.44z" stroke="none" fill="#F79646" fill-rule="nonzero" /><path id="241" transform="matrix(1 0 0 -1 0 842)" d="M86.28 759.96L226.8 759.96L226.8 760.44L86.28 760.44z" stroke="none" fill="#F79646" fill-rule="nonzero" /><path id="242" transform="matrix(1 0 0 -1 0 842)" d="M226.8 759.96L227.28 759.96L227.28 760.44L226.8 760.44z" stroke="none" fill="#F79646" fill-rule="nonzero" /><path id="243" transform="matrix(1 0 0 -1 0 842)" d="M227.28 759.96L227.761 759.96L227.761 760.44L227.28 760.44z" stroke="none" fill="#F79646" fill-rule="nonzero" /><path id="244" transform="matrix(1 0 0 -1 0 842)" d="M227.76 759.96L381.719 759.96L381.719 760.44L227.76 760.44z" stroke="none" fill="#F79646" fill-rule="nonzero" /><path id="245" transform="matrix(1 0 0 -1 0 842)" d="M381.72 759.96L382.201 759.96L382.201 760.44L381.72 760.44z" stroke="none" fill="#F79646" fill-rule="nonzero" /><path id="246" transform="matrix(1 0 0 -1 0 842)" d="M85.8 718.56L86.28101 718.56L86.28101 759.96L85.8 759.96z" stroke="none" fill="#FABF8F" fill-rule="nonzero" /><path id="247" transform="matrix(1 0 0 -1 0 842)" d="M226.8 718.56L227.28 718.56L227.28 759.96L226.8 759.96z" stroke="none" fill="#FABF8F" fill-rule="nonzero" /><path id="248" transform="matrix(1 0 0 -1 0 842)" d="M381.72 718.56L382.201 718.56L382.201 759.96L381.72 759.96z" stroke="none" fill="#FABF8F" fill-rule="nonzero" /><g clip-path="url(#31)"></g><g clip-path="url(#32)"></g><g clip-path="url(#33)"></g><g clip-path="url(#34)"></g><g clip-path="url(#35)"></g><g clip-path="url(#36)"></g><g clip-path="url(#37)"></g><path id="336" transform="matrix(1 0 0 -1 0 842)" d="M85.8 718.08L86.28101 718.08L86.28101 718.56L85.8 718.56z" stroke="none" fill="#FABF8F" fill-rule="nonzero" /><path id="337" transform="matrix(1 0 0 -1 0 842)" d="M86.28 718.08L226.8 718.08L226.8 718.56L86.28 718.56z" stroke="none" fill="#FABF8F" fill-rule="nonzero" /><path id="338" transform="matrix(1 0 0 -1 0 842)" d="M226.8 718.08L227.28 718.08L227.28 718.56L226.8 718.56z" stroke="none" fill="#FABF8F" fill-rule="nonzero" /><path id="339" transform="matrix(1 0 0 -1 0 842)" d="M227.28 718.08L381.72 718.08L381.72 718.56L227.28 718.56z" stroke="none" fill="#FABF8F" fill-rule="nonzero" /><path id="340" transform="matrix(1 0 0 -1 0 842)" d="M381.72 718.08L382.201 718.08L382.201 718.56L381.72 718.56z" stroke="none" fill="#FABF8F" fill-rule="nonzero" /><path id="341" transform="matrix(1 0 0 -1 0 842)" d="M85.8 676.68L86.28101 676.68L86.28101 718.08L85.8 718.08z" stroke="none" fill="#FABF8F" fill-rule="nonzero" /><path id="342" transform="matrix(1 0 0 -1 0 842)" d="M226.8 676.68L227.28 676.68L227.28 718.08L226.8 718.08z" stroke="none" fill="#FABF8F" fill-rule="nonzero" /><path id="343" transform="matrix(1 0 0 -1 0 842)" d="M381.72 676.68L382.201 676.68L382.201 718.08L381.72 718.08z" stroke="none" fill="#FABF8F" fill-rule="nonzero" /><path id="344" transform="matrix(1 0 0 -1 0 842)" d="M86.28 634.8L226.68 634.8L226.68 634.8L226.68 676.2L226.68 676.2L86.28 676.2z" stroke="none" fill="#FDE9D9" fill-rule="evenodd" /><path id="345" transform="matrix(1 0 0 -1 0 842)" d="M91.44 662.4L221.52 662.4L221.52 676.2L91.44 676.2z" stroke="none" fill="#FDE9D9" fill-rule="nonzero" /><g clip-path="url(#38)"></g><path id="364" transform="matrix(1 0 0 -1 0 842)" d="M91.44 648.6L221.52 648.6L221.52 648.6L221.52 662.4L221.52 662.4L91.44 662.4z" stroke="none" fill="#FDE9D9" fill-rule="evenodd" /><path id="386" transform="matrix(1 0 0 -1 0 842)" d="M91.44 634.8L221.52 634.8L221.52 648.601L91.44 648.601z" stroke="none" fill="#FDE9D9" fill-rule="nonzero" /><g clip-path="url(#39)"></g><g clip-path="url(#40)"></g><path id="399" transform="matrix(1 0 0 -1 0 842)" d="M227.16 634.8L381.72 634.8L381.72 634.8L381.72 676.2L381.72 676.2L227.16 676.2z" stroke="none" fill="#FDE9D9" fill-rule="evenodd" /><path id="400" transform="matrix(1 0 0 -1 0 842)" d="M232.32 662.4L376.56 662.4L376.56 676.2L232.32 676.2z" stroke="none" fill="#FDE9D9" fill-rule="nonzero" /><g clip-path="url(#41)"></g><path id="425" transform="matrix(1 0 0 -1 0 842)" d="M232.32 648.6L376.56 648.6L376.56 648.6L376.56 662.4L376.56 662.4L232.32 662.4z" stroke="none" fill="#FDE9D9" fill-rule="evenodd" /><path id="447" transform="matrix(1 0 0 -1 0 842)" d="M232.32 634.8L376.56 634.8L376.56 648.601L232.32 648.601z" stroke="none" fill="#FDE9D9" fill-rule="nonzero" /><g clip-path="url(#42)"></g><g clip-path="url(#43)"></g><path id="456" transform="matrix(1 0 0 -1 0 842)" d="M85.8 676.2L86.28101 676.2L86.28101 676.681L85.8 676.681z" stroke="none" fill="#FABF8F" fill-rule="nonzero" /><path id="457" transform="matrix(1 0 0 -1 0 842)" d="M86.28 676.2L226.8 676.2L226.8 676.681L86.28 676.681z" stroke="none" fill="#FABF8F" fill-rule="nonzero" /><path id="458" transform="matrix(1 0 0 -1 0 842)" d="M226.8 676.2L227.28 676.2L227.28 676.681L226.8 676.681z" stroke="none" fill="#FABF8F" fill-rule="nonzero" /><path id="459" transform="matrix(1 0 0 -1 0 842)" d="M227.28 676.2L381.72 676.2L381.72 676.681L227.28 676.681z" stroke="none" fill="#FABF8F" fill-rule="nonzero" /><path id="460" transform="matrix(1 0 0 -1 0 842)" d="M381.72 676.2L382.201 676.2L382.201 676.681L381.72 676.681z" stroke="none" fill="#FABF8F" fill-rule="nonzero" /><path id="461" transform="matrix(1 0 0 -1 0 842)" d="M85.8 634.8L86.28101 634.8L86.28101 676.2L85.8 676.2z" stroke="none" fill="#FABF8F" fill-rule="nonzero" /><path id="462" transform="matrix(1 0 0 -1 0 842)" d="M226.8 634.8L227.28 634.8L227.28 676.2L226.8 676.2z" stroke="none" fill="#FABF8F" fill-rule="nonzero" /><path id="463" transform="matrix(1 0 0 -1 0 842)" d="M381.72 634.8L382.201 634.8L382.201 676.2L381.72 676.2z" stroke="none" fill="#FABF8F" fill-rule="nonzero" /><g clip-path="url(#44)"></g><g clip-path="url(#45)"></g><path id="542" transform="matrix(1 0 0 -1 0 842)" d="M85.8 634.32L86.28101 634.32L86.28101 634.8L85.8 634.8z" stroke="none" fill="#FABF8F" fill-rule="nonzero" /><path id="543" transform="matrix(1 0 0 -1 0 842)" d="M86.28 634.32L226.8 634.32L226.8 634.8L86.28 634.8z" stroke="none" fill="#FABF8F" fill-rule="nonzero" /><path id="544" transform="matrix(1 0 0 -1 0 842)" d="M226.8 634.32L227.28 634.32L227.28 634.8L226.8 634.8z" stroke="none" fill="#FABF8F" fill-rule="nonzero" /><path id="545" transform="matrix(1 0 0 -1 0 842)" d="M227.28 634.32L381.72 634.32L381.72 634.8L227.28 634.8z" stroke="none" fill="#FABF8F" fill-rule="nonzero" /><path id="546" transform="matrix(1 0 0 -1 0 842)" d="M381.72 634.32L382.201 634.32L382.201 634.8L381.72 634.8z" stroke="none" fill="#FABF8F" fill-rule="nonzero" /><path id="547" transform="matrix(1 0 0 -1 0 842)" d="M85.8 599.76L86.28101 599.76L86.28101 634.32L85.8 634.32z" stroke="none" fill="#FABF8F" fill-rule="nonzero" /><path id="548" transform="matrix(1 0 0 -1 0 842)" d="M85.8 599.28L86.28101 599.28L86.28101 599.76L85.8 599.76z" stroke="none" fill="#FABF8F" fill-rule="nonzero" /><path id="549" transform="matrix(1 0 0 -1 0 842)" d="M85.8 599.28L86.28101 599.28L86.28101 599.76L85.8 599.76z" stroke="none" fill="#FABF8F" fill-rule="nonzero" /><path id="550" transform="matrix(1 0 0 -1 0 842)" d="M86.28 599.28L226.8 599.28L226.8 599.76L86.28 599.76z" stroke="none" fill="#FABF8F" fill-rule="nonzero" /><path id="551" transform="matrix(1 0 0 -1 0 842)" d="M226.8 599.76L227.28 599.76L227.28 634.32L226.8 634.32z" stroke="none" fill="#FABF8F" fill-rule="nonzero" /><path id="552" transform="matrix(1 0 0 -1 0 842)" d="M226.8 599.28L227.28 599.28L227.28 599.76L226.8 599.76z" stroke="none" fill="#FABF8F" fill-rule="nonzero" /><path id="553" transform="matrix(1 0 0 -1 0 842)" d="M227.28 599.28L381.72 599.28L381.72 599.76L227.28 599.76z" stroke="none" fill="#FABF8F" fill-rule="nonzero" /><path id="554" transform="matrix(1 0 0 -1 0 842)" d="M381.72 599.76L382.201 599.76L382.201 634.32L381.72 634.32z" stroke="none" fill="#FABF8F" fill-rule="nonzero" /><path id="555" transform="matrix(1 0 0 -1 0 842)" d="M381.72 599.28L382.201 599.28L382.201 599.76L381.72 599.76z" stroke="none" fill="#FABF8F" fill-rule="nonzero" /><path id="556" transform="matrix(1 0 0 -1 0 842)" d="M381.72 599.28L382.201 599.28L382.201 599.76L381.72 599.76z" stroke="none" fill="#FABF8F" fill-rule="nonzero" /><g clip-path="url(#46)"></g><g clip-path="url(#47)"></g><g clip-path="url(#48)"></g><g clip-path="url(#49)"></g><g clip-path="url(#50)"></g><g clip-path="url(#51)"></g><g clip-path="url(#52)"></g><g clip-path="url(#53)"></g><g clip-path="url(#54)"></g><g clip-path="url(#55)"></g><g clip-path="url(#56)"></g><g clip-path="url(#57)"></g><g clip-path="url(#58)"></g><g clip-path="url(#59)"></g><g clip-path="url(#60)"></g><g clip-path="url(#61)"></g><g clip-path="url(#62)"></g><g clip-path="url(#63)"></g><g clip-path="url(#64)"></g><g clip-path="url(#65)"></g><g clip-path="url(#66)"></g><g clip-path="url(#67)"></g><g clip-path="url(#68)"></g><g clip-path="url(#69)"></g><g clip-path="url(#70)"></g><g clip-path="url(#71)"></g><g clip-path="url(#72)"></g><g clip-path="url(#73)"></g><g clip-path="url(#74)"></g><g clip-path="url(#75)"></g><g clip-path="url(#76)"></g><g clip-path="url(#77)"></g><g clip-path="url(#78)"></g><g clip-path="url(#79)"></g><g clip-path="url(#80)"></g><g clip-path="url(#81)"></g><g clip-path="url(#82)"></g><g clip-path="url(#83)"></g><g clip-path="url(#84)"></g><g clip-path="url(#85)"></g><g clip-path="url(#86)"></g><g clip-path="url(#87)"></g><g clip-path="url(#88)"></g><g clip-path="url(#89)"></g><g clip-path="url(#90)"></g><g clip-path="url(#91)"></g><g clip-path="url(#92)"></g><g clip-path="url(#93)"></g><g clip-path="url(#94)"></g><g clip-path="url(#95)"></g><g clip-path="url(#96)"></g><g clip-path="url(#97)"></g><g clip-path="url(#98)"></g><g clip-path="url(#99)"></g><g clip-path="url(#100)"></g></g></g></svg>