<svg xmlns="http://www.w3.org/2000/svg" xmlns:xlink="http://www.w3.org/1999/xlink" id="body_12" preserveAspectRatio="xMinYMin meet" viewBox="0 0 793 1123"><defs><clipPath id="1"><path id="" clip-rule="evenodd" transform="matrix(1 0 0 1 0 0)" d="M0 842L0 -0.03997803L0 -0.03997803L595.56 -0.03997803L595.56 -0.03997803L595.56 842L595.56 842L0 842z" /></clipPath><clipPath id="2"><path id="" clip-rule="evenodd" transform="matrix(1 0 0 1 0 0)" d="M529.44 806.48L541.919 806.48L541.919 806.48L541.919 792.32L541.919 792.32L529.44 792.32z" /></clipPath><clipPath id="3"><path id="" clip-rule="evenodd" transform="matrix(1 0 0 1 0 0)" d="M529.44 806.48L541.919 806.48L541.919 806.48L541.919 792.32L541.919 792.32L529.44 792.32z" /></clipPath><clipPath id="4"><path id="" clip-rule="evenodd" transform="matrix(1 0 0 1 0 0)" d="M152.4 77.84003L328.561 77.84003L328.561 77.84003L328.561 36.44L328.561 36.44L152.4 36.44z" /></clipPath><clipPath id="5"><path id="" clip-rule="evenodd" transform="matrix(1 0 0 1 0 0)" d="M152.4 77.84003L328.561 77.84003L328.561 77.84003L328.561 36.44L328.561 36.44L152.4 36.44z" /></clipPath><clipPath id="6"><path id="" clip-rule="evenodd" transform="matrix(1 0 0 1 0 0)" d="M152.4 77.84003L328.561 77.84003L328.561 77.84003L328.561 36.44L328.561 36.44L152.4 36.44z" /></clipPath><clipPath id="7"><path id="" clip-rule="evenodd" transform="matrix(1 0 0 1 0 0)" d="M329.16 77.84003L518.281 77.84003L518.281 77.84003L518.281 36.44L518.281 36.44L329.16 36.44z" /></clipPath><clipPath id="8"><path id="" clip-rule="evenodd" transform="matrix(1 0 0 1 0 0)" d="M77.64 161.12L151.92 161.12L151.92 161.12L151.92 78.32001L151.92 78.32001L77.64 78.32001z" /></clipPath><clipPath id="9"><path id="" clip-rule="evenodd" transform="matrix(1 0 0 1 0 0)" d="M77.64 161.12L151.92 161.12L151.92 161.12L151.92 78.32001L151.92 78.32001L77.64 78.32001z" /></clipPath><clipPath id="10"><path id="" clip-rule="evenodd" transform="matrix(1 0 0 1 0 0)" d="M152.4 161.12L328.561 161.12L328.561 161.12L328.561 78.32001L328.561 78.32001L152.4 78.32001z" /></clipPath><clipPath id="11"><path id="" clip-rule="evenodd" transform="matrix(1 0 0 1 0 0)" d="M152.4 161.12L328.561 161.12L328.561 161.12L328.561 78.32001L328.561 78.32001L152.4 78.32001z" /></clipPath><clipPath id="12"><path id="" clip-rule="evenodd" transform="matrix(1 0 0 1 0 0)" d="M152.4 161.12L328.561 161.12L328.561 161.12L328.561 78.32001L328.561 78.32001L152.4 78.32001z" /></clipPath><clipPath id="13"><path id="" clip-rule="evenodd" transform="matrix(1 0 0 1 0 0)" d="M329.16 161.12L518.281 161.12L518.281 161.12L518.281 78.32001L518.281 78.32001L329.16 78.32001z" /></clipPath><clipPath id="14"><path id="" clip-rule="evenodd" transform="matrix(1 0 0 1 0 0)" d="M329.16 161.12L518.281 161.12L518.281 161.12L518.281 78.32001L518.281 78.32001L329.16 78.32001z" /></clipPath><clipPath id="15"><path id="" clip-rule="evenodd" transform="matrix(1 0 0 1 0 0)" d="M329.16 161.12L518.281 161.12L518.281 161.12L518.281 78.32001L518.281 78.32001L329.16 78.32001z" /></clipPath><clipPath id="16"><path id="" clip-rule="evenodd" transform="matrix(1 0 0 1 0 0)" d="M329.16 161.12L518.281 161.12L518.281 161.12L518.281 78.32001L518.281 78.32001L329.16 78.32001z" /></clipPath><clipPath id="17"><path id="" clip-rule="evenodd" transform="matrix(1 0 0 1 0 0)" d="M329.16 161.12L518.281 161.12L518.281 161.12L518.281 78.32001L518.281 78.32001L329.16 78.32001z" /></clipPath><clipPath id="18"><path id="" clip-rule="evenodd" transform="matrix(1 0 0 1 0 0)" d="M329.16 161.12L518.281 161.12L518.281 161.12L518.281 78.32001L518.281 78.32001L329.16 78.32001z" /></clipPath><clipPath id="19"><path id="" clip-rule="evenodd" transform="matrix(1 0 0 1 0 0)" d="M329.16 161.12L518.281 161.12L518.281 161.12L518.281 78.32001L518.281 78.32001L329.16 78.32001z" /></clipPath><clipPath id="20"><path id="" clip-rule="evenodd" transform="matrix(1 0 0 1 0 0)" d="M329.16 161.12L518.281 161.12L518.281 161.12L518.281 78.32001L518.281 78.32001L329.16 78.32001z" /></clipPath><clipPath id="21"><path id="" clip-rule="evenodd" transform="matrix(1 0 0 1 0 0)" d="M77.64 203L151.92 203L151.92 203L151.92 161.6L151.92 161.6L77.64 161.6z" /></clipPath><clipPath id="22"><path id="" clip-rule="evenodd" transform="matrix(1 0 0 1 0 0)" d="M77.64 203L151.92 203L151.92 203L151.92 161.6L151.92 161.6L77.64 161.6z" /></clipPath><clipPath id="23"><path id="" clip-rule="evenodd" transform="matrix(1 0 0 1 0 0)" d="M152.4 203L328.561 203L328.561 203L328.561 161.6L328.561 161.6L152.4 161.6z" /></clipPath><clipPath id="24"><path id="" clip-rule="evenodd" transform="matrix(1 0 0 1 0 0)" d="M329.16 203L518.281 203L518.281 203L518.281 161.6L518.281 161.6L329.16 161.6z" /></clipPath><clipPath id="25"><path id="" clip-rule="evenodd" transform="matrix(1 0 0 1 0 0)" d="M329.16 203L518.281 203L518.281 203L518.281 161.6L518.281 161.6L329.16 161.6z" /></clipPath><clipPath id="26"><path id="" clip-rule="evenodd" transform="matrix(1 0 0 1 0 0)" d="M329.16 203L518.281 203L518.281 203L518.281 161.6L518.281 161.6L329.16 161.6z" /></clipPath><clipPath id="27"><path id="" clip-rule="evenodd" transform="matrix(1 0 0 1 0 0)" d="M329.16 203L518.281 203L518.281 203L518.281 161.6L518.281 161.6L329.16 161.6z" /></clipPath><clipPath id="28"><path id="" clip-rule="evenodd" transform="matrix(1 0 0 1 0 0)" d="M329.16 203L518.281 203L518.281 203L518.281 161.6L518.281 161.6L329.16 161.6z" /></clipPath><clipPath id="29"><path id="" clip-rule="evenodd" transform="matrix(1 0 0 1 0 0)" d="M77.64 286.28L151.92 286.28L151.92 286.28L151.92 203.601L151.92 203.601L77.64 203.601z" /></clipPath><clipPath id="30"><path id="" clip-rule="evenodd" transform="matrix(1 0 0 1 0 0)" d="M77.64 286.28L151.92 286.28L151.92 286.28L151.92 203.601L151.92 203.601L77.64 203.601z" /></clipPath><clipPath id="31"><path id="" clip-rule="evenodd" transform="matrix(1 0 0 1 0 0)" d="M152.4 286.28L328.561 286.28L328.561 286.28L328.561 203.601L328.561 203.601L152.4 203.601z" /></clipPath><clipPath id="32"><path id="" clip-rule="evenodd" transform="matrix(1 0 0 1 0 0)" d="M329.16 286.28L518.281 286.28L518.281 286.28L518.281 203.601L518.281 203.601L329.16 203.601z" /></clipPath><clipPath id="33"><path id="" clip-rule="evenodd" transform="matrix(1 0 0 1 0 0)" d="M329.16 286.28L518.281 286.28L518.281 286.28L518.281 203.601L518.281 203.601L329.16 203.601z" /></clipPath><clipPath id="34"><path id="" clip-rule="evenodd" transform="matrix(1 0 0 1 0 0)" d="M329.16 286.28L518.281 286.28L518.281 286.28L518.281 203.601L518.281 203.601L329.16 203.601z" /></clipPath><clipPath id="35"><path id="" clip-rule="evenodd" transform="matrix(1 0 0 1 0 0)" d="M329.16 286.28L518.281 286.28L518.281 286.28L518.281 203.601L518.281 203.601L329.16 203.601z" /></clipPath><clipPath id="36"><path id="" clip-rule="evenodd" transform="matrix(1 0 0 1 0 0)" d="M329.16 286.28L518.281 286.28L518.281 286.28L518.281 203.601L518.281 203.601L329.16 203.601z" /></clipPath><clipPath id="37"><path id="" clip-rule="evenodd" transform="matrix(1 0 0 1 0 0)" d="M77.64 355.88L151.92 355.88L151.92 355.88L151.92 286.88L151.92 286.88L77.64 286.88z" /></clipPath><clipPath id="38"><path id="" clip-rule="evenodd" transform="matrix(1 0 0 1 0 0)" d="M152.4 355.88L328.561 355.88L328.561 355.88L328.561 286.88L328.561 286.88L152.4 286.88z" /></clipPath><clipPath id="39"><path id="" clip-rule="evenodd" transform="matrix(1 0 0 1 0 0)" d="M329.16 355.88L518.281 355.88L518.281 355.88L518.281 286.88L518.281 286.88L329.16 286.88z" /></clipPath><clipPath id="40"><path id="" clip-rule="evenodd" transform="matrix(1 0 0 1 0 0)" d="M329.16 355.88L518.281 355.88L518.281 355.88L518.281 286.88L518.281 286.88L329.16 286.88z" /></clipPath><clipPath id="41"><path id="" clip-rule="evenodd" transform="matrix(1 0 0 1 0 0)" d="M329.16 355.88L518.281 355.88L518.281 355.88L518.281 286.88L518.281 286.88L329.16 286.88z" /></clipPath><clipPath id="42"><path id="" clip-rule="evenodd" transform="matrix(1 0 0 1 0 0)" d="M329.16 355.88L518.281 355.88L518.281 355.88L518.281 286.88L518.281 286.88L329.16 286.88z" /></clipPath><clipPath id="43"><path id="" clip-rule="evenodd" transform="matrix(1 0 0 1 0 0)" d="M329.16 355.88L518.281 355.88L518.281 355.88L518.281 286.88L518.281 286.88L329.16 286.88z" /></clipPath><clipPath id="44"><path id="" clip-rule="evenodd" transform="matrix(1 0 0 1 0 0)" d="M77.16 489.56L518.76 489.56L518.76 489.56L518.76 35.95996L518.76 35.95996L77.16 35.95996z" /></clipPath><clipPath id="45"><path id="" clip-rule="evenodd" transform="matrix(1 0 0 1 0 0)" d="M77.16 489.56L518.76 489.56L518.76 489.56L518.76 35.95996L518.76 35.95996L77.16 35.95996z" /></clipPath><clipPath id="46"><path id="" clip-rule="evenodd" transform="matrix(1 0 0 1 0 0)" d="M36 800.36L56.16 800.36L56.16 800.36L56.16 489.56L56.16 489.56L36 489.56z" /></clipPath><clipPath id="47"><path id="" clip-rule="evenodd" transform="matrix(1 0 0 1 0 0)" d="M56.16 800.36L77.16 800.36L77.16 800.36L77.16 489.56L77.16 489.56L56.16 489.56z" /></clipPath><clipPath id="48"><path id="" clip-rule="evenodd" transform="matrix(1 0 0 1 0 0)" d="M56.16 800.36L77.16 800.36L77.16 800.36L77.16 489.56L77.16 489.56L56.16 489.56z" /></clipPath><clipPath id="49"><path id="" clip-rule="evenodd" transform="matrix(1 0 0 1 0 0)" d="M77.16 800.36L518.76 800.36L518.76 800.36L518.76 489.56L518.76 489.56L77.16 489.56z" /></clipPath><clipPath id="50"><path id="" clip-rule="evenodd" transform="matrix(1 0 0 1 0 0)" d="M77.16 800.36L518.76 800.36L518.76 800.36L518.76 489.56L518.76 489.56L77.16 489.56z" /></clipPath><clipPath id="51"><path id="" clip-rule="evenodd" transform="matrix(1 0 0 1 0 0)" d="M77.16 800.36L518.76 800.36L518.76 800.36L518.76 489.56L518.76 489.56L77.16 489.56z" /></clipPath><clipPath id="52"><path id="" clip-rule="evenodd" transform="matrix(1 0 0 1 0 0)" d="M77.16 800.36L518.76 800.36L518.76 800.36L518.76 489.56L518.76 489.56L77.16 489.56z" /></clipPath><clipPath id="53"><path id="" clip-rule="evenodd" transform="matrix(1 0 0 1 0 0)" d="M77.16 800.36L518.76 800.36L518.76 800.36L518.76 489.56L518.76 489.56L77.16 489.56z" /></clipPath><clipPath id="54"><path id="" clip-rule="evenodd" transform="matrix(1 0 0 1 0 0)" d="M77.16 800.36L518.76 800.36L518.76 800.36L518.76 489.56L518.76 489.56L77.16 489.56z" /></clipPath><clipPath id="55"><path id="" clip-rule="evenodd" transform="matrix(1 0 0 1 0 0)" d="M77.16 800.36L518.76 800.36L518.76 800.36L518.76 489.56L518.76 489.56L77.16 489.56z" /></clipPath><clipPath id="56"><path id="" clip-rule="evenodd" transform="matrix(1 0 0 1 0 0)" d="M77.16 800.36L518.76 800.36L518.76 800.36L518.76 489.56L518.76 489.56L77.16 489.56z" /></clipPath><clipPath id="57"><path id="" clip-rule="evenodd" transform="matrix(1 0 0 1 0 0)" d="M77.16 800.36L518.76 800.36L518.76 800.36L518.76 489.56L518.76 489.56L77.16 489.56z" /></clipPath><clipPath id="58"><path id="" clip-rule="evenodd" transform="matrix(1 0 0 1 0 0)" d="M77.16 800.36L518.76 800.36L518.76 800.36L518.76 489.56L518.76 489.56L77.16 489.56z" /></clipPath><clipPath id="59"><path id="" clip-rule="evenodd" transform="matrix(1 0 0 1 0 0)" d="M77.16 800.36L518.76 800.36L518.76 800.36L518.76 489.56L518.76 489.56L77.16 489.56z" /></clipPath><clipPath id="60"><path id="" clip-rule="evenodd" transform="matrix(1 0 0 1 0 0)" d="M77.16 800.36L518.76 800.36L518.76 800.36L518.76 489.56L518.76 489.56L77.16 489.56z" /></clipPath><clipPath id="61"><path id="" clip-rule="evenodd" transform="matrix(1 0 0 1 0 0)" d="M77.16 800.36L518.76 800.36L518.76 800.36L518.76 489.56L518.76 489.56L77.16 489.56z" /></clipPath><clipPath id="62"><path id="" clip-rule="evenodd" transform="matrix(1 0 0 1 0 0)" d="M77.16 800.36L518.76 800.36L518.76 800.36L518.76 489.56L518.76 489.56L77.16 489.56z" /></clipPath><clipPath id="63"><path id="" clip-rule="evenodd" transform="matrix(1 0 0 1 0 0)" d="M77.16 800.36L518.76 800.36L518.76 800.36L518.76 489.56L518.76 489.56L77.16 489.56z" /></clipPath><clipPath id="64"><path id="" clip-rule="evenodd" transform="matrix(1 0 0 1 0 0)" d="M77.16 800.36L518.76 800.36L518.76 800.36L518.76 489.56L518.76 489.56L77.16 489.56z" /></clipPath><clipPath id="65"><path id="" clip-rule="evenodd" transform="matrix(1 0 0 1 0 0)" d="M77.16 800.36L518.76 800.36L518.76 800.36L518.76 489.56L518.76 489.56L77.16 489.56z" /></clipPath><clipPath id="66"><path id="" clip-rule="evenodd" transform="matrix(1 0 0 1 0 0)" d="M77.16 800.36L518.76 800.36L518.76 800.36L518.76 489.56L518.76 489.56L77.16 489.56z" /></clipPath><clipPath id="67"><path id="" clip-rule="evenodd" transform="matrix(1 0 0 1 0 0)" d="M518.76 800.36L559.56 800.36L559.56 800.36L559.56 489.56L559.56 489.56L518.76 489.56z" /></clipPath><clipPath id="68"><path id="" clip-rule="evenodd" transform="matrix(1 0 0 1 0 0)" d="M518.76 800.36L559.56 800.36L559.56 800.36L559.56 489.56L559.56 489.56L518.76 489.56z" /></clipPath></defs><g transform="matrix(1.333333 0 0 1.333333 0 0)"><g clip-path="url(#1)"><g clip-path="url(#2)"></g><g clip-path="url(#3)"></g><g clip-path="url(#4)"></g><g clip-path="url(#5)"></g><g clip-path="url(#6)"></g><g clip-path="url(#7)"></g><path id="112" transform="matrix(1 0 0 -1 0 842)" d="M77.16 805.56L77.64101 805.56L77.64101 806.04L77.16 806.04z" stroke="none" fill="#BFBFBF" fill-rule="nonzero" /><path id="113" transform="matrix(1 0 0 -1 0 842)" d="M77.16 805.56L77.64101 805.56L77.64101 806.04L77.16 806.04z" stroke="none" fill="#BFBFBF" fill-rule="nonzero" /><path id="114" transform="matrix(1 0 0 -1 0 842)" d="M77.64 805.56L151.92 805.56L151.92 806.04L77.64 806.04z" stroke="none" fill="#BFBFBF" fill-rule="nonzero" /><path id="115" transform="matrix(1 0 0 -1 0 842)" d="M151.92 805.56L152.4 805.56L152.4 806.04L151.92 806.04z" stroke="none" fill="#BFBFBF" fill-rule="nonzero" /><path id="116" transform="matrix(1 0 0 -1 0 842)" d="M152.4 805.56L328.68 805.56L328.68 806.04L152.4 806.04z" stroke="none" fill="#BFBFBF" fill-rule="nonzero" /><path id="117" transform="matrix(1 0 0 -1 0 842)" d="M328.68 805.56L329.16 805.56L329.16 806.04L328.68 806.04z" stroke="none" fill="#BFBFBF" fill-rule="nonzero" /><path id="118" transform="matrix(1 0 0 -1 0 842)" d="M329.16 805.56L518.4 805.56L518.4 806.04L329.16 806.04z" stroke="none" fill="#BFBFBF" fill-rule="nonzero" /><path id="119" transform="matrix(1 0 0 -1 0 842)" d="M518.4 805.56L518.88 805.56L518.88 806.04L518.4 806.04z" stroke="none" fill="#BFBFBF" fill-rule="nonzero" /><path id="120" transform="matrix(1 0 0 -1 0 842)" d="M518.4 805.56L518.88 805.56L518.88 806.04L518.4 806.04z" stroke="none" fill="#BFBFBF" fill-rule="nonzero" /><path id="121" transform="matrix(1 0 0 -1 0 842)" d="M77.16 764.16L77.64101 764.16L77.64101 805.56L77.16 805.56z" stroke="none" fill="#BFBFBF" fill-rule="nonzero" /><path id="122" transform="matrix(1 0 0 -1 0 842)" d="M151.92 764.16L152.4 764.16L152.4 805.56L151.92 805.56z" stroke="none" fill="#BFBFBF" fill-rule="nonzero" /><path id="123" transform="matrix(1 0 0 -1 0 842)" d="M328.68 764.16L329.16 764.16L329.16 805.56L328.68 805.56z" stroke="none" fill="#BFBFBF" fill-rule="nonzero" /><path id="124" transform="matrix(1 0 0 -1 0 842)" d="M518.4 764.16L518.88 764.16L518.88 805.56L518.4 805.56z" stroke="none" fill="#BFBFBF" fill-rule="nonzero" /><g clip-path="url(#8)"></g><g clip-path="url(#9)"></g><g clip-path="url(#10)"></g><g clip-path="url(#11)"></g><g clip-path="url(#12)"></g><g clip-path="url(#13)"></g><g clip-path="url(#14)"></g><g clip-path="url(#15)"></g><g clip-path="url(#16)"></g><g clip-path="url(#17)"></g><g clip-path="url(#18)"></g><g clip-path="url(#19)"></g><g clip-path="url(#20)"></g><path id="432" transform="matrix(1 0 0 -1 0 842)" d="M77.16 763.68L77.64101 763.68L77.64101 764.161L77.16 764.161z" stroke="none" fill="#BFBFBF" fill-rule="nonzero" /><path id="433" transform="matrix(1 0 0 -1 0 842)" d="M77.64 763.68L151.92 763.68L151.92 764.161L77.64 764.161z" stroke="none" fill="#BFBFBF" fill-rule="nonzero" /><path id="434" transform="matrix(1 0 0 -1 0 842)" d="M151.92 763.68L152.4 763.68L152.4 764.161L151.92 764.161z" stroke="none" fill="#BFBFBF" fill-rule="nonzero" /><path id="435" transform="matrix(1 0 0 -1 0 842)" d="M152.4 763.68L328.68 763.68L328.68 764.161L152.4 764.161z" stroke="none" fill="#BFBFBF" fill-rule="nonzero" /><path id="436" transform="matrix(1 0 0 -1 0 842)" d="M328.68 763.68L329.16 763.68L329.16 764.161L328.68 764.161z" stroke="none" fill="#BFBFBF" fill-rule="nonzero" /><path id="437" transform="matrix(1 0 0 -1 0 842)" d="M329.16 763.68L518.4 763.68L518.4 764.161L329.16 764.161z" stroke="none" fill="#BFBFBF" fill-rule="nonzero" /><path id="438" transform="matrix(1 0 0 -1 0 842)" d="M518.4 763.68L518.88 763.68L518.88 764.161L518.4 764.161z" stroke="none" fill="#BFBFBF" fill-rule="nonzero" /><path id="439" transform="matrix(1 0 0 -1 0 842)" d="M77.16 680.88L77.64101 680.88L77.64101 763.68L77.16 763.68z" stroke="none" fill="#BFBFBF" fill-rule="nonzero" /><path id="440" transform="matrix(1 0 0 -1 0 842)" d="M151.92 680.88L152.4 680.88L152.4 763.68L151.92 763.68z" stroke="none" fill="#BFBFBF" fill-rule="nonzero" /><path id="441" transform="matrix(1 0 0 -1 0 842)" d="M328.68 680.88L329.16 680.88L329.16 763.68L328.68 763.68z" stroke="none" fill="#BFBFBF" fill-rule="nonzero" /><path id="442" transform="matrix(1 0 0 -1 0 842)" d="M518.4 680.88L518.88 680.88L518.88 763.68L518.4 763.68z" stroke="none" fill="#BFBFBF" fill-rule="nonzero" /><g clip-path="url(#21)"></g><g clip-path="url(#22)"></g><g clip-path="url(#23)"></g><g clip-path="url(#24)"></g><g clip-path="url(#25)"></g><g clip-path="url(#26)"></g><g clip-path="url(#27)"></g><g clip-path="url(#28)"></g><path id="575" transform="matrix(1 0 0 -1 0 842)" d="M77.16 680.4L77.64101 680.4L77.64101 680.88L77.16 680.88z" stroke="none" fill="#BFBFBF" fill-rule="nonzero" /><path id="576" transform="matrix(1 0 0 -1 0 842)" d="M77.64 680.4L151.92 680.4L151.92 680.88L77.64 680.88z" stroke="none" fill="#BFBFBF" fill-rule="nonzero" /><path id="577" transform="matrix(1 0 0 -1 0 842)" d="M151.92 680.4L152.4 680.4L152.4 680.88L151.92 680.88z" stroke="none" fill="#BFBFBF" fill-rule="nonzero" /><path id="578" transform="matrix(1 0 0 -1 0 842)" d="M152.4 680.4L328.68 680.4L328.68 680.88L152.4 680.88z" stroke="none" fill="#BFBFBF" fill-rule="nonzero" /><path id="579" transform="matrix(1 0 0 -1 0 842)" d="M328.68 680.4L329.16 680.4L329.16 680.88L328.68 680.88z" stroke="none" fill="#BFBFBF" fill-rule="nonzero" /><path id="580" transform="matrix(1 0 0 -1 0 842)" d="M329.16 680.4L518.4 680.4L518.4 680.88L329.16 680.88z" stroke="none" fill="#BFBFBF" fill-rule="nonzero" /><path id="581" transform="matrix(1 0 0 -1 0 842)" d="M518.4 680.4L518.88 680.4L518.88 680.88L518.4 680.88z" stroke="none" fill="#BFBFBF" fill-rule="nonzero" /><path id="582" transform="matrix(1 0 0 -1 0 842)" d="M77.16 639L77.64101 639L77.64101 680.4L77.16 680.4z" stroke="none" fill="#BFBFBF" fill-rule="nonzero" /><path id="583" transform="matrix(1 0 0 -1 0 842)" d="M151.92 639L152.4 639L152.4 680.4L151.92 680.4z" stroke="none" fill="#BFBFBF" fill-rule="nonzero" /><path id="584" transform="matrix(1 0 0 -1 0 842)" d="M328.68 639L329.16 639L329.16 680.4L328.68 680.4z" stroke="none" fill="#BFBFBF" fill-rule="nonzero" /><path id="585" transform="matrix(1 0 0 -1 0 842)" d="M518.4 639L518.88 639L518.88 680.4L518.4 680.4z" stroke="none" fill="#BFBFBF" fill-rule="nonzero" /><g clip-path="url(#29)"></g><g clip-path="url(#30)"></g><g clip-path="url(#31)"></g><g clip-path="url(#32)"></g><g clip-path="url(#33)"></g><g clip-path="url(#34)"></g><g clip-path="url(#35)"></g><g clip-path="url(#36)"></g><path id="878" transform="matrix(1 0 0 -1 0 842)" d="M77.16 638.52L77.64101 638.52L77.64101 639L77.16 639z" stroke="none" fill="#BFBFBF" fill-rule="nonzero" /><path id="879" transform="matrix(1 0 0 -1 0 842)" d="M77.64 638.52L151.92 638.52L151.92 639L77.64 639z" stroke="none" fill="#BFBFBF" fill-rule="nonzero" /><path id="880" transform="matrix(1 0 0 -1 0 842)" d="M151.92 638.52L152.4 638.52L152.4 639L151.92 639z" stroke="none" fill="#BFBFBF" fill-rule="nonzero" /><path id="881" transform="matrix(1 0 0 -1 0 842)" d="M152.4 638.52L328.68 638.52L328.68 639L152.4 639z" stroke="none" fill="#BFBFBF" fill-rule="nonzero" /><path id="882" transform="matrix(1 0 0 -1 0 842)" d="M328.68 638.52L329.16 638.52L329.16 639L328.68 639z" stroke="none" fill="#BFBFBF" fill-rule="nonzero" /><path id="883" transform="matrix(1 0 0 -1 0 842)" d="M329.16 638.52L518.4 638.52L518.4 639L329.16 639z" stroke="none" fill="#BFBFBF" fill-rule="nonzero" /><path id="884" transform="matrix(1 0 0 -1 0 842)" d="M518.4 638.52L518.88 638.52L518.88 639L518.4 639z" stroke="none" fill="#BFBFBF" fill-rule="nonzero" /><path id="885" transform="matrix(1 0 0 -1 0 842)" d="M77.16 555.72L77.64101 555.72L77.64101 638.52L77.16 638.52z" stroke="none" fill="#BFBFBF" fill-rule="nonzero" /><path id="886" transform="matrix(1 0 0 -1 0 842)" d="M151.92 555.72L152.4 555.72L152.4 638.52L151.92 638.52z" stroke="none" fill="#BFBFBF" fill-rule="nonzero" /><path id="887" transform="matrix(1 0 0 -1 0 842)" d="M328.68 555.72L329.16 555.72L329.16 638.52L328.68 638.52z" stroke="none" fill="#BFBFBF" fill-rule="nonzero" /><path id="888" transform="matrix(1 0 0 -1 0 842)" d="M518.4 555.72L518.88 555.72L518.88 638.52L518.4 638.52z" stroke="none" fill="#BFBFBF" fill-rule="nonzero" /><g clip-path="url(#37)"></g><g clip-path="url(#38)"></g><g clip-path="url(#39)"></g><g clip-path="url(#40)"></g><g clip-path="url(#41)"></g><g clip-path="url(#42)"></g><g clip-path="url(#43)"></g><path id="1092" transform="matrix(1 0 0 -1 0 842)" d="M77.16 555.24L77.64101 555.24L77.64101 555.721L77.16 555.721z" stroke="none" fill="#BFBFBF" fill-rule="nonzero" /><path id="1093" transform="matrix(1 0 0 -1 0 842)" d="M77.64 555.24L151.92 555.24L151.92 555.721L77.64 555.721z" stroke="none" fill="#BFBFBF" fill-rule="nonzero" /><path id="1094" transform="matrix(1 0 0 -1 0 842)" d="M151.92 555.24L152.4 555.24L152.4 555.721L151.92 555.721z" stroke="none" fill="#BFBFBF" fill-rule="nonzero" /><path id="1095" transform="matrix(1 0 0 -1 0 842)" d="M152.4 555.24L328.68 555.24L328.68 555.721L152.4 555.721z" stroke="none" fill="#BFBFBF" fill-rule="nonzero" /><path id="1096" transform="matrix(1 0 0 -1 0 842)" d="M328.68 555.24L329.16 555.24L329.16 555.721L328.68 555.721z" stroke="none" fill="#BFBFBF" fill-rule="nonzero" /><path id="1097" transform="matrix(1 0 0 -1 0 842)" d="M329.16 555.24L518.4 555.24L518.4 555.721L329.16 555.721z" stroke="none" fill="#BFBFBF" fill-rule="nonzero" /><path id="1098" transform="matrix(1 0 0 -1 0 842)" d="M518.4 555.24L518.88 555.24L518.88 555.721L518.4 555.721z" stroke="none" fill="#BFBFBF" fill-rule="nonzero" /><path id="1099" transform="matrix(1 0 0 -1 0 842)" d="M77.16 486.12L77.64101 486.12L77.64101 555.24L77.16 555.24z" stroke="none" fill="#BFBFBF" fill-rule="nonzero" /><path id="1100" transform="matrix(1 0 0 -1 0 842)" d="M77.16 485.64L77.64101 485.64L77.64101 486.12L77.16 486.12z" stroke="none" fill="#BFBFBF" fill-rule="nonzero" /><path id="1101" transform="matrix(1 0 0 -1 0 842)" d="M77.16 485.64L77.64101 485.64L77.64101 486.12L77.16 486.12z" stroke="none" fill="#BFBFBF" fill-rule="nonzero" /><path id="1102" transform="matrix(1 0 0 -1 0 842)" d="M77.64 485.64L151.92 485.64L151.92 486.12L77.64 486.12z" stroke="none" fill="#BFBFBF" fill-rule="nonzero" /><path id="1103" transform="matrix(1 0 0 -1 0 842)" d="M151.92 486.12L152.4 486.12L152.4 555.24L151.92 555.24z" stroke="none" fill="#BFBFBF" fill-rule="nonzero" /><path id="1104" transform="matrix(1 0 0 -1 0 842)" d="M151.92 485.64L152.4 485.64L152.4 486.12L151.92 486.12z" stroke="none" fill="#BFBFBF" fill-rule="nonzero" /><path id="1105" transform="matrix(1 0 0 -1 0 842)" d="M152.4 485.64L328.68 485.64L328.68 486.12L152.4 486.12z" stroke="none" fill="#BFBFBF" fill-rule="nonzero" /><path id="1106" transform="matrix(1 0 0 -1 0 842)" d="M328.68 486.12L329.16 486.12L329.16 555.24L328.68 555.24z" stroke="none" fill="#BFBFBF" fill-rule="nonzero" /><path id="1107" transform="matrix(1 0 0 -1 0 842)" d="M328.68 485.64L329.16 485.64L329.16 486.12L328.68 486.12z" stroke="none" fill="#BFBFBF" fill-rule="nonzero" /><path id="1108" transform="matrix(1 0 0 -1 0 842)" d="M329.16 485.64L518.4 485.64L518.4 486.12L329.16 486.12z" stroke="none" fill="#BFBFBF" fill-rule="nonzero" /><path id="1109" transform="matrix(1 0 0 -1 0 842)" d="M518.4 486.12L518.88 486.12L518.88 555.24L518.4 555.24z" stroke="none" fill="#BFBFBF" fill-rule="nonzero" /><path id="1110" transform="matrix(1 0 0 -1 0 842)" d="M518.4 485.64L518.88 485.64L518.88 486.12L518.4 486.12z" stroke="none" fill="#BFBFBF" fill-rule="nonzero" /><path id="1111" transform="matrix(1 0 0 -1 0 842)" d="M518.4 485.64L518.88 485.64L518.88 486.12L518.4 486.12z" stroke="none" fill="#BFBFBF" fill-rule="nonzero" /><g clip-path="url(#44)"></g><g clip-path="url(#45)"></g><g clip-path="url(#46)"></g><g clip-path="url(#47)"></g><g clip-path="url(#48)"></g><g clip-path="url(#49)"></g><g clip-path="url(#50)"></g><g clip-path="url(#51)"></g><g clip-path="url(#52)"></g><g clip-path="url(#53)"></g><g clip-path="url(#54)"></g><g clip-path="url(#55)"></g><g clip-path="url(#56)"></g><g clip-path="url(#57)"></g><g clip-path="url(#58)"></g><g clip-path="url(#59)"></g><g clip-path="url(#60)"></g><g clip-path="url(#61)"></g><g clip-path="url(#62)"></g><g clip-path="url(#63)"></g><g clip-path="url(#64)"></g><g clip-path="url(#65)"></g><g clip-path="url(#66)"></g><g clip-path="url(#67)"></g><g clip-path="url(#68)"></g></g></g></svg>