<svg xmlns="http://www.w3.org/2000/svg" xmlns:xlink="http://www.w3.org/1999/xlink" id="body_17" preserveAspectRatio="xMinYMin meet" viewBox="0 0 793 1123"><defs><clipPath id="1"><path id="" clip-rule="evenodd" transform="matrix(1 0 0 1 0 0)" d="M0 842L0 -0.03997803L0 -0.03997803L595.56 -0.03997803L595.56 -0.03997803L595.56 842L595.56 842L0 842z" /></clipPath><clipPath id="2"><path id="" clip-rule="evenodd" transform="matrix(1 0 0 1 0 0)" d="M529.44 806.48L541.919 806.48L541.919 806.48L541.919 792.32L541.919 792.32L529.44 792.32z" /></clipPath><clipPath id="3"><path id="" clip-rule="evenodd" transform="matrix(1 0 0 1 0 0)" d="M529.44 806.48L541.919 806.48L541.919 806.48L541.919 792.32L541.919 792.32L529.44 792.32z" /></clipPath><clipPath id="4"><path id="" clip-rule="evenodd" transform="matrix(1 0 0 1 0 0)" d="M89.16 50.47998L199.32 50.47998L199.32 50.47998L199.32 36.44L199.32 36.44L89.16 36.44z" /></clipPath><clipPath id="5"><path id="" clip-rule="evenodd" transform="matrix(1 0 0 1 0 0)" d="M89.16 50.47998L199.32 50.47998L199.32 50.47998L199.32 36.44L199.32 36.44L89.16 36.44z" /></clipPath><clipPath id="6"><path id="" clip-rule="evenodd" transform="matrix(1 0 0 1 0 0)" d="M199.8 50.47998L366 50.47998L366 50.47998L366 36.44L366 36.44L199.8 36.44z" /></clipPath><clipPath id="7"><path id="" clip-rule="evenodd" transform="matrix(1 0 0 1 0 0)" d="M199.8 50.47998L366 50.47998L366 50.47998L366 36.44L366 36.44L199.8 36.44z" /></clipPath><clipPath id="8"><path id="" clip-rule="evenodd" transform="matrix(1 0 0 1 0 0)" d="M366.48 50.47998L506.28 50.47998L506.28 50.47998L506.28 36.44L506.28 36.44L366.48 36.44z" /></clipPath><clipPath id="9"><path id="" clip-rule="evenodd" transform="matrix(1 0 0 1 0 0)" d="M366.48 50.47998L506.28 50.47998L506.28 50.47998L506.28 36.44L506.28 36.44L366.48 36.44z" /></clipPath></defs><g transform="matrix(1.333333 0 0 1.333333 0 0)"><g clip-path="url(#1)"><g clip-path="url(#2)"></g><g clip-path="url(#3)"></g><path id="3" transform="matrix(1 0 0 -1 0 842)" d="M89.16 791.52L199.32 791.52L199.32 791.52L199.32 805.56L199.32 805.56L89.16 805.56z" stroke="none" fill="#4F81BD" fill-rule="evenodd" /><path id="4" transform="matrix(1 0 0 -1 0 842)" d="M94.32 791.52L194.16 791.52L194.16 805.56L94.32 805.56z" stroke="none" fill="#4F81BD" fill-rule="nonzero" /><g clip-path="url(#4)"></g><g clip-path="url(#5)"></g><path id="18" transform="matrix(1 0 0 -1 0 842)" d="M199.8 791.52L366 791.52L366 791.52L366 805.56L366 805.56L199.8 805.56z" stroke="none" fill="#B8CCE4" fill-rule="evenodd" /><path id="19" transform="matrix(1 0 0 -1 0 842)" d="M204.96 791.52L360.84 791.52L360.84 805.56L204.96 805.56z" stroke="none" fill="#B8CCE4" fill-rule="nonzero" /><g clip-path="url(#6)"></g><g clip-path="url(#7)"></g><path id="42" transform="matrix(1 0 0 -1 0 842)" d="M366.48 791.52L506.28 791.52L506.28 791.52L506.28 805.56L506.28 805.56L366.48 805.56z" stroke="none" fill="#B8CCE4" fill-rule="evenodd" /><path id="43" transform="matrix(1 0 0 -1 0 842)" d="M371.64 791.52L501.12 791.52L501.12 805.56L371.64 805.56z" stroke="none" fill="#B8CCE4" fill-rule="nonzero" /><g clip-path="url(#8)"></g><g clip-path="url(#9)"></g><path id="66" transform="matrix(1 0 0 -1 0 842)" d="M88.68 805.56L89.161 805.56L89.161 806.04L88.68 806.04z" stroke="none" fill="#FFFFFF" fill-rule="nonzero" /><path id="67" transform="matrix(1 0 0 -1 0 842)" d="M88.68 805.56L89.161 805.56L89.161 806.04L88.68 806.04z" stroke="none" fill="#FFFFFF" fill-rule="nonzero" /><path id="68" transform="matrix(1 0 0 -1 0 842)" d="M89.16 805.56L199.32 805.56L199.32 806.04L89.16 806.04z" stroke="none" fill="#FFFFFF" fill-rule="nonzero" /><path id="69" transform="matrix(1 0 0 -1 0 842)" d="M199.32 805.56L199.8 805.56L199.8 806.04L199.32 806.04z" stroke="none" fill="#FFFFFF" fill-rule="nonzero" /><path id="70" transform="matrix(1 0 0 -1 0 842)" d="M199.8 805.56L366 805.56L366 806.04L199.8 806.04z" stroke="none" fill="#FFFFFF" fill-rule="nonzero" /><path id="71" transform="matrix(1 0 0 -1 0 842)" d="M366 805.56L366.48 805.56L366.48 806.04L366 806.04z" stroke="none" fill="#FFFFFF" fill-rule="nonzero" /><path id="72" transform="matrix(1 0 0 -1 0 842)" d="M366.48 805.56L506.28 805.56L506.28 806.04L366.48 806.04z" stroke="none" fill="#FFFFFF" fill-rule="nonzero" /><path id="73" transform="matrix(1 0 0 -1 0 842)" d="M506.28 805.56L506.761 805.56L506.761 806.04L506.28 806.04z" stroke="none" fill="#FFFFFF" fill-rule="nonzero" /><path id="74" transform="matrix(1 0 0 -1 0 842)" d="M506.28 805.56L506.761 805.56L506.761 806.04L506.28 806.04z" stroke="none" fill="#FFFFFF" fill-rule="nonzero" /><path id="75" transform="matrix(1 0 0 -1 0 842)" d="M88.68 791.52L89.161 791.52L89.161 805.56L88.68 805.56z" stroke="none" fill="#FFFFFF" fill-rule="nonzero" /><path id="76" transform="matrix(1 0 0 -1 0 842)" d="M88.68 791.04L89.161 791.04L89.161 791.521L88.68 791.521z" stroke="none" fill="#FFFFFF" fill-rule="nonzero" /><path id="77" transform="matrix(1 0 0 -1 0 842)" d="M88.68 791.04L89.161 791.04L89.161 791.521L88.68 791.521z" stroke="none" fill="#FFFFFF" fill-rule="nonzero" /><path id="78" transform="matrix(1 0 0 -1 0 842)" d="M89.16 791.04L199.32 791.04L199.32 791.521L89.16 791.521z" stroke="none" fill="#FFFFFF" fill-rule="nonzero" /><path id="79" transform="matrix(1 0 0 -1 0 842)" d="M199.32 791.52L199.8 791.52L199.8 805.56L199.32 805.56z" stroke="none" fill="#FFFFFF" fill-rule="nonzero" /><path id="80" transform="matrix(1 0 0 -1 0 842)" d="M199.32 791.04L199.8 791.04L199.8 791.521L199.32 791.521z" stroke="none" fill="#FFFFFF" fill-rule="nonzero" /><path id="81" transform="matrix(1 0 0 -1 0 842)" d="M199.8 791.04L366 791.04L366 791.521L199.8 791.521z" stroke="none" fill="#FFFFFF" fill-rule="nonzero" /><path id="82" transform="matrix(1 0 0 -1 0 842)" d="M366 791.52L366.48 791.52L366.48 805.56L366 805.56z" stroke="none" fill="#FFFFFF" fill-rule="nonzero" /><path id="83" transform="matrix(1 0 0 -1 0 842)" d="M366 791.04L366.48 791.04L366.48 791.521L366 791.521z" stroke="none" fill="#FFFFFF" fill-rule="nonzero" /><path id="84" transform="matrix(1 0 0 -1 0 842)" d="M366.48 791.04L506.28 791.04L506.28 791.521L366.48 791.521z" stroke="none" fill="#FFFFFF" fill-rule="nonzero" /><path id="85" transform="matrix(1 0 0 -1 0 842)" d="M506.28 791.52L506.761 791.52L506.761 805.56L506.28 805.56z" stroke="none" fill="#FFFFFF" fill-rule="nonzero" /><path id="86" transform="matrix(1 0 0 -1 0 842)" d="M506.28 791.04L506.761 791.04L506.761 791.521L506.28 791.521z" stroke="none" fill="#FFFFFF" fill-rule="nonzero" /><path id="87" transform="matrix(1 0 0 -1 0 842)" d="M506.28 791.04L506.761 791.04L506.761 791.521L506.28 791.521z" stroke="none" fill="#FFFFFF" fill-rule="nonzero" /></g></g></svg>