<svg xmlns="http://www.w3.org/2000/svg" xmlns:xlink="http://www.w3.org/1999/xlink" id="body_11" preserveAspectRatio="xMinYMin meet" viewBox="0 0 793 1123"><defs><clipPath id="1"><path id="" clip-rule="evenodd" transform="matrix(1 0 0 1 0 0)" d="M0 842L0 -0.03997803L0 -0.03997803L595.56 -0.03997803L595.56 -0.03997803L595.56 842L595.56 842L0 842z" /></clipPath><clipPath id="2"><path id="" clip-rule="evenodd" transform="matrix(1 0 0 1 0 0)" d="M529.44 806.48L541.919 806.48L541.919 806.48L541.919 792.32L541.919 792.32L529.44 792.32z" /></clipPath><clipPath id="3"><path id="" clip-rule="evenodd" transform="matrix(1 0 0 1 0 0)" d="M529.44 806.48L541.919 806.48L541.919 806.48L541.919 792.32L541.919 792.32L529.44 792.32z" /></clipPath><clipPath id="4"><path id="" clip-rule="evenodd" transform="matrix(1 0 0 1 0 0)" d="M77.16 673.52L518.76 673.52L518.76 673.52L518.76 35.96002L518.76 35.96002L77.16 35.96002z" /></clipPath><clipPath id="5"><path id="" clip-rule="evenodd" transform="matrix(1 0 0 1 0 0)" d="M77.16 673.52L518.76 673.52L518.76 673.52L518.76 35.96002L518.76 35.96002L77.16 35.96002z" /></clipPath><clipPath id="6"><path id="" clip-rule="evenodd" transform="matrix(1 0 0 1 0 0)" d="M77.16 673.52L518.76 673.52L518.76 673.52L518.76 35.96002L518.76 35.96002L77.16 35.96002z" /></clipPath><clipPath id="7"><path id="" clip-rule="evenodd" transform="matrix(1 0 0 1 0 0)" d="M36 791.48L56.16 791.48L56.16 791.48L56.16 673.52L56.16 673.52L36 673.52z" /></clipPath><clipPath id="8"><path id="" clip-rule="evenodd" transform="matrix(1 0 0 1 0 0)" d="M36 791.48L56.16 791.48L56.16 791.48L56.16 673.52L56.16 673.52L36 673.52z" /></clipPath><clipPath id="9"><path id="" clip-rule="evenodd" transform="matrix(1 0 0 1 0 0)" d="M56.16 791.48L77.16 791.48L77.16 791.48L77.16 673.52L77.16 673.52L56.16 673.52z" /></clipPath><clipPath id="10"><path id="" clip-rule="evenodd" transform="matrix(1 0 0 1 0 0)" d="M77.64 721.52L151.92 721.52L151.92 721.52L151.92 707.72L151.92 707.72L77.64 707.72z" /></clipPath><clipPath id="11"><path id="" clip-rule="evenodd" transform="matrix(1 0 0 1 0 0)" d="M77.64 721.52L151.92 721.52L151.92 721.52L151.92 707.72L151.92 707.72L77.64 707.72z" /></clipPath><clipPath id="12"><path id="" clip-rule="evenodd" transform="matrix(1 0 0 1 0 0)" d="M152.4 721.52L328.561 721.52L328.561 721.52L328.561 707.72L328.561 707.72L152.4 707.72z" /></clipPath><clipPath id="13"><path id="" clip-rule="evenodd" transform="matrix(1 0 0 1 0 0)" d="M152.4 721.52L328.561 721.52L328.561 721.52L328.561 707.72L328.561 707.72L152.4 707.72z" /></clipPath><clipPath id="14"><path id="" clip-rule="evenodd" transform="matrix(1 0 0 1 0 0)" d="M329.16 721.52L518.281 721.52L518.281 721.52L518.281 707.72L518.281 707.72L329.16 707.72z" /></clipPath><clipPath id="15"><path id="" clip-rule="evenodd" transform="matrix(1 0 0 1 0 0)" d="M329.16 721.52L518.281 721.52L518.281 721.52L518.281 707.72L518.281 707.72L329.16 707.72z" /></clipPath><clipPath id="16"><path id="" clip-rule="evenodd" transform="matrix(1 0 0 1 0 0)" d="M329.16 721.52L518.281 721.52L518.281 721.52L518.281 707.72L518.281 707.72L329.16 707.72z" /></clipPath><clipPath id="17"><path id="" clip-rule="evenodd" transform="matrix(1 0 0 1 0 0)" d="M329.16 721.52L518.281 721.52L518.281 721.52L518.281 707.72L518.281 707.72L329.16 707.72z" /></clipPath><clipPath id="18"><path id="" clip-rule="evenodd" transform="matrix(1 0 0 1 0 0)" d="M77.64 777.2L151.92 777.2L151.92 777.2L151.92 722L151.92 722L77.64 722z" /></clipPath><clipPath id="19"><path id="" clip-rule="evenodd" transform="matrix(1 0 0 1 0 0)" d="M77.64 777.2L151.92 777.2L151.92 777.2L151.92 722L151.92 722L77.64 722z" /></clipPath><clipPath id="20"><path id="" clip-rule="evenodd" transform="matrix(1 0 0 1 0 0)" d="M152.4 777.2L328.561 777.2L328.561 777.2L328.561 722L328.561 722L152.4 722z" /></clipPath><clipPath id="21"><path id="" clip-rule="evenodd" transform="matrix(1 0 0 1 0 0)" d="M152.4 777.2L328.561 777.2L328.561 777.2L328.561 722L328.561 722L152.4 722z" /></clipPath><clipPath id="22"><path id="" clip-rule="evenodd" transform="matrix(1 0 0 1 0 0)" d="M152.4 777.2L328.561 777.2L328.561 777.2L328.561 722L328.561 722L152.4 722z" /></clipPath><clipPath id="23"><path id="" clip-rule="evenodd" transform="matrix(1 0 0 1 0 0)" d="M329.16 777.2L518.281 777.2L518.281 777.2L518.281 722L518.281 722L329.16 722z" /></clipPath><clipPath id="24"><path id="" clip-rule="evenodd" transform="matrix(1 0 0 1 0 0)" d="M329.16 777.2L518.281 777.2L518.281 777.2L518.281 722L518.281 722L329.16 722z" /></clipPath><clipPath id="25"><path id="" clip-rule="evenodd" transform="matrix(1 0 0 1 0 0)" d="M329.16 777.2L518.281 777.2L518.281 777.2L518.281 722L518.281 722L329.16 722z" /></clipPath><clipPath id="26"><path id="" clip-rule="evenodd" transform="matrix(1 0 0 1 0 0)" d="M329.16 777.2L518.281 777.2L518.281 777.2L518.281 722L518.281 722L329.16 722z" /></clipPath><clipPath id="27"><path id="" clip-rule="evenodd" transform="matrix(1 0 0 1 0 0)" d="M329.16 777.2L518.281 777.2L518.281 777.2L518.281 722L518.281 722L329.16 722z" /></clipPath><clipPath id="28"><path id="" clip-rule="evenodd" transform="matrix(1 0 0 1 0 0)" d="M329.16 777.2L518.281 777.2L518.281 777.2L518.281 722L518.281 722L329.16 722z" /></clipPath><clipPath id="29"><path id="" clip-rule="evenodd" transform="matrix(1 0 0 1 0 0)" d="M329.16 777.2L518.281 777.2L518.281 777.2L518.281 722L518.281 722L329.16 722z" /></clipPath><clipPath id="30"><path id="" clip-rule="evenodd" transform="matrix(1 0 0 1 0 0)" d="M77.64 791.48L151.92 791.48L151.92 791.48L151.92 777.679L151.92 777.679L77.64 777.679z" /></clipPath><clipPath id="31"><path id="" clip-rule="evenodd" transform="matrix(1 0 0 1 0 0)" d="M77.64 791.48L151.92 791.48L151.92 791.48L151.92 777.679L151.92 777.679L77.64 777.679z" /></clipPath><clipPath id="32"><path id="" clip-rule="evenodd" transform="matrix(1 0 0 1 0 0)" d="M152.4 791.48L328.561 791.48L328.561 791.48L328.561 777.679L328.561 777.679L152.4 777.679z" /></clipPath><clipPath id="33"><path id="" clip-rule="evenodd" transform="matrix(1 0 0 1 0 0)" d="M329.16 791.48L518.281 791.48L518.281 791.48L518.281 777.679L518.281 777.679L329.16 777.679z" /></clipPath><clipPath id="34"><path id="" clip-rule="evenodd" transform="matrix(1 0 0 1 0 0)" d="M329.16 791.48L518.281 791.48L518.281 791.48L518.281 777.679L518.281 777.679L329.16 777.679z" /></clipPath><clipPath id="35"><path id="" clip-rule="evenodd" transform="matrix(1 0 0 1 0 0)" d="M329.16 791.48L518.281 791.48L518.281 791.48L518.281 777.679L518.281 777.679L329.16 777.679z" /></clipPath><clipPath id="36"><path id="" clip-rule="evenodd" transform="matrix(1 0 0 1 0 0)" d="M93.2 77.96002L405.649 77.96002L405.649 77.96002L405.649 367.1L405.649 367.1L93.2 367.1z" /></clipPath></defs><g transform="matrix(1.333333 0 0 1.333333 0 0)"><g clip-path="url(#1)"><g clip-path="url(#2)"></g><g clip-path="url(#3)"></g><g clip-path="url(#4)"></g><g clip-path="url(#5)"></g><g clip-path="url(#6)"></g><g clip-path="url(#7)"></g><g clip-path="url(#8)"></g><g clip-path="url(#9)"></g><g clip-path="url(#10)"></g><g clip-path="url(#11)"></g><g clip-path="url(#12)"></g><g clip-path="url(#13)"></g><g clip-path="url(#14)"></g><g clip-path="url(#15)"></g><g clip-path="url(#16)"></g><g clip-path="url(#17)"></g><path id="919" transform="matrix(1 0 0 -1 0 842)" d="M77.16 134.28L77.64101 134.28L77.64101 134.76L77.16 134.76z" stroke="none" fill="#BFBFBF" fill-rule="nonzero" /><path id="920" transform="matrix(1 0 0 -1 0 842)" d="M77.16 134.28L77.64101 134.28L77.64101 134.76L77.16 134.76z" stroke="none" fill="#BFBFBF" fill-rule="nonzero" /><path id="921" transform="matrix(1 0 0 -1 0 842)" d="M77.64 134.28L151.92 134.28L151.92 134.76L77.64 134.76z" stroke="none" fill="#BFBFBF" fill-rule="nonzero" /><path id="922" transform="matrix(1 0 0 -1 0 842)" d="M151.92 134.28L152.4 134.28L152.4 134.76L151.92 134.76z" stroke="none" fill="#BFBFBF" fill-rule="nonzero" /><path id="923" transform="matrix(1 0 0 -1 0 842)" d="M152.4 134.28L328.68 134.28L328.68 134.76L152.4 134.76z" stroke="none" fill="#BFBFBF" fill-rule="nonzero" /><path id="924" transform="matrix(1 0 0 -1 0 842)" d="M328.68 134.28L329.16 134.28L329.16 134.76L328.68 134.76z" stroke="none" fill="#BFBFBF" fill-rule="nonzero" /><path id="925" transform="matrix(1 0 0 -1 0 842)" d="M329.16 134.28L518.4 134.28L518.4 134.76L329.16 134.76z" stroke="none" fill="#BFBFBF" fill-rule="nonzero" /><path id="926" transform="matrix(1 0 0 -1 0 842)" d="M518.4 134.28L518.76 134.28L518.76 134.76L518.4 134.76z" stroke="none" fill="#BFBFBF" fill-rule="nonzero" /><path id="927" transform="matrix(1 0 0 -1 0 842)" d="M518.4 134.28L518.76 134.28L518.76 134.76L518.4 134.76z" stroke="none" fill="#BFBFBF" fill-rule="nonzero" /><path id="928" transform="matrix(1 0 0 -1 0 842)" d="M77.16 120.48L77.64101 120.48L77.64101 134.28L77.16 134.28z" stroke="none" fill="#BFBFBF" fill-rule="nonzero" /><path id="929" transform="matrix(1 0 0 -1 0 842)" d="M151.92 120.48L152.4 120.48L152.4 134.28L151.92 134.28z" stroke="none" fill="#BFBFBF" fill-rule="nonzero" /><path id="930" transform="matrix(1 0 0 -1 0 842)" d="M328.68 120.48L329.16 120.48L329.16 134.28L328.68 134.28z" stroke="none" fill="#BFBFBF" fill-rule="nonzero" /><path id="931" transform="matrix(1 0 0 -1 0 842)" d="M518.4 120.48L518.76 120.48L518.76 134.28L518.4 134.28z" stroke="none" fill="#BFBFBF" fill-rule="nonzero" /><g clip-path="url(#18)"></g><g clip-path="url(#19)"></g><g clip-path="url(#20)"></g><g clip-path="url(#21)"></g><g clip-path="url(#22)"></g><g clip-path="url(#23)"></g><g clip-path="url(#24)"></g><g clip-path="url(#25)"></g><g clip-path="url(#26)"></g><g clip-path="url(#27)"></g><g clip-path="url(#28)"></g><g clip-path="url(#29)"></g><path id="1141" transform="matrix(1 0 0 -1 0 842)" d="M77.16 120L77.64101 120L77.64101 120.481L77.16 120.481z" stroke="none" fill="#BFBFBF" fill-rule="nonzero" /><path id="1142" transform="matrix(1 0 0 -1 0 842)" d="M77.64 120L151.92 120L151.92 120.481L77.64 120.481z" stroke="none" fill="#BFBFBF" fill-rule="nonzero" /><path id="1143" transform="matrix(1 0 0 -1 0 842)" d="M151.92 120L152.4 120L152.4 120.481L151.92 120.481z" stroke="none" fill="#BFBFBF" fill-rule="nonzero" /><path id="1144" transform="matrix(1 0 0 -1 0 842)" d="M152.4 120L328.68 120L328.68 120.481L152.4 120.481z" stroke="none" fill="#BFBFBF" fill-rule="nonzero" /><path id="1145" transform="matrix(1 0 0 -1 0 842)" d="M328.68 120L329.16 120L329.16 120.481L328.68 120.481z" stroke="none" fill="#BFBFBF" fill-rule="nonzero" /><path id="1146" transform="matrix(1 0 0 -1 0 842)" d="M329.16 120L518.4 120L518.4 120.481L329.16 120.481z" stroke="none" fill="#BFBFBF" fill-rule="nonzero" /><path id="1147" transform="matrix(1 0 0 -1 0 842)" d="M518.4 120L518.76 120L518.76 120.481L518.4 120.481z" stroke="none" fill="#BFBFBF" fill-rule="nonzero" /><path id="1148" transform="matrix(1 0 0 -1 0 842)" d="M77.16 64.8L77.64101 64.8L77.64101 120L77.16 120z" stroke="none" fill="#BFBFBF" fill-rule="nonzero" /><path id="1149" transform="matrix(1 0 0 -1 0 842)" d="M151.92 64.8L152.4 64.8L152.4 120L151.92 120z" stroke="none" fill="#BFBFBF" fill-rule="nonzero" /><path id="1150" transform="matrix(1 0 0 -1 0 842)" d="M328.68 64.8L329.16 64.8L329.16 120L328.68 120z" stroke="none" fill="#BFBFBF" fill-rule="nonzero" /><path id="1151" transform="matrix(1 0 0 -1 0 842)" d="M518.4 64.8L518.76 64.8L518.76 120L518.4 120z" stroke="none" fill="#BFBFBF" fill-rule="nonzero" /><g clip-path="url(#30)"></g><g clip-path="url(#31)"></g><g clip-path="url(#32)"></g><g clip-path="url(#33)"></g><g clip-path="url(#34)"></g><g clip-path="url(#35)"></g><path id="1206" transform="matrix(1 0 0 -1 0 842)" d="M77.16 64.32L77.64101 64.32L77.64101 64.8L77.16 64.8z" stroke="none" fill="#BFBFBF" fill-rule="nonzero" /><path id="1207" transform="matrix(1 0 0 -1 0 842)" d="M77.64 64.32L151.92 64.32L151.92 64.8L77.64 64.8z" stroke="none" fill="#BFBFBF" fill-rule="nonzero" /><path id="1208" transform="matrix(1 0 0 -1 0 842)" d="M151.92 64.32L152.4 64.32L152.4 64.8L151.92 64.8z" stroke="none" fill="#BFBFBF" fill-rule="nonzero" /><path id="1209" transform="matrix(1 0 0 -1 0 842)" d="M152.4 64.32L328.68 64.32L328.68 64.8L152.4 64.8z" stroke="none" fill="#BFBFBF" fill-rule="nonzero" /><path id="1210" transform="matrix(1 0 0 -1 0 842)" d="M328.68 64.32L329.16 64.32L329.16 64.8L328.68 64.8z" stroke="none" fill="#BFBFBF" fill-rule="nonzero" /><path id="1211" transform="matrix(1 0 0 -1 0 842)" d="M329.16 64.32L518.4 64.32L518.4 64.8L329.16 64.8z" stroke="none" fill="#BFBFBF" fill-rule="nonzero" /><path id="1212" transform="matrix(1 0 0 -1 0 842)" d="M518.4 64.32L518.76 64.32L518.76 64.8L518.4 64.8z" stroke="none" fill="#BFBFBF" fill-rule="nonzero" /><path id="1213" transform="matrix(1 0 0 -1 0 842)" d="M77.16 51L77.64101 51L77.64101 64.32L77.16 64.32z" stroke="none" fill="#BFBFBF" fill-rule="nonzero" /><path id="1214" transform="matrix(1 0 0 -1 0 842)" d="M77.16 50.52L77.64101 50.52L77.64101 51.001L77.16 51.001z" stroke="none" fill="#BFBFBF" fill-rule="nonzero" /><path id="1215" transform="matrix(1 0 0 -1 0 842)" d="M77.16 50.52L77.64101 50.52L77.64101 51.001L77.16 51.001z" stroke="none" fill="#BFBFBF" fill-rule="nonzero" /><path id="1216" transform="matrix(1 0 0 -1 0 842)" d="M77.64 50.52L151.92 50.52L151.92 51.001L77.64 51.001z" stroke="none" fill="#BFBFBF" fill-rule="nonzero" /><path id="1217" transform="matrix(1 0 0 -1 0 842)" d="M151.92 51L152.4 51L152.4 64.32L151.92 64.32z" stroke="none" fill="#BFBFBF" fill-rule="nonzero" /><path id="1218" transform="matrix(1 0 0 -1 0 842)" d="M151.92 50.52L152.4 50.52L152.4 51.001L151.92 51.001z" stroke="none" fill="#BFBFBF" fill-rule="nonzero" /><path id="1219" transform="matrix(1 0 0 -1 0 842)" d="M152.4 50.52L328.68 50.52L328.68 51.001L152.4 51.001z" stroke="none" fill="#BFBFBF" fill-rule="nonzero" /><path id="1220" transform="matrix(1 0 0 -1 0 842)" d="M328.68 51L329.16 51L329.16 64.32L328.68 64.32z" stroke="none" fill="#BFBFBF" fill-rule="nonzero" /><path id="1221" transform="matrix(1 0 0 -1 0 842)" d="M328.68 50.52L329.16 50.52L329.16 51.001L328.68 51.001z" stroke="none" fill="#BFBFBF" fill-rule="nonzero" /><path id="1222" transform="matrix(1 0 0 -1 0 842)" d="M329.16 50.52L518.4 50.52L518.4 51.001L329.16 51.001z" stroke="none" fill="#BFBFBF" fill-rule="nonzero" /><path id="1223" transform="matrix(1 0 0 -1 0 842)" d="M518.4 51L518.76 51L518.76 64.32L518.4 64.32z" stroke="none" fill="#BFBFBF" fill-rule="nonzero" /><path id="1224" transform="matrix(1 0 0 -1 0 842)" d="M518.4 50.52L518.76 50.52L518.76 51.001L518.4 51.001z" stroke="none" fill="#BFBFBF" fill-rule="nonzero" /><path id="1225" transform="matrix(1 0 0 -1 0 842)" d="M518.4 50.52L518.76 50.52L518.76 51.001L518.4 51.001z" stroke="none" fill="#BFBFBF" fill-rule="nonzero" /><g clip-path="url(#36)"><g transform="matrix(0.4245244 0 0 0.4245819 93.20016 77.96008)"><g transform="matrix(1 0 0 1 0 0)"><image x="0" y="0" xlink:href="img_25.png" width="736" height="681" /></g></g></g></g></g></svg>