<svg xmlns="http://www.w3.org/2000/svg" xmlns:xlink="http://www.w3.org/1999/xlink" id="body_14" preserveAspectRatio="xMinYMin meet" viewBox="0 0 793 1123"><defs><clipPath id="1"><path id="" clip-rule="evenodd" transform="matrix(1 0 0 1 0 0)" d="M0 842L0 -0.03997803L0 -0.03997803L595.56 -0.03997803L595.56 -0.03997803L595.56 842L595.56 842L0 842z" /></clipPath><clipPath id="2"><path id="" clip-rule="evenodd" transform="matrix(1 0 0 1 0 0)" d="M529.44 806.48L541.919 806.48L541.919 806.48L541.919 792.32L541.919 792.32L529.44 792.32z" /></clipPath><clipPath id="3"><path id="" clip-rule="evenodd" transform="matrix(1 0 0 1 0 0)" d="M529.44 806.48L541.919 806.48L541.919 806.48L541.919 792.32L541.919 792.32L529.44 792.32z" /></clipPath><clipPath id="4"><path id="" clip-rule="evenodd" transform="matrix(1 0 0 1 0 0)" d="M77.16 221.48L518.76 221.48L518.76 221.48L518.76 35.95996L518.76 35.95996L77.16 35.95996z" /></clipPath><clipPath id="5"><path id="" clip-rule="evenodd" transform="matrix(1 0 0 1 0 0)" d="M77.16 221.48L518.76 221.48L518.76 221.48L518.76 35.95996L518.76 35.95996L77.16 35.95996z" /></clipPath><clipPath id="6"><path id="" clip-rule="evenodd" transform="matrix(1 0 0 1 0 0)" d="M77.16 221.48L518.76 221.48L518.76 221.48L518.76 35.95996L518.76 35.95996L77.16 35.95996z" /></clipPath><clipPath id="7"><path id="" clip-rule="evenodd" transform="matrix(1 0 0 1 0 0)" d="M77.16 221.48L518.76 221.48L518.76 221.48L518.76 35.95996L518.76 35.95996L77.16 35.95996z" /></clipPath><clipPath id="8"><path id="" clip-rule="evenodd" transform="matrix(1 0 0 1 0 0)" d="M77.16 221.48L518.76 221.48L518.76 221.48L518.76 35.95996L518.76 35.95996L77.16 35.95996z" /></clipPath><clipPath id="9"><path id="" clip-rule="evenodd" transform="matrix(1 0 0 1 0 0)" d="M36 379.76L56.16 379.76L56.16 379.76L56.16 221.48L56.16 221.48L36 221.48z" /></clipPath><clipPath id="10"><path id="" clip-rule="evenodd" transform="matrix(1 0 0 1 0 0)" d="M56.16 379.76L77.16 379.76L77.16 379.76L77.16 221.48L77.16 221.48L56.16 221.48z" /></clipPath><clipPath id="11"><path id="" clip-rule="evenodd" transform="matrix(1 0 0 1 0 0)" d="M56.16 379.76L77.16 379.76L77.16 379.76L77.16 221.48L77.16 221.48L56.16 221.48z" /></clipPath><clipPath id="12"><path id="" clip-rule="evenodd" transform="matrix(1 0 0 1 0 0)" d="M77.16 379.76L518.76 379.76L518.76 379.76L518.76 221.48L518.76 221.48L77.16 221.48z" /></clipPath><clipPath id="13"><path id="" clip-rule="evenodd" transform="matrix(1 0 0 1 0 0)" d="M77.16 379.76L518.76 379.76L518.76 379.76L518.76 221.48L518.76 221.48L77.16 221.48z" /></clipPath><clipPath id="14"><path id="" clip-rule="evenodd" transform="matrix(1 0 0 1 0 0)" d="M77.16 379.76L518.76 379.76L518.76 379.76L518.76 221.48L518.76 221.48L77.16 221.48z" /></clipPath><clipPath id="15"><path id="" clip-rule="evenodd" transform="matrix(1 0 0 1 0 0)" d="M77.16 379.76L518.76 379.76L518.76 379.76L518.76 221.48L518.76 221.48L77.16 221.48z" /></clipPath><clipPath id="16"><path id="" clip-rule="evenodd" transform="matrix(1 0 0 1 0 0)" d="M77.16 379.76L518.76 379.76L518.76 379.76L518.76 221.48L518.76 221.48L77.16 221.48z" /></clipPath><clipPath id="17"><path id="" clip-rule="evenodd" transform="matrix(1 0 0 1 0 0)" d="M77.16 379.76L518.76 379.76L518.76 379.76L518.76 221.48L518.76 221.48L77.16 221.48z" /></clipPath><clipPath id="18"><path id="" clip-rule="evenodd" transform="matrix(1 0 0 1 0 0)" d="M77.16 379.76L518.76 379.76L518.76 379.76L518.76 221.48L518.76 221.48L77.16 221.48z" /></clipPath><clipPath id="19"><path id="" clip-rule="evenodd" transform="matrix(1 0 0 1 0 0)" d="M77.16 379.76L518.76 379.76L518.76 379.76L518.76 221.48L518.76 221.48L77.16 221.48z" /></clipPath><clipPath id="20"><path id="" clip-rule="evenodd" transform="matrix(1 0 0 1 0 0)" d="M77.16 379.76L518.76 379.76L518.76 379.76L518.76 221.48L518.76 221.48L77.16 221.48z" /></clipPath><clipPath id="21"><path id="" clip-rule="evenodd" transform="matrix(1 0 0 1 0 0)" d="M77.16 379.76L518.76 379.76L518.76 379.76L518.76 221.48L518.76 221.48L77.16 221.48z" /></clipPath><clipPath id="22"><path id="" clip-rule="evenodd" transform="matrix(1 0 0 1 0 0)" d="M77.16 379.76L518.76 379.76L518.76 379.76L518.76 221.48L518.76 221.48L77.16 221.48z" /></clipPath><clipPath id="23"><path id="" clip-rule="evenodd" transform="matrix(1 0 0 1 0 0)" d="M77.16 379.76L518.76 379.76L518.76 379.76L518.76 221.48L518.76 221.48L77.16 221.48z" /></clipPath><clipPath id="24"><path id="" clip-rule="evenodd" transform="matrix(1 0 0 1 0 0)" d="M77.16 379.76L518.76 379.76L518.76 379.76L518.76 221.48L518.76 221.48L77.16 221.48z" /></clipPath><clipPath id="25"><path id="" clip-rule="evenodd" transform="matrix(1 0 0 1 0 0)" d="M77.16 379.76L518.76 379.76L518.76 379.76L518.76 221.48L518.76 221.48L77.16 221.48z" /></clipPath><clipPath id="26"><path id="" clip-rule="evenodd" transform="matrix(1 0 0 1 0 0)" d="M77.64 262.76L243.72 262.76L243.72 262.76L243.72 248.96L243.72 248.96L77.64 248.96z" /></clipPath><clipPath id="27"><path id="" clip-rule="evenodd" transform="matrix(1 0 0 1 0 0)" d="M77.64 262.76L243.72 262.76L243.72 262.76L243.72 248.96L243.72 248.96L77.64 248.96z" /></clipPath><clipPath id="28"><path id="" clip-rule="evenodd" transform="matrix(1 0 0 1 0 0)" d="M244.2 262.76L518.281 262.76L518.281 262.76L518.281 248.96L518.281 248.96L244.2 248.96z" /></clipPath><clipPath id="29"><path id="" clip-rule="evenodd" transform="matrix(1 0 0 1 0 0)" d="M244.2 262.76L518.281 262.76L518.281 262.76L518.281 248.96L518.281 248.96L244.2 248.96z" /></clipPath><clipPath id="30"><path id="" clip-rule="evenodd" transform="matrix(1 0 0 1 0 0)" d="M77.64 304.64L243.72 304.64L243.72 304.64L243.72 263.24L243.72 263.24L77.64 263.24z" /></clipPath><clipPath id="31"><path id="" clip-rule="evenodd" transform="matrix(1 0 0 1 0 0)" d="M77.64 304.64L243.72 304.64L243.72 304.64L243.72 263.24L243.72 263.24L77.64 263.24z" /></clipPath><clipPath id="32"><path id="" clip-rule="evenodd" transform="matrix(1 0 0 1 0 0)" d="M77.64 304.64L243.72 304.64L243.72 304.64L243.72 263.24L243.72 263.24L77.64 263.24z" /></clipPath><clipPath id="33"><path id="" clip-rule="evenodd" transform="matrix(1 0 0 1 0 0)" d="M77.64 332.72L243.72 332.72L243.72 332.72L243.72 305.121L243.72 305.121L77.64 305.121z" /></clipPath><clipPath id="34"><path id="" clip-rule="evenodd" transform="matrix(1 0 0 1 0 0)" d="M77.64 332.72L243.72 332.72L243.72 332.72L243.72 305.121L243.72 305.121L77.64 305.121z" /></clipPath><clipPath id="35"><path id="" clip-rule="evenodd" transform="matrix(1 0 0 1 0 0)" d="M77.64 332.72L243.72 332.72L243.72 332.72L243.72 305.121L243.72 305.121L77.64 305.121z" /></clipPath><clipPath id="36"><path id="" clip-rule="evenodd" transform="matrix(1 0 0 1 0 0)" d="M77.64 347L243.72 347L243.72 347L243.72 333.2L243.72 333.2L77.64 333.2z" /></clipPath><clipPath id="37"><path id="" clip-rule="evenodd" transform="matrix(1 0 0 1 0 0)" d="M77.64 347L243.72 347L243.72 347L243.72 333.2L243.72 333.2L77.64 333.2z" /></clipPath><clipPath id="38"><path id="" clip-rule="evenodd" transform="matrix(1 0 0 1 0 0)" d="M244.2 347L518.281 347L518.281 347L518.281 333.2L518.281 333.2L244.2 333.2z" /></clipPath><clipPath id="39"><path id="" clip-rule="evenodd" transform="matrix(1 0 0 1 0 0)" d="M244.2 347L518.281 347L518.281 347L518.281 333.2L518.281 333.2L244.2 333.2z" /></clipPath><clipPath id="40"><path id="" clip-rule="evenodd" transform="matrix(1 0 0 1 0 0)" d="M77.64 375.08L243.72 375.08L243.72 375.08L243.72 347.48L243.72 347.48L77.64 347.48z" /></clipPath><clipPath id="41"><path id="" clip-rule="evenodd" transform="matrix(1 0 0 1 0 0)" d="M77.64 375.08L243.72 375.08L243.72 375.08L243.72 347.48L243.72 347.48L77.64 347.48z" /></clipPath><clipPath id="42"><path id="" clip-rule="evenodd" transform="matrix(1 0 0 1 0 0)" d="M77.64 375.08L243.72 375.08L243.72 375.08L243.72 347.48L243.72 347.48L77.64 347.48z" /></clipPath><clipPath id="43"><path id="" clip-rule="evenodd" transform="matrix(1 0 0 1 0 0)" d="M518.76 379.76L559.56 379.76L559.56 379.76L559.56 221.48L559.56 221.48L518.76 221.48z" /></clipPath><clipPath id="44"><path id="" clip-rule="evenodd" transform="matrix(1 0 0 1 0 0)" d="M518.76 379.76L559.56 379.76L559.56 379.76L559.56 221.48L559.56 221.48L518.76 221.48z" /></clipPath><clipPath id="45"><path id="" clip-rule="evenodd" transform="matrix(1 0 0 1 0 0)" d="M36 798.2L56.16 798.2L56.16 798.2L56.16 379.76L56.16 379.76L36 379.76z" /></clipPath><clipPath id="46"><path id="" clip-rule="evenodd" transform="matrix(1 0 0 1 0 0)" d="M56.16 798.2L77.16 798.2L77.16 798.2L77.16 379.76L77.16 379.76L56.16 379.76z" /></clipPath><clipPath id="47"><path id="" clip-rule="evenodd" transform="matrix(1 0 0 1 0 0)" d="M56.16 798.2L77.16 798.2L77.16 798.2L77.16 379.76L77.16 379.76L56.16 379.76z" /></clipPath><clipPath id="48"><path id="" clip-rule="evenodd" transform="matrix(1 0 0 1 0 0)" d="M77.16 798.2L518.76 798.2L518.76 798.2L518.76 379.76L518.76 379.76L77.16 379.76z" /></clipPath><clipPath id="49"><path id="" clip-rule="evenodd" transform="matrix(1 0 0 1 0 0)" d="M77.16 798.2L518.76 798.2L518.76 798.2L518.76 379.76L518.76 379.76L77.16 379.76z" /></clipPath><clipPath id="50"><path id="" clip-rule="evenodd" transform="matrix(1 0 0 1 0 0)" d="M77.16 798.2L518.76 798.2L518.76 798.2L518.76 379.76L518.76 379.76L77.16 379.76z" /></clipPath><clipPath id="51"><path id="" clip-rule="evenodd" transform="matrix(1 0 0 1 0 0)" d="M77.16 798.2L518.76 798.2L518.76 798.2L518.76 379.76L518.76 379.76L77.16 379.76z" /></clipPath><clipPath id="52"><path id="" clip-rule="evenodd" transform="matrix(1 0 0 1 0 0)" d="M77.16 798.2L518.76 798.2L518.76 798.2L518.76 379.76L518.76 379.76L77.16 379.76z" /></clipPath><clipPath id="53"><path id="" clip-rule="evenodd" transform="matrix(1 0 0 1 0 0)" d="M77.16 798.2L518.76 798.2L518.76 798.2L518.76 379.76L518.76 379.76L77.16 379.76z" /></clipPath><clipPath id="54"><path id="" clip-rule="evenodd" transform="matrix(1 0 0 1 0 0)" d="M77.16 798.2L518.76 798.2L518.76 798.2L518.76 379.76L518.76 379.76L77.16 379.76z" /></clipPath><clipPath id="55"><path id="" clip-rule="evenodd" transform="matrix(1 0 0 1 0 0)" d="M77.16 798.2L518.76 798.2L518.76 798.2L518.76 379.76L518.76 379.76L77.16 379.76z" /></clipPath><clipPath id="56"><path id="" clip-rule="evenodd" transform="matrix(1 0 0 1 0 0)" d="M77.16 798.2L518.76 798.2L518.76 798.2L518.76 379.76L518.76 379.76L77.16 379.76z" /></clipPath><clipPath id="57"><path id="" clip-rule="evenodd" transform="matrix(1 0 0 1 0 0)" d="M77.16 798.2L518.76 798.2L518.76 798.2L518.76 379.76L518.76 379.76L77.16 379.76z" /></clipPath><clipPath id="58"><path id="" clip-rule="evenodd" transform="matrix(1 0 0 1 0 0)" d="M77.16 798.2L518.76 798.2L518.76 798.2L518.76 379.76L518.76 379.76L77.16 379.76z" /></clipPath><clipPath id="59"><path id="" clip-rule="evenodd" transform="matrix(1 0 0 1 0 0)" d="M77.16 798.2L518.76 798.2L518.76 798.2L518.76 379.76L518.76 379.76L77.16 379.76z" /></clipPath><clipPath id="60"><path id="" clip-rule="evenodd" transform="matrix(1 0 0 1 0 0)" d="M77.16 798.2L518.76 798.2L518.76 798.2L518.76 379.76L518.76 379.76L77.16 379.76z" /></clipPath><clipPath id="61"><path id="" clip-rule="evenodd" transform="matrix(1 0 0 1 0 0)" d="M77.16 798.2L518.76 798.2L518.76 798.2L518.76 379.76L518.76 379.76L77.16 379.76z" /></clipPath><clipPath id="62"><path id="" clip-rule="evenodd" transform="matrix(1 0 0 1 0 0)" d="M77.16 798.2L518.76 798.2L518.76 798.2L518.76 379.76L518.76 379.76L77.16 379.76z" /></clipPath><clipPath id="63"><path id="" clip-rule="evenodd" transform="matrix(1 0 0 1 0 0)" d="M77.16 798.2L518.76 798.2L518.76 798.2L518.76 379.76L518.76 379.76L77.16 379.76z" /></clipPath><clipPath id="64"><path id="" clip-rule="evenodd" transform="matrix(1 0 0 1 0 0)" d="M77.16 798.2L518.76 798.2L518.76 798.2L518.76 379.76L518.76 379.76L77.16 379.76z" /></clipPath><clipPath id="65"><path id="" clip-rule="evenodd" transform="matrix(1 0 0 1 0 0)" d="M77.16 798.2L518.76 798.2L518.76 798.2L518.76 379.76L518.76 379.76L77.16 379.76z" /></clipPath><clipPath id="66"><path id="" clip-rule="evenodd" transform="matrix(1 0 0 1 0 0)" d="M77.16 798.2L518.76 798.2L518.76 798.2L518.76 379.76L518.76 379.76L77.16 379.76z" /></clipPath><clipPath id="67"><path id="" clip-rule="evenodd" transform="matrix(1 0 0 1 0 0)" d="M77.16 798.2L518.76 798.2L518.76 798.2L518.76 379.76L518.76 379.76L77.16 379.76z" /></clipPath><clipPath id="68"><path id="" clip-rule="evenodd" transform="matrix(1 0 0 1 0 0)" d="M77.16 798.2L518.76 798.2L518.76 798.2L518.76 379.76L518.76 379.76L77.16 379.76z" /></clipPath><clipPath id="69"><path id="" clip-rule="evenodd" transform="matrix(1 0 0 1 0 0)" d="M77.16 798.2L518.76 798.2L518.76 798.2L518.76 379.76L518.76 379.76L77.16 379.76z" /></clipPath><clipPath id="70"><path id="" clip-rule="evenodd" transform="matrix(1 0 0 1 0 0)" d="M77.16 798.2L518.76 798.2L518.76 798.2L518.76 379.76L518.76 379.76L77.16 379.76z" /></clipPath><clipPath id="71"><path id="" clip-rule="evenodd" transform="matrix(1 0 0 1 0 0)" d="M77.16 798.2L518.76 798.2L518.76 798.2L518.76 379.76L518.76 379.76L77.16 379.76z" /></clipPath><clipPath id="72"><path id="" clip-rule="evenodd" transform="matrix(1 0 0 1 0 0)" d="M77.16 798.2L518.76 798.2L518.76 798.2L518.76 379.76L518.76 379.76L77.16 379.76z" /></clipPath><clipPath id="73"><path id="" clip-rule="evenodd" transform="matrix(1 0 0 1 0 0)" d="M518.76 798.2L559.56 798.2L559.56 798.2L559.56 379.76L559.56 379.76L518.76 379.76z" /></clipPath><clipPath id="74"><path id="" clip-rule="evenodd" transform="matrix(1 0 0 1 0 0)" d="M518.76 798.2L559.56 798.2L559.56 798.2L559.56 379.76L559.56 379.76L518.76 379.76z" /></clipPath></defs><g transform="matrix(1.333333 0 0 1.333333 0 0)"><g clip-path="url(#1)"><g clip-path="url(#2)"></g><g clip-path="url(#3)"></g><g clip-path="url(#4)"></g><g clip-path="url(#5)"></g><g clip-path="url(#6)"></g><g clip-path="url(#7)"></g><g clip-path="url(#8)"></g><g clip-path="url(#9)"></g><g clip-path="url(#10)"></g><g clip-path="url(#11)"></g><g clip-path="url(#12)"></g><g clip-path="url(#13)"></g><g clip-path="url(#14)"></g><g clip-path="url(#15)"></g><g clip-path="url(#16)"></g><g clip-path="url(#17)"></g><g clip-path="url(#18)"></g><g clip-path="url(#19)"></g><g clip-path="url(#20)"></g><g clip-path="url(#21)"></g><g clip-path="url(#22)"></g><g clip-path="url(#23)"></g><g clip-path="url(#24)"></g><g clip-path="url(#25)"></g><g clip-path="url(#26)"></g><g clip-path="url(#27)"></g><g clip-path="url(#28)"></g><g clip-path="url(#29)"></g><path id="582" transform="matrix(1 0 0 -1 0 842)" d="M77.16 593.16L77.64101 593.16L77.64101 593.64L77.16 593.64z" stroke="none" fill="#BFBFBF" fill-rule="nonzero" /><path id="583" transform="matrix(1 0 0 -1 0 842)" d="M77.16 593.16L77.64101 593.16L77.64101 593.64L77.16 593.64z" stroke="none" fill="#BFBFBF" fill-rule="nonzero" /><path id="584" transform="matrix(1 0 0 -1 0 842)" d="M77.64 593.16L243.839 593.16L243.839 593.64L77.64 593.64z" stroke="none" fill="#BFBFBF" fill-rule="nonzero" /><path id="585" transform="matrix(1 0 0 -1 0 842)" d="M243.84 593.16L244.321 593.16L244.321 593.64L243.84 593.64z" stroke="none" fill="#BFBFBF" fill-rule="nonzero" /><path id="586" transform="matrix(1 0 0 -1 0 842)" d="M244.32 593.16L518.4 593.16L518.4 593.64L244.32 593.64z" stroke="none" fill="#BFBFBF" fill-rule="nonzero" /><path id="587" transform="matrix(1 0 0 -1 0 842)" d="M518.4 593.16L518.76 593.16L518.76 593.64L518.4 593.64z" stroke="none" fill="#BFBFBF" fill-rule="nonzero" /><path id="588" transform="matrix(1 0 0 -1 0 842)" d="M518.4 593.16L518.76 593.16L518.76 593.64L518.4 593.64z" stroke="none" fill="#BFBFBF" fill-rule="nonzero" /><path id="589" transform="matrix(1 0 0 -1 0 842)" d="M77.16 579.24L77.64101 579.24L77.64101 593.16L77.16 593.16z" stroke="none" fill="#BFBFBF" fill-rule="nonzero" /><path id="590" transform="matrix(1 0 0 -1 0 842)" d="M243.84 579.24L244.321 579.24L244.321 593.16L243.84 593.16z" stroke="none" fill="#BFBFBF" fill-rule="nonzero" /><path id="591" transform="matrix(1 0 0 -1 0 842)" d="M518.4 579.24L518.76 579.24L518.76 593.16L518.4 593.16z" stroke="none" fill="#BFBFBF" fill-rule="nonzero" /><g clip-path="url(#30)"></g><g clip-path="url(#31)"></g><g clip-path="url(#32)"></g><path id="726" transform="matrix(1 0 0 -1 0 842)" d="M77.16 578.76L77.64101 578.76L77.64101 579.24L77.16 579.24z" stroke="none" fill="#BFBFBF" fill-rule="nonzero" /><path id="727" transform="matrix(1 0 0 -1 0 842)" d="M77.64 578.76L243.839 578.76L243.839 579.24L77.64 579.24z" stroke="none" fill="#BFBFBF" fill-rule="nonzero" /><path id="728" transform="matrix(1 0 0 -1 0 842)" d="M243.84 578.76L244.321 578.76L244.321 579.24L243.84 579.24z" stroke="none" fill="#BFBFBF" fill-rule="nonzero" /><path id="729" transform="matrix(1 0 0 -1 0 842)" d="M244.32 578.76L518.4 578.76L518.4 579.24L244.32 579.24z" stroke="none" fill="#BFBFBF" fill-rule="nonzero" /><path id="730" transform="matrix(1 0 0 -1 0 842)" d="M518.4 578.76L518.76 578.76L518.76 579.24L518.4 579.24z" stroke="none" fill="#BFBFBF" fill-rule="nonzero" /><path id="731" transform="matrix(1 0 0 -1 0 842)" d="M77.16 537.36L77.64101 537.36L77.64101 578.76L77.16 578.76z" stroke="none" fill="#BFBFBF" fill-rule="nonzero" /><path id="732" transform="matrix(1 0 0 -1 0 842)" d="M243.84 537.36L244.321 537.36L244.321 578.76L243.84 578.76z" stroke="none" fill="#BFBFBF" fill-rule="nonzero" /><path id="733" transform="matrix(1 0 0 -1 0 842)" d="M518.4 537.36L518.76 537.36L518.76 578.76L518.4 578.76z" stroke="none" fill="#BFBFBF" fill-rule="nonzero" /><g clip-path="url(#33)"></g><g clip-path="url(#34)"></g><g clip-path="url(#35)"></g><path id="791" transform="matrix(1 0 0 -1 0 842)" d="M77.16 536.88L77.64101 536.88L77.64101 537.361L77.16 537.361z" stroke="none" fill="#BFBFBF" fill-rule="nonzero" /><path id="792" transform="matrix(1 0 0 -1 0 842)" d="M77.64 536.88L243.839 536.88L243.839 537.361L77.64 537.361z" stroke="none" fill="#BFBFBF" fill-rule="nonzero" /><path id="793" transform="matrix(1 0 0 -1 0 842)" d="M243.84 536.88L244.321 536.88L244.321 537.361L243.84 537.361z" stroke="none" fill="#BFBFBF" fill-rule="nonzero" /><path id="794" transform="matrix(1 0 0 -1 0 842)" d="M244.32 536.88L518.4 536.88L518.4 537.361L244.32 537.361z" stroke="none" fill="#BFBFBF" fill-rule="nonzero" /><path id="795" transform="matrix(1 0 0 -1 0 842)" d="M518.4 536.88L518.76 536.88L518.76 537.361L518.4 537.361z" stroke="none" fill="#BFBFBF" fill-rule="nonzero" /><path id="796" transform="matrix(1 0 0 -1 0 842)" d="M77.16 509.28L77.64101 509.28L77.64101 536.879L77.16 536.879z" stroke="none" fill="#BFBFBF" fill-rule="nonzero" /><path id="797" transform="matrix(1 0 0 -1 0 842)" d="M243.84 509.28L244.321 509.28L244.321 536.879L243.84 536.879z" stroke="none" fill="#BFBFBF" fill-rule="nonzero" /><path id="798" transform="matrix(1 0 0 -1 0 842)" d="M518.4 509.28L518.76 509.28L518.76 536.879L518.4 536.879z" stroke="none" fill="#BFBFBF" fill-rule="nonzero" /><g clip-path="url(#36)"></g><g clip-path="url(#37)"></g><g clip-path="url(#38)"></g><g clip-path="url(#39)"></g><path id="864" transform="matrix(1 0 0 -1 0 842)" d="M77.16 508.8L77.64101 508.8L77.64101 509.281L77.16 509.281z" stroke="none" fill="#BFBFBF" fill-rule="nonzero" /><path id="865" transform="matrix(1 0 0 -1 0 842)" d="M77.64 508.8L243.839 508.8L243.839 509.281L77.64 509.281z" stroke="none" fill="#BFBFBF" fill-rule="nonzero" /><path id="866" transform="matrix(1 0 0 -1 0 842)" d="M243.84 508.8L244.321 508.8L244.321 509.281L243.84 509.281z" stroke="none" fill="#BFBFBF" fill-rule="nonzero" /><path id="867" transform="matrix(1 0 0 -1 0 842)" d="M244.32 508.8L518.4 508.8L518.4 509.281L244.32 509.281z" stroke="none" fill="#BFBFBF" fill-rule="nonzero" /><path id="868" transform="matrix(1 0 0 -1 0 842)" d="M518.4 508.8L518.76 508.8L518.76 509.281L518.4 509.281z" stroke="none" fill="#BFBFBF" fill-rule="nonzero" /><path id="869" transform="matrix(1 0 0 -1 0 842)" d="M77.16 495L77.64101 495L77.64101 508.8L77.16 508.8z" stroke="none" fill="#BFBFBF" fill-rule="nonzero" /><path id="870" transform="matrix(1 0 0 -1 0 842)" d="M243.84 495L244.321 495L244.321 508.8L243.84 508.8z" stroke="none" fill="#BFBFBF" fill-rule="nonzero" /><path id="871" transform="matrix(1 0 0 -1 0 842)" d="M518.4 495L518.76 495L518.76 508.8L518.4 508.8z" stroke="none" fill="#BFBFBF" fill-rule="nonzero" /><g clip-path="url(#40)"></g><g clip-path="url(#41)"></g><g clip-path="url(#42)"></g><path id="934" transform="matrix(1 0 0 -1 0 842)" d="M77.16 494.52L77.64101 494.52L77.64101 495L77.16 495z" stroke="none" fill="#BFBFBF" fill-rule="nonzero" /><path id="935" transform="matrix(1 0 0 -1 0 842)" d="M77.64 494.52L243.839 494.52L243.839 495L77.64 495z" stroke="none" fill="#BFBFBF" fill-rule="nonzero" /><path id="936" transform="matrix(1 0 0 -1 0 842)" d="M243.84 494.52L244.321 494.52L244.321 495L243.84 495z" stroke="none" fill="#BFBFBF" fill-rule="nonzero" /><path id="937" transform="matrix(1 0 0 -1 0 842)" d="M244.32 494.52L518.4 494.52L518.4 495L244.32 495z" stroke="none" fill="#BFBFBF" fill-rule="nonzero" /><path id="938" transform="matrix(1 0 0 -1 0 842)" d="M518.4 494.52L518.76 494.52L518.76 495L518.4 495z" stroke="none" fill="#BFBFBF" fill-rule="nonzero" /><path id="939" transform="matrix(1 0 0 -1 0 842)" d="M77.16 466.92L77.64101 466.92L77.64101 494.52L77.16 494.52z" stroke="none" fill="#BFBFBF" fill-rule="nonzero" /><path id="940" transform="matrix(1 0 0 -1 0 842)" d="M77.16 466.44L77.64101 466.44L77.64101 466.92L77.16 466.92z" stroke="none" fill="#BFBFBF" fill-rule="nonzero" /><path id="941" transform="matrix(1 0 0 -1 0 842)" d="M77.16 466.44L77.64101 466.44L77.64101 466.92L77.16 466.92z" stroke="none" fill="#BFBFBF" fill-rule="nonzero" /><path id="942" transform="matrix(1 0 0 -1 0 842)" d="M77.64 466.44L243.839 466.44L243.839 466.92L77.64 466.92z" stroke="none" fill="#BFBFBF" fill-rule="nonzero" /><path id="943" transform="matrix(1 0 0 -1 0 842)" d="M243.84 466.92L244.321 466.92L244.321 494.52L243.84 494.52z" stroke="none" fill="#BFBFBF" fill-rule="nonzero" /><path id="944" transform="matrix(1 0 0 -1 0 842)" d="M243.84 466.44L244.321 466.44L244.321 466.92L243.84 466.92z" stroke="none" fill="#BFBFBF" fill-rule="nonzero" /><path id="945" transform="matrix(1 0 0 -1 0 842)" d="M244.32 466.44L518.4 466.44L518.4 466.92L244.32 466.92z" stroke="none" fill="#BFBFBF" fill-rule="nonzero" /><path id="946" transform="matrix(1 0 0 -1 0 842)" d="M518.4 466.92L518.76 466.92L518.76 494.52L518.4 494.52z" stroke="none" fill="#BFBFBF" fill-rule="nonzero" /><path id="947" transform="matrix(1 0 0 -1 0 842)" d="M518.4 466.44L518.76 466.44L518.76 466.92L518.4 466.92z" stroke="none" fill="#BFBFBF" fill-rule="nonzero" /><path id="948" transform="matrix(1 0 0 -1 0 842)" d="M518.4 466.44L518.76 466.44L518.76 466.92L518.4 466.92z" stroke="none" fill="#BFBFBF" fill-rule="nonzero" /><g clip-path="url(#43)"></g><g clip-path="url(#44)"></g><g clip-path="url(#45)"></g><g clip-path="url(#46)"></g><g clip-path="url(#47)"></g><g clip-path="url(#48)"></g><g clip-path="url(#49)"></g><g clip-path="url(#50)"></g><g clip-path="url(#51)"></g><g clip-path="url(#52)"></g><g clip-path="url(#53)"></g><g clip-path="url(#54)"></g><g clip-path="url(#55)"></g><g clip-path="url(#56)"></g><g clip-path="url(#57)"></g><g clip-path="url(#58)"></g><g clip-path="url(#59)"></g><g clip-path="url(#60)"></g><g clip-path="url(#61)"></g><g clip-path="url(#62)"></g><g clip-path="url(#63)"></g><g clip-path="url(#64)"></g><g clip-path="url(#65)"></g><g clip-path="url(#66)"></g><g clip-path="url(#67)"></g><g clip-path="url(#68)"></g><g clip-path="url(#69)"></g><g clip-path="url(#70)"></g><g clip-path="url(#71)"></g><g clip-path="url(#72)"></g><g clip-path="url(#73)"></g><g clip-path="url(#74)"></g></g></g></svg>