<svg xmlns="http://www.w3.org/2000/svg" xmlns:xlink="http://www.w3.org/1999/xlink" id="body_15" preserveAspectRatio="xMinYMin meet" viewBox="0 0 793 1123"><defs><clipPath id="1"><path id="" clip-rule="evenodd" transform="matrix(1 0 0 1 0 0)" d="M0 842L0 -0.03997803L0 -0.03997803L595.56 -0.03997803L595.56 -0.03997803L595.56 842L595.56 842L0 842z" /></clipPath><clipPath id="2"><path id="" clip-rule="evenodd" transform="matrix(1 0 0 1 0 0)" d="M529.44 806.48L541.919 806.48L541.919 806.48L541.919 792.32L541.919 792.32L529.44 792.32z" /></clipPath><clipPath id="3"><path id="" clip-rule="evenodd" transform="matrix(1 0 0 1 0 0)" d="M529.44 806.48L541.919 806.48L541.919 806.48L541.919 792.32L541.919 792.32L529.44 792.32z" /></clipPath><clipPath id="4"><path id="" clip-rule="evenodd" transform="matrix(1 0 0 1 0 0)" d="M77.16 101.12L518.76 101.12L518.76 101.12L518.76 35.95996L518.76 35.95996L77.16 35.95996z" /></clipPath><clipPath id="5"><path id="" clip-rule="evenodd" transform="matrix(1 0 0 1 0 0)" d="M77.16 101.12L518.76 101.12L518.76 101.12L518.76 35.95996L518.76 35.95996L77.16 35.95996z" /></clipPath><clipPath id="6"><path id="" clip-rule="evenodd" transform="matrix(1 0 0 1 0 0)" d="M77.16 101.12L518.76 101.12L518.76 101.12L518.76 35.95996L518.76 35.95996L77.16 35.95996z" /></clipPath><clipPath id="7"><path id="" clip-rule="evenodd" transform="matrix(1 0 0 1 0 0)" d="M77.16 101.12L518.76 101.12L518.76 101.12L518.76 35.95996L518.76 35.95996L77.16 35.95996z" /></clipPath><clipPath id="8"><path id="" clip-rule="evenodd" transform="matrix(1 0 0 1 0 0)" d="M77.16 101.12L518.76 101.12L518.76 101.12L518.76 35.95996L518.76 35.95996L77.16 35.95996z" /></clipPath><clipPath id="9"><path id="" clip-rule="evenodd" transform="matrix(1 0 0 1 0 0)" d="M36 483.68L56.16 483.68L56.16 483.68L56.16 101.12L56.16 101.12L36 101.12z" /></clipPath><clipPath id="10"><path id="" clip-rule="evenodd" transform="matrix(1 0 0 1 0 0)" d="M56.16 483.68L77.16 483.68L77.16 483.68L77.16 101.12L77.16 101.12L56.16 101.12z" /></clipPath><clipPath id="11"><path id="" clip-rule="evenodd" transform="matrix(1 0 0 1 0 0)" d="M56.16 483.68L77.16 483.68L77.16 483.68L77.16 101.12L77.16 101.12L56.16 101.12z" /></clipPath><clipPath id="12"><path id="" clip-rule="evenodd" transform="matrix(1 0 0 1 0 0)" d="M77.16 483.68L518.76 483.68L518.76 483.68L518.76 101.12L518.76 101.12L77.16 101.12z" /></clipPath><clipPath id="13"><path id="" clip-rule="evenodd" transform="matrix(1 0 0 1 0 0)" d="M77.16 483.68L518.76 483.68L518.76 483.68L518.76 101.12L518.76 101.12L77.16 101.12z" /></clipPath><clipPath id="14"><path id="" clip-rule="evenodd" transform="matrix(1 0 0 1 0 0)" d="M77.16 483.68L518.76 483.68L518.76 483.68L518.76 101.12L518.76 101.12L77.16 101.12z" /></clipPath><clipPath id="15"><path id="" clip-rule="evenodd" transform="matrix(1 0 0 1 0 0)" d="M77.16 483.68L518.76 483.68L518.76 483.68L518.76 101.12L518.76 101.12L77.16 101.12z" /></clipPath><clipPath id="16"><path id="" clip-rule="evenodd" transform="matrix(1 0 0 1 0 0)" d="M77.16 483.68L518.76 483.68L518.76 483.68L518.76 101.12L518.76 101.12L77.16 101.12z" /></clipPath><clipPath id="17"><path id="" clip-rule="evenodd" transform="matrix(1 0 0 1 0 0)" d="M77.16 483.68L518.76 483.68L518.76 483.68L518.76 101.12L518.76 101.12L77.16 101.12z" /></clipPath><clipPath id="18"><path id="" clip-rule="evenodd" transform="matrix(1 0 0 1 0 0)" d="M77.16 483.68L518.76 483.68L518.76 483.68L518.76 101.12L518.76 101.12L77.16 101.12z" /></clipPath><clipPath id="19"><path id="" clip-rule="evenodd" transform="matrix(1 0 0 1 0 0)" d="M77.16 483.68L518.76 483.68L518.76 483.68L518.76 101.12L518.76 101.12L77.16 101.12z" /></clipPath><clipPath id="20"><path id="" clip-rule="evenodd" transform="matrix(1 0 0 1 0 0)" d="M77.64 142.28L153.96 142.28L153.96 142.28L153.96 128.48L153.96 128.48L77.64 128.48z" /></clipPath><clipPath id="21"><path id="" clip-rule="evenodd" transform="matrix(1 0 0 1 0 0)" d="M77.64 142.28L153.96 142.28L153.96 142.28L153.96 128.48L153.96 128.48L77.64 128.48z" /></clipPath><clipPath id="22"><path id="" clip-rule="evenodd" transform="matrix(1 0 0 1 0 0)" d="M154.44 142.28L318.48 142.28L318.48 142.28L318.48 128.48L318.48 128.48L154.44 128.48z" /></clipPath><clipPath id="23"><path id="" clip-rule="evenodd" transform="matrix(1 0 0 1 0 0)" d="M154.44 142.28L318.48 142.28L318.48 142.28L318.48 128.48L318.48 128.48L154.44 128.48z" /></clipPath><clipPath id="24"><path id="" clip-rule="evenodd" transform="matrix(1 0 0 1 0 0)" d="M318.96 142.28L518.28 142.28L518.28 142.28L518.28 128.48L518.28 128.48L318.96 128.48z" /></clipPath><clipPath id="25"><path id="" clip-rule="evenodd" transform="matrix(1 0 0 1 0 0)" d="M318.96 142.28L518.28 142.28L518.28 142.28L518.28 128.48L518.28 128.48L318.96 128.48z" /></clipPath><clipPath id="26"><path id="" clip-rule="evenodd" transform="matrix(1 0 0 1 0 0)" d="M77.64 184.16L153.96 184.16L153.96 184.16L153.96 142.7599L153.96 142.7599L77.64 142.7599z" /></clipPath><clipPath id="27"><path id="" clip-rule="evenodd" transform="matrix(1 0 0 1 0 0)" d="M77.64 184.16L153.96 184.16L153.96 184.16L153.96 142.7599L153.96 142.7599L77.64 142.7599z" /></clipPath><clipPath id="28"><path id="" clip-rule="evenodd" transform="matrix(1 0 0 1 0 0)" d="M154.44 184.16L318.48 184.16L318.48 184.16L318.48 142.7599L318.48 142.7599L154.44 142.7599z" /></clipPath><clipPath id="29"><path id="" clip-rule="evenodd" transform="matrix(1 0 0 1 0 0)" d="M154.44 184.16L318.48 184.16L318.48 184.16L318.48 142.7599L318.48 142.7599L154.44 142.7599z" /></clipPath><clipPath id="30"><path id="" clip-rule="evenodd" transform="matrix(1 0 0 1 0 0)" d="M154.44 184.16L318.48 184.16L318.48 184.16L318.48 142.7599L318.48 142.7599L154.44 142.7599z" /></clipPath><clipPath id="31"><path id="" clip-rule="evenodd" transform="matrix(1 0 0 1 0 0)" d="M318.96 184.16L518.28 184.16L518.28 184.16L518.28 142.7599L518.28 142.7599L318.96 142.7599z" /></clipPath><clipPath id="32"><path id="" clip-rule="evenodd" transform="matrix(1 0 0 1 0 0)" d="M77.64 226.04L153.96 226.04L153.96 226.04L153.96 184.64L153.96 184.64L77.64 184.64z" /></clipPath><clipPath id="33"><path id="" clip-rule="evenodd" transform="matrix(1 0 0 1 0 0)" d="M77.64 226.04L153.96 226.04L153.96 226.04L153.96 184.64L153.96 184.64L77.64 184.64z" /></clipPath><clipPath id="34"><path id="" clip-rule="evenodd" transform="matrix(1 0 0 1 0 0)" d="M154.44 226.04L318.48 226.04L318.48 226.04L318.48 184.64L318.48 184.64L154.44 184.64z" /></clipPath><clipPath id="35"><path id="" clip-rule="evenodd" transform="matrix(1 0 0 1 0 0)" d="M154.44 226.04L318.48 226.04L318.48 226.04L318.48 184.64L318.48 184.64L154.44 184.64z" /></clipPath><clipPath id="36"><path id="" clip-rule="evenodd" transform="matrix(1 0 0 1 0 0)" d="M154.44 226.04L318.48 226.04L318.48 226.04L318.48 184.64L318.48 184.64L154.44 184.64z" /></clipPath><clipPath id="37"><path id="" clip-rule="evenodd" transform="matrix(1 0 0 1 0 0)" d="M318.96 226.04L518.28 226.04L518.28 226.04L518.28 184.64L518.28 184.64L318.96 184.64z" /></clipPath><clipPath id="38"><path id="" clip-rule="evenodd" transform="matrix(1 0 0 1 0 0)" d="M77.64 254.12L153.96 254.12L153.96 254.12L153.96 226.52L153.96 226.52L77.64 226.52z" /></clipPath><clipPath id="39"><path id="" clip-rule="evenodd" transform="matrix(1 0 0 1 0 0)" d="M77.64 254.12L153.96 254.12L153.96 254.12L153.96 226.52L153.96 226.52L77.64 226.52z" /></clipPath><clipPath id="40"><path id="" clip-rule="evenodd" transform="matrix(1 0 0 1 0 0)" d="M154.44 254.12L318.48 254.12L318.48 254.12L318.48 226.52L318.48 226.52L154.44 226.52z" /></clipPath><clipPath id="41"><path id="" clip-rule="evenodd" transform="matrix(1 0 0 1 0 0)" d="M154.44 254.12L318.48 254.12L318.48 254.12L318.48 226.52L318.48 226.52L154.44 226.52z" /></clipPath><clipPath id="42"><path id="" clip-rule="evenodd" transform="matrix(1 0 0 1 0 0)" d="M154.44 254.12L318.48 254.12L318.48 254.12L318.48 226.52L318.48 226.52L154.44 226.52z" /></clipPath><clipPath id="43"><path id="" clip-rule="evenodd" transform="matrix(1 0 0 1 0 0)" d="M318.96 254.12L518.28 254.12L518.28 254.12L518.28 226.52L518.28 226.52L318.96 226.52z" /></clipPath><clipPath id="44"><path id="" clip-rule="evenodd" transform="matrix(1 0 0 1 0 0)" d="M318.96 254.12L518.28 254.12L518.28 254.12L518.28 226.52L518.28 226.52L318.96 226.52z" /></clipPath><clipPath id="45"><path id="" clip-rule="evenodd" transform="matrix(1 0 0 1 0 0)" d="M318.96 254.12L518.28 254.12L518.28 254.12L518.28 226.52L518.28 226.52L318.96 226.52z" /></clipPath><clipPath id="46"><path id="" clip-rule="evenodd" transform="matrix(1 0 0 1 0 0)" d="M318.96 254.12L518.28 254.12L518.28 254.12L518.28 226.52L518.28 226.52L318.96 226.52z" /></clipPath><clipPath id="47"><path id="" clip-rule="evenodd" transform="matrix(1 0 0 1 0 0)" d="M77.64 309.8L153.96 309.8L153.96 309.8L153.96 254.599L153.96 254.599L77.64 254.599z" /></clipPath><clipPath id="48"><path id="" clip-rule="evenodd" transform="matrix(1 0 0 1 0 0)" d="M154.44 309.8L318.48 309.8L318.48 309.8L318.48 254.599L318.48 254.599L154.44 254.599z" /></clipPath><clipPath id="49"><path id="" clip-rule="evenodd" transform="matrix(1 0 0 1 0 0)" d="M318.96 309.8L518.28 309.8L518.28 309.8L518.28 254.599L518.28 254.599L318.96 254.599z" /></clipPath><clipPath id="50"><path id="" clip-rule="evenodd" transform="matrix(1 0 0 1 0 0)" d="M318.96 309.8L518.28 309.8L518.28 309.8L518.28 254.599L518.28 254.599L318.96 254.599z" /></clipPath><clipPath id="51"><path id="" clip-rule="evenodd" transform="matrix(1 0 0 1 0 0)" d="M318.96 309.8L518.28 309.8L518.28 309.8L518.28 254.599L518.28 254.599L318.96 254.599z" /></clipPath><clipPath id="52"><path id="" clip-rule="evenodd" transform="matrix(1 0 0 1 0 0)" d="M77.64 351.8L153.96 351.8L153.96 351.8L153.96 310.4L153.96 310.4L77.64 310.4z" /></clipPath><clipPath id="53"><path id="" clip-rule="evenodd" transform="matrix(1 0 0 1 0 0)" d="M154.44 351.8L318.48 351.8L318.48 351.8L318.48 310.4L318.48 310.4L154.44 310.4z" /></clipPath><clipPath id="54"><path id="" clip-rule="evenodd" transform="matrix(1 0 0 1 0 0)" d="M154.44 351.8L318.48 351.8L318.48 351.8L318.48 310.4L318.48 310.4L154.44 310.4z" /></clipPath><clipPath id="55"><path id="" clip-rule="evenodd" transform="matrix(1 0 0 1 0 0)" d="M154.44 351.8L318.48 351.8L318.48 351.8L318.48 310.4L318.48 310.4L154.44 310.4z" /></clipPath><clipPath id="56"><path id="" clip-rule="evenodd" transform="matrix(1 0 0 1 0 0)" d="M318.96 351.8L518.28 351.8L518.28 351.8L518.28 310.4L518.28 310.4L318.96 310.4z" /></clipPath><clipPath id="57"><path id="" clip-rule="evenodd" transform="matrix(1 0 0 1 0 0)" d="M318.96 351.8L518.28 351.8L518.28 351.8L518.28 310.4L518.28 310.4L318.96 310.4z" /></clipPath><clipPath id="58"><path id="" clip-rule="evenodd" transform="matrix(1 0 0 1 0 0)" d="M318.96 351.8L518.28 351.8L518.28 351.8L518.28 310.4L518.28 310.4L318.96 310.4z" /></clipPath><clipPath id="59"><path id="" clip-rule="evenodd" transform="matrix(1 0 0 1 0 0)" d="M318.96 351.8L518.28 351.8L518.28 351.8L518.28 310.4L518.28 310.4L318.96 310.4z" /></clipPath><clipPath id="60"><path id="" clip-rule="evenodd" transform="matrix(1 0 0 1 0 0)" d="M318.96 351.8L518.28 351.8L518.28 351.8L518.28 310.4L518.28 310.4L318.96 310.4z" /></clipPath><clipPath id="61"><path id="" clip-rule="evenodd" transform="matrix(1 0 0 1 0 0)" d="M77.64 393.68L153.96 393.68L153.96 393.68L153.96 352.28L153.96 352.28L77.64 352.28z" /></clipPath><clipPath id="62"><path id="" clip-rule="evenodd" transform="matrix(1 0 0 1 0 0)" d="M154.44 393.68L318.48 393.68L318.48 393.68L318.48 352.28L318.48 352.28L154.44 352.28z" /></clipPath><clipPath id="63"><path id="" clip-rule="evenodd" transform="matrix(1 0 0 1 0 0)" d="M154.44 393.68L318.48 393.68L318.48 393.68L318.48 352.28L318.48 352.28L154.44 352.28z" /></clipPath><clipPath id="64"><path id="" clip-rule="evenodd" transform="matrix(1 0 0 1 0 0)" d="M154.44 393.68L318.48 393.68L318.48 393.68L318.48 352.28L318.48 352.28L154.44 352.28z" /></clipPath><clipPath id="65"><path id="" clip-rule="evenodd" transform="matrix(1 0 0 1 0 0)" d="M318.96 393.68L518.28 393.68L518.28 393.68L518.28 352.28L518.28 352.28L318.96 352.28z" /></clipPath><clipPath id="66"><path id="" clip-rule="evenodd" transform="matrix(1 0 0 1 0 0)" d="M518.76 483.68L559.56 483.68L559.56 483.68L559.56 101.12L559.56 101.12L518.76 101.12z" /></clipPath><clipPath id="67"><path id="" clip-rule="evenodd" transform="matrix(1 0 0 1 0 0)" d="M518.76 483.68L559.56 483.68L559.56 483.68L559.56 101.12L559.56 101.12L518.76 101.12z" /></clipPath><clipPath id="68"><path id="" clip-rule="evenodd" transform="matrix(1 0 0 1 0 0)" d="M36 801.68L56.16 801.68L56.16 801.68L56.16 483.68L56.16 483.68L36 483.68z" /></clipPath><clipPath id="69"><path id="" clip-rule="evenodd" transform="matrix(1 0 0 1 0 0)" d="M56.16 801.68L77.16 801.68L77.16 801.68L77.16 483.68L77.16 483.68L56.16 483.68z" /></clipPath><clipPath id="70"><path id="" clip-rule="evenodd" transform="matrix(1 0 0 1 0 0)" d="M56.16 801.68L77.16 801.68L77.16 801.68L77.16 483.68L77.16 483.68L56.16 483.68z" /></clipPath><clipPath id="71"><path id="" clip-rule="evenodd" transform="matrix(1 0 0 1 0 0)" d="M77.16 801.68L518.76 801.68L518.76 801.68L518.76 483.68L518.76 483.68L77.16 483.68z" /></clipPath><clipPath id="72"><path id="" clip-rule="evenodd" transform="matrix(1 0 0 1 0 0)" d="M77.16 801.68L518.76 801.68L518.76 801.68L518.76 483.68L518.76 483.68L77.16 483.68z" /></clipPath><clipPath id="73"><path id="" clip-rule="evenodd" transform="matrix(1 0 0 1 0 0)" d="M77.16 801.68L518.76 801.68L518.76 801.68L518.76 483.68L518.76 483.68L77.16 483.68z" /></clipPath><clipPath id="74"><path id="" clip-rule="evenodd" transform="matrix(1 0 0 1 0 0)" d="M77.16 801.68L518.76 801.68L518.76 801.68L518.76 483.68L518.76 483.68L77.16 483.68z" /></clipPath><clipPath id="75"><path id="" clip-rule="evenodd" transform="matrix(1 0 0 1 0 0)" d="M77.16 801.68L518.76 801.68L518.76 801.68L518.76 483.68L518.76 483.68L77.16 483.68z" /></clipPath><clipPath id="76"><path id="" clip-rule="evenodd" transform="matrix(1 0 0 1 0 0)" d="M77.16 801.68L518.76 801.68L518.76 801.68L518.76 483.68L518.76 483.68L77.16 483.68z" /></clipPath><clipPath id="77"><path id="" clip-rule="evenodd" transform="matrix(1 0 0 1 0 0)" d="M518.76 801.68L559.56 801.68L559.56 801.68L559.56 483.68L559.56 483.68L518.76 483.68z" /></clipPath><clipPath id="78"><path id="" clip-rule="evenodd" transform="matrix(1 0 0 1 0 0)" d="M518.76 801.68L559.56 801.68L559.56 801.68L559.56 483.68L559.56 483.68L518.76 483.68z" /></clipPath></defs><g transform="matrix(1.333333 0 0 1.333333 0 0)"><g clip-path="url(#1)"><g clip-path="url(#2)"></g><g clip-path="url(#3)"></g><g clip-path="url(#4)"></g><g clip-path="url(#5)"></g><g clip-path="url(#6)"></g><g clip-path="url(#7)"></g><g clip-path="url(#8)"></g><g clip-path="url(#9)"></g><g clip-path="url(#10)"></g><g clip-path="url(#11)"></g><g clip-path="url(#12)"></g><g clip-path="url(#13)"></g><g clip-path="url(#14)"></g><g clip-path="url(#15)"></g><g clip-path="url(#16)"></g><g clip-path="url(#17)"></g><g clip-path="url(#18)"></g><g clip-path="url(#19)"></g><g clip-path="url(#20)"></g><g clip-path="url(#21)"></g><g clip-path="url(#22)"></g><g clip-path="url(#23)"></g><g clip-path="url(#24)"></g><g clip-path="url(#25)"></g><path id="182" transform="matrix(1 0 0 -1 0 842)" d="M77.16 713.52L77.64101 713.52L77.64101 714L77.16 714z" stroke="none" fill="#BFBFBF" fill-rule="nonzero" /><path id="183" transform="matrix(1 0 0 -1 0 842)" d="M77.16 713.52L77.64101 713.52L77.64101 714L77.16 714z" stroke="none" fill="#BFBFBF" fill-rule="nonzero" /><path id="184" transform="matrix(1 0 0 -1 0 842)" d="M77.64 713.52L153.96 713.52L153.96 714L77.64 714z" stroke="none" fill="#BFBFBF" fill-rule="nonzero" /><path id="185" transform="matrix(1 0 0 -1 0 842)" d="M153.96 713.52L154.44 713.52L154.44 714L153.96 714z" stroke="none" fill="#BFBFBF" fill-rule="nonzero" /><path id="186" transform="matrix(1 0 0 -1 0 842)" d="M154.44 713.52L318.48 713.52L318.48 714L154.44 714z" stroke="none" fill="#BFBFBF" fill-rule="nonzero" /><path id="187" transform="matrix(1 0 0 -1 0 842)" d="M318.48 713.52L318.96 713.52L318.96 714L318.48 714z" stroke="none" fill="#BFBFBF" fill-rule="nonzero" /><path id="188" transform="matrix(1 0 0 -1 0 842)" d="M318.96 713.52L518.4 713.52L518.4 714L318.96 714z" stroke="none" fill="#BFBFBF" fill-rule="nonzero" /><path id="189" transform="matrix(1 0 0 -1 0 842)" d="M518.4 713.52L518.76 713.52L518.76 714L518.4 714z" stroke="none" fill="#BFBFBF" fill-rule="nonzero" /><path id="190" transform="matrix(1 0 0 -1 0 842)" d="M518.4 713.52L518.76 713.52L518.76 714L518.4 714z" stroke="none" fill="#BFBFBF" fill-rule="nonzero" /><path id="191" transform="matrix(1 0 0 -1 0 842)" d="M77.16 699.72L77.64101 699.72L77.64101 713.52L77.16 713.52z" stroke="none" fill="#BFBFBF" fill-rule="nonzero" /><path id="192" transform="matrix(1 0 0 -1 0 842)" d="M153.96 699.72L154.44 699.72L154.44 713.52L153.96 713.52z" stroke="none" fill="#BFBFBF" fill-rule="nonzero" /><path id="193" transform="matrix(1 0 0 -1 0 842)" d="M318.48 699.72L318.96 699.72L318.96 713.52L318.48 713.52z" stroke="none" fill="#BFBFBF" fill-rule="nonzero" /><path id="194" transform="matrix(1 0 0 -1 0 842)" d="M518.4 699.72L518.76 699.72L518.76 713.52L518.4 713.52z" stroke="none" fill="#BFBFBF" fill-rule="nonzero" /><path id="195" transform="matrix(1 0 0 -1 0 842)" d="M77.64 657.84L153.96 657.84L153.96 699.2401L77.64 699.2401z" stroke="none" fill="#F2F2F2" fill-rule="nonzero" /><path id="196" transform="matrix(1 0 0 -1 0 842)" d="M82.8 685.44L148.8 685.44L148.8 699.24L82.8 699.24z" stroke="none" fill="#F2F2F2" fill-rule="nonzero" /><g clip-path="url(#26)"></g><g clip-path="url(#27)"></g><path id="202" transform="matrix(1 0 0 -1 0 842)" d="M154.44 657.84L318.48 657.84L318.48 657.84L318.48 699.2401L318.48 699.2401L154.44 699.2401z" stroke="none" fill="#F2F2F2" fill-rule="evenodd" /><path id="203" transform="matrix(1 0 0 -1 0 842)" d="M159.6 685.44L313.32 685.44L313.32 699.24L159.6 699.24z" stroke="none" fill="#F2F2F2" fill-rule="nonzero" /><g clip-path="url(#28)"></g><path id="230" transform="matrix(1 0 0 -1 0 842)" d="M159.6 671.64L313.32 671.64L313.32 671.64L313.32 685.44L313.32 685.44L159.6 685.44z" stroke="none" fill="#F2F2F2" fill-rule="evenodd" /><path id="255" transform="matrix(1 0 0 -1 0 842)" d="M159.6 657.84L313.32 657.84L313.32 671.6411L159.6 671.6411z" stroke="none" fill="#F2F2F2" fill-rule="nonzero" /><g clip-path="url(#29)"></g><g clip-path="url(#30)"></g><path id="272" transform="matrix(1 0 0 -1 0 842)" d="M318.96 657.84L518.28 657.84L518.28 699.2401L318.96 699.2401z" stroke="none" fill="#F2F2F2" fill-rule="nonzero" /><path id="273" transform="matrix(1 0 0 -1 0 842)" d="M324.12 685.44L513.12 685.44L513.12 699.24L324.12 699.24z" stroke="none" fill="#F2F2F2" fill-rule="nonzero" /><g clip-path="url(#31)"></g><path id="308" transform="matrix(1 0 0 -1 0 842)" d="M324.12 671.64L513.12 671.64L513.12 671.64L513.12 685.44L513.12 685.44L324.12 685.44z" stroke="none" fill="#F2F2F2" fill-rule="evenodd" /><path id="335" transform="matrix(1 0 0 -1 0 842)" d="M77.16 699.24L77.64101 699.24L77.64101 699.721L77.16 699.721z" stroke="none" fill="#BFBFBF" fill-rule="nonzero" /><path id="336" transform="matrix(1 0 0 -1 0 842)" d="M77.64 699.24L153.96 699.24L153.96 699.721L77.64 699.721z" stroke="none" fill="#BFBFBF" fill-rule="nonzero" /><path id="337" transform="matrix(1 0 0 -1 0 842)" d="M153.96 699.24L154.44 699.24L154.44 699.721L153.96 699.721z" stroke="none" fill="#BFBFBF" fill-rule="nonzero" /><path id="338" transform="matrix(1 0 0 -1 0 842)" d="M154.44 699.24L318.48 699.24L318.48 699.721L154.44 699.721z" stroke="none" fill="#BFBFBF" fill-rule="nonzero" /><path id="339" transform="matrix(1 0 0 -1 0 842)" d="M318.48 699.24L318.96 699.24L318.96 699.721L318.48 699.721z" stroke="none" fill="#BFBFBF" fill-rule="nonzero" /><path id="340" transform="matrix(1 0 0 -1 0 842)" d="M318.96 699.24L518.4 699.24L518.4 699.721L318.96 699.721z" stroke="none" fill="#BFBFBF" fill-rule="nonzero" /><path id="341" transform="matrix(1 0 0 -1 0 842)" d="M518.4 699.24L518.76 699.24L518.76 699.721L518.4 699.721z" stroke="none" fill="#BFBFBF" fill-rule="nonzero" /><path id="342" transform="matrix(1 0 0 -1 0 842)" d="M77.16 657.84L77.64101 657.84L77.64101 699.2401L77.16 699.2401z" stroke="none" fill="#BFBFBF" fill-rule="nonzero" /><path id="343" transform="matrix(1 0 0 -1 0 842)" d="M153.96 657.84L154.44 657.84L154.44 699.2401L153.96 699.2401z" stroke="none" fill="#BFBFBF" fill-rule="nonzero" /><path id="344" transform="matrix(1 0 0 -1 0 842)" d="M318.48 657.84L318.96 657.84L318.96 699.2401L318.48 699.2401z" stroke="none" fill="#BFBFBF" fill-rule="nonzero" /><path id="345" transform="matrix(1 0 0 -1 0 842)" d="M518.4 657.84L518.76 657.84L518.76 699.2401L518.4 699.2401z" stroke="none" fill="#BFBFBF" fill-rule="nonzero" /><g clip-path="url(#32)"></g><g clip-path="url(#33)"></g><g clip-path="url(#34)"></g><g clip-path="url(#35)"></g><g clip-path="url(#36)"></g><g clip-path="url(#37)"></g><path id="459" transform="matrix(1 0 0 -1 0 842)" d="M77.16 657.36L77.64101 657.36L77.64101 657.84L77.16 657.84z" stroke="none" fill="#BFBFBF" fill-rule="nonzero" /><path id="460" transform="matrix(1 0 0 -1 0 842)" d="M77.64 657.36L153.96 657.36L153.96 657.84L77.64 657.84z" stroke="none" fill="#BFBFBF" fill-rule="nonzero" /><path id="461" transform="matrix(1 0 0 -1 0 842)" d="M153.96 657.36L154.44 657.36L154.44 657.84L153.96 657.84z" stroke="none" fill="#BFBFBF" fill-rule="nonzero" /><path id="462" transform="matrix(1 0 0 -1 0 842)" d="M154.44 657.36L318.48 657.36L318.48 657.84L154.44 657.84z" stroke="none" fill="#BFBFBF" fill-rule="nonzero" /><path id="463" transform="matrix(1 0 0 -1 0 842)" d="M318.48 657.36L318.96 657.36L318.96 657.84L318.48 657.84z" stroke="none" fill="#BFBFBF" fill-rule="nonzero" /><path id="464" transform="matrix(1 0 0 -1 0 842)" d="M318.96 657.36L518.4 657.36L518.4 657.84L318.96 657.84z" stroke="none" fill="#BFBFBF" fill-rule="nonzero" /><path id="465" transform="matrix(1 0 0 -1 0 842)" d="M518.4 657.36L518.76 657.36L518.76 657.84L518.4 657.84z" stroke="none" fill="#BFBFBF" fill-rule="nonzero" /><path id="466" transform="matrix(1 0 0 -1 0 842)" d="M77.16 615.96L77.64101 615.96L77.64101 657.36L77.16 657.36z" stroke="none" fill="#BFBFBF" fill-rule="nonzero" /><path id="467" transform="matrix(1 0 0 -1 0 842)" d="M153.96 615.96L154.44 615.96L154.44 657.36L153.96 657.36z" stroke="none" fill="#BFBFBF" fill-rule="nonzero" /><path id="468" transform="matrix(1 0 0 -1 0 842)" d="M318.48 615.96L318.96 615.96L318.96 657.36L318.48 657.36z" stroke="none" fill="#BFBFBF" fill-rule="nonzero" /><path id="469" transform="matrix(1 0 0 -1 0 842)" d="M518.4 615.96L518.76 615.96L518.76 657.36L518.4 657.36z" stroke="none" fill="#BFBFBF" fill-rule="nonzero" /><path id="470" transform="matrix(1 0 0 -1 0 842)" d="M77.64 587.88L153.96 587.88L153.96 615.48L77.64 615.48z" stroke="none" fill="#F2F2F2" fill-rule="nonzero" /><path id="471" transform="matrix(1 0 0 -1 0 842)" d="M82.8 601.68L148.8 601.68L148.8 615.481L82.8 615.481z" stroke="none" fill="#F2F2F2" fill-rule="nonzero" /><g clip-path="url(#38)"></g><g clip-path="url(#39)"></g><path id="480" transform="matrix(1 0 0 -1 0 842)" d="M154.44 587.88L318.48 587.88L318.48 587.88L318.48 615.48L318.48 615.48L154.44 615.48z" stroke="none" fill="#F2F2F2" fill-rule="evenodd" /><path id="481" transform="matrix(1 0 0 -1 0 842)" d="M159.6 601.68L313.32 601.68L313.32 615.481L159.6 615.481z" stroke="none" fill="#F2F2F2" fill-rule="nonzero" /><g clip-path="url(#40)"></g><path id="508" transform="matrix(1 0 0 -1 0 842)" d="M159.6 587.88L313.32 587.88L313.32 601.68L159.6 601.68z" stroke="none" fill="#F2F2F2" fill-rule="nonzero" /><g clip-path="url(#41)"></g><g clip-path="url(#42)"></g><path id="526" transform="matrix(1 0 0 -1 0 842)" d="M318.96 587.88L518.28 587.88L518.28 615.48L318.96 615.48z" stroke="none" fill="#F2F2F2" fill-rule="nonzero" /><path id="527" transform="matrix(1 0 0 -1 0 842)" d="M324.12 601.68L513.12 601.68L513.12 615.481L324.12 615.481z" stroke="none" fill="#F2F2F2" fill-rule="nonzero" /><g clip-path="url(#43)"></g><path id="557" transform="matrix(1 0 0 -1 0 842)" d="M324.12 587.88L513.12 587.88L513.12 601.68L324.12 601.68z" stroke="none" fill="#F2F2F2" fill-rule="nonzero" /><g clip-path="url(#44)"></g><g clip-path="url(#45)"></g><g clip-path="url(#46)"></g><path id="579" transform="matrix(1 0 0 -1 0 842)" d="M77.16 615.48L77.64101 615.48L77.64101 615.96L77.16 615.96z" stroke="none" fill="#BFBFBF" fill-rule="nonzero" /><path id="580" transform="matrix(1 0 0 -1 0 842)" d="M77.64 615.48L153.96 615.48L153.96 615.96L77.64 615.96z" stroke="none" fill="#BFBFBF" fill-rule="nonzero" /><path id="581" transform="matrix(1 0 0 -1 0 842)" d="M153.96 615.48L154.44 615.48L154.44 615.96L153.96 615.96z" stroke="none" fill="#BFBFBF" fill-rule="nonzero" /><path id="582" transform="matrix(1 0 0 -1 0 842)" d="M154.44 615.48L318.48 615.48L318.48 615.96L154.44 615.96z" stroke="none" fill="#BFBFBF" fill-rule="nonzero" /><path id="583" transform="matrix(1 0 0 -1 0 842)" d="M318.48 615.48L318.96 615.48L318.96 615.96L318.48 615.96z" stroke="none" fill="#BFBFBF" fill-rule="nonzero" /><path id="584" transform="matrix(1 0 0 -1 0 842)" d="M318.96 615.48L518.4 615.48L518.4 615.96L318.96 615.96z" stroke="none" fill="#BFBFBF" fill-rule="nonzero" /><path id="585" transform="matrix(1 0 0 -1 0 842)" d="M518.4 615.48L518.76 615.48L518.76 615.96L518.4 615.96z" stroke="none" fill="#BFBFBF" fill-rule="nonzero" /><path id="586" transform="matrix(1 0 0 -1 0 842)" d="M77.16 587.88L77.64101 587.88L77.64101 615.48L77.16 615.48z" stroke="none" fill="#BFBFBF" fill-rule="nonzero" /><path id="587" transform="matrix(1 0 0 -1 0 842)" d="M153.96 587.88L154.44 587.88L154.44 615.48L153.96 615.48z" stroke="none" fill="#BFBFBF" fill-rule="nonzero" /><path id="588" transform="matrix(1 0 0 -1 0 842)" d="M318.48 587.88L318.96 587.88L318.96 615.48L318.48 615.48z" stroke="none" fill="#BFBFBF" fill-rule="nonzero" /><path id="589" transform="matrix(1 0 0 -1 0 842)" d="M518.4 587.88L518.76 587.88L518.76 615.48L518.4 615.48z" stroke="none" fill="#BFBFBF" fill-rule="nonzero" /><g clip-path="url(#47)"></g><g clip-path="url(#48)"></g><g clip-path="url(#49)"></g><g clip-path="url(#50)"></g><g clip-path="url(#51)"></g><path id="734" transform="matrix(1 0 0 -1 0 842)" d="M77.16 587.4L77.64101 587.4L77.64101 587.88L77.16 587.88z" stroke="none" fill="#BFBFBF" fill-rule="nonzero" /><path id="735" transform="matrix(1 0 0 -1 0 842)" d="M77.64 587.4L153.96 587.4L153.96 587.88L77.64 587.88z" stroke="none" fill="#BFBFBF" fill-rule="nonzero" /><path id="736" transform="matrix(1 0 0 -1 0 842)" d="M153.96 587.4L154.44 587.4L154.44 587.88L153.96 587.88z" stroke="none" fill="#BFBFBF" fill-rule="nonzero" /><path id="737" transform="matrix(1 0 0 -1 0 842)" d="M154.44 587.4L318.48 587.4L318.48 587.88L154.44 587.88z" stroke="none" fill="#BFBFBF" fill-rule="nonzero" /><path id="738" transform="matrix(1 0 0 -1 0 842)" d="M318.48 587.4L318.96 587.4L318.96 587.88L318.48 587.88z" stroke="none" fill="#BFBFBF" fill-rule="nonzero" /><path id="739" transform="matrix(1 0 0 -1 0 842)" d="M318.96 587.4L518.4 587.4L518.4 587.88L318.96 587.88z" stroke="none" fill="#BFBFBF" fill-rule="nonzero" /><path id="740" transform="matrix(1 0 0 -1 0 842)" d="M518.4 587.4L518.76 587.4L518.76 587.88L518.4 587.88z" stroke="none" fill="#BFBFBF" fill-rule="nonzero" /><path id="741" transform="matrix(1 0 0 -1 0 842)" d="M77.16 532.2L77.64101 532.2L77.64101 587.401L77.16 587.401z" stroke="none" fill="#BFBFBF" fill-rule="nonzero" /><path id="742" transform="matrix(1 0 0 -1 0 842)" d="M153.96 532.2L154.44 532.2L154.44 587.401L153.96 587.401z" stroke="none" fill="#BFBFBF" fill-rule="nonzero" /><path id="743" transform="matrix(1 0 0 -1 0 842)" d="M318.48 532.2L318.96 532.2L318.96 587.401L318.48 587.401z" stroke="none" fill="#BFBFBF" fill-rule="nonzero" /><path id="744" transform="matrix(1 0 0 -1 0 842)" d="M518.4 532.2L518.76 532.2L518.76 587.401L518.4 587.401z" stroke="none" fill="#BFBFBF" fill-rule="nonzero" /><path id="745" transform="matrix(1 0 0 -1 0 842)" d="M77.64 490.2L153.96 490.2L153.96 531.6L77.64 531.6z" stroke="none" fill="#F2F2F2" fill-rule="nonzero" /><path id="746" transform="matrix(1 0 0 -1 0 842)" d="M82.8 517.8L148.8 517.8L148.8 531.601L82.8 531.601z" stroke="none" fill="#F2F2F2" fill-rule="nonzero" /><g clip-path="url(#52)"></g><path id="757" transform="matrix(1 0 0 -1 0 842)" d="M82.8 504L148.8 504L148.8 504L148.8 517.8L148.8 517.8L82.8 517.8z" stroke="none" fill="#F2F2F2" fill-rule="evenodd" /><path id="768" transform="matrix(1 0 0 -1 0 842)" d="M154.44 490.2L318.48 490.2L318.48 490.2L318.48 531.6L318.48 531.6L154.44 531.6z" stroke="none" fill="#F2F2F2" fill-rule="evenodd" /><path id="769" transform="matrix(1 0 0 -1 0 842)" d="M159.6 517.8L313.32 517.8L313.32 531.601L159.6 531.601z" stroke="none" fill="#F2F2F2" fill-rule="nonzero" /><g clip-path="url(#53)"></g><path id="796" transform="matrix(1 0 0 -1 0 842)" d="M159.6 504L313.32 504L313.32 504L313.32 517.8L313.32 517.8L159.6 517.8z" stroke="none" fill="#F2F2F2" fill-rule="evenodd" /><path id="821" transform="matrix(1 0 0 -1 0 842)" d="M159.6 490.2L313.32 490.2L313.32 504L159.6 504z" stroke="none" fill="#F2F2F2" fill-rule="nonzero" /><g clip-path="url(#54)"></g><g clip-path="url(#55)"></g><path id="831" transform="matrix(1 0 0 -1 0 842)" d="M318.96 490.2L518.28 490.2L518.28 531.6L318.96 531.6z" stroke="none" fill="#F2F2F2" fill-rule="nonzero" /><path id="832" transform="matrix(1 0 0 -1 0 842)" d="M324.12 517.8L513.12 517.8L513.12 531.601L324.12 531.601z" stroke="none" fill="#F2F2F2" fill-rule="nonzero" /><g clip-path="url(#56)"></g><path id="862" transform="matrix(1 0 0 -1 0 842)" d="M324.12 504L513.12 504L513.12 504L513.12 517.8L513.12 517.8L324.12 517.8z" stroke="none" fill="#F2F2F2" fill-rule="evenodd" /><path id="894" transform="matrix(1 0 0 -1 0 842)" d="M324.12 490.2L513.12 490.2L513.12 504L324.12 504z" stroke="none" fill="#F2F2F2" fill-rule="nonzero" /><g clip-path="url(#57)"></g><g clip-path="url(#58)"></g><g clip-path="url(#59)"></g><g clip-path="url(#60)"></g><path id="913" transform="matrix(1 0 0 -1 0 842)" d="M77.16 531.72L77.64101 531.72L77.64101 532.2L77.16 532.2z" stroke="none" fill="#BFBFBF" fill-rule="nonzero" /><path id="914" transform="matrix(1 0 0 -1 0 842)" d="M77.64 531.72L153.96 531.72L153.96 532.2L77.64 532.2z" stroke="none" fill="#BFBFBF" fill-rule="nonzero" /><path id="915" transform="matrix(1 0 0 -1 0 842)" d="M153.96 531.72L154.44 531.72L154.44 532.2L153.96 532.2z" stroke="none" fill="#BFBFBF" fill-rule="nonzero" /><path id="916" transform="matrix(1 0 0 -1 0 842)" d="M154.44 531.72L318.48 531.72L318.48 532.2L154.44 532.2z" stroke="none" fill="#BFBFBF" fill-rule="nonzero" /><path id="917" transform="matrix(1 0 0 -1 0 842)" d="M318.48 531.72L318.96 531.72L318.96 532.2L318.48 532.2z" stroke="none" fill="#BFBFBF" fill-rule="nonzero" /><path id="918" transform="matrix(1 0 0 -1 0 842)" d="M318.96 531.72L518.4 531.72L518.4 532.2L318.96 532.2z" stroke="none" fill="#BFBFBF" fill-rule="nonzero" /><path id="919" transform="matrix(1 0 0 -1 0 842)" d="M518.4 531.72L518.76 531.72L518.76 532.2L518.4 532.2z" stroke="none" fill="#BFBFBF" fill-rule="nonzero" /><path id="920" transform="matrix(1 0 0 -1 0 842)" d="M77.16 490.2L77.64101 490.2L77.64101 531.72L77.16 531.72z" stroke="none" fill="#BFBFBF" fill-rule="nonzero" /><path id="921" transform="matrix(1 0 0 -1 0 842)" d="M153.96 490.2L154.44 490.2L154.44 531.72L153.96 531.72z" stroke="none" fill="#BFBFBF" fill-rule="nonzero" /><path id="922" transform="matrix(1 0 0 -1 0 842)" d="M318.48 490.2L318.96 490.2L318.96 531.72L318.48 531.72z" stroke="none" fill="#BFBFBF" fill-rule="nonzero" /><path id="923" transform="matrix(1 0 0 -1 0 842)" d="M518.4 490.2L518.76 490.2L518.76 531.72L518.4 531.72z" stroke="none" fill="#BFBFBF" fill-rule="nonzero" /><g clip-path="url(#61)"></g><g clip-path="url(#62)"></g><g clip-path="url(#63)"></g><g clip-path="url(#64)"></g><g clip-path="url(#65)"></g><path id="1065" transform="matrix(1 0 0 -1 0 842)" d="M77.16 489.72L77.64101 489.72L77.64101 490.201L77.16 490.201z" stroke="none" fill="#BFBFBF" fill-rule="nonzero" /><path id="1066" transform="matrix(1 0 0 -1 0 842)" d="M77.64 489.72L153.96 489.72L153.96 490.201L77.64 490.201z" stroke="none" fill="#BFBFBF" fill-rule="nonzero" /><path id="1067" transform="matrix(1 0 0 -1 0 842)" d="M153.96 489.72L154.44 489.72L154.44 490.201L153.96 490.201z" stroke="none" fill="#BFBFBF" fill-rule="nonzero" /><path id="1068" transform="matrix(1 0 0 -1 0 842)" d="M154.44 489.72L318.48 489.72L318.48 490.201L154.44 490.201z" stroke="none" fill="#BFBFBF" fill-rule="nonzero" /><path id="1069" transform="matrix(1 0 0 -1 0 842)" d="M318.48 489.72L318.96 489.72L318.96 490.201L318.48 490.201z" stroke="none" fill="#BFBFBF" fill-rule="nonzero" /><path id="1070" transform="matrix(1 0 0 -1 0 842)" d="M318.96 489.72L518.4 489.72L518.4 490.201L318.96 490.201z" stroke="none" fill="#BFBFBF" fill-rule="nonzero" /><path id="1071" transform="matrix(1 0 0 -1 0 842)" d="M518.4 489.72L518.76 489.72L518.76 490.201L518.4 490.201z" stroke="none" fill="#BFBFBF" fill-rule="nonzero" /><path id="1072" transform="matrix(1 0 0 -1 0 842)" d="M77.16 448.32L77.64101 448.32L77.64101 489.72L77.16 489.72z" stroke="none" fill="#BFBFBF" fill-rule="nonzero" /><path id="1073" transform="matrix(1 0 0 -1 0 842)" d="M77.16 447.84L77.64101 447.84L77.64101 448.32L77.16 448.32z" stroke="none" fill="#BFBFBF" fill-rule="nonzero" /><path id="1074" transform="matrix(1 0 0 -1 0 842)" d="M77.16 447.84L77.64101 447.84L77.64101 448.32L77.16 448.32z" stroke="none" fill="#BFBFBF" fill-rule="nonzero" /><path id="1075" transform="matrix(1 0 0 -1 0 842)" d="M77.64 447.84L153.96 447.84L153.96 448.32L77.64 448.32z" stroke="none" fill="#BFBFBF" fill-rule="nonzero" /><path id="1076" transform="matrix(1 0 0 -1 0 842)" d="M153.96 448.32L154.44 448.32L154.44 489.72L153.96 489.72z" stroke="none" fill="#BFBFBF" fill-rule="nonzero" /><path id="1077" transform="matrix(1 0 0 -1 0 842)" d="M153.96 447.84L154.44 447.84L154.44 448.32L153.96 448.32z" stroke="none" fill="#BFBFBF" fill-rule="nonzero" /><path id="1078" transform="matrix(1 0 0 -1 0 842)" d="M154.44 447.84L318.48 447.84L318.48 448.32L154.44 448.32z" stroke="none" fill="#BFBFBF" fill-rule="nonzero" /><path id="1079" transform="matrix(1 0 0 -1 0 842)" d="M318.48 448.32L318.96 448.32L318.96 489.72L318.48 489.72z" stroke="none" fill="#BFBFBF" fill-rule="nonzero" /><path id="1080" transform="matrix(1 0 0 -1 0 842)" d="M318.48 447.84L318.96 447.84L318.96 448.32L318.48 448.32z" stroke="none" fill="#BFBFBF" fill-rule="nonzero" /><path id="1081" transform="matrix(1 0 0 -1 0 842)" d="M318.96 447.84L518.4 447.84L518.4 448.32L318.96 448.32z" stroke="none" fill="#BFBFBF" fill-rule="nonzero" /><path id="1082" transform="matrix(1 0 0 -1 0 842)" d="M518.4 448.32L518.76 448.32L518.76 489.72L518.4 489.72z" stroke="none" fill="#BFBFBF" fill-rule="nonzero" /><path id="1083" transform="matrix(1 0 0 -1 0 842)" d="M518.4 447.84L518.76 447.84L518.76 448.32L518.4 448.32z" stroke="none" fill="#BFBFBF" fill-rule="nonzero" /><path id="1084" transform="matrix(1 0 0 -1 0 842)" d="M518.4 447.84L518.76 447.84L518.76 448.32L518.4 448.32z" stroke="none" fill="#BFBFBF" fill-rule="nonzero" /><g clip-path="url(#66)"></g><g clip-path="url(#67)"></g><g clip-path="url(#68)"></g><g clip-path="url(#69)"></g><g clip-path="url(#70)"></g><g clip-path="url(#71)"></g><g clip-path="url(#72)"></g><g clip-path="url(#73)"></g><g clip-path="url(#74)"></g><g clip-path="url(#75)"></g><g clip-path="url(#76)"></g><g clip-path="url(#77)"></g><g clip-path="url(#78)"></g></g></g></svg>