<svg xmlns="http://www.w3.org/2000/svg" xmlns:xlink="http://www.w3.org/1999/xlink" id="body_6" preserveAspectRatio="xMinYMin meet" viewBox="0 0 793 1123"><defs><clipPath id="1"><path id="" clip-rule="evenodd" transform="matrix(1 0 0 1 0 0)" d="M0 842L0 -0.03997803L0 -0.03997803L595.56 -0.03997803L595.56 -0.03997803L595.56 842L595.56 842L0 842z" /></clipPath><clipPath id="2"><path id="" clip-rule="evenodd" transform="matrix(1 0 0 1 0 0)" d="M529.44 806.48L541.919 806.48L541.919 806.48L541.919 792.32L541.919 792.32L529.44 792.32z" /></clipPath><clipPath id="3"><path id="" clip-rule="evenodd" transform="matrix(1 0 0 1 0 0)" d="M529.44 806.48L541.919 806.48L541.919 806.48L541.919 792.32L541.919 792.32L529.44 792.32z" /></clipPath><clipPath id="4"><path id="" clip-rule="evenodd" transform="matrix(1 0 0 1 0 0)" d="M85.8 394.16L531.241 394.16L531.241 394.16L531.241 35.95996L531.241 35.95996L85.8 35.95996z" /></clipPath><clipPath id="5"><path id="" clip-rule="evenodd" transform="matrix(1 0 0 1 0 0)" d="M85.8 394.16L531.241 394.16L531.241 394.16L531.241 35.95996L531.241 35.95996L85.8 35.95996z" /></clipPath><clipPath id="6"><path id="" clip-rule="evenodd" transform="matrix(1 0 0 1 0 0)" d="M85.8 394.16L531.241 394.16L531.241 394.16L531.241 35.95996L531.241 35.95996L85.8 35.95996z" /></clipPath><clipPath id="7"><path id="" clip-rule="evenodd" transform="matrix(1 0 0 1 0 0)" d="M85.8 394.16L531.241 394.16L531.241 394.16L531.241 35.95996L531.241 35.95996L85.8 35.95996z" /></clipPath><clipPath id="8"><path id="" clip-rule="evenodd" transform="matrix(1 0 0 1 0 0)" d="M85.8 394.16L531.241 394.16L531.241 394.16L531.241 35.95996L531.241 35.95996L85.8 35.95996z" /></clipPath><clipPath id="9"><path id="" clip-rule="evenodd" transform="matrix(1 0 0 1 0 0)" d="M36 800.84L58.8 800.84L58.8 800.84L58.8 394.16L58.8 394.16L36 394.16z" /></clipPath><clipPath id="10"><path id="" clip-rule="evenodd" transform="matrix(1 0 0 1 0 0)" d="M58.8 800.84L85.8 800.84L85.8 800.84L85.8 394.16L85.8 394.16L58.8 394.16z" /></clipPath><clipPath id="11"><path id="" clip-rule="evenodd" transform="matrix(1 0 0 1 0 0)" d="M58.8 800.84L85.8 800.84L85.8 800.84L85.8 394.16L85.8 394.16L58.8 394.16z" /></clipPath><clipPath id="12"><path id="" clip-rule="evenodd" transform="matrix(1 0 0 1 0 0)" d="M85.8 800.84L531.241 800.84L531.241 800.84L531.241 394.16L531.241 394.16L85.8 394.16z" /></clipPath><clipPath id="13"><path id="" clip-rule="evenodd" transform="matrix(1 0 0 1 0 0)" d="M85.8 800.84L531.241 800.84L531.241 800.84L531.241 394.16L531.241 394.16L85.8 394.16z" /></clipPath><clipPath id="14"><path id="" clip-rule="evenodd" transform="matrix(1 0 0 1 0 0)" d="M85.8 800.84L531.241 800.84L531.241 800.84L531.241 394.16L531.241 394.16L85.8 394.16z" /></clipPath><clipPath id="15"><path id="" clip-rule="evenodd" transform="matrix(1 0 0 1 0 0)" d="M85.8 800.84L531.241 800.84L531.241 800.84L531.241 394.16L531.241 394.16L85.8 394.16z" /></clipPath><clipPath id="16"><path id="" clip-rule="evenodd" transform="matrix(1 0 0 1 0 0)" d="M85.8 800.84L531.241 800.84L531.241 800.84L531.241 394.16L531.241 394.16L85.8 394.16z" /></clipPath><clipPath id="17"><path id="" clip-rule="evenodd" transform="matrix(1 0 0 1 0 0)" d="M85.8 800.84L531.241 800.84L531.241 800.84L531.241 394.16L531.241 394.16L85.8 394.16z" /></clipPath><clipPath id="18"><path id="" clip-rule="evenodd" transform="matrix(1 0 0 1 0 0)" d="M85.8 800.84L531.241 800.84L531.241 800.84L531.241 394.16L531.241 394.16L85.8 394.16z" /></clipPath><clipPath id="19"><path id="" clip-rule="evenodd" transform="matrix(1 0 0 1 0 0)" d="M85.8 800.84L531.241 800.84L531.241 800.84L531.241 394.16L531.241 394.16L85.8 394.16z" /></clipPath><clipPath id="20"><path id="" clip-rule="evenodd" transform="matrix(1 0 0 1 0 0)" d="M85.8 800.84L531.241 800.84L531.241 800.84L531.241 394.16L531.241 394.16L85.8 394.16z" /></clipPath><clipPath id="21"><path id="" clip-rule="evenodd" transform="matrix(1 0 0 1 0 0)" d="M85.8 800.84L531.241 800.84L531.241 800.84L531.241 394.16L531.241 394.16L85.8 394.16z" /></clipPath><clipPath id="22"><path id="" clip-rule="evenodd" transform="matrix(1 0 0 1 0 0)" d="M85.8 800.84L531.241 800.84L531.241 800.84L531.241 394.16L531.241 394.16L85.8 394.16z" /></clipPath><clipPath id="23"><path id="" clip-rule="evenodd" transform="matrix(1 0 0 1 0 0)" d="M85.8 800.84L531.241 800.84L531.241 800.84L531.241 394.16L531.241 394.16L85.8 394.16z" /></clipPath><clipPath id="24"><path id="" clip-rule="evenodd" transform="matrix(1 0 0 1 0 0)" d="M85.8 800.84L531.241 800.84L531.241 800.84L531.241 394.16L531.241 394.16L85.8 394.16z" /></clipPath><clipPath id="25"><path id="" clip-rule="evenodd" transform="matrix(1 0 0 1 0 0)" d="M85.8 800.84L531.241 800.84L531.241 800.84L531.241 394.16L531.241 394.16L85.8 394.16z" /></clipPath><clipPath id="26"><path id="" clip-rule="evenodd" transform="matrix(1 0 0 1 0 0)" d="M85.8 800.84L531.241 800.84L531.241 800.84L531.241 394.16L531.241 394.16L85.8 394.16z" /></clipPath><clipPath id="27"><path id="" clip-rule="evenodd" transform="matrix(1 0 0 1 0 0)" d="M85.8 800.84L531.241 800.84L531.241 800.84L531.241 394.16L531.241 394.16L85.8 394.16z" /></clipPath><clipPath id="28"><path id="" clip-rule="evenodd" transform="matrix(1 0 0 1 0 0)" d="M531.24 800.84L560.04 800.84L560.04 800.84L560.04 394.16L560.04 394.16L531.24 394.16z" /></clipPath><clipPath id="29"><path id="" clip-rule="evenodd" transform="matrix(1 0 0 1 0 0)" d="M531.24 800.84L560.04 800.84L560.04 800.84L560.04 394.16L560.04 394.16L531.24 394.16z" /></clipPath></defs><g transform="matrix(1.333333 0 0 1.333333 0 0)"><g clip-path="url(#1)"><g clip-path="url(#2)"></g><g clip-path="url(#3)"></g><g clip-path="url(#4)"></g><g clip-path="url(#5)"></g><path id="854" transform="matrix(1 0 0 -1 0 842)" d="M85.8 599.04L531.241 599.04L531.241 612.84L85.8 612.84z" stroke="none" fill="#FFFFFF" fill-rule="nonzero" /><g clip-path="url(#6)"></g><path id="895" transform="matrix(1 0 0 -1 0 842)" d="M85.8 585.24L531.241 585.24L531.241 599.04L85.8 599.04z" stroke="none" fill="#FFFFFF" fill-rule="nonzero" /><g clip-path="url(#7)"></g><path id="896" transform="matrix(1 0 0 -1 0 842)" d="M120.36 571.44L531.241 571.44L531.241 585.241L120.36 585.241z" stroke="none" fill="#FFFFFF" fill-rule="nonzero" /><path id="930" transform="matrix(1 0 0 -1 0 842)" d="M120.36 557.64L531.241 557.64L531.241 571.44L120.36 571.44z" stroke="none" fill="#FFFFFF" fill-rule="nonzero" /><path id="972" transform="matrix(1 0 0 -1 0 842)" d="M120.36 543.84L531.241 543.84L531.241 557.64L120.36 557.64z" stroke="none" fill="#FFFFFF" fill-rule="nonzero" /><path id="1011" transform="matrix(1 0 0 -1 0 842)" d="M120.36 530.04L531.241 530.04L531.241 543.841L120.36 543.841z" stroke="none" fill="#FFFFFF" fill-rule="nonzero" /><path id="1071" transform="matrix(1 0 0 -1 0 842)" d="M120.36 516.24L531.241 516.24L531.241 530.04L120.36 530.04z" stroke="none" fill="#FFFFFF" fill-rule="nonzero" /><path id="1132" transform="matrix(1 0 0 -1 0 842)" d="M120.36 502.44L531.241 502.44L531.241 516.24L120.36 516.24z" stroke="none" fill="#FFFFFF" fill-rule="nonzero" /><path id="1173" transform="matrix(1 0 0 -1 0 842)" d="M120.36 487.44L531.241 487.44L531.241 502.44L120.36 502.44z" stroke="none" fill="#FFFFFF" fill-rule="nonzero" /><g clip-path="url(#8)"></g><g clip-path="url(#9)"></g><g clip-path="url(#10)"></g><g clip-path="url(#11)"></g><g clip-path="url(#12)"></g><g clip-path="url(#13)"></g><g clip-path="url(#14)"></g><g clip-path="url(#15)"></g><g clip-path="url(#16)"></g><g clip-path="url(#17)"></g><g clip-path="url(#18)"></g><g clip-path="url(#19)"></g><g clip-path="url(#20)"></g><g clip-path="url(#21)"></g><g clip-path="url(#22)"></g><g clip-path="url(#23)"></g><g clip-path="url(#24)"></g><g clip-path="url(#25)"></g><g clip-path="url(#26)"></g><g clip-path="url(#27)"></g><g clip-path="url(#28)"></g><g clip-path="url(#29)"></g></g></g></svg>