<svg xmlns="http://www.w3.org/2000/svg" xmlns:xlink="http://www.w3.org/1999/xlink" id="body_3" preserveAspectRatio="xMinYMin meet" viewBox="0 0 793 1123"><defs><clipPath id="1"><path id="" clip-rule="evenodd" transform="matrix(1 0 0 1 0 0)" d="M0 842L0 -0.03997803L0 -0.03997803L595.56 -0.03997803L595.56 -0.03997803L595.56 842L595.56 842L0 842z" /></clipPath><clipPath id="2"><path id="" clip-rule="evenodd" transform="matrix(1 0 0 1 0 0)" d="M529.44 806.48L541.919 806.48L541.919 806.48L541.919 792.32L541.919 792.32L529.44 792.32z" /></clipPath><clipPath id="3"><path id="" clip-rule="evenodd" transform="matrix(1 0 0 1 0 0)" d="M529.44 806.48L541.919 806.48L541.919 806.48L541.919 792.32L541.919 792.32L529.44 792.32z" /></clipPath><clipPath id="4"><path id="" clip-rule="evenodd" transform="matrix(1 0 0 1 0 0)" d="M85.8 793.76L531.241 793.76L531.241 793.76L531.241 35.96002L531.241 35.96002L85.8 35.96002z" /></clipPath><clipPath id="5"><path id="" clip-rule="evenodd" transform="matrix(1 0 0 1 0 0)" d="M85.8 793.76L531.241 793.76L531.241 793.76L531.241 35.96002L531.241 35.96002L85.8 35.96002z" /></clipPath><clipPath id="6"><path id="" clip-rule="evenodd" transform="matrix(1 0 0 1 0 0)" d="M85.8 793.76L531.241 793.76L531.241 793.76L531.241 35.96002L531.241 35.96002L85.8 35.96002z" /></clipPath><clipPath id="7"><path id="" clip-rule="evenodd" transform="matrix(1 0 0 1 0 0)" d="M85.8 793.76L531.241 793.76L531.241 793.76L531.241 35.96002L531.241 35.96002L85.8 35.96002z" /></clipPath><clipPath id="8"><path id="" clip-rule="evenodd" transform="matrix(1 0 0 1 0 0)" d="M177.72 647.72L283.2 647.72L283.2 647.72L283.2 634.881L283.2 634.881L177.72 634.881z" /></clipPath><clipPath id="9"><path id="" clip-rule="evenodd" transform="matrix(1 0 0 1 0 0)" d="M177.72 647.72L283.2 647.72L283.2 647.72L283.2 634.881L283.2 634.881L177.72 634.881z" /></clipPath><clipPath id="10"><path id="" clip-rule="evenodd" transform="matrix(1 0 0 1 0 0)" d="M283.8 647.72L319.201 647.72L319.201 647.72L319.201 634.881L319.201 634.881L283.8 634.881z" /></clipPath><clipPath id="11"><path id="" clip-rule="evenodd" transform="matrix(1 0 0 1 0 0)" d="M283.8 647.72L319.201 647.72L319.201 647.72L319.201 634.881L319.201 634.881L283.8 634.881z" /></clipPath><clipPath id="12"><path id="" clip-rule="evenodd" transform="matrix(1 0 0 1 0 0)" d="M319.8 647.72L361.2 647.72L361.2 647.72L361.2 634.881L361.2 634.881L319.8 634.881z" /></clipPath><clipPath id="13"><path id="" clip-rule="evenodd" transform="matrix(1 0 0 1 0 0)" d="M319.8 647.72L361.2 647.72L361.2 647.72L361.2 634.881L361.2 634.881L319.8 634.881z" /></clipPath><clipPath id="14"><path id="" clip-rule="evenodd" transform="matrix(1 0 0 1 0 0)" d="M361.8 647.72L397.2 647.72L397.2 647.72L397.2 634.881L397.2 634.881L361.8 634.881z" /></clipPath><clipPath id="15"><path id="" clip-rule="evenodd" transform="matrix(1 0 0 1 0 0)" d="M361.8 647.72L397.2 647.72L397.2 647.72L397.2 634.881L397.2 634.881L361.8 634.881z" /></clipPath><clipPath id="16"><path id="" clip-rule="evenodd" transform="matrix(1 0 0 1 0 0)" d="M397.8 647.72L439.2 647.72L439.2 647.72L439.2 634.881L439.2 634.881L397.8 634.881z" /></clipPath><clipPath id="17"><path id="" clip-rule="evenodd" transform="matrix(1 0 0 1 0 0)" d="M397.8 647.72L439.2 647.72L439.2 647.72L439.2 634.881L439.2 634.881L397.8 634.881z" /></clipPath><clipPath id="18"><path id="" clip-rule="evenodd" transform="matrix(1 0 0 1 0 0)" d="M177.72 660.92L283.2 660.92L283.2 660.92L283.2 648.2L283.2 648.2L177.72 648.2z" /></clipPath><clipPath id="19"><path id="" clip-rule="evenodd" transform="matrix(1 0 0 1 0 0)" d="M177.72 660.92L283.2 660.92L283.2 660.92L283.2 648.2L283.2 648.2L177.72 648.2z" /></clipPath><clipPath id="20"><path id="" clip-rule="evenodd" transform="matrix(1 0 0 1 0 0)" d="M283.8 660.92L319.201 660.92L319.201 660.92L319.201 648.2L319.201 648.2L283.8 648.2z" /></clipPath><clipPath id="21"><path id="" clip-rule="evenodd" transform="matrix(1 0 0 1 0 0)" d="M283.8 660.92L319.201 660.92L319.201 660.92L319.201 648.2L319.201 648.2L283.8 648.2z" /></clipPath><clipPath id="22"><path id="" clip-rule="evenodd" transform="matrix(1 0 0 1 0 0)" d="M319.8 660.92L361.2 660.92L361.2 660.92L361.2 648.2L361.2 648.2L319.8 648.2z" /></clipPath><clipPath id="23"><path id="" clip-rule="evenodd" transform="matrix(1 0 0 1 0 0)" d="M319.8 660.92L361.2 660.92L361.2 660.92L361.2 648.2L361.2 648.2L319.8 648.2z" /></clipPath><clipPath id="24"><path id="" clip-rule="evenodd" transform="matrix(1 0 0 1 0 0)" d="M361.8 660.92L397.2 660.92L397.2 660.92L397.2 648.2L397.2 648.2L361.8 648.2z" /></clipPath><clipPath id="25"><path id="" clip-rule="evenodd" transform="matrix(1 0 0 1 0 0)" d="M361.8 660.92L397.2 660.92L397.2 660.92L397.2 648.2L397.2 648.2L361.8 648.2z" /></clipPath><clipPath id="26"><path id="" clip-rule="evenodd" transform="matrix(1 0 0 1 0 0)" d="M397.8 660.92L439.2 660.92L439.2 660.92L439.2 648.2L439.2 648.2L397.8 648.2z" /></clipPath><clipPath id="27"><path id="" clip-rule="evenodd" transform="matrix(1 0 0 1 0 0)" d="M397.8 660.92L439.2 660.92L439.2 660.92L439.2 648.2L439.2 648.2L397.8 648.2z" /></clipPath><clipPath id="28"><path id="" clip-rule="evenodd" transform="matrix(1 0 0 1 0 0)" d="M177.72 674.24L283.2 674.24L283.2 674.24L283.2 661.52L283.2 661.52L177.72 661.52z" /></clipPath><clipPath id="29"><path id="" clip-rule="evenodd" transform="matrix(1 0 0 1 0 0)" d="M177.72 674.24L283.2 674.24L283.2 674.24L283.2 661.52L283.2 661.52L177.72 661.52z" /></clipPath><clipPath id="30"><path id="" clip-rule="evenodd" transform="matrix(1 0 0 1 0 0)" d="M283.8 674.24L319.201 674.24L319.201 674.24L319.201 661.52L319.201 661.52L283.8 661.52z" /></clipPath><clipPath id="31"><path id="" clip-rule="evenodd" transform="matrix(1 0 0 1 0 0)" d="M283.8 674.24L319.201 674.24L319.201 674.24L319.201 661.52L319.201 661.52L283.8 661.52z" /></clipPath><clipPath id="32"><path id="" clip-rule="evenodd" transform="matrix(1 0 0 1 0 0)" d="M319.8 674.24L361.2 674.24L361.2 674.24L361.2 661.52L361.2 661.52L319.8 661.52z" /></clipPath><clipPath id="33"><path id="" clip-rule="evenodd" transform="matrix(1 0 0 1 0 0)" d="M319.8 674.24L361.2 674.24L361.2 674.24L361.2 661.52L361.2 661.52L319.8 661.52z" /></clipPath><clipPath id="34"><path id="" clip-rule="evenodd" transform="matrix(1 0 0 1 0 0)" d="M361.8 674.24L397.2 674.24L397.2 674.24L397.2 661.52L397.2 661.52L361.8 661.52z" /></clipPath><clipPath id="35"><path id="" clip-rule="evenodd" transform="matrix(1 0 0 1 0 0)" d="M361.8 674.24L397.2 674.24L397.2 674.24L397.2 661.52L397.2 661.52L361.8 661.52z" /></clipPath><clipPath id="36"><path id="" clip-rule="evenodd" transform="matrix(1 0 0 1 0 0)" d="M397.8 674.24L439.2 674.24L439.2 674.24L439.2 661.52L439.2 661.52L397.8 661.52z" /></clipPath><clipPath id="37"><path id="" clip-rule="evenodd" transform="matrix(1 0 0 1 0 0)" d="M397.8 674.24L439.2 674.24L439.2 674.24L439.2 661.52L439.2 661.52L397.8 661.52z" /></clipPath><clipPath id="38"><path id="" clip-rule="evenodd" transform="matrix(1 0 0 1 0 0)" d="M177.72 687.56L283.2 687.56L283.2 687.56L283.2 674.72L283.2 674.72L177.72 674.72z" /></clipPath><clipPath id="39"><path id="" clip-rule="evenodd" transform="matrix(1 0 0 1 0 0)" d="M177.72 687.56L283.2 687.56L283.2 687.56L283.2 674.72L283.2 674.72L177.72 674.72z" /></clipPath><clipPath id="40"><path id="" clip-rule="evenodd" transform="matrix(1 0 0 1 0 0)" d="M283.8 687.56L319.201 687.56L319.201 687.56L319.201 674.72L319.201 674.72L283.8 674.72z" /></clipPath><clipPath id="41"><path id="" clip-rule="evenodd" transform="matrix(1 0 0 1 0 0)" d="M283.8 687.56L319.201 687.56L319.201 687.56L319.201 674.72L319.201 674.72L283.8 674.72z" /></clipPath><clipPath id="42"><path id="" clip-rule="evenodd" transform="matrix(1 0 0 1 0 0)" d="M319.8 687.56L361.2 687.56L361.2 687.56L361.2 674.72L361.2 674.72L319.8 674.72z" /></clipPath><clipPath id="43"><path id="" clip-rule="evenodd" transform="matrix(1 0 0 1 0 0)" d="M319.8 687.56L361.2 687.56L361.2 687.56L361.2 674.72L361.2 674.72L319.8 674.72z" /></clipPath><clipPath id="44"><path id="" clip-rule="evenodd" transform="matrix(1 0 0 1 0 0)" d="M361.8 687.56L397.2 687.56L397.2 687.56L397.2 674.72L397.2 674.72L361.8 674.72z" /></clipPath><clipPath id="45"><path id="" clip-rule="evenodd" transform="matrix(1 0 0 1 0 0)" d="M361.8 687.56L397.2 687.56L397.2 687.56L397.2 674.72L397.2 674.72L361.8 674.72z" /></clipPath><clipPath id="46"><path id="" clip-rule="evenodd" transform="matrix(1 0 0 1 0 0)" d="M397.8 687.56L439.2 687.56L439.2 687.56L439.2 674.72L439.2 674.72L397.8 674.72z" /></clipPath><clipPath id="47"><path id="" clip-rule="evenodd" transform="matrix(1 0 0 1 0 0)" d="M397.8 687.56L439.2 687.56L439.2 687.56L439.2 674.72L439.2 674.72L397.8 674.72z" /></clipPath><clipPath id="48"><path id="" clip-rule="evenodd" transform="matrix(1 0 0 1 0 0)" d="M85.8 793.76L531.241 793.76L531.241 793.76L531.241 35.96002L531.241 35.96002L85.8 35.96002z" /></clipPath></defs><g transform="matrix(1.333333 0 0 1.333333 0 0)"><g clip-path="url(#1)"><g clip-path="url(#2)"></g><g clip-path="url(#3)"></g><g clip-path="url(#4)"></g><g clip-path="url(#5)"></g><g clip-path="url(#6)"></g><g clip-path="url(#7)"></g><g clip-path="url(#8)"></g><g clip-path="url(#9)"></g><g clip-path="url(#10)"></g><g clip-path="url(#11)"></g><g clip-path="url(#12)"></g><g clip-path="url(#13)"></g><g clip-path="url(#14)"></g><g clip-path="url(#15)"></g><g clip-path="url(#16)"></g><g clip-path="url(#17)"></g><path id="2022" transform="matrix(1 0 0 -1 0 842)" d="M177.36 207.12L177.84 207.12L177.84 207.601L177.36 207.601z" stroke="none" fill="#BFBFBF" fill-rule="nonzero" /><path id="2023" transform="matrix(1 0 0 -1 0 842)" d="M177.36 207.12L177.84 207.12L177.84 207.601L177.36 207.601z" stroke="none" fill="#BFBFBF" fill-rule="nonzero" /><path id="2024" transform="matrix(1 0 0 -1 0 842)" d="M177.84 207.12L283.32 207.12L283.32 207.601L177.84 207.601z" stroke="none" fill="#BFBFBF" fill-rule="nonzero" /><path id="2025" transform="matrix(1 0 0 -1 0 842)" d="M283.32 207.12L283.8 207.12L283.8 207.601L283.32 207.601z" stroke="none" fill="#BFBFBF" fill-rule="nonzero" /><path id="2026" transform="matrix(1 0 0 -1 0 842)" d="M283.8 207.12L319.32 207.12L319.32 207.601L283.8 207.601z" stroke="none" fill="#BFBFBF" fill-rule="nonzero" /><path id="2027" transform="matrix(1 0 0 -1 0 842)" d="M319.32 207.12L319.8 207.12L319.8 207.601L319.32 207.601z" stroke="none" fill="#BFBFBF" fill-rule="nonzero" /><path id="2028" transform="matrix(1 0 0 -1 0 842)" d="M319.8 207.12L361.321 207.12L361.321 207.601L319.8 207.601z" stroke="none" fill="#BFBFBF" fill-rule="nonzero" /><path id="2029" transform="matrix(1 0 0 -1 0 842)" d="M361.32 207.12L361.8 207.12L361.8 207.601L361.32 207.601z" stroke="none" fill="#BFBFBF" fill-rule="nonzero" /><path id="2030" transform="matrix(1 0 0 -1 0 842)" d="M361.8 207.12L397.32 207.12L397.32 207.601L361.8 207.601z" stroke="none" fill="#BFBFBF" fill-rule="nonzero" /><path id="2031" transform="matrix(1 0 0 -1 0 842)" d="M397.32 207.12L397.8 207.12L397.8 207.601L397.32 207.601z" stroke="none" fill="#BFBFBF" fill-rule="nonzero" /><path id="2032" transform="matrix(1 0 0 -1 0 842)" d="M397.8 207.12L439.32 207.12L439.32 207.601L397.8 207.601z" stroke="none" fill="#BFBFBF" fill-rule="nonzero" /><path id="2033" transform="matrix(1 0 0 -1 0 842)" d="M439.32 207.12L439.801 207.12L439.801 207.601L439.32 207.601z" stroke="none" fill="#BFBFBF" fill-rule="nonzero" /><path id="2034" transform="matrix(1 0 0 -1 0 842)" d="M439.32 207.12L439.801 207.12L439.801 207.601L439.32 207.601z" stroke="none" fill="#BFBFBF" fill-rule="nonzero" /><path id="2035" transform="matrix(1 0 0 -1 0 842)" d="M177.36 194.28L177.84 194.28L177.84 207.119L177.36 207.119z" stroke="none" fill="#BFBFBF" fill-rule="nonzero" /><path id="2036" transform="matrix(1 0 0 -1 0 842)" d="M283.32 194.28L283.8 194.28L283.8 207.119L283.32 207.119z" stroke="none" fill="#BFBFBF" fill-rule="nonzero" /><path id="2037" transform="matrix(1 0 0 -1 0 842)" d="M319.32 194.28L319.8 194.28L319.8 207.119L319.32 207.119z" stroke="none" fill="#BFBFBF" fill-rule="nonzero" /><path id="2038" transform="matrix(1 0 0 -1 0 842)" d="M361.32 194.28L361.8 194.28L361.8 207.119L361.32 207.119z" stroke="none" fill="#BFBFBF" fill-rule="nonzero" /><path id="2039" transform="matrix(1 0 0 -1 0 842)" d="M397.32 194.28L397.8 194.28L397.8 207.119L397.32 207.119z" stroke="none" fill="#BFBFBF" fill-rule="nonzero" /><path id="2040" transform="matrix(1 0 0 -1 0 842)" d="M439.32 194.28L439.801 194.28L439.801 207.119L439.32 207.119z" stroke="none" fill="#BFBFBF" fill-rule="nonzero" /><g clip-path="url(#18)"></g><g clip-path="url(#19)"></g><g clip-path="url(#20)"></g><g clip-path="url(#21)"></g><g clip-path="url(#22)"></g><g clip-path="url(#23)"></g><g clip-path="url(#24)"></g><g clip-path="url(#25)"></g><g clip-path="url(#26)"></g><g clip-path="url(#27)"></g><path id="2062" transform="matrix(1 0 0 -1 0 842)" d="M177.36 193.8L177.84 193.8L177.84 194.281L177.36 194.281z" stroke="none" fill="#BFBFBF" fill-rule="nonzero" /><path id="2063" transform="matrix(1 0 0 -1 0 842)" d="M177.84 193.8L283.32 193.8L283.32 194.281L177.84 194.281z" stroke="none" fill="#BFBFBF" fill-rule="nonzero" /><path id="2064" transform="matrix(1 0 0 -1 0 842)" d="M283.32 193.8L283.8 193.8L283.8 194.281L283.32 194.281z" stroke="none" fill="#BFBFBF" fill-rule="nonzero" /><path id="2065" transform="matrix(1 0 0 -1 0 842)" d="M283.8 193.8L319.32 193.8L319.32 194.281L283.8 194.281z" stroke="none" fill="#BFBFBF" fill-rule="nonzero" /><path id="2066" transform="matrix(1 0 0 -1 0 842)" d="M319.32 193.8L319.8 193.8L319.8 194.281L319.32 194.281z" stroke="none" fill="#BFBFBF" fill-rule="nonzero" /><path id="2067" transform="matrix(1 0 0 -1 0 842)" d="M319.8 193.8L361.321 193.8L361.321 194.281L319.8 194.281z" stroke="none" fill="#BFBFBF" fill-rule="nonzero" /><path id="2068" transform="matrix(1 0 0 -1 0 842)" d="M361.32 193.8L361.8 193.8L361.8 194.281L361.32 194.281z" stroke="none" fill="#BFBFBF" fill-rule="nonzero" /><path id="2069" transform="matrix(1 0 0 -1 0 842)" d="M361.8 193.8L397.32 193.8L397.32 194.281L361.8 194.281z" stroke="none" fill="#BFBFBF" fill-rule="nonzero" /><path id="2070" transform="matrix(1 0 0 -1 0 842)" d="M397.32 193.8L397.8 193.8L397.8 194.281L397.32 194.281z" stroke="none" fill="#BFBFBF" fill-rule="nonzero" /><path id="2071" transform="matrix(1 0 0 -1 0 842)" d="M397.8 193.8L439.32 193.8L439.32 194.281L397.8 194.281z" stroke="none" fill="#BFBFBF" fill-rule="nonzero" /><path id="2072" transform="matrix(1 0 0 -1 0 842)" d="M439.32 193.8L439.801 193.8L439.801 194.281L439.32 194.281z" stroke="none" fill="#BFBFBF" fill-rule="nonzero" /><path id="2073" transform="matrix(1 0 0 -1 0 842)" d="M177.36 181.08L177.84 181.08L177.84 193.8L177.36 193.8z" stroke="none" fill="#BFBFBF" fill-rule="nonzero" /><path id="2074" transform="matrix(1 0 0 -1 0 842)" d="M283.32 181.08L283.8 181.08L283.8 193.8L283.32 193.8z" stroke="none" fill="#BFBFBF" fill-rule="nonzero" /><path id="2075" transform="matrix(1 0 0 -1 0 842)" d="M319.32 181.08L319.8 181.08L319.8 193.8L319.32 193.8z" stroke="none" fill="#BFBFBF" fill-rule="nonzero" /><path id="2076" transform="matrix(1 0 0 -1 0 842)" d="M361.32 181.08L361.8 181.08L361.8 193.8L361.32 193.8z" stroke="none" fill="#BFBFBF" fill-rule="nonzero" /><path id="2077" transform="matrix(1 0 0 -1 0 842)" d="M397.32 181.08L397.8 181.08L397.8 193.8L397.32 193.8z" stroke="none" fill="#BFBFBF" fill-rule="nonzero" /><path id="2078" transform="matrix(1 0 0 -1 0 842)" d="M439.32 181.08L439.801 181.08L439.801 193.8L439.32 193.8z" stroke="none" fill="#BFBFBF" fill-rule="nonzero" /><g clip-path="url(#28)"></g><g clip-path="url(#29)"></g><g clip-path="url(#30)"></g><g clip-path="url(#31)"></g><g clip-path="url(#32)"></g><g clip-path="url(#33)"></g><g clip-path="url(#34)"></g><g clip-path="url(#35)"></g><g clip-path="url(#36)"></g><g clip-path="url(#37)"></g><path id="2105" transform="matrix(1 0 0 -1 0 842)" d="M177.36 180.6L177.84 180.6L177.84 181.08L177.36 181.08z" stroke="none" fill="#BFBFBF" fill-rule="nonzero" /><path id="2106" transform="matrix(1 0 0 -1 0 842)" d="M177.84 180.6L283.32 180.6L283.32 181.08L177.84 181.08z" stroke="none" fill="#BFBFBF" fill-rule="nonzero" /><path id="2107" transform="matrix(1 0 0 -1 0 842)" d="M283.32 180.6L283.8 180.6L283.8 181.08L283.32 181.08z" stroke="none" fill="#BFBFBF" fill-rule="nonzero" /><path id="2108" transform="matrix(1 0 0 -1 0 842)" d="M283.8 180.6L319.32 180.6L319.32 181.08L283.8 181.08z" stroke="none" fill="#BFBFBF" fill-rule="nonzero" /><path id="2109" transform="matrix(1 0 0 -1 0 842)" d="M319.32 180.6L319.8 180.6L319.8 181.08L319.32 181.08z" stroke="none" fill="#BFBFBF" fill-rule="nonzero" /><path id="2110" transform="matrix(1 0 0 -1 0 842)" d="M319.8 180.6L361.321 180.6L361.321 181.08L319.8 181.08z" stroke="none" fill="#BFBFBF" fill-rule="nonzero" /><path id="2111" transform="matrix(1 0 0 -1 0 842)" d="M361.32 180.6L361.8 180.6L361.8 181.08L361.32 181.08z" stroke="none" fill="#BFBFBF" fill-rule="nonzero" /><path id="2112" transform="matrix(1 0 0 -1 0 842)" d="M361.8 180.6L397.32 180.6L397.32 181.08L361.8 181.08z" stroke="none" fill="#BFBFBF" fill-rule="nonzero" /><path id="2113" transform="matrix(1 0 0 -1 0 842)" d="M397.32 180.6L397.8 180.6L397.8 181.08L397.32 181.08z" stroke="none" fill="#BFBFBF" fill-rule="nonzero" /><path id="2114" transform="matrix(1 0 0 -1 0 842)" d="M397.8 180.6L439.32 180.6L439.32 181.08L397.8 181.08z" stroke="none" fill="#BFBFBF" fill-rule="nonzero" /><path id="2115" transform="matrix(1 0 0 -1 0 842)" d="M439.32 180.6L439.801 180.6L439.801 181.08L439.32 181.08z" stroke="none" fill="#BFBFBF" fill-rule="nonzero" /><path id="2116" transform="matrix(1 0 0 -1 0 842)" d="M177.36 167.76L177.84 167.76L177.84 180.6L177.36 180.6z" stroke="none" fill="#BFBFBF" fill-rule="nonzero" /><path id="2117" transform="matrix(1 0 0 -1 0 842)" d="M283.32 167.76L283.8 167.76L283.8 180.6L283.32 180.6z" stroke="none" fill="#BFBFBF" fill-rule="nonzero" /><path id="2118" transform="matrix(1 0 0 -1 0 842)" d="M319.32 167.76L319.8 167.76L319.8 180.6L319.32 180.6z" stroke="none" fill="#BFBFBF" fill-rule="nonzero" /><path id="2119" transform="matrix(1 0 0 -1 0 842)" d="M361.32 167.76L361.8 167.76L361.8 180.6L361.32 180.6z" stroke="none" fill="#BFBFBF" fill-rule="nonzero" /><path id="2120" transform="matrix(1 0 0 -1 0 842)" d="M397.32 167.76L397.8 167.76L397.8 180.6L397.32 180.6z" stroke="none" fill="#BFBFBF" fill-rule="nonzero" /><path id="2121" transform="matrix(1 0 0 -1 0 842)" d="M439.32 167.76L439.801 167.76L439.801 180.6L439.32 180.6z" stroke="none" fill="#BFBFBF" fill-rule="nonzero" /><g clip-path="url(#38)"></g><g clip-path="url(#39)"></g><g clip-path="url(#40)"></g><g clip-path="url(#41)"></g><g clip-path="url(#42)"></g><g clip-path="url(#43)"></g><g clip-path="url(#44)"></g><g clip-path="url(#45)"></g><g clip-path="url(#46)"></g><g clip-path="url(#47)"></g><path id="2144" transform="matrix(1 0 0 -1 0 842)" d="M177.36 167.28L177.84 167.28L177.84 167.76L177.36 167.76z" stroke="none" fill="#BFBFBF" fill-rule="nonzero" /><path id="2145" transform="matrix(1 0 0 -1 0 842)" d="M177.84 167.28L283.32 167.28L283.32 167.76L177.84 167.76z" stroke="none" fill="#BFBFBF" fill-rule="nonzero" /><path id="2146" transform="matrix(1 0 0 -1 0 842)" d="M283.32 167.28L283.8 167.28L283.8 167.76L283.32 167.76z" stroke="none" fill="#BFBFBF" fill-rule="nonzero" /><path id="2147" transform="matrix(1 0 0 -1 0 842)" d="M283.8 167.28L319.32 167.28L319.32 167.76L283.8 167.76z" stroke="none" fill="#BFBFBF" fill-rule="nonzero" /><path id="2148" transform="matrix(1 0 0 -1 0 842)" d="M319.32 167.28L319.8 167.28L319.8 167.76L319.32 167.76z" stroke="none" fill="#BFBFBF" fill-rule="nonzero" /><path id="2149" transform="matrix(1 0 0 -1 0 842)" d="M319.8 167.28L361.321 167.28L361.321 167.76L319.8 167.76z" stroke="none" fill="#BFBFBF" fill-rule="nonzero" /><path id="2150" transform="matrix(1 0 0 -1 0 842)" d="M361.32 167.28L361.8 167.28L361.8 167.76L361.32 167.76z" stroke="none" fill="#BFBFBF" fill-rule="nonzero" /><path id="2151" transform="matrix(1 0 0 -1 0 842)" d="M361.8 167.28L397.32 167.28L397.32 167.76L361.8 167.76z" stroke="none" fill="#BFBFBF" fill-rule="nonzero" /><path id="2152" transform="matrix(1 0 0 -1 0 842)" d="M397.32 167.28L397.8 167.28L397.8 167.76L397.32 167.76z" stroke="none" fill="#BFBFBF" fill-rule="nonzero" /><path id="2153" transform="matrix(1 0 0 -1 0 842)" d="M397.8 167.28L439.32 167.28L439.32 167.76L397.8 167.76z" stroke="none" fill="#BFBFBF" fill-rule="nonzero" /><path id="2154" transform="matrix(1 0 0 -1 0 842)" d="M439.32 167.28L439.801 167.28L439.801 167.76L439.32 167.76z" stroke="none" fill="#BFBFBF" fill-rule="nonzero" /><path id="2155" transform="matrix(1 0 0 -1 0 842)" d="M177.36 154.44L177.84 154.44L177.84 167.28L177.36 167.28z" stroke="none" fill="#BFBFBF" fill-rule="nonzero" /><path id="2156" transform="matrix(1 0 0 -1 0 842)" d="M177.36 153.96L177.84 153.96L177.84 154.44L177.36 154.44z" stroke="none" fill="#BFBFBF" fill-rule="nonzero" /><path id="2157" transform="matrix(1 0 0 -1 0 842)" d="M177.36 153.96L177.84 153.96L177.84 154.44L177.36 154.44z" stroke="none" fill="#BFBFBF" fill-rule="nonzero" /><path id="2158" transform="matrix(1 0 0 -1 0 842)" d="M177.84 153.96L283.32 153.96L283.32 154.44L177.84 154.44z" stroke="none" fill="#BFBFBF" fill-rule="nonzero" /><path id="2159" transform="matrix(1 0 0 -1 0 842)" d="M283.32 154.44L283.8 154.44L283.8 167.28L283.32 167.28z" stroke="none" fill="#BFBFBF" fill-rule="nonzero" /><path id="2160" transform="matrix(1 0 0 -1 0 842)" d="M283.32 153.96L283.8 153.96L283.8 154.44L283.32 154.44z" stroke="none" fill="#BFBFBF" fill-rule="nonzero" /><path id="2161" transform="matrix(1 0 0 -1 0 842)" d="M283.8 153.96L319.32 153.96L319.32 154.44L283.8 154.44z" stroke="none" fill="#BFBFBF" fill-rule="nonzero" /><path id="2162" transform="matrix(1 0 0 -1 0 842)" d="M319.32 154.44L319.8 154.44L319.8 167.28L319.32 167.28z" stroke="none" fill="#BFBFBF" fill-rule="nonzero" /><path id="2163" transform="matrix(1 0 0 -1 0 842)" d="M319.32 153.96L319.8 153.96L319.8 154.44L319.32 154.44z" stroke="none" fill="#BFBFBF" fill-rule="nonzero" /><path id="2164" transform="matrix(1 0 0 -1 0 842)" d="M319.8 153.96L361.321 153.96L361.321 154.44L319.8 154.44z" stroke="none" fill="#BFBFBF" fill-rule="nonzero" /><path id="2165" transform="matrix(1 0 0 -1 0 842)" d="M361.32 154.44L361.8 154.44L361.8 167.28L361.32 167.28z" stroke="none" fill="#BFBFBF" fill-rule="nonzero" /><path id="2166" transform="matrix(1 0 0 -1 0 842)" d="M361.32 153.96L361.8 153.96L361.8 154.44L361.32 154.44z" stroke="none" fill="#BFBFBF" fill-rule="nonzero" /><path id="2167" transform="matrix(1 0 0 -1 0 842)" d="M361.8 153.96L397.32 153.96L397.32 154.44L361.8 154.44z" stroke="none" fill="#BFBFBF" fill-rule="nonzero" /><path id="2168" transform="matrix(1 0 0 -1 0 842)" d="M397.32 154.44L397.8 154.44L397.8 167.28L397.32 167.28z" stroke="none" fill="#BFBFBF" fill-rule="nonzero" /><path id="2169" transform="matrix(1 0 0 -1 0 842)" d="M397.32 153.96L397.8 153.96L397.8 154.44L397.32 154.44z" stroke="none" fill="#BFBFBF" fill-rule="nonzero" /><path id="2170" transform="matrix(1 0 0 -1 0 842)" d="M397.8 153.96L439.32 153.96L439.32 154.44L397.8 154.44z" stroke="none" fill="#BFBFBF" fill-rule="nonzero" /><path id="2171" transform="matrix(1 0 0 -1 0 842)" d="M439.32 154.44L439.801 154.44L439.801 167.28L439.32 167.28z" stroke="none" fill="#BFBFBF" fill-rule="nonzero" /><path id="2172" transform="matrix(1 0 0 -1 0 842)" d="M439.32 153.96L439.801 153.96L439.801 154.44L439.32 154.44z" stroke="none" fill="#BFBFBF" fill-rule="nonzero" /><path id="2173" transform="matrix(1 0 0 -1 0 842)" d="M439.32 153.96L439.801 153.96L439.801 154.44L439.32 154.44z" stroke="none" fill="#BFBFBF" fill-rule="nonzero" /><path id="2513" transform="matrix(1 0 0 -1 0 842)" d="M85.8 48.24L531.241 48.24L531.241 63.12L85.8 63.12z" stroke="none" fill="#FFFFFF" fill-rule="nonzero" /><g clip-path="url(#48)"></g><path id="2514" transform="matrix(1 0 0 -1 0 842)" d="M91.68 297L373.8 297L373.8 297L373.8 276.48L373.8 276.48L91.68 276.48z" stroke="#000000" stroke-width="1" fill="none" stroke-opacity="0" /><path id="2515" transform="matrix(1 0 0 -1 0 842)" d="M91.68 325.68L256.8 325.68L256.8 325.68L256.8 303.36L256.8 303.36L91.68 303.36z" stroke="#000000" stroke-width="1" fill="none" stroke-opacity="0" /><path id="2516" transform="matrix(1 0 0 -1 0 842)" d="M91.68 352.44L229.2 352.44L229.2 352.44L229.2 330.12L229.2 330.12L91.68 330.12z" stroke="#000000" stroke-width="1" fill="none" stroke-opacity="0" /></g></g></svg>