<svg xmlns="http://www.w3.org/2000/svg" xmlns:xlink="http://www.w3.org/1999/xlink" id="body_7" preserveAspectRatio="xMinYMin meet" viewBox="0 0 793 1123"><defs><clipPath id="1"><path id="" clip-rule="evenodd" transform="matrix(1 0 0 1 0 0)" d="M0 842L0 -0.03997803L0 -0.03997803L595.56 -0.03997803L595.56 -0.03997803L595.56 842L595.56 842L0 842z" /></clipPath><clipPath id="2"><path id="" clip-rule="evenodd" transform="matrix(1 0 0 1 0 0)" d="M529.44 806.48L541.919 806.48L541.919 806.48L541.919 792.32L541.919 792.32L529.44 792.32z" /></clipPath><clipPath id="3"><path id="" clip-rule="evenodd" transform="matrix(1 0 0 1 0 0)" d="M529.44 806.48L541.919 806.48L541.919 806.48L541.919 792.32L541.919 792.32L529.44 792.32z" /></clipPath><clipPath id="4"><path id="" clip-rule="evenodd" transform="matrix(1 0 0 1 0 0)" d="M85.8 76.76001L531.241 76.76001L531.241 76.76001L531.241 35.96002L531.241 35.96002L85.8 35.96002z" /></clipPath><clipPath id="5"><path id="" clip-rule="evenodd" transform="matrix(1 0 0 1 0 0)" d="M85.8 76.76001L531.241 76.76001L531.241 76.76001L531.241 35.96002L531.241 35.96002L85.8 35.96002z" /></clipPath><clipPath id="6"><path id="" clip-rule="evenodd" transform="matrix(1 0 0 1 0 0)" d="M85.8 76.76001L531.241 76.76001L531.241 76.76001L531.241 35.96002L531.241 35.96002L85.8 35.96002z" /></clipPath><clipPath id="7"><path id="" clip-rule="evenodd" transform="matrix(1 0 0 1 0 0)" d="M36 475.16L58.8 475.16L58.8 475.16L58.8 76.76001L58.8 76.76001L36 76.76001z" /></clipPath><clipPath id="8"><path id="" clip-rule="evenodd" transform="matrix(1 0 0 1 0 0)" d="M58.8 475.16L85.8 475.16L85.8 475.16L85.8 76.76001L85.8 76.76001L58.8 76.76001z" /></clipPath><clipPath id="9"><path id="" clip-rule="evenodd" transform="matrix(1 0 0 1 0 0)" d="M58.8 475.16L85.8 475.16L85.8 475.16L85.8 76.76001L85.8 76.76001L58.8 76.76001z" /></clipPath><clipPath id="10"><path id="" clip-rule="evenodd" transform="matrix(1 0 0 1 0 0)" d="M85.8 475.16L531.241 475.16L531.241 475.16L531.241 76.76001L531.241 76.76001L85.8 76.76001z" /></clipPath><clipPath id="11"><path id="" clip-rule="evenodd" transform="matrix(1 0 0 1 0 0)" d="M85.8 475.16L531.241 475.16L531.241 475.16L531.241 76.76001L531.241 76.76001L85.8 76.76001z" /></clipPath><clipPath id="12"><path id="" clip-rule="evenodd" transform="matrix(1 0 0 1 0 0)" d="M85.8 475.16L531.241 475.16L531.241 475.16L531.241 76.76001L531.241 76.76001L85.8 76.76001z" /></clipPath><clipPath id="13"><path id="" clip-rule="evenodd" transform="matrix(1 0 0 1 0 0)" d="M85.8 475.16L531.241 475.16L531.241 475.16L531.241 76.76001L531.241 76.76001L85.8 76.76001z" /></clipPath><clipPath id="14"><path id="" clip-rule="evenodd" transform="matrix(1 0 0 1 0 0)" d="M85.8 475.16L531.241 475.16L531.241 475.16L531.241 76.76001L531.241 76.76001L85.8 76.76001z" /></clipPath><clipPath id="15"><path id="" clip-rule="evenodd" transform="matrix(1 0 0 1 0 0)" d="M85.8 475.16L531.241 475.16L531.241 475.16L531.241 76.76001L531.241 76.76001L85.8 76.76001z" /></clipPath><clipPath id="16"><path id="" clip-rule="evenodd" transform="matrix(1 0 0 1 0 0)" d="M85.8 475.16L531.241 475.16L531.241 475.16L531.241 76.76001L531.241 76.76001L85.8 76.76001z" /></clipPath><clipPath id="17"><path id="" clip-rule="evenodd" transform="matrix(1 0 0 1 0 0)" d="M85.8 475.16L531.241 475.16L531.241 475.16L531.241 76.76001L531.241 76.76001L85.8 76.76001z" /></clipPath><clipPath id="18"><path id="" clip-rule="evenodd" transform="matrix(1 0 0 1 0 0)" d="M85.8 475.16L531.241 475.16L531.241 475.16L531.241 76.76001L531.241 76.76001L85.8 76.76001z" /></clipPath><clipPath id="19"><path id="" clip-rule="evenodd" transform="matrix(1 0 0 1 0 0)" d="M85.8 475.16L531.241 475.16L531.241 475.16L531.241 76.76001L531.241 76.76001L85.8 76.76001z" /></clipPath><clipPath id="20"><path id="" clip-rule="evenodd" transform="matrix(1 0 0 1 0 0)" d="M85.8 475.16L531.241 475.16L531.241 475.16L531.241 76.76001L531.241 76.76001L85.8 76.76001z" /></clipPath><clipPath id="21"><path id="" clip-rule="evenodd" transform="matrix(1 0 0 1 0 0)" d="M85.8 475.16L531.241 475.16L531.241 475.16L531.241 76.76001L531.241 76.76001L85.8 76.76001z" /></clipPath><clipPath id="22"><path id="" clip-rule="evenodd" transform="matrix(1 0 0 1 0 0)" d="M85.8 475.16L531.241 475.16L531.241 475.16L531.241 76.76001L531.241 76.76001L85.8 76.76001z" /></clipPath><clipPath id="23"><path id="" clip-rule="evenodd" transform="matrix(1 0 0 1 0 0)" d="M85.8 475.16L531.241 475.16L531.241 475.16L531.241 76.76001L531.241 76.76001L85.8 76.76001z" /></clipPath><clipPath id="24"><path id="" clip-rule="evenodd" transform="matrix(1 0 0 1 0 0)" d="M85.8 475.16L531.241 475.16L531.241 475.16L531.241 76.76001L531.241 76.76001L85.8 76.76001z" /></clipPath><clipPath id="25"><path id="" clip-rule="evenodd" transform="matrix(1 0 0 1 0 0)" d="M85.8 475.16L531.241 475.16L531.241 475.16L531.241 76.76001L531.241 76.76001L85.8 76.76001z" /></clipPath><clipPath id="26"><path id="" clip-rule="evenodd" transform="matrix(1 0 0 1 0 0)" d="M85.8 475.16L531.241 475.16L531.241 475.16L531.241 76.76001L531.241 76.76001L85.8 76.76001z" /></clipPath><clipPath id="27"><path id="" clip-rule="evenodd" transform="matrix(1 0 0 1 0 0)" d="M85.8 475.16L531.241 475.16L531.241 475.16L531.241 76.76001L531.241 76.76001L85.8 76.76001z" /></clipPath><clipPath id="28"><path id="" clip-rule="evenodd" transform="matrix(1 0 0 1 0 0)" d="M85.8 475.16L531.241 475.16L531.241 475.16L531.241 76.76001L531.241 76.76001L85.8 76.76001z" /></clipPath><clipPath id="29"><path id="" clip-rule="evenodd" transform="matrix(1 0 0 1 0 0)" d="M85.8 475.16L531.241 475.16L531.241 475.16L531.241 76.76001L531.241 76.76001L85.8 76.76001z" /></clipPath><clipPath id="30"><path id="" clip-rule="evenodd" transform="matrix(1 0 0 1 0 0)" d="M85.8 475.16L531.241 475.16L531.241 475.16L531.241 76.76001L531.241 76.76001L85.8 76.76001z" /></clipPath><clipPath id="31"><path id="" clip-rule="evenodd" transform="matrix(1 0 0 1 0 0)" d="M85.8 475.16L531.241 475.16L531.241 475.16L531.241 76.76001L531.241 76.76001L85.8 76.76001z" /></clipPath><clipPath id="32"><path id="" clip-rule="evenodd" transform="matrix(1 0 0 1 0 0)" d="M85.8 475.16L531.241 475.16L531.241 475.16L531.241 76.76001L531.241 76.76001L85.8 76.76001z" /></clipPath><clipPath id="33"><path id="" clip-rule="evenodd" transform="matrix(1 0 0 1 0 0)" d="M85.8 475.16L531.241 475.16L531.241 475.16L531.241 76.76001L531.241 76.76001L85.8 76.76001z" /></clipPath><clipPath id="34"><path id="" clip-rule="evenodd" transform="matrix(1 0 0 1 0 0)" d="M85.8 475.16L531.241 475.16L531.241 475.16L531.241 76.76001L531.241 76.76001L85.8 76.76001z" /></clipPath><clipPath id="35"><path id="" clip-rule="evenodd" transform="matrix(1 0 0 1 0 0)" d="M85.8 475.16L531.241 475.16L531.241 475.16L531.241 76.76001L531.241 76.76001L85.8 76.76001z" /></clipPath><clipPath id="36"><path id="" clip-rule="evenodd" transform="matrix(1 0 0 1 0 0)" d="M85.8 475.16L531.241 475.16L531.241 475.16L531.241 76.76001L531.241 76.76001L85.8 76.76001z" /></clipPath><clipPath id="37"><path id="" clip-rule="evenodd" transform="matrix(1 0 0 1 0 0)" d="M85.8 475.16L531.241 475.16L531.241 475.16L531.241 76.76001L531.241 76.76001L85.8 76.76001z" /></clipPath><clipPath id="38"><path id="" clip-rule="evenodd" transform="matrix(1 0 0 1 0 0)" d="M85.8 475.16L531.241 475.16L531.241 475.16L531.241 76.76001L531.241 76.76001L85.8 76.76001z" /></clipPath><clipPath id="39"><path id="" clip-rule="evenodd" transform="matrix(1 0 0 1 0 0)" d="M85.8 475.16L531.241 475.16L531.241 475.16L531.241 76.76001L531.241 76.76001L85.8 76.76001z" /></clipPath><clipPath id="40"><path id="" clip-rule="evenodd" transform="matrix(1 0 0 1 0 0)" d="M531.24 475.16L560.04 475.16L560.04 475.16L560.04 76.76001L560.04 76.76001L531.24 76.76001z" /></clipPath><clipPath id="41"><path id="" clip-rule="evenodd" transform="matrix(1 0 0 1 0 0)" d="M531.24 475.16L560.04 475.16L560.04 475.16L560.04 76.76001L560.04 76.76001L531.24 76.76001z" /></clipPath><clipPath id="42"><path id="" clip-rule="evenodd" transform="matrix(1 0 0 1 0 0)" d="M36 780.2L58.8 780.2L58.8 780.2L58.8 475.16L58.8 475.16L36 475.16z" /></clipPath><clipPath id="43"><path id="" clip-rule="evenodd" transform="matrix(1 0 0 1 0 0)" d="M36 780.2L58.8 780.2L58.8 780.2L58.8 475.16L58.8 475.16L36 475.16z" /></clipPath><clipPath id="44"><path id="" clip-rule="evenodd" transform="matrix(1 0 0 1 0 0)" d="M58.8 780.2L85.8 780.2L85.8 780.2L85.8 475.16L85.8 475.16L58.8 475.16z" /></clipPath><clipPath id="45"><path id="" clip-rule="evenodd" transform="matrix(1 0 0 1 0 0)" d="M58.8 780.2L85.8 780.2L85.8 780.2L85.8 475.16L85.8 475.16L58.8 475.16z" /></clipPath><clipPath id="46"><path id="" clip-rule="evenodd" transform="matrix(1 0 0 1 0 0)" d="M85.8 780.2L531.241 780.2L531.241 780.2L531.241 475.16L531.241 475.16L85.8 475.16z" /></clipPath><clipPath id="47"><path id="" clip-rule="evenodd" transform="matrix(1 0 0 1 0 0)" d="M85.8 780.2L531.241 780.2L531.241 780.2L531.241 475.16L531.241 475.16L85.8 475.16z" /></clipPath><clipPath id="48"><path id="" clip-rule="evenodd" transform="matrix(1 0 0 1 0 0)" d="M85.8 780.2L531.241 780.2L531.241 780.2L531.241 475.16L531.241 475.16L85.8 475.16z" /></clipPath><clipPath id="49"><path id="" clip-rule="evenodd" transform="matrix(1 0 0 1 0 0)" d="M85.8 780.2L531.241 780.2L531.241 780.2L531.241 475.16L531.241 475.16L85.8 475.16z" /></clipPath><clipPath id="50"><path id="" clip-rule="evenodd" transform="matrix(1 0 0 1 0 0)" d="M85.8 780.2L531.241 780.2L531.241 780.2L531.241 475.16L531.241 475.16L85.8 475.16z" /></clipPath><clipPath id="51"><path id="" clip-rule="evenodd" transform="matrix(1 0 0 1 0 0)" d="M85.8 780.2L531.241 780.2L531.241 780.2L531.241 475.16L531.241 475.16L85.8 475.16z" /></clipPath><clipPath id="52"><path id="" clip-rule="evenodd" transform="matrix(1 0 0 1 0 0)" d="M85.8 780.2L531.241 780.2L531.241 780.2L531.241 475.16L531.241 475.16L85.8 475.16z" /></clipPath><clipPath id="53"><path id="" clip-rule="evenodd" transform="matrix(1 0 0 1 0 0)" d="M85.8 780.2L531.241 780.2L531.241 780.2L531.241 475.16L531.241 475.16L85.8 475.16z" /></clipPath><clipPath id="54"><path id="" clip-rule="evenodd" transform="matrix(1 0 0 1 0 0)" d="M85.8 780.2L531.241 780.2L531.241 780.2L531.241 475.16L531.241 475.16L85.8 475.16z" /></clipPath><clipPath id="55"><path id="" clip-rule="evenodd" transform="matrix(1 0 0 1 0 0)" d="M85.8 780.2L531.241 780.2L531.241 780.2L531.241 475.16L531.241 475.16L85.8 475.16z" /></clipPath><clipPath id="56"><path id="" clip-rule="evenodd" transform="matrix(1 0 0 1 0 0)" d="M85.8 780.2L531.241 780.2L531.241 780.2L531.241 475.16L531.241 475.16L85.8 475.16z" /></clipPath><clipPath id="57"><path id="" clip-rule="evenodd" transform="matrix(1 0 0 1 0 0)" d="M85.8 780.2L531.241 780.2L531.241 780.2L531.241 475.16L531.241 475.16L85.8 475.16z" /></clipPath><clipPath id="58"><path id="" clip-rule="evenodd" transform="matrix(1 0 0 1 0 0)" d="M531.24 780.2L560.04 780.2L560.04 780.2L560.04 475.16L560.04 475.16L531.24 475.16z" /></clipPath><clipPath id="59"><path id="" clip-rule="evenodd" transform="matrix(1 0 0 1 0 0)" d="M531.24 780.2L560.04 780.2L560.04 780.2L560.04 475.16L560.04 475.16L531.24 475.16z" /></clipPath></defs><g transform="matrix(1.333333 0 0 1.333333 0 0)"><g clip-path="url(#1)"><g clip-path="url(#2)"></g><g clip-path="url(#3)"></g><g clip-path="url(#4)"></g><g clip-path="url(#5)"></g><g clip-path="url(#6)"></g><g clip-path="url(#7)"></g><g clip-path="url(#8)"></g><g clip-path="url(#9)"></g><g clip-path="url(#10)"></g><g clip-path="url(#11)"></g><g clip-path="url(#12)"></g><g clip-path="url(#13)"></g><g clip-path="url(#14)"></g><g clip-path="url(#15)"></g><g clip-path="url(#16)"></g><g clip-path="url(#17)"></g><g clip-path="url(#18)"></g><g clip-path="url(#19)"></g><g clip-path="url(#20)"></g><g clip-path="url(#21)"></g><g clip-path="url(#22)"></g><g clip-path="url(#23)"></g><g clip-path="url(#24)"></g><g clip-path="url(#25)"></g><g clip-path="url(#26)"></g><g clip-path="url(#27)"></g><g clip-path="url(#28)"></g><g clip-path="url(#29)"></g><g clip-path="url(#30)"></g><g clip-path="url(#31)"></g><g clip-path="url(#32)"></g><g clip-path="url(#33)"></g><path id="680" transform="matrix(1 0 0 -1 0 842)" d="M85.8 546.84L531.241 546.84L531.241 560.64L85.8 560.64z" stroke="none" fill="#FFFFFF" fill-rule="nonzero" /><g clip-path="url(#34)"></g><path id="750" transform="matrix(1 0 0 -1 0 842)" d="M85.8 533.04L531.241 533.04L531.241 546.84L85.8 546.84z" stroke="none" fill="#FFFFFF" fill-rule="nonzero" /><g clip-path="url(#35)"></g><path id="829" transform="matrix(1 0 0 -1 0 842)" d="M85.8 519.24L531.241 519.24L531.241 533.041L85.8 533.041z" stroke="none" fill="#FFFFFF" fill-rule="nonzero" /><g clip-path="url(#36)"></g><g clip-path="url(#37)"></g><g clip-path="url(#38)"></g><g clip-path="url(#39)"></g><g clip-path="url(#40)"></g><g clip-path="url(#41)"></g><g clip-path="url(#42)"></g><g clip-path="url(#43)"></g><g clip-path="url(#44)"></g><g clip-path="url(#45)"></g><g clip-path="url(#46)"></g><g clip-path="url(#47)"></g><g clip-path="url(#48)"></g><g clip-path="url(#49)"></g><g clip-path="url(#50)"></g><g clip-path="url(#51)"></g><g clip-path="url(#52)"></g><g clip-path="url(#53)"></g><g clip-path="url(#54)"></g><g clip-path="url(#55)"></g><g clip-path="url(#56)"></g><g clip-path="url(#57)"></g><g clip-path="url(#58)"></g><g clip-path="url(#59)"></g></g></g></svg>