<svg xmlns="http://www.w3.org/2000/svg" xmlns:xlink="http://www.w3.org/1999/xlink" id="body_5" preserveAspectRatio="xMinYMin meet" viewBox="0 0 793 1123"><defs><clipPath id="1"><path id="" clip-rule="evenodd" transform="matrix(1 0 0 1 0 0)" d="M0 842L0 -0.03997803L0 -0.03997803L595.56 -0.03997803L595.56 -0.03997803L595.56 842L595.56 842L0 842z" /></clipPath><clipPath id="2"><path id="" clip-rule="evenodd" transform="matrix(1 0 0 1 0 0)" d="M529.44 806.48L541.919 806.48L541.919 806.48L541.919 792.32L541.919 792.32L529.44 792.32z" /></clipPath><clipPath id="3"><path id="" clip-rule="evenodd" transform="matrix(1 0 0 1 0 0)" d="M529.44 806.48L541.919 806.48L541.919 806.48L541.919 792.32L541.919 792.32L529.44 792.32z" /></clipPath><clipPath id="4"><path id="" clip-rule="evenodd" transform="matrix(1 0 0 1 0 0)" d="M85.8 613.76L531.241 613.76L531.241 613.76L531.241 35.96002L531.241 35.96002L85.8 35.96002z" /></clipPath><clipPath id="5"><path id="" clip-rule="evenodd" transform="matrix(1 0 0 1 0 0)" d="M85.8 613.76L531.241 613.76L531.241 613.76L531.241 35.96002L531.241 35.96002L85.8 35.96002z" /></clipPath><clipPath id="6"><path id="" clip-rule="evenodd" transform="matrix(1 0 0 1 0 0)" d="M36 796.52L58.8 796.52L58.8 796.52L58.8 613.76L58.8 613.76L36 613.76z" /></clipPath><clipPath id="7"><path id="" clip-rule="evenodd" transform="matrix(1 0 0 1 0 0)" d="M36 796.52L58.8 796.52L58.8 796.52L58.8 613.76L58.8 613.76L36 613.76z" /></clipPath><clipPath id="8"><path id="" clip-rule="evenodd" transform="matrix(1 0 0 1 0 0)" d="M58.8 796.52L85.8 796.52L85.8 796.52L85.8 613.76L85.8 613.76L58.8 613.76z" /></clipPath><clipPath id="9"><path id="" clip-rule="evenodd" transform="matrix(1 0 0 1 0 0)" d="M58.8 796.52L85.8 796.52L85.8 796.52L85.8 613.76L85.8 613.76L58.8 613.76z" /></clipPath><clipPath id="10"><path id="" clip-rule="evenodd" transform="matrix(1 0 0 1 0 0)" d="M85.8 796.52L531.241 796.52L531.241 796.52L531.241 613.76L531.241 613.76L85.8 613.76z" /></clipPath><clipPath id="11"><path id="" clip-rule="evenodd" transform="matrix(1 0 0 1 0 0)" d="M85.8 796.52L531.241 796.52L531.241 796.52L531.241 613.76L531.241 613.76L85.8 613.76z" /></clipPath><clipPath id="12"><path id="" clip-rule="evenodd" transform="matrix(1 0 0 1 0 0)" d="M85.8 796.52L531.241 796.52L531.241 796.52L531.241 613.76L531.241 613.76L85.8 613.76z" /></clipPath><clipPath id="13"><path id="" clip-rule="evenodd" transform="matrix(1 0 0 1 0 0)" d="M85.8 796.52L531.241 796.52L531.241 796.52L531.241 613.76L531.241 613.76L85.8 613.76z" /></clipPath><clipPath id="14"><path id="" clip-rule="evenodd" transform="matrix(1 0 0 1 0 0)" d="M85.8 796.52L531.241 796.52L531.241 796.52L531.241 613.76L531.241 613.76L85.8 613.76z" /></clipPath><clipPath id="15"><path id="" clip-rule="evenodd" transform="matrix(1 0 0 1 0 0)" d="M85.8 796.52L531.241 796.52L531.241 796.52L531.241 613.76L531.241 613.76L85.8 613.76z" /></clipPath><clipPath id="16"><path id="" clip-rule="evenodd" transform="matrix(1 0 0 1 0 0)" d="M85.8 796.52L531.241 796.52L531.241 796.52L531.241 613.76L531.241 613.76L85.8 613.76z" /></clipPath><clipPath id="17"><path id="" clip-rule="evenodd" transform="matrix(1 0 0 1 0 0)" d="M85.8 796.52L531.241 796.52L531.241 796.52L531.241 613.76L531.241 613.76L85.8 613.76z" /></clipPath><clipPath id="18"><path id="" clip-rule="evenodd" transform="matrix(1 0 0 1 0 0)" d="M85.8 796.52L531.241 796.52L531.241 796.52L531.241 613.76L531.241 613.76L85.8 613.76z" /></clipPath><clipPath id="19"><path id="" clip-rule="evenodd" transform="matrix(1 0 0 1 0 0)" d="M85.8 796.52L531.241 796.52L531.241 796.52L531.241 613.76L531.241 613.76L85.8 613.76z" /></clipPath><clipPath id="20"><path id="" clip-rule="evenodd" transform="matrix(1 0 0 1 0 0)" d="M85.8 796.52L531.241 796.52L531.241 796.52L531.241 613.76L531.241 613.76L85.8 613.76z" /></clipPath><clipPath id="21"><path id="" clip-rule="evenodd" transform="matrix(1 0 0 1 0 0)" d="M85.8 796.52L531.241 796.52L531.241 796.52L531.241 613.76L531.241 613.76L85.8 613.76z" /></clipPath><clipPath id="22"><path id="" clip-rule="evenodd" transform="matrix(1 0 0 1 0 0)" d="M531.24 796.52L560.04 796.52L560.04 796.52L560.04 613.76L560.04 613.76L531.24 613.76z" /></clipPath><clipPath id="23"><path id="" clip-rule="evenodd" transform="matrix(1 0 0 1 0 0)" d="M531.24 796.52L560.04 796.52L560.04 796.52L560.04 613.76L560.04 613.76L531.24 613.76z" /></clipPath></defs><g transform="matrix(1.333333 0 0 1.333333 0 0)"><g clip-path="url(#1)"><g clip-path="url(#2)"></g><g clip-path="url(#3)"></g><path id="2" transform="matrix(1 0 0 -1 0 842)" d="M120.36 791.04L531.241 791.04L531.241 806.04L120.36 806.04z" stroke="none" fill="#FFFFFF" fill-rule="nonzero" /><g clip-path="url(#4)"></g><path id="72" transform="matrix(1 0 0 -1 0 842)" d="M120.36 776.16L531.241 776.16L531.241 791.04L120.36 791.04z" stroke="none" fill="#FFFFFF" fill-rule="nonzero" /><path id="140" transform="matrix(1 0 0 -1 0 842)" d="M120.36 761.16L531.241 761.16L531.241 776.16L120.36 776.16z" stroke="none" fill="#FFFFFF" fill-rule="nonzero" /><path id="214" transform="matrix(1 0 0 -1 0 842)" d="M120.36 746.28L531.241 746.28L531.241 761.16L120.36 761.16z" stroke="none" fill="#FFFFFF" fill-rule="nonzero" /><path id="292" transform="matrix(1 0 0 -1 0 842)" d="M120.36 731.28L531.241 731.28L531.241 746.28L120.36 746.28z" stroke="none" fill="#FFFFFF" fill-rule="nonzero" /><path id="365" transform="matrix(1 0 0 -1 0 842)" d="M120.36 716.4L531.241 716.4L531.241 731.28L120.36 731.28z" stroke="none" fill="#FFFFFF" fill-rule="nonzero" /><path id="431" transform="matrix(1 0 0 -1 0 842)" d="M120.36 701.4L531.241 701.4L531.241 716.4L120.36 716.4z" stroke="none" fill="#FFFFFF" fill-rule="nonzero" /><path id="508" transform="matrix(1 0 0 -1 0 842)" d="M120.36 686.4L531.241 686.4L531.241 701.399L120.36 701.399z" stroke="none" fill="#FFFFFF" fill-rule="nonzero" /><path id="511" transform="matrix(1 0 0 -1 0 842)" d="M174.36 671.52L531.241 671.52L531.241 686.401L174.36 686.401z" stroke="none" fill="#FFFFFF" fill-rule="nonzero" /><path id="550" transform="matrix(1 0 0 -1 0 842)" d="M174.36 656.52L531.241 656.52L531.241 671.519L174.36 671.519z" stroke="none" fill="#FFFFFF" fill-rule="nonzero" /><path id="585" transform="matrix(1 0 0 -1 0 842)" d="M174.36 641.64L531.241 641.64L531.241 656.521L174.36 656.521z" stroke="none" fill="#FFFFFF" fill-rule="nonzero" /><path id="617" transform="matrix(1 0 0 -1 0 842)" d="M174.36 626.64L531.241 626.64L531.241 641.639L174.36 641.639z" stroke="none" fill="#FFFFFF" fill-rule="nonzero" /><path id="652" transform="matrix(1 0 0 -1 0 842)" d="M174.36 611.76L531.241 611.76L531.241 626.641L174.36 626.641z" stroke="none" fill="#FFFFFF" fill-rule="nonzero" /><path id="673" transform="matrix(1 0 0 -1 0 842)" d="M174.36 596.76L531.241 596.76L531.241 611.759L174.36 611.759z" stroke="none" fill="#FFFFFF" fill-rule="nonzero" /><path id="725" transform="matrix(1 0 0 -1 0 842)" d="M174.36 581.76L531.241 581.76L531.241 596.76L174.36 596.76z" stroke="none" fill="#FFFFFF" fill-rule="nonzero" /><path id="751" transform="matrix(1 0 0 -1 0 842)" d="M174.36 566.88L531.241 566.88L531.241 581.76L174.36 581.76z" stroke="none" fill="#FFFFFF" fill-rule="nonzero" /><path id="772" transform="matrix(1 0 0 -1 0 842)" d="M174.36 551.88L531.241 551.88L531.241 566.88L174.36 566.88z" stroke="none" fill="#FFFFFF" fill-rule="nonzero" /><path id="806" transform="matrix(1 0 0 -1 0 842)" d="M174.36 537L531.241 537L531.241 551.88L174.36 551.88z" stroke="none" fill="#FFFFFF" fill-rule="nonzero" /><path id="832" transform="matrix(1 0 0 -1 0 842)" d="M174.36 522L531.241 522L531.241 537L174.36 537z" stroke="none" fill="#FFFFFF" fill-rule="nonzero" /><path id="861" transform="matrix(1 0 0 -1 0 842)" d="M174.36 507.12L531.241 507.12L531.241 522L174.36 522z" stroke="none" fill="#FFFFFF" fill-rule="nonzero" /><path id="895" transform="matrix(1 0 0 -1 0 842)" d="M174.36 492.12L531.241 492.12L531.241 507.12L174.36 507.12z" stroke="none" fill="#FFFFFF" fill-rule="nonzero" /><path id="919" transform="matrix(1 0 0 -1 0 842)" d="M174.36 477.12L531.241 477.12L531.241 492.12L174.36 492.12z" stroke="none" fill="#FFFFFF" fill-rule="nonzero" /><path id="965" transform="matrix(1 0 0 -1 0 842)" d="M174.36 462.24L531.241 462.24L531.241 477.12L174.36 477.12z" stroke="none" fill="#FFFFFF" fill-rule="nonzero" /><path id="997" transform="matrix(1 0 0 -1 0 842)" d="M120.36 447.24L531.241 447.24L531.241 462.24L120.36 462.24z" stroke="none" fill="#FFFFFF" fill-rule="nonzero" /><path id="1069" transform="matrix(1 0 0 -1 0 842)" d="M120.36 432.36L531.241 432.36L531.241 447.24L120.36 447.24z" stroke="none" fill="#FFFFFF" fill-rule="nonzero" /><path id="1142" transform="matrix(1 0 0 -1 0 842)" d="M120.36 417.36L531.241 417.36L531.241 432.36L120.36 432.36z" stroke="none" fill="#FFFFFF" fill-rule="nonzero" /><path id="1212" transform="matrix(1 0 0 -1 0 842)" d="M120.36 402.48L531.241 402.48L531.241 417.36L120.36 417.36z" stroke="none" fill="#FFFFFF" fill-rule="nonzero" /><path id="1291" transform="matrix(1 0 0 -1 0 842)" d="M120.36 387.48L531.241 387.48L531.241 402.48L120.36 402.48z" stroke="none" fill="#FFFFFF" fill-rule="nonzero" /><path id="1362" transform="matrix(1 0 0 -1 0 842)" d="M120.36 372.48L531.241 372.48L531.241 387.479L120.36 387.479z" stroke="none" fill="#FFFFFF" fill-rule="nonzero" /><path id="1432" transform="matrix(1 0 0 -1 0 842)" d="M120.36 357.6L531.241 357.6L531.241 372.481L120.36 372.481z" stroke="none" fill="#FFFFFF" fill-rule="nonzero" /><path id="1484" transform="matrix(1 0 0 -1 0 842)" d="M174.36 342.6L531.241 342.6L531.241 357.599L174.36 357.599z" stroke="none" fill="#FFFFFF" fill-rule="nonzero" /><path id="1513" transform="matrix(1 0 0 -1 0 842)" d="M174.36 327.72L531.241 327.72L531.241 342.601L174.36 342.601z" stroke="none" fill="#FFFFFF" fill-rule="nonzero" /><path id="1530" transform="matrix(1 0 0 -1 0 842)" d="M174.36 312.72L531.241 312.72L531.241 327.719L174.36 327.719z" stroke="none" fill="#FFFFFF" fill-rule="nonzero" /><path id="1549" transform="matrix(1 0 0 -1 0 842)" d="M174.36 297.84L531.241 297.84L531.241 312.721L174.36 312.721z" stroke="none" fill="#FFFFFF" fill-rule="nonzero" /><path id="1573" transform="matrix(1 0 0 -1 0 842)" d="M174.36 282.84L531.241 282.84L531.241 297.839L174.36 297.839z" stroke="none" fill="#FFFFFF" fill-rule="nonzero" /><path id="1597" transform="matrix(1 0 0 -1 0 842)" d="M174.36 267.84L531.241 267.84L531.241 282.84L174.36 282.84z" stroke="none" fill="#FFFFFF" fill-rule="nonzero" /><g clip-path="url(#5)"></g><g clip-path="url(#6)"></g><g clip-path="url(#7)"></g><g clip-path="url(#8)"></g><g clip-path="url(#9)"></g><g clip-path="url(#10)"></g><g clip-path="url(#11)"></g><g clip-path="url(#12)"></g><g clip-path="url(#13)"></g><g clip-path="url(#14)"></g><g clip-path="url(#15)"></g><g clip-path="url(#16)"></g><g clip-path="url(#17)"></g><g clip-path="url(#18)"></g><g clip-path="url(#19)"></g><g clip-path="url(#20)"></g><g clip-path="url(#21)"></g><g clip-path="url(#22)"></g><g clip-path="url(#23)"></g></g></g></svg>