<svg xmlns="http://www.w3.org/2000/svg" xmlns:xlink="http://www.w3.org/1999/xlink" id="body_16" preserveAspectRatio="xMinYMin meet" viewBox="0 0 793 1123"><defs><clipPath id="1"><path id="" clip-rule="evenodd" transform="matrix(1 0 0 1 0 0)" d="M0 842L0 -0.03997803L0 -0.03997803L595.56 -0.03997803L595.56 -0.03997803L595.56 842L595.56 842L0 842z" /></clipPath><clipPath id="2"><path id="" clip-rule="evenodd" transform="matrix(1 0 0 1 0 0)" d="M529.44 806.48L541.919 806.48L541.919 806.48L541.919 792.32L541.919 792.32L529.44 792.32z" /></clipPath><clipPath id="3"><path id="" clip-rule="evenodd" transform="matrix(1 0 0 1 0 0)" d="M529.44 806.48L541.919 806.48L541.919 806.48L541.919 792.32L541.919 792.32L529.44 792.32z" /></clipPath><clipPath id="4"><path id="" clip-rule="evenodd" transform="matrix(1 0 0 1 0 0)" d="M77.16 206L545.641 206L545.641 206L545.641 35.96002L545.641 35.96002L77.16 35.96002z" /></clipPath><clipPath id="5"><path id="" clip-rule="evenodd" transform="matrix(1 0 0 1 0 0)" d="M77.16 206L545.641 206L545.641 206L545.641 35.96002L545.641 35.96002L77.16 35.96002z" /></clipPath><clipPath id="6"><path id="" clip-rule="evenodd" transform="matrix(1 0 0 1 0 0)" d="M77.16 206L545.641 206L545.641 206L545.641 35.96002L545.641 35.96002L77.16 35.96002z" /></clipPath><clipPath id="7"><path id="" clip-rule="evenodd" transform="matrix(1 0 0 1 0 0)" d="M36 592.16L56.16 592.16L56.16 592.16L56.16 206L56.16 206L36 206z" /></clipPath><clipPath id="8"><path id="" clip-rule="evenodd" transform="matrix(1 0 0 1 0 0)" d="M56.16 592.16L77.16 592.16L77.16 592.16L77.16 206L77.16 206L56.16 206z" /></clipPath><clipPath id="9"><path id="" clip-rule="evenodd" transform="matrix(1 0 0 1 0 0)" d="M56.16 592.16L77.16 592.16L77.16 592.16L77.16 206L77.16 206L56.16 206z" /></clipPath><clipPath id="10"><path id="" clip-rule="evenodd" transform="matrix(1 0 0 1 0 0)" d="M77.16 592.16L545.641 592.16L545.641 592.16L545.641 206L545.641 206L77.16 206z" /></clipPath><clipPath id="11"><path id="" clip-rule="evenodd" transform="matrix(1 0 0 1 0 0)" d="M77.16 592.16L545.641 592.16L545.641 592.16L545.641 206L545.641 206L77.16 206z" /></clipPath><clipPath id="12"><path id="" clip-rule="evenodd" transform="matrix(1 0 0 1 0 0)" d="M77.16 592.16L545.641 592.16L545.641 592.16L545.641 206L545.641 206L77.16 206z" /></clipPath><clipPath id="13"><path id="" clip-rule="evenodd" transform="matrix(1 0 0 1 0 0)" d="M77.16 592.16L545.641 592.16L545.641 592.16L545.641 206L545.641 206L77.16 206z" /></clipPath><clipPath id="14"><path id="" clip-rule="evenodd" transform="matrix(1 0 0 1 0 0)" d="M77.16 592.16L545.641 592.16L545.641 592.16L545.641 206L545.641 206L77.16 206z" /></clipPath><clipPath id="15"><path id="" clip-rule="evenodd" transform="matrix(1 0 0 1 0 0)" d="M77.16 592.16L545.641 592.16L545.641 592.16L545.641 206L545.641 206L77.16 206z" /></clipPath><clipPath id="16"><path id="" clip-rule="evenodd" transform="matrix(1 0 0 1 0 0)" d="M77.16 592.16L545.641 592.16L545.641 592.16L545.641 206L545.641 206L77.16 206z" /></clipPath><clipPath id="17"><path id="" clip-rule="evenodd" transform="matrix(1 0 0 1 0 0)" d="M77.16 592.16L545.641 592.16L545.641 592.16L545.641 206L545.641 206L77.16 206z" /></clipPath><clipPath id="18"><path id="" clip-rule="evenodd" transform="matrix(1 0 0 1 0 0)" d="M77.16 592.16L545.641 592.16L545.641 592.16L545.641 206L545.641 206L77.16 206z" /></clipPath><clipPath id="19"><path id="" clip-rule="evenodd" transform="matrix(1 0 0 1 0 0)" d="M77.16 592.16L545.641 592.16L545.641 592.16L545.641 206L545.641 206L77.16 206z" /></clipPath><clipPath id="20"><path id="" clip-rule="evenodd" transform="matrix(1 0 0 1 0 0)" d="M77.16 592.16L545.641 592.16L545.641 592.16L545.641 206L545.641 206L77.16 206z" /></clipPath><clipPath id="21"><path id="" clip-rule="evenodd" transform="matrix(1 0 0 1 0 0)" d="M77.16 592.16L545.641 592.16L545.641 592.16L545.641 206L545.641 206L77.16 206z" /></clipPath><clipPath id="22"><path id="" clip-rule="evenodd" transform="matrix(1 0 0 1 0 0)" d="M77.16 592.16L545.641 592.16L545.641 592.16L545.641 206L545.641 206L77.16 206z" /></clipPath><clipPath id="23"><path id="" clip-rule="evenodd" transform="matrix(1 0 0 1 0 0)" d="M77.16 592.16L545.641 592.16L545.641 592.16L545.641 206L545.641 206L77.16 206z" /></clipPath><clipPath id="24"><path id="" clip-rule="evenodd" transform="matrix(1 0 0 1 0 0)" d="M77.16 592.16L545.641 592.16L545.641 592.16L545.641 206L545.641 206L77.16 206z" /></clipPath><clipPath id="25"><path id="" clip-rule="evenodd" transform="matrix(1 0 0 1 0 0)" d="M545.64 592.16L559.559 592.16L559.559 592.16L559.559 206L559.559 206L545.64 206z" /></clipPath><clipPath id="26"><path id="" clip-rule="evenodd" transform="matrix(1 0 0 1 0 0)" d="M545.64 592.16L559.559 592.16L559.559 592.16L559.559 206L559.559 206L545.64 206z" /></clipPath><clipPath id="27"><path id="" clip-rule="evenodd" transform="matrix(1 0 0 1 0 0)" d="M89.16 709.64L199.559 709.64L199.559 709.64L199.559 681.8L199.559 681.8L89.16 681.8z" /></clipPath><clipPath id="28"><path id="" clip-rule="evenodd" transform="matrix(1 0 0 1 0 0)" d="M89.16 709.64L199.559 709.64L199.559 709.64L199.559 681.8L199.559 681.8L89.16 681.8z" /></clipPath><clipPath id="29"><path id="" clip-rule="evenodd" transform="matrix(1 0 0 1 0 0)" d="M199.56 709.64L366.24 709.64L366.24 709.64L366.24 681.8L366.24 681.8L199.56 681.8z" /></clipPath><clipPath id="30"><path id="" clip-rule="evenodd" transform="matrix(1 0 0 1 0 0)" d="M199.56 709.64L366.24 709.64L366.24 709.64L366.24 681.8L366.24 681.8L199.56 681.8z" /></clipPath><clipPath id="31"><path id="" clip-rule="evenodd" transform="matrix(1 0 0 1 0 0)" d="M366.24 709.64L506.28 709.64L506.28 709.64L506.28 681.8L506.28 681.8L366.24 681.8z" /></clipPath><clipPath id="32"><path id="" clip-rule="evenodd" transform="matrix(1 0 0 1 0 0)" d="M366.24 709.64L506.28 709.64L506.28 709.64L506.28 681.8L506.28 681.8L366.24 681.8z" /></clipPath><clipPath id="33"><path id="" clip-rule="evenodd" transform="matrix(1 0 0 1 0 0)" d="M366.24 709.64L506.28 709.64L506.28 709.64L506.28 681.8L506.28 681.8L366.24 681.8z" /></clipPath><clipPath id="34"><path id="" clip-rule="evenodd" transform="matrix(1 0 0 1 0 0)" d="M366.24 709.64L506.28 709.64L506.28 709.64L506.28 681.8L506.28 681.8L366.24 681.8z" /></clipPath><clipPath id="35"><path id="" clip-rule="evenodd" transform="matrix(1 0 0 1 0 0)" d="M89.16 738.08L199.32 738.08L199.32 738.08L199.32 710.24L199.32 710.24L89.16 710.24z" /></clipPath><clipPath id="36"><path id="" clip-rule="evenodd" transform="matrix(1 0 0 1 0 0)" d="M89.16 738.08L199.32 738.08L199.32 738.08L199.32 710.24L199.32 710.24L89.16 710.24z" /></clipPath><clipPath id="37"><path id="" clip-rule="evenodd" transform="matrix(1 0 0 1 0 0)" d="M199.8 738.08L366 738.08L366 738.08L366 710.24L366 710.24L199.8 710.24z" /></clipPath><clipPath id="38"><path id="" clip-rule="evenodd" transform="matrix(1 0 0 1 0 0)" d="M199.8 738.08L366 738.08L366 738.08L366 710.24L366 710.24L199.8 710.24z" /></clipPath><clipPath id="39"><path id="" clip-rule="evenodd" transform="matrix(1 0 0 1 0 0)" d="M199.8 738.08L366 738.08L366 738.08L366 710.24L366 710.24L199.8 710.24z" /></clipPath><clipPath id="40"><path id="" clip-rule="evenodd" transform="matrix(1 0 0 1 0 0)" d="M366.48 738.08L506.28 738.08L506.28 738.08L506.28 710.24L506.28 710.24L366.48 710.24z" /></clipPath><clipPath id="41"><path id="" clip-rule="evenodd" transform="matrix(1 0 0 1 0 0)" d="M366.48 738.08L506.28 738.08L506.28 738.08L506.28 710.24L506.28 710.24L366.48 710.24z" /></clipPath><clipPath id="42"><path id="" clip-rule="evenodd" transform="matrix(1 0 0 1 0 0)" d="M366.48 738.08L506.28 738.08L506.28 738.08L506.28 710.24L506.28 710.24L366.48 710.24z" /></clipPath><clipPath id="43"><path id="" clip-rule="evenodd" transform="matrix(1 0 0 1 0 0)" d="M89.16 752.6L199.32 752.6L199.32 752.6L199.32 738.56L199.32 738.56L89.16 738.56z" /></clipPath><clipPath id="44"><path id="" clip-rule="evenodd" transform="matrix(1 0 0 1 0 0)" d="M89.16 752.6L199.32 752.6L199.32 752.6L199.32 738.56L199.32 738.56L89.16 738.56z" /></clipPath><clipPath id="45"><path id="" clip-rule="evenodd" transform="matrix(1 0 0 1 0 0)" d="M199.8 752.6L366 752.6L366 752.6L366 738.56L366 738.56L199.8 738.56z" /></clipPath><clipPath id="46"><path id="" clip-rule="evenodd" transform="matrix(1 0 0 1 0 0)" d="M199.8 752.6L366 752.6L366 752.6L366 738.56L366 738.56L199.8 738.56z" /></clipPath><clipPath id="47"><path id="" clip-rule="evenodd" transform="matrix(1 0 0 1 0 0)" d="M366.48 752.6L506.28 752.6L506.28 752.6L506.28 738.56L506.28 738.56L366.48 738.56z" /></clipPath><clipPath id="48"><path id="" clip-rule="evenodd" transform="matrix(1 0 0 1 0 0)" d="M366.48 752.6L506.28 752.6L506.28 752.6L506.28 738.56L506.28 738.56L366.48 738.56z" /></clipPath><clipPath id="49"><path id="" clip-rule="evenodd" transform="matrix(1 0 0 1 0 0)" d="M89.16 767L199.32 767L199.32 767L199.32 753.08L199.32 753.08L89.16 753.08z" /></clipPath><clipPath id="50"><path id="" clip-rule="evenodd" transform="matrix(1 0 0 1 0 0)" d="M89.16 767L199.32 767L199.32 767L199.32 753.08L199.32 753.08L89.16 753.08z" /></clipPath><clipPath id="51"><path id="" clip-rule="evenodd" transform="matrix(1 0 0 1 0 0)" d="M199.8 767L366 767L366 767L366 753.08L366 753.08L199.8 753.08z" /></clipPath><clipPath id="52"><path id="" clip-rule="evenodd" transform="matrix(1 0 0 1 0 0)" d="M199.8 767L366 767L366 767L366 753.08L366 753.08L199.8 753.08z" /></clipPath><clipPath id="53"><path id="" clip-rule="evenodd" transform="matrix(1 0 0 1 0 0)" d="M366.48 767L506.28 767L506.28 767L506.28 753.08L506.28 753.08L366.48 753.08z" /></clipPath><clipPath id="54"><path id="" clip-rule="evenodd" transform="matrix(1 0 0 1 0 0)" d="M366.48 767L506.28 767L506.28 767L506.28 753.08L506.28 753.08L366.48 753.08z" /></clipPath><clipPath id="55"><path id="" clip-rule="evenodd" transform="matrix(1 0 0 1 0 0)" d="M89.16 795.44L199.32 795.44L199.32 795.44L199.32 767.599L199.32 767.599L89.16 767.599z" /></clipPath><clipPath id="56"><path id="" clip-rule="evenodd" transform="matrix(1 0 0 1 0 0)" d="M89.16 795.44L199.32 795.44L199.32 795.44L199.32 767.599L199.32 767.599L89.16 767.599z" /></clipPath><clipPath id="57"><path id="" clip-rule="evenodd" transform="matrix(1 0 0 1 0 0)" d="M89.16 795.44L199.32 795.44L199.32 795.44L199.32 767.599L199.32 767.599L89.16 767.599z" /></clipPath><clipPath id="58"><path id="" clip-rule="evenodd" transform="matrix(1 0 0 1 0 0)" d="M199.8 795.44L366 795.44L366 795.44L366 767.599L366 767.599L199.8 767.599z" /></clipPath><clipPath id="59"><path id="" clip-rule="evenodd" transform="matrix(1 0 0 1 0 0)" d="M199.8 795.44L366 795.44L366 795.44L366 767.599L366 767.599L199.8 767.599z" /></clipPath><clipPath id="60"><path id="" clip-rule="evenodd" transform="matrix(1 0 0 1 0 0)" d="M366.48 795.44L506.28 795.44L506.28 795.44L506.28 767.599L506.28 767.599L366.48 767.599z" /></clipPath><clipPath id="61"><path id="" clip-rule="evenodd" transform="matrix(1 0 0 1 0 0)" d="M366.48 795.44L506.28 795.44L506.28 795.44L506.28 767.599L506.28 767.599L366.48 767.599z" /></clipPath></defs><g transform="matrix(1.333333 0 0 1.333333 0 0)"><g clip-path="url(#1)"><g clip-path="url(#2)"></g><g clip-path="url(#3)"></g><g clip-path="url(#4)"></g><g clip-path="url(#5)"></g><g clip-path="url(#6)"></g><g clip-path="url(#7)"></g><g clip-path="url(#8)"></g><g clip-path="url(#9)"></g><g clip-path="url(#10)"></g><g clip-path="url(#11)"></g><g clip-path="url(#12)"></g><g clip-path="url(#13)"></g><g clip-path="url(#14)"></g><g clip-path="url(#15)"></g><g clip-path="url(#16)"></g><g clip-path="url(#17)"></g><g clip-path="url(#18)"></g><g clip-path="url(#19)"></g><g clip-path="url(#20)"></g><g clip-path="url(#21)"></g><g clip-path="url(#22)"></g><g clip-path="url(#23)"></g><g clip-path="url(#24)"></g><g clip-path="url(#25)"></g><g clip-path="url(#26)"></g><path id="2076" transform="matrix(1 0 0 -1 0 842)" d="M89.16 132.36L199.56 132.36L199.56 132.36L199.56 160.2L199.56 160.2L89.16 160.2z" stroke="none" fill="#4F81BD" fill-rule="evenodd" /><path id="2077" transform="matrix(1 0 0 -1 0 842)" d="M94.32 146.28L194.16 146.28L194.16 160.2L94.32 160.2z" stroke="none" fill="#4F81BD" fill-rule="nonzero" /><g clip-path="url(#27)"></g><g clip-path="url(#28)"></g><path id="2085" transform="matrix(1 0 0 -1 0 842)" d="M199.56 132.36L366.24 132.36L366.24 132.36L366.24 160.2L366.24 160.2L199.56 160.2z" stroke="none" fill="#4F81BD" fill-rule="evenodd" /><path id="2086" transform="matrix(1 0 0 -1 0 842)" d="M204.96 146.28L360.84 146.28L360.84 160.2L204.96 160.2z" stroke="none" fill="#4F81BD" fill-rule="nonzero" /><g clip-path="url(#29)"></g><g clip-path="url(#30)"></g><path id="2108" transform="matrix(1 0 0 -1 0 842)" d="M366.24 132.36L506.28 132.36L506.28 132.36L506.28 160.2L506.28 160.2L366.24 160.2z" stroke="none" fill="#4F81BD" fill-rule="evenodd" /><path id="2109" transform="matrix(1 0 0 -1 0 842)" d="M371.64 146.28L501.12 146.28L501.12 160.2L371.64 160.2z" stroke="none" fill="#4F81BD" fill-rule="nonzero" /><g clip-path="url(#31)"></g><g clip-path="url(#32)"></g><path id="2126" transform="matrix(1 0 0 -1 0 842)" d="M371.64 132.36L501.12 132.36L501.12 146.279L371.64 146.279z" stroke="none" fill="#4F81BD" fill-rule="nonzero" /><g clip-path="url(#33)"></g><g clip-path="url(#34)"></g><path id="2134" transform="matrix(1 0 0 -1 0 842)" d="M88.68 160.32L89.161 160.32L89.161 160.801L88.68 160.801z" stroke="none" fill="#FFFFFF" fill-rule="nonzero" /><path id="2135" transform="matrix(1 0 0 -1 0 842)" d="M88.68 160.32L89.161 160.32L89.161 160.801L88.68 160.801z" stroke="none" fill="#FFFFFF" fill-rule="nonzero" /><path id="2136" transform="matrix(1 0 0 -1 0 842)" d="M89.16 160.32L199.559 160.32L199.559 160.801L89.16 160.801z" stroke="none" fill="#FFFFFF" fill-rule="nonzero" /><path id="2137" transform="matrix(1 0 0 -1 0 842)" d="M199.56 160.32L200.041 160.32L200.041 160.801L199.56 160.801z" stroke="none" fill="#FFFFFF" fill-rule="nonzero" /><path id="2138" transform="matrix(1 0 0 -1 0 842)" d="M200.04 160.32L366.239 160.32L366.239 160.801L200.04 160.801z" stroke="none" fill="#FFFFFF" fill-rule="nonzero" /><path id="2139" transform="matrix(1 0 0 -1 0 842)" d="M366.24 160.32L366.721 160.32L366.721 160.801L366.24 160.801z" stroke="none" fill="#FFFFFF" fill-rule="nonzero" /><path id="2140" transform="matrix(1 0 0 -1 0 842)" d="M366.72 160.32L506.279 160.32L506.279 160.801L366.72 160.801z" stroke="none" fill="#FFFFFF" fill-rule="nonzero" /><path id="2141" transform="matrix(1 0 0 -1 0 842)" d="M506.28 160.32L506.761 160.32L506.761 160.801L506.28 160.801z" stroke="none" fill="#FFFFFF" fill-rule="nonzero" /><path id="2142" transform="matrix(1 0 0 -1 0 842)" d="M506.28 160.32L506.761 160.32L506.761 160.801L506.28 160.801z" stroke="none" fill="#FFFFFF" fill-rule="nonzero" /><path id="2143" transform="matrix(1 0 0 -1 0 842)" d="M88.68 132.36L89.161 132.36L89.161 160.319L88.68 160.319z" stroke="none" fill="#FFFFFF" fill-rule="nonzero" /><path id="2144" transform="matrix(1 0 0 -1 0 842)" d="M506.28 132.36L506.761 132.36L506.761 160.319L506.28 160.319z" stroke="none" fill="#FFFFFF" fill-rule="nonzero" /><path id="2145" transform="matrix(1 0 0 -1 0 842)" d="M89.16 103.92L199.32 103.92L199.32 103.92L199.32 131.76L199.32 131.76L89.16 131.76z" stroke="none" fill="#4F81BD" fill-rule="evenodd" /><path id="2146" transform="matrix(1 0 0 -1 0 842)" d="M94.32 117.84L194.16 117.84L194.16 131.76L94.32 131.76z" stroke="none" fill="#4F81BD" fill-rule="nonzero" /><g clip-path="url(#35)"></g><g clip-path="url(#36)"></g><path id="2154" transform="matrix(1 0 0 -1 0 842)" d="M199.8 103.92L366 103.92L366 103.92L366 131.76L366 131.76L199.8 131.76z" stroke="none" fill="#B8CCE4" fill-rule="evenodd" /><path id="2155" transform="matrix(1 0 0 -1 0 842)" d="M204.96 117.84L360.84 117.84L360.84 131.76L204.96 131.76z" stroke="none" fill="#B8CCE4" fill-rule="nonzero" /><g clip-path="url(#37)"></g><path id="2183" transform="matrix(1 0 0 -1 0 842)" d="M204.96 103.92L360.84 103.92L360.84 117.839L204.96 117.839z" stroke="none" fill="#B8CCE4" fill-rule="nonzero" /><g clip-path="url(#38)"></g><g clip-path="url(#39)"></g><path id="2192" transform="matrix(1 0 0 -1 0 842)" d="M366.48 103.92L506.28 103.92L506.28 103.92L506.28 131.76L506.28 131.76L366.48 131.76z" stroke="none" fill="#B8CCE4" fill-rule="evenodd" /><path id="2193" transform="matrix(1 0 0 -1 0 842)" d="M371.64 117.84L501.12 117.84L501.12 131.76L371.64 131.76z" stroke="none" fill="#B8CCE4" fill-rule="nonzero" /><g clip-path="url(#40)"></g><path id="2219" transform="matrix(1 0 0 -1 0 842)" d="M371.64 103.92L501.12 103.92L501.12 117.839L371.64 117.839z" stroke="none" fill="#B8CCE4" fill-rule="nonzero" /><g clip-path="url(#41)"></g><g clip-path="url(#42)"></g><path id="2226" transform="matrix(1 0 0 -1 0 842)" d="M88.68 131.88L89.161 131.88L89.161 132.361L88.68 132.361z" stroke="none" fill="#FFFFFF" fill-rule="nonzero" /><path id="2227" transform="matrix(1 0 0 -1 0 842)" d="M89.16 131.88L199.32 131.88L199.32 132.361L89.16 132.361z" stroke="none" fill="#FFFFFF" fill-rule="nonzero" /><path id="2228" transform="matrix(1 0 0 -1 0 842)" d="M199.32 131.88L199.8 131.88L199.8 132.361L199.32 132.361z" stroke="none" fill="#FFFFFF" fill-rule="nonzero" /><path id="2229" transform="matrix(1 0 0 -1 0 842)" d="M199.8 131.88L200.28 131.88L200.28 132.361L199.8 132.361z" stroke="none" fill="#FFFFFF" fill-rule="nonzero" /><path id="2230" transform="matrix(1 0 0 -1 0 842)" d="M200.28 131.88L366.001 131.88L366.001 132.361L200.28 132.361z" stroke="none" fill="#FFFFFF" fill-rule="nonzero" /><path id="2231" transform="matrix(1 0 0 -1 0 842)" d="M366 131.88L366.48 131.88L366.48 132.361L366 132.361z" stroke="none" fill="#FFFFFF" fill-rule="nonzero" /><path id="2232" transform="matrix(1 0 0 -1 0 842)" d="M366.48 131.88L366.96 131.88L366.96 132.361L366.48 132.361z" stroke="none" fill="#FFFFFF" fill-rule="nonzero" /><path id="2233" transform="matrix(1 0 0 -1 0 842)" d="M366.96 131.88L506.28 131.88L506.28 132.361L366.96 132.361z" stroke="none" fill="#FFFFFF" fill-rule="nonzero" /><path id="2234" transform="matrix(1 0 0 -1 0 842)" d="M506.28 131.88L506.761 131.88L506.761 132.361L506.28 132.361z" stroke="none" fill="#FFFFFF" fill-rule="nonzero" /><path id="2235" transform="matrix(1 0 0 -1 0 842)" d="M88.68 103.92L89.161 103.92L89.161 131.879L88.68 131.879z" stroke="none" fill="#FFFFFF" fill-rule="nonzero" /><path id="2236" transform="matrix(1 0 0 -1 0 842)" d="M199.32 103.92L199.8 103.92L199.8 131.879L199.32 131.879z" stroke="none" fill="#FFFFFF" fill-rule="nonzero" /><path id="2237" transform="matrix(1 0 0 -1 0 842)" d="M366 103.92L366.48 103.92L366.48 131.879L366 131.879z" stroke="none" fill="#FFFFFF" fill-rule="nonzero" /><path id="2238" transform="matrix(1 0 0 -1 0 842)" d="M506.28 103.92L506.761 103.92L506.761 131.879L506.28 131.879z" stroke="none" fill="#FFFFFF" fill-rule="nonzero" /><path id="2239" transform="matrix(1 0 0 -1 0 842)" d="M89.16 89.4L199.32 89.4L199.32 89.4L199.32 103.44L199.32 103.44L89.16 103.44z" stroke="none" fill="#4F81BD" fill-rule="evenodd" /><path id="2240" transform="matrix(1 0 0 -1 0 842)" d="M94.32 89.4L194.16 89.4L194.16 103.44L94.32 103.44z" stroke="none" fill="#4F81BD" fill-rule="nonzero" /><g clip-path="url(#43)"></g><g clip-path="url(#44)"></g><path id="2247" transform="matrix(1 0 0 -1 0 842)" d="M199.8 89.4L366 89.4L366 89.4L366 103.44L366 103.44L199.8 103.44z" stroke="none" fill="#DBE5F1" fill-rule="evenodd" /><path id="2248" transform="matrix(1 0 0 -1 0 842)" d="M204.96 89.4L360.84 89.4L360.84 103.44L204.96 103.44z" stroke="none" fill="#DBE5F1" fill-rule="nonzero" /><g clip-path="url(#45)"></g><g clip-path="url(#46)"></g><path id="2270" transform="matrix(1 0 0 -1 0 842)" d="M366.48 89.4L506.28 89.4L506.28 89.4L506.28 103.44L506.28 103.44L366.48 103.44z" stroke="none" fill="#DBE5F1" fill-rule="evenodd" /><path id="2271" transform="matrix(1 0 0 -1 0 842)" d="M371.64 89.4L501.12 89.4L501.12 103.44L371.64 103.44z" stroke="none" fill="#DBE5F1" fill-rule="nonzero" /><g clip-path="url(#47)"></g><g clip-path="url(#48)"></g><path id="2297" transform="matrix(1 0 0 -1 0 842)" d="M88.68 103.44L89.161 103.44L89.161 103.921L88.68 103.921z" stroke="none" fill="#FFFFFF" fill-rule="nonzero" /><path id="2298" transform="matrix(1 0 0 -1 0 842)" d="M89.16 103.44L199.32 103.44L199.32 103.921L89.16 103.921z" stroke="none" fill="#FFFFFF" fill-rule="nonzero" /><path id="2299" transform="matrix(1 0 0 -1 0 842)" d="M199.32 103.44L199.8 103.44L199.8 103.921L199.32 103.921z" stroke="none" fill="#FFFFFF" fill-rule="nonzero" /><path id="2300" transform="matrix(1 0 0 -1 0 842)" d="M199.8 103.44L366 103.44L366 103.921L199.8 103.921z" stroke="none" fill="#FFFFFF" fill-rule="nonzero" /><path id="2301" transform="matrix(1 0 0 -1 0 842)" d="M366 103.44L366.48 103.44L366.48 103.921L366 103.921z" stroke="none" fill="#FFFFFF" fill-rule="nonzero" /><path id="2302" transform="matrix(1 0 0 -1 0 842)" d="M366.48 103.44L506.28 103.44L506.28 103.921L366.48 103.921z" stroke="none" fill="#FFFFFF" fill-rule="nonzero" /><path id="2303" transform="matrix(1 0 0 -1 0 842)" d="M506.28 103.44L506.761 103.44L506.761 103.921L506.28 103.921z" stroke="none" fill="#FFFFFF" fill-rule="nonzero" /><path id="2304" transform="matrix(1 0 0 -1 0 842)" d="M88.68 89.4L89.161 89.4L89.161 103.44L88.68 103.44z" stroke="none" fill="#FFFFFF" fill-rule="nonzero" /><path id="2305" transform="matrix(1 0 0 -1 0 842)" d="M199.32 89.4L199.8 89.4L199.8 103.44L199.32 103.44z" stroke="none" fill="#FFFFFF" fill-rule="nonzero" /><path id="2306" transform="matrix(1 0 0 -1 0 842)" d="M366 89.4L366.48 89.4L366.48 103.44L366 103.44z" stroke="none" fill="#FFFFFF" fill-rule="nonzero" /><path id="2307" transform="matrix(1 0 0 -1 0 842)" d="M506.28 89.4L506.761 89.4L506.761 103.44L506.28 103.44z" stroke="none" fill="#FFFFFF" fill-rule="nonzero" /><path id="2308" transform="matrix(1 0 0 -1 0 842)" d="M89.16 75L199.32 75L199.32 75L199.32 88.92L199.32 88.92L89.16 88.92z" stroke="none" fill="#4F81BD" fill-rule="evenodd" /><path id="2309" transform="matrix(1 0 0 -1 0 842)" d="M94.32 75L194.16 75L194.16 88.92L94.32 88.92z" stroke="none" fill="#4F81BD" fill-rule="nonzero" /><g clip-path="url(#49)"></g><g clip-path="url(#50)"></g><path id="2324" transform="matrix(1 0 0 -1 0 842)" d="M199.8 75L366 75L366 75L366 88.92L366 88.92L199.8 88.92z" stroke="none" fill="#B8CCE4" fill-rule="evenodd" /><path id="2325" transform="matrix(1 0 0 -1 0 842)" d="M204.96 75L360.84 75L360.84 88.92L204.96 88.92z" stroke="none" fill="#B8CCE4" fill-rule="nonzero" /><g clip-path="url(#51)"></g><g clip-path="url(#52)"></g><path id="2342" transform="matrix(1 0 0 -1 0 842)" d="M366.48 75L506.28 75L506.28 75L506.28 88.92L506.28 88.92L366.48 88.92z" stroke="none" fill="#B8CCE4" fill-rule="evenodd" /><path id="2343" transform="matrix(1 0 0 -1 0 842)" d="M371.64 75L501.12 75L501.12 88.92L371.64 88.92z" stroke="none" fill="#B8CCE4" fill-rule="nonzero" /><g clip-path="url(#53)"></g><g clip-path="url(#54)"></g><path id="2353" transform="matrix(1 0 0 -1 0 842)" d="M88.68 88.92L89.161 88.92L89.161 89.4L88.68 89.4z" stroke="none" fill="#FFFFFF" fill-rule="nonzero" /><path id="2354" transform="matrix(1 0 0 -1 0 842)" d="M89.16 88.92L199.32 88.92L199.32 89.4L89.16 89.4z" stroke="none" fill="#FFFFFF" fill-rule="nonzero" /><path id="2355" transform="matrix(1 0 0 -1 0 842)" d="M199.32 88.92L199.8 88.92L199.8 89.4L199.32 89.4z" stroke="none" fill="#FFFFFF" fill-rule="nonzero" /><path id="2356" transform="matrix(1 0 0 -1 0 842)" d="M199.8 88.92L366 88.92L366 89.4L199.8 89.4z" stroke="none" fill="#FFFFFF" fill-rule="nonzero" /><path id="2357" transform="matrix(1 0 0 -1 0 842)" d="M366 88.92L366.48 88.92L366.48 89.4L366 89.4z" stroke="none" fill="#FFFFFF" fill-rule="nonzero" /><path id="2358" transform="matrix(1 0 0 -1 0 842)" d="M366.48 88.92L506.28 88.92L506.28 89.4L366.48 89.4z" stroke="none" fill="#FFFFFF" fill-rule="nonzero" /><path id="2359" transform="matrix(1 0 0 -1 0 842)" d="M506.28 88.92L506.761 88.92L506.761 89.4L506.28 89.4z" stroke="none" fill="#FFFFFF" fill-rule="nonzero" /><path id="2360" transform="matrix(1 0 0 -1 0 842)" d="M88.68 75L89.161 75L89.161 88.92L88.68 88.92z" stroke="none" fill="#FFFFFF" fill-rule="nonzero" /><path id="2361" transform="matrix(1 0 0 -1 0 842)" d="M199.32 75L199.8 75L199.8 88.92L199.32 88.92z" stroke="none" fill="#FFFFFF" fill-rule="nonzero" /><path id="2362" transform="matrix(1 0 0 -1 0 842)" d="M366 75L366.48 75L366.48 88.92L366 88.92z" stroke="none" fill="#FFFFFF" fill-rule="nonzero" /><path id="2363" transform="matrix(1 0 0 -1 0 842)" d="M506.28 75L506.761 75L506.761 88.92L506.28 88.92z" stroke="none" fill="#FFFFFF" fill-rule="nonzero" /><path id="2364" transform="matrix(1 0 0 -1 0 842)" d="M89.16 46.56L199.32 46.56L199.32 46.56L199.32 74.4L199.32 74.4L89.16 74.4z" stroke="none" fill="#4F81BD" fill-rule="evenodd" /><path id="2365" transform="matrix(1 0 0 -1 0 842)" d="M94.32 60.48L194.16 60.48L194.16 74.4L94.32 74.4z" stroke="none" fill="#4F81BD" fill-rule="nonzero" /><g clip-path="url(#55)"></g><path id="2374" transform="matrix(1 0 0 -1 0 842)" d="M94.32 46.56L194.16 46.56L194.16 60.48L94.32 60.48z" stroke="none" fill="#4F81BD" fill-rule="nonzero" /><g clip-path="url(#56)"></g><g clip-path="url(#57)"></g><path id="2387" transform="matrix(1 0 0 -1 0 842)" d="M199.8 46.56L366 46.56L366 46.56L366 74.4L366 74.4L199.8 74.4z" stroke="none" fill="#DBE5F1" fill-rule="evenodd" /><path id="2388" transform="matrix(1 0 0 -1 0 842)" d="M204.96 60.48L360.84 60.48L360.84 74.4L204.96 74.4z" stroke="none" fill="#DBE5F1" fill-rule="nonzero" /><g clip-path="url(#58)"></g><g clip-path="url(#59)"></g><path id="2405" transform="matrix(1 0 0 -1 0 842)" d="M366.48 46.56L506.28 46.56L506.28 46.56L506.28 74.4L506.28 74.4L366.48 74.4z" stroke="none" fill="#DBE5F1" fill-rule="evenodd" /><path id="2406" transform="matrix(1 0 0 -1 0 842)" d="M371.64 60.48L501.12 60.48L501.12 74.4L371.64 74.4z" stroke="none" fill="#DBE5F1" fill-rule="nonzero" /><g clip-path="url(#60)"></g><g clip-path="url(#61)"></g><path id="2416" transform="matrix(1 0 0 -1 0 842)" d="M88.68 74.52L89.161 74.52L89.161 75L88.68 75z" stroke="none" fill="#FFFFFF" fill-rule="nonzero" /><path id="2417" transform="matrix(1 0 0 -1 0 842)" d="M89.16 74.52L199.32 74.52L199.32 75L89.16 75z" stroke="none" fill="#FFFFFF" fill-rule="nonzero" /><path id="2418" transform="matrix(1 0 0 -1 0 842)" d="M199.32 74.52L199.8 74.52L199.8 75L199.32 75z" stroke="none" fill="#FFFFFF" fill-rule="nonzero" /><path id="2419" transform="matrix(1 0 0 -1 0 842)" d="M199.8 74.52L366 74.52L366 75L199.8 75z" stroke="none" fill="#FFFFFF" fill-rule="nonzero" /><path id="2420" transform="matrix(1 0 0 -1 0 842)" d="M366 74.52L366.48 74.52L366.48 75L366 75z" stroke="none" fill="#FFFFFF" fill-rule="nonzero" /><path id="2421" transform="matrix(1 0 0 -1 0 842)" d="M366.48 74.52L506.28 74.52L506.28 75L366.48 75z" stroke="none" fill="#FFFFFF" fill-rule="nonzero" /><path id="2422" transform="matrix(1 0 0 -1 0 842)" d="M506.28 74.52L506.761 74.52L506.761 75L506.28 75z" stroke="none" fill="#FFFFFF" fill-rule="nonzero" /><path id="2423" transform="matrix(1 0 0 -1 0 842)" d="M88.68 46.56L89.161 46.56L89.161 74.52L88.68 74.52z" stroke="none" fill="#FFFFFF" fill-rule="nonzero" /><path id="2424" transform="matrix(1 0 0 -1 0 842)" d="M88.68 46.08L89.161 46.08L89.161 46.56L88.68 46.56z" stroke="none" fill="#FFFFFF" fill-rule="nonzero" /><path id="2425" transform="matrix(1 0 0 -1 0 842)" d="M88.68 46.08L89.161 46.08L89.161 46.56L88.68 46.56z" stroke="none" fill="#FFFFFF" fill-rule="nonzero" /><path id="2426" transform="matrix(1 0 0 -1 0 842)" d="M89.16 46.08L199.32 46.08L199.32 46.56L89.16 46.56z" stroke="none" fill="#FFFFFF" fill-rule="nonzero" /><path id="2427" transform="matrix(1 0 0 -1 0 842)" d="M199.32 46.56L199.8 46.56L199.8 74.52L199.32 74.52z" stroke="none" fill="#FFFFFF" fill-rule="nonzero" /><path id="2428" transform="matrix(1 0 0 -1 0 842)" d="M199.32 46.08L199.8 46.08L199.8 46.56L199.32 46.56z" stroke="none" fill="#FFFFFF" fill-rule="nonzero" /><path id="2429" transform="matrix(1 0 0 -1 0 842)" d="M199.8 46.08L366 46.08L366 46.56L199.8 46.56z" stroke="none" fill="#FFFFFF" fill-rule="nonzero" /><path id="2430" transform="matrix(1 0 0 -1 0 842)" d="M366 46.56L366.48 46.56L366.48 74.52L366 74.52z" stroke="none" fill="#FFFFFF" fill-rule="nonzero" /><path id="2431" transform="matrix(1 0 0 -1 0 842)" d="M366 46.08L366.48 46.08L366.48 46.56L366 46.56z" stroke="none" fill="#FFFFFF" fill-rule="nonzero" /><path id="2432" transform="matrix(1 0 0 -1 0 842)" d="M366.48 46.08L506.28 46.08L506.28 46.56L366.48 46.56z" stroke="none" fill="#FFFFFF" fill-rule="nonzero" /><path id="2433" transform="matrix(1 0 0 -1 0 842)" d="M506.28 46.56L506.761 46.56L506.761 74.52L506.28 74.52z" stroke="none" fill="#FFFFFF" fill-rule="nonzero" /><path id="2434" transform="matrix(1 0 0 -1 0 842)" d="M506.28 46.08L506.761 46.08L506.761 46.56L506.28 46.56z" stroke="none" fill="#FFFFFF" fill-rule="nonzero" /><path id="2435" transform="matrix(1 0 0 -1 0 842)" d="M506.28 46.08L506.761 46.08L506.761 46.56L506.28 46.56z" stroke="none" fill="#FFFFFF" fill-rule="nonzero" /></g></g></svg>