<svg xmlns="http://www.w3.org/2000/svg" xmlns:xlink="http://www.w3.org/1999/xlink" id="body_4" preserveAspectRatio="xMinYMin meet" viewBox="0 0 793 1123"><defs><clipPath id="1"><path id="" clip-rule="evenodd" transform="matrix(1 0 0 1 0 0)" d="M0 842L0 -0.03997803L0 -0.03997803L595.56 -0.03997803L595.56 -0.03997803L595.56 842L595.56 842L0 842z" /></clipPath><clipPath id="2"><path id="" clip-rule="evenodd" transform="matrix(1 0 0 1 0 0)" d="M529.44 806.48L541.919 806.48L541.919 806.48L541.919 792.32L541.919 792.32L529.44 792.32z" /></clipPath><clipPath id="3"><path id="" clip-rule="evenodd" transform="matrix(1 0 0 1 0 0)" d="M529.44 806.48L541.919 806.48L541.919 806.48L541.919 792.32L541.919 792.32L529.44 792.32z" /></clipPath><clipPath id="4"><path id="" clip-rule="evenodd" transform="matrix(1 0 0 1 0 0)" d="M85.8 796.16L531.241 796.16L531.241 796.16L531.241 35.95996L531.241 35.95996L85.8 35.95996z" /></clipPath><clipPath id="5"><path id="" clip-rule="evenodd" transform="matrix(1 0 0 1 0 0)" d="M85.8 669.56L531.241 669.56L531.241 669.56L531.241 61.40002L531.241 61.40002L85.8 61.40002z" /></clipPath><clipPath id="6"><path id="" clip-rule="evenodd" transform="matrix(1 0 0 1 0 0)" d="M85.8 669.56L531.241 669.56L531.241 669.56L531.241 61.40002L531.241 61.40002L85.8 61.40002z" /></clipPath><clipPath id="7"><path id="" clip-rule="evenodd" transform="matrix(1 0 0 1 0 0)" d="M85.8 669.56L531.241 669.56L531.241 669.56L531.241 61.40002L531.241 61.40002L85.8 61.40002z" /></clipPath><clipPath id="8"><path id="" clip-rule="evenodd" transform="matrix(1 0 0 1 0 0)" d="M85.8 669.56L531.241 669.56L531.241 669.56L531.241 61.40002L531.241 61.40002L85.8 61.40002z" /></clipPath><clipPath id="9"><path id="" clip-rule="evenodd" transform="matrix(1 0 0 1 0 0)" d="M85.8 669.56L531.241 669.56L531.241 669.56L531.241 61.40002L531.241 61.40002L85.8 61.40002z" /></clipPath><clipPath id="10"><path id="" clip-rule="evenodd" transform="matrix(1 0 0 1 0 0)" d="M85.8 669.56L531.241 669.56L531.241 669.56L531.241 61.40002L531.241 61.40002L85.8 61.40002z" /></clipPath><clipPath id="11"><path id="" clip-rule="evenodd" transform="matrix(1 0 0 1 0 0)" d="M85.8 669.56L531.241 669.56L531.241 669.56L531.241 61.40002L531.241 61.40002L85.8 61.40002z" /></clipPath><clipPath id="12"><path id="" clip-rule="evenodd" transform="matrix(1 0 0 1 0 0)" d="M85.8 669.56L531.241 669.56L531.241 669.56L531.241 61.40002L531.241 61.40002L85.8 61.40002z" /></clipPath><clipPath id="13"><path id="" clip-rule="evenodd" transform="matrix(1 0 0 1 0 0)" d="M85.8 669.56L531.241 669.56L531.241 669.56L531.241 61.40002L531.241 61.40002L85.8 61.40002z" /></clipPath><clipPath id="14"><path id="" clip-rule="evenodd" transform="matrix(1 0 0 1 0 0)" d="M85.8 669.56L531.241 669.56L531.241 669.56L531.241 61.40002L531.241 61.40002L85.8 61.40002z" /></clipPath><clipPath id="15"><path id="" clip-rule="evenodd" transform="matrix(1 0 0 1 0 0)" d="M85.8 669.56L531.241 669.56L531.241 669.56L531.241 61.40002L531.241 61.40002L85.8 61.40002z" /></clipPath><clipPath id="16"><path id="" clip-rule="evenodd" transform="matrix(1 0 0 1 0 0)" d="M85.8 669.56L531.241 669.56L531.241 669.56L531.241 61.40002L531.241 61.40002L85.8 61.40002z" /></clipPath><clipPath id="17"><path id="" clip-rule="evenodd" transform="matrix(1 0 0 1 0 0)" d="M85.8 669.56L531.241 669.56L531.241 669.56L531.241 61.40002L531.241 61.40002L85.8 61.40002z" /></clipPath><clipPath id="18"><path id="" clip-rule="evenodd" transform="matrix(1 0 0 1 0 0)" d="M85.8 669.56L531.241 669.56L531.241 669.56L531.241 61.40002L531.241 61.40002L85.8 61.40002z" /></clipPath><clipPath id="19"><path id="" clip-rule="evenodd" transform="matrix(1 0 0 1 0 0)" d="M85.8 669.56L531.241 669.56L531.241 669.56L531.241 61.40002L531.241 61.40002L85.8 61.40002z" /></clipPath><clipPath id="20"><path id="" clip-rule="evenodd" transform="matrix(1 0 0 1 0 0)" d="M85.8 669.56L531.241 669.56L531.241 669.56L531.241 61.40002L531.241 61.40002L85.8 61.40002z" /></clipPath><clipPath id="21"><path id="" clip-rule="evenodd" transform="matrix(1 0 0 1 0 0)" d="M85.8 669.56L531.241 669.56L531.241 669.56L531.241 61.40002L531.241 61.40002L85.8 61.40002z" /></clipPath><clipPath id="22"><path id="" clip-rule="evenodd" transform="matrix(1 0 0 1 0 0)" d="M85.8 669.56L531.241 669.56L531.241 669.56L531.241 61.40002L531.241 61.40002L85.8 61.40002z" /></clipPath><clipPath id="23"><path id="" clip-rule="evenodd" transform="matrix(1 0 0 1 0 0)" d="M85.8 669.56L531.241 669.56L531.241 669.56L531.241 61.40002L531.241 61.40002L85.8 61.40002z" /></clipPath><clipPath id="24"><path id="" clip-rule="evenodd" transform="matrix(1 0 0 1 0 0)" d="M85.8 669.56L531.241 669.56L531.241 669.56L531.241 61.40002L531.241 61.40002L85.8 61.40002z" /></clipPath><clipPath id="25"><path id="" clip-rule="evenodd" transform="matrix(1 0 0 1 0 0)" d="M85.8 669.56L531.241 669.56L531.241 669.56L531.241 61.40002L531.241 61.40002L85.8 61.40002z" /></clipPath><clipPath id="26"><path id="" clip-rule="evenodd" transform="matrix(1 0 0 1 0 0)" d="M85.8 669.56L531.241 669.56L531.241 669.56L531.241 61.40002L531.241 61.40002L85.8 61.40002z" /></clipPath><clipPath id="27"><path id="" clip-rule="evenodd" transform="matrix(1 0 0 1 0 0)" d="M85.8 669.56L531.241 669.56L531.241 669.56L531.241 61.40002L531.241 61.40002L85.8 61.40002z" /></clipPath><clipPath id="28"><path id="" clip-rule="evenodd" transform="matrix(1 0 0 1 0 0)" d="M85.8 669.56L531.241 669.56L531.241 669.56L531.241 61.40002L531.241 61.40002L85.8 61.40002z" /></clipPath><clipPath id="29"><path id="" clip-rule="evenodd" transform="matrix(1 0 0 1 0 0)" d="M85.8 669.56L531.241 669.56L531.241 669.56L531.241 61.40002L531.241 61.40002L85.8 61.40002z" /></clipPath><clipPath id="30"><path id="" clip-rule="evenodd" transform="matrix(1 0 0 1 0 0)" d="M85.8 669.56L531.241 669.56L531.241 669.56L531.241 61.40002L531.241 61.40002L85.8 61.40002z" /></clipPath><clipPath id="31"><path id="" clip-rule="evenodd" transform="matrix(1 0 0 1 0 0)" d="M85.8 669.56L531.241 669.56L531.241 669.56L531.241 61.40002L531.241 61.40002L85.8 61.40002z" /></clipPath><clipPath id="32"><path id="" clip-rule="evenodd" transform="matrix(1 0 0 1 0 0)" d="M85.8 669.56L531.241 669.56L531.241 669.56L531.241 61.40002L531.241 61.40002L85.8 61.40002z" /></clipPath><clipPath id="33"><path id="" clip-rule="evenodd" transform="matrix(1 0 0 1 0 0)" d="M85.8 669.56L531.241 669.56L531.241 669.56L531.241 61.40002L531.241 61.40002L85.8 61.40002z" /></clipPath><clipPath id="34"><path id="" clip-rule="evenodd" transform="matrix(1 0 0 1 0 0)" d="M85.8 669.56L531.241 669.56L531.241 669.56L531.241 61.40002L531.241 61.40002L85.8 61.40002z" /></clipPath><clipPath id="35"><path id="" clip-rule="evenodd" transform="matrix(1 0 0 1 0 0)" d="M85.8 669.56L531.241 669.56L531.241 669.56L531.241 61.40002L531.241 61.40002L85.8 61.40002z" /></clipPath><clipPath id="36"><path id="" clip-rule="evenodd" transform="matrix(1 0 0 1 0 0)" d="M85.8 669.56L531.241 669.56L531.241 669.56L531.241 61.40002L531.241 61.40002L85.8 61.40002z" /></clipPath><clipPath id="37"><path id="" clip-rule="evenodd" transform="matrix(1 0 0 1 0 0)" d="M85.8 796.16L531.241 796.16L531.241 796.16L531.241 35.95996L531.241 35.95996L85.8 35.95996z" /></clipPath><clipPath id="38"><path id="" clip-rule="evenodd" transform="matrix(1 0 0 1 0 0)" d="M85.8 796.16L531.241 796.16L531.241 796.16L531.241 35.95996L531.241 35.95996L85.8 35.95996z" /></clipPath><clipPath id="39"><path id="" clip-rule="evenodd" transform="matrix(1 0 0 1 0 0)" d="M85.8 796.16L531.241 796.16L531.241 796.16L531.241 35.95996L531.241 35.95996L85.8 35.95996z" /></clipPath><clipPath id="40"><path id="" clip-rule="evenodd" transform="matrix(1 0 0 1 0 0)" d="M85.8 796.16L531.241 796.16L531.241 796.16L531.241 35.95996L531.241 35.95996L85.8 35.95996z" /></clipPath><clipPath id="41"><path id="" clip-rule="evenodd" transform="matrix(1 0 0 1 0 0)" d="M85.8 796.16L531.241 796.16L531.241 796.16L531.241 35.95996L531.241 35.95996L85.8 35.95996z" /></clipPath><clipPath id="42"><path id="" clip-rule="evenodd" transform="matrix(1 0 0 1 0 0)" d="M85.8 796.16L531.241 796.16L531.241 796.16L531.241 35.95996L531.241 35.95996L85.8 35.95996z" /></clipPath><clipPath id="43"><path id="" clip-rule="evenodd" transform="matrix(1 0 0 1 0 0)" d="M85.8 796.16L531.241 796.16L531.241 796.16L531.241 35.95996L531.241 35.95996L85.8 35.95996z" /></clipPath><clipPath id="44"><path id="" clip-rule="evenodd" transform="matrix(1 0 0 1 0 0)" d="M85.8 796.16L531.241 796.16L531.241 796.16L531.241 35.95996L531.241 35.95996L85.8 35.95996z" /></clipPath><clipPath id="45"><path id="" clip-rule="evenodd" transform="matrix(1 0 0 1 0 0)" d="M85.8 796.16L531.241 796.16L531.241 796.16L531.241 35.95996L531.241 35.95996L85.8 35.95996z" /></clipPath><clipPath id="46"><path id="" clip-rule="evenodd" transform="matrix(1 0 0 1 0 0)" d="M85.8 796.16L531.241 796.16L531.241 796.16L531.241 35.95996L531.241 35.95996L85.8 35.95996z" /></clipPath><clipPath id="47"><path id="" clip-rule="evenodd" transform="matrix(1 0 0 1 0 0)" d="M85.8 796.16L531.241 796.16L531.241 796.16L531.241 35.95996L531.241 35.95996L85.8 35.95996z" /></clipPath><clipPath id="48"><path id="" clip-rule="evenodd" transform="matrix(1 0 0 1 0 0)" d="M85.8 796.16L531.241 796.16L531.241 796.16L531.241 35.95996L531.241 35.95996L85.8 35.95996z" /></clipPath><clipPath id="49"><path id="" clip-rule="evenodd" transform="matrix(1 0 0 1 0 0)" d="M85.8 796.16L531.241 796.16L531.241 796.16L531.241 35.95996L531.241 35.95996L85.8 35.95996z" /></clipPath><clipPath id="50"><path id="" clip-rule="evenodd" transform="matrix(1 0 0 1 0 0)" d="M85.8 796.16L531.241 796.16L531.241 796.16L531.241 35.95996L531.241 35.95996L85.8 35.95996z" /></clipPath><clipPath id="51"><path id="" clip-rule="evenodd" transform="matrix(1 0 0 1 0 0)" d="M85.8 796.16L531.241 796.16L531.241 796.16L531.241 35.95996L531.241 35.95996L85.8 35.95996z" /></clipPath></defs><g transform="matrix(1.333333 0 0 1.333333 0 0)"><g clip-path="url(#1)"><g clip-path="url(#2)"></g><g clip-path="url(#3)"></g><path id="2" transform="matrix(1 0 0 -1 0 842)" d="M85.8 791.04L531.241 791.04L531.241 806.04L85.8 806.04z" stroke="none" fill="#FFFFFF" fill-rule="nonzero" /><g clip-path="url(#4)"></g><path id="3" transform="matrix(1 0 0 -1 0 842)" d="M91.8 766.2L531.24 766.2L531.24 779.04L91.8 779.04z" stroke="none" fill="#FFFFFF" fill-rule="nonzero" /><g clip-path="url(#5)"></g><g clip-path="url(#6)"></g><g clip-path="url(#7)"></g><g clip-path="url(#8)"></g><g clip-path="url(#9)"></g><g clip-path="url(#10)"></g><g clip-path="url(#11)"></g><g clip-path="url(#12)"></g><g clip-path="url(#13)"></g><g clip-path="url(#14)"></g><g clip-path="url(#15)"></g><g clip-path="url(#16)"></g><g clip-path="url(#17)"></g><g clip-path="url(#18)"></g><path id="45" transform="matrix(1 0 0 -1 0 842)" d="M91.8 751.56L531.24 751.56L531.24 766.199L91.8 766.199z" stroke="none" fill="#FFFFFF" fill-rule="nonzero" /><path id="46" transform="matrix(1 0 0 -1 0 842)" d="M91.8 737.16L531.24 737.16L531.24 751.56L91.8 751.56z" stroke="none" fill="#FFFFFF" fill-rule="nonzero" /><path id="91" transform="matrix(1 0 0 -1 0 842)" d="M91.8 722.76L531.24 722.76L531.24 737.16L91.8 737.16z" stroke="none" fill="#FFFFFF" fill-rule="nonzero" /><path id="128" transform="matrix(1 0 0 -1 0 842)" d="M91.8 708.36L531.24 708.36L531.24 722.76L91.8 722.76z" stroke="none" fill="#FFFFFF" fill-rule="nonzero" /><path id="130" transform="matrix(1 0 0 -1 0 842)" d="M91.8 693.96L531.24 693.96L531.24 708.36L91.8 708.36z" stroke="none" fill="#FFFFFF" fill-rule="nonzero" /><path id="158" transform="matrix(1 0 0 -1 0 842)" d="M91.8 679.32L531.24 679.32L531.24 693.96L91.8 693.96z" stroke="none" fill="#FFFFFF" fill-rule="nonzero" /><path id="159" transform="matrix(1 0 0 -1 0 842)" d="M91.8 664.92L531.24 664.92L531.24 679.32L91.8 679.32z" stroke="none" fill="#FFFFFF" fill-rule="nonzero" /><path id="189" transform="matrix(1 0 0 -1 0 842)" d="M91.8 650.28L531.24 650.28L531.24 664.92L91.8 664.92z" stroke="none" fill="#FFFFFF" fill-rule="nonzero" /><path id="190" transform="matrix(1 0 0 -1 0 842)" d="M91.8 635.88L531.24 635.88L531.24 650.28L91.8 650.28z" stroke="none" fill="#FFFFFF" fill-rule="nonzero" /><path id="212" transform="matrix(1 0 0 -1 0 842)" d="M91.8 621.48L531.24 621.48L531.24 635.88L91.8 635.88z" stroke="none" fill="#FFFFFF" fill-rule="nonzero" /><path id="230" transform="matrix(1 0 0 -1 0 842)" d="M91.8 606.84L531.24 606.84L531.24 621.479L91.8 621.479z" stroke="none" fill="#FFFFFF" fill-rule="nonzero" /><path id="231" transform="matrix(1 0 0 -1 0 842)" d="M91.8 592.44L531.24 592.44L531.24 606.84L91.8 606.84z" stroke="none" fill="#FFFFFF" fill-rule="nonzero" /><path id="258" transform="matrix(1 0 0 -1 0 842)" d="M91.8 578.04L531.24 578.04L531.24 592.44L91.8 592.44z" stroke="none" fill="#FFFFFF" fill-rule="nonzero" /><path id="282" transform="matrix(1 0 0 -1 0 842)" d="M91.8 563.4L531.24 563.4L531.24 578.04L91.8 578.04z" stroke="none" fill="#FFFFFF" fill-rule="nonzero" /><path id="283" transform="matrix(1 0 0 -1 0 842)" d="M91.8 549L531.24 549L531.24 563.4L91.8 563.4z" stroke="none" fill="#FFFFFF" fill-rule="nonzero" /><path id="300" transform="matrix(1 0 0 -1 0 842)" d="M91.8 534.6L531.24 534.6L531.24 549L91.8 549z" stroke="none" fill="#FFFFFF" fill-rule="nonzero" /><path id="319" transform="matrix(1 0 0 -1 0 842)" d="M91.8 519.96L531.24 519.96L531.24 534.6L91.8 534.6z" stroke="none" fill="#FFFFFF" fill-rule="nonzero" /><path id="320" transform="matrix(1 0 0 -1 0 842)" d="M91.8 505.32L531.24 505.32L531.24 519.959L91.8 519.959z" stroke="none" fill="#FFFFFF" fill-rule="nonzero" /><path id="321" transform="matrix(1 0 0 -1 0 842)" d="M91.8 490.92L531.24 490.92L531.24 505.32L91.8 505.32z" stroke="none" fill="#FFFFFF" fill-rule="nonzero" /><path id="359" transform="matrix(1 0 0 -1 0 842)" d="M91.8 476.28L531.24 476.28L531.24 490.92L91.8 490.92z" stroke="none" fill="#FFFFFF" fill-rule="nonzero" /><path id="360" transform="matrix(1 0 0 -1 0 842)" d="M91.8 461.88L531.24 461.88L531.24 476.28L91.8 476.28z" stroke="none" fill="#FFFFFF" fill-rule="nonzero" /><path id="378" transform="matrix(1 0 0 -1 0 842)" d="M91.8 447.48L531.24 447.48L531.24 461.88L91.8 461.88z" stroke="none" fill="#FFFFFF" fill-rule="nonzero" /><path id="426" transform="matrix(1 0 0 -1 0 842)" d="M91.8 432.84L531.24 432.84L531.24 447.48L91.8 447.48z" stroke="none" fill="#FFFFFF" fill-rule="nonzero" /><path id="427" transform="matrix(1 0 0 -1 0 842)" d="M91.8 418.44L531.24 418.44L531.24 432.84L91.8 432.84z" stroke="none" fill="#FFFFFF" fill-rule="nonzero" /><path id="443" transform="matrix(1 0 0 -1 0 842)" d="M91.8 404.04L531.24 404.04L531.24 418.44L91.8 418.44z" stroke="none" fill="#FFFFFF" fill-rule="nonzero" /><path id="491" transform="matrix(1 0 0 -1 0 842)" d="M91.8 389.4L531.24 389.4L531.24 404.039L91.8 404.039z" stroke="none" fill="#FFFFFF" fill-rule="nonzero" /><path id="492" transform="matrix(1 0 0 -1 0 842)" d="M91.8 375L531.24 375L531.24 389.4L91.8 389.4z" stroke="none" fill="#FFFFFF" fill-rule="nonzero" /><path id="519" transform="matrix(1 0 0 -1 0 842)" d="M91.8 360.6L531.24 360.6L531.24 375L91.8 375z" stroke="none" fill="#FFFFFF" fill-rule="nonzero" /><path id="538" transform="matrix(1 0 0 -1 0 842)" d="M91.8 345.96L531.24 345.96L531.24 360.6L91.8 360.6z" stroke="none" fill="#FFFFFF" fill-rule="nonzero" /><path id="539" transform="matrix(1 0 0 -1 0 842)" d="M91.8 331.56L531.24 331.56L531.24 345.96L91.8 345.96z" stroke="none" fill="#FFFFFF" fill-rule="nonzero" /><path id="585" transform="matrix(1 0 0 -1 0 842)" d="M91.8 317.16L531.24 317.16L531.24 331.56L91.8 331.56z" stroke="none" fill="#FFFFFF" fill-rule="nonzero" /><path id="632" transform="matrix(1 0 0 -1 0 842)" d="M91.8 302.76L531.24 302.76L531.24 317.16L91.8 317.16z" stroke="none" fill="#FFFFFF" fill-rule="nonzero" /><g clip-path="url(#19)"></g><g clip-path="url(#20)"></g><path id="697" transform="matrix(1 0 0 -1 0 842)" d="M91.8 288.36L531.24 288.36L531.24 302.76L91.8 302.76z" stroke="none" fill="#FFFFFF" fill-rule="nonzero" /><path id="699" transform="matrix(1 0 0 -1 0 842)" d="M91.8 273.72L531.24 273.72L531.24 288.36L91.8 288.36z" stroke="none" fill="#FFFFFF" fill-rule="nonzero" /><path id="700" transform="matrix(1 0 0 -1 0 842)" d="M91.8 259.08L531.24 259.08L531.24 273.719L91.8 273.719z" stroke="none" fill="#FFFFFF" fill-rule="nonzero" /><path id="701" transform="matrix(1 0 0 -1 0 842)" d="M91.8 244.68L531.24 244.68L531.24 259.08L91.8 259.08z" stroke="none" fill="#FFFFFF" fill-rule="nonzero" /><g clip-path="url(#21)"></g><g clip-path="url(#22)"></g><path id="772" transform="matrix(1 0 0 -1 0 842)" d="M91.8 230.28L531.24 230.28L531.24 244.68L91.8 244.68z" stroke="none" fill="#FFFFFF" fill-rule="nonzero" /><path id="819" transform="matrix(1 0 0 -1 0 842)" d="M91.8 215.88L531.24 215.88L531.24 230.28L91.8 230.28z" stroke="none" fill="#FFFFFF" fill-rule="nonzero" /><path id="830" transform="matrix(1 0 0 -1 0 842)" d="M91.8 201.48L531.24 201.48L531.24 215.88L91.8 215.88z" stroke="none" fill="#FFFFFF" fill-rule="nonzero" /><path id="860" transform="matrix(1 0 0 -1 0 842)" d="M91.8 186.84L531.24 186.84L531.24 201.48L91.8 201.48z" stroke="none" fill="#FFFFFF" fill-rule="nonzero" /><path id="861" transform="matrix(1 0 0 -1 0 842)" d="M91.8 172.44L531.24 172.44L531.24 186.84L91.8 186.84z" stroke="none" fill="#FFFFFF" fill-rule="nonzero" /><g clip-path="url(#23)"></g><g clip-path="url(#24)"></g><g clip-path="url(#25)"></g><g clip-path="url(#26)"></g><g clip-path="url(#27)"></g><g clip-path="url(#28)"></g><g clip-path="url(#29)"></g><g clip-path="url(#30)"></g><g clip-path="url(#31)"></g><g clip-path="url(#32)"></g><g clip-path="url(#33)"></g><g clip-path="url(#34)"></g><g clip-path="url(#35)"></g><g clip-path="url(#36)"></g><path id="899" transform="matrix(1 0 0 -1 0 842)" d="M85.8 147L531.241 147L531.241 162L85.8 162z" stroke="none" fill="#FFFFFF" fill-rule="nonzero" /><g clip-path="url(#37)"></g><path id="907" transform="matrix(1 0 0 -1 0 842)" d="M85.8 125.52L531.241 125.52L531.241 146.999L85.8 146.999z" stroke="none" fill="#FFFFFF" fill-rule="nonzero" /><g clip-path="url(#38)"></g><path id="924" transform="matrix(1 0 0 -1 0 842)" d="M85.8 103.92L531.241 103.92L531.241 125.52L85.8 125.52z" stroke="none" fill="#FFFFFF" fill-rule="nonzero" /><g clip-path="url(#39)"></g><path id="950" transform="matrix(1 0 0 -1 0 842)" d="M85.8 82.44L531.241 82.44L531.241 103.92L85.8 103.92z" stroke="none" fill="#FFFFFF" fill-rule="nonzero" /><g clip-path="url(#40)"></g><path id="980" transform="matrix(1 0 0 -1 0 842)" d="M85.8 68.4L531.241 68.4L531.241 82.44L85.8 82.44z" stroke="none" fill="#FFFFFF" fill-rule="nonzero" /><g clip-path="url(#41)"></g><path id="1010" transform="matrix(1 0 0 -1 0 842)" d="M120.36 45.84L531.241 45.84L531.241 60.84L120.36 60.84z" stroke="none" fill="#FFFFFF" fill-rule="nonzero" /><g clip-path="url(#42)"></g><g clip-path="url(#43)"></g><g clip-path="url(#44)"></g><g clip-path="url(#45)"></g><g clip-path="url(#46)"></g><g clip-path="url(#47)"></g><g clip-path="url(#48)"></g><g clip-path="url(#49)"></g><g clip-path="url(#50)"></g><g clip-path="url(#51)"></g></g></g></svg>