<svg xmlns="http://www.w3.org/2000/svg" xmlns:xlink="http://www.w3.org/1999/xlink" id="body_1" preserveAspectRatio="xMinYMin meet" viewBox="0 0 793 1123"><defs><clipPath id="1"><path id="" clip-rule="evenodd" transform="matrix(1 0 0 1 0 0)" d="M0 842L0 -0.03997803L0 -0.03997803L595.56 -0.03997803L595.56 -0.03997803L595.56 842L595.56 842L0 842z" /></clipPath><clipPath id="2"><path id="" clip-rule="evenodd" transform="matrix(1 0 0 1 0 0)" d="M529.44 806.48L541.919 806.48L541.919 806.48L541.919 792.32L541.919 792.32L529.44 792.32z" /></clipPath><clipPath id="3"><path id="" clip-rule="evenodd" transform="matrix(1 0 0 1 0 0)" d="M529.44 806.48L541.919 806.48L541.919 806.48L541.919 792.32L541.919 792.32L529.44 792.32z" /></clipPath><clipPath id="4"><path id="" clip-rule="evenodd" transform="matrix(1 0 0 1 0 0)" d="M85.75 435.381L396.3 435.381L396.3 435.381L396.3 605.531L396.3 605.531L85.75 605.531z" /></clipPath><clipPath id="5"><path id="" clip-rule="evenodd" transform="matrix(1 0 0 1 0 0)" d="M36 92.12L560.04 92.12L560.04 92.12L560.04 76.76001L560.04 76.76001L36 76.76001z" /></clipPath><clipPath id="6"><path id="" clip-rule="evenodd" transform="matrix(1 0 0 1 0 0)" d="M36 92.12L560.04 92.12L560.04 92.12L560.04 76.76001L560.04 76.76001L36 76.76001z" /></clipPath><clipPath id="7"><path id="" clip-rule="evenodd" transform="matrix(1 0 0 1 0 0)" d="M36 238.4L58.8 238.4L58.8 238.4L58.8 92.12L58.8 92.12L36 92.12z" /></clipPath><clipPath id="8"><path id="" clip-rule="evenodd" transform="matrix(1 0 0 1 0 0)" d="M85.8 238.4L531.241 238.4L531.241 238.4L531.241 92.12L531.241 92.12L85.8 92.12z" /></clipPath><clipPath id="9"><path id="" clip-rule="evenodd" transform="matrix(1 0 0 1 0 0)" d="M85.8 238.4L531.241 238.4L531.241 238.4L531.241 92.12L531.241 92.12L85.8 92.12z" /></clipPath><clipPath id="10"><path id="" clip-rule="evenodd" transform="matrix(1 0 0 1 0 0)" d="M85.8 238.4L531.241 238.4L531.241 238.4L531.241 92.12L531.241 92.12L85.8 92.12z" /></clipPath><clipPath id="11"><path id="" clip-rule="evenodd" transform="matrix(1 0 0 1 0 0)" d="M85.8 238.4L531.241 238.4L531.241 238.4L531.241 92.12L531.241 92.12L85.8 92.12z" /></clipPath><clipPath id="12"><path id="" clip-rule="evenodd" transform="matrix(1 0 0 1 0 0)" d="M85.8 238.4L531.241 238.4L531.241 238.4L531.241 92.12L531.241 92.12L85.8 92.12z" /></clipPath><clipPath id="13"><path id="" clip-rule="evenodd" transform="matrix(1 0 0 1 0 0)" d="M85.8 238.4L531.241 238.4L531.241 238.4L531.241 92.12L531.241 92.12L85.8 92.12z" /></clipPath><clipPath id="14"><path id="" clip-rule="evenodd" transform="matrix(1 0 0 1 0 0)" d="M85.8 238.4L531.241 238.4L531.241 238.4L531.241 92.12L531.241 92.12L85.8 92.12z" /></clipPath><clipPath id="15"><path id="" clip-rule="evenodd" transform="matrix(1 0 0 1 0 0)" d="M85.8 238.4L531.241 238.4L531.241 238.4L531.241 92.12L531.241 92.12L85.8 92.12z" /></clipPath><clipPath id="16"><path id="" clip-rule="evenodd" transform="matrix(1 0 0 1 0 0)" d="M85.8 238.4L531.241 238.4L531.241 238.4L531.241 92.12L531.241 92.12L85.8 92.12z" /></clipPath><clipPath id="17"><path id="" clip-rule="evenodd" transform="matrix(1 0 0 1 0 0)" d="M85.8 238.4L531.241 238.4L531.241 238.4L531.241 92.12L531.241 92.12L85.8 92.12z" /></clipPath><clipPath id="18"><path id="" clip-rule="evenodd" transform="matrix(1 0 0 1 0 0)" d="M85.8 238.4L531.241 238.4L531.241 238.4L531.241 92.12L531.241 92.12L85.8 92.12z" /></clipPath><clipPath id="19"><path id="" clip-rule="evenodd" transform="matrix(1 0 0 1 0 0)" d="M85.8 238.4L531.241 238.4L531.241 238.4L531.241 92.12L531.241 92.12L85.8 92.12z" /></clipPath><clipPath id="20"><path id="" clip-rule="evenodd" transform="matrix(1 0 0 1 0 0)" d="M85.8 238.4L531.241 238.4L531.241 238.4L531.241 92.12L531.241 92.12L85.8 92.12z" /></clipPath><clipPath id="21"><path id="" clip-rule="evenodd" transform="matrix(1 0 0 1 0 0)" d="M531.24 238.4L560.04 238.4L560.04 238.4L560.04 92.12L560.04 92.12L531.24 92.12z" /></clipPath><clipPath id="22"><path id="" clip-rule="evenodd" transform="matrix(1 0 0 1 0 0)" d="M36 605.48L58.8 605.48L58.8 605.48L58.8 238.4L58.8 238.4L36 238.4z" /></clipPath><clipPath id="23"><path id="" clip-rule="evenodd" transform="matrix(1 0 0 1 0 0)" d="M58.8 605.48L85.8 605.48L85.8 605.48L85.8 238.4L85.8 238.4L58.8 238.4z" /></clipPath><clipPath id="24"><path id="" clip-rule="evenodd" transform="matrix(1 0 0 1 0 0)" d="M58.8 605.48L85.8 605.48L85.8 605.48L85.8 238.4L85.8 238.4L58.8 238.4z" /></clipPath><clipPath id="25"><path id="" clip-rule="evenodd" transform="matrix(1 0 0 1 0 0)" d="M85.8 605.48L531.241 605.48L531.241 605.48L531.241 238.4L531.241 238.4L85.8 238.4z" /></clipPath><clipPath id="26"><path id="" clip-rule="evenodd" transform="matrix(1 0 0 1 0 0)" d="M85.8 605.48L531.241 605.48L531.241 605.48L531.241 238.4L531.241 238.4L85.8 238.4z" /></clipPath><clipPath id="27"><path id="" clip-rule="evenodd" transform="matrix(1 0 0 1 0 0)" d="M85.8 605.48L531.241 605.48L531.241 605.48L531.241 238.4L531.241 238.4L85.8 238.4z" /></clipPath><clipPath id="28"><path id="" clip-rule="evenodd" transform="matrix(1 0 0 1 0 0)" d="M85.8 605.48L531.241 605.48L531.241 605.48L531.241 238.4L531.241 238.4L85.8 238.4z" /></clipPath><clipPath id="29"><path id="" clip-rule="evenodd" transform="matrix(1 0 0 1 0 0)" d="M85.8 605.48L531.241 605.48L531.241 605.48L531.241 238.4L531.241 238.4L85.8 238.4z" /></clipPath><clipPath id="30"><path id="" clip-rule="evenodd" transform="matrix(1 0 0 1 0 0)" d="M85.8 605.48L531.241 605.48L531.241 605.48L531.241 238.4L531.241 238.4L85.8 238.4z" /></clipPath><clipPath id="31"><path id="" clip-rule="evenodd" transform="matrix(1 0 0 1 0 0)" d="M85.8 605.48L531.241 605.48L531.241 605.48L531.241 238.4L531.241 238.4L85.8 238.4z" /></clipPath><clipPath id="32"><path id="" clip-rule="evenodd" transform="matrix(1 0 0 1 0 0)" d="M85.8 605.48L531.241 605.48L531.241 605.48L531.241 238.4L531.241 238.4L85.8 238.4z" /></clipPath><clipPath id="33"><path id="" clip-rule="evenodd" transform="matrix(1 0 0 1 0 0)" d="M85.8 605.48L531.241 605.48L531.241 605.48L531.241 238.4L531.241 238.4L85.8 238.4z" /></clipPath><clipPath id="34"><path id="" clip-rule="evenodd" transform="matrix(1 0 0 1 0 0)" d="M85.8 605.48L531.241 605.48L531.241 605.48L531.241 238.4L531.241 238.4L85.8 238.4z" /></clipPath><clipPath id="35"><path id="" clip-rule="evenodd" transform="matrix(1 0 0 1 0 0)" d="M531.24 605.48L560.04 605.48L560.04 605.48L560.04 238.4L560.04 238.4L531.24 238.4z" /></clipPath><clipPath id="36"><path id="" clip-rule="evenodd" transform="matrix(1 0 0 1 0 0)" d="M531.24 605.48L560.04 605.48L560.04 605.48L560.04 238.4L560.04 238.4L531.24 238.4z" /></clipPath><clipPath id="37"><path id="" clip-rule="evenodd" transform="matrix(1 0 0 1 0 0)" d="M36 798.92L58.8 798.92L58.8 798.92L58.8 605.48L58.8 605.48L36 605.48z" /></clipPath><clipPath id="38"><path id="" clip-rule="evenodd" transform="matrix(1 0 0 1 0 0)" d="M58.8 798.92L85.8 798.92L85.8 798.92L85.8 605.48L85.8 605.48L58.8 605.48z" /></clipPath><clipPath id="39"><path id="" clip-rule="evenodd" transform="matrix(1 0 0 1 0 0)" d="M58.8 798.92L85.8 798.92L85.8 798.92L85.8 605.48L85.8 605.48L58.8 605.48z" /></clipPath><clipPath id="40"><path id="" clip-rule="evenodd" transform="matrix(1 0 0 1 0 0)" d="M85.8 798.92L531.241 798.92L531.241 798.92L531.241 605.48L531.241 605.48L85.8 605.48z" /></clipPath><clipPath id="41"><path id="" clip-rule="evenodd" transform="matrix(1 0 0 1 0 0)" d="M85.8 798.92L531.241 798.92L531.241 798.92L531.241 605.48L531.241 605.48L85.8 605.48z" /></clipPath><clipPath id="42"><path id="" clip-rule="evenodd" transform="matrix(1 0 0 1 0 0)" d="M85.8 798.92L531.241 798.92L531.241 798.92L531.241 605.48L531.241 605.48L85.8 605.48z" /></clipPath><clipPath id="43"><path id="" clip-rule="evenodd" transform="matrix(1 0 0 1 0 0)" d="M85.8 798.92L531.241 798.92L531.241 798.92L531.241 605.48L531.241 605.48L85.8 605.48z" /></clipPath><clipPath id="44"><path id="" clip-rule="evenodd" transform="matrix(1 0 0 1 0 0)" d="M85.8 798.92L531.241 798.92L531.241 798.92L531.241 605.48L531.241 605.48L85.8 605.48z" /></clipPath><clipPath id="45"><path id="" clip-rule="evenodd" transform="matrix(1 0 0 1 0 0)" d="M85.8 798.92L531.241 798.92L531.241 798.92L531.241 605.48L531.241 605.48L85.8 605.48z" /></clipPath><clipPath id="46"><path id="" clip-rule="evenodd" transform="matrix(1 0 0 1 0 0)" d="M85.8 798.92L531.241 798.92L531.241 798.92L531.241 605.48L531.241 605.48L85.8 605.48z" /></clipPath><clipPath id="47"><path id="" clip-rule="evenodd" transform="matrix(1 0 0 1 0 0)" d="M85.8 798.92L531.241 798.92L531.241 798.92L531.241 605.48L531.241 605.48L85.8 605.48z" /></clipPath><clipPath id="48"><path id="" clip-rule="evenodd" transform="matrix(1 0 0 1 0 0)" d="M85.8 798.92L531.241 798.92L531.241 798.92L531.241 605.48L531.241 605.48L85.8 605.48z" /></clipPath><clipPath id="49"><path id="" clip-rule="evenodd" transform="matrix(1 0 0 1 0 0)" d="M85.8 798.92L531.241 798.92L531.241 798.92L531.241 605.48L531.241 605.48L85.8 605.48z" /></clipPath><clipPath id="50"><path id="" clip-rule="evenodd" transform="matrix(1 0 0 1 0 0)" d="M85.8 798.92L531.241 798.92L531.241 798.92L531.241 605.48L531.241 605.48L85.8 605.48z" /></clipPath><clipPath id="51"><path id="" clip-rule="evenodd" transform="matrix(1 0 0 1 0 0)" d="M85.8 798.92L531.241 798.92L531.241 798.92L531.241 605.48L531.241 605.48L85.8 605.48z" /></clipPath><clipPath id="52"><path id="" clip-rule="evenodd" transform="matrix(1 0 0 1 0 0)" d="M85.8 798.92L531.241 798.92L531.241 798.92L531.241 605.48L531.241 605.48L85.8 605.48z" /></clipPath><clipPath id="53"><path id="" clip-rule="evenodd" transform="matrix(1 0 0 1 0 0)" d="M85.8 798.92L531.241 798.92L531.241 798.92L531.241 605.48L531.241 605.48L85.8 605.48z" /></clipPath><clipPath id="54"><path id="" clip-rule="evenodd" transform="matrix(1 0 0 1 0 0)" d="M85.8 798.92L531.241 798.92L531.241 798.92L531.241 605.48L531.241 605.48L85.8 605.48z" /></clipPath><clipPath id="55"><path id="" clip-rule="evenodd" transform="matrix(1 0 0 1 0 0)" d="M85.8 798.92L531.241 798.92L531.241 798.92L531.241 605.48L531.241 605.48L85.8 605.48z" /></clipPath><clipPath id="56"><path id="" clip-rule="evenodd" transform="matrix(1 0 0 1 0 0)" d="M85.8 798.92L531.241 798.92L531.241 798.92L531.241 605.48L531.241 605.48L85.8 605.48z" /></clipPath><clipPath id="57"><path id="" clip-rule="evenodd" transform="matrix(1 0 0 1 0 0)" d="M85.8 798.92L531.241 798.92L531.241 798.92L531.241 605.48L531.241 605.48L85.8 605.48z" /></clipPath><clipPath id="58"><path id="" clip-rule="evenodd" transform="matrix(1 0 0 1 0 0)" d="M85.8 798.92L531.241 798.92L531.241 798.92L531.241 605.48L531.241 605.48L85.8 605.48z" /></clipPath><clipPath id="59"><path id="" clip-rule="evenodd" transform="matrix(1 0 0 1 0 0)" d="M85.8 798.92L531.241 798.92L531.241 798.92L531.241 605.48L531.241 605.48L85.8 605.48z" /></clipPath><clipPath id="60"><path id="" clip-rule="evenodd" transform="matrix(1 0 0 1 0 0)" d="M85.8 798.92L531.241 798.92L531.241 798.92L531.241 605.48L531.241 605.48L85.8 605.48z" /></clipPath><clipPath id="61"><path id="" clip-rule="evenodd" transform="matrix(1 0 0 1 0 0)" d="M85.8 798.92L531.241 798.92L531.241 798.92L531.241 605.48L531.241 605.48L85.8 605.48z" /></clipPath><clipPath id="62"><path id="" clip-rule="evenodd" transform="matrix(1 0 0 1 0 0)" d="M531.24 798.92L560.04 798.92L560.04 798.92L560.04 605.48L560.04 605.48L531.24 605.48z" /></clipPath><clipPath id="63"><path id="" clip-rule="evenodd" transform="matrix(1 0 0 1 0 0)" d="M531.24 798.92L560.04 798.92L560.04 798.92L560.04 605.48L560.04 605.48L531.24 605.48z" /></clipPath></defs><g transform="matrix(1.333333 0 0 1.333333 0 0)"><g clip-path="url(#1)"><g clip-path="url(#2)"></g><g clip-path="url(#3)"></g><g clip-path="url(#4)"><g transform="matrix(0.3961097 0 0 0.3956977 85.74999 435.3812)"><g transform="matrix(1 0 0 1 0 0)"><image x="0" y="0" xlink:href="img_01.png" width="784" height="430" /></g></g></g><g clip-path="url(#5)"></g><g clip-path="url(#6)"></g><g clip-path="url(#7)"></g><g clip-path="url(#8)"></g><g clip-path="url(#9)"></g><g clip-path="url(#10)"></g><g clip-path="url(#11)"></g><g clip-path="url(#12)"></g><g clip-path="url(#13)"></g><g clip-path="url(#14)"></g><g clip-path="url(#15)"></g><g clip-path="url(#16)"></g><g clip-path="url(#17)"></g><g clip-path="url(#18)"></g><g clip-path="url(#19)"></g><g clip-path="url(#20)"></g><g clip-path="url(#21)"></g><g clip-path="url(#22)"></g><g clip-path="url(#23)"></g><g clip-path="url(#24)"></g><g clip-path="url(#25)"></g><g clip-path="url(#26)"></g><g clip-path="url(#27)"></g><g clip-path="url(#28)"></g><g clip-path="url(#29)"></g><g clip-path="url(#30)"></g><g clip-path="url(#31)"></g><g clip-path="url(#32)"></g><g clip-path="url(#33)"></g><g clip-path="url(#34)"></g><g clip-path="url(#35)"></g><g clip-path="url(#36)"></g><g clip-path="url(#37)"></g><g clip-path="url(#38)"></g><g clip-path="url(#39)"></g><g clip-path="url(#40)"></g><g clip-path="url(#41)"></g><g clip-path="url(#42)"></g><g clip-path="url(#43)"></g><g clip-path="url(#44)"></g><g clip-path="url(#45)"></g><g clip-path="url(#46)"></g><g clip-path="url(#47)"></g><g clip-path="url(#48)"></g><g clip-path="url(#49)"></g><g clip-path="url(#50)"></g><g clip-path="url(#51)"></g><g clip-path="url(#52)"></g><g clip-path="url(#53)"></g><g clip-path="url(#54)"></g><g clip-path="url(#55)"></g><g clip-path="url(#56)"></g><g clip-path="url(#57)"></g><g clip-path="url(#58)"></g><g clip-path="url(#59)"></g><g clip-path="url(#60)"></g><g clip-path="url(#61)"></g><g clip-path="url(#62)"></g><g clip-path="url(#63)"></g></g></g></svg>