<svg xmlns="http://www.w3.org/2000/svg" xmlns:xlink="http://www.w3.org/1999/xlink" id="body_2" preserveAspectRatio="xMinYMin meet" viewBox="0 0 793 1123"><defs><clipPath id="1"><path id="" clip-rule="evenodd" transform="matrix(1 0 0 1 0 0)" d="M0 842L0 -0.03997803L0 -0.03997803L595.56 -0.03997803L595.56 -0.03997803L595.56 842L595.56 842L0 842z" /></clipPath><clipPath id="2"><path id="" clip-rule="evenodd" transform="matrix(1 0 0 1 0 0)" d="M529.44 806.48L541.919 806.48L541.919 806.48L541.919 792.32L541.919 792.32L529.44 792.32z" /></clipPath><clipPath id="3"><path id="" clip-rule="evenodd" transform="matrix(1 0 0 1 0 0)" d="M529.44 806.48L541.919 806.48L541.919 806.48L541.919 792.32L541.919 792.32L529.44 792.32z" /></clipPath><clipPath id="4"><path id="" clip-rule="evenodd" transform="matrix(1 0 0 1 0 0)" d="M85.8 623.24L531.241 623.24L531.241 623.24L531.241 35.95996L531.241 35.95996L85.8 35.95996z" /></clipPath><clipPath id="5"><path id="" clip-rule="evenodd" transform="matrix(1 0 0 1 0 0)" d="M85.8 623.24L531.241 623.24L531.241 623.24L531.241 35.95996L531.241 35.95996L85.8 35.95996z" /></clipPath><clipPath id="6"><path id="" clip-rule="evenodd" transform="matrix(1 0 0 1 0 0)" d="M85.8 623.24L531.241 623.24L531.241 623.24L531.241 35.95996L531.241 35.95996L85.8 35.95996z" /></clipPath><clipPath id="7"><path id="" clip-rule="evenodd" transform="matrix(1 0 0 1 0 0)" d="M85.8 623.24L531.241 623.24L531.241 623.24L531.241 35.95996L531.241 35.95996L85.8 35.95996z" /></clipPath><clipPath id="8"><path id="" clip-rule="evenodd" transform="matrix(1 0 0 1 0 0)" d="M85.8 623.24L531.241 623.24L531.241 623.24L531.241 35.95996L531.241 35.95996L85.8 35.95996z" /></clipPath><clipPath id="9"><path id="" clip-rule="evenodd" transform="matrix(1 0 0 1 0 0)" d="M85.8 623.24L531.241 623.24L531.241 623.24L531.241 35.95996L531.241 35.95996L85.8 35.95996z" /></clipPath><clipPath id="10"><path id="" clip-rule="evenodd" transform="matrix(1 0 0 1 0 0)" d="M85.8 623.24L531.241 623.24L531.241 623.24L531.241 35.95996L531.241 35.95996L85.8 35.95996z" /></clipPath><clipPath id="11"><path id="" clip-rule="evenodd" transform="matrix(1 0 0 1 0 0)" d="M85.8 623.24L531.241 623.24L531.241 623.24L531.241 35.95996L531.241 35.95996L85.8 35.95996z" /></clipPath><clipPath id="12"><path id="" clip-rule="evenodd" transform="matrix(1 0 0 1 0 0)" d="M85.8 623.24L531.241 623.24L531.241 623.24L531.241 35.95996L531.241 35.95996L85.8 35.95996z" /></clipPath><clipPath id="13"><path id="" clip-rule="evenodd" transform="matrix(1 0 0 1 0 0)" d="M85.8 623.24L531.241 623.24L531.241 623.24L531.241 35.95996L531.241 35.95996L85.8 35.95996z" /></clipPath><clipPath id="14"><path id="" clip-rule="evenodd" transform="matrix(1 0 0 1 0 0)" d="M85.8 623.24L531.241 623.24L531.241 623.24L531.241 35.95996L531.241 35.95996L85.8 35.95996z" /></clipPath><clipPath id="15"><path id="" clip-rule="evenodd" transform="matrix(1 0 0 1 0 0)" d="M85.8 623.24L531.241 623.24L531.241 623.24L531.241 35.95996L531.241 35.95996L85.8 35.95996z" /></clipPath><clipPath id="16"><path id="" clip-rule="evenodd" transform="matrix(1 0 0 1 0 0)" d="M85.8 623.24L531.241 623.24L531.241 623.24L531.241 35.95996L531.241 35.95996L85.8 35.95996z" /></clipPath><clipPath id="17"><path id="" clip-rule="evenodd" transform="matrix(1 0 0 1 0 0)" d="M85.8 623.24L531.241 623.24L531.241 623.24L531.241 35.95996L531.241 35.95996L85.8 35.95996z" /></clipPath><clipPath id="18"><path id="" clip-rule="evenodd" transform="matrix(1 0 0 1 0 0)" d="M85.8 623.24L531.241 623.24L531.241 623.24L531.241 35.95996L531.241 35.95996L85.8 35.95996z" /></clipPath><clipPath id="19"><path id="" clip-rule="evenodd" transform="matrix(1 0 0 1 0 0)" d="M85.8 623.24L531.241 623.24L531.241 623.24L531.241 35.95996L531.241 35.95996L85.8 35.95996z" /></clipPath><clipPath id="20"><path id="" clip-rule="evenodd" transform="matrix(1 0 0 1 0 0)" d="M85.8 623.24L531.241 623.24L531.241 623.24L531.241 35.95996L531.241 35.95996L85.8 35.95996z" /></clipPath><clipPath id="21"><path id="" clip-rule="evenodd" transform="matrix(1 0 0 1 0 0)" d="M36 783.56L58.8 783.56L58.8 783.56L58.8 623.239L58.8 623.239L36 623.239z" /></clipPath><clipPath id="22"><path id="" clip-rule="evenodd" transform="matrix(1 0 0 1 0 0)" d="M85.8 783.56L531.241 783.56L531.241 783.56L531.241 623.239L531.241 623.239L85.8 623.239z" /></clipPath><clipPath id="23"><path id="" clip-rule="evenodd" transform="matrix(1 0 0 1 0 0)" d="M85.8 783.56L531.241 783.56L531.241 783.56L531.241 623.239L531.241 623.239L85.8 623.239z" /></clipPath><clipPath id="24"><path id="" clip-rule="evenodd" transform="matrix(1 0 0 1 0 0)" d="M85.8 783.56L531.241 783.56L531.241 783.56L531.241 623.239L531.241 623.239L85.8 623.239z" /></clipPath><clipPath id="25"><path id="" clip-rule="evenodd" transform="matrix(1 0 0 1 0 0)" d="M85.8 783.56L531.241 783.56L531.241 783.56L531.241 623.239L531.241 623.239L85.8 623.239z" /></clipPath><clipPath id="26"><path id="" clip-rule="evenodd" transform="matrix(1 0 0 1 0 0)" d="M85.8 783.56L531.241 783.56L531.241 783.56L531.241 623.239L531.241 623.239L85.8 623.239z" /></clipPath><clipPath id="27"><path id="" clip-rule="evenodd" transform="matrix(1 0 0 1 0 0)" d="M85.8 783.56L531.241 783.56L531.241 783.56L531.241 623.239L531.241 623.239L85.8 623.239z" /></clipPath><clipPath id="28"><path id="" clip-rule="evenodd" transform="matrix(1 0 0 1 0 0)" d="M85.8 783.56L531.241 783.56L531.241 783.56L531.241 623.239L531.241 623.239L85.8 623.239z" /></clipPath><clipPath id="29"><path id="" clip-rule="evenodd" transform="matrix(1 0 0 1 0 0)" d="M85.8 783.56L531.241 783.56L531.241 783.56L531.241 623.239L531.241 623.239L85.8 623.239z" /></clipPath><clipPath id="30"><path id="" clip-rule="evenodd" transform="matrix(1 0 0 1 0 0)" d="M85.8 783.56L531.241 783.56L531.241 783.56L531.241 623.239L531.241 623.239L85.8 623.239z" /></clipPath><clipPath id="31"><path id="" clip-rule="evenodd" transform="matrix(1 0 0 1 0 0)" d="M531.24 783.56L560.04 783.56L560.04 783.56L560.04 623.239L560.04 623.239L531.24 623.239z" /></clipPath></defs><g transform="matrix(1.333333 0 0 1.333333 0 0)"><g clip-path="url(#1)"><g clip-path="url(#2)"></g><g clip-path="url(#3)"></g><path id="2" transform="matrix(1 0 0 -1 0 842)" d="M85.8 776.04L531.241 776.04L531.241 792L85.8 792z" stroke="none" fill="#FFFFFF" fill-rule="nonzero" /><g clip-path="url(#4)"></g><g clip-path="url(#5)"></g><path id="74" transform="matrix(1 0 0 -1 0 842)" d="M85.8 746.16L531.241 746.16L531.241 776.04L85.8 776.04z" stroke="none" fill="#FFFFFF" fill-rule="nonzero" /><g clip-path="url(#6)"></g><path id="124" transform="matrix(1 0 0 -1 0 842)" d="M85.8 730.2L531.241 730.2L531.241 746.161L85.8 746.161z" stroke="none" fill="#FFFFFF" fill-rule="nonzero" /><g clip-path="url(#7)"></g><g clip-path="url(#8)"></g><path id="192" transform="matrix(1 0 0 -1 0 842)" d="M85.8 714.24L531.241 714.24L531.241 730.2L85.8 730.2z" stroke="none" fill="#FFFFFF" fill-rule="nonzero" /><g clip-path="url(#9)"></g><path id="257" transform="matrix(1 0 0 -1 0 842)" d="M85.8 698.28L531.241 698.28L531.241 714.2401L85.8 714.2401z" stroke="none" fill="#FFFFFF" fill-rule="nonzero" /><g clip-path="url(#10)"></g><g clip-path="url(#11)"></g><path id="329" transform="matrix(1 0 0 -1 0 842)" d="M85.8 668.28L531.241 668.28L531.241 698.281L85.8 698.281z" stroke="none" fill="#FFFFFF" fill-rule="nonzero" /><g clip-path="url(#12)"></g><path id="392" transform="matrix(1 0 0 -1 0 842)" d="M85.8 652.32L531.241 652.32L531.241 668.28L85.8 668.28z" stroke="none" fill="#FFFFFF" fill-rule="nonzero" /><g clip-path="url(#13)"></g><g clip-path="url(#14)"></g><path id="455" transform="matrix(1 0 0 -1 0 842)" d="M85.8 636.36L531.241 636.36L531.241 652.32L85.8 652.32z" stroke="none" fill="#FFFFFF" fill-rule="nonzero" /><g clip-path="url(#15)"></g><g clip-path="url(#16)"></g><path id="523" transform="matrix(1 0 0 -1 0 842)" d="M85.8 620.4L531.241 620.4L531.241 636.361L85.8 636.361z" stroke="none" fill="#FFFFFF" fill-rule="nonzero" /><g clip-path="url(#17)"></g><g clip-path="url(#18)"></g><g clip-path="url(#19)"></g><g clip-path="url(#20)"></g><g clip-path="url(#21)"></g><g clip-path="url(#22)"></g><g clip-path="url(#23)"></g><g clip-path="url(#24)"></g><g clip-path="url(#25)"></g><g clip-path="url(#26)"></g><g clip-path="url(#27)"></g><g clip-path="url(#28)"></g><g clip-path="url(#29)"></g><g clip-path="url(#30)"></g><g clip-path="url(#31)"></g></g></g></svg>