<svg xmlns="http://www.w3.org/2000/svg" xmlns:xlink="http://www.w3.org/1999/xlink" id="body_10" preserveAspectRatio="xMinYMin meet" viewBox="0 0 793 1123"><defs><clipPath id="1"><path id="" clip-rule="evenodd" transform="matrix(1 0 0 1 0 0)" d="M0 842L0 -0.03997803L0 -0.03997803L595.56 -0.03997803L595.56 -0.03997803L595.56 842L595.56 842L0 842z" /></clipPath><clipPath id="2"><path id="" clip-rule="evenodd" transform="matrix(1 0 0 1 0 0)" d="M151.2 98.12L491.4 98.12L491.4 98.12L491.4 32L491.4 32L151.2 32z" /></clipPath><clipPath id="3"><path id="" clip-rule="evenodd" transform="matrix(1 0 0 1 0 0)" d="M151.2 98.12L491.4 98.12L491.4 98.12L491.4 32L491.4 32L151.2 32z" /></clipPath><clipPath id="4"><path id="" clip-rule="evenodd" transform="matrix(1 0 0 1 0 0)" d="M151.2 98.12L491.4 98.12L491.4 98.12L491.4 32L491.4 32L151.2 32z" /></clipPath><clipPath id="5"><path id="" clip-rule="evenodd" transform="matrix(1 0 0 1 0 0)" d="M89.4 820.76L120.36 820.76L120.36 820.76L120.36 98.12L120.36 98.12L89.4 98.12z" /></clipPath><clipPath id="6"><path id="" clip-rule="evenodd" transform="matrix(1 0 0 1 0 0)" d="M120.36 820.76L151.2 820.76L151.2 820.76L151.2 98.12L151.2 98.12L120.36 98.12z" /></clipPath><clipPath id="7"><path id="" clip-rule="evenodd" transform="matrix(1 0 0 1 0 0)" d="M120.36 820.76L151.2 820.76L151.2 820.76L151.2 98.12L151.2 98.12L120.36 98.12z" /></clipPath><clipPath id="8"><path id="" clip-rule="evenodd" transform="matrix(1 0 0 1 0 0)" d="M151.2 820.76L491.4 820.76L491.4 820.76L491.4 98.12L491.4 98.12L151.2 98.12z" /></clipPath><clipPath id="9"><path id="" clip-rule="evenodd" transform="matrix(1 0 0 1 0 0)" d="M151.2 820.76L491.4 820.76L491.4 820.76L491.4 98.12L491.4 98.12L151.2 98.12z" /></clipPath><clipPath id="10"><path id="" clip-rule="evenodd" transform="matrix(1 0 0 1 0 0)" d="M151.2 820.76L491.4 820.76L491.4 820.76L491.4 98.12L491.4 98.12L151.2 98.12z" /></clipPath><clipPath id="11"><path id="" clip-rule="evenodd" transform="matrix(1 0 0 1 0 0)" d="M151.2 820.76L491.4 820.76L491.4 820.76L491.4 98.12L491.4 98.12L151.2 98.12z" /></clipPath><clipPath id="12"><path id="" clip-rule="evenodd" transform="matrix(1 0 0 1 0 0)" d="M151.2 820.76L491.4 820.76L491.4 820.76L491.4 98.12L491.4 98.12L151.2 98.12z" /></clipPath><clipPath id="13"><path id="" clip-rule="evenodd" transform="matrix(1 0 0 1 0 0)" d="M151.2 820.76L491.4 820.76L491.4 820.76L491.4 98.12L491.4 98.12L151.2 98.12z" /></clipPath><clipPath id="14"><path id="" clip-rule="evenodd" transform="matrix(1 0 0 1 0 0)" d="M151.2 820.76L491.4 820.76L491.4 820.76L491.4 98.12L491.4 98.12L151.2 98.12z" /></clipPath><clipPath id="15"><path id="" clip-rule="evenodd" transform="matrix(1 0 0 1 0 0)" d="M151.2 820.76L491.4 820.76L491.4 820.76L491.4 98.12L491.4 98.12L151.2 98.12z" /></clipPath><clipPath id="16"><path id="" clip-rule="evenodd" transform="matrix(1 0 0 1 0 0)" d="M151.2 820.76L491.4 820.76L491.4 820.76L491.4 98.12L491.4 98.12L151.2 98.12z" /></clipPath><clipPath id="17"><path id="" clip-rule="evenodd" transform="matrix(1 0 0 1 0 0)" d="M151.2 820.76L491.4 820.76L491.4 820.76L491.4 98.12L491.4 98.12L151.2 98.12z" /></clipPath><clipPath id="18"><path id="" clip-rule="evenodd" transform="matrix(1 0 0 1 0 0)" d="M151.2 820.76L491.4 820.76L491.4 820.76L491.4 98.12L491.4 98.12L151.2 98.12z" /></clipPath><clipPath id="19"><path id="" clip-rule="evenodd" transform="matrix(1 0 0 1 0 0)" d="M151.2 820.76L491.4 820.76L491.4 820.76L491.4 98.12L491.4 98.12L151.2 98.12z" /></clipPath><clipPath id="20"><path id="" clip-rule="evenodd" transform="matrix(1 0 0 1 0 0)" d="M151.2 820.76L491.4 820.76L491.4 820.76L491.4 98.12L491.4 98.12L151.2 98.12z" /></clipPath><clipPath id="21"><path id="" clip-rule="evenodd" transform="matrix(1 0 0 1 0 0)" d="M151.2 820.76L491.4 820.76L491.4 820.76L491.4 98.12L491.4 98.12L151.2 98.12z" /></clipPath><clipPath id="22"><path id="" clip-rule="evenodd" transform="matrix(1 0 0 1 0 0)" d="M491.4 820.76L519.24 820.76L519.24 820.76L519.24 98.12L519.24 98.12L491.4 98.12z" /></clipPath><clipPath id="23"><path id="" clip-rule="evenodd" transform="matrix(1 0 0 1 0 0)" d="M491.4 820.76L519.24 820.76L519.24 820.76L519.24 98.12L519.24 98.12L491.4 98.12z" /></clipPath><clipPath id="24"><path id="" clip-rule="evenodd" transform="matrix(1 0 0 1 0 0)" d="M155.04 235.16L493.561 235.16L493.561 235.16L493.561 584.48L493.561 584.48L155.04 584.48z" /></clipPath><clipPath id="25"><path id="" clip-rule="evenodd" transform="matrix(1 0 0 1 0 0)" d="M170.4 250.56L462.6 250.56L462.6 250.56L462.6 553.559L462.6 553.559L170.4 553.559z" /></clipPath></defs><g transform="matrix(1.333333 0 0 1.333333 0 0)"><g clip-path="url(#1)"><g clip-path="url(#2)"></g><g clip-path="url(#3)"></g><g clip-path="url(#4)"></g><g clip-path="url(#5)"></g><g clip-path="url(#6)"></g><g clip-path="url(#7)"></g><g clip-path="url(#8)"></g><g clip-path="url(#9)"></g><g clip-path="url(#10)"></g><g clip-path="url(#11)"></g><g clip-path="url(#12)"></g><g clip-path="url(#13)"></g><g clip-path="url(#14)"></g><g clip-path="url(#15)"></g><g clip-path="url(#16)"></g><g clip-path="url(#17)"></g><g clip-path="url(#18)"></g><g clip-path="url(#19)"></g><g clip-path="url(#20)"></g><g clip-path="url(#21)"></g><g clip-path="url(#22)"></g><g clip-path="url(#23)"></g><g clip-path="url(#24)"><g transform="matrix(1.912542 0 0 1.919341 155.04 235.16)"><g transform="matrix(1 0 0 1 0 0)"><image x="0" y="0" xlink:href="img_13.png" width="177" height="182" /></g></g></g><g clip-path="url(#25)"><g transform="matrix(0.6732719 0 0 0.6733333 170.3999 250.5603)"><g transform="matrix(1 0 0 1 0 0)"><image x="0" y="0" xlink:href="img_14.png" width="434" height="450" /></g></g></g></g></g></svg>