<svg xmlns="http://www.w3.org/2000/svg" xmlns:xlink="http://www.w3.org/1999/xlink" id="body_6" preserveAspectRatio="xMinYMin meet" viewBox="0 0 793 1123"><defs><clipPath id="1"><path id="" clip-rule="evenodd" transform="matrix(1 0 0 1 0 0)" d="M0 842L0 -0.03997803L0 -0.03997803L595.56 -0.03997803L595.56 -0.03997803L595.56 842L595.56 842L0 842z" /></clipPath><clipPath id="2"><path id="" clip-rule="evenodd" transform="matrix(1 0 0 1 0 0)" d="M160.2 146.96L481.786 146.96L481.786 146.96L481.786 305.91L481.786 305.91L160.2 305.91z" /></clipPath><clipPath id="3"><path id="" clip-rule="evenodd" transform="matrix(1 0 0 1 0 0)" d="M151.2 338.96L491.4 338.96L491.4 338.96L491.4 32L491.4 32L151.2 32z" /></clipPath><clipPath id="4"><path id="" clip-rule="evenodd" transform="matrix(1 0 0 1 0 0)" d="M151.2 338.96L491.4 338.96L491.4 338.96L491.4 32L491.4 32L151.2 32z" /></clipPath><clipPath id="5"><path id="" clip-rule="evenodd" transform="matrix(1 0 0 1 0 0)" d="M89.4 792.44L120.36 792.44L120.36 792.44L120.36 338.961L120.36 338.961L89.4 338.961z" /></clipPath><clipPath id="6"><path id="" clip-rule="evenodd" transform="matrix(1 0 0 1 0 0)" d="M120.36 792.44L151.2 792.44L151.2 792.44L151.2 338.961L151.2 338.961L120.36 338.961z" /></clipPath><clipPath id="7"><path id="" clip-rule="evenodd" transform="matrix(1 0 0 1 0 0)" d="M120.36 792.44L151.2 792.44L151.2 792.44L151.2 338.961L151.2 338.961L120.36 338.961z" /></clipPath><clipPath id="8"><path id="" clip-rule="evenodd" transform="matrix(1 0 0 1 0 0)" d="M151.2 792.44L491.4 792.44L491.4 792.44L491.4 338.961L491.4 338.961L151.2 338.961z" /></clipPath><clipPath id="9"><path id="" clip-rule="evenodd" transform="matrix(1 0 0 1 0 0)" d="M151.2 792.44L491.4 792.44L491.4 792.44L491.4 338.961L491.4 338.961L151.2 338.961z" /></clipPath><clipPath id="10"><path id="" clip-rule="evenodd" transform="matrix(1 0 0 1 0 0)" d="M151.2 792.44L491.4 792.44L491.4 792.44L491.4 338.961L491.4 338.961L151.2 338.961z" /></clipPath><clipPath id="11"><path id="" clip-rule="evenodd" transform="matrix(1 0 0 1 0 0)" d="M151.2 792.44L491.4 792.44L491.4 792.44L491.4 338.961L491.4 338.961L151.2 338.961z" /></clipPath><clipPath id="12"><path id="" clip-rule="evenodd" transform="matrix(1 0 0 1 0 0)" d="M151.2 792.44L491.4 792.44L491.4 792.44L491.4 338.961L491.4 338.961L151.2 338.961z" /></clipPath><clipPath id="13"><path id="" clip-rule="evenodd" transform="matrix(1 0 0 1 0 0)" d="M151.2 792.44L491.4 792.44L491.4 792.44L491.4 338.961L491.4 338.961L151.2 338.961z" /></clipPath><clipPath id="14"><path id="" clip-rule="evenodd" transform="matrix(1 0 0 1 0 0)" d="M151.2 792.44L491.4 792.44L491.4 792.44L491.4 338.961L491.4 338.961L151.2 338.961z" /></clipPath><clipPath id="15"><path id="" clip-rule="evenodd" transform="matrix(1 0 0 1 0 0)" d="M151.2 792.44L491.4 792.44L491.4 792.44L491.4 338.961L491.4 338.961L151.2 338.961z" /></clipPath><clipPath id="16"><path id="" clip-rule="evenodd" transform="matrix(1 0 0 1 0 0)" d="M151.2 792.44L491.4 792.44L491.4 792.44L491.4 338.961L491.4 338.961L151.2 338.961z" /></clipPath><clipPath id="17"><path id="" clip-rule="evenodd" transform="matrix(1 0 0 1 0 0)" d="M151.2 792.44L491.4 792.44L491.4 792.44L491.4 338.961L491.4 338.961L151.2 338.961z" /></clipPath><clipPath id="18"><path id="" clip-rule="evenodd" transform="matrix(1 0 0 1 0 0)" d="M151.2 792.44L491.4 792.44L491.4 792.44L491.4 338.961L491.4 338.961L151.2 338.961z" /></clipPath><clipPath id="19"><path id="" clip-rule="evenodd" transform="matrix(1 0 0 1 0 0)" d="M151.2 792.44L491.4 792.44L491.4 792.44L491.4 338.961L491.4 338.961L151.2 338.961z" /></clipPath><clipPath id="20"><path id="" clip-rule="evenodd" transform="matrix(1 0 0 1 0 0)" d="M151.2 792.44L491.4 792.44L491.4 792.44L491.4 338.961L491.4 338.961L151.2 338.961z" /></clipPath><clipPath id="21"><path id="" clip-rule="evenodd" transform="matrix(1 0 0 1 0 0)" d="M151.2 792.44L491.4 792.44L491.4 792.44L491.4 338.961L491.4 338.961L151.2 338.961z" /></clipPath><clipPath id="22"><path id="" clip-rule="evenodd" transform="matrix(1 0 0 1 0 0)" d="M151.68 410.6L222.001 410.6L222.001 410.6L222.001 391.88L222.001 391.88L151.68 391.88z" /></clipPath><clipPath id="23"><path id="" clip-rule="evenodd" transform="matrix(1 0 0 1 0 0)" d="M151.68 410.6L222.001 410.6L222.001 410.6L222.001 391.88L222.001 391.88L151.68 391.88z" /></clipPath><clipPath id="24"><path id="" clip-rule="evenodd" transform="matrix(1 0 0 1 0 0)" d="M222.6 410.6L326.64 410.6L326.64 410.6L326.64 391.88L326.64 391.88L222.6 391.88z" /></clipPath><clipPath id="25"><path id="" clip-rule="evenodd" transform="matrix(1 0 0 1 0 0)" d="M222.6 410.6L326.64 410.6L326.64 410.6L326.64 391.88L326.64 391.88L222.6 391.88z" /></clipPath><clipPath id="26"><path id="" clip-rule="evenodd" transform="matrix(1 0 0 1 0 0)" d="M222.6 410.6L326.64 410.6L326.64 410.6L326.64 391.88L326.64 391.88L222.6 391.88z" /></clipPath><clipPath id="27"><path id="" clip-rule="evenodd" transform="matrix(1 0 0 1 0 0)" d="M222.6 410.6L326.64 410.6L326.64 410.6L326.64 391.88L326.64 391.88L222.6 391.88z" /></clipPath><clipPath id="28"><path id="" clip-rule="evenodd" transform="matrix(1 0 0 1 0 0)" d="M327.12 410.6L487.559 410.6L487.559 410.6L487.559 391.88L487.559 391.88L327.12 391.88z" /></clipPath><clipPath id="29"><path id="" clip-rule="evenodd" transform="matrix(1 0 0 1 0 0)" d="M327.12 410.6L487.559 410.6L487.559 410.6L487.559 391.88L487.559 391.88L327.12 391.88z" /></clipPath><clipPath id="30"><path id="" clip-rule="evenodd" transform="matrix(1 0 0 1 0 0)" d="M151.68 513.44L222.001 513.44L222.001 513.44L222.001 411.08L222.001 411.08L151.68 411.08z" /></clipPath><clipPath id="31"><path id="" clip-rule="evenodd" transform="matrix(1 0 0 1 0 0)" d="M151.68 513.44L222.001 513.44L222.001 513.44L222.001 411.08L222.001 411.08L151.68 411.08z" /></clipPath><clipPath id="32"><path id="" clip-rule="evenodd" transform="matrix(1 0 0 1 0 0)" d="M222.6 513.44L326.64 513.44L326.64 513.44L326.64 411.08L326.64 411.08L222.6 411.08z" /></clipPath><clipPath id="33"><path id="" clip-rule="evenodd" transform="matrix(1 0 0 1 0 0)" d="M222.6 513.44L326.64 513.44L326.64 513.44L326.64 411.08L326.64 411.08L222.6 411.08z" /></clipPath><clipPath id="34"><path id="" clip-rule="evenodd" transform="matrix(1 0 0 1 0 0)" d="M222.6 513.44L326.64 513.44L326.64 513.44L326.64 411.08L326.64 411.08L222.6 411.08z" /></clipPath><clipPath id="35"><path id="" clip-rule="evenodd" transform="matrix(1 0 0 1 0 0)" d="M327.12 513.44L487.559 513.44L487.559 513.44L487.559 411.08L487.559 411.08L327.12 411.08z" /></clipPath><clipPath id="36"><path id="" clip-rule="evenodd" transform="matrix(1 0 0 1 0 0)" d="M327.12 513.44L487.559 513.44L487.559 513.44L487.559 411.08L487.559 411.08L327.12 411.08z" /></clipPath><clipPath id="37"><path id="" clip-rule="evenodd" transform="matrix(1 0 0 1 0 0)" d="M151.68 552.32L222.001 552.32L222.001 552.32L222.001 513.921L222.001 513.921L151.68 513.921z" /></clipPath><clipPath id="38"><path id="" clip-rule="evenodd" transform="matrix(1 0 0 1 0 0)" d="M151.68 552.32L222.001 552.32L222.001 552.32L222.001 513.921L222.001 513.921L151.68 513.921z" /></clipPath><clipPath id="39"><path id="" clip-rule="evenodd" transform="matrix(1 0 0 1 0 0)" d="M222.6 552.32L326.64 552.32L326.64 552.32L326.64 513.921L326.64 513.921L222.6 513.921z" /></clipPath><clipPath id="40"><path id="" clip-rule="evenodd" transform="matrix(1 0 0 1 0 0)" d="M222.6 552.32L326.64 552.32L326.64 552.32L326.64 513.921L326.64 513.921L222.6 513.921z" /></clipPath><clipPath id="41"><path id="" clip-rule="evenodd" transform="matrix(1 0 0 1 0 0)" d="M222.6 552.32L326.64 552.32L326.64 552.32L326.64 513.921L326.64 513.921L222.6 513.921z" /></clipPath><clipPath id="42"><path id="" clip-rule="evenodd" transform="matrix(1 0 0 1 0 0)" d="M327.12 552.32L487.559 552.32L487.559 552.32L487.559 513.921L487.559 513.921L327.12 513.921z" /></clipPath><clipPath id="43"><path id="" clip-rule="evenodd" transform="matrix(1 0 0 1 0 0)" d="M151.68 604.04L222.001 604.04L222.001 604.04L222.001 552.92L222.001 552.92L151.68 552.92z" /></clipPath><clipPath id="44"><path id="" clip-rule="evenodd" transform="matrix(1 0 0 1 0 0)" d="M151.68 604.04L222.001 604.04L222.001 604.04L222.001 552.92L222.001 552.92L151.68 552.92z" /></clipPath><clipPath id="45"><path id="" clip-rule="evenodd" transform="matrix(1 0 0 1 0 0)" d="M222.6 604.04L326.64 604.04L326.64 604.04L326.64 552.92L326.64 552.92L222.6 552.92z" /></clipPath><clipPath id="46"><path id="" clip-rule="evenodd" transform="matrix(1 0 0 1 0 0)" d="M222.6 604.04L326.64 604.04L326.64 604.04L326.64 552.92L326.64 552.92L222.6 552.92z" /></clipPath><clipPath id="47"><path id="" clip-rule="evenodd" transform="matrix(1 0 0 1 0 0)" d="M222.6 604.04L326.64 604.04L326.64 604.04L326.64 552.92L326.64 552.92L222.6 552.92z" /></clipPath><clipPath id="48"><path id="" clip-rule="evenodd" transform="matrix(1 0 0 1 0 0)" d="M327.12 604.04L487.559 604.04L487.559 604.04L487.559 552.92L487.559 552.92L327.12 552.92z" /></clipPath><clipPath id="49"><path id="" clip-rule="evenodd" transform="matrix(1 0 0 1 0 0)" d="M151.68 642.92L222.001 642.92L222.001 642.92L222.001 604.52L222.001 604.52L151.68 604.52z" /></clipPath><clipPath id="50"><path id="" clip-rule="evenodd" transform="matrix(1 0 0 1 0 0)" d="M151.68 642.92L222.001 642.92L222.001 642.92L222.001 604.52L222.001 604.52L151.68 604.52z" /></clipPath><clipPath id="51"><path id="" clip-rule="evenodd" transform="matrix(1 0 0 1 0 0)" d="M222.6 642.92L326.64 642.92L326.64 642.92L326.64 604.52L326.64 604.52L222.6 604.52z" /></clipPath><clipPath id="52"><path id="" clip-rule="evenodd" transform="matrix(1 0 0 1 0 0)" d="M222.6 642.92L326.64 642.92L326.64 642.92L326.64 604.52L326.64 604.52L222.6 604.52z" /></clipPath><clipPath id="53"><path id="" clip-rule="evenodd" transform="matrix(1 0 0 1 0 0)" d="M222.6 642.92L326.64 642.92L326.64 642.92L326.64 604.52L326.64 604.52L222.6 604.52z" /></clipPath><clipPath id="54"><path id="" clip-rule="evenodd" transform="matrix(1 0 0 1 0 0)" d="M327.12 642.92L487.559 642.92L487.559 642.92L487.559 604.52L487.559 604.52L327.12 604.52z" /></clipPath><clipPath id="55"><path id="" clip-rule="evenodd" transform="matrix(1 0 0 1 0 0)" d="M151.68 720.32L222.001 720.32L222.001 720.32L222.001 643.52L222.001 643.52L151.68 643.52z" /></clipPath><clipPath id="56"><path id="" clip-rule="evenodd" transform="matrix(1 0 0 1 0 0)" d="M151.68 720.32L222.001 720.32L222.001 720.32L222.001 643.52L222.001 643.52L151.68 643.52z" /></clipPath><clipPath id="57"><path id="" clip-rule="evenodd" transform="matrix(1 0 0 1 0 0)" d="M222.6 720.32L326.64 720.32L326.64 720.32L326.64 643.52L326.64 643.52L222.6 643.52z" /></clipPath><clipPath id="58"><path id="" clip-rule="evenodd" transform="matrix(1 0 0 1 0 0)" d="M222.6 720.32L326.64 720.32L326.64 720.32L326.64 643.52L326.64 643.52L222.6 643.52z" /></clipPath><clipPath id="59"><path id="" clip-rule="evenodd" transform="matrix(1 0 0 1 0 0)" d="M222.6 720.32L326.64 720.32L326.64 720.32L326.64 643.52L326.64 643.52L222.6 643.52z" /></clipPath><clipPath id="60"><path id="" clip-rule="evenodd" transform="matrix(1 0 0 1 0 0)" d="M222.6 720.32L326.64 720.32L326.64 720.32L326.64 643.52L326.64 643.52L222.6 643.52z" /></clipPath><clipPath id="61"><path id="" clip-rule="evenodd" transform="matrix(1 0 0 1 0 0)" d="M327.12 720.32L487.559 720.32L487.559 720.32L487.559 643.52L487.559 643.52L327.12 643.52z" /></clipPath><clipPath id="62"><path id="" clip-rule="evenodd" transform="matrix(1 0 0 1 0 0)" d="M151.68 784.76L222.001 784.76L222.001 784.76L222.001 720.8L222.001 720.8L151.68 720.8z" /></clipPath><clipPath id="63"><path id="" clip-rule="evenodd" transform="matrix(1 0 0 1 0 0)" d="M151.68 784.76L222.001 784.76L222.001 784.76L222.001 720.8L222.001 720.8L151.68 720.8z" /></clipPath><clipPath id="64"><path id="" clip-rule="evenodd" transform="matrix(1 0 0 1 0 0)" d="M222.6 784.76L326.64 784.76L326.64 784.76L326.64 720.8L326.64 720.8L222.6 720.8z" /></clipPath><clipPath id="65"><path id="" clip-rule="evenodd" transform="matrix(1 0 0 1 0 0)" d="M222.6 784.76L326.64 784.76L326.64 784.76L326.64 720.8L326.64 720.8L222.6 720.8z" /></clipPath><clipPath id="66"><path id="" clip-rule="evenodd" transform="matrix(1 0 0 1 0 0)" d="M222.6 784.76L326.64 784.76L326.64 784.76L326.64 720.8L326.64 720.8L222.6 720.8z" /></clipPath><clipPath id="67"><path id="" clip-rule="evenodd" transform="matrix(1 0 0 1 0 0)" d="M327.12 784.76L487.559 784.76L487.559 784.76L487.559 720.8L487.559 720.8L327.12 720.8z" /></clipPath><clipPath id="68"><path id="" clip-rule="evenodd" transform="matrix(1 0 0 1 0 0)" d="M327.12 784.76L487.559 784.76L487.559 784.76L487.559 720.8L487.559 720.8L327.12 720.8z" /></clipPath><clipPath id="69"><path id="" clip-rule="evenodd" transform="matrix(1 0 0 1 0 0)" d="M491.4 792.44L519.24 792.44L519.24 792.44L519.24 338.961L519.24 338.961L491.4 338.961z" /></clipPath><clipPath id="70"><path id="" clip-rule="evenodd" transform="matrix(1 0 0 1 0 0)" d="M491.4 792.44L519.24 792.44L519.24 792.44L519.24 338.961L519.24 338.961L491.4 338.961z" /></clipPath><clipPath id="71"><path id="" clip-rule="evenodd" transform="matrix(1 0 0 1 0 0)" d="M89.4 806.36L120.36 806.36L120.36 806.36L120.36 792.44L120.36 792.44L89.4 792.44z" /></clipPath><clipPath id="72"><path id="" clip-rule="evenodd" transform="matrix(1 0 0 1 0 0)" d="M120.36 806.36L151.2 806.36L151.2 806.36L151.2 792.44L151.2 792.44L120.36 792.44z" /></clipPath><clipPath id="73"><path id="" clip-rule="evenodd" transform="matrix(1 0 0 1 0 0)" d="M120.36 806.36L151.2 806.36L151.2 806.36L151.2 792.44L151.2 792.44L120.36 792.44z" /></clipPath><clipPath id="74"><path id="" clip-rule="evenodd" transform="matrix(1 0 0 1 0 0)" d="M151.2 806.36L491.4 806.36L491.4 806.36L491.4 792.44L491.4 792.44L151.2 792.44z" /></clipPath><clipPath id="75"><path id="" clip-rule="evenodd" transform="matrix(1 0 0 1 0 0)" d="M151.2 806.36L491.4 806.36L491.4 806.36L491.4 792.44L491.4 792.44L151.2 792.44z" /></clipPath><clipPath id="76"><path id="" clip-rule="evenodd" transform="matrix(1 0 0 1 0 0)" d="M151.2 806.36L491.4 806.36L491.4 806.36L491.4 792.44L491.4 792.44L151.2 792.44z" /></clipPath><clipPath id="77"><path id="" clip-rule="evenodd" transform="matrix(1 0 0 1 0 0)" d="M151.2 806.36L491.4 806.36L491.4 806.36L491.4 792.44L491.4 792.44L151.2 792.44z" /></clipPath><clipPath id="78"><path id="" clip-rule="evenodd" transform="matrix(1 0 0 1 0 0)" d="M151.2 806.36L491.4 806.36L491.4 806.36L491.4 792.44L491.4 792.44L151.2 792.44z" /></clipPath><clipPath id="79"><path id="" clip-rule="evenodd" transform="matrix(1 0 0 1 0 0)" d="M151.2 806.36L491.4 806.36L491.4 806.36L491.4 792.44L491.4 792.44L151.2 792.44z" /></clipPath><clipPath id="80"><path id="" clip-rule="evenodd" transform="matrix(1 0 0 1 0 0)" d="M151.2 806.36L491.4 806.36L491.4 806.36L491.4 792.44L491.4 792.44L151.2 792.44z" /></clipPath><clipPath id="81"><path id="" clip-rule="evenodd" transform="matrix(1 0 0 1 0 0)" d="M151.2 806.36L491.4 806.36L491.4 806.36L491.4 792.44L491.4 792.44L151.2 792.44z" /></clipPath><clipPath id="82"><path id="" clip-rule="evenodd" transform="matrix(1 0 0 1 0 0)" d="M151.2 806.36L491.4 806.36L491.4 806.36L491.4 792.44L491.4 792.44L151.2 792.44z" /></clipPath><clipPath id="83"><path id="" clip-rule="evenodd" transform="matrix(1 0 0 1 0 0)" d="M151.2 806.36L491.4 806.36L491.4 806.36L491.4 792.44L491.4 792.44L151.2 792.44z" /></clipPath><clipPath id="84"><path id="" clip-rule="evenodd" transform="matrix(1 0 0 1 0 0)" d="M151.2 806.36L491.4 806.36L491.4 806.36L491.4 792.44L491.4 792.44L151.2 792.44z" /></clipPath><clipPath id="85"><path id="" clip-rule="evenodd" transform="matrix(1 0 0 1 0 0)" d="M151.2 806.36L491.4 806.36L491.4 806.36L491.4 792.44L491.4 792.44L151.2 792.44z" /></clipPath><clipPath id="86"><path id="" clip-rule="evenodd" transform="matrix(1 0 0 1 0 0)" d="M151.2 806.36L491.4 806.36L491.4 806.36L491.4 792.44L491.4 792.44L151.2 792.44z" /></clipPath><clipPath id="87"><path id="" clip-rule="evenodd" transform="matrix(1 0 0 1 0 0)" d="M151.2 806.36L491.4 806.36L491.4 806.36L491.4 792.44L491.4 792.44L151.2 792.44z" /></clipPath><clipPath id="88"><path id="" clip-rule="evenodd" transform="matrix(1 0 0 1 0 0)" d="M151.2 806.36L491.4 806.36L491.4 806.36L491.4 792.44L491.4 792.44L151.2 792.44z" /></clipPath><clipPath id="89"><path id="" clip-rule="evenodd" transform="matrix(1 0 0 1 0 0)" d="M151.2 806.36L491.4 806.36L491.4 806.36L491.4 792.44L491.4 792.44L151.2 792.44z" /></clipPath><clipPath id="90"><path id="" clip-rule="evenodd" transform="matrix(1 0 0 1 0 0)" d="M151.2 806.36L491.4 806.36L491.4 806.36L491.4 792.44L491.4 792.44L151.2 792.44z" /></clipPath><clipPath id="91"><path id="" clip-rule="evenodd" transform="matrix(1 0 0 1 0 0)" d="M151.2 806.36L491.4 806.36L491.4 806.36L491.4 792.44L491.4 792.44L151.2 792.44z" /></clipPath><clipPath id="92"><path id="" clip-rule="evenodd" transform="matrix(1 0 0 1 0 0)" d="M151.2 806.36L491.4 806.36L491.4 806.36L491.4 792.44L491.4 792.44L151.2 792.44z" /></clipPath><clipPath id="93"><path id="" clip-rule="evenodd" transform="matrix(1 0 0 1 0 0)" d="M151.2 806.36L491.4 806.36L491.4 806.36L491.4 792.44L491.4 792.44L151.2 792.44z" /></clipPath><clipPath id="94"><path id="" clip-rule="evenodd" transform="matrix(1 0 0 1 0 0)" d="M491.4 806.36L519.24 806.36L519.24 806.36L519.24 792.44L519.24 792.44L491.4 792.44z" /></clipPath><clipPath id="95"><path id="" clip-rule="evenodd" transform="matrix(1 0 0 1 0 0)" d="M491.4 806.36L519.24 806.36L519.24 806.36L519.24 792.44L519.24 792.44L491.4 792.44z" /></clipPath><clipPath id="96"><path id="" clip-rule="evenodd" transform="matrix(1 0 0 1 0 0)" d="M491.4 806.36L519.24 806.36L519.24 806.36L519.24 792.44L519.24 792.44L491.4 792.44z" /></clipPath></defs><g transform="matrix(1.333333 0 0 1.333333 0 0)"><g clip-path="url(#1)"><g clip-path="url(#2)"><g transform="matrix(0.3573184 0 0 0.357191 160.1999 146.9601)"><g transform="matrix(1 0 0 1 0 0)"><image x="0" y="0" xlink:href="img_06.png" width="900" height="445" /></g></g></g><g clip-path="url(#3)"></g><g clip-path="url(#4)"></g><g clip-path="url(#5)"></g><g clip-path="url(#6)"></g><g clip-path="url(#7)"></g><g clip-path="url(#8)"></g><g clip-path="url(#9)"></g><g clip-path="url(#10)"></g><g clip-path="url(#11)"></g><g clip-path="url(#12)"></g><g clip-path="url(#13)"></g><g clip-path="url(#14)"></g><g clip-path="url(#15)"></g><g clip-path="url(#16)"></g><g clip-path="url(#17)"></g><g clip-path="url(#18)"></g><g clip-path="url(#19)"></g><g clip-path="url(#20)"></g><g clip-path="url(#21)"></g><g clip-path="url(#22)"></g><g clip-path="url(#23)"></g><g clip-path="url(#24)"></g><g clip-path="url(#25)"></g><g clip-path="url(#26)"></g><g clip-path="url(#27)"></g><g clip-path="url(#28)"></g><g clip-path="url(#29)"></g><path id="486" transform="matrix(1 0 0 -1 0 842)" d="M151.2 450.12L151.68 450.12L151.68 450.601L151.2 450.601z" stroke="none" fill="#BFBFBF" fill-rule="nonzero" /><path id="487" transform="matrix(1 0 0 -1 0 842)" d="M151.2 450.12L151.68 450.12L151.68 450.601L151.2 450.601z" stroke="none" fill="#BFBFBF" fill-rule="nonzero" /><path id="488" transform="matrix(1 0 0 -1 0 842)" d="M151.68 450.12L222.12 450.12L222.12 450.601L151.68 450.601z" stroke="none" fill="#BFBFBF" fill-rule="nonzero" /><path id="489" transform="matrix(1 0 0 -1 0 842)" d="M222.12 450.12L222.6 450.12L222.6 450.601L222.12 450.601z" stroke="none" fill="#BFBFBF" fill-rule="nonzero" /><path id="490" transform="matrix(1 0 0 -1 0 842)" d="M222.6 450.12L326.64 450.12L326.64 450.601L222.6 450.601z" stroke="none" fill="#BFBFBF" fill-rule="nonzero" /><path id="491" transform="matrix(1 0 0 -1 0 842)" d="M326.64 450.12L327.121 450.12L327.121 450.601L326.64 450.601z" stroke="none" fill="#BFBFBF" fill-rule="nonzero" /><path id="492" transform="matrix(1 0 0 -1 0 842)" d="M327.12 450.12L487.559 450.12L487.559 450.601L327.12 450.601z" stroke="none" fill="#BFBFBF" fill-rule="nonzero" /><path id="493" transform="matrix(1 0 0 -1 0 842)" d="M487.56 450.12L488.041 450.12L488.041 450.601L487.56 450.601z" stroke="none" fill="#BFBFBF" fill-rule="nonzero" /><path id="494" transform="matrix(1 0 0 -1 0 842)" d="M487.56 450.12L488.041 450.12L488.041 450.601L487.56 450.601z" stroke="none" fill="#BFBFBF" fill-rule="nonzero" /><path id="495" transform="matrix(1 0 0 -1 0 842)" d="M151.2 431.4L151.68 431.4L151.68 450.12L151.2 450.12z" stroke="none" fill="#BFBFBF" fill-rule="nonzero" /><path id="496" transform="matrix(1 0 0 -1 0 842)" d="M222.12 431.4L222.6 431.4L222.6 450.12L222.12 450.12z" stroke="none" fill="#BFBFBF" fill-rule="nonzero" /><path id="497" transform="matrix(1 0 0 -1 0 842)" d="M326.64 431.4L327.121 431.4L327.121 450.12L326.64 450.12z" stroke="none" fill="#BFBFBF" fill-rule="nonzero" /><path id="498" transform="matrix(1 0 0 -1 0 842)" d="M487.56 431.4L488.041 431.4L488.041 450.12L487.56 450.12z" stroke="none" fill="#BFBFBF" fill-rule="nonzero" /><g clip-path="url(#30)"></g><g clip-path="url(#31)"></g><g clip-path="url(#32)"></g><g clip-path="url(#33)"></g><g clip-path="url(#34)"></g><g clip-path="url(#35)"></g><g clip-path="url(#36)"></g><path id="721" transform="matrix(1 0 0 -1 0 842)" d="M151.2 430.92L151.68 430.92L151.68 431.4L151.2 431.4z" stroke="none" fill="#BFBFBF" fill-rule="nonzero" /><path id="722" transform="matrix(1 0 0 -1 0 842)" d="M151.68 430.92L222.12 430.92L222.12 431.4L151.68 431.4z" stroke="none" fill="#BFBFBF" fill-rule="nonzero" /><path id="723" transform="matrix(1 0 0 -1 0 842)" d="M222.12 430.92L222.6 430.92L222.6 431.4L222.12 431.4z" stroke="none" fill="#BFBFBF" fill-rule="nonzero" /><path id="724" transform="matrix(1 0 0 -1 0 842)" d="M222.6 430.92L326.64 430.92L326.64 431.4L222.6 431.4z" stroke="none" fill="#BFBFBF" fill-rule="nonzero" /><path id="725" transform="matrix(1 0 0 -1 0 842)" d="M326.64 430.92L327.121 430.92L327.121 431.4L326.64 431.4z" stroke="none" fill="#BFBFBF" fill-rule="nonzero" /><path id="726" transform="matrix(1 0 0 -1 0 842)" d="M327.12 430.92L487.559 430.92L487.559 431.4L327.12 431.4z" stroke="none" fill="#BFBFBF" fill-rule="nonzero" /><path id="727" transform="matrix(1 0 0 -1 0 842)" d="M487.56 430.92L488.041 430.92L488.041 431.4L487.56 431.4z" stroke="none" fill="#BFBFBF" fill-rule="nonzero" /><path id="728" transform="matrix(1 0 0 -1 0 842)" d="M151.2 328.56L151.68 328.56L151.68 430.92L151.2 430.92z" stroke="none" fill="#BFBFBF" fill-rule="nonzero" /><path id="729" transform="matrix(1 0 0 -1 0 842)" d="M222.12 328.56L222.6 328.56L222.6 430.92L222.12 430.92z" stroke="none" fill="#BFBFBF" fill-rule="nonzero" /><path id="730" transform="matrix(1 0 0 -1 0 842)" d="M326.64 328.56L327.121 328.56L327.121 430.92L326.64 430.92z" stroke="none" fill="#BFBFBF" fill-rule="nonzero" /><path id="731" transform="matrix(1 0 0 -1 0 842)" d="M487.56 328.56L488.041 328.56L488.041 430.92L487.56 430.92z" stroke="none" fill="#BFBFBF" fill-rule="nonzero" /><g clip-path="url(#37)"></g><g clip-path="url(#38)"></g><g clip-path="url(#39)"></g><g clip-path="url(#40)"></g><g clip-path="url(#41)"></g><g clip-path="url(#42)"></g><path id="824" transform="matrix(1 0 0 -1 0 842)" d="M151.2 328.08L151.68 328.08L151.68 328.561L151.2 328.561z" stroke="none" fill="#BFBFBF" fill-rule="nonzero" /><path id="825" transform="matrix(1 0 0 -1 0 842)" d="M151.68 328.08L222.12 328.08L222.12 328.561L151.68 328.561z" stroke="none" fill="#BFBFBF" fill-rule="nonzero" /><path id="826" transform="matrix(1 0 0 -1 0 842)" d="M222.12 328.08L222.6 328.08L222.6 328.561L222.12 328.561z" stroke="none" fill="#BFBFBF" fill-rule="nonzero" /><path id="827" transform="matrix(1 0 0 -1 0 842)" d="M222.6 328.08L326.64 328.08L326.64 328.561L222.6 328.561z" stroke="none" fill="#BFBFBF" fill-rule="nonzero" /><path id="828" transform="matrix(1 0 0 -1 0 842)" d="M326.64 328.08L327.121 328.08L327.121 328.561L326.64 328.561z" stroke="none" fill="#BFBFBF" fill-rule="nonzero" /><path id="829" transform="matrix(1 0 0 -1 0 842)" d="M327.12 328.08L487.559 328.08L487.559 328.561L327.12 328.561z" stroke="none" fill="#BFBFBF" fill-rule="nonzero" /><path id="830" transform="matrix(1 0 0 -1 0 842)" d="M487.56 328.08L488.041 328.08L488.041 328.561L487.56 328.561z" stroke="none" fill="#BFBFBF" fill-rule="nonzero" /><path id="831" transform="matrix(1 0 0 -1 0 842)" d="M151.2 289.68L151.68 289.68L151.68 328.079L151.2 328.079z" stroke="none" fill="#BFBFBF" fill-rule="nonzero" /><path id="832" transform="matrix(1 0 0 -1 0 842)" d="M222.12 289.68L222.6 289.68L222.6 328.079L222.12 328.079z" stroke="none" fill="#BFBFBF" fill-rule="nonzero" /><path id="833" transform="matrix(1 0 0 -1 0 842)" d="M326.64 289.68L327.121 289.68L327.121 328.079L326.64 328.079z" stroke="none" fill="#BFBFBF" fill-rule="nonzero" /><path id="834" transform="matrix(1 0 0 -1 0 842)" d="M487.56 289.68L488.041 289.68L488.041 328.079L487.56 328.079z" stroke="none" fill="#BFBFBF" fill-rule="nonzero" /><g clip-path="url(#43)"></g><g clip-path="url(#44)"></g><g clip-path="url(#45)"></g><g clip-path="url(#46)"></g><g clip-path="url(#47)"></g><g clip-path="url(#48)"></g><path id="932" transform="matrix(1 0 0 -1 0 842)" d="M151.2 289.2L151.68 289.2L151.68 289.681L151.2 289.681z" stroke="none" fill="#BFBFBF" fill-rule="nonzero" /><path id="933" transform="matrix(1 0 0 -1 0 842)" d="M151.68 289.2L222.12 289.2L222.12 289.681L151.68 289.681z" stroke="none" fill="#BFBFBF" fill-rule="nonzero" /><path id="934" transform="matrix(1 0 0 -1 0 842)" d="M222.12 289.2L222.6 289.2L222.6 289.681L222.12 289.681z" stroke="none" fill="#BFBFBF" fill-rule="nonzero" /><path id="935" transform="matrix(1 0 0 -1 0 842)" d="M222.6 289.2L326.64 289.2L326.64 289.681L222.6 289.681z" stroke="none" fill="#BFBFBF" fill-rule="nonzero" /><path id="936" transform="matrix(1 0 0 -1 0 842)" d="M326.64 289.2L327.121 289.2L327.121 289.681L326.64 289.681z" stroke="none" fill="#BFBFBF" fill-rule="nonzero" /><path id="937" transform="matrix(1 0 0 -1 0 842)" d="M327.12 289.2L487.559 289.2L487.559 289.681L327.12 289.681z" stroke="none" fill="#BFBFBF" fill-rule="nonzero" /><path id="938" transform="matrix(1 0 0 -1 0 842)" d="M487.56 289.2L488.041 289.2L488.041 289.681L487.56 289.681z" stroke="none" fill="#BFBFBF" fill-rule="nonzero" /><path id="939" transform="matrix(1 0 0 -1 0 842)" d="M151.2 237.96L151.68 237.96L151.68 289.2L151.2 289.2z" stroke="none" fill="#BFBFBF" fill-rule="nonzero" /><path id="940" transform="matrix(1 0 0 -1 0 842)" d="M222.12 237.96L222.6 237.96L222.6 289.2L222.12 289.2z" stroke="none" fill="#BFBFBF" fill-rule="nonzero" /><path id="941" transform="matrix(1 0 0 -1 0 842)" d="M326.64 237.96L327.121 237.96L327.121 289.2L326.64 289.2z" stroke="none" fill="#BFBFBF" fill-rule="nonzero" /><path id="942" transform="matrix(1 0 0 -1 0 842)" d="M487.56 237.96L488.041 237.96L488.041 289.2L487.56 289.2z" stroke="none" fill="#BFBFBF" fill-rule="nonzero" /><g clip-path="url(#49)"></g><g clip-path="url(#50)"></g><g clip-path="url(#51)"></g><g clip-path="url(#52)"></g><g clip-path="url(#53)"></g><g clip-path="url(#54)"></g><path id="1030" transform="matrix(1 0 0 -1 0 842)" d="M151.2 237.48L151.68 237.48L151.68 237.96L151.2 237.96z" stroke="none" fill="#BFBFBF" fill-rule="nonzero" /><path id="1031" transform="matrix(1 0 0 -1 0 842)" d="M151.68 237.48L222.12 237.48L222.12 237.96L151.68 237.96z" stroke="none" fill="#BFBFBF" fill-rule="nonzero" /><path id="1032" transform="matrix(1 0 0 -1 0 842)" d="M222.12 237.48L222.6 237.48L222.6 237.96L222.12 237.96z" stroke="none" fill="#BFBFBF" fill-rule="nonzero" /><path id="1033" transform="matrix(1 0 0 -1 0 842)" d="M222.6 237.48L326.64 237.48L326.64 237.96L222.6 237.96z" stroke="none" fill="#BFBFBF" fill-rule="nonzero" /><path id="1034" transform="matrix(1 0 0 -1 0 842)" d="M326.64 237.48L327.121 237.48L327.121 237.96L326.64 237.96z" stroke="none" fill="#BFBFBF" fill-rule="nonzero" /><path id="1035" transform="matrix(1 0 0 -1 0 842)" d="M327.12 237.48L487.559 237.48L487.559 237.96L327.12 237.96z" stroke="none" fill="#BFBFBF" fill-rule="nonzero" /><path id="1036" transform="matrix(1 0 0 -1 0 842)" d="M487.56 237.48L488.041 237.48L488.041 237.96L487.56 237.96z" stroke="none" fill="#BFBFBF" fill-rule="nonzero" /><path id="1037" transform="matrix(1 0 0 -1 0 842)" d="M151.2 199.08L151.68 199.08L151.68 237.48L151.2 237.48z" stroke="none" fill="#BFBFBF" fill-rule="nonzero" /><path id="1038" transform="matrix(1 0 0 -1 0 842)" d="M222.12 199.08L222.6 199.08L222.6 237.48L222.12 237.48z" stroke="none" fill="#BFBFBF" fill-rule="nonzero" /><path id="1039" transform="matrix(1 0 0 -1 0 842)" d="M326.64 199.08L327.121 199.08L327.121 237.48L326.64 237.48z" stroke="none" fill="#BFBFBF" fill-rule="nonzero" /><path id="1040" transform="matrix(1 0 0 -1 0 842)" d="M487.56 199.08L488.041 199.08L488.041 237.48L487.56 237.48z" stroke="none" fill="#BFBFBF" fill-rule="nonzero" /><g clip-path="url(#55)"></g><g clip-path="url(#56)"></g><g clip-path="url(#57)"></g><g clip-path="url(#58)"></g><g clip-path="url(#59)"></g><g clip-path="url(#60)"></g><g clip-path="url(#61)"></g><path id="1188" transform="matrix(1 0 0 -1 0 842)" d="M151.2 198.6L151.68 198.6L151.68 199.08L151.2 199.08z" stroke="none" fill="#BFBFBF" fill-rule="nonzero" /><path id="1189" transform="matrix(1 0 0 -1 0 842)" d="M151.68 198.6L222.12 198.6L222.12 199.08L151.68 199.08z" stroke="none" fill="#BFBFBF" fill-rule="nonzero" /><path id="1190" transform="matrix(1 0 0 -1 0 842)" d="M222.12 198.6L222.6 198.6L222.6 199.08L222.12 199.08z" stroke="none" fill="#BFBFBF" fill-rule="nonzero" /><path id="1191" transform="matrix(1 0 0 -1 0 842)" d="M222.6 198.6L326.64 198.6L326.64 199.08L222.6 199.08z" stroke="none" fill="#BFBFBF" fill-rule="nonzero" /><path id="1192" transform="matrix(1 0 0 -1 0 842)" d="M326.64 198.6L327.121 198.6L327.121 199.08L326.64 199.08z" stroke="none" fill="#BFBFBF" fill-rule="nonzero" /><path id="1193" transform="matrix(1 0 0 -1 0 842)" d="M327.12 198.6L487.559 198.6L487.559 199.08L327.12 199.08z" stroke="none" fill="#BFBFBF" fill-rule="nonzero" /><path id="1194" transform="matrix(1 0 0 -1 0 842)" d="M487.56 198.6L488.041 198.6L488.041 199.08L487.56 199.08z" stroke="none" fill="#BFBFBF" fill-rule="nonzero" /><path id="1195" transform="matrix(1 0 0 -1 0 842)" d="M151.2 121.68L151.68 121.68L151.68 198.6L151.2 198.6z" stroke="none" fill="#BFBFBF" fill-rule="nonzero" /><path id="1196" transform="matrix(1 0 0 -1 0 842)" d="M222.12 121.68L222.6 121.68L222.6 198.6L222.12 198.6z" stroke="none" fill="#BFBFBF" fill-rule="nonzero" /><path id="1197" transform="matrix(1 0 0 -1 0 842)" d="M326.64 121.68L327.121 121.68L327.121 198.6L326.64 198.6z" stroke="none" fill="#BFBFBF" fill-rule="nonzero" /><path id="1198" transform="matrix(1 0 0 -1 0 842)" d="M487.56 121.68L488.041 121.68L488.041 198.6L487.56 198.6z" stroke="none" fill="#BFBFBF" fill-rule="nonzero" /><g clip-path="url(#62)"></g><g clip-path="url(#63)"></g><g clip-path="url(#64)"></g><g clip-path="url(#65)"></g><g clip-path="url(#66)"></g><g clip-path="url(#67)"></g><g clip-path="url(#68)"></g><path id="1341" transform="matrix(1 0 0 -1 0 842)" d="M151.2 121.2L151.68 121.2L151.68 121.68L151.2 121.68z" stroke="none" fill="#BFBFBF" fill-rule="nonzero" /><path id="1342" transform="matrix(1 0 0 -1 0 842)" d="M151.68 121.2L222.12 121.2L222.12 121.68L151.68 121.68z" stroke="none" fill="#BFBFBF" fill-rule="nonzero" /><path id="1343" transform="matrix(1 0 0 -1 0 842)" d="M222.12 121.2L222.6 121.2L222.6 121.68L222.12 121.68z" stroke="none" fill="#BFBFBF" fill-rule="nonzero" /><path id="1344" transform="matrix(1 0 0 -1 0 842)" d="M222.6 121.2L326.64 121.2L326.64 121.68L222.6 121.68z" stroke="none" fill="#BFBFBF" fill-rule="nonzero" /><path id="1345" transform="matrix(1 0 0 -1 0 842)" d="M326.64 121.2L327.121 121.2L327.121 121.68L326.64 121.68z" stroke="none" fill="#BFBFBF" fill-rule="nonzero" /><path id="1346" transform="matrix(1 0 0 -1 0 842)" d="M327.12 121.2L487.559 121.2L487.559 121.68L327.12 121.68z" stroke="none" fill="#BFBFBF" fill-rule="nonzero" /><path id="1347" transform="matrix(1 0 0 -1 0 842)" d="M487.56 121.2L488.041 121.2L488.041 121.68L487.56 121.68z" stroke="none" fill="#BFBFBF" fill-rule="nonzero" /><path id="1348" transform="matrix(1 0 0 -1 0 842)" d="M151.2 57.24L151.68 57.24L151.68 121.2L151.2 121.2z" stroke="none" fill="#BFBFBF" fill-rule="nonzero" /><path id="1349" transform="matrix(1 0 0 -1 0 842)" d="M151.2 56.76L151.68 56.76L151.68 57.24L151.2 57.24z" stroke="none" fill="#BFBFBF" fill-rule="nonzero" /><path id="1350" transform="matrix(1 0 0 -1 0 842)" d="M151.2 56.76L151.68 56.76L151.68 57.24L151.2 57.24z" stroke="none" fill="#BFBFBF" fill-rule="nonzero" /><path id="1351" transform="matrix(1 0 0 -1 0 842)" d="M151.68 56.76L222.12 56.76L222.12 57.24L151.68 57.24z" stroke="none" fill="#BFBFBF" fill-rule="nonzero" /><path id="1352" transform="matrix(1 0 0 -1 0 842)" d="M222.12 57.24L222.6 57.24L222.6 121.2L222.12 121.2z" stroke="none" fill="#BFBFBF" fill-rule="nonzero" /><path id="1353" transform="matrix(1 0 0 -1 0 842)" d="M222.12 56.76L222.6 56.76L222.6 57.24L222.12 57.24z" stroke="none" fill="#BFBFBF" fill-rule="nonzero" /><path id="1354" transform="matrix(1 0 0 -1 0 842)" d="M222.6 56.76L326.64 56.76L326.64 57.24L222.6 57.24z" stroke="none" fill="#BFBFBF" fill-rule="nonzero" /><path id="1355" transform="matrix(1 0 0 -1 0 842)" d="M326.64 57.24L327.121 57.24L327.121 121.2L326.64 121.2z" stroke="none" fill="#BFBFBF" fill-rule="nonzero" /><path id="1356" transform="matrix(1 0 0 -1 0 842)" d="M326.64 56.76L327.121 56.76L327.121 57.24L326.64 57.24z" stroke="none" fill="#BFBFBF" fill-rule="nonzero" /><path id="1357" transform="matrix(1 0 0 -1 0 842)" d="M327.12 56.76L487.559 56.76L487.559 57.24L327.12 57.24z" stroke="none" fill="#BFBFBF" fill-rule="nonzero" /><path id="1358" transform="matrix(1 0 0 -1 0 842)" d="M487.56 57.24L488.041 57.24L488.041 121.2L487.56 121.2z" stroke="none" fill="#BFBFBF" fill-rule="nonzero" /><path id="1359" transform="matrix(1 0 0 -1 0 842)" d="M487.56 56.76L488.041 56.76L488.041 57.24L487.56 57.24z" stroke="none" fill="#BFBFBF" fill-rule="nonzero" /><path id="1360" transform="matrix(1 0 0 -1 0 842)" d="M487.56 56.76L488.041 56.76L488.041 57.24L487.56 57.24z" stroke="none" fill="#BFBFBF" fill-rule="nonzero" /><g clip-path="url(#69)"></g><g clip-path="url(#70)"></g><g clip-path="url(#71)"></g><g clip-path="url(#72)"></g><g clip-path="url(#73)"></g><g clip-path="url(#74)"></g><g clip-path="url(#75)"></g><g clip-path="url(#76)"></g><g clip-path="url(#77)"></g><g clip-path="url(#78)"></g><g clip-path="url(#79)"></g><g clip-path="url(#80)"></g><g clip-path="url(#81)"></g><g clip-path="url(#82)"></g><g clip-path="url(#83)"></g><g clip-path="url(#84)"></g><g clip-path="url(#85)"></g><g clip-path="url(#86)"></g><g clip-path="url(#87)"></g><g clip-path="url(#88)"></g><g clip-path="url(#89)"></g><g clip-path="url(#90)"></g><g clip-path="url(#91)"></g><g clip-path="url(#92)"></g><g clip-path="url(#93)"></g><g clip-path="url(#94)"></g><g clip-path="url(#95)"></g><g clip-path="url(#96)"></g></g></g></svg>