<svg xmlns="http://www.w3.org/2000/svg" xmlns:xlink="http://www.w3.org/1999/xlink" id="body_2" preserveAspectRatio="xMinYMin meet" viewBox="0 0 793 1123"><defs><clipPath id="1"><path id="" clip-rule="evenodd" transform="matrix(1 0 0 1 0 0)" d="M0 842L0 -0.03997803L0 -0.03997803L595.56 -0.03997803L595.56 -0.03997803L595.56 842L595.56 842L0 842z" /></clipPath><clipPath id="2"><path id="" clip-rule="evenodd" transform="matrix(1 0 0 1 0 0)" d="M226.8 60.44L361.56 60.44L361.56 60.44L361.56 32.47998L361.56 32.47998L226.8 32.47998z" /></clipPath><clipPath id="3"><path id="" clip-rule="evenodd" transform="matrix(1 0 0 1 0 0)" d="M226.8 60.44L361.56 60.44L361.56 60.44L361.56 32.47998L361.56 32.47998L226.8 32.47998z" /></clipPath><clipPath id="4"><path id="" clip-rule="evenodd" transform="matrix(1 0 0 1 0 0)" d="M226.8 60.44L361.56 60.44L361.56 60.44L361.56 32.47998L361.56 32.47998L226.8 32.47998z" /></clipPath><clipPath id="5"><path id="" clip-rule="evenodd" transform="matrix(1 0 0 1 0 0)" d="M362.04 60.44L501.36 60.44L501.36 60.44L501.36 32.47998L501.36 32.47998L362.04 32.47998z" /></clipPath><clipPath id="6"><path id="" clip-rule="evenodd" transform="matrix(1 0 0 1 0 0)" d="M362.04 60.44L501.36 60.44L501.36 60.44L501.36 32.47998L501.36 32.47998L362.04 32.47998z" /></clipPath><clipPath id="7"><path id="" clip-rule="evenodd" transform="matrix(1 0 0 1 0 0)" d="M362.04 60.44L501.36 60.44L501.36 60.44L501.36 32.47998L501.36 32.47998L362.04 32.47998z" /></clipPath><clipPath id="8"><path id="" clip-rule="evenodd" transform="matrix(1 0 0 1 0 0)" d="M125.88 88.88L226.32 88.88L226.32 88.88L226.32 60.91998L226.32 60.91998L125.88 60.91998z" /></clipPath><clipPath id="9"><path id="" clip-rule="evenodd" transform="matrix(1 0 0 1 0 0)" d="M125.88 88.88L226.32 88.88L226.32 88.88L226.32 60.91998L226.32 60.91998L125.88 60.91998z" /></clipPath><clipPath id="10"><path id="" clip-rule="evenodd" transform="matrix(1 0 0 1 0 0)" d="M226.8 88.88L361.56 88.88L361.56 88.88L361.56 60.91998L361.56 60.91998L226.8 60.91998z" /></clipPath><clipPath id="11"><path id="" clip-rule="evenodd" transform="matrix(1 0 0 1 0 0)" d="M226.8 88.88L361.56 88.88L361.56 88.88L361.56 60.91998L361.56 60.91998L226.8 60.91998z" /></clipPath><clipPath id="12"><path id="" clip-rule="evenodd" transform="matrix(1 0 0 1 0 0)" d="M226.8 88.88L361.56 88.88L361.56 88.88L361.56 60.91998L361.56 60.91998L226.8 60.91998z" /></clipPath><clipPath id="13"><path id="" clip-rule="evenodd" transform="matrix(1 0 0 1 0 0)" d="M362.04 88.88L501.36 88.88L501.36 88.88L501.36 60.91998L501.36 60.91998L362.04 60.91998z" /></clipPath><clipPath id="14"><path id="" clip-rule="evenodd" transform="matrix(1 0 0 1 0 0)" d="M362.04 88.88L501.36 88.88L501.36 88.88L501.36 60.91998L501.36 60.91998L362.04 60.91998z" /></clipPath><clipPath id="15"><path id="" clip-rule="evenodd" transform="matrix(1 0 0 1 0 0)" d="M362.04 88.88L501.36 88.88L501.36 88.88L501.36 60.91998L501.36 60.91998L362.04 60.91998z" /></clipPath><clipPath id="16"><path id="" clip-rule="evenodd" transform="matrix(1 0 0 1 0 0)" d="M74.04 607.04L94.799 607.04L94.799 607.04L94.799 131L94.799 131L74.04 131z" /></clipPath><clipPath id="17"><path id="" clip-rule="evenodd" transform="matrix(1 0 0 1 0 0)" d="M94.8 607.04L125.4 607.04L125.4 607.04L125.4 131L125.4 131L94.8 131z" /></clipPath><clipPath id="18"><path id="" clip-rule="evenodd" transform="matrix(1 0 0 1 0 0)" d="M94.8 607.04L125.4 607.04L125.4 607.04L125.4 131L125.4 131L94.8 131z" /></clipPath><clipPath id="19"><path id="" clip-rule="evenodd" transform="matrix(1 0 0 1 0 0)" d="M125.4 607.04L501.84 607.04L501.84 607.04L501.84 131L501.84 131L125.4 131z" /></clipPath><clipPath id="20"><path id="" clip-rule="evenodd" transform="matrix(1 0 0 1 0 0)" d="M125.4 607.04L501.84 607.04L501.84 607.04L501.84 131L501.84 131L125.4 131z" /></clipPath><clipPath id="21"><path id="" clip-rule="evenodd" transform="matrix(1 0 0 1 0 0)" d="M125.4 607.04L501.84 607.04L501.84 607.04L501.84 131L501.84 131L125.4 131z" /></clipPath><clipPath id="22"><path id="" clip-rule="evenodd" transform="matrix(1 0 0 1 0 0)" d="M125.4 607.04L501.84 607.04L501.84 607.04L501.84 131L501.84 131L125.4 131z" /></clipPath><clipPath id="23"><path id="" clip-rule="evenodd" transform="matrix(1 0 0 1 0 0)" d="M125.4 607.04L501.84 607.04L501.84 607.04L501.84 131L501.84 131L125.4 131z" /></clipPath><clipPath id="24"><path id="" clip-rule="evenodd" transform="matrix(1 0 0 1 0 0)" d="M125.4 607.04L501.84 607.04L501.84 607.04L501.84 131L501.84 131L125.4 131z" /></clipPath><clipPath id="25"><path id="" clip-rule="evenodd" transform="matrix(1 0 0 1 0 0)" d="M125.4 607.04L501.84 607.04L501.84 607.04L501.84 131L501.84 131L125.4 131z" /></clipPath><clipPath id="26"><path id="" clip-rule="evenodd" transform="matrix(1 0 0 1 0 0)" d="M125.4 607.04L501.84 607.04L501.84 607.04L501.84 131L501.84 131L125.4 131z" /></clipPath><clipPath id="27"><path id="" clip-rule="evenodd" transform="matrix(1 0 0 1 0 0)" d="M125.4 607.04L501.84 607.04L501.84 607.04L501.84 131L501.84 131L125.4 131z" /></clipPath><clipPath id="28"><path id="" clip-rule="evenodd" transform="matrix(1 0 0 1 0 0)" d="M501.84 607.04L543.48 607.04L543.48 607.04L543.48 131L543.48 131L501.84 131z" /></clipPath><clipPath id="29"><path id="" clip-rule="evenodd" transform="matrix(1 0 0 1 0 0)" d="M501.84 607.04L543.48 607.04L543.48 607.04L543.48 131L543.48 131L501.84 131z" /></clipPath><clipPath id="30"><path id="" clip-rule="evenodd" transform="matrix(1 0 0 1 0 0)" d="M74.04 772.52L94.799 772.52L94.799 772.52L94.799 607.04L94.799 607.04L74.04 607.04z" /></clipPath><clipPath id="31"><path id="" clip-rule="evenodd" transform="matrix(1 0 0 1 0 0)" d="M74.04 772.52L94.799 772.52L94.799 772.52L94.799 607.04L94.799 607.04L74.04 607.04z" /></clipPath><clipPath id="32"><path id="" clip-rule="evenodd" transform="matrix(1 0 0 1 0 0)" d="M125.4 772.52L501.84 772.52L501.84 772.52L501.84 607.04L501.84 607.04L125.4 607.04z" /></clipPath><clipPath id="33"><path id="" clip-rule="evenodd" transform="matrix(1 0 0 1 0 0)" d="M125.4 772.52L501.84 772.52L501.84 772.52L501.84 607.04L501.84 607.04L125.4 607.04z" /></clipPath><clipPath id="34"><path id="" clip-rule="evenodd" transform="matrix(1 0 0 1 0 0)" d="M125.4 772.52L501.84 772.52L501.84 772.52L501.84 607.04L501.84 607.04L125.4 607.04z" /></clipPath><clipPath id="35"><path id="" clip-rule="evenodd" transform="matrix(1 0 0 1 0 0)" d="M74.04 824.84L94.799 824.84L94.799 824.84L94.799 772.52L94.799 772.52L74.04 772.52z" /></clipPath><clipPath id="36"><path id="" clip-rule="evenodd" transform="matrix(1 0 0 1 0 0)" d="M94.8 824.84L125.4 824.84L125.4 824.84L125.4 772.52L125.4 772.52L94.8 772.52z" /></clipPath><clipPath id="37"><path id="" clip-rule="evenodd" transform="matrix(1 0 0 1 0 0)" d="M94.8 824.84L125.4 824.84L125.4 824.84L125.4 772.52L125.4 772.52L94.8 772.52z" /></clipPath><clipPath id="38"><path id="" clip-rule="evenodd" transform="matrix(1 0 0 1 0 0)" d="M125.4 824.84L501.84 824.84L501.84 824.84L501.84 772.52L501.84 772.52L125.4 772.52z" /></clipPath><clipPath id="39"><path id="" clip-rule="evenodd" transform="matrix(1 0 0 1 0 0)" d="M125.4 824.84L501.84 824.84L501.84 824.84L501.84 772.52L501.84 772.52L125.4 772.52z" /></clipPath><clipPath id="40"><path id="" clip-rule="evenodd" transform="matrix(1 0 0 1 0 0)" d="M125.4 824.84L501.84 824.84L501.84 824.84L501.84 772.52L501.84 772.52L125.4 772.52z" /></clipPath><clipPath id="41"><path id="" clip-rule="evenodd" transform="matrix(1 0 0 1 0 0)" d="M125.4 824.84L501.84 824.84L501.84 824.84L501.84 772.52L501.84 772.52L125.4 772.52z" /></clipPath><clipPath id="42"><path id="" clip-rule="evenodd" transform="matrix(1 0 0 1 0 0)" d="M125.4 824.84L501.84 824.84L501.84 824.84L501.84 772.52L501.84 772.52L125.4 772.52z" /></clipPath><clipPath id="43"><path id="" clip-rule="evenodd" transform="matrix(1 0 0 1 0 0)" d="M125.4 824.84L501.84 824.84L501.84 824.84L501.84 772.52L501.84 772.52L125.4 772.52z" /></clipPath><clipPath id="44"><path id="" clip-rule="evenodd" transform="matrix(1 0 0 1 0 0)" d="M125.4 824.84L501.84 824.84L501.84 824.84L501.84 772.52L501.84 772.52L125.4 772.52z" /></clipPath><clipPath id="45"><path id="" clip-rule="evenodd" transform="matrix(1 0 0 1 0 0)" d="M125.4 824.84L501.84 824.84L501.84 824.84L501.84 772.52L501.84 772.52L125.4 772.52z" /></clipPath><clipPath id="46"><path id="" clip-rule="evenodd" transform="matrix(1 0 0 1 0 0)" d="M125.4 824.84L501.84 824.84L501.84 824.84L501.84 772.52L501.84 772.52L125.4 772.52z" /></clipPath><clipPath id="47"><path id="" clip-rule="evenodd" transform="matrix(1 0 0 1 0 0)" d="M125.4 824.84L501.84 824.84L501.84 824.84L501.84 772.52L501.84 772.52L125.4 772.52z" /></clipPath><clipPath id="48"><path id="" clip-rule="evenodd" transform="matrix(1 0 0 1 0 0)" d="M125.4 824.84L501.84 824.84L501.84 824.84L501.84 772.52L501.84 772.52L125.4 772.52z" /></clipPath><clipPath id="49"><path id="" clip-rule="evenodd" transform="matrix(1 0 0 1 0 0)" d="M125.4 824.84L501.84 824.84L501.84 824.84L501.84 772.52L501.84 772.52L125.4 772.52z" /></clipPath><clipPath id="50"><path id="" clip-rule="evenodd" transform="matrix(1 0 0 1 0 0)" d="M125.4 824.84L501.84 824.84L501.84 824.84L501.84 772.52L501.84 772.52L125.4 772.52z" /></clipPath><clipPath id="51"><path id="" clip-rule="evenodd" transform="matrix(1 0 0 1 0 0)" d="M501.84 824.84L543.48 824.84L543.48 824.84L543.48 772.52L543.48 772.52L501.84 772.52z" /></clipPath><clipPath id="52"><path id="" clip-rule="evenodd" transform="matrix(1 0 0 1 0 0)" d="M501.84 824.84L543.48 824.84L543.48 824.84L543.48 772.52L543.48 772.52L501.84 772.52z" /></clipPath></defs><g transform="matrix(1.333333 0 0 1.333333 0 0)"><g clip-path="url(#1)"><g clip-path="url(#2)"></g><g clip-path="url(#3)"></g><g clip-path="url(#4)"></g><g clip-path="url(#5)"></g><g clip-path="url(#6)"></g><g clip-path="url(#7)"></g><path id="90" transform="matrix(1 0 0 -1 0 842)" d="M125.4 809.52L125.881 809.52L125.881 810L125.4 810z" stroke="none" fill="#BFBFBF" fill-rule="nonzero" /><path id="91" transform="matrix(1 0 0 -1 0 842)" d="M125.4 809.52L125.881 809.52L125.881 810L125.4 810z" stroke="none" fill="#BFBFBF" fill-rule="nonzero" /><path id="92" transform="matrix(1 0 0 -1 0 842)" d="M125.88 809.52L226.32 809.52L226.32 810L125.88 810z" stroke="none" fill="#BFBFBF" fill-rule="nonzero" /><path id="93" transform="matrix(1 0 0 -1 0 842)" d="M226.32 809.52L226.8 809.52L226.8 810L226.32 810z" stroke="none" fill="#BFBFBF" fill-rule="nonzero" /><path id="94" transform="matrix(1 0 0 -1 0 842)" d="M226.8 809.52L361.56 809.52L361.56 810L226.8 810z" stroke="none" fill="#BFBFBF" fill-rule="nonzero" /><path id="95" transform="matrix(1 0 0 -1 0 842)" d="M361.56 809.52L362.041 809.52L362.041 810L361.56 810z" stroke="none" fill="#BFBFBF" fill-rule="nonzero" /><path id="96" transform="matrix(1 0 0 -1 0 842)" d="M362.04 809.52L501.36 809.52L501.36 810L362.04 810z" stroke="none" fill="#BFBFBF" fill-rule="nonzero" /><path id="97" transform="matrix(1 0 0 -1 0 842)" d="M501.36 809.52L501.84 809.52L501.84 810L501.36 810z" stroke="none" fill="#BFBFBF" fill-rule="nonzero" /><path id="98" transform="matrix(1 0 0 -1 0 842)" d="M501.36 809.52L501.84 809.52L501.84 810L501.36 810z" stroke="none" fill="#BFBFBF" fill-rule="nonzero" /><path id="99" transform="matrix(1 0 0 -1 0 842)" d="M125.4 781.56L125.881 781.56L125.881 809.52L125.4 809.52z" stroke="none" fill="#BFBFBF" fill-rule="nonzero" /><path id="100" transform="matrix(1 0 0 -1 0 842)" d="M226.32 781.56L226.8 781.56L226.8 809.52L226.32 809.52z" stroke="none" fill="#BFBFBF" fill-rule="nonzero" /><path id="101" transform="matrix(1 0 0 -1 0 842)" d="M361.56 781.56L362.041 781.56L362.041 809.52L361.56 809.52z" stroke="none" fill="#BFBFBF" fill-rule="nonzero" /><path id="102" transform="matrix(1 0 0 -1 0 842)" d="M501.36 781.56L501.84 781.56L501.84 809.52L501.36 809.52z" stroke="none" fill="#BFBFBF" fill-rule="nonzero" /><g clip-path="url(#8)"></g><g clip-path="url(#9)"></g><g clip-path="url(#10)"></g><g clip-path="url(#11)"></g><g clip-path="url(#12)"></g><g clip-path="url(#13)"></g><g clip-path="url(#14)"></g><g clip-path="url(#15)"></g><path id="193" transform="matrix(1 0 0 -1 0 842)" d="M125.4 781.08L125.881 781.08L125.881 781.56L125.4 781.56z" stroke="none" fill="#BFBFBF" fill-rule="nonzero" /><path id="194" transform="matrix(1 0 0 -1 0 842)" d="M125.88 781.08L226.32 781.08L226.32 781.56L125.88 781.56z" stroke="none" fill="#BFBFBF" fill-rule="nonzero" /><path id="195" transform="matrix(1 0 0 -1 0 842)" d="M226.32 781.08L226.8 781.08L226.8 781.56L226.32 781.56z" stroke="none" fill="#BFBFBF" fill-rule="nonzero" /><path id="196" transform="matrix(1 0 0 -1 0 842)" d="M226.8 781.08L361.56 781.08L361.56 781.56L226.8 781.56z" stroke="none" fill="#BFBFBF" fill-rule="nonzero" /><path id="197" transform="matrix(1 0 0 -1 0 842)" d="M361.56 781.08L362.041 781.08L362.041 781.56L361.56 781.56z" stroke="none" fill="#BFBFBF" fill-rule="nonzero" /><path id="198" transform="matrix(1 0 0 -1 0 842)" d="M362.04 781.08L501.36 781.08L501.36 781.56L362.04 781.56z" stroke="none" fill="#BFBFBF" fill-rule="nonzero" /><path id="199" transform="matrix(1 0 0 -1 0 842)" d="M501.36 781.08L501.84 781.08L501.84 781.56L501.36 781.56z" stroke="none" fill="#BFBFBF" fill-rule="nonzero" /><path id="200" transform="matrix(1 0 0 -1 0 842)" d="M125.4 753.12L125.881 753.12L125.881 781.08L125.4 781.08z" stroke="none" fill="#BFBFBF" fill-rule="nonzero" /><path id="201" transform="matrix(1 0 0 -1 0 842)" d="M125.4 752.64L125.881 752.64L125.881 753.12L125.4 753.12z" stroke="none" fill="#BFBFBF" fill-rule="nonzero" /><path id="202" transform="matrix(1 0 0 -1 0 842)" d="M125.4 752.64L125.881 752.64L125.881 753.12L125.4 753.12z" stroke="none" fill="#BFBFBF" fill-rule="nonzero" /><path id="203" transform="matrix(1 0 0 -1 0 842)" d="M125.88 752.64L226.32 752.64L226.32 753.12L125.88 753.12z" stroke="none" fill="#BFBFBF" fill-rule="nonzero" /><path id="204" transform="matrix(1 0 0 -1 0 842)" d="M226.32 753.12L226.8 753.12L226.8 781.08L226.32 781.08z" stroke="none" fill="#BFBFBF" fill-rule="nonzero" /><path id="205" transform="matrix(1 0 0 -1 0 842)" d="M226.32 752.64L226.8 752.64L226.8 753.12L226.32 753.12z" stroke="none" fill="#BFBFBF" fill-rule="nonzero" /><path id="206" transform="matrix(1 0 0 -1 0 842)" d="M226.8 752.64L361.56 752.64L361.56 753.12L226.8 753.12z" stroke="none" fill="#BFBFBF" fill-rule="nonzero" /><path id="207" transform="matrix(1 0 0 -1 0 842)" d="M361.56 753.12L362.041 753.12L362.041 781.08L361.56 781.08z" stroke="none" fill="#BFBFBF" fill-rule="nonzero" /><path id="208" transform="matrix(1 0 0 -1 0 842)" d="M361.56 752.64L362.041 752.64L362.041 753.12L361.56 753.12z" stroke="none" fill="#BFBFBF" fill-rule="nonzero" /><path id="209" transform="matrix(1 0 0 -1 0 842)" d="M362.04 752.64L501.36 752.64L501.36 753.12L362.04 753.12z" stroke="none" fill="#BFBFBF" fill-rule="nonzero" /><path id="210" transform="matrix(1 0 0 -1 0 842)" d="M501.36 753.12L501.84 753.12L501.84 781.08L501.36 781.08z" stroke="none" fill="#BFBFBF" fill-rule="nonzero" /><path id="211" transform="matrix(1 0 0 -1 0 842)" d="M501.36 752.64L501.84 752.64L501.84 753.12L501.36 753.12z" stroke="none" fill="#BFBFBF" fill-rule="nonzero" /><path id="212" transform="matrix(1 0 0 -1 0 842)" d="M501.36 752.64L501.84 752.64L501.84 753.12L501.36 753.12z" stroke="none" fill="#BFBFBF" fill-rule="nonzero" /><g clip-path="url(#16)"></g><g clip-path="url(#17)"></g><g clip-path="url(#18)"></g><g clip-path="url(#19)"></g><g clip-path="url(#20)"></g><g clip-path="url(#21)"></g><g clip-path="url(#22)"></g><g clip-path="url(#23)"></g><g clip-path="url(#24)"></g><g clip-path="url(#25)"></g><g clip-path="url(#26)"></g><g clip-path="url(#27)"></g><g clip-path="url(#28)"></g><g clip-path="url(#29)"></g><g clip-path="url(#30)"></g><g clip-path="url(#31)"></g><g clip-path="url(#32)"></g><g clip-path="url(#33)"></g><g clip-path="url(#34)"></g><g clip-path="url(#35)"></g><g clip-path="url(#36)"></g><g clip-path="url(#37)"></g><g clip-path="url(#38)"></g><g clip-path="url(#39)"></g><g clip-path="url(#40)"></g><g clip-path="url(#41)"></g><g clip-path="url(#42)"></g><g clip-path="url(#43)"></g><g clip-path="url(#44)"></g><g clip-path="url(#45)"></g><g clip-path="url(#46)"></g><g clip-path="url(#47)"></g><g clip-path="url(#48)"></g><g clip-path="url(#49)"></g><g clip-path="url(#50)"></g><g clip-path="url(#51)"></g><g clip-path="url(#52)"></g></g></g></svg>