<svg xmlns="http://www.w3.org/2000/svg" xmlns:xlink="http://www.w3.org/1999/xlink" id="body_1" preserveAspectRatio="xMinYMin meet" viewBox="0 0 793 1123"><defs><clipPath id="1"><path id="" clip-rule="evenodd" transform="matrix(1 0 0 1 0 0)" d="M0 842L0 -0.03997803L0 -0.03997803L595.56 -0.03997803L595.56 -0.03997803L595.56 842L595.56 842L0 842z" /></clipPath><clipPath id="2"><path id="" clip-rule="evenodd" transform="matrix(1 0 0 1 0 0)" d="M74.04 237.2L94.799 237.2L94.799 237.2L94.799 221.96L94.799 221.96L74.04 221.96z" /></clipPath><clipPath id="3"><path id="" clip-rule="evenodd" transform="matrix(1 0 0 1 0 0)" d="M94.8 237.2L125.4 237.2L125.4 237.2L125.4 221.96L125.4 221.96L94.8 221.96z" /></clipPath><clipPath id="4"><path id="" clip-rule="evenodd" transform="matrix(1 0 0 1 0 0)" d="M125.4 237.2L501.84 237.2L501.84 237.2L501.84 221.96L501.84 221.96L125.4 221.96z" /></clipPath><clipPath id="5"><path id="" clip-rule="evenodd" transform="matrix(1 0 0 1 0 0)" d="M501.84 237.2L543.48 237.2L543.48 237.2L543.48 221.96L543.48 221.96L501.84 221.96z" /></clipPath><clipPath id="6"><path id="" clip-rule="evenodd" transform="matrix(1 0 0 1 0 0)" d="M501.84 237.2L543.48 237.2L543.48 237.2L543.48 221.96L543.48 221.96L501.84 221.96z" /></clipPath><clipPath id="7"><path id="" clip-rule="evenodd" transform="matrix(1 0 0 1 0 0)" d="M74.04 502.64L94.799 502.64L94.799 502.64L94.799 237.2L94.799 237.2L74.04 237.2z" /></clipPath><clipPath id="8"><path id="" clip-rule="evenodd" transform="matrix(1 0 0 1 0 0)" d="M74.04 502.64L94.799 502.64L94.799 502.64L94.799 237.2L94.799 237.2L74.04 237.2z" /></clipPath><clipPath id="9"><path id="" clip-rule="evenodd" transform="matrix(1 0 0 1 0 0)" d="M125.4 502.64L501.84 502.64L501.84 502.64L501.84 237.2L501.84 237.2L125.4 237.2z" /></clipPath><clipPath id="10"><path id="" clip-rule="evenodd" transform="matrix(1 0 0 1 0 0)" d="M74.04 825.08L94.799 825.08L94.799 825.08L94.799 502.64L94.799 502.64L74.04 502.64z" /></clipPath><clipPath id="11"><path id="" clip-rule="evenodd" transform="matrix(1 0 0 1 0 0)" d="M94.8 825.08L125.4 825.08L125.4 825.08L125.4 502.64L125.4 502.64L94.8 502.64z" /></clipPath><clipPath id="12"><path id="" clip-rule="evenodd" transform="matrix(1 0 0 1 0 0)" d="M94.8 825.08L125.4 825.08L125.4 825.08L125.4 502.64L125.4 502.64L94.8 502.64z" /></clipPath><clipPath id="13"><path id="" clip-rule="evenodd" transform="matrix(1 0 0 1 0 0)" d="M125.4 825.08L501.84 825.08L501.84 825.08L501.84 502.64L501.84 502.64L125.4 502.64z" /></clipPath><clipPath id="14"><path id="" clip-rule="evenodd" transform="matrix(1 0 0 1 0 0)" d="M125.4 825.08L501.84 825.08L501.84 825.08L501.84 502.64L501.84 502.64L125.4 502.64z" /></clipPath><clipPath id="15"><path id="" clip-rule="evenodd" transform="matrix(1 0 0 1 0 0)" d="M125.4 825.08L501.84 825.08L501.84 825.08L501.84 502.64L501.84 502.64L125.4 502.64z" /></clipPath><clipPath id="16"><path id="" clip-rule="evenodd" transform="matrix(1 0 0 1 0 0)" d="M125.4 825.08L501.84 825.08L501.84 825.08L501.84 502.64L501.84 502.64L125.4 502.64z" /></clipPath><clipPath id="17"><path id="" clip-rule="evenodd" transform="matrix(1 0 0 1 0 0)" d="M125.4 825.08L501.84 825.08L501.84 825.08L501.84 502.64L501.84 502.64L125.4 502.64z" /></clipPath><clipPath id="18"><path id="" clip-rule="evenodd" transform="matrix(1 0 0 1 0 0)" d="M125.4 825.08L501.84 825.08L501.84 825.08L501.84 502.64L501.84 502.64L125.4 502.64z" /></clipPath><clipPath id="19"><path id="" clip-rule="evenodd" transform="matrix(1 0 0 1 0 0)" d="M125.4 825.08L501.84 825.08L501.84 825.08L501.84 502.64L501.84 502.64L125.4 502.64z" /></clipPath><clipPath id="20"><path id="" clip-rule="evenodd" transform="matrix(1 0 0 1 0 0)" d="M125.4 825.08L501.84 825.08L501.84 825.08L501.84 502.64L501.84 502.64L125.4 502.64z" /></clipPath><clipPath id="21"><path id="" clip-rule="evenodd" transform="matrix(1 0 0 1 0 0)" d="M125.4 825.08L501.84 825.08L501.84 825.08L501.84 502.64L501.84 502.64L125.4 502.64z" /></clipPath><clipPath id="22"><path id="" clip-rule="evenodd" transform="matrix(1 0 0 1 0 0)" d="M125.4 825.08L501.84 825.08L501.84 825.08L501.84 502.64L501.84 502.64L125.4 502.64z" /></clipPath><clipPath id="23"><path id="" clip-rule="evenodd" transform="matrix(1 0 0 1 0 0)" d="M125.4 825.08L501.84 825.08L501.84 825.08L501.84 502.64L501.84 502.64L125.4 502.64z" /></clipPath><clipPath id="24"><path id="" clip-rule="evenodd" transform="matrix(1 0 0 1 0 0)" d="M125.4 825.08L501.84 825.08L501.84 825.08L501.84 502.64L501.84 502.64L125.4 502.64z" /></clipPath><clipPath id="25"><path id="" clip-rule="evenodd" transform="matrix(1 0 0 1 0 0)" d="M125.4 825.08L501.84 825.08L501.84 825.08L501.84 502.64L501.84 502.64L125.4 502.64z" /></clipPath><clipPath id="26"><path id="" clip-rule="evenodd" transform="matrix(1 0 0 1 0 0)" d="M125.4 825.08L501.84 825.08L501.84 825.08L501.84 502.64L501.84 502.64L125.4 502.64z" /></clipPath><clipPath id="27"><path id="" clip-rule="evenodd" transform="matrix(1 0 0 1 0 0)" d="M125.88 570.68L226.32 570.68L226.32 570.68L226.32 556.761L226.32 556.761L125.88 556.761z" /></clipPath><clipPath id="28"><path id="" clip-rule="evenodd" transform="matrix(1 0 0 1 0 0)" d="M226.8 570.68L361.56 570.68L361.56 570.68L361.56 556.761L361.56 556.761L226.8 556.761z" /></clipPath><clipPath id="29"><path id="" clip-rule="evenodd" transform="matrix(1 0 0 1 0 0)" d="M226.8 570.68L361.56 570.68L361.56 570.68L361.56 556.761L361.56 556.761L226.8 556.761z" /></clipPath><clipPath id="30"><path id="" clip-rule="evenodd" transform="matrix(1 0 0 1 0 0)" d="M362.04 570.68L498.84 570.68L498.84 570.68L498.84 556.761L498.84 556.761L362.04 556.761z" /></clipPath><clipPath id="31"><path id="" clip-rule="evenodd" transform="matrix(1 0 0 1 0 0)" d="M362.04 570.68L498.84 570.68L498.84 570.68L498.84 556.761L498.84 556.761L362.04 556.761z" /></clipPath><clipPath id="32"><path id="" clip-rule="evenodd" transform="matrix(1 0 0 1 0 0)" d="M125.88 613.16L226.32 613.16L226.32 613.16L226.32 571.161L226.32 571.161L125.88 571.161z" /></clipPath><clipPath id="33"><path id="" clip-rule="evenodd" transform="matrix(1 0 0 1 0 0)" d="M226.8 613.16L361.56 613.16L361.56 613.16L361.56 571.161L361.56 571.161L226.8 571.161z" /></clipPath><clipPath id="34"><path id="" clip-rule="evenodd" transform="matrix(1 0 0 1 0 0)" d="M226.8 613.16L361.56 613.16L361.56 613.16L361.56 571.161L361.56 571.161L226.8 571.161z" /></clipPath><clipPath id="35"><path id="" clip-rule="evenodd" transform="matrix(1 0 0 1 0 0)" d="M226.8 613.16L361.56 613.16L361.56 613.16L361.56 571.161L361.56 571.161L226.8 571.161z" /></clipPath><clipPath id="36"><path id="" clip-rule="evenodd" transform="matrix(1 0 0 1 0 0)" d="M362.04 613.16L501.36 613.16L501.36 613.16L501.36 571.161L501.36 571.161L362.04 571.161z" /></clipPath><clipPath id="37"><path id="" clip-rule="evenodd" transform="matrix(1 0 0 1 0 0)" d="M125.88 669.44L226.32 669.44L226.32 669.44L226.32 613.64L226.32 613.64L125.88 613.64z" /></clipPath><clipPath id="38"><path id="" clip-rule="evenodd" transform="matrix(1 0 0 1 0 0)" d="M125.88 669.44L226.32 669.44L226.32 669.44L226.32 613.64L226.32 613.64L125.88 613.64z" /></clipPath><clipPath id="39"><path id="" clip-rule="evenodd" transform="matrix(1 0 0 1 0 0)" d="M226.8 669.44L361.56 669.44L361.56 669.44L361.56 613.64L361.56 613.64L226.8 613.64z" /></clipPath><clipPath id="40"><path id="" clip-rule="evenodd" transform="matrix(1 0 0 1 0 0)" d="M362.04 669.44L501.36 669.44L501.36 669.44L501.36 613.64L501.36 613.64L362.04 613.64z" /></clipPath><clipPath id="41"><path id="" clip-rule="evenodd" transform="matrix(1 0 0 1 0 0)" d="M362.04 669.44L501.36 669.44L501.36 669.44L501.36 613.64L501.36 613.64L362.04 613.64z" /></clipPath><clipPath id="42"><path id="" clip-rule="evenodd" transform="matrix(1 0 0 1 0 0)" d="M362.04 669.44L501.36 669.44L501.36 669.44L501.36 613.64L501.36 613.64L362.04 613.64z" /></clipPath><clipPath id="43"><path id="" clip-rule="evenodd" transform="matrix(1 0 0 1 0 0)" d="M125.88 711.92L226.32 711.92L226.32 711.92L226.32 669.92L226.32 669.92L125.88 669.92z" /></clipPath><clipPath id="44"><path id="" clip-rule="evenodd" transform="matrix(1 0 0 1 0 0)" d="M125.88 711.92L226.32 711.92L226.32 711.92L226.32 669.92L226.32 669.92L125.88 669.92z" /></clipPath><clipPath id="45"><path id="" clip-rule="evenodd" transform="matrix(1 0 0 1 0 0)" d="M226.8 711.92L361.56 711.92L361.56 711.92L361.56 669.92L361.56 669.92L226.8 669.92z" /></clipPath><clipPath id="46"><path id="" clip-rule="evenodd" transform="matrix(1 0 0 1 0 0)" d="M226.8 711.92L361.56 711.92L361.56 711.92L361.56 669.92L361.56 669.92L226.8 669.92z" /></clipPath><clipPath id="47"><path id="" clip-rule="evenodd" transform="matrix(1 0 0 1 0 0)" d="M362.04 711.92L501.36 711.92L501.36 711.92L501.36 669.92L501.36 669.92L362.04 669.92z" /></clipPath><clipPath id="48"><path id="" clip-rule="evenodd" transform="matrix(1 0 0 1 0 0)" d="M362.04 711.92L501.36 711.92L501.36 711.92L501.36 669.92L501.36 669.92L362.04 669.92z" /></clipPath><clipPath id="49"><path id="" clip-rule="evenodd" transform="matrix(1 0 0 1 0 0)" d="M362.04 711.92L501.36 711.92L501.36 711.92L501.36 669.92L501.36 669.92L362.04 669.92z" /></clipPath><clipPath id="50"><path id="" clip-rule="evenodd" transform="matrix(1 0 0 1 0 0)" d="M125.88 768.2L226.32 768.2L226.32 768.2L226.32 712.4L226.32 712.4L125.88 712.4z" /></clipPath><clipPath id="51"><path id="" clip-rule="evenodd" transform="matrix(1 0 0 1 0 0)" d="M125.88 768.2L226.32 768.2L226.32 768.2L226.32 712.4L226.32 712.4L125.88 712.4z" /></clipPath><clipPath id="52"><path id="" clip-rule="evenodd" transform="matrix(1 0 0 1 0 0)" d="M226.8 768.2L361.56 768.2L361.56 768.2L361.56 712.4L361.56 712.4L226.8 712.4z" /></clipPath><clipPath id="53"><path id="" clip-rule="evenodd" transform="matrix(1 0 0 1 0 0)" d="M362.04 768.2L501.36 768.2L501.36 768.2L501.36 712.4L501.36 712.4L362.04 712.4z" /></clipPath><clipPath id="54"><path id="" clip-rule="evenodd" transform="matrix(1 0 0 1 0 0)" d="M362.04 768.2L501.36 768.2L501.36 768.2L501.36 712.4L501.36 712.4L362.04 712.4z" /></clipPath><clipPath id="55"><path id="" clip-rule="evenodd" transform="matrix(1 0 0 1 0 0)" d="M362.04 768.2L501.36 768.2L501.36 768.2L501.36 712.4L501.36 712.4L362.04 712.4z" /></clipPath><clipPath id="56"><path id="" clip-rule="evenodd" transform="matrix(1 0 0 1 0 0)" d="M125.88 810.68L226.32 810.68L226.32 810.68L226.32 768.68L226.32 768.68L125.88 768.68z" /></clipPath><clipPath id="57"><path id="" clip-rule="evenodd" transform="matrix(1 0 0 1 0 0)" d="M125.88 810.68L226.32 810.68L226.32 810.68L226.32 768.68L226.32 768.68L125.88 768.68z" /></clipPath><clipPath id="58"><path id="" clip-rule="evenodd" transform="matrix(1 0 0 1 0 0)" d="M226.8 810.68L361.56 810.68L361.56 810.68L361.56 768.68L361.56 768.68L226.8 768.68z" /></clipPath><clipPath id="59"><path id="" clip-rule="evenodd" transform="matrix(1 0 0 1 0 0)" d="M226.8 810.68L361.56 810.68L361.56 810.68L361.56 768.68L361.56 768.68L226.8 768.68z" /></clipPath><clipPath id="60"><path id="" clip-rule="evenodd" transform="matrix(1 0 0 1 0 0)" d="M226.8 810.68L361.56 810.68L361.56 810.68L361.56 768.68L361.56 768.68L226.8 768.68z" /></clipPath><clipPath id="61"><path id="" clip-rule="evenodd" transform="matrix(1 0 0 1 0 0)" d="M362.04 810.68L501.36 810.68L501.36 810.68L501.36 768.68L501.36 768.68L362.04 768.68z" /></clipPath><clipPath id="62"><path id="" clip-rule="evenodd" transform="matrix(1 0 0 1 0 0)" d="M362.04 810.68L501.36 810.68L501.36 810.68L501.36 768.68L501.36 768.68L362.04 768.68z" /></clipPath><clipPath id="63"><path id="" clip-rule="evenodd" transform="matrix(1 0 0 1 0 0)" d="M362.04 810.68L501.36 810.68L501.36 810.68L501.36 768.68L501.36 768.68L362.04 768.68z" /></clipPath><clipPath id="64"><path id="" clip-rule="evenodd" transform="matrix(1 0 0 1 0 0)" d="M125.88 825.08L226.32 825.08L226.32 825.08L226.32 811.16L226.32 811.16L125.88 811.16z" /></clipPath><clipPath id="65"><path id="" clip-rule="evenodd" transform="matrix(1 0 0 1 0 0)" d="M125.88 825.08L226.32 825.08L226.32 825.08L226.32 811.16L226.32 811.16L125.88 811.16z" /></clipPath><clipPath id="66"><path id="" clip-rule="evenodd" transform="matrix(1 0 0 1 0 0)" d="M226.8 825.08L361.56 825.08L361.56 825.08L361.56 811.16L361.56 811.16L226.8 811.16z" /></clipPath><clipPath id="67"><path id="" clip-rule="evenodd" transform="matrix(1 0 0 1 0 0)" d="M362.04 825.08L501.36 825.08L501.36 825.08L501.36 811.16L501.36 811.16L362.04 811.16z" /></clipPath><clipPath id="68"><path id="" clip-rule="evenodd" transform="matrix(1 0 0 1 0 0)" d="M501.84 825.08L543.48 825.08L543.48 825.08L543.48 502.64L543.48 502.64L501.84 502.64z" /></clipPath><clipPath id="69"><path id="" clip-rule="evenodd" transform="matrix(1 0 0 1 0 0)" d="M501.84 825.08L543.48 825.08L543.48 825.08L543.48 502.64L543.48 502.64L501.84 502.64z" /></clipPath></defs><g transform="matrix(1.333333 0 0 1.333333 0 0)"><g clip-path="url(#1)"><path id="21" transform="matrix(1 0 0 -1 0 842)" d="M126.84 793.2L177.6 793.2L177.6 793.8L126.84 793.8z" stroke="none" fill="#000000" fill-rule="nonzero" /><path id="22" transform="matrix(1 0 0 -1 0 842)" d="M451.68 793.2L521.399 793.2L521.399 793.8L451.68 793.8z" stroke="none" fill="#000000" fill-rule="nonzero" /><g clip-path="url(#2)"></g><g clip-path="url(#3)"></g><g clip-path="url(#4)"></g><g clip-path="url(#5)"></g><g clip-path="url(#6)"></g><g clip-path="url(#7)"></g><g clip-path="url(#8)"></g><g clip-path="url(#9)"></g><g clip-path="url(#10)"></g><g clip-path="url(#11)"></g><g clip-path="url(#12)"></g><g clip-path="url(#13)"></g><g clip-path="url(#14)"></g><g clip-path="url(#15)"></g><g clip-path="url(#16)"></g><g clip-path="url(#17)"></g><g clip-path="url(#18)"></g><g clip-path="url(#19)"></g><g clip-path="url(#20)"></g><g clip-path="url(#21)"></g><g clip-path="url(#22)"></g><g clip-path="url(#23)"></g><g clip-path="url(#24)"></g><g clip-path="url(#25)"></g><g clip-path="url(#26)"></g><g clip-path="url(#27)"></g><g clip-path="url(#28)"></g><g clip-path="url(#29)"></g><g clip-path="url(#30)"></g><g clip-path="url(#31)"></g><path id="1005" transform="matrix(1 0 0 -1 0 842)" d="M125.4 285.24L125.881 285.24L125.881 285.721L125.4 285.721z" stroke="none" fill="#BFBFBF" fill-rule="nonzero" /><path id="1006" transform="matrix(1 0 0 -1 0 842)" d="M125.4 285.24L125.881 285.24L125.881 285.721L125.4 285.721z" stroke="none" fill="#BFBFBF" fill-rule="nonzero" /><path id="1007" transform="matrix(1 0 0 -1 0 842)" d="M125.88 285.24L226.32 285.24L226.32 285.721L125.88 285.721z" stroke="none" fill="#BFBFBF" fill-rule="nonzero" /><path id="1008" transform="matrix(1 0 0 -1 0 842)" d="M226.32 285.24L226.8 285.24L226.8 285.721L226.32 285.721z" stroke="none" fill="#BFBFBF" fill-rule="nonzero" /><path id="1009" transform="matrix(1 0 0 -1 0 842)" d="M226.8 285.24L361.56 285.24L361.56 285.721L226.8 285.721z" stroke="none" fill="#BFBFBF" fill-rule="nonzero" /><path id="1010" transform="matrix(1 0 0 -1 0 842)" d="M361.56 285.24L362.041 285.24L362.041 285.721L361.56 285.721z" stroke="none" fill="#BFBFBF" fill-rule="nonzero" /><path id="1011" transform="matrix(1 0 0 -1 0 842)" d="M362.04 285.24L498.84 285.24L498.84 285.721L362.04 285.721z" stroke="none" fill="#BFBFBF" fill-rule="nonzero" /><path id="1012" transform="matrix(1 0 0 -1 0 842)" d="M498.84 285.24L499.32 285.24L499.32 285.721L498.84 285.721z" stroke="none" fill="#BFBFBF" fill-rule="nonzero" /><path id="1013" transform="matrix(1 0 0 -1 0 842)" d="M498.84 285.24L499.32 285.24L499.32 285.721L498.84 285.721z" stroke="none" fill="#BFBFBF" fill-rule="nonzero" /><path id="1014" transform="matrix(1 0 0 -1 0 842)" d="M125.4 271.32L125.881 271.32L125.881 285.239L125.4 285.239z" stroke="none" fill="#BFBFBF" fill-rule="nonzero" /><path id="1015" transform="matrix(1 0 0 -1 0 842)" d="M226.32 271.32L226.8 271.32L226.8 285.239L226.32 285.239z" stroke="none" fill="#BFBFBF" fill-rule="nonzero" /><path id="1016" transform="matrix(1 0 0 -1 0 842)" d="M361.56 271.32L362.041 271.32L362.041 285.239L361.56 285.239z" stroke="none" fill="#BFBFBF" fill-rule="nonzero" /><path id="1017" transform="matrix(1 0 0 -1 0 842)" d="M498.84 271.32L499.32 271.32L499.32 285.239L498.84 285.239z" stroke="none" fill="#BFBFBF" fill-rule="nonzero" /><g clip-path="url(#32)"></g><g clip-path="url(#33)"></g><g clip-path="url(#34)"></g><g clip-path="url(#35)"></g><g clip-path="url(#36)"></g><path id="1132" transform="matrix(1 0 0 -1 0 842)" d="M125.4 270.84L125.881 270.84L125.881 271.321L125.4 271.321z" stroke="none" fill="#BFBFBF" fill-rule="nonzero" /><path id="1133" transform="matrix(1 0 0 -1 0 842)" d="M125.88 270.84L226.32 270.84L226.32 271.321L125.88 271.321z" stroke="none" fill="#BFBFBF" fill-rule="nonzero" /><path id="1134" transform="matrix(1 0 0 -1 0 842)" d="M226.32 270.84L226.8 270.84L226.8 271.321L226.32 271.321z" stroke="none" fill="#BFBFBF" fill-rule="nonzero" /><path id="1135" transform="matrix(1 0 0 -1 0 842)" d="M226.8 270.84L361.56 270.84L361.56 271.321L226.8 271.321z" stroke="none" fill="#BFBFBF" fill-rule="nonzero" /><path id="1136" transform="matrix(1 0 0 -1 0 842)" d="M361.56 270.84L362.041 270.84L362.041 271.321L361.56 271.321z" stroke="none" fill="#BFBFBF" fill-rule="nonzero" /><path id="1137" transform="matrix(1 0 0 -1 0 842)" d="M362.04 270.84L498.84 270.84L498.84 271.321L362.04 271.321z" stroke="none" fill="#BFBFBF" fill-rule="nonzero" /><path id="1138" transform="matrix(1 0 0 -1 0 842)" d="M498.84 270.84L499.32 270.84L499.32 271.321L498.84 271.321z" stroke="none" fill="#BFBFBF" fill-rule="nonzero" /><path id="1139" transform="matrix(1 0 0 -1 0 842)" d="M499.32 270.84L499.8 270.84L499.8 271.321L499.32 271.321z" stroke="none" fill="#BFBFBF" fill-rule="nonzero" /><path id="1140" transform="matrix(1 0 0 -1 0 842)" d="M499.8 270.84L501.361 270.84L501.361 271.321L499.8 271.321z" stroke="none" fill="#BFBFBF" fill-rule="nonzero" /><path id="1141" transform="matrix(1 0 0 -1 0 842)" d="M501.36 270.84L501.84 270.84L501.84 271.321L501.36 271.321z" stroke="none" fill="#BFBFBF" fill-rule="nonzero" /><path id="1142" transform="matrix(1 0 0 -1 0 842)" d="M501.36 270.84L501.84 270.84L501.84 271.321L501.36 271.321z" stroke="none" fill="#BFBFBF" fill-rule="nonzero" /><path id="1143" transform="matrix(1 0 0 -1 0 842)" d="M125.4 228.84L125.881 228.84L125.881 270.839L125.4 270.839z" stroke="none" fill="#BFBFBF" fill-rule="nonzero" /><path id="1144" transform="matrix(1 0 0 -1 0 842)" d="M226.32 228.84L226.8 228.84L226.8 270.839L226.32 270.839z" stroke="none" fill="#BFBFBF" fill-rule="nonzero" /><path id="1145" transform="matrix(1 0 0 -1 0 842)" d="M361.56 228.84L362.041 228.84L362.041 270.839L361.56 270.839z" stroke="none" fill="#BFBFBF" fill-rule="nonzero" /><path id="1146" transform="matrix(1 0 0 -1 0 842)" d="M501.36 228.84L501.84 228.84L501.84 270.839L501.36 270.839z" stroke="none" fill="#BFBFBF" fill-rule="nonzero" /><g clip-path="url(#37)"></g><g clip-path="url(#38)"></g><g clip-path="url(#39)"></g><g clip-path="url(#40)"></g><g clip-path="url(#41)"></g><g clip-path="url(#42)"></g><path id="1281" transform="matrix(1 0 0 -1 0 842)" d="M125.4 228.36L125.881 228.36L125.881 228.841L125.4 228.841z" stroke="none" fill="#BFBFBF" fill-rule="nonzero" /><path id="1282" transform="matrix(1 0 0 -1 0 842)" d="M125.88 228.36L226.32 228.36L226.32 228.841L125.88 228.841z" stroke="none" fill="#BFBFBF" fill-rule="nonzero" /><path id="1283" transform="matrix(1 0 0 -1 0 842)" d="M226.32 228.36L226.8 228.36L226.8 228.841L226.32 228.841z" stroke="none" fill="#BFBFBF" fill-rule="nonzero" /><path id="1284" transform="matrix(1 0 0 -1 0 842)" d="M226.8 228.36L361.56 228.36L361.56 228.841L226.8 228.841z" stroke="none" fill="#BFBFBF" fill-rule="nonzero" /><path id="1285" transform="matrix(1 0 0 -1 0 842)" d="M361.56 228.36L362.041 228.36L362.041 228.841L361.56 228.841z" stroke="none" fill="#BFBFBF" fill-rule="nonzero" /><path id="1286" transform="matrix(1 0 0 -1 0 842)" d="M362.04 228.36L501.36 228.36L501.36 228.841L362.04 228.841z" stroke="none" fill="#BFBFBF" fill-rule="nonzero" /><path id="1287" transform="matrix(1 0 0 -1 0 842)" d="M501.36 228.36L501.84 228.36L501.84 228.841L501.36 228.841z" stroke="none" fill="#BFBFBF" fill-rule="nonzero" /><path id="1288" transform="matrix(1 0 0 -1 0 842)" d="M125.4 172.56L125.881 172.56L125.881 228.36L125.4 228.36z" stroke="none" fill="#BFBFBF" fill-rule="nonzero" /><path id="1289" transform="matrix(1 0 0 -1 0 842)" d="M226.32 172.56L226.8 172.56L226.8 228.36L226.32 228.36z" stroke="none" fill="#BFBFBF" fill-rule="nonzero" /><path id="1290" transform="matrix(1 0 0 -1 0 842)" d="M361.56 172.56L362.041 172.56L362.041 228.36L361.56 228.36z" stroke="none" fill="#BFBFBF" fill-rule="nonzero" /><path id="1291" transform="matrix(1 0 0 -1 0 842)" d="M501.36 172.56L501.84 172.56L501.84 228.36L501.36 228.36z" stroke="none" fill="#BFBFBF" fill-rule="nonzero" /><g clip-path="url(#43)"></g><g clip-path="url(#44)"></g><g clip-path="url(#45)"></g><g clip-path="url(#46)"></g><g clip-path="url(#47)"></g><g clip-path="url(#48)"></g><g clip-path="url(#49)"></g><path id="1416" transform="matrix(1 0 0 -1 0 842)" d="M125.4 172.08L125.881 172.08L125.881 172.56L125.4 172.56z" stroke="none" fill="#BFBFBF" fill-rule="nonzero" /><path id="1417" transform="matrix(1 0 0 -1 0 842)" d="M125.88 172.08L226.32 172.08L226.32 172.56L125.88 172.56z" stroke="none" fill="#BFBFBF" fill-rule="nonzero" /><path id="1418" transform="matrix(1 0 0 -1 0 842)" d="M226.32 172.08L226.8 172.08L226.8 172.56L226.32 172.56z" stroke="none" fill="#BFBFBF" fill-rule="nonzero" /><path id="1419" transform="matrix(1 0 0 -1 0 842)" d="M226.8 172.08L361.56 172.08L361.56 172.56L226.8 172.56z" stroke="none" fill="#BFBFBF" fill-rule="nonzero" /><path id="1420" transform="matrix(1 0 0 -1 0 842)" d="M361.56 172.08L362.041 172.08L362.041 172.56L361.56 172.56z" stroke="none" fill="#BFBFBF" fill-rule="nonzero" /><path id="1421" transform="matrix(1 0 0 -1 0 842)" d="M362.04 172.08L501.36 172.08L501.36 172.56L362.04 172.56z" stroke="none" fill="#BFBFBF" fill-rule="nonzero" /><path id="1422" transform="matrix(1 0 0 -1 0 842)" d="M501.36 172.08L501.84 172.08L501.84 172.56L501.36 172.56z" stroke="none" fill="#BFBFBF" fill-rule="nonzero" /><path id="1423" transform="matrix(1 0 0 -1 0 842)" d="M125.4 130.08L125.881 130.08L125.881 172.08L125.4 172.08z" stroke="none" fill="#BFBFBF" fill-rule="nonzero" /><path id="1424" transform="matrix(1 0 0 -1 0 842)" d="M226.32 130.08L226.8 130.08L226.8 172.08L226.32 172.08z" stroke="none" fill="#BFBFBF" fill-rule="nonzero" /><path id="1425" transform="matrix(1 0 0 -1 0 842)" d="M361.56 130.08L362.041 130.08L362.041 172.08L361.56 172.08z" stroke="none" fill="#BFBFBF" fill-rule="nonzero" /><path id="1426" transform="matrix(1 0 0 -1 0 842)" d="M501.36 130.08L501.84 130.08L501.84 172.08L501.36 172.08z" stroke="none" fill="#BFBFBF" fill-rule="nonzero" /><g clip-path="url(#50)"></g><g clip-path="url(#51)"></g><g clip-path="url(#52)"></g><g clip-path="url(#53)"></g><g clip-path="url(#54)"></g><g clip-path="url(#55)"></g><path id="1598" transform="matrix(1 0 0 -1 0 842)" d="M125.4 129.6L125.881 129.6L125.881 130.08L125.4 130.08z" stroke="none" fill="#BFBFBF" fill-rule="nonzero" /><path id="1599" transform="matrix(1 0 0 -1 0 842)" d="M125.88 129.6L226.32 129.6L226.32 130.08L125.88 130.08z" stroke="none" fill="#BFBFBF" fill-rule="nonzero" /><path id="1600" transform="matrix(1 0 0 -1 0 842)" d="M226.32 129.6L226.8 129.6L226.8 130.08L226.32 130.08z" stroke="none" fill="#BFBFBF" fill-rule="nonzero" /><path id="1601" transform="matrix(1 0 0 -1 0 842)" d="M226.8 129.6L361.56 129.6L361.56 130.08L226.8 130.08z" stroke="none" fill="#BFBFBF" fill-rule="nonzero" /><path id="1602" transform="matrix(1 0 0 -1 0 842)" d="M361.56 129.6L362.041 129.6L362.041 130.08L361.56 130.08z" stroke="none" fill="#BFBFBF" fill-rule="nonzero" /><path id="1603" transform="matrix(1 0 0 -1 0 842)" d="M362.04 129.6L501.36 129.6L501.36 130.08L362.04 130.08z" stroke="none" fill="#BFBFBF" fill-rule="nonzero" /><path id="1604" transform="matrix(1 0 0 -1 0 842)" d="M501.36 129.6L501.84 129.6L501.84 130.08L501.36 130.08z" stroke="none" fill="#BFBFBF" fill-rule="nonzero" /><path id="1605" transform="matrix(1 0 0 -1 0 842)" d="M125.4 73.8L125.881 73.8L125.881 129.6L125.4 129.6z" stroke="none" fill="#BFBFBF" fill-rule="nonzero" /><path id="1606" transform="matrix(1 0 0 -1 0 842)" d="M226.32 73.8L226.8 73.8L226.8 129.6L226.32 129.6z" stroke="none" fill="#BFBFBF" fill-rule="nonzero" /><path id="1607" transform="matrix(1 0 0 -1 0 842)" d="M361.56 73.8L362.041 73.8L362.041 129.6L361.56 129.6z" stroke="none" fill="#BFBFBF" fill-rule="nonzero" /><path id="1608" transform="matrix(1 0 0 -1 0 842)" d="M501.36 73.8L501.84 73.8L501.84 129.6L501.36 129.6z" stroke="none" fill="#BFBFBF" fill-rule="nonzero" /><g clip-path="url(#56)"></g><g clip-path="url(#57)"></g><g clip-path="url(#58)"></g><g clip-path="url(#59)"></g><g clip-path="url(#60)"></g><g clip-path="url(#61)"></g><g clip-path="url(#62)"></g><g clip-path="url(#63)"></g><path id="1752" transform="matrix(1 0 0 -1 0 842)" d="M125.4 73.32L125.881 73.32L125.881 73.8L125.4 73.8z" stroke="none" fill="#BFBFBF" fill-rule="nonzero" /><path id="1753" transform="matrix(1 0 0 -1 0 842)" d="M125.88 73.32L226.32 73.32L226.32 73.8L125.88 73.8z" stroke="none" fill="#BFBFBF" fill-rule="nonzero" /><path id="1754" transform="matrix(1 0 0 -1 0 842)" d="M226.32 73.32L226.8 73.32L226.8 73.8L226.32 73.8z" stroke="none" fill="#BFBFBF" fill-rule="nonzero" /><path id="1755" transform="matrix(1 0 0 -1 0 842)" d="M226.8 73.32L361.56 73.32L361.56 73.8L226.8 73.8z" stroke="none" fill="#BFBFBF" fill-rule="nonzero" /><path id="1756" transform="matrix(1 0 0 -1 0 842)" d="M361.56 73.32L362.041 73.32L362.041 73.8L361.56 73.8z" stroke="none" fill="#BFBFBF" fill-rule="nonzero" /><path id="1757" transform="matrix(1 0 0 -1 0 842)" d="M362.04 73.32L501.36 73.32L501.36 73.8L362.04 73.8z" stroke="none" fill="#BFBFBF" fill-rule="nonzero" /><path id="1758" transform="matrix(1 0 0 -1 0 842)" d="M501.36 73.32L501.84 73.32L501.84 73.8L501.36 73.8z" stroke="none" fill="#BFBFBF" fill-rule="nonzero" /><path id="1759" transform="matrix(1 0 0 -1 0 842)" d="M125.4 31.32L125.881 31.32L125.881 73.32L125.4 73.32z" stroke="none" fill="#BFBFBF" fill-rule="nonzero" /><path id="1760" transform="matrix(1 0 0 -1 0 842)" d="M226.32 31.32L226.8 31.32L226.8 73.32L226.32 73.32z" stroke="none" fill="#BFBFBF" fill-rule="nonzero" /><path id="1761" transform="matrix(1 0 0 -1 0 842)" d="M361.56 31.32L362.041 31.32L362.041 73.32L361.56 73.32z" stroke="none" fill="#BFBFBF" fill-rule="nonzero" /><path id="1762" transform="matrix(1 0 0 -1 0 842)" d="M501.36 31.32L501.84 31.32L501.84 73.32L501.36 73.32z" stroke="none" fill="#BFBFBF" fill-rule="nonzero" /><g clip-path="url(#64)"></g><g clip-path="url(#65)"></g><g clip-path="url(#66)"></g><g clip-path="url(#67)"></g><path id="1824" transform="matrix(1 0 0 -1 0 842)" d="M125.4 30.84L125.881 30.84L125.881 31.32L125.4 31.32z" stroke="none" fill="#BFBFBF" fill-rule="nonzero" /><path id="1825" transform="matrix(1 0 0 -1 0 842)" d="M125.88 30.84L226.32 30.84L226.32 31.32L125.88 31.32z" stroke="none" fill="#BFBFBF" fill-rule="nonzero" /><path id="1826" transform="matrix(1 0 0 -1 0 842)" d="M226.32 30.84L226.8 30.84L226.8 31.32L226.32 31.32z" stroke="none" fill="#BFBFBF" fill-rule="nonzero" /><path id="1827" transform="matrix(1 0 0 -1 0 842)" d="M226.8 30.84L361.56 30.84L361.56 31.32L226.8 31.32z" stroke="none" fill="#BFBFBF" fill-rule="nonzero" /><path id="1828" transform="matrix(1 0 0 -1 0 842)" d="M361.56 30.84L362.041 30.84L362.041 31.32L361.56 31.32z" stroke="none" fill="#BFBFBF" fill-rule="nonzero" /><path id="1829" transform="matrix(1 0 0 -1 0 842)" d="M362.04 30.84L501.36 30.84L501.36 31.32L362.04 31.32z" stroke="none" fill="#BFBFBF" fill-rule="nonzero" /><path id="1830" transform="matrix(1 0 0 -1 0 842)" d="M501.36 30.84L501.84 30.84L501.84 31.32L501.36 31.32z" stroke="none" fill="#BFBFBF" fill-rule="nonzero" /><path id="1831" transform="matrix(1 0 0 -1 0 842)" d="M125.4 17.4L125.881 17.4L125.881 30.841L125.4 30.841z" stroke="none" fill="#BFBFBF" fill-rule="nonzero" /><path id="1832" transform="matrix(1 0 0 -1 0 842)" d="M125.4 16.92L125.881 16.92L125.881 17.4L125.4 17.4z" stroke="none" fill="#BFBFBF" fill-rule="nonzero" /><path id="1833" transform="matrix(1 0 0 -1 0 842)" d="M125.4 16.92L125.881 16.92L125.881 17.4L125.4 17.4z" stroke="none" fill="#BFBFBF" fill-rule="nonzero" /><path id="1834" transform="matrix(1 0 0 -1 0 842)" d="M125.88 16.92L226.32 16.92L226.32 17.4L125.88 17.4z" stroke="none" fill="#BFBFBF" fill-rule="nonzero" /><path id="1835" transform="matrix(1 0 0 -1 0 842)" d="M226.32 17.4L226.8 17.4L226.8 30.841L226.32 30.841z" stroke="none" fill="#BFBFBF" fill-rule="nonzero" /><path id="1836" transform="matrix(1 0 0 -1 0 842)" d="M226.32 16.92L226.8 16.92L226.8 17.4L226.32 17.4z" stroke="none" fill="#BFBFBF" fill-rule="nonzero" /><path id="1837" transform="matrix(1 0 0 -1 0 842)" d="M226.8 16.92L361.56 16.92L361.56 17.4L226.8 17.4z" stroke="none" fill="#BFBFBF" fill-rule="nonzero" /><path id="1838" transform="matrix(1 0 0 -1 0 842)" d="M361.56 17.4L362.041 17.4L362.041 30.841L361.56 30.841z" stroke="none" fill="#BFBFBF" fill-rule="nonzero" /><path id="1839" transform="matrix(1 0 0 -1 0 842)" d="M361.56 16.92L362.041 16.92L362.041 17.4L361.56 17.4z" stroke="none" fill="#BFBFBF" fill-rule="nonzero" /><path id="1840" transform="matrix(1 0 0 -1 0 842)" d="M362.04 16.92L501.36 16.92L501.36 17.4L362.04 17.4z" stroke="none" fill="#BFBFBF" fill-rule="nonzero" /><path id="1841" transform="matrix(1 0 0 -1 0 842)" d="M501.36 17.4L501.84 17.4L501.84 30.841L501.36 30.841z" stroke="none" fill="#BFBFBF" fill-rule="nonzero" /><path id="1842" transform="matrix(1 0 0 -1 0 842)" d="M501.36 16.92L501.84 16.92L501.84 17.4L501.36 17.4z" stroke="none" fill="#BFBFBF" fill-rule="nonzero" /><path id="1843" transform="matrix(1 0 0 -1 0 842)" d="M501.36 16.92L501.84 16.92L501.84 17.4L501.36 17.4z" stroke="none" fill="#BFBFBF" fill-rule="nonzero" /><g clip-path="url(#68)"></g><g clip-path="url(#69)"></g></g></g></svg>