<svg xmlns="http://www.w3.org/2000/svg" xmlns:xlink="http://www.w3.org/1999/xlink" id="body_4" preserveAspectRatio="xMinYMin meet" viewBox="0 0 793 1123"><defs><clipPath id="1"><path id="" clip-rule="evenodd" transform="matrix(1 0 0 1 0 0)" d="M0 842L0 -0.03997803L0 -0.03997803L595.56 -0.03997803L595.56 -0.03997803L595.56 842L595.56 842L0 842z" /></clipPath><clipPath id="2"><path id="" clip-rule="evenodd" transform="matrix(1 0 0 1 0 0)" d="M74.04 346.88L94.799 346.88L94.799 346.88L94.799 32L94.799 32L74.04 32z" /></clipPath><clipPath id="3"><path id="" clip-rule="evenodd" transform="matrix(1 0 0 1 0 0)" d="M74.04 346.88L94.799 346.88L94.799 346.88L94.799 32L94.799 32L74.04 32z" /></clipPath><clipPath id="4"><path id="" clip-rule="evenodd" transform="matrix(1 0 0 1 0 0)" d="M94.8 346.88L125.4 346.88L125.4 346.88L125.4 32L125.4 32L94.8 32z" /></clipPath><clipPath id="5"><path id="" clip-rule="evenodd" transform="matrix(1 0 0 1 0 0)" d="M94.8 346.88L125.4 346.88L125.4 346.88L125.4 32L125.4 32L94.8 32z" /></clipPath><clipPath id="6"><path id="" clip-rule="evenodd" transform="matrix(1 0 0 1 0 0)" d="M125.4 346.88L501.84 346.88L501.84 346.88L501.84 32L501.84 32L125.4 32z" /></clipPath><clipPath id="7"><path id="" clip-rule="evenodd" transform="matrix(1 0 0 1 0 0)" d="M125.4 346.88L501.84 346.88L501.84 346.88L501.84 32L501.84 32L125.4 32z" /></clipPath><clipPath id="8"><path id="" clip-rule="evenodd" transform="matrix(1 0 0 1 0 0)" d="M125.4 346.88L501.84 346.88L501.84 346.88L501.84 32L501.84 32L125.4 32z" /></clipPath><clipPath id="9"><path id="" clip-rule="evenodd" transform="matrix(1 0 0 1 0 0)" d="M125.4 346.88L501.84 346.88L501.84 346.88L501.84 32L501.84 32L125.4 32z" /></clipPath><clipPath id="10"><path id="" clip-rule="evenodd" transform="matrix(1 0 0 1 0 0)" d="M125.4 346.88L501.84 346.88L501.84 346.88L501.84 32L501.84 32L125.4 32z" /></clipPath><clipPath id="11"><path id="" clip-rule="evenodd" transform="matrix(1 0 0 1 0 0)" d="M125.4 346.88L501.84 346.88L501.84 346.88L501.84 32L501.84 32L125.4 32z" /></clipPath><clipPath id="12"><path id="" clip-rule="evenodd" transform="matrix(1 0 0 1 0 0)" d="M125.4 346.88L501.84 346.88L501.84 346.88L501.84 32L501.84 32L125.4 32z" /></clipPath><clipPath id="13"><path id="" clip-rule="evenodd" transform="matrix(1 0 0 1 0 0)" d="M125.4 346.88L501.84 346.88L501.84 346.88L501.84 32L501.84 32L125.4 32z" /></clipPath><clipPath id="14"><path id="" clip-rule="evenodd" transform="matrix(1 0 0 1 0 0)" d="M125.4 346.88L501.84 346.88L501.84 346.88L501.84 32L501.84 32L125.4 32z" /></clipPath><clipPath id="15"><path id="" clip-rule="evenodd" transform="matrix(1 0 0 1 0 0)" d="M125.4 346.88L501.84 346.88L501.84 346.88L501.84 32L501.84 32L125.4 32z" /></clipPath><clipPath id="16"><path id="" clip-rule="evenodd" transform="matrix(1 0 0 1 0 0)" d="M125.4 346.88L501.84 346.88L501.84 346.88L501.84 32L501.84 32L125.4 32z" /></clipPath><clipPath id="17"><path id="" clip-rule="evenodd" transform="matrix(1 0 0 1 0 0)" d="M125.4 346.88L501.84 346.88L501.84 346.88L501.84 32L501.84 32L125.4 32z" /></clipPath><clipPath id="18"><path id="" clip-rule="evenodd" transform="matrix(1 0 0 1 0 0)" d="M125.88 59.23999L214.319 59.23999L214.319 59.23999L214.319 45.32001L214.319 45.32001L125.88 45.32001z" /></clipPath><clipPath id="19"><path id="" clip-rule="evenodd" transform="matrix(1 0 0 1 0 0)" d="M125.88 59.23999L214.319 59.23999L214.319 59.23999L214.319 45.32001L214.319 45.32001L125.88 45.32001z" /></clipPath><clipPath id="20"><path id="" clip-rule="evenodd" transform="matrix(1 0 0 1 0 0)" d="M214.8 59.23999L354.12 59.23999L354.12 59.23999L354.12 45.32001L354.12 45.32001L214.8 45.32001z" /></clipPath><clipPath id="21"><path id="" clip-rule="evenodd" transform="matrix(1 0 0 1 0 0)" d="M214.8 59.23999L354.12 59.23999L354.12 59.23999L354.12 45.32001L354.12 45.32001L214.8 45.32001z" /></clipPath><clipPath id="22"><path id="" clip-rule="evenodd" transform="matrix(1 0 0 1 0 0)" d="M354.6 59.23999L501.36 59.23999L501.36 59.23999L501.36 45.32001L501.36 45.32001L354.6 45.32001z" /></clipPath><clipPath id="23"><path id="" clip-rule="evenodd" transform="matrix(1 0 0 1 0 0)" d="M354.6 59.23999L501.36 59.23999L501.36 59.23999L501.36 45.32001L501.36 45.32001L354.6 45.32001z" /></clipPath><clipPath id="24"><path id="" clip-rule="evenodd" transform="matrix(1 0 0 1 0 0)" d="M354.6 115.64L501.36 115.64L501.36 115.64L501.36 59.72003L501.36 59.72003L354.6 59.72003z" /></clipPath><clipPath id="25"><path id="" clip-rule="evenodd" transform="matrix(1 0 0 1 0 0)" d="M354.6 115.64L501.36 115.64L501.36 115.64L501.36 59.72003L501.36 59.72003L354.6 59.72003z" /></clipPath><clipPath id="26"><path id="" clip-rule="evenodd" transform="matrix(1 0 0 1 0 0)" d="M354.6 115.64L501.36 115.64L501.36 115.64L501.36 59.72003L501.36 59.72003L354.6 59.72003z" /></clipPath><clipPath id="27"><path id="" clip-rule="evenodd" transform="matrix(1 0 0 1 0 0)" d="M125.88 130.04L214.319 130.04L214.319 130.04L214.319 116.121L214.319 116.121L125.88 116.121z" /></clipPath><clipPath id="28"><path id="" clip-rule="evenodd" transform="matrix(1 0 0 1 0 0)" d="M125.88 130.04L214.319 130.04L214.319 130.04L214.319 116.121L214.319 116.121L125.88 116.121z" /></clipPath><clipPath id="29"><path id="" clip-rule="evenodd" transform="matrix(1 0 0 1 0 0)" d="M214.8 130.04L354.12 130.04L354.12 130.04L354.12 116.121L354.12 116.121L214.8 116.121z" /></clipPath><clipPath id="30"><path id="" clip-rule="evenodd" transform="matrix(1 0 0 1 0 0)" d="M214.8 130.04L354.12 130.04L354.12 130.04L354.12 116.121L354.12 116.121L214.8 116.121z" /></clipPath><clipPath id="31"><path id="" clip-rule="evenodd" transform="matrix(1 0 0 1 0 0)" d="M354.6 130.04L501.36 130.04L501.36 130.04L501.36 116.121L501.36 116.121L354.6 116.121z" /></clipPath><clipPath id="32"><path id="" clip-rule="evenodd" transform="matrix(1 0 0 1 0 0)" d="M354.6 130.04L501.36 130.04L501.36 130.04L501.36 116.121L501.36 116.121L354.6 116.121z" /></clipPath><clipPath id="33"><path id="" clip-rule="evenodd" transform="matrix(1 0 0 1 0 0)" d="M125.88 144.56L214.319 144.56L214.319 144.56L214.319 130.52L214.319 130.52L125.88 130.52z" /></clipPath><clipPath id="34"><path id="" clip-rule="evenodd" transform="matrix(1 0 0 1 0 0)" d="M125.88 144.56L214.319 144.56L214.319 144.56L214.319 130.52L214.319 130.52L125.88 130.52z" /></clipPath><clipPath id="35"><path id="" clip-rule="evenodd" transform="matrix(1 0 0 1 0 0)" d="M214.8 144.56L354.12 144.56L354.12 144.56L354.12 130.52L354.12 130.52L214.8 130.52z" /></clipPath><clipPath id="36"><path id="" clip-rule="evenodd" transform="matrix(1 0 0 1 0 0)" d="M214.8 144.56L354.12 144.56L354.12 144.56L354.12 130.52L354.12 130.52L214.8 130.52z" /></clipPath><clipPath id="37"><path id="" clip-rule="evenodd" transform="matrix(1 0 0 1 0 0)" d="M354.6 144.56L501.36 144.56L501.36 144.56L501.36 130.52L501.36 130.52L354.6 130.52z" /></clipPath><clipPath id="38"><path id="" clip-rule="evenodd" transform="matrix(1 0 0 1 0 0)" d="M354.6 144.56L501.36 144.56L501.36 144.56L501.36 130.52L501.36 130.52L354.6 130.52z" /></clipPath><clipPath id="39"><path id="" clip-rule="evenodd" transform="matrix(1 0 0 1 0 0)" d="M125.88 171.68L214.319 171.68L214.319 171.68L214.319 145.04L214.319 145.04L125.88 145.04z" /></clipPath><clipPath id="40"><path id="" clip-rule="evenodd" transform="matrix(1 0 0 1 0 0)" d="M125.88 171.68L214.319 171.68L214.319 171.68L214.319 145.04L214.319 145.04L125.88 145.04z" /></clipPath><clipPath id="41"><path id="" clip-rule="evenodd" transform="matrix(1 0 0 1 0 0)" d="M125.88 171.68L214.319 171.68L214.319 171.68L214.319 145.04L214.319 145.04L125.88 145.04z" /></clipPath><clipPath id="42"><path id="" clip-rule="evenodd" transform="matrix(1 0 0 1 0 0)" d="M125.88 198.68L214.319 198.68L214.319 198.68L214.319 172.16L214.319 172.16L125.88 172.16z" /></clipPath><clipPath id="43"><path id="" clip-rule="evenodd" transform="matrix(1 0 0 1 0 0)" d="M125.88 198.68L214.319 198.68L214.319 198.68L214.319 172.16L214.319 172.16L125.88 172.16z" /></clipPath><clipPath id="44"><path id="" clip-rule="evenodd" transform="matrix(1 0 0 1 0 0)" d="M125.88 198.68L214.319 198.68L214.319 198.68L214.319 172.16L214.319 172.16L125.88 172.16z" /></clipPath><clipPath id="45"><path id="" clip-rule="evenodd" transform="matrix(1 0 0 1 0 0)" d="M214.8 227.12L354.12 227.12L354.12 227.12L354.12 199.28L354.12 199.28L214.8 199.28z" /></clipPath><clipPath id="46"><path id="" clip-rule="evenodd" transform="matrix(1 0 0 1 0 0)" d="M214.8 227.12L354.12 227.12L354.12 227.12L354.12 199.28L354.12 199.28L214.8 199.28z" /></clipPath><clipPath id="47"><path id="" clip-rule="evenodd" transform="matrix(1 0 0 1 0 0)" d="M214.8 227.12L354.12 227.12L354.12 227.12L354.12 199.28L354.12 199.28L214.8 199.28z" /></clipPath><clipPath id="48"><path id="" clip-rule="evenodd" transform="matrix(1 0 0 1 0 0)" d="M354.6 227.12L501.36 227.12L501.36 227.12L501.36 199.28L501.36 199.28L354.6 199.28z" /></clipPath><clipPath id="49"><path id="" clip-rule="evenodd" transform="matrix(1 0 0 1 0 0)" d="M354.6 227.12L501.36 227.12L501.36 227.12L501.36 199.28L501.36 199.28L354.6 199.28z" /></clipPath><clipPath id="50"><path id="" clip-rule="evenodd" transform="matrix(1 0 0 1 0 0)" d="M354.6 227.12L501.36 227.12L501.36 227.12L501.36 199.28L501.36 199.28L354.6 199.28z" /></clipPath><clipPath id="51"><path id="" clip-rule="evenodd" transform="matrix(1 0 0 1 0 0)" d="M354.6 227.12L501.36 227.12L501.36 227.12L501.36 199.28L501.36 199.28L354.6 199.28z" /></clipPath><clipPath id="52"><path id="" clip-rule="evenodd" transform="matrix(1 0 0 1 0 0)" d="M354.6 227.12L501.36 227.12L501.36 227.12L501.36 199.28L501.36 199.28L354.6 199.28z" /></clipPath><clipPath id="53"><path id="" clip-rule="evenodd" transform="matrix(1 0 0 1 0 0)" d="M354.6 227.12L501.36 227.12L501.36 227.12L501.36 199.28L501.36 199.28L354.6 199.28z" /></clipPath><clipPath id="54"><path id="" clip-rule="evenodd" transform="matrix(1 0 0 1 0 0)" d="M214.8 255.56L354.12 255.56L354.12 255.56L354.12 227.6L354.12 227.6L214.8 227.6z" /></clipPath><clipPath id="55"><path id="" clip-rule="evenodd" transform="matrix(1 0 0 1 0 0)" d="M214.8 255.56L354.12 255.56L354.12 255.56L354.12 227.6L354.12 227.6L214.8 227.6z" /></clipPath><clipPath id="56"><path id="" clip-rule="evenodd" transform="matrix(1 0 0 1 0 0)" d="M214.8 255.56L354.12 255.56L354.12 255.56L354.12 227.6L354.12 227.6L214.8 227.6z" /></clipPath><clipPath id="57"><path id="" clip-rule="evenodd" transform="matrix(1 0 0 1 0 0)" d="M354.6 255.56L501.36 255.56L501.36 255.56L501.36 227.6L501.36 227.6L354.6 227.6z" /></clipPath><clipPath id="58"><path id="" clip-rule="evenodd" transform="matrix(1 0 0 1 0 0)" d="M354.6 255.56L501.36 255.56L501.36 255.56L501.36 227.6L501.36 227.6L354.6 227.6z" /></clipPath><clipPath id="59"><path id="" clip-rule="evenodd" transform="matrix(1 0 0 1 0 0)" d="M354.6 255.56L501.36 255.56L501.36 255.56L501.36 227.6L501.36 227.6L354.6 227.6z" /></clipPath><clipPath id="60"><path id="" clip-rule="evenodd" transform="matrix(1 0 0 1 0 0)" d="M354.6 255.56L501.36 255.56L501.36 255.56L501.36 227.6L501.36 227.6L354.6 227.6z" /></clipPath><clipPath id="61"><path id="" clip-rule="evenodd" transform="matrix(1 0 0 1 0 0)" d="M354.6 255.56L501.36 255.56L501.36 255.56L501.36 227.6L501.36 227.6L354.6 227.6z" /></clipPath><clipPath id="62"><path id="" clip-rule="evenodd" transform="matrix(1 0 0 1 0 0)" d="M125.88 284L214.319 284L214.319 284L214.319 256.04L214.319 256.04L125.88 256.04z" /></clipPath><clipPath id="63"><path id="" clip-rule="evenodd" transform="matrix(1 0 0 1 0 0)" d="M125.88 284L214.319 284L214.319 284L214.319 256.04L214.319 256.04L125.88 256.04z" /></clipPath><clipPath id="64"><path id="" clip-rule="evenodd" transform="matrix(1 0 0 1 0 0)" d="M125.88 284L214.319 284L214.319 284L214.319 256.04L214.319 256.04L125.88 256.04z" /></clipPath><clipPath id="65"><path id="" clip-rule="evenodd" transform="matrix(1 0 0 1 0 0)" d="M214.8 284L354.12 284L354.12 284L354.12 256.04L354.12 256.04L214.8 256.04z" /></clipPath><clipPath id="66"><path id="" clip-rule="evenodd" transform="matrix(1 0 0 1 0 0)" d="M214.8 284L354.12 284L354.12 284L354.12 256.04L354.12 256.04L214.8 256.04z" /></clipPath><clipPath id="67"><path id="" clip-rule="evenodd" transform="matrix(1 0 0 1 0 0)" d="M214.8 284L354.12 284L354.12 284L354.12 256.04L354.12 256.04L214.8 256.04z" /></clipPath><clipPath id="68"><path id="" clip-rule="evenodd" transform="matrix(1 0 0 1 0 0)" d="M354.6 284L501.36 284L501.36 284L501.36 256.04L501.36 256.04L354.6 256.04z" /></clipPath><clipPath id="69"><path id="" clip-rule="evenodd" transform="matrix(1 0 0 1 0 0)" d="M354.6 284L501.36 284L501.36 284L501.36 256.04L501.36 256.04L354.6 256.04z" /></clipPath><clipPath id="70"><path id="" clip-rule="evenodd" transform="matrix(1 0 0 1 0 0)" d="M354.6 284L501.36 284L501.36 284L501.36 256.04L501.36 256.04L354.6 256.04z" /></clipPath><clipPath id="71"><path id="" clip-rule="evenodd" transform="matrix(1 0 0 1 0 0)" d="M354.6 312.44L501.36 312.44L501.36 312.44L501.36 284.48L501.36 284.48L354.6 284.48z" /></clipPath><clipPath id="72"><path id="" clip-rule="evenodd" transform="matrix(1 0 0 1 0 0)" d="M354.6 312.44L501.36 312.44L501.36 312.44L501.36 284.48L501.36 284.48L354.6 284.48z" /></clipPath><clipPath id="73"><path id="" clip-rule="evenodd" transform="matrix(1 0 0 1 0 0)" d="M354.6 312.44L501.36 312.44L501.36 312.44L501.36 284.48L501.36 284.48L354.6 284.48z" /></clipPath><clipPath id="74"><path id="" clip-rule="evenodd" transform="matrix(1 0 0 1 0 0)" d="M501.84 346.88L543.48 346.88L543.48 346.88L543.48 32L543.48 32L501.84 32z" /></clipPath><clipPath id="75"><path id="" clip-rule="evenodd" transform="matrix(1 0 0 1 0 0)" d="M501.84 346.88L543.48 346.88L543.48 346.88L543.48 32L543.48 32L501.84 32z" /></clipPath><clipPath id="76"><path id="" clip-rule="evenodd" transform="matrix(1 0 0 1 0 0)" d="M74.04 749.72L94.799 749.72L94.799 749.72L94.799 346.88L94.799 346.88L74.04 346.88z" /></clipPath><clipPath id="77"><path id="" clip-rule="evenodd" transform="matrix(1 0 0 1 0 0)" d="M94.8 749.72L125.4 749.72L125.4 749.72L125.4 346.88L125.4 346.88L94.8 346.88z" /></clipPath><clipPath id="78"><path id="" clip-rule="evenodd" transform="matrix(1 0 0 1 0 0)" d="M94.8 749.72L125.4 749.72L125.4 749.72L125.4 346.88L125.4 346.88L94.8 346.88z" /></clipPath><clipPath id="79"><path id="" clip-rule="evenodd" transform="matrix(1 0 0 1 0 0)" d="M125.4 749.72L501.84 749.72L501.84 749.72L501.84 346.88L501.84 346.88L125.4 346.88z" /></clipPath><clipPath id="80"><path id="" clip-rule="evenodd" transform="matrix(1 0 0 1 0 0)" d="M125.4 749.72L501.84 749.72L501.84 749.72L501.84 346.88L501.84 346.88L125.4 346.88z" /></clipPath><clipPath id="81"><path id="" clip-rule="evenodd" transform="matrix(1 0 0 1 0 0)" d="M125.4 749.72L501.84 749.72L501.84 749.72L501.84 346.88L501.84 346.88L125.4 346.88z" /></clipPath><clipPath id="82"><path id="" clip-rule="evenodd" transform="matrix(1 0 0 1 0 0)" d="M125.4 749.72L501.84 749.72L501.84 749.72L501.84 346.88L501.84 346.88L125.4 346.88z" /></clipPath><clipPath id="83"><path id="" clip-rule="evenodd" transform="matrix(1 0 0 1 0 0)" d="M125.4 749.72L501.84 749.72L501.84 749.72L501.84 346.88L501.84 346.88L125.4 346.88z" /></clipPath><clipPath id="84"><path id="" clip-rule="evenodd" transform="matrix(1 0 0 1 0 0)" d="M125.4 749.72L501.84 749.72L501.84 749.72L501.84 346.88L501.84 346.88L125.4 346.88z" /></clipPath><clipPath id="85"><path id="" clip-rule="evenodd" transform="matrix(1 0 0 1 0 0)" d="M125.4 749.72L501.84 749.72L501.84 749.72L501.84 346.88L501.84 346.88L125.4 346.88z" /></clipPath><clipPath id="86"><path id="" clip-rule="evenodd" transform="matrix(1 0 0 1 0 0)" d="M125.4 749.72L501.84 749.72L501.84 749.72L501.84 346.88L501.84 346.88L125.4 346.88z" /></clipPath><clipPath id="87"><path id="" clip-rule="evenodd" transform="matrix(1 0 0 1 0 0)" d="M125.4 749.72L501.84 749.72L501.84 749.72L501.84 346.88L501.84 346.88L125.4 346.88z" /></clipPath><clipPath id="88"><path id="" clip-rule="evenodd" transform="matrix(1 0 0 1 0 0)" d="M125.4 749.72L501.84 749.72L501.84 749.72L501.84 346.88L501.84 346.88L125.4 346.88z" /></clipPath><clipPath id="89"><path id="" clip-rule="evenodd" transform="matrix(1 0 0 1 0 0)" d="M125.4 749.72L501.84 749.72L501.84 749.72L501.84 346.88L501.84 346.88L125.4 346.88z" /></clipPath><clipPath id="90"><path id="" clip-rule="evenodd" transform="matrix(1 0 0 1 0 0)" d="M125.4 749.72L501.84 749.72L501.84 749.72L501.84 346.88L501.84 346.88L125.4 346.88z" /></clipPath><clipPath id="91"><path id="" clip-rule="evenodd" transform="matrix(1 0 0 1 0 0)" d="M125.4 749.72L501.84 749.72L501.84 749.72L501.84 346.88L501.84 346.88L125.4 346.88z" /></clipPath><clipPath id="92"><path id="" clip-rule="evenodd" transform="matrix(1 0 0 1 0 0)" d="M125.4 749.72L501.84 749.72L501.84 749.72L501.84 346.88L501.84 346.88L125.4 346.88z" /></clipPath><clipPath id="93"><path id="" clip-rule="evenodd" transform="matrix(1 0 0 1 0 0)" d="M125.4 749.72L501.84 749.72L501.84 749.72L501.84 346.88L501.84 346.88L125.4 346.88z" /></clipPath><clipPath id="94"><path id="" clip-rule="evenodd" transform="matrix(1 0 0 1 0 0)" d="M501.84 749.72L543.48 749.72L543.48 749.72L543.48 346.88L543.48 346.88L501.84 346.88z" /></clipPath><clipPath id="95"><path id="" clip-rule="evenodd" transform="matrix(1 0 0 1 0 0)" d="M501.84 749.72L543.48 749.72L543.48 749.72L543.48 346.88L543.48 346.88L501.84 346.88z" /></clipPath><clipPath id="96"><path id="" clip-rule="evenodd" transform="matrix(1 0 0 1 0 0)" d="M74.04 817.28L94.799 817.28L94.799 817.28L94.799 749.721L94.799 749.721L74.04 749.721z" /></clipPath><clipPath id="97"><path id="" clip-rule="evenodd" transform="matrix(1 0 0 1 0 0)" d="M94.8 817.28L125.4 817.28L125.4 817.28L125.4 749.721L125.4 749.721L94.8 749.721z" /></clipPath><clipPath id="98"><path id="" clip-rule="evenodd" transform="matrix(1 0 0 1 0 0)" d="M94.8 817.28L125.4 817.28L125.4 817.28L125.4 749.721L125.4 749.721L94.8 749.721z" /></clipPath><clipPath id="99"><path id="" clip-rule="evenodd" transform="matrix(1 0 0 1 0 0)" d="M125.4 817.28L501.84 817.28L501.84 817.28L501.84 749.721L501.84 749.721L125.4 749.721z" /></clipPath><clipPath id="100"><path id="" clip-rule="evenodd" transform="matrix(1 0 0 1 0 0)" d="M125.4 817.28L501.84 817.28L501.84 817.28L501.84 749.721L501.84 749.721L125.4 749.721z" /></clipPath><clipPath id="101"><path id="" clip-rule="evenodd" transform="matrix(1 0 0 1 0 0)" d="M125.4 817.28L501.84 817.28L501.84 817.28L501.84 749.721L501.84 749.721L125.4 749.721z" /></clipPath><clipPath id="102"><path id="" clip-rule="evenodd" transform="matrix(1 0 0 1 0 0)" d="M125.4 817.28L501.84 817.28L501.84 817.28L501.84 749.721L501.84 749.721L125.4 749.721z" /></clipPath><clipPath id="103"><path id="" clip-rule="evenodd" transform="matrix(1 0 0 1 0 0)" d="M125.4 817.28L501.84 817.28L501.84 817.28L501.84 749.721L501.84 749.721L125.4 749.721z" /></clipPath><clipPath id="104"><path id="" clip-rule="evenodd" transform="matrix(1 0 0 1 0 0)" d="M125.4 817.28L501.84 817.28L501.84 817.28L501.84 749.721L501.84 749.721L125.4 749.721z" /></clipPath><clipPath id="105"><path id="" clip-rule="evenodd" transform="matrix(1 0 0 1 0 0)" d="M125.4 817.28L501.84 817.28L501.84 817.28L501.84 749.721L501.84 749.721L125.4 749.721z" /></clipPath><clipPath id="106"><path id="" clip-rule="evenodd" transform="matrix(1 0 0 1 0 0)" d="M125.4 817.28L501.84 817.28L501.84 817.28L501.84 749.721L501.84 749.721L125.4 749.721z" /></clipPath><clipPath id="107"><path id="" clip-rule="evenodd" transform="matrix(1 0 0 1 0 0)" d="M125.4 817.28L501.84 817.28L501.84 817.28L501.84 749.721L501.84 749.721L125.4 749.721z" /></clipPath><clipPath id="108"><path id="" clip-rule="evenodd" transform="matrix(1 0 0 1 0 0)" d="M125.4 817.28L501.84 817.28L501.84 817.28L501.84 749.721L501.84 749.721L125.4 749.721z" /></clipPath><clipPath id="109"><path id="" clip-rule="evenodd" transform="matrix(1 0 0 1 0 0)" d="M501.84 817.28L543.48 817.28L543.48 817.28L543.48 749.721L543.48 749.721L501.84 749.721z" /></clipPath><clipPath id="110"><path id="" clip-rule="evenodd" transform="matrix(1 0 0 1 0 0)" d="M501.84 817.28L543.48 817.28L543.48 817.28L543.48 749.721L543.48 749.721L501.84 749.721z" /></clipPath></defs><g transform="matrix(1.333333 0 0 1.333333 0 0)"><g clip-path="url(#1)"><g clip-path="url(#2)"></g><g clip-path="url(#3)"></g><g clip-path="url(#4)"></g><g clip-path="url(#5)"></g><g clip-path="url(#6)"></g><g clip-path="url(#7)"></g><g clip-path="url(#8)"></g><g clip-path="url(#9)"></g><g clip-path="url(#10)"></g><g clip-path="url(#11)"></g><g clip-path="url(#12)"></g><g clip-path="url(#13)"></g><g clip-path="url(#14)"></g><g clip-path="url(#15)"></g><g clip-path="url(#16)"></g><g clip-path="url(#17)"></g><g clip-path="url(#18)"></g><g clip-path="url(#19)"></g><g clip-path="url(#20)"></g><g clip-path="url(#21)"></g><g clip-path="url(#22)"></g><g clip-path="url(#23)"></g><path id="53" transform="matrix(1 0 0 -1 0 842)" d="M125.4 796.8L125.881 796.8L125.881 797.281L125.4 797.281z" stroke="none" fill="#BFBFBF" fill-rule="nonzero" /><path id="54" transform="matrix(1 0 0 -1 0 842)" d="M125.4 796.8L125.881 796.8L125.881 797.281L125.4 797.281z" stroke="none" fill="#BFBFBF" fill-rule="nonzero" /><path id="55" transform="matrix(1 0 0 -1 0 842)" d="M125.88 796.8L214.319 796.8L214.319 797.281L125.88 797.281z" stroke="none" fill="#BFBFBF" fill-rule="nonzero" /><path id="56" transform="matrix(1 0 0 -1 0 842)" d="M214.32 796.8L214.801 796.8L214.801 797.281L214.32 797.281z" stroke="none" fill="#BFBFBF" fill-rule="nonzero" /><path id="57" transform="matrix(1 0 0 -1 0 842)" d="M214.8 796.8L354.24 796.8L354.24 797.281L214.8 797.281z" stroke="none" fill="#BFBFBF" fill-rule="nonzero" /><path id="58" transform="matrix(1 0 0 -1 0 842)" d="M354.24 796.8L354.72 796.8L354.72 797.281L354.24 797.281z" stroke="none" fill="#BFBFBF" fill-rule="nonzero" /><path id="59" transform="matrix(1 0 0 -1 0 842)" d="M354.72 796.8L501.361 796.8L501.361 797.281L354.72 797.281z" stroke="none" fill="#BFBFBF" fill-rule="nonzero" /><path id="60" transform="matrix(1 0 0 -1 0 842)" d="M501.36 796.8L501.84 796.8L501.84 797.281L501.36 797.281z" stroke="none" fill="#BFBFBF" fill-rule="nonzero" /><path id="61" transform="matrix(1 0 0 -1 0 842)" d="M501.36 796.8L501.84 796.8L501.84 797.281L501.36 797.281z" stroke="none" fill="#BFBFBF" fill-rule="nonzero" /><path id="62" transform="matrix(1 0 0 -1 0 842)" d="M125.4 782.76L125.881 782.76L125.881 796.8L125.4 796.8z" stroke="none" fill="#BFBFBF" fill-rule="nonzero" /><path id="63" transform="matrix(1 0 0 -1 0 842)" d="M214.32 782.76L214.801 782.76L214.801 796.8L214.32 796.8z" stroke="none" fill="#BFBFBF" fill-rule="nonzero" /><path id="64" transform="matrix(1 0 0 -1 0 842)" d="M354.24 782.76L354.72 782.76L354.72 796.8L354.24 796.8z" stroke="none" fill="#BFBFBF" fill-rule="nonzero" /><path id="65" transform="matrix(1 0 0 -1 0 842)" d="M501.36 782.76L501.84 782.76L501.84 796.8L501.36 796.8z" stroke="none" fill="#BFBFBF" fill-rule="nonzero" /><path id="66" transform="matrix(1 0 0 -1 0 842)" d="M125.88 726.36L214.319 726.36L214.319 782.28L125.88 782.28z" stroke="none" fill="#F2F2F2" fill-rule="nonzero" /><path id="67" transform="matrix(1 0 0 -1 0 842)" d="M131.04 740.64L209.16 740.64L209.16 740.64L209.16 768L209.16 768L131.04 768z" stroke="none" fill="#F2F2F2" fill-rule="evenodd" /><path id="79" transform="matrix(1 0 0 -1 0 842)" d="M214.8 726.36L354.12 726.36L354.12 726.36L354.12 782.28L354.12 782.28L214.8 782.28z" stroke="none" fill="#F2F2F2" fill-rule="evenodd" /><path id="80" transform="matrix(1 0 0 -1 0 842)" d="M219.96 761.28L348.96 761.28L348.96 761.28L348.96 775.32L348.96 775.32L219.96 775.32z" stroke="none" fill="#F2F2F2" fill-rule="evenodd" /><path id="105" transform="matrix(1 0 0 -1 0 842)" d="M219.96 747.36L348.96 747.36L348.96 747.36L348.96 761.28L348.96 761.28L219.96 761.28z" stroke="none" fill="#F2F2F2" fill-rule="evenodd" /><path id="136" transform="matrix(1 0 0 -1 0 842)" d="M219.96 733.44L348.96 733.44L348.96 733.44L348.96 747.36L348.96 747.36L219.96 747.36z" stroke="none" fill="#F2F2F2" fill-rule="evenodd" /><path id="158" transform="matrix(1 0 0 -1 0 842)" d="M354.6 726.36L501.36 726.36L501.36 782.28L354.6 782.28z" stroke="none" fill="#F2F2F2" fill-rule="nonzero" /><path id="159" transform="matrix(1 0 0 -1 0 842)" d="M359.76 768.36L496.2 768.36L496.2 782.28L359.76 782.28z" stroke="none" fill="#F2F2F2" fill-rule="nonzero" /><g clip-path="url(#24)"></g><path id="189" transform="matrix(1 0 0 -1 0 842)" d="M359.76 754.32L496.2 754.32L496.2 754.32L496.2 768.36L496.2 768.36L359.76 768.36z" stroke="none" fill="#F2F2F2" fill-rule="evenodd" /><path id="218" transform="matrix(1 0 0 -1 0 842)" d="M359.76 740.4L496.2 740.4L496.2 740.4L496.2 754.32L496.2 754.32L359.76 754.32z" stroke="none" fill="#F2F2F2" fill-rule="evenodd" /><path id="245" transform="matrix(1 0 0 -1 0 842)" d="M359.76 726.36L496.2 726.36L496.2 740.4L359.76 740.4z" stroke="none" fill="#F2F2F2" fill-rule="nonzero" /><g clip-path="url(#25)"></g><g clip-path="url(#26)"></g><path id="257" transform="matrix(1 0 0 -1 0 842)" d="M125.4 782.28L125.881 782.28L125.881 782.76L125.4 782.76z" stroke="none" fill="#BFBFBF" fill-rule="nonzero" /><path id="258" transform="matrix(1 0 0 -1 0 842)" d="M125.88 782.28L214.319 782.28L214.319 782.76L125.88 782.76z" stroke="none" fill="#BFBFBF" fill-rule="nonzero" /><path id="259" transform="matrix(1 0 0 -1 0 842)" d="M214.32 782.28L214.801 782.28L214.801 782.76L214.32 782.76z" stroke="none" fill="#BFBFBF" fill-rule="nonzero" /><path id="260" transform="matrix(1 0 0 -1 0 842)" d="M214.8 782.28L354.24 782.28L354.24 782.76L214.8 782.76z" stroke="none" fill="#BFBFBF" fill-rule="nonzero" /><path id="261" transform="matrix(1 0 0 -1 0 842)" d="M354.24 782.28L354.72 782.28L354.72 782.76L354.24 782.76z" stroke="none" fill="#BFBFBF" fill-rule="nonzero" /><path id="262" transform="matrix(1 0 0 -1 0 842)" d="M354.72 782.28L501.361 782.28L501.361 782.76L354.72 782.76z" stroke="none" fill="#BFBFBF" fill-rule="nonzero" /><path id="263" transform="matrix(1 0 0 -1 0 842)" d="M501.36 782.28L501.84 782.28L501.84 782.76L501.36 782.76z" stroke="none" fill="#BFBFBF" fill-rule="nonzero" /><path id="264" transform="matrix(1 0 0 -1 0 842)" d="M125.4 726.36L125.881 726.36L125.881 782.28L125.4 782.28z" stroke="none" fill="#BFBFBF" fill-rule="nonzero" /><path id="265" transform="matrix(1 0 0 -1 0 842)" d="M214.32 726.36L214.801 726.36L214.801 782.28L214.32 782.28z" stroke="none" fill="#BFBFBF" fill-rule="nonzero" /><path id="266" transform="matrix(1 0 0 -1 0 842)" d="M354.24 726.36L354.72 726.36L354.72 782.28L354.24 782.28z" stroke="none" fill="#BFBFBF" fill-rule="nonzero" /><path id="267" transform="matrix(1 0 0 -1 0 842)" d="M501.36 726.36L501.84 726.36L501.84 782.28L501.36 782.28z" stroke="none" fill="#BFBFBF" fill-rule="nonzero" /><g clip-path="url(#27)"></g><g clip-path="url(#28)"></g><g clip-path="url(#29)"></g><g clip-path="url(#30)"></g><g clip-path="url(#31)"></g><g clip-path="url(#32)"></g><path id="309" transform="matrix(1 0 0 -1 0 842)" d="M125.4 725.88L125.881 725.88L125.881 726.361L125.4 726.361z" stroke="none" fill="#BFBFBF" fill-rule="nonzero" /><path id="310" transform="matrix(1 0 0 -1 0 842)" d="M125.88 725.88L214.319 725.88L214.319 726.361L125.88 726.361z" stroke="none" fill="#BFBFBF" fill-rule="nonzero" /><path id="311" transform="matrix(1 0 0 -1 0 842)" d="M214.32 725.88L214.801 725.88L214.801 726.361L214.32 726.361z" stroke="none" fill="#BFBFBF" fill-rule="nonzero" /><path id="312" transform="matrix(1 0 0 -1 0 842)" d="M214.8 725.88L354.24 725.88L354.24 726.361L214.8 726.361z" stroke="none" fill="#BFBFBF" fill-rule="nonzero" /><path id="313" transform="matrix(1 0 0 -1 0 842)" d="M354.24 725.88L354.72 725.88L354.72 726.361L354.24 726.361z" stroke="none" fill="#BFBFBF" fill-rule="nonzero" /><path id="314" transform="matrix(1 0 0 -1 0 842)" d="M354.72 725.88L501.361 725.88L501.361 726.361L354.72 726.361z" stroke="none" fill="#BFBFBF" fill-rule="nonzero" /><path id="315" transform="matrix(1 0 0 -1 0 842)" d="M501.36 725.88L501.84 725.88L501.84 726.361L501.36 726.361z" stroke="none" fill="#BFBFBF" fill-rule="nonzero" /><path id="316" transform="matrix(1 0 0 -1 0 842)" d="M125.4 711.96L125.881 711.96L125.881 725.879L125.4 725.879z" stroke="none" fill="#BFBFBF" fill-rule="nonzero" /><path id="317" transform="matrix(1 0 0 -1 0 842)" d="M214.32 711.96L214.801 711.96L214.801 725.879L214.32 725.879z" stroke="none" fill="#BFBFBF" fill-rule="nonzero" /><path id="318" transform="matrix(1 0 0 -1 0 842)" d="M354.24 711.96L354.72 711.96L354.72 725.879L354.24 725.879z" stroke="none" fill="#BFBFBF" fill-rule="nonzero" /><path id="319" transform="matrix(1 0 0 -1 0 842)" d="M501.36 711.96L501.84 711.96L501.84 725.879L501.36 725.879z" stroke="none" fill="#BFBFBF" fill-rule="nonzero" /><path id="320" transform="matrix(1 0 0 -1 0 842)" d="M125.88 697.44L214.319 697.44L214.319 711.48L125.88 711.48z" stroke="none" fill="#F2F2F2" fill-rule="nonzero" /><path id="321" transform="matrix(1 0 0 -1 0 842)" d="M131.04 697.8L209.16 697.8L209.16 711.12L131.04 711.12z" stroke="none" fill="#F2F2F2" fill-rule="nonzero" /><g clip-path="url(#33)"></g><g clip-path="url(#34)"></g><path id="336" transform="matrix(1 0 0 -1 0 842)" d="M214.8 697.44L354.12 697.44L354.12 697.44L354.12 711.48L354.12 711.48L214.8 711.48z" stroke="none" fill="#F2F2F2" fill-rule="evenodd" /><path id="337" transform="matrix(1 0 0 -1 0 842)" d="M219.96 697.44L348.96 697.44L348.96 711.48L219.96 711.48z" stroke="none" fill="#F2F2F2" fill-rule="nonzero" /><g clip-path="url(#35)"></g><g clip-path="url(#36)"></g><path id="364" transform="matrix(1 0 0 -1 0 842)" d="M354.6 697.44L501.36 697.44L501.36 711.48L354.6 711.48z" stroke="none" fill="#F2F2F2" fill-rule="nonzero" /><path id="365" transform="matrix(1 0 0 -1 0 842)" d="M359.76 697.44L496.2 697.44L496.2 711.48L359.76 711.48z" stroke="none" fill="#F2F2F2" fill-rule="nonzero" /><g clip-path="url(#37)"></g><g clip-path="url(#38)"></g><path id="392" transform="matrix(1 0 0 -1 0 842)" d="M125.4 711.48L125.881 711.48L125.881 711.961L125.4 711.961z" stroke="none" fill="#BFBFBF" fill-rule="nonzero" /><path id="393" transform="matrix(1 0 0 -1 0 842)" d="M125.88 711.48L214.319 711.48L214.319 711.961L125.88 711.961z" stroke="none" fill="#BFBFBF" fill-rule="nonzero" /><path id="394" transform="matrix(1 0 0 -1 0 842)" d="M214.32 711.48L214.801 711.48L214.801 711.961L214.32 711.961z" stroke="none" fill="#BFBFBF" fill-rule="nonzero" /><path id="395" transform="matrix(1 0 0 -1 0 842)" d="M214.8 711.48L354.24 711.48L354.24 711.961L214.8 711.961z" stroke="none" fill="#BFBFBF" fill-rule="nonzero" /><path id="396" transform="matrix(1 0 0 -1 0 842)" d="M354.24 711.48L354.72 711.48L354.72 711.961L354.24 711.961z" stroke="none" fill="#BFBFBF" fill-rule="nonzero" /><path id="397" transform="matrix(1 0 0 -1 0 842)" d="M354.72 711.48L501.361 711.48L501.361 711.961L354.72 711.961z" stroke="none" fill="#BFBFBF" fill-rule="nonzero" /><path id="398" transform="matrix(1 0 0 -1 0 842)" d="M501.36 711.48L501.84 711.48L501.84 711.961L501.36 711.961z" stroke="none" fill="#BFBFBF" fill-rule="nonzero" /><path id="399" transform="matrix(1 0 0 -1 0 842)" d="M125.4 697.44L125.881 697.44L125.881 711.48L125.4 711.48z" stroke="none" fill="#BFBFBF" fill-rule="nonzero" /><path id="400" transform="matrix(1 0 0 -1 0 842)" d="M214.32 697.44L214.801 697.44L214.801 711.48L214.32 711.48z" stroke="none" fill="#BFBFBF" fill-rule="nonzero" /><path id="401" transform="matrix(1 0 0 -1 0 842)" d="M354.24 697.44L354.72 697.44L354.72 711.48L354.24 711.48z" stroke="none" fill="#BFBFBF" fill-rule="nonzero" /><path id="402" transform="matrix(1 0 0 -1 0 842)" d="M501.36 697.44L501.84 697.44L501.84 711.48L501.36 711.48z" stroke="none" fill="#BFBFBF" fill-rule="nonzero" /><g clip-path="url(#39)"></g><g clip-path="url(#40)"></g><g clip-path="url(#41)"></g><path id="474" transform="matrix(1 0 0 -1 0 842)" d="M125.4 696.96L125.881 696.96L125.881 697.44L125.4 697.44z" stroke="none" fill="#BFBFBF" fill-rule="nonzero" /><path id="475" transform="matrix(1 0 0 -1 0 842)" d="M125.88 696.96L214.319 696.96L214.319 697.44L125.88 697.44z" stroke="none" fill="#BFBFBF" fill-rule="nonzero" /><path id="476" transform="matrix(1 0 0 -1 0 842)" d="M214.32 696.96L214.801 696.96L214.801 697.44L214.32 697.44z" stroke="none" fill="#BFBFBF" fill-rule="nonzero" /><path id="477" transform="matrix(1 0 0 -1 0 842)" d="M214.8 696.96L354.24 696.96L354.24 697.44L214.8 697.44z" stroke="none" fill="#BFBFBF" fill-rule="nonzero" /><path id="478" transform="matrix(1 0 0 -1 0 842)" d="M354.24 696.96L354.72 696.96L354.72 697.44L354.24 697.44z" stroke="none" fill="#BFBFBF" fill-rule="nonzero" /><path id="479" transform="matrix(1 0 0 -1 0 842)" d="M354.72 696.96L501.361 696.96L501.361 697.44L354.72 697.44z" stroke="none" fill="#BFBFBF" fill-rule="nonzero" /><path id="480" transform="matrix(1 0 0 -1 0 842)" d="M501.36 696.96L501.84 696.96L501.84 697.44L501.36 697.44z" stroke="none" fill="#BFBFBF" fill-rule="nonzero" /><path id="481" transform="matrix(1 0 0 -1 0 842)" d="M125.4 670.32L125.881 670.32L125.881 696.96L125.4 696.96z" stroke="none" fill="#BFBFBF" fill-rule="nonzero" /><path id="482" transform="matrix(1 0 0 -1 0 842)" d="M214.32 670.32L214.801 670.32L214.801 696.96L214.32 696.96z" stroke="none" fill="#BFBFBF" fill-rule="nonzero" /><path id="483" transform="matrix(1 0 0 -1 0 842)" d="M354.24 670.32L354.72 670.32L354.72 696.96L354.24 696.96z" stroke="none" fill="#BFBFBF" fill-rule="nonzero" /><path id="484" transform="matrix(1 0 0 -1 0 842)" d="M501.36 670.32L501.84 670.32L501.84 696.96L501.36 696.96z" stroke="none" fill="#BFBFBF" fill-rule="nonzero" /><path id="485" transform="matrix(1 0 0 -1 0 842)" d="M125.88 643.32L214.319 643.32L214.319 669.84L125.88 669.84z" stroke="none" fill="#F2F2F2" fill-rule="nonzero" /><path id="486" transform="matrix(1 0 0 -1 0 842)" d="M131.04 656.52L209.16 656.52L209.16 669.84L131.04 669.84z" stroke="none" fill="#F2F2F2" fill-rule="nonzero" /><g clip-path="url(#42)"></g><path id="501" transform="matrix(1 0 0 -1 0 842)" d="M131.04 643.32L209.16 643.32L209.16 656.52L131.04 656.52z" stroke="none" fill="#F2F2F2" fill-rule="nonzero" /><g clip-path="url(#43)"></g><g clip-path="url(#44)"></g><path id="507" transform="matrix(1 0 0 -1 0 842)" d="M214.8 643.32L354.12 643.32L354.12 643.32L354.12 669.84L354.12 669.84L214.8 669.84z" stroke="none" fill="#F2F2F2" fill-rule="evenodd" /><path id="508" transform="matrix(1 0 0 -1 0 842)" d="M219.96 649.56L348.96 649.56L348.96 649.56L348.96 663.6L348.96 663.6L219.96 663.6z" stroke="none" fill="#F2F2F2" fill-rule="evenodd" /><path id="526" transform="matrix(1 0 0 -1 0 842)" d="M354.6 643.32L501.36 643.32L501.36 669.84L354.6 669.84z" stroke="none" fill="#F2F2F2" fill-rule="nonzero" /><path id="527" transform="matrix(1 0 0 -1 0 842)" d="M359.76 649.56L496.2 649.56L496.2 649.56L496.2 663.6L496.2 663.6L359.76 663.6z" stroke="none" fill="#F2F2F2" fill-rule="evenodd" /><path id="544" transform="matrix(1 0 0 -1 0 842)" d="M125.4 669.84L125.881 669.84L125.881 670.32L125.4 670.32z" stroke="none" fill="#BFBFBF" fill-rule="nonzero" /><path id="545" transform="matrix(1 0 0 -1 0 842)" d="M125.88 669.84L214.319 669.84L214.319 670.32L125.88 670.32z" stroke="none" fill="#BFBFBF" fill-rule="nonzero" /><path id="546" transform="matrix(1 0 0 -1 0 842)" d="M214.32 669.84L214.801 669.84L214.801 670.32L214.32 670.32z" stroke="none" fill="#BFBFBF" fill-rule="nonzero" /><path id="547" transform="matrix(1 0 0 -1 0 842)" d="M214.8 669.84L354.24 669.84L354.24 670.32L214.8 670.32z" stroke="none" fill="#BFBFBF" fill-rule="nonzero" /><path id="548" transform="matrix(1 0 0 -1 0 842)" d="M354.24 669.84L354.72 669.84L354.72 670.32L354.24 670.32z" stroke="none" fill="#BFBFBF" fill-rule="nonzero" /><path id="549" transform="matrix(1 0 0 -1 0 842)" d="M354.72 669.84L501.361 669.84L501.361 670.32L354.72 670.32z" stroke="none" fill="#BFBFBF" fill-rule="nonzero" /><path id="550" transform="matrix(1 0 0 -1 0 842)" d="M501.36 669.84L501.84 669.84L501.84 670.32L501.36 670.32z" stroke="none" fill="#BFBFBF" fill-rule="nonzero" /><path id="551" transform="matrix(1 0 0 -1 0 842)" d="M125.4 643.32L125.881 643.32L125.881 669.84L125.4 669.84z" stroke="none" fill="#BFBFBF" fill-rule="nonzero" /><path id="552" transform="matrix(1 0 0 -1 0 842)" d="M214.32 643.32L214.801 643.32L214.801 669.84L214.32 669.84z" stroke="none" fill="#BFBFBF" fill-rule="nonzero" /><path id="553" transform="matrix(1 0 0 -1 0 842)" d="M354.24 643.32L354.72 643.32L354.72 669.84L354.24 669.84z" stroke="none" fill="#BFBFBF" fill-rule="nonzero" /><path id="554" transform="matrix(1 0 0 -1 0 842)" d="M501.36 643.32L501.84 643.32L501.84 669.84L501.36 669.84z" stroke="none" fill="#BFBFBF" fill-rule="nonzero" /><g clip-path="url(#45)"></g><g clip-path="url(#46)"></g><g clip-path="url(#47)"></g><g clip-path="url(#48)"></g><g clip-path="url(#49)"></g><g clip-path="url(#50)"></g><g clip-path="url(#51)"></g><g clip-path="url(#52)"></g><g clip-path="url(#53)"></g><path id="628" transform="matrix(1 0 0 -1 0 842)" d="M125.4 642.84L125.881 642.84L125.881 643.32L125.4 643.32z" stroke="none" fill="#BFBFBF" fill-rule="nonzero" /><path id="629" transform="matrix(1 0 0 -1 0 842)" d="M125.88 642.84L214.319 642.84L214.319 643.32L125.88 643.32z" stroke="none" fill="#BFBFBF" fill-rule="nonzero" /><path id="630" transform="matrix(1 0 0 -1 0 842)" d="M214.32 642.84L214.801 642.84L214.801 643.32L214.32 643.32z" stroke="none" fill="#BFBFBF" fill-rule="nonzero" /><path id="631" transform="matrix(1 0 0 -1 0 842)" d="M214.8 642.84L354.24 642.84L354.24 643.32L214.8 643.32z" stroke="none" fill="#BFBFBF" fill-rule="nonzero" /><path id="632" transform="matrix(1 0 0 -1 0 842)" d="M354.24 642.84L354.72 642.84L354.72 643.32L354.24 643.32z" stroke="none" fill="#BFBFBF" fill-rule="nonzero" /><path id="633" transform="matrix(1 0 0 -1 0 842)" d="M354.72 642.84L501.361 642.84L501.361 643.32L354.72 643.32z" stroke="none" fill="#BFBFBF" fill-rule="nonzero" /><path id="634" transform="matrix(1 0 0 -1 0 842)" d="M501.36 642.84L501.84 642.84L501.84 643.32L501.36 643.32z" stroke="none" fill="#BFBFBF" fill-rule="nonzero" /><path id="635" transform="matrix(1 0 0 -1 0 842)" d="M125.4 614.88L125.881 614.88L125.881 642.84L125.4 642.84z" stroke="none" fill="#BFBFBF" fill-rule="nonzero" /><path id="636" transform="matrix(1 0 0 -1 0 842)" d="M214.32 614.88L214.801 614.88L214.801 642.84L214.32 642.84z" stroke="none" fill="#BFBFBF" fill-rule="nonzero" /><path id="637" transform="matrix(1 0 0 -1 0 842)" d="M354.24 614.88L354.72 614.88L354.72 642.84L354.24 642.84z" stroke="none" fill="#BFBFBF" fill-rule="nonzero" /><path id="638" transform="matrix(1 0 0 -1 0 842)" d="M501.36 614.88L501.84 614.88L501.84 642.84L501.36 642.84z" stroke="none" fill="#BFBFBF" fill-rule="nonzero" /><path id="639" transform="matrix(1 0 0 -1 0 842)" d="M125.88 586.44L214.319 586.44L214.319 614.4L125.88 614.4z" stroke="none" fill="#F2F2F2" fill-rule="nonzero" /><path id="640" transform="matrix(1 0 0 -1 0 842)" d="M131.04 593.76L209.16 593.76L209.16 593.76L209.16 607.08L209.16 607.08L131.04 607.08z" stroke="none" fill="#F2F2F2" fill-rule="evenodd" /><path id="646" transform="matrix(1 0 0 -1 0 842)" d="M214.8 586.44L354.12 586.44L354.12 586.44L354.12 614.4L354.12 614.4L214.8 614.4z" stroke="none" fill="#F2F2F2" fill-rule="evenodd" /><path id="647" transform="matrix(1 0 0 -1 0 842)" d="M219.96 600.36L348.96 600.36L348.96 614.4L219.96 614.4z" stroke="none" fill="#F2F2F2" fill-rule="nonzero" /><g clip-path="url(#54)"></g><path id="671" transform="matrix(1 0 0 -1 0 842)" d="M219.96 586.44L348.96 586.44L348.96 600.36L219.96 600.36z" stroke="none" fill="#F2F2F2" fill-rule="nonzero" /><g clip-path="url(#55)"></g><g clip-path="url(#56)"></g><path id="677" transform="matrix(1 0 0 -1 0 842)" d="M354.6 586.44L501.36 586.44L501.36 614.4L354.6 614.4z" stroke="none" fill="#F2F2F2" fill-rule="nonzero" /><path id="678" transform="matrix(1 0 0 -1 0 842)" d="M359.76 600.36L496.2 600.36L496.2 614.4L359.76 614.4z" stroke="none" fill="#F2F2F2" fill-rule="nonzero" /><g clip-path="url(#57)"></g><g clip-path="url(#58)"></g><g clip-path="url(#59)"></g><path id="705" transform="matrix(1 0 0 -1 0 842)" d="M359.76 586.44L496.2 586.44L496.2 600.36L359.76 600.36z" stroke="none" fill="#F2F2F2" fill-rule="nonzero" /><g clip-path="url(#60)"></g><g clip-path="url(#61)"></g><path id="715" transform="matrix(1 0 0 -1 0 842)" d="M125.4 614.4L125.881 614.4L125.881 614.88L125.4 614.88z" stroke="none" fill="#BFBFBF" fill-rule="nonzero" /><path id="716" transform="matrix(1 0 0 -1 0 842)" d="M125.88 614.4L214.319 614.4L214.319 614.88L125.88 614.88z" stroke="none" fill="#BFBFBF" fill-rule="nonzero" /><path id="717" transform="matrix(1 0 0 -1 0 842)" d="M214.32 614.4L214.801 614.4L214.801 614.88L214.32 614.88z" stroke="none" fill="#BFBFBF" fill-rule="nonzero" /><path id="718" transform="matrix(1 0 0 -1 0 842)" d="M214.8 614.4L354.24 614.4L354.24 614.88L214.8 614.88z" stroke="none" fill="#BFBFBF" fill-rule="nonzero" /><path id="719" transform="matrix(1 0 0 -1 0 842)" d="M354.24 614.4L354.72 614.4L354.72 614.88L354.24 614.88z" stroke="none" fill="#BFBFBF" fill-rule="nonzero" /><path id="720" transform="matrix(1 0 0 -1 0 842)" d="M354.72 614.4L501.361 614.4L501.361 614.88L354.72 614.88z" stroke="none" fill="#BFBFBF" fill-rule="nonzero" /><path id="721" transform="matrix(1 0 0 -1 0 842)" d="M501.36 614.4L501.84 614.4L501.84 614.88L501.36 614.88z" stroke="none" fill="#BFBFBF" fill-rule="nonzero" /><path id="722" transform="matrix(1 0 0 -1 0 842)" d="M125.4 586.44L125.881 586.44L125.881 614.4L125.4 614.4z" stroke="none" fill="#BFBFBF" fill-rule="nonzero" /><path id="723" transform="matrix(1 0 0 -1 0 842)" d="M214.32 586.44L214.801 586.44L214.801 614.4L214.32 614.4z" stroke="none" fill="#BFBFBF" fill-rule="nonzero" /><path id="724" transform="matrix(1 0 0 -1 0 842)" d="M354.24 586.44L354.72 586.44L354.72 614.4L354.24 614.4z" stroke="none" fill="#BFBFBF" fill-rule="nonzero" /><path id="725" transform="matrix(1 0 0 -1 0 842)" d="M501.36 586.44L501.84 586.44L501.84 614.4L501.36 614.4z" stroke="none" fill="#BFBFBF" fill-rule="nonzero" /><g clip-path="url(#62)"></g><g clip-path="url(#63)"></g><g clip-path="url(#64)"></g><g clip-path="url(#65)"></g><g clip-path="url(#66)"></g><g clip-path="url(#67)"></g><g clip-path="url(#68)"></g><g clip-path="url(#69)"></g><g clip-path="url(#70)"></g><path id="809" transform="matrix(1 0 0 -1 0 842)" d="M125.4 585.96L125.881 585.96L125.881 586.44L125.4 586.44z" stroke="none" fill="#BFBFBF" fill-rule="nonzero" /><path id="810" transform="matrix(1 0 0 -1 0 842)" d="M125.88 585.96L214.319 585.96L214.319 586.44L125.88 586.44z" stroke="none" fill="#BFBFBF" fill-rule="nonzero" /><path id="811" transform="matrix(1 0 0 -1 0 842)" d="M214.32 585.96L214.801 585.96L214.801 586.44L214.32 586.44z" stroke="none" fill="#BFBFBF" fill-rule="nonzero" /><path id="812" transform="matrix(1 0 0 -1 0 842)" d="M214.8 585.96L354.24 585.96L354.24 586.44L214.8 586.44z" stroke="none" fill="#BFBFBF" fill-rule="nonzero" /><path id="813" transform="matrix(1 0 0 -1 0 842)" d="M354.24 585.96L354.72 585.96L354.72 586.44L354.24 586.44z" stroke="none" fill="#BFBFBF" fill-rule="nonzero" /><path id="814" transform="matrix(1 0 0 -1 0 842)" d="M354.72 585.96L501.361 585.96L501.361 586.44L354.72 586.44z" stroke="none" fill="#BFBFBF" fill-rule="nonzero" /><path id="815" transform="matrix(1 0 0 -1 0 842)" d="M501.36 585.96L501.84 585.96L501.84 586.44L501.36 586.44z" stroke="none" fill="#BFBFBF" fill-rule="nonzero" /><path id="816" transform="matrix(1 0 0 -1 0 842)" d="M125.4 558L125.881 558L125.881 585.96L125.4 585.96z" stroke="none" fill="#BFBFBF" fill-rule="nonzero" /><path id="817" transform="matrix(1 0 0 -1 0 842)" d="M214.32 558L214.801 558L214.801 585.96L214.32 585.96z" stroke="none" fill="#BFBFBF" fill-rule="nonzero" /><path id="818" transform="matrix(1 0 0 -1 0 842)" d="M354.24 558L354.72 558L354.72 585.96L354.24 585.96z" stroke="none" fill="#BFBFBF" fill-rule="nonzero" /><path id="819" transform="matrix(1 0 0 -1 0 842)" d="M501.36 558L501.84 558L501.84 585.96L501.36 585.96z" stroke="none" fill="#BFBFBF" fill-rule="nonzero" /><path id="820" transform="matrix(1 0 0 -1 0 842)" d="M125.88 529.56L214.319 529.56L214.319 557.52L125.88 557.52z" stroke="none" fill="#F2F2F2" fill-rule="nonzero" /><path id="822" transform="matrix(1 0 0 -1 0 842)" d="M214.8 529.56L354.12 529.56L354.12 529.56L354.12 557.52L354.12 557.52L214.8 557.52z" stroke="none" fill="#F2F2F2" fill-rule="evenodd" /><path id="823" transform="matrix(1 0 0 -1 0 842)" d="M219.96 536.52L348.96 536.52L348.96 536.52L348.96 550.44L348.96 550.44L219.96 550.44z" stroke="none" fill="#F2F2F2" fill-rule="evenodd" /><path id="839" transform="matrix(1 0 0 -1 0 842)" d="M354.6 529.56L501.36 529.56L501.36 557.52L354.6 557.52z" stroke="none" fill="#F2F2F2" fill-rule="nonzero" /><path id="840" transform="matrix(1 0 0 -1 0 842)" d="M359.76 543.48L496.2 543.48L496.2 557.52L359.76 557.52z" stroke="none" fill="#F2F2F2" fill-rule="nonzero" /><g clip-path="url(#71)"></g><path id="870" transform="matrix(1 0 0 -1 0 842)" d="M359.76 529.56L496.2 529.56L496.2 543.48L359.76 543.48z" stroke="none" fill="#F2F2F2" fill-rule="nonzero" /><g clip-path="url(#72)"></g><g clip-path="url(#73)"></g><path id="876" transform="matrix(1 0 0 -1 0 842)" d="M125.4 557.52L125.881 557.52L125.881 558L125.4 558z" stroke="none" fill="#BFBFBF" fill-rule="nonzero" /><path id="877" transform="matrix(1 0 0 -1 0 842)" d="M125.88 557.52L214.319 557.52L214.319 558L125.88 558z" stroke="none" fill="#BFBFBF" fill-rule="nonzero" /><path id="878" transform="matrix(1 0 0 -1 0 842)" d="M214.32 557.52L214.801 557.52L214.801 558L214.32 558z" stroke="none" fill="#BFBFBF" fill-rule="nonzero" /><path id="879" transform="matrix(1 0 0 -1 0 842)" d="M214.8 557.52L354.24 557.52L354.24 558L214.8 558z" stroke="none" fill="#BFBFBF" fill-rule="nonzero" /><path id="880" transform="matrix(1 0 0 -1 0 842)" d="M354.24 557.52L354.72 557.52L354.72 558L354.24 558z" stroke="none" fill="#BFBFBF" fill-rule="nonzero" /><path id="881" transform="matrix(1 0 0 -1 0 842)" d="M354.72 557.52L501.361 557.52L501.361 558L354.72 558z" stroke="none" fill="#BFBFBF" fill-rule="nonzero" /><path id="882" transform="matrix(1 0 0 -1 0 842)" d="M501.36 557.52L501.84 557.52L501.84 558L501.36 558z" stroke="none" fill="#BFBFBF" fill-rule="nonzero" /><path id="883" transform="matrix(1 0 0 -1 0 842)" d="M125.4 529.56L125.881 529.56L125.881 557.52L125.4 557.52z" stroke="none" fill="#BFBFBF" fill-rule="nonzero" /><path id="884" transform="matrix(1 0 0 -1 0 842)" d="M125.4 529.08L125.881 529.08L125.881 529.56L125.4 529.56z" stroke="none" fill="#BFBFBF" fill-rule="nonzero" /><path id="885" transform="matrix(1 0 0 -1 0 842)" d="M125.4 529.08L125.881 529.08L125.881 529.56L125.4 529.56z" stroke="none" fill="#BFBFBF" fill-rule="nonzero" /><path id="886" transform="matrix(1 0 0 -1 0 842)" d="M125.88 529.08L214.319 529.08L214.319 529.56L125.88 529.56z" stroke="none" fill="#BFBFBF" fill-rule="nonzero" /><path id="887" transform="matrix(1 0 0 -1 0 842)" d="M214.32 529.56L214.801 529.56L214.801 557.52L214.32 557.52z" stroke="none" fill="#BFBFBF" fill-rule="nonzero" /><path id="888" transform="matrix(1 0 0 -1 0 842)" d="M214.32 529.08L214.801 529.08L214.801 529.56L214.32 529.56z" stroke="none" fill="#BFBFBF" fill-rule="nonzero" /><path id="889" transform="matrix(1 0 0 -1 0 842)" d="M214.8 529.08L354.24 529.08L354.24 529.56L214.8 529.56z" stroke="none" fill="#BFBFBF" fill-rule="nonzero" /><path id="890" transform="matrix(1 0 0 -1 0 842)" d="M354.24 529.56L354.72 529.56L354.72 557.52L354.24 557.52z" stroke="none" fill="#BFBFBF" fill-rule="nonzero" /><path id="891" transform="matrix(1 0 0 -1 0 842)" d="M354.24 529.08L354.72 529.08L354.72 529.56L354.24 529.56z" stroke="none" fill="#BFBFBF" fill-rule="nonzero" /><path id="892" transform="matrix(1 0 0 -1 0 842)" d="M354.72 529.08L501.361 529.08L501.361 529.56L354.72 529.56z" stroke="none" fill="#BFBFBF" fill-rule="nonzero" /><path id="893" transform="matrix(1 0 0 -1 0 842)" d="M501.36 529.56L501.84 529.56L501.84 557.52L501.36 557.52z" stroke="none" fill="#BFBFBF" fill-rule="nonzero" /><path id="894" transform="matrix(1 0 0 -1 0 842)" d="M501.36 529.08L501.84 529.08L501.84 529.56L501.36 529.56z" stroke="none" fill="#BFBFBF" fill-rule="nonzero" /><path id="895" transform="matrix(1 0 0 -1 0 842)" d="M501.36 529.08L501.84 529.08L501.84 529.56L501.36 529.56z" stroke="none" fill="#BFBFBF" fill-rule="nonzero" /><g clip-path="url(#74)"></g><g clip-path="url(#75)"></g><g clip-path="url(#76)"></g><g clip-path="url(#77)"></g><g clip-path="url(#78)"></g><g clip-path="url(#79)"></g><g clip-path="url(#80)"></g><g clip-path="url(#81)"></g><g clip-path="url(#82)"></g><g clip-path="url(#83)"></g><g clip-path="url(#84)"></g><g clip-path="url(#85)"></g><g clip-path="url(#86)"></g><g clip-path="url(#87)"></g><g clip-path="url(#88)"></g><g clip-path="url(#89)"></g><g clip-path="url(#90)"></g><g clip-path="url(#91)"></g><g clip-path="url(#92)"></g><g clip-path="url(#93)"></g><g clip-path="url(#94)"></g><g clip-path="url(#95)"></g><g clip-path="url(#96)"></g><g clip-path="url(#97)"></g><g clip-path="url(#98)"></g><g clip-path="url(#99)"></g><g clip-path="url(#100)"></g><g clip-path="url(#101)"></g><g clip-path="url(#102)"></g><g clip-path="url(#103)"></g><g clip-path="url(#104)"></g><g clip-path="url(#105)"></g><g clip-path="url(#106)"></g><g clip-path="url(#107)"></g><g clip-path="url(#108)"></g><g clip-path="url(#109)"></g><g clip-path="url(#110)"></g></g></g></svg>