<svg xmlns="http://www.w3.org/2000/svg" xmlns:xlink="http://www.w3.org/1999/xlink" id="body_9" preserveAspectRatio="xMinYMin meet" viewBox="0 0 793 1123"><defs><clipPath id="1"><path id="" clip-rule="evenodd" transform="matrix(1 0 0 1 0 0)" d="M0 842L0 -0.03997803L0 -0.03997803L595.56 -0.03997803L595.56 -0.03997803L595.56 842L595.56 842L0 842z" /></clipPath><clipPath id="2"><path id="" clip-rule="evenodd" transform="matrix(1 0 0 1 0 0)" d="M89.4 463.16L120.36 463.16L120.36 463.16L120.36 32L120.36 32L89.4 32z" /></clipPath><clipPath id="3"><path id="" clip-rule="evenodd" transform="matrix(1 0 0 1 0 0)" d="M89.4 463.16L120.36 463.16L120.36 463.16L120.36 32L120.36 32L89.4 32z" /></clipPath><clipPath id="4"><path id="" clip-rule="evenodd" transform="matrix(1 0 0 1 0 0)" d="M120.36 463.16L151.2 463.16L151.2 463.16L151.2 32L151.2 32L120.36 32z" /></clipPath><clipPath id="5"><path id="" clip-rule="evenodd" transform="matrix(1 0 0 1 0 0)" d="M120.36 463.16L151.2 463.16L151.2 463.16L151.2 32L151.2 32L120.36 32z" /></clipPath><clipPath id="6"><path id="" clip-rule="evenodd" transform="matrix(1 0 0 1 0 0)" d="M151.2 463.16L491.4 463.16L491.4 463.16L491.4 32L491.4 32L151.2 32z" /></clipPath><clipPath id="7"><path id="" clip-rule="evenodd" transform="matrix(1 0 0 1 0 0)" d="M151.2 463.16L491.4 463.16L491.4 463.16L491.4 32L491.4 32L151.2 32z" /></clipPath><clipPath id="8"><path id="" clip-rule="evenodd" transform="matrix(1 0 0 1 0 0)" d="M151.2 463.16L491.4 463.16L491.4 463.16L491.4 32L491.4 32L151.2 32z" /></clipPath><clipPath id="9"><path id="" clip-rule="evenodd" transform="matrix(1 0 0 1 0 0)" d="M151.2 463.16L491.4 463.16L491.4 463.16L491.4 32L491.4 32L151.2 32z" /></clipPath><clipPath id="10"><path id="" clip-rule="evenodd" transform="matrix(1 0 0 1 0 0)" d="M151.2 463.16L491.4 463.16L491.4 463.16L491.4 32L491.4 32L151.2 32z" /></clipPath><clipPath id="11"><path id="" clip-rule="evenodd" transform="matrix(1 0 0 1 0 0)" d="M151.2 463.16L491.4 463.16L491.4 463.16L491.4 32L491.4 32L151.2 32z" /></clipPath><clipPath id="12"><path id="" clip-rule="evenodd" transform="matrix(1 0 0 1 0 0)" d="M151.2 463.16L491.4 463.16L491.4 463.16L491.4 32L491.4 32L151.2 32z" /></clipPath><clipPath id="13"><path id="" clip-rule="evenodd" transform="matrix(1 0 0 1 0 0)" d="M151.2 463.16L491.4 463.16L491.4 463.16L491.4 32L491.4 32L151.2 32z" /></clipPath><clipPath id="14"><path id="" clip-rule="evenodd" transform="matrix(1 0 0 1 0 0)" d="M151.2 463.16L491.4 463.16L491.4 463.16L491.4 32L491.4 32L151.2 32z" /></clipPath><clipPath id="15"><path id="" clip-rule="evenodd" transform="matrix(1 0 0 1 0 0)" d="M151.2 463.16L491.4 463.16L491.4 463.16L491.4 32L491.4 32L151.2 32z" /></clipPath><clipPath id="16"><path id="" clip-rule="evenodd" transform="matrix(1 0 0 1 0 0)" d="M491.4 463.16L519.24 463.16L519.24 463.16L519.24 32L519.24 32L491.4 32z" /></clipPath><clipPath id="17"><path id="" clip-rule="evenodd" transform="matrix(1 0 0 1 0 0)" d="M491.4 463.16L519.24 463.16L519.24 463.16L519.24 32L519.24 32L491.4 32z" /></clipPath><clipPath id="18"><path id="" clip-rule="evenodd" transform="matrix(1 0 0 1 0 0)" d="M89.4 826.4L120.36 826.4L120.36 826.4L120.36 463.16L120.36 463.16L89.4 463.16z" /></clipPath><clipPath id="19"><path id="" clip-rule="evenodd" transform="matrix(1 0 0 1 0 0)" d="M120.36 826.4L151.2 826.4L151.2 826.4L151.2 463.16L151.2 463.16L120.36 463.16z" /></clipPath><clipPath id="20"><path id="" clip-rule="evenodd" transform="matrix(1 0 0 1 0 0)" d="M120.36 826.4L151.2 826.4L151.2 826.4L151.2 463.16L151.2 463.16L120.36 463.16z" /></clipPath><clipPath id="21"><path id="" clip-rule="evenodd" transform="matrix(1 0 0 1 0 0)" d="M151.2 826.4L491.4 826.4L491.4 826.4L491.4 463.16L491.4 463.16L151.2 463.16z" /></clipPath><clipPath id="22"><path id="" clip-rule="evenodd" transform="matrix(1 0 0 1 0 0)" d="M151.2 826.4L491.4 826.4L491.4 826.4L491.4 463.16L491.4 463.16L151.2 463.16z" /></clipPath><clipPath id="23"><path id="" clip-rule="evenodd" transform="matrix(1 0 0 1 0 0)" d="M151.2 826.4L491.4 826.4L491.4 826.4L491.4 463.16L491.4 463.16L151.2 463.16z" /></clipPath><clipPath id="24"><path id="" clip-rule="evenodd" transform="matrix(1 0 0 1 0 0)" d="M151.2 826.4L491.4 826.4L491.4 826.4L491.4 463.16L491.4 463.16L151.2 463.16z" /></clipPath><clipPath id="25"><path id="" clip-rule="evenodd" transform="matrix(1 0 0 1 0 0)" d="M151.2 826.4L491.4 826.4L491.4 826.4L491.4 463.16L491.4 463.16L151.2 463.16z" /></clipPath><clipPath id="26"><path id="" clip-rule="evenodd" transform="matrix(1 0 0 1 0 0)" d="M151.2 826.4L491.4 826.4L491.4 826.4L491.4 463.16L491.4 463.16L151.2 463.16z" /></clipPath><clipPath id="27"><path id="" clip-rule="evenodd" transform="matrix(1 0 0 1 0 0)" d="M151.2 826.4L491.4 826.4L491.4 826.4L491.4 463.16L491.4 463.16L151.2 463.16z" /></clipPath><clipPath id="28"><path id="" clip-rule="evenodd" transform="matrix(1 0 0 1 0 0)" d="M151.2 826.4L491.4 826.4L491.4 826.4L491.4 463.16L491.4 463.16L151.2 463.16z" /></clipPath><clipPath id="29"><path id="" clip-rule="evenodd" transform="matrix(1 0 0 1 0 0)" d="M151.2 826.4L491.4 826.4L491.4 826.4L491.4 463.16L491.4 463.16L151.2 463.16z" /></clipPath><clipPath id="30"><path id="" clip-rule="evenodd" transform="matrix(1 0 0 1 0 0)" d="M151.2 826.4L491.4 826.4L491.4 826.4L491.4 463.16L491.4 463.16L151.2 463.16z" /></clipPath><clipPath id="31"><path id="" clip-rule="evenodd" transform="matrix(1 0 0 1 0 0)" d="M151.2 826.4L491.4 826.4L491.4 826.4L491.4 463.16L491.4 463.16L151.2 463.16z" /></clipPath><clipPath id="32"><path id="" clip-rule="evenodd" transform="matrix(1 0 0 1 0 0)" d="M151.2 826.4L491.4 826.4L491.4 826.4L491.4 463.16L491.4 463.16L151.2 463.16z" /></clipPath><clipPath id="33"><path id="" clip-rule="evenodd" transform="matrix(1 0 0 1 0 0)" d="M151.2 826.4L491.4 826.4L491.4 826.4L491.4 463.16L491.4 463.16L151.2 463.16z" /></clipPath><clipPath id="34"><path id="" clip-rule="evenodd" transform="matrix(1 0 0 1 0 0)" d="M151.2 826.4L491.4 826.4L491.4 826.4L491.4 463.16L491.4 463.16L151.2 463.16z" /></clipPath><clipPath id="35"><path id="" clip-rule="evenodd" transform="matrix(1 0 0 1 0 0)" d="M491.4 826.4L519.24 826.4L519.24 826.4L519.24 463.16L519.24 463.16L491.4 463.16z" /></clipPath><clipPath id="36"><path id="" clip-rule="evenodd" transform="matrix(1 0 0 1 0 0)" d="M491.4 826.4L519.24 826.4L519.24 826.4L519.24 463.16L519.24 463.16L491.4 463.16z" /></clipPath></defs><g transform="matrix(1.333333 0 0 1.333333 0 0)"><g clip-path="url(#1)"><g clip-path="url(#2)"></g><g clip-path="url(#3)"></g><g clip-path="url(#4)"></g><g clip-path="url(#5)"></g><g clip-path="url(#6)"></g><g clip-path="url(#7)"></g><g clip-path="url(#8)"></g><g clip-path="url(#9)"></g><g clip-path="url(#10)"></g><g clip-path="url(#11)"></g><g clip-path="url(#12)"></g><g clip-path="url(#13)"></g><path id="99" transform="matrix(1 0 0 -1 0 842)" d="M157.56 770.88L251.16 770.88L251.16 771.48L157.56 771.48z" stroke="none" fill="#0000FF" fill-rule="nonzero" /><g clip-path="url(#14)"></g><g clip-path="url(#15)"></g><g clip-path="url(#16)"></g><g clip-path="url(#17)"></g><g clip-path="url(#18)"></g><g clip-path="url(#19)"></g><g clip-path="url(#20)"></g><g clip-path="url(#21)"></g><g clip-path="url(#22)"></g><g clip-path="url(#23)"></g><g clip-path="url(#24)"></g><g clip-path="url(#25)"></g><g clip-path="url(#26)"></g><g clip-path="url(#27)"></g><g clip-path="url(#28)"></g><g clip-path="url(#29)"></g><g clip-path="url(#30)"></g><g clip-path="url(#31)"></g><g clip-path="url(#32)"></g><g clip-path="url(#33)"></g><g clip-path="url(#34)"></g><g clip-path="url(#35)"></g><g clip-path="url(#36)"></g></g></g></svg>