<svg xmlns="http://www.w3.org/2000/svg" xmlns:xlink="http://www.w3.org/1999/xlink" id="body_8" preserveAspectRatio="xMinYMin meet" viewBox="0 0 793 1123"><defs><clipPath id="1"><path id="" clip-rule="evenodd" transform="matrix(1 0 0 1 0 0)" d="M0 842L0 -0.03997803L0 -0.03997803L595.56 -0.03997803L595.56 -0.03997803L595.56 842L595.56 842L0 842z" /></clipPath><clipPath id="2"><path id="" clip-rule="evenodd" transform="matrix(1 0 0 1 0 0)" d="M89.4 405.32L120.36 405.32L120.36 405.32L120.36 32L120.36 32L89.4 32z" /></clipPath><clipPath id="3"><path id="" clip-rule="evenodd" transform="matrix(1 0 0 1 0 0)" d="M120.36 405.32L151.2 405.32L151.2 405.32L151.2 32L151.2 32L120.36 32z" /></clipPath><clipPath id="4"><path id="" clip-rule="evenodd" transform="matrix(1 0 0 1 0 0)" d="M120.36 405.32L151.2 405.32L151.2 405.32L151.2 32L151.2 32L120.36 32z" /></clipPath><clipPath id="5"><path id="" clip-rule="evenodd" transform="matrix(1 0 0 1 0 0)" d="M151.2 405.32L491.4 405.32L491.4 405.32L491.4 32L491.4 32L151.2 32z" /></clipPath><clipPath id="6"><path id="" clip-rule="evenodd" transform="matrix(1 0 0 1 0 0)" d="M151.2 405.32L491.4 405.32L491.4 405.32L491.4 32L491.4 32L151.2 32z" /></clipPath><clipPath id="7"><path id="" clip-rule="evenodd" transform="matrix(1 0 0 1 0 0)" d="M151.2 405.32L491.4 405.32L491.4 405.32L491.4 32L491.4 32L151.2 32z" /></clipPath><clipPath id="8"><path id="" clip-rule="evenodd" transform="matrix(1 0 0 1 0 0)" d="M151.2 405.32L491.4 405.32L491.4 405.32L491.4 32L491.4 32L151.2 32z" /></clipPath><clipPath id="9"><path id="" clip-rule="evenodd" transform="matrix(1 0 0 1 0 0)" d="M151.2 405.32L491.4 405.32L491.4 405.32L491.4 32L491.4 32L151.2 32z" /></clipPath><clipPath id="10"><path id="" clip-rule="evenodd" transform="matrix(1 0 0 1 0 0)" d="M151.2 405.32L491.4 405.32L491.4 405.32L491.4 32L491.4 32L151.2 32z" /></clipPath><clipPath id="11"><path id="" clip-rule="evenodd" transform="matrix(1 0 0 1 0 0)" d="M151.2 405.32L491.4 405.32L491.4 405.32L491.4 32L491.4 32L151.2 32z" /></clipPath><clipPath id="12"><path id="" clip-rule="evenodd" transform="matrix(1 0 0 1 0 0)" d="M151.2 405.32L491.4 405.32L491.4 405.32L491.4 32L491.4 32L151.2 32z" /></clipPath><clipPath id="13"><path id="" clip-rule="evenodd" transform="matrix(1 0 0 1 0 0)" d="M151.2 405.32L491.4 405.32L491.4 405.32L491.4 32L491.4 32L151.2 32z" /></clipPath><clipPath id="14"><path id="" clip-rule="evenodd" transform="matrix(1 0 0 1 0 0)" d="M151.2 405.32L491.4 405.32L491.4 405.32L491.4 32L491.4 32L151.2 32z" /></clipPath><clipPath id="15"><path id="" clip-rule="evenodd" transform="matrix(1 0 0 1 0 0)" d="M151.2 405.32L491.4 405.32L491.4 405.32L491.4 32L491.4 32L151.2 32z" /></clipPath><clipPath id="16"><path id="" clip-rule="evenodd" transform="matrix(1 0 0 1 0 0)" d="M151.2 405.32L491.4 405.32L491.4 405.32L491.4 32L491.4 32L151.2 32z" /></clipPath><clipPath id="17"><path id="" clip-rule="evenodd" transform="matrix(1 0 0 1 0 0)" d="M151.2 71.35999L260.4 71.35999L260.4 71.35999L260.4 58.03998L260.4 58.03998L151.2 58.03998z" /></clipPath><clipPath id="18"><path id="" clip-rule="evenodd" transform="matrix(1 0 0 1 0 0)" d="M151.2 71.35999L260.4 71.35999L260.4 71.35999L260.4 58.03998L260.4 58.03998L151.2 58.03998z" /></clipPath><clipPath id="19"><path id="" clip-rule="evenodd" transform="matrix(1 0 0 1 0 0)" d="M260.4 71.35999L358.56 71.35999L358.56 71.35999L358.56 58.03998L358.56 58.03998L260.4 58.03998z" /></clipPath><clipPath id="20"><path id="" clip-rule="evenodd" transform="matrix(1 0 0 1 0 0)" d="M260.4 71.35999L358.56 71.35999L358.56 71.35999L358.56 58.03998L358.56 58.03998L260.4 58.03998z" /></clipPath><clipPath id="21"><path id="" clip-rule="evenodd" transform="matrix(1 0 0 1 0 0)" d="M358.56 71.35999L469.56 71.35999L469.56 71.35999L469.56 58.03998L469.56 58.03998L358.56 58.03998z" /></clipPath><clipPath id="22"><path id="" clip-rule="evenodd" transform="matrix(1 0 0 1 0 0)" d="M358.56 71.35999L469.56 71.35999L469.56 71.35999L469.56 58.03998L469.56 58.03998L358.56 58.03998z" /></clipPath><clipPath id="23"><path id="" clip-rule="evenodd" transform="matrix(1 0 0 1 0 0)" d="M151.2 109.76L260.4 109.76L260.4 109.76L260.4 71.84003L260.4 71.84003L151.2 71.84003z" /></clipPath><clipPath id="24"><path id="" clip-rule="evenodd" transform="matrix(1 0 0 1 0 0)" d="M151.2 109.76L260.4 109.76L260.4 109.76L260.4 71.84003L260.4 71.84003L151.2 71.84003z" /></clipPath><clipPath id="25"><path id="" clip-rule="evenodd" transform="matrix(1 0 0 1 0 0)" d="M151.2 109.76L260.4 109.76L260.4 109.76L260.4 71.84003L260.4 71.84003L151.2 71.84003z" /></clipPath><clipPath id="26"><path id="" clip-rule="evenodd" transform="matrix(1 0 0 1 0 0)" d="M260.4 109.76L358.56 109.76L358.56 109.76L358.56 71.84003L358.56 71.84003L260.4 71.84003z" /></clipPath><clipPath id="27"><path id="" clip-rule="evenodd" transform="matrix(1 0 0 1 0 0)" d="M260.4 109.76L358.56 109.76L358.56 109.76L358.56 71.84003L358.56 71.84003L260.4 71.84003z" /></clipPath><clipPath id="28"><path id="" clip-rule="evenodd" transform="matrix(1 0 0 1 0 0)" d="M260.4 109.76L358.56 109.76L358.56 109.76L358.56 71.84003L358.56 71.84003L260.4 71.84003z" /></clipPath><clipPath id="29"><path id="" clip-rule="evenodd" transform="matrix(1 0 0 1 0 0)" d="M358.56 109.76L469.56 109.76L469.56 109.76L469.56 71.84003L469.56 71.84003L358.56 71.84003z" /></clipPath><clipPath id="30"><path id="" clip-rule="evenodd" transform="matrix(1 0 0 1 0 0)" d="M358.56 109.76L469.56 109.76L469.56 109.76L469.56 71.84003L469.56 71.84003L358.56 71.84003z" /></clipPath><clipPath id="31"><path id="" clip-rule="evenodd" transform="matrix(1 0 0 1 0 0)" d="M358.56 109.76L469.56 109.76L469.56 109.76L469.56 71.84003L469.56 71.84003L358.56 71.84003z" /></clipPath><clipPath id="32"><path id="" clip-rule="evenodd" transform="matrix(1 0 0 1 0 0)" d="M260.4 173.6L358.56 173.6L358.56 173.6L358.56 110.361L358.56 110.361L260.4 110.361z" /></clipPath><clipPath id="33"><path id="" clip-rule="evenodd" transform="matrix(1 0 0 1 0 0)" d="M260.4 173.6L358.56 173.6L358.56 173.6L358.56 110.361L358.56 110.361L260.4 110.361z" /></clipPath><clipPath id="34"><path id="" clip-rule="evenodd" transform="matrix(1 0 0 1 0 0)" d="M260.4 173.6L358.56 173.6L358.56 173.6L358.56 110.361L358.56 110.361L260.4 110.361z" /></clipPath><clipPath id="35"><path id="" clip-rule="evenodd" transform="matrix(1 0 0 1 0 0)" d="M260.4 173.6L358.56 173.6L358.56 173.6L358.56 110.361L358.56 110.361L260.4 110.361z" /></clipPath><clipPath id="36"><path id="" clip-rule="evenodd" transform="matrix(1 0 0 1 0 0)" d="M358.56 173.6L469.56 173.6L469.56 173.6L469.56 110.361L469.56 110.361L358.56 110.361z" /></clipPath><clipPath id="37"><path id="" clip-rule="evenodd" transform="matrix(1 0 0 1 0 0)" d="M358.56 173.6L469.56 173.6L469.56 173.6L469.56 110.361L469.56 110.361L358.56 110.361z" /></clipPath><clipPath id="38"><path id="" clip-rule="evenodd" transform="matrix(1 0 0 1 0 0)" d="M358.56 173.6L469.56 173.6L469.56 173.6L469.56 110.361L469.56 110.361L358.56 110.361z" /></clipPath><clipPath id="39"><path id="" clip-rule="evenodd" transform="matrix(1 0 0 1 0 0)" d="M151.2 199.4L260.4 199.4L260.4 199.4L260.4 174.08L260.4 174.08L151.2 174.08z" /></clipPath><clipPath id="40"><path id="" clip-rule="evenodd" transform="matrix(1 0 0 1 0 0)" d="M151.2 199.4L260.4 199.4L260.4 199.4L260.4 174.08L260.4 174.08L151.2 174.08z" /></clipPath><clipPath id="41"><path id="" clip-rule="evenodd" transform="matrix(1 0 0 1 0 0)" d="M151.2 199.4L260.4 199.4L260.4 199.4L260.4 174.08L260.4 174.08L151.2 174.08z" /></clipPath><clipPath id="42"><path id="" clip-rule="evenodd" transform="matrix(1 0 0 1 0 0)" d="M260.4 199.4L358.56 199.4L358.56 199.4L358.56 174.08L358.56 174.08L260.4 174.08z" /></clipPath><clipPath id="43"><path id="" clip-rule="evenodd" transform="matrix(1 0 0 1 0 0)" d="M260.4 199.4L358.56 199.4L358.56 199.4L358.56 174.08L358.56 174.08L260.4 174.08z" /></clipPath><clipPath id="44"><path id="" clip-rule="evenodd" transform="matrix(1 0 0 1 0 0)" d="M260.4 199.4L358.56 199.4L358.56 199.4L358.56 174.08L358.56 174.08L260.4 174.08z" /></clipPath><clipPath id="45"><path id="" clip-rule="evenodd" transform="matrix(1 0 0 1 0 0)" d="M358.56 199.4L469.56 199.4L469.56 199.4L469.56 174.08L469.56 174.08L358.56 174.08z" /></clipPath><clipPath id="46"><path id="" clip-rule="evenodd" transform="matrix(1 0 0 1 0 0)" d="M358.56 199.4L469.56 199.4L469.56 199.4L469.56 174.08L469.56 174.08L358.56 174.08z" /></clipPath><clipPath id="47"><path id="" clip-rule="evenodd" transform="matrix(1 0 0 1 0 0)" d="M358.56 199.4L469.56 199.4L469.56 199.4L469.56 174.08L469.56 174.08L358.56 174.08z" /></clipPath><clipPath id="48"><path id="" clip-rule="evenodd" transform="matrix(1 0 0 1 0 0)" d="M151.2 263.12L260.4 263.12L260.4 263.12L260.4 199.88L260.4 199.88L151.2 199.88z" /></clipPath><clipPath id="49"><path id="" clip-rule="evenodd" transform="matrix(1 0 0 1 0 0)" d="M151.2 263.12L260.4 263.12L260.4 263.12L260.4 199.88L260.4 199.88L151.2 199.88z" /></clipPath><clipPath id="50"><path id="" clip-rule="evenodd" transform="matrix(1 0 0 1 0 0)" d="M151.2 263.12L260.4 263.12L260.4 263.12L260.4 199.88L260.4 199.88L151.2 199.88z" /></clipPath><clipPath id="51"><path id="" clip-rule="evenodd" transform="matrix(1 0 0 1 0 0)" d="M151.2 288.92L260.4 288.92L260.4 288.92L260.4 263.599L260.4 263.599L151.2 263.599z" /></clipPath><clipPath id="52"><path id="" clip-rule="evenodd" transform="matrix(1 0 0 1 0 0)" d="M151.2 288.92L260.4 288.92L260.4 288.92L260.4 263.599L260.4 263.599L151.2 263.599z" /></clipPath><clipPath id="53"><path id="" clip-rule="evenodd" transform="matrix(1 0 0 1 0 0)" d="M151.2 288.92L260.4 288.92L260.4 288.92L260.4 263.599L260.4 263.599L151.2 263.599z" /></clipPath><clipPath id="54"><path id="" clip-rule="evenodd" transform="matrix(1 0 0 1 0 0)" d="M260.4 288.92L358.56 288.92L358.56 288.92L358.56 263.599L358.56 263.599L260.4 263.599z" /></clipPath><clipPath id="55"><path id="" clip-rule="evenodd" transform="matrix(1 0 0 1 0 0)" d="M260.4 288.92L358.56 288.92L358.56 288.92L358.56 263.599L358.56 263.599L260.4 263.599z" /></clipPath><clipPath id="56"><path id="" clip-rule="evenodd" transform="matrix(1 0 0 1 0 0)" d="M260.4 288.92L358.56 288.92L358.56 288.92L358.56 263.599L358.56 263.599L260.4 263.599z" /></clipPath><clipPath id="57"><path id="" clip-rule="evenodd" transform="matrix(1 0 0 1 0 0)" d="M358.56 288.92L469.56 288.92L469.56 288.92L469.56 263.599L469.56 263.599L358.56 263.599z" /></clipPath><clipPath id="58"><path id="" clip-rule="evenodd" transform="matrix(1 0 0 1 0 0)" d="M358.56 288.92L469.56 288.92L469.56 288.92L469.56 263.599L469.56 263.599L358.56 263.599z" /></clipPath><clipPath id="59"><path id="" clip-rule="evenodd" transform="matrix(1 0 0 1 0 0)" d="M358.56 288.92L469.56 288.92L469.56 288.92L469.56 263.599L469.56 263.599L358.56 263.599z" /></clipPath><clipPath id="60"><path id="" clip-rule="evenodd" transform="matrix(1 0 0 1 0 0)" d="M151.2 314.72L260.4 314.72L260.4 314.72L260.4 289.4L260.4 289.4L151.2 289.4z" /></clipPath><clipPath id="61"><path id="" clip-rule="evenodd" transform="matrix(1 0 0 1 0 0)" d="M151.2 314.72L260.4 314.72L260.4 314.72L260.4 289.4L260.4 289.4L151.2 289.4z" /></clipPath><clipPath id="62"><path id="" clip-rule="evenodd" transform="matrix(1 0 0 1 0 0)" d="M151.2 314.72L260.4 314.72L260.4 314.72L260.4 289.4L260.4 289.4L151.2 289.4z" /></clipPath><clipPath id="63"><path id="" clip-rule="evenodd" transform="matrix(1 0 0 1 0 0)" d="M260.4 314.72L358.56 314.72L358.56 314.72L358.56 289.4L358.56 289.4L260.4 289.4z" /></clipPath><clipPath id="64"><path id="" clip-rule="evenodd" transform="matrix(1 0 0 1 0 0)" d="M260.4 314.72L358.56 314.72L358.56 314.72L358.56 289.4L358.56 289.4L260.4 289.4z" /></clipPath><clipPath id="65"><path id="" clip-rule="evenodd" transform="matrix(1 0 0 1 0 0)" d="M260.4 314.72L358.56 314.72L358.56 314.72L358.56 289.4L358.56 289.4L260.4 289.4z" /></clipPath><clipPath id="66"><path id="" clip-rule="evenodd" transform="matrix(1 0 0 1 0 0)" d="M358.56 314.72L469.56 314.72L469.56 314.72L469.56 289.4L469.56 289.4L358.56 289.4z" /></clipPath><clipPath id="67"><path id="" clip-rule="evenodd" transform="matrix(1 0 0 1 0 0)" d="M358.56 314.72L469.56 314.72L469.56 314.72L469.56 289.4L469.56 289.4L358.56 289.4z" /></clipPath><clipPath id="68"><path id="" clip-rule="evenodd" transform="matrix(1 0 0 1 0 0)" d="M358.56 314.72L469.56 314.72L469.56 314.72L469.56 289.4L469.56 289.4L358.56 289.4z" /></clipPath><clipPath id="69"><path id="" clip-rule="evenodd" transform="matrix(1 0 0 1 0 0)" d="M151.2 353.12L260.4 353.12L260.4 353.12L260.4 315.2L260.4 315.2L151.2 315.2z" /></clipPath><clipPath id="70"><path id="" clip-rule="evenodd" transform="matrix(1 0 0 1 0 0)" d="M151.2 353.12L260.4 353.12L260.4 353.12L260.4 315.2L260.4 315.2L151.2 315.2z" /></clipPath><clipPath id="71"><path id="" clip-rule="evenodd" transform="matrix(1 0 0 1 0 0)" d="M151.2 353.12L260.4 353.12L260.4 353.12L260.4 315.2L260.4 315.2L151.2 315.2z" /></clipPath><clipPath id="72"><path id="" clip-rule="evenodd" transform="matrix(1 0 0 1 0 0)" d="M260.4 353.12L358.56 353.12L358.56 353.12L358.56 315.2L358.56 315.2L260.4 315.2z" /></clipPath><clipPath id="73"><path id="" clip-rule="evenodd" transform="matrix(1 0 0 1 0 0)" d="M260.4 353.12L358.56 353.12L358.56 353.12L358.56 315.2L358.56 315.2L260.4 315.2z" /></clipPath><clipPath id="74"><path id="" clip-rule="evenodd" transform="matrix(1 0 0 1 0 0)" d="M260.4 353.12L358.56 353.12L358.56 353.12L358.56 315.2L358.56 315.2L260.4 315.2z" /></clipPath><clipPath id="75"><path id="" clip-rule="evenodd" transform="matrix(1 0 0 1 0 0)" d="M260.4 378.92L358.56 378.92L358.56 378.92L358.56 353.599L358.56 353.599L260.4 353.599z" /></clipPath><clipPath id="76"><path id="" clip-rule="evenodd" transform="matrix(1 0 0 1 0 0)" d="M260.4 378.92L358.56 378.92L358.56 378.92L358.56 353.599L358.56 353.599L260.4 353.599z" /></clipPath><clipPath id="77"><path id="" clip-rule="evenodd" transform="matrix(1 0 0 1 0 0)" d="M260.4 378.92L358.56 378.92L358.56 378.92L358.56 353.599L358.56 353.599L260.4 353.599z" /></clipPath><clipPath id="78"><path id="" clip-rule="evenodd" transform="matrix(1 0 0 1 0 0)" d="M491.4 405.32L519.24 405.32L519.24 405.32L519.24 32L519.24 32L491.4 32z" /></clipPath><clipPath id="79"><path id="" clip-rule="evenodd" transform="matrix(1 0 0 1 0 0)" d="M491.4 405.32L519.24 405.32L519.24 405.32L519.24 32L519.24 32L491.4 32z" /></clipPath><clipPath id="80"><path id="" clip-rule="evenodd" transform="matrix(1 0 0 1 0 0)" d="M89.4 827.12L120.36 827.12L120.36 827.12L120.36 405.32L120.36 405.32L89.4 405.32z" /></clipPath><clipPath id="81"><path id="" clip-rule="evenodd" transform="matrix(1 0 0 1 0 0)" d="M120.36 827.12L151.2 827.12L151.2 827.12L151.2 405.32L151.2 405.32L120.36 405.32z" /></clipPath><clipPath id="82"><path id="" clip-rule="evenodd" transform="matrix(1 0 0 1 0 0)" d="M120.36 827.12L151.2 827.12L151.2 827.12L151.2 405.32L151.2 405.32L120.36 405.32z" /></clipPath><clipPath id="83"><path id="" clip-rule="evenodd" transform="matrix(1 0 0 1 0 0)" d="M151.2 827.12L491.4 827.12L491.4 827.12L491.4 405.32L491.4 405.32L151.2 405.32z" /></clipPath><clipPath id="84"><path id="" clip-rule="evenodd" transform="matrix(1 0 0 1 0 0)" d="M151.2 827.12L491.4 827.12L491.4 827.12L491.4 405.32L491.4 405.32L151.2 405.32z" /></clipPath><clipPath id="85"><path id="" clip-rule="evenodd" transform="matrix(1 0 0 1 0 0)" d="M151.2 827.12L491.4 827.12L491.4 827.12L491.4 405.32L491.4 405.32L151.2 405.32z" /></clipPath><clipPath id="86"><path id="" clip-rule="evenodd" transform="matrix(1 0 0 1 0 0)" d="M151.2 827.12L491.4 827.12L491.4 827.12L491.4 405.32L491.4 405.32L151.2 405.32z" /></clipPath><clipPath id="87"><path id="" clip-rule="evenodd" transform="matrix(1 0 0 1 0 0)" d="M151.2 827.12L491.4 827.12L491.4 827.12L491.4 405.32L491.4 405.32L151.2 405.32z" /></clipPath><clipPath id="88"><path id="" clip-rule="evenodd" transform="matrix(1 0 0 1 0 0)" d="M151.2 827.12L491.4 827.12L491.4 827.12L491.4 405.32L491.4 405.32L151.2 405.32z" /></clipPath><clipPath id="89"><path id="" clip-rule="evenodd" transform="matrix(1 0 0 1 0 0)" d="M151.2 827.12L491.4 827.12L491.4 827.12L491.4 405.32L491.4 405.32L151.2 405.32z" /></clipPath><clipPath id="90"><path id="" clip-rule="evenodd" transform="matrix(1 0 0 1 0 0)" d="M151.2 827.12L491.4 827.12L491.4 827.12L491.4 405.32L491.4 405.32L151.2 405.32z" /></clipPath><clipPath id="91"><path id="" clip-rule="evenodd" transform="matrix(1 0 0 1 0 0)" d="M151.2 827.12L491.4 827.12L491.4 827.12L491.4 405.32L491.4 405.32L151.2 405.32z" /></clipPath><clipPath id="92"><path id="" clip-rule="evenodd" transform="matrix(1 0 0 1 0 0)" d="M151.2 827.12L491.4 827.12L491.4 827.12L491.4 405.32L491.4 405.32L151.2 405.32z" /></clipPath><clipPath id="93"><path id="" clip-rule="evenodd" transform="matrix(1 0 0 1 0 0)" d="M151.2 827.12L491.4 827.12L491.4 827.12L491.4 405.32L491.4 405.32L151.2 405.32z" /></clipPath><clipPath id="94"><path id="" clip-rule="evenodd" transform="matrix(1 0 0 1 0 0)" d="M151.2 827.12L491.4 827.12L491.4 827.12L491.4 405.32L491.4 405.32L151.2 405.32z" /></clipPath><clipPath id="95"><path id="" clip-rule="evenodd" transform="matrix(1 0 0 1 0 0)" d="M151.2 827.12L491.4 827.12L491.4 827.12L491.4 405.32L491.4 405.32L151.2 405.32z" /></clipPath><clipPath id="96"><path id="" clip-rule="evenodd" transform="matrix(1 0 0 1 0 0)" d="M151.2 827.12L491.4 827.12L491.4 827.12L491.4 405.32L491.4 405.32L151.2 405.32z" /></clipPath><clipPath id="97"><path id="" clip-rule="evenodd" transform="matrix(1 0 0 1 0 0)" d="M151.2 827.12L491.4 827.12L491.4 827.12L491.4 405.32L491.4 405.32L151.2 405.32z" /></clipPath><clipPath id="98"><path id="" clip-rule="evenodd" transform="matrix(1 0 0 1 0 0)" d="M151.2 827.12L491.4 827.12L491.4 827.12L491.4 405.32L491.4 405.32L151.2 405.32z" /></clipPath><clipPath id="99"><path id="" clip-rule="evenodd" transform="matrix(1 0 0 1 0 0)" d="M151.2 827.12L491.4 827.12L491.4 827.12L491.4 405.32L491.4 405.32L151.2 405.32z" /></clipPath><clipPath id="100"><path id="" clip-rule="evenodd" transform="matrix(1 0 0 1 0 0)" d="M151.2 827.12L491.4 827.12L491.4 827.12L491.4 405.32L491.4 405.32L151.2 405.32z" /></clipPath><clipPath id="101"><path id="" clip-rule="evenodd" transform="matrix(1 0 0 1 0 0)" d="M151.2 827.12L491.4 827.12L491.4 827.12L491.4 405.32L491.4 405.32L151.2 405.32z" /></clipPath><clipPath id="102"><path id="" clip-rule="evenodd" transform="matrix(1 0 0 1 0 0)" d="M151.2 827.12L491.4 827.12L491.4 827.12L491.4 405.32L491.4 405.32L151.2 405.32z" /></clipPath><clipPath id="103"><path id="" clip-rule="evenodd" transform="matrix(1 0 0 1 0 0)" d="M151.2 827.12L491.4 827.12L491.4 827.12L491.4 405.32L491.4 405.32L151.2 405.32z" /></clipPath><clipPath id="104"><path id="" clip-rule="evenodd" transform="matrix(1 0 0 1 0 0)" d="M151.2 827.12L491.4 827.12L491.4 827.12L491.4 405.32L491.4 405.32L151.2 405.32z" /></clipPath><clipPath id="105"><path id="" clip-rule="evenodd" transform="matrix(1 0 0 1 0 0)" d="M151.2 827.12L491.4 827.12L491.4 827.12L491.4 405.32L491.4 405.32L151.2 405.32z" /></clipPath><clipPath id="106"><path id="" clip-rule="evenodd" transform="matrix(1 0 0 1 0 0)" d="M491.4 827.12L519.24 827.12L519.24 827.12L519.24 405.32L519.24 405.32L491.4 405.32z" /></clipPath><clipPath id="107"><path id="" clip-rule="evenodd" transform="matrix(1 0 0 1 0 0)" d="M491.4 827.12L519.24 827.12L519.24 827.12L519.24 405.32L519.24 405.32L491.4 405.32z" /></clipPath></defs><g transform="matrix(1.333333 0 0 1.333333 0 0)"><g clip-path="url(#1)"><g clip-path="url(#2)"></g><g clip-path="url(#3)"></g><g clip-path="url(#4)"></g><g clip-path="url(#5)"></g><g clip-path="url(#6)"></g><g clip-path="url(#7)"></g><g clip-path="url(#8)"></g><g clip-path="url(#9)"></g><g clip-path="url(#10)"></g><g clip-path="url(#11)"></g><g clip-path="url(#12)"></g><g clip-path="url(#13)"></g><g clip-path="url(#14)"></g><g clip-path="url(#15)"></g><g clip-path="url(#16)"></g><g clip-path="url(#17)"></g><g clip-path="url(#18)"></g><g clip-path="url(#19)"></g><g clip-path="url(#20)"></g><g clip-path="url(#21)"></g><g clip-path="url(#22)"></g><path id="50" transform="matrix(1 0 0 -1 0 842)" d="M151.2 783.96L260.4 783.96L260.4 784.44L151.2 784.44z" stroke="none" fill="#7F7F7F" fill-rule="nonzero" /><path id="51" transform="matrix(1 0 0 -1 0 842)" d="M260.4 783.96L260.881 783.96L260.881 784.44L260.4 784.44z" stroke="none" fill="#7F7F7F" fill-rule="nonzero" /><path id="52" transform="matrix(1 0 0 -1 0 842)" d="M260.88 783.96L358.56 783.96L358.56 784.44L260.88 784.44z" stroke="none" fill="#7F7F7F" fill-rule="nonzero" /><path id="53" transform="matrix(1 0 0 -1 0 842)" d="M358.56 783.96L359.04 783.96L359.04 784.44L358.56 784.44z" stroke="none" fill="#7F7F7F" fill-rule="nonzero" /><path id="54" transform="matrix(1 0 0 -1 0 842)" d="M359.04 783.96L469.56 783.96L469.56 784.44L359.04 784.44z" stroke="none" fill="#7F7F7F" fill-rule="nonzero" /><g clip-path="url(#23)"></g><g clip-path="url(#24)"></g><g clip-path="url(#25)"></g><g clip-path="url(#26)"></g><g clip-path="url(#27)"></g><g clip-path="url(#28)"></g><g clip-path="url(#29)"></g><g clip-path="url(#30)"></g><g clip-path="url(#31)"></g><path id="180" transform="matrix(1 0 0 -1 0 842)" d="M151.2 770.16L260.4 770.16L260.4 770.641L151.2 770.641z" stroke="none" fill="#7F7F7F" fill-rule="nonzero" /><path id="181" transform="matrix(1 0 0 -1 0 842)" d="M260.4 770.16L260.881 770.16L260.881 770.641L260.4 770.641z" stroke="none" fill="#7F7F7F" fill-rule="nonzero" /><path id="182" transform="matrix(1 0 0 -1 0 842)" d="M260.88 770.16L358.56 770.16L358.56 770.641L260.88 770.641z" stroke="none" fill="#7F7F7F" fill-rule="nonzero" /><path id="183" transform="matrix(1 0 0 -1 0 842)" d="M358.56 770.16L359.04 770.16L359.04 770.641L358.56 770.641z" stroke="none" fill="#7F7F7F" fill-rule="nonzero" /><path id="184" transform="matrix(1 0 0 -1 0 842)" d="M359.04 770.16L469.56 770.16L469.56 770.641L359.04 770.641z" stroke="none" fill="#7F7F7F" fill-rule="nonzero" /><g clip-path="url(#32)"></g><g clip-path="url(#33)"></g><g clip-path="url(#34)"></g><g clip-path="url(#35)"></g><g clip-path="url(#36)"></g><g clip-path="url(#37)"></g><g clip-path="url(#38)"></g><path id="383" transform="matrix(1 0 0 -1 0 842)" d="M151.2 731.76L260.4 731.76L260.4 732.24L151.2 732.24z" stroke="none" fill="#7F7F7F" fill-rule="nonzero" /><path id="384" transform="matrix(1 0 0 -1 0 842)" d="M260.4 731.76L260.881 731.76L260.881 732.24L260.4 732.24z" stroke="none" fill="#7F7F7F" fill-rule="nonzero" /><path id="385" transform="matrix(1 0 0 -1 0 842)" d="M260.88 731.76L358.56 731.76L358.56 732.24L260.88 732.24z" stroke="none" fill="#7F7F7F" fill-rule="nonzero" /><path id="386" transform="matrix(1 0 0 -1 0 842)" d="M358.56 731.76L359.04 731.76L359.04 732.24L358.56 732.24z" stroke="none" fill="#7F7F7F" fill-rule="nonzero" /><path id="387" transform="matrix(1 0 0 -1 0 842)" d="M359.04 731.76L469.56 731.76L469.56 732.24L359.04 732.24z" stroke="none" fill="#7F7F7F" fill-rule="nonzero" /><g clip-path="url(#39)"></g><g clip-path="url(#40)"></g><g clip-path="url(#41)"></g><g clip-path="url(#42)"></g><g clip-path="url(#43)"></g><g clip-path="url(#44)"></g><g clip-path="url(#45)"></g><g clip-path="url(#46)"></g><g clip-path="url(#47)"></g><path id="462" transform="matrix(1 0 0 -1 0 842)" d="M151.2 667.92L260.4 667.92L260.4 668.401L151.2 668.401z" stroke="none" fill="#7F7F7F" fill-rule="nonzero" /><path id="463" transform="matrix(1 0 0 -1 0 842)" d="M260.4 667.92L260.881 667.92L260.881 668.401L260.4 668.401z" stroke="none" fill="#7F7F7F" fill-rule="nonzero" /><path id="464" transform="matrix(1 0 0 -1 0 842)" d="M260.88 667.92L358.56 667.92L358.56 668.401L260.88 668.401z" stroke="none" fill="#7F7F7F" fill-rule="nonzero" /><path id="465" transform="matrix(1 0 0 -1 0 842)" d="M358.56 667.92L359.04 667.92L359.04 668.401L358.56 668.401z" stroke="none" fill="#7F7F7F" fill-rule="nonzero" /><path id="466" transform="matrix(1 0 0 -1 0 842)" d="M359.04 667.92L469.56 667.92L469.56 668.401L359.04 668.401z" stroke="none" fill="#7F7F7F" fill-rule="nonzero" /><g clip-path="url(#48)"></g><g clip-path="url(#49)"></g><g clip-path="url(#50)"></g><path id="633" transform="matrix(1 0 0 -1 0 842)" d="M151.2 642.12L260.4 642.12L260.4 642.6L151.2 642.6z" stroke="none" fill="#7F7F7F" fill-rule="nonzero" /><path id="634" transform="matrix(1 0 0 -1 0 842)" d="M260.4 642.12L260.881 642.12L260.881 642.6L260.4 642.6z" stroke="none" fill="#7F7F7F" fill-rule="nonzero" /><path id="635" transform="matrix(1 0 0 -1 0 842)" d="M260.88 642.12L358.56 642.12L358.56 642.6L260.88 642.6z" stroke="none" fill="#7F7F7F" fill-rule="nonzero" /><path id="636" transform="matrix(1 0 0 -1 0 842)" d="M358.56 642.12L359.04 642.12L359.04 642.6L358.56 642.6z" stroke="none" fill="#7F7F7F" fill-rule="nonzero" /><path id="637" transform="matrix(1 0 0 -1 0 842)" d="M359.04 642.12L469.56 642.12L469.56 642.6L359.04 642.6z" stroke="none" fill="#7F7F7F" fill-rule="nonzero" /><g clip-path="url(#51)"></g><g clip-path="url(#52)"></g><g clip-path="url(#53)"></g><g clip-path="url(#54)"></g><g clip-path="url(#55)"></g><g clip-path="url(#56)"></g><g clip-path="url(#57)"></g><g clip-path="url(#58)"></g><g clip-path="url(#59)"></g><path id="722" transform="matrix(1 0 0 -1 0 842)" d="M151.2 578.4L260.4 578.4L260.4 578.88L151.2 578.88z" stroke="none" fill="#7F7F7F" fill-rule="nonzero" /><path id="723" transform="matrix(1 0 0 -1 0 842)" d="M260.4 578.4L260.881 578.4L260.881 578.88L260.4 578.88z" stroke="none" fill="#7F7F7F" fill-rule="nonzero" /><path id="724" transform="matrix(1 0 0 -1 0 842)" d="M260.88 578.4L358.56 578.4L358.56 578.88L260.88 578.88z" stroke="none" fill="#7F7F7F" fill-rule="nonzero" /><path id="725" transform="matrix(1 0 0 -1 0 842)" d="M358.56 578.4L359.04 578.4L359.04 578.88L358.56 578.88z" stroke="none" fill="#7F7F7F" fill-rule="nonzero" /><path id="726" transform="matrix(1 0 0 -1 0 842)" d="M359.04 578.4L469.56 578.4L469.56 578.88L359.04 578.88z" stroke="none" fill="#7F7F7F" fill-rule="nonzero" /><g clip-path="url(#60)"></g><g clip-path="url(#61)"></g><g clip-path="url(#62)"></g><g clip-path="url(#63)"></g><g clip-path="url(#64)"></g><g clip-path="url(#65)"></g><g clip-path="url(#66)"></g><g clip-path="url(#67)"></g><g clip-path="url(#68)"></g><path id="788" transform="matrix(1 0 0 -1 0 842)" d="M151.2 552.6L260.4 552.6L260.4 553.08L151.2 553.08z" stroke="none" fill="#7F7F7F" fill-rule="nonzero" /><path id="789" transform="matrix(1 0 0 -1 0 842)" d="M260.4 552.6L260.881 552.6L260.881 553.08L260.4 553.08z" stroke="none" fill="#7F7F7F" fill-rule="nonzero" /><path id="790" transform="matrix(1 0 0 -1 0 842)" d="M260.88 552.6L358.56 552.6L358.56 553.08L260.88 553.08z" stroke="none" fill="#7F7F7F" fill-rule="nonzero" /><path id="791" transform="matrix(1 0 0 -1 0 842)" d="M358.56 552.6L359.04 552.6L359.04 553.08L358.56 553.08z" stroke="none" fill="#7F7F7F" fill-rule="nonzero" /><path id="792" transform="matrix(1 0 0 -1 0 842)" d="M359.04 552.6L469.56 552.6L469.56 553.08L359.04 553.08z" stroke="none" fill="#7F7F7F" fill-rule="nonzero" /><g clip-path="url(#69)"></g><g clip-path="url(#70)"></g><g clip-path="url(#71)"></g><g clip-path="url(#72)"></g><g clip-path="url(#73)"></g><g clip-path="url(#74)"></g><path id="899" transform="matrix(1 0 0 -1 0 842)" d="M151.2 526.8L260.4 526.8L260.4 527.281L151.2 527.281z" stroke="none" fill="#7F7F7F" fill-rule="nonzero" /><path id="900" transform="matrix(1 0 0 -1 0 842)" d="M260.4 526.8L260.881 526.8L260.881 527.281L260.4 527.281z" stroke="none" fill="#7F7F7F" fill-rule="nonzero" /><path id="901" transform="matrix(1 0 0 -1 0 842)" d="M260.88 526.8L358.56 526.8L358.56 527.281L260.88 527.281z" stroke="none" fill="#7F7F7F" fill-rule="nonzero" /><path id="902" transform="matrix(1 0 0 -1 0 842)" d="M358.56 526.8L359.04 526.8L359.04 527.281L358.56 527.281z" stroke="none" fill="#7F7F7F" fill-rule="nonzero" /><path id="903" transform="matrix(1 0 0 -1 0 842)" d="M359.04 526.8L469.56 526.8L469.56 527.281L359.04 527.281z" stroke="none" fill="#7F7F7F" fill-rule="nonzero" /><g clip-path="url(#75)"></g><g clip-path="url(#76)"></g><g clip-path="url(#77)"></g><path id="963" transform="matrix(1 0 0 -1 0 842)" d="M151.2 488.4L260.4 488.4L260.4 488.88L151.2 488.88z" stroke="none" fill="#7F7F7F" fill-rule="nonzero" /><path id="964" transform="matrix(1 0 0 -1 0 842)" d="M260.4 488.4L260.881 488.4L260.881 488.88L260.4 488.88z" stroke="none" fill="#7F7F7F" fill-rule="nonzero" /><path id="965" transform="matrix(1 0 0 -1 0 842)" d="M260.88 488.4L358.56 488.4L358.56 488.88L260.88 488.88z" stroke="none" fill="#7F7F7F" fill-rule="nonzero" /><path id="966" transform="matrix(1 0 0 -1 0 842)" d="M358.56 488.4L359.04 488.4L359.04 488.88L358.56 488.88z" stroke="none" fill="#7F7F7F" fill-rule="nonzero" /><path id="967" transform="matrix(1 0 0 -1 0 842)" d="M359.04 488.4L469.56 488.4L469.56 488.88L359.04 488.88z" stroke="none" fill="#7F7F7F" fill-rule="nonzero" /><path id="968" transform="matrix(1 0 0 -1 0 842)" d="M151.2 462.6L260.4 462.6L260.4 463.08L151.2 463.08z" stroke="none" fill="#7F7F7F" fill-rule="nonzero" /><path id="969" transform="matrix(1 0 0 -1 0 842)" d="M259.68 462.6L260.161 462.6L260.161 463.08L259.68 463.08z" stroke="none" fill="#7F7F7F" fill-rule="nonzero" /><path id="970" transform="matrix(1 0 0 -1 0 842)" d="M260.16 462.6L358.56 462.6L358.56 463.08L260.16 463.08z" stroke="none" fill="#7F7F7F" fill-rule="nonzero" /><path id="971" transform="matrix(1 0 0 -1 0 842)" d="M357.84 462.6L358.32 462.6L358.32 463.08L357.84 463.08z" stroke="none" fill="#7F7F7F" fill-rule="nonzero" /><path id="972" transform="matrix(1 0 0 -1 0 842)" d="M358.32 462.6L469.56 462.6L469.56 463.08L358.32 463.08z" stroke="none" fill="#7F7F7F" fill-rule="nonzero" /><g clip-path="url(#78)"></g><g clip-path="url(#79)"></g><g clip-path="url(#80)"></g><g clip-path="url(#81)"></g><g clip-path="url(#82)"></g><g clip-path="url(#83)"></g><g clip-path="url(#84)"></g><g clip-path="url(#85)"></g><g clip-path="url(#86)"></g><g clip-path="url(#87)"></g><g clip-path="url(#88)"></g><g clip-path="url(#89)"></g><g clip-path="url(#90)"></g><g clip-path="url(#91)"></g><g clip-path="url(#92)"></g><g clip-path="url(#93)"></g><g clip-path="url(#94)"></g><g clip-path="url(#95)"></g><g clip-path="url(#96)"></g><g clip-path="url(#97)"></g><g clip-path="url(#98)"></g><g clip-path="url(#99)"></g><g clip-path="url(#100)"></g><g clip-path="url(#101)"></g><g clip-path="url(#102)"></g><g clip-path="url(#103)"></g><g clip-path="url(#104)"></g><g clip-path="url(#105)"></g><g clip-path="url(#106)"></g><g clip-path="url(#107)"></g></g></g></svg>