<svg xmlns="http://www.w3.org/2000/svg" xmlns:xlink="http://www.w3.org/1999/xlink" id="body_6" preserveAspectRatio="xMinYMin meet" viewBox="0 0 793 1123"><defs><clipPath id="1"><path id="" clip-rule="evenodd" transform="matrix(1 0 0 1 0 0)" d="M0 842L0 -0.03997803L0 -0.03997803L595.56 -0.03997803L595.56 -0.03997803L595.56 842L595.56 842L0 842z" /></clipPath><clipPath id="2"><path id="" clip-rule="evenodd" transform="matrix(1 0 0 1 0 0)" d="M529.44 806.48L541.919 806.48L541.919 806.48L541.919 792.32L541.919 792.32L529.44 792.32z" /></clipPath><clipPath id="3"><path id="" clip-rule="evenodd" transform="matrix(1 0 0 1 0 0)" d="M529.44 806.48L541.919 806.48L541.919 806.48L541.919 792.32L541.919 792.32L529.44 792.32z" /></clipPath><clipPath id="4"><path id="" clip-rule="evenodd" transform="matrix(1 0 0 1 0 0)" d="M102.84 174.32L538.679 174.32L538.679 174.32L538.679 41L538.679 41L102.84 41z" /></clipPath><clipPath id="5"><path id="" clip-rule="evenodd" transform="matrix(1 0 0 1 0 0)" d="M102.84 174.32L538.679 174.32L538.679 174.32L538.679 41L538.679 41L102.84 41z" /></clipPath><clipPath id="6"><path id="" clip-rule="evenodd" transform="matrix(1 0 0 1 0 0)" d="M102.84 174.32L538.679 174.32L538.679 174.32L538.679 41L538.679 41L102.84 41z" /></clipPath><clipPath id="7"><path id="" clip-rule="evenodd" transform="matrix(1 0 0 1 0 0)" d="M102.84 174.32L538.679 174.32L538.679 174.32L538.679 41L538.679 41L102.84 41z" /></clipPath><clipPath id="8"><path id="" clip-rule="evenodd" transform="matrix(1 0 0 1 0 0)" d="M102.84 174.32L538.679 174.32L538.679 174.32L538.679 41L538.679 41L102.84 41z" /></clipPath><clipPath id="9"><path id="" clip-rule="evenodd" transform="matrix(1 0 0 1 0 0)" d="M102.84 174.32L538.679 174.32L538.679 174.32L538.679 41L538.679 41L102.84 41z" /></clipPath><clipPath id="10"><path id="" clip-rule="evenodd" transform="matrix(1 0 0 1 0 0)" d="M102.84 174.32L538.679 174.32L538.679 174.32L538.679 41L538.679 41L102.84 41z" /></clipPath><clipPath id="11"><path id="" clip-rule="evenodd" transform="matrix(1 0 0 1 0 0)" d="M538.68 501.32L558.48 501.32L558.48 501.32L558.48 174.319L558.48 174.319L538.68 174.319z" /></clipPath><clipPath id="12"><path id="" clip-rule="evenodd" transform="matrix(1 0 0 1 0 0)" d="M103.44 778.88L270.961 778.88L270.961 778.88L270.961 743.119L270.961 743.119L103.44 743.119z" /></clipPath><clipPath id="13"><path id="" clip-rule="evenodd" transform="matrix(1 0 0 1 0 0)" d="M271.56 778.88L477.961 778.88L477.961 778.88L477.961 743.119L477.961 743.119L271.56 743.119z" /></clipPath><clipPath id="14"><path id="" clip-rule="evenodd" transform="matrix(1 0 0 1 0 0)" d="M538.68 778.88L558.48 778.88L558.48 778.88L558.48 501.32L558.48 501.32L538.68 501.32z" /></clipPath></defs><g transform="matrix(1.333333 0 0 1.333333 0 0)"><g clip-path="url(#1)"><g clip-path="url(#2)"></g><g clip-path="url(#3)"></g><g clip-path="url(#4)"></g><g clip-path="url(#5)"></g><g clip-path="url(#6)"></g><g clip-path="url(#7)"></g><g clip-path="url(#8)"></g><g clip-path="url(#9)"></g><g clip-path="url(#10)"></g><g clip-path="url(#11)"></g><path id="1604" transform="matrix(1 0 0 -1 0 842)" d="M103.44 235.68L271.2 235.68L271.2 235.68L271.2 264.48L271.2 264.48L103.44 264.48z" stroke="none" fill="#4F81BD" fill-rule="evenodd" /><path id="1605" transform="matrix(1 0 0 -1 0 842)" d="M108.6 235.68L265.799 235.68L265.799 264.48L108.6 264.48z" stroke="none" fill="#4F81BD" fill-rule="nonzero" /><path id="1624" transform="matrix(1 0 0 -1 0 842)" d="M271.2 235.68L477.96 235.68L477.96 235.68L477.96 264.48L477.96 264.48L271.2 264.48z" stroke="none" fill="#4F81BD" fill-rule="evenodd" /><path id="1625" transform="matrix(1 0 0 -1 0 842)" d="M276.6 235.68L472.8 235.68L472.8 264.48L276.6 264.48z" stroke="none" fill="#4F81BD" fill-rule="nonzero" /><path id="1646" transform="matrix(1 0 0 -1 0 842)" d="M102.84 264.6L103.32 264.6L103.32 265.08L102.84 265.08z" stroke="none" fill="#4F81BD" fill-rule="nonzero" /><path id="1647" transform="matrix(1 0 0 -1 0 842)" d="M102.84 264.6L103.32 264.6L103.32 265.08L102.84 265.08z" stroke="none" fill="#4F81BD" fill-rule="nonzero" /><path id="1648" transform="matrix(1 0 0 -1 0 842)" d="M103.32 264.6L271.2 264.6L271.2 265.08L103.32 265.08z" stroke="none" fill="#4F81BD" fill-rule="nonzero" /><path id="1649" transform="matrix(1 0 0 -1 0 842)" d="M271.2 264.6L271.681 264.6L271.681 265.08L271.2 265.08z" stroke="none" fill="#4F81BD" fill-rule="nonzero" /><path id="1650" transform="matrix(1 0 0 -1 0 842)" d="M271.68 264.6L477.96 264.6L477.96 265.08L271.68 265.08z" stroke="none" fill="#4F81BD" fill-rule="nonzero" /><path id="1651" transform="matrix(1 0 0 -1 0 842)" d="M477.96 264.6L478.44 264.6L478.44 265.08L477.96 265.08z" stroke="none" fill="#4F81BD" fill-rule="nonzero" /><path id="1652" transform="matrix(1 0 0 -1 0 842)" d="M477.96 264.6L478.44 264.6L478.44 265.08L477.96 265.08z" stroke="none" fill="#4F81BD" fill-rule="nonzero" /><path id="1653" transform="matrix(1 0 0 -1 0 842)" d="M102.84 235.68L103.32 235.68L103.32 264.6L102.84 264.6z" stroke="none" fill="#4F81BD" fill-rule="nonzero" /><path id="1654" transform="matrix(1 0 0 -1 0 842)" d="M477.96 235.68L478.44 235.68L478.44 264.6L477.96 264.6z" stroke="none" fill="#4F81BD" fill-rule="nonzero" /><path id="1655" transform="matrix(1 0 0 -1 0 842)" d="M103.44 167.52L270.96 167.52L270.96 167.52L270.96 235.08L270.96 235.08L103.44 235.08z" stroke="none" fill="#DBE5F1" fill-rule="evenodd" /><path id="1656" transform="matrix(1 0 0 -1 0 842)" d="M108.6 214.2L265.799 214.2L265.799 235.08L108.6 235.08z" stroke="none" fill="#DBE5F1" fill-rule="nonzero" /><path id="1677" transform="matrix(1 0 0 -1 0 842)" d="M108.6 201.36L265.8 201.36L265.8 201.36L265.8 214.2L265.8 214.2L108.6 214.2z" stroke="none" fill="#DBE5F1" fill-rule="evenodd" /><path id="1694" transform="matrix(1 0 0 -1 0 842)" d="M108.6 188.4L265.8 188.4L265.8 188.4L265.8 201.36L265.8 201.36L108.6 201.36z" stroke="none" fill="#DBE5F1" fill-rule="evenodd" /><path id="1715" transform="matrix(1 0 0 -1 0 842)" d="M108.6 167.52L265.799 167.52L265.799 188.4L108.6 188.4z" stroke="none" fill="#DBE5F1" fill-rule="nonzero" /><path id="1732" transform="matrix(1 0 0 -1 0 842)" d="M271.56 167.52L477.96 167.52L477.96 167.52L477.96 235.08L477.96 235.08L271.56 235.08z" stroke="none" fill="#DBE5F1" fill-rule="evenodd" /><path id="1733" transform="matrix(1 0 0 -1 0 842)" d="M276.6 214.2L472.8 214.2L472.8 235.08L276.6 235.08z" stroke="none" fill="#DBE5F1" fill-rule="nonzero" /><path id="1763" transform="matrix(1 0 0 -1 0 842)" d="M276.6 201.36L472.8 201.36L472.8 201.36L472.8 214.2L472.8 214.2L276.6 214.2z" stroke="none" fill="#DBE5F1" fill-rule="evenodd" /><path id="1794" transform="matrix(1 0 0 -1 0 842)" d="M276.6 188.4L472.8 188.4L472.8 188.4L472.8 201.36L472.8 201.36L276.6 201.36z" stroke="none" fill="#DBE5F1" fill-rule="evenodd" /><path id="1822" transform="matrix(1 0 0 -1 0 842)" d="M276.6 167.52L472.8 167.52L472.8 188.4L276.6 188.4z" stroke="none" fill="#DBE5F1" fill-rule="nonzero" /><path id="1851" transform="matrix(1 0 0 -1 0 842)" d="M102.84 235.2L103.32 235.2L103.32 235.681L102.84 235.681z" stroke="none" fill="#4F81BD" fill-rule="nonzero" /><path id="1852" transform="matrix(1 0 0 -1 0 842)" d="M103.32 235.2L270.96 235.2L270.96 235.681L103.32 235.681z" stroke="none" fill="#4F81BD" fill-rule="nonzero" /><path id="1853" transform="matrix(1 0 0 -1 0 842)" d="M270.96 235.2L271.44 235.2L271.44 235.681L270.96 235.681z" stroke="none" fill="#4F81BD" fill-rule="nonzero" /><path id="1854" transform="matrix(1 0 0 -1 0 842)" d="M271.44 235.2L271.92 235.2L271.92 235.681L271.44 235.681z" stroke="none" fill="#4F81BD" fill-rule="nonzero" /><path id="1855" transform="matrix(1 0 0 -1 0 842)" d="M271.92 235.2L477.961 235.2L477.961 235.681L271.92 235.681z" stroke="none" fill="#4F81BD" fill-rule="nonzero" /><path id="1856" transform="matrix(1 0 0 -1 0 842)" d="M477.96 235.2L478.44 235.2L478.44 235.681L477.96 235.681z" stroke="none" fill="#4F81BD" fill-rule="nonzero" /><path id="1857" transform="matrix(1 0 0 -1 0 842)" d="M102.84 167.52L103.32 167.52L103.32 235.2L102.84 235.2z" stroke="none" fill="#95B3D7" fill-rule="nonzero" /><path id="1858" transform="matrix(1 0 0 -1 0 842)" d="M270.96 167.52L271.44 167.52L271.44 235.2L270.96 235.2z" stroke="none" fill="#95B3D7" fill-rule="nonzero" /><path id="1859" transform="matrix(1 0 0 -1 0 842)" d="M477.96 167.52L478.44 167.52L478.44 235.2L477.96 235.2z" stroke="none" fill="#95B3D7" fill-rule="nonzero" /><path id="2022" transform="matrix(1 0 0 -1 0 842)" d="M102.84 167.04L103.32 167.04L103.32 167.52L102.84 167.52z" stroke="none" fill="#95B3D7" fill-rule="nonzero" /><path id="2023" transform="matrix(1 0 0 -1 0 842)" d="M103.32 167.04L270.96 167.04L270.96 167.52L103.32 167.52z" stroke="none" fill="#95B3D7" fill-rule="nonzero" /><path id="2024" transform="matrix(1 0 0 -1 0 842)" d="M270.96 167.04L271.44 167.04L271.44 167.52L270.96 167.52z" stroke="none" fill="#95B3D7" fill-rule="nonzero" /><path id="2025" transform="matrix(1 0 0 -1 0 842)" d="M271.44 167.04L477.96 167.04L477.96 167.52L271.44 167.52z" stroke="none" fill="#95B3D7" fill-rule="nonzero" /><path id="2026" transform="matrix(1 0 0 -1 0 842)" d="M477.96 167.04L478.44 167.04L478.44 167.52L477.96 167.52z" stroke="none" fill="#95B3D7" fill-rule="nonzero" /><path id="2027" transform="matrix(1 0 0 -1 0 842)" d="M102.84 99.48L103.32 99.48L103.32 167.04L102.84 167.04z" stroke="none" fill="#95B3D7" fill-rule="nonzero" /><path id="2028" transform="matrix(1 0 0 -1 0 842)" d="M270.96 99.48L271.44 99.48L271.44 167.04L270.96 167.04z" stroke="none" fill="#95B3D7" fill-rule="nonzero" /><path id="2029" transform="matrix(1 0 0 -1 0 842)" d="M477.96 99.48L478.44 99.48L478.44 167.04L477.96 167.04z" stroke="none" fill="#95B3D7" fill-rule="nonzero" /><path id="2030" transform="matrix(1 0 0 -1 0 842)" d="M103.44 63.12L270.961 63.12L270.961 98.881L103.44 98.881z" stroke="none" fill="#DBE5F1" fill-rule="nonzero" /><path id="2031" transform="matrix(1 0 0 -1 0 842)" d="M108.6 78L265.799 78L265.799 98.88L108.6 98.88z" stroke="none" fill="#DBE5F1" fill-rule="nonzero" /><path id="2048" transform="matrix(1 0 0 -1 0 842)" d="M108.6 65.16L265.8 65.16L265.8 65.16L265.8 78L265.8 78L108.6 78z" stroke="none" fill="#DBE5F1" fill-rule="evenodd" /><g clip-path="url(#12)"></g><path id="2070" transform="matrix(1 0 0 -1 0 842)" d="M271.56 63.12L477.961 63.12L477.961 98.881L271.56 98.881z" stroke="none" fill="#DBE5F1" fill-rule="nonzero" /><path id="2071" transform="matrix(1 0 0 -1 0 842)" d="M276.6 78L472.8 78L472.8 98.88L276.6 98.88z" stroke="none" fill="#DBE5F1" fill-rule="nonzero" /><path id="2093" transform="matrix(1 0 0 -1 0 842)" d="M276.6 65.16L472.8 65.16L472.8 65.16L472.8 78L472.8 78L276.6 78z" stroke="none" fill="#DBE5F1" fill-rule="evenodd" /><g clip-path="url(#13)"></g><path id="2128" transform="matrix(1 0 0 -1 0 842)" d="M102.84 99L103.32 99L103.32 99.48L102.84 99.48z" stroke="none" fill="#95B3D7" fill-rule="nonzero" /><path id="2129" transform="matrix(1 0 0 -1 0 842)" d="M103.32 99L270.96 99L270.96 99.48L103.32 99.48z" stroke="none" fill="#95B3D7" fill-rule="nonzero" /><path id="2130" transform="matrix(1 0 0 -1 0 842)" d="M270.96 99L271.44 99L271.44 99.48L270.96 99.48z" stroke="none" fill="#95B3D7" fill-rule="nonzero" /><path id="2131" transform="matrix(1 0 0 -1 0 842)" d="M271.44 99L477.96 99L477.96 99.48L271.44 99.48z" stroke="none" fill="#95B3D7" fill-rule="nonzero" /><path id="2132" transform="matrix(1 0 0 -1 0 842)" d="M477.96 99L478.44 99L478.44 99.48L477.96 99.48z" stroke="none" fill="#95B3D7" fill-rule="nonzero" /><path id="2133" transform="matrix(1 0 0 -1 0 842)" d="M102.84 63.6L103.32 63.6L103.32 99L102.84 99z" stroke="none" fill="#95B3D7" fill-rule="nonzero" /><path id="2134" transform="matrix(1 0 0 -1 0 842)" d="M102.84 63.12L103.32 63.12L103.32 63.601L102.84 63.601z" stroke="none" fill="#95B3D7" fill-rule="nonzero" /><path id="2135" transform="matrix(1 0 0 -1 0 842)" d="M102.84 63.12L103.32 63.12L103.32 63.601L102.84 63.601z" stroke="none" fill="#95B3D7" fill-rule="nonzero" /><path id="2136" transform="matrix(1 0 0 -1 0 842)" d="M103.32 63.12L270.96 63.12L270.96 63.601L103.32 63.601z" stroke="none" fill="#95B3D7" fill-rule="nonzero" /><path id="2137" transform="matrix(1 0 0 -1 0 842)" d="M270.96 63.6L271.44 63.6L271.44 99L270.96 99z" stroke="none" fill="#95B3D7" fill-rule="nonzero" /><path id="2138" transform="matrix(1 0 0 -1 0 842)" d="M270.96 63.12L271.44 63.12L271.44 63.601L270.96 63.601z" stroke="none" fill="#95B3D7" fill-rule="nonzero" /><path id="2139" transform="matrix(1 0 0 -1 0 842)" d="M271.44 63.12L477.96 63.12L477.96 63.601L271.44 63.601z" stroke="none" fill="#95B3D7" fill-rule="nonzero" /><path id="2140" transform="matrix(1 0 0 -1 0 842)" d="M477.96 63.6L478.44 63.6L478.44 99L477.96 99z" stroke="none" fill="#95B3D7" fill-rule="nonzero" /><path id="2141" transform="matrix(1 0 0 -1 0 842)" d="M477.96 63.12L478.44 63.12L478.44 63.601L477.96 63.601z" stroke="none" fill="#95B3D7" fill-rule="nonzero" /><path id="2142" transform="matrix(1 0 0 -1 0 842)" d="M477.96 63.12L478.44 63.12L478.44 63.601L477.96 63.601z" stroke="none" fill="#95B3D7" fill-rule="nonzero" /><g clip-path="url(#14)"></g></g></g></svg>