<svg xmlns="http://www.w3.org/2000/svg" xmlns:xlink="http://www.w3.org/1999/xlink" id="body_1" preserveAspectRatio="xMinYMin meet" viewBox="0 0 793 1123"><defs><clipPath id="1"><path id="" clip-rule="evenodd" transform="matrix(1 0 0 1 0 0)" d="M0 842L0 -0.03997803L0 -0.03997803L595.56 -0.03997803L595.56 -0.03997803L595.56 842L595.56 842L0 842z" /></clipPath><clipPath id="2"><path id="" clip-rule="evenodd" transform="matrix(1 0 0 1 0 0)" d="M529.44 806.48L541.919 806.48L541.919 806.48L541.919 792.32L541.919 792.32L529.44 792.32z" /></clipPath><clipPath id="3"><path id="" clip-rule="evenodd" transform="matrix(1 0 0 1 0 0)" d="M529.44 806.48L541.919 806.48L541.919 806.48L541.919 792.32L541.919 792.32L529.44 792.32z" /></clipPath><clipPath id="4"><path id="" clip-rule="evenodd" transform="matrix(1 0 0 1 0 0)" d="M78 238.16L104.159 238.16L104.159 238.16L104.159 206.24L104.159 206.24L78 206.24z" /></clipPath><clipPath id="5"><path id="" clip-rule="evenodd" transform="matrix(1 0 0 1 0 0)" d="M104.16 238.16L521.521 238.16L521.521 238.16L521.521 206.24L521.521 206.24L104.16 206.24z" /></clipPath><clipPath id="6"><path id="" clip-rule="evenodd" transform="matrix(1 0 0 1 0 0)" d="M521.52 238.16L558.479 238.16L558.479 238.16L558.479 206.24L558.479 206.24L521.52 206.24z" /></clipPath><clipPath id="7"><path id="" clip-rule="evenodd" transform="matrix(1 0 0 1 0 0)" d="M57 749.12L78.001 749.12L78.001 749.12L78.001 238.16L78.001 238.16L57 238.16z" /></clipPath><clipPath id="8"><path id="" clip-rule="evenodd" transform="matrix(1 0 0 1 0 0)" d="M57 749.12L78.001 749.12L78.001 749.12L78.001 238.16L78.001 238.16L57 238.16z" /></clipPath><clipPath id="9"><path id="" clip-rule="evenodd" transform="matrix(1 0 0 1 0 0)" d="M104.16 749.12L521.521 749.12L521.521 749.12L521.521 238.16L521.521 238.16L104.16 238.16z" /></clipPath><clipPath id="10"><path id="" clip-rule="evenodd" transform="matrix(1 0 0 1 0 0)" d="M104.16 749.12L521.521 749.12L521.521 749.12L521.521 238.16L521.521 238.16L104.16 238.16z" /></clipPath><clipPath id="11"><path id="" clip-rule="evenodd" transform="matrix(1 0 0 1 0 0)" d="M104.16 749.12L521.521 749.12L521.521 749.12L521.521 238.16L521.521 238.16L104.16 238.16z" /></clipPath><clipPath id="12"><path id="" clip-rule="evenodd" transform="matrix(1 0 0 1 0 0)" d="M104.16 749.12L521.521 749.12L521.521 749.12L521.521 238.16L521.521 238.16L104.16 238.16z" /></clipPath><clipPath id="13"><path id="" clip-rule="evenodd" transform="matrix(1 0 0 1 0 0)" d="M104.16 749.12L521.521 749.12L521.521 749.12L521.521 238.16L521.521 238.16L104.16 238.16z" /></clipPath><clipPath id="14"><path id="" clip-rule="evenodd" transform="matrix(1 0 0 1 0 0)" d="M104.16 749.12L521.521 749.12L521.521 749.12L521.521 238.16L521.521 238.16L104.16 238.16z" /></clipPath><clipPath id="15"><path id="" clip-rule="evenodd" transform="matrix(1 0 0 1 0 0)" d="M104.16 749.12L521.521 749.12L521.521 749.12L521.521 238.16L521.521 238.16L104.16 238.16z" /></clipPath><clipPath id="16"><path id="" clip-rule="evenodd" transform="matrix(1 0 0 1 0 0)" d="M104.16 749.12L521.521 749.12L521.521 749.12L521.521 238.16L521.521 238.16L104.16 238.16z" /></clipPath></defs><g transform="matrix(1.333333 0 0 1.333333 0 0)"><g clip-path="url(#1)"><g clip-path="url(#2)"></g><g clip-path="url(#3)"></g><path id="22" transform="matrix(1 0 0 -1 0 842)" d="M132.84 781.2L180.6 781.2L180.6 781.92L132.84 781.92z" stroke="none" fill="#000000" fill-rule="nonzero" /><path id="23" transform="matrix(1 0 0 -1 0 842)" d="M456.72 781.2L521.28 781.2L521.28 781.92L456.72 781.92z" stroke="none" fill="#000000" fill-rule="nonzero" /><g clip-path="url(#4)"></g><g clip-path="url(#5)"></g><g clip-path="url(#6)"></g><g clip-path="url(#7)"></g><g clip-path="url(#8)"></g><g clip-path="url(#9)"></g><g clip-path="url(#10)"></g><g clip-path="url(#11)"></g><g clip-path="url(#12)"></g><g clip-path="url(#13)"></g><g clip-path="url(#14)"></g><g clip-path="url(#15)"></g><g clip-path="url(#16)"></g></g></g></svg>