<svg xmlns="http://www.w3.org/2000/svg" xmlns:xlink="http://www.w3.org/1999/xlink" id="body_8" preserveAspectRatio="xMinYMin meet" viewBox="0 0 793 1123"><defs><clipPath id="1"><path id="" clip-rule="evenodd" transform="matrix(1 0 0 1 0 0)" d="M0 842L0 -0.03997803L0 -0.03997803L595.56 -0.03997803L595.56 -0.03997803L595.56 842L595.56 842L0 842z" /></clipPath><clipPath id="2"><path id="" clip-rule="evenodd" transform="matrix(1 0 0 1 0 0)" d="M529.44 806.48L541.919 806.48L541.919 806.48L541.919 792.32L541.919 792.32L529.44 792.32z" /></clipPath><clipPath id="3"><path id="" clip-rule="evenodd" transform="matrix(1 0 0 1 0 0)" d="M529.44 806.48L541.919 806.48L541.919 806.48L541.919 792.32L541.919 792.32L529.44 792.32z" /></clipPath><clipPath id="4"><path id="" clip-rule="evenodd" transform="matrix(1 0 0 1 0 0)" d="M102.84 301.76L538.679 301.76L538.679 301.76L538.679 41L538.679 41L102.84 41z" /></clipPath><clipPath id="5"><path id="" clip-rule="evenodd" transform="matrix(1 0 0 1 0 0)" d="M102.84 301.76L538.679 301.76L538.679 301.76L538.679 41L538.679 41L102.84 41z" /></clipPath><clipPath id="6"><path id="" clip-rule="evenodd" transform="matrix(1 0 0 1 0 0)" d="M102.84 301.76L538.679 301.76L538.679 301.76L538.679 41L538.679 41L102.84 41z" /></clipPath><clipPath id="7"><path id="" clip-rule="evenodd" transform="matrix(1 0 0 1 0 0)" d="M102.84 778.4L538.679 778.4L538.679 778.4L538.679 301.76L538.679 301.76L102.84 301.76z" /></clipPath><clipPath id="8"><path id="" clip-rule="evenodd" transform="matrix(1 0 0 1 0 0)" d="M102.84 778.4L538.679 778.4L538.679 778.4L538.679 301.76L538.679 301.76L102.84 301.76z" /></clipPath><clipPath id="9"><path id="" clip-rule="evenodd" transform="matrix(1 0 0 1 0 0)" d="M538.68 778.4L558.48 778.4L558.48 778.4L558.48 301.76L558.48 301.76L538.68 301.76z" /></clipPath></defs><g transform="matrix(1.333333 0 0 1.333333 0 0)"><g clip-path="url(#1)"><g clip-path="url(#2)"></g><g clip-path="url(#3)"></g><g clip-path="url(#4)"></g><g clip-path="url(#5)"></g><g clip-path="url(#6)"></g><path id="1212" transform="matrix(1 0 0 -1 0 842)" d="M131.4 353.76L384.6 353.76L384.6 354.48L131.4 354.48z" stroke="none" fill="#000000" fill-rule="nonzero" /><g clip-path="url(#7)"></g><path id="1730" transform="matrix(1 0 0 -1 0 842)" d="M160.68 187.68L256.8 187.68L256.8 188.4L160.68 188.4z" stroke="none" fill="#000000" fill-rule="nonzero" /><path id="2046" transform="matrix(1 0 0 -1 0 842)" d="M299.4 91.32L534.48 91.32L534.48 92.04L299.4 92.04z" stroke="none" fill="#000000" fill-rule="nonzero" /><path id="2117" transform="matrix(1 0 0 -1 0 842)" d="M108.12 77.88L126.12 77.88L126.12 78.6L108.12 78.6z" stroke="none" fill="#000000" fill-rule="nonzero" /><g clip-path="url(#8)"></g><g clip-path="url(#9)"></g></g></g></svg>