<svg xmlns="http://www.w3.org/2000/svg" xmlns:xlink="http://www.w3.org/1999/xlink" id="body_4" preserveAspectRatio="xMinYMin meet" viewBox="0 0 793 1123"><defs><clipPath id="1"><path id="" clip-rule="evenodd" transform="matrix(1 0 0 1 0 0)" d="M0 842L0 -0.03997803L0 -0.03997803L595.56 -0.03997803L595.56 -0.03997803L595.56 842L595.56 842L0 842z" /></clipPath><clipPath id="2"><path id="" clip-rule="evenodd" transform="matrix(1 0 0 1 0 0)" d="M529.44 806.48L541.919 806.48L541.919 806.48L541.919 792.32L541.919 792.32L529.44 792.32z" /></clipPath><clipPath id="3"><path id="" clip-rule="evenodd" transform="matrix(1 0 0 1 0 0)" d="M529.44 806.48L541.919 806.48L541.919 806.48L541.919 792.32L541.919 792.32L529.44 792.32z" /></clipPath><clipPath id="4"><path id="" clip-rule="evenodd" transform="matrix(1 0 0 1 0 0)" d="M117.12 264.44L515.28 264.44L515.28 264.44L515.28 41L515.28 41L117.12 41z" /></clipPath><clipPath id="5"><path id="" clip-rule="evenodd" transform="matrix(1 0 0 1 0 0)" d="M117.12 264.44L515.28 264.44L515.28 264.44L515.28 41L515.28 41L117.12 41z" /></clipPath><clipPath id="6"><path id="" clip-rule="evenodd" transform="matrix(1 0 0 1 0 0)" d="M117.12 264.44L515.28 264.44L515.28 264.44L515.28 41L515.28 41L117.12 41z" /></clipPath><clipPath id="7"><path id="" clip-rule="evenodd" transform="matrix(1 0 0 1 0 0)" d="M117.12 264.44L515.28 264.44L515.28 264.44L515.28 41L515.28 41L117.12 41z" /></clipPath><clipPath id="8"><path id="" clip-rule="evenodd" transform="matrix(1 0 0 1 0 0)" d="M117.12 264.44L515.28 264.44L515.28 264.44L515.28 41L515.28 41L117.12 41z" /></clipPath><clipPath id="9"><path id="" clip-rule="evenodd" transform="matrix(1 0 0 1 0 0)" d="M62.88 296.48L90.6 296.48L90.6 296.48L90.6 264.44L90.6 264.44L62.88 264.44z" /></clipPath><clipPath id="10"><path id="" clip-rule="evenodd" transform="matrix(1 0 0 1 0 0)" d="M90.6 296.48L117.119 296.48L117.119 296.48L117.119 264.44L117.119 264.44L90.6 264.44z" /></clipPath><clipPath id="11"><path id="" clip-rule="evenodd" transform="matrix(1 0 0 1 0 0)" d="M515.28 296.48L542.64 296.48L542.64 296.48L542.64 264.44L542.64 264.44L515.28 264.44z" /></clipPath><clipPath id="12"><path id="" clip-rule="evenodd" transform="matrix(1 0 0 1 0 0)" d="M117.12 715.16L515.28 715.16L515.28 715.16L515.28 296.48L515.28 296.48L117.12 296.48z" /></clipPath><clipPath id="13"><path id="" clip-rule="evenodd" transform="matrix(1 0 0 1 0 0)" d="M515.28 715.16L542.64 715.16L542.64 715.16L542.64 296.48L542.64 296.48L515.28 296.48z" /></clipPath><clipPath id="14"><path id="" clip-rule="evenodd" transform="matrix(1 0 0 1 0 0)" d="M62.88 779.12L90.6 779.12L90.6 779.12L90.6 715.161L90.6 715.161L62.88 715.161z" /></clipPath><clipPath id="15"><path id="" clip-rule="evenodd" transform="matrix(1 0 0 1 0 0)" d="M117.12 779.12L515.28 779.12L515.28 779.12L515.28 715.161L515.28 715.161L117.12 715.161z" /></clipPath><clipPath id="16"><path id="" clip-rule="evenodd" transform="matrix(1 0 0 1 0 0)" d="M117.12 779.12L515.28 779.12L515.28 779.12L515.28 715.161L515.28 715.161L117.12 715.161z" /></clipPath><clipPath id="17"><path id="" clip-rule="evenodd" transform="matrix(1 0 0 1 0 0)" d="M515.28 779.12L542.64 779.12L542.64 779.12L542.64 715.161L542.64 715.161L515.28 715.161z" /></clipPath></defs><g transform="matrix(1.333333 0 0 1.333333 0 0)"><g clip-path="url(#1)"><g clip-path="url(#2)"></g><g clip-path="url(#3)"></g><g clip-path="url(#4)"></g><g clip-path="url(#5)"></g><g clip-path="url(#6)"></g><g clip-path="url(#7)"></g><g clip-path="url(#8)"></g><g clip-path="url(#9)"></g><g clip-path="url(#10)"></g><g clip-path="url(#11)"></g><path id="613" transform="matrix(1 0 0 -1 0 842)" d="M117.12 513.12L117.601 513.12L117.601 513.601L117.12 513.601z" stroke="none" fill="#BFBFBF" fill-rule="nonzero" /><path id="614" transform="matrix(1 0 0 -1 0 842)" d="M117.12 513.12L117.601 513.12L117.601 513.601L117.12 513.601z" stroke="none" fill="#BFBFBF" fill-rule="nonzero" /><path id="615" transform="matrix(1 0 0 -1 0 842)" d="M117.6 513.12L205.44 513.12L205.44 513.601L117.6 513.601z" stroke="none" fill="#BFBFBF" fill-rule="nonzero" /><path id="616" transform="matrix(1 0 0 -1 0 842)" d="M205.44 513.12L205.92 513.12L205.92 513.601L205.44 513.601z" stroke="none" fill="#BFBFBF" fill-rule="nonzero" /><path id="617" transform="matrix(1 0 0 -1 0 842)" d="M205.92 513.12L338.88 513.12L338.88 513.601L205.92 513.601z" stroke="none" fill="#BFBFBF" fill-rule="nonzero" /><path id="618" transform="matrix(1 0 0 -1 0 842)" d="M338.88 513.12L339.361 513.12L339.361 513.601L338.88 513.601z" stroke="none" fill="#BFBFBF" fill-rule="nonzero" /><path id="619" transform="matrix(1 0 0 -1 0 842)" d="M339.36 513.12L514.8 513.12L514.8 513.601L339.36 513.601z" stroke="none" fill="#BFBFBF" fill-rule="nonzero" /><path id="620" transform="matrix(1 0 0 -1 0 842)" d="M514.8 513.12L515.28 513.12L515.28 513.601L514.8 513.601z" stroke="none" fill="#BFBFBF" fill-rule="nonzero" /><path id="621" transform="matrix(1 0 0 -1 0 842)" d="M514.8 513.12L515.28 513.12L515.28 513.601L514.8 513.601z" stroke="none" fill="#BFBFBF" fill-rule="nonzero" /><path id="622" transform="matrix(1 0 0 -1 0 842)" d="M117.12 481.08L117.601 481.08L117.601 513.12L117.12 513.12z" stroke="none" fill="#BFBFBF" fill-rule="nonzero" /><path id="623" transform="matrix(1 0 0 -1 0 842)" d="M205.44 481.08L205.92 481.08L205.92 513.12L205.44 513.12z" stroke="none" fill="#BFBFBF" fill-rule="nonzero" /><path id="624" transform="matrix(1 0 0 -1 0 842)" d="M338.88 481.08L339.361 481.08L339.361 513.12L338.88 513.12z" stroke="none" fill="#BFBFBF" fill-rule="nonzero" /><path id="625" transform="matrix(1 0 0 -1 0 842)" d="M514.8 481.08L515.28 481.08L515.28 513.12L514.8 513.12z" stroke="none" fill="#BFBFBF" fill-rule="nonzero" /><path id="813" transform="matrix(1 0 0 -1 0 842)" d="M117.12 480.6L117.601 480.6L117.601 481.08L117.12 481.08z" stroke="none" fill="#BFBFBF" fill-rule="nonzero" /><path id="814" transform="matrix(1 0 0 -1 0 842)" d="M117.6 480.6L205.44 480.6L205.44 481.08L117.6 481.08z" stroke="none" fill="#BFBFBF" fill-rule="nonzero" /><path id="815" transform="matrix(1 0 0 -1 0 842)" d="M205.44 480.6L205.92 480.6L205.92 481.08L205.44 481.08z" stroke="none" fill="#BFBFBF" fill-rule="nonzero" /><path id="816" transform="matrix(1 0 0 -1 0 842)" d="M205.92 480.6L338.88 480.6L338.88 481.08L205.92 481.08z" stroke="none" fill="#BFBFBF" fill-rule="nonzero" /><path id="817" transform="matrix(1 0 0 -1 0 842)" d="M338.88 480.6L339.361 480.6L339.361 481.08L338.88 481.08z" stroke="none" fill="#BFBFBF" fill-rule="nonzero" /><path id="818" transform="matrix(1 0 0 -1 0 842)" d="M339.36 480.6L514.8 480.6L514.8 481.08L339.36 481.08z" stroke="none" fill="#BFBFBF" fill-rule="nonzero" /><path id="819" transform="matrix(1 0 0 -1 0 842)" d="M514.8 480.6L515.28 480.6L515.28 481.08L514.8 481.08z" stroke="none" fill="#BFBFBF" fill-rule="nonzero" /><path id="820" transform="matrix(1 0 0 -1 0 842)" d="M117.12 384.84L117.601 384.84L117.601 480.6L117.12 480.6z" stroke="none" fill="#BFBFBF" fill-rule="nonzero" /><path id="821" transform="matrix(1 0 0 -1 0 842)" d="M205.44 384.84L205.92 384.84L205.92 480.6L205.44 480.6z" stroke="none" fill="#BFBFBF" fill-rule="nonzero" /><path id="822" transform="matrix(1 0 0 -1 0 842)" d="M338.88 384.84L339.361 384.84L339.361 480.6L338.88 480.6z" stroke="none" fill="#BFBFBF" fill-rule="nonzero" /><path id="823" transform="matrix(1 0 0 -1 0 842)" d="M514.8 384.84L515.28 384.84L515.28 480.6L514.8 480.6z" stroke="none" fill="#BFBFBF" fill-rule="nonzero" /><path id="900" transform="matrix(1 0 0 -1 0 842)" d="M117.12 384.36L117.601 384.36L117.601 384.84L117.12 384.84z" stroke="none" fill="#BFBFBF" fill-rule="nonzero" /><path id="901" transform="matrix(1 0 0 -1 0 842)" d="M117.6 384.36L205.44 384.36L205.44 384.84L117.6 384.84z" stroke="none" fill="#BFBFBF" fill-rule="nonzero" /><path id="902" transform="matrix(1 0 0 -1 0 842)" d="M205.44 384.36L205.92 384.36L205.92 384.84L205.44 384.84z" stroke="none" fill="#BFBFBF" fill-rule="nonzero" /><path id="903" transform="matrix(1 0 0 -1 0 842)" d="M205.92 384.36L338.88 384.36L338.88 384.84L205.92 384.84z" stroke="none" fill="#BFBFBF" fill-rule="nonzero" /><path id="904" transform="matrix(1 0 0 -1 0 842)" d="M338.88 384.36L339.361 384.36L339.361 384.84L338.88 384.84z" stroke="none" fill="#BFBFBF" fill-rule="nonzero" /><path id="905" transform="matrix(1 0 0 -1 0 842)" d="M339.36 384.36L514.8 384.36L514.8 384.84L339.36 384.84z" stroke="none" fill="#BFBFBF" fill-rule="nonzero" /><path id="906" transform="matrix(1 0 0 -1 0 842)" d="M514.8 384.36L515.28 384.36L515.28 384.84L514.8 384.84z" stroke="none" fill="#BFBFBF" fill-rule="nonzero" /><path id="907" transform="matrix(1 0 0 -1 0 842)" d="M117.12 336.36L117.601 336.36L117.601 384.361L117.12 384.361z" stroke="none" fill="#BFBFBF" fill-rule="nonzero" /><path id="908" transform="matrix(1 0 0 -1 0 842)" d="M205.44 336.36L205.92 336.36L205.92 384.361L205.44 384.361z" stroke="none" fill="#BFBFBF" fill-rule="nonzero" /><path id="909" transform="matrix(1 0 0 -1 0 842)" d="M338.88 336.36L339.361 336.36L339.361 384.361L338.88 384.361z" stroke="none" fill="#BFBFBF" fill-rule="nonzero" /><path id="910" transform="matrix(1 0 0 -1 0 842)" d="M514.8 336.36L515.28 336.36L515.28 384.361L514.8 384.361z" stroke="none" fill="#BFBFBF" fill-rule="nonzero" /><path id="1053" transform="matrix(1 0 0 -1 0 842)" d="M117.12 335.88L117.601 335.88L117.601 336.36L117.12 336.36z" stroke="none" fill="#BFBFBF" fill-rule="nonzero" /><path id="1054" transform="matrix(1 0 0 -1 0 842)" d="M117.6 335.88L205.44 335.88L205.44 336.36L117.6 336.36z" stroke="none" fill="#BFBFBF" fill-rule="nonzero" /><path id="1055" transform="matrix(1 0 0 -1 0 842)" d="M205.44 335.88L205.92 335.88L205.92 336.36L205.44 336.36z" stroke="none" fill="#BFBFBF" fill-rule="nonzero" /><path id="1056" transform="matrix(1 0 0 -1 0 842)" d="M205.92 335.88L338.88 335.88L338.88 336.36L205.92 336.36z" stroke="none" fill="#BFBFBF" fill-rule="nonzero" /><path id="1057" transform="matrix(1 0 0 -1 0 842)" d="M338.88 335.88L339.361 335.88L339.361 336.36L338.88 336.36z" stroke="none" fill="#BFBFBF" fill-rule="nonzero" /><path id="1058" transform="matrix(1 0 0 -1 0 842)" d="M339.36 335.88L514.8 335.88L514.8 336.36L339.36 336.36z" stroke="none" fill="#BFBFBF" fill-rule="nonzero" /><path id="1059" transform="matrix(1 0 0 -1 0 842)" d="M514.8 335.88L515.28 335.88L515.28 336.36L514.8 336.36z" stroke="none" fill="#BFBFBF" fill-rule="nonzero" /><path id="1060" transform="matrix(1 0 0 -1 0 842)" d="M117.12 256.08L117.601 256.08L117.601 335.88L117.12 335.88z" stroke="none" fill="#BFBFBF" fill-rule="nonzero" /><path id="1061" transform="matrix(1 0 0 -1 0 842)" d="M205.44 256.08L205.92 256.08L205.92 335.88L205.44 335.88z" stroke="none" fill="#BFBFBF" fill-rule="nonzero" /><path id="1062" transform="matrix(1 0 0 -1 0 842)" d="M338.88 256.08L339.361 256.08L339.361 335.88L338.88 335.88z" stroke="none" fill="#BFBFBF" fill-rule="nonzero" /><path id="1063" transform="matrix(1 0 0 -1 0 842)" d="M514.8 256.08L515.28 256.08L515.28 335.88L514.8 335.88z" stroke="none" fill="#BFBFBF" fill-rule="nonzero" /><path id="1155" transform="matrix(1 0 0 -1 0 842)" d="M117.12 255.6L117.601 255.6L117.601 256.08L117.12 256.08z" stroke="none" fill="#BFBFBF" fill-rule="nonzero" /><path id="1156" transform="matrix(1 0 0 -1 0 842)" d="M117.6 255.6L205.44 255.6L205.44 256.08L117.6 256.08z" stroke="none" fill="#BFBFBF" fill-rule="nonzero" /><path id="1157" transform="matrix(1 0 0 -1 0 842)" d="M205.44 255.6L205.92 255.6L205.92 256.08L205.44 256.08z" stroke="none" fill="#BFBFBF" fill-rule="nonzero" /><path id="1158" transform="matrix(1 0 0 -1 0 842)" d="M205.92 255.6L338.88 255.6L338.88 256.08L205.92 256.08z" stroke="none" fill="#BFBFBF" fill-rule="nonzero" /><path id="1159" transform="matrix(1 0 0 -1 0 842)" d="M338.88 255.6L339.361 255.6L339.361 256.08L338.88 256.08z" stroke="none" fill="#BFBFBF" fill-rule="nonzero" /><path id="1160" transform="matrix(1 0 0 -1 0 842)" d="M339.36 255.6L514.8 255.6L514.8 256.08L339.36 256.08z" stroke="none" fill="#BFBFBF" fill-rule="nonzero" /><path id="1161" transform="matrix(1 0 0 -1 0 842)" d="M514.8 255.6L515.28 255.6L515.28 256.08L514.8 256.08z" stroke="none" fill="#BFBFBF" fill-rule="nonzero" /><path id="1162" transform="matrix(1 0 0 -1 0 842)" d="M117.12 207.6L117.601 207.6L117.601 255.6L117.12 255.6z" stroke="none" fill="#BFBFBF" fill-rule="nonzero" /><path id="1163" transform="matrix(1 0 0 -1 0 842)" d="M205.44 207.6L205.92 207.6L205.92 255.6L205.44 255.6z" stroke="none" fill="#BFBFBF" fill-rule="nonzero" /><path id="1164" transform="matrix(1 0 0 -1 0 842)" d="M338.88 207.6L339.361 207.6L339.361 255.6L338.88 255.6z" stroke="none" fill="#BFBFBF" fill-rule="nonzero" /><path id="1165" transform="matrix(1 0 0 -1 0 842)" d="M514.8 207.6L515.28 207.6L515.28 255.6L514.8 255.6z" stroke="none" fill="#BFBFBF" fill-rule="nonzero" /><path id="1292" transform="matrix(1 0 0 -1 0 842)" d="M117.12 207.12L117.601 207.12L117.601 207.601L117.12 207.601z" stroke="none" fill="#BFBFBF" fill-rule="nonzero" /><path id="1293" transform="matrix(1 0 0 -1 0 842)" d="M117.6 207.12L205.44 207.12L205.44 207.601L117.6 207.601z" stroke="none" fill="#BFBFBF" fill-rule="nonzero" /><path id="1294" transform="matrix(1 0 0 -1 0 842)" d="M205.44 207.12L205.92 207.12L205.92 207.601L205.44 207.601z" stroke="none" fill="#BFBFBF" fill-rule="nonzero" /><path id="1295" transform="matrix(1 0 0 -1 0 842)" d="M205.92 207.12L338.88 207.12L338.88 207.601L205.92 207.601z" stroke="none" fill="#BFBFBF" fill-rule="nonzero" /><path id="1296" transform="matrix(1 0 0 -1 0 842)" d="M338.88 207.12L339.361 207.12L339.361 207.601L338.88 207.601z" stroke="none" fill="#BFBFBF" fill-rule="nonzero" /><path id="1297" transform="matrix(1 0 0 -1 0 842)" d="M339.36 207.12L514.8 207.12L514.8 207.601L339.36 207.601z" stroke="none" fill="#BFBFBF" fill-rule="nonzero" /><path id="1298" transform="matrix(1 0 0 -1 0 842)" d="M514.8 207.12L515.28 207.12L515.28 207.601L514.8 207.601z" stroke="none" fill="#BFBFBF" fill-rule="nonzero" /><path id="1299" transform="matrix(1 0 0 -1 0 842)" d="M117.12 127.32L117.601 127.32L117.601 207.119L117.12 207.119z" stroke="none" fill="#BFBFBF" fill-rule="nonzero" /><path id="1300" transform="matrix(1 0 0 -1 0 842)" d="M117.12 126.84L117.601 126.84L117.601 127.321L117.12 127.321z" stroke="none" fill="#BFBFBF" fill-rule="nonzero" /><path id="1301" transform="matrix(1 0 0 -1 0 842)" d="M117.12 126.84L117.601 126.84L117.601 127.321L117.12 127.321z" stroke="none" fill="#BFBFBF" fill-rule="nonzero" /><path id="1302" transform="matrix(1 0 0 -1 0 842)" d="M117.6 126.84L205.44 126.84L205.44 127.321L117.6 127.321z" stroke="none" fill="#BFBFBF" fill-rule="nonzero" /><path id="1303" transform="matrix(1 0 0 -1 0 842)" d="M205.44 127.32L205.92 127.32L205.92 207.119L205.44 207.119z" stroke="none" fill="#BFBFBF" fill-rule="nonzero" /><path id="1304" transform="matrix(1 0 0 -1 0 842)" d="M205.44 126.84L205.92 126.84L205.92 127.321L205.44 127.321z" stroke="none" fill="#BFBFBF" fill-rule="nonzero" /><path id="1305" transform="matrix(1 0 0 -1 0 842)" d="M205.92 126.84L338.88 126.84L338.88 127.321L205.92 127.321z" stroke="none" fill="#BFBFBF" fill-rule="nonzero" /><path id="1306" transform="matrix(1 0 0 -1 0 842)" d="M338.88 127.32L339.361 127.32L339.361 207.119L338.88 207.119z" stroke="none" fill="#BFBFBF" fill-rule="nonzero" /><path id="1307" transform="matrix(1 0 0 -1 0 842)" d="M338.88 126.84L339.361 126.84L339.361 127.321L338.88 127.321z" stroke="none" fill="#BFBFBF" fill-rule="nonzero" /><path id="1308" transform="matrix(1 0 0 -1 0 842)" d="M339.36 126.84L514.8 126.84L514.8 127.321L339.36 127.321z" stroke="none" fill="#BFBFBF" fill-rule="nonzero" /><path id="1309" transform="matrix(1 0 0 -1 0 842)" d="M514.8 127.32L515.28 127.32L515.28 207.119L514.8 207.119z" stroke="none" fill="#BFBFBF" fill-rule="nonzero" /><path id="1310" transform="matrix(1 0 0 -1 0 842)" d="M514.8 126.84L515.28 126.84L515.28 127.321L514.8 127.321z" stroke="none" fill="#BFBFBF" fill-rule="nonzero" /><path id="1311" transform="matrix(1 0 0 -1 0 842)" d="M514.8 126.84L515.28 126.84L515.28 127.321L514.8 127.321z" stroke="none" fill="#BFBFBF" fill-rule="nonzero" /><g clip-path="url(#12)"></g><g clip-path="url(#13)"></g><g clip-path="url(#14)"></g><g clip-path="url(#15)"></g><g clip-path="url(#16)"></g><g clip-path="url(#17)"></g></g></g></svg>