<svg xmlns="http://www.w3.org/2000/svg" xmlns:xlink="http://www.w3.org/1999/xlink" id="body_2" preserveAspectRatio="xMinYMin meet" viewBox="0 0 793 1123"><defs><clipPath id="1"><path id="" clip-rule="evenodd" transform="matrix(1 0 0 1 0 0)" d="M0 842L0 -0.03997803L0 -0.03997803L595.56 -0.03997803L595.56 -0.03997803L595.56 842L595.56 842L0 842z" /></clipPath><clipPath id="2"><path id="" clip-rule="evenodd" transform="matrix(1 0 0 1 0 0)" d="M529.44 806.48L541.919 806.48L541.919 806.48L541.919 792.32L541.919 792.32L529.44 792.32z" /></clipPath><clipPath id="3"><path id="" clip-rule="evenodd" transform="matrix(1 0 0 1 0 0)" d="M529.44 806.48L541.919 806.48L541.919 806.48L541.919 792.32L541.919 792.32L529.44 792.32z" /></clipPath><clipPath id="4"><path id="" clip-rule="evenodd" transform="matrix(1 0 0 1 0 0)" d="M104.16 610.52L521.521 610.52L521.521 610.52L521.521 38L521.521 38L104.16 38z" /></clipPath><clipPath id="5"><path id="" clip-rule="evenodd" transform="matrix(1 0 0 1 0 0)" d="M104.16 610.52L521.521 610.52L521.521 610.52L521.521 38L521.521 38L104.16 38z" /></clipPath><clipPath id="6"><path id="" clip-rule="evenodd" transform="matrix(1 0 0 1 0 0)" d="M104.16 610.52L521.521 610.52L521.521 610.52L521.521 38L521.521 38L104.16 38z" /></clipPath><clipPath id="7"><path id="" clip-rule="evenodd" transform="matrix(1 0 0 1 0 0)" d="M104.16 610.52L521.521 610.52L521.521 610.52L521.521 38L521.521 38L104.16 38z" /></clipPath><clipPath id="8"><path id="" clip-rule="evenodd" transform="matrix(1 0 0 1 0 0)" d="M104.16 610.52L521.521 610.52L521.521 610.52L521.521 38L521.521 38L104.16 38z" /></clipPath><clipPath id="9"><path id="" clip-rule="evenodd" transform="matrix(1 0 0 1 0 0)" d="M104.16 610.52L521.521 610.52L521.521 610.52L521.521 38L521.521 38L104.16 38z" /></clipPath><clipPath id="10"><path id="" clip-rule="evenodd" transform="matrix(1 0 0 1 0 0)" d="M104.16 610.52L521.521 610.52L521.521 610.52L521.521 38L521.521 38L104.16 38z" /></clipPath><clipPath id="11"><path id="" clip-rule="evenodd" transform="matrix(1 0 0 1 0 0)" d="M104.16 610.52L521.521 610.52L521.521 610.52L521.521 38L521.521 38L104.16 38z" /></clipPath><clipPath id="12"><path id="" clip-rule="evenodd" transform="matrix(1 0 0 1 0 0)" d="M104.16 610.52L521.521 610.52L521.521 610.52L521.521 38L521.521 38L104.16 38z" /></clipPath><clipPath id="13"><path id="" clip-rule="evenodd" transform="matrix(1 0 0 1 0 0)" d="M104.16 610.52L521.521 610.52L521.521 610.52L521.521 38L521.521 38L104.16 38z" /></clipPath><clipPath id="14"><path id="" clip-rule="evenodd" transform="matrix(1 0 0 1 0 0)" d="M104.16 610.52L521.521 610.52L521.521 610.52L521.521 38L521.521 38L104.16 38z" /></clipPath><clipPath id="15"><path id="" clip-rule="evenodd" transform="matrix(1 0 0 1 0 0)" d="M104.16 610.52L521.521 610.52L521.521 610.52L521.521 38L521.521 38L104.16 38z" /></clipPath><clipPath id="16"><path id="" clip-rule="evenodd" transform="matrix(1 0 0 1 0 0)" d="M104.16 610.52L521.521 610.52L521.521 610.52L521.521 38L521.521 38L104.16 38z" /></clipPath><clipPath id="17"><path id="" clip-rule="evenodd" transform="matrix(1 0 0 1 0 0)" d="M104.16 610.52L521.521 610.52L521.521 610.52L521.521 38L521.521 38L104.16 38z" /></clipPath><clipPath id="18"><path id="" clip-rule="evenodd" transform="matrix(1 0 0 1 0 0)" d="M104.16 610.52L521.521 610.52L521.521 610.52L521.521 38L521.521 38L104.16 38z" /></clipPath><clipPath id="19"><path id="" clip-rule="evenodd" transform="matrix(1 0 0 1 0 0)" d="M104.16 610.52L521.521 610.52L521.521 610.52L521.521 38L521.521 38L104.16 38z" /></clipPath><clipPath id="20"><path id="" clip-rule="evenodd" transform="matrix(1 0 0 1 0 0)" d="M104.16 610.52L521.521 610.52L521.521 610.52L521.521 38L521.521 38L104.16 38z" /></clipPath><clipPath id="21"><path id="" clip-rule="evenodd" transform="matrix(1 0 0 1 0 0)" d="M104.16 770.24L521.521 770.24L521.521 770.24L521.521 610.52L521.521 610.52L104.16 610.52z" /></clipPath><clipPath id="22"><path id="" clip-rule="evenodd" transform="matrix(1 0 0 1 0 0)" d="M104.16 770.24L521.521 770.24L521.521 770.24L521.521 610.52L521.521 610.52L104.16 610.52z" /></clipPath><clipPath id="23"><path id="" clip-rule="evenodd" transform="matrix(1 0 0 1 0 0)" d="M104.16 770.24L521.521 770.24L521.521 770.24L521.521 610.52L521.521 610.52L104.16 610.52z" /></clipPath><clipPath id="24"><path id="" clip-rule="evenodd" transform="matrix(1 0 0 1 0 0)" d="M104.16 770.24L521.521 770.24L521.521 770.24L521.521 610.52L521.521 610.52L104.16 610.52z" /></clipPath><clipPath id="25"><path id="" clip-rule="evenodd" transform="matrix(1 0 0 1 0 0)" d="M104.16 770.24L521.521 770.24L521.521 770.24L521.521 610.52L521.521 610.52L104.16 610.52z" /></clipPath><clipPath id="26"><path id="" clip-rule="evenodd" transform="matrix(1 0 0 1 0 0)" d="M104.16 770.24L521.521 770.24L521.521 770.24L521.521 610.52L521.521 610.52L104.16 610.52z" /></clipPath><clipPath id="27"><path id="" clip-rule="evenodd" transform="matrix(1 0 0 1 0 0)" d="M104.16 770.24L521.521 770.24L521.521 770.24L521.521 610.52L521.521 610.52L104.16 610.52z" /></clipPath></defs><g transform="matrix(1.333333 0 0 1.333333 0 0)"><g clip-path="url(#1)"><g clip-path="url(#2)"></g><g clip-path="url(#3)"></g><g clip-path="url(#4)"></g><g clip-path="url(#5)"></g><g clip-path="url(#6)"></g><g clip-path="url(#7)"></g><g clip-path="url(#8)"></g><g clip-path="url(#9)"></g><g clip-path="url(#10)"></g><g clip-path="url(#11)"></g><g clip-path="url(#12)"></g><g clip-path="url(#13)"></g><g clip-path="url(#14)"></g><g clip-path="url(#15)"></g><g clip-path="url(#16)"></g><g clip-path="url(#17)"></g><g clip-path="url(#18)"></g><g clip-path="url(#19)"></g><path id="848" transform="matrix(1 0 0 -1 0 842)" d="M104.16 556.08L104.641 556.08L104.641 556.56L104.16 556.56z" stroke="none" fill="#BFBFBF" fill-rule="nonzero" /><path id="849" transform="matrix(1 0 0 -1 0 842)" d="M104.16 556.08L104.641 556.08L104.641 556.56L104.16 556.56z" stroke="none" fill="#BFBFBF" fill-rule="nonzero" /><path id="850" transform="matrix(1 0 0 -1 0 842)" d="M104.64 556.08L250.92 556.08L250.92 556.56L104.64 556.56z" stroke="none" fill="#BFBFBF" fill-rule="nonzero" /><path id="851" transform="matrix(1 0 0 -1 0 842)" d="M250.92 556.08L251.4 556.08L251.4 556.56L250.92 556.56z" stroke="none" fill="#BFBFBF" fill-rule="nonzero" /><path id="852" transform="matrix(1 0 0 -1 0 842)" d="M251.4 556.08L357.24 556.08L357.24 556.56L251.4 556.56z" stroke="none" fill="#BFBFBF" fill-rule="nonzero" /><path id="853" transform="matrix(1 0 0 -1 0 842)" d="M357.24 556.08L357.721 556.08L357.721 556.56L357.24 556.56z" stroke="none" fill="#BFBFBF" fill-rule="nonzero" /><path id="854" transform="matrix(1 0 0 -1 0 842)" d="M357.72 556.08L520.92 556.08L520.92 556.56L357.72 556.56z" stroke="none" fill="#BFBFBF" fill-rule="nonzero" /><path id="855" transform="matrix(1 0 0 -1 0 842)" d="M520.92 556.08L521.4 556.08L521.4 556.56L520.92 556.56z" stroke="none" fill="#BFBFBF" fill-rule="nonzero" /><path id="856" transform="matrix(1 0 0 -1 0 842)" d="M520.92 556.08L521.4 556.08L521.4 556.56L520.92 556.56z" stroke="none" fill="#BFBFBF" fill-rule="nonzero" /><path id="857" transform="matrix(1 0 0 -1 0 842)" d="M104.16 524.16L104.641 524.16L104.641 556.08L104.16 556.08z" stroke="none" fill="#BFBFBF" fill-rule="nonzero" /><path id="858" transform="matrix(1 0 0 -1 0 842)" d="M250.92 524.16L251.4 524.16L251.4 556.08L250.92 556.08z" stroke="none" fill="#BFBFBF" fill-rule="nonzero" /><path id="859" transform="matrix(1 0 0 -1 0 842)" d="M357.24 524.16L357.721 524.16L357.721 556.08L357.24 556.08z" stroke="none" fill="#BFBFBF" fill-rule="nonzero" /><path id="860" transform="matrix(1 0 0 -1 0 842)" d="M520.92 524.16L521.4 524.16L521.4 556.08L520.92 556.08z" stroke="none" fill="#BFBFBF" fill-rule="nonzero" /><path id="894" transform="matrix(1 0 0 -1 0 842)" d="M104.16 523.68L104.641 523.68L104.641 524.16L104.16 524.16z" stroke="none" fill="#BFBFBF" fill-rule="nonzero" /><path id="895" transform="matrix(1 0 0 -1 0 842)" d="M104.64 523.68L250.92 523.68L250.92 524.16L104.64 524.16z" stroke="none" fill="#BFBFBF" fill-rule="nonzero" /><path id="896" transform="matrix(1 0 0 -1 0 842)" d="M250.92 523.68L251.4 523.68L251.4 524.16L250.92 524.16z" stroke="none" fill="#BFBFBF" fill-rule="nonzero" /><path id="897" transform="matrix(1 0 0 -1 0 842)" d="M251.4 523.68L357.24 523.68L357.24 524.16L251.4 524.16z" stroke="none" fill="#BFBFBF" fill-rule="nonzero" /><path id="898" transform="matrix(1 0 0 -1 0 842)" d="M357.24 523.68L357.721 523.68L357.721 524.16L357.24 524.16z" stroke="none" fill="#BFBFBF" fill-rule="nonzero" /><path id="899" transform="matrix(1 0 0 -1 0 842)" d="M357.72 523.68L520.92 523.68L520.92 524.16L357.72 524.16z" stroke="none" fill="#BFBFBF" fill-rule="nonzero" /><path id="900" transform="matrix(1 0 0 -1 0 842)" d="M520.92 523.68L521.4 523.68L521.4 524.16L520.92 524.16z" stroke="none" fill="#BFBFBF" fill-rule="nonzero" /><path id="901" transform="matrix(1 0 0 -1 0 842)" d="M104.16 491.64L104.641 491.64L104.641 523.68L104.16 523.68z" stroke="none" fill="#BFBFBF" fill-rule="nonzero" /><path id="902" transform="matrix(1 0 0 -1 0 842)" d="M250.92 491.64L251.4 491.64L251.4 523.68L250.92 523.68z" stroke="none" fill="#BFBFBF" fill-rule="nonzero" /><path id="903" transform="matrix(1 0 0 -1 0 842)" d="M357.24 491.64L357.721 491.64L357.721 523.68L357.24 523.68z" stroke="none" fill="#BFBFBF" fill-rule="nonzero" /><path id="904" transform="matrix(1 0 0 -1 0 842)" d="M520.92 491.64L521.4 491.64L521.4 523.68L520.92 523.68z" stroke="none" fill="#BFBFBF" fill-rule="nonzero" /><path id="935" transform="matrix(1 0 0 -1 0 842)" d="M104.16 491.16L104.641 491.16L104.641 491.641L104.16 491.641z" stroke="none" fill="#BFBFBF" fill-rule="nonzero" /><path id="936" transform="matrix(1 0 0 -1 0 842)" d="M104.64 491.16L250.92 491.16L250.92 491.641L104.64 491.641z" stroke="none" fill="#BFBFBF" fill-rule="nonzero" /><path id="937" transform="matrix(1 0 0 -1 0 842)" d="M250.92 491.16L251.4 491.16L251.4 491.641L250.92 491.641z" stroke="none" fill="#BFBFBF" fill-rule="nonzero" /><path id="938" transform="matrix(1 0 0 -1 0 842)" d="M251.4 491.16L357.24 491.16L357.24 491.641L251.4 491.641z" stroke="none" fill="#BFBFBF" fill-rule="nonzero" /><path id="939" transform="matrix(1 0 0 -1 0 842)" d="M357.24 491.16L357.721 491.16L357.721 491.641L357.24 491.641z" stroke="none" fill="#BFBFBF" fill-rule="nonzero" /><path id="940" transform="matrix(1 0 0 -1 0 842)" d="M357.72 491.16L520.92 491.16L520.92 491.641L357.72 491.641z" stroke="none" fill="#BFBFBF" fill-rule="nonzero" /><path id="941" transform="matrix(1 0 0 -1 0 842)" d="M520.92 491.16L521.4 491.16L521.4 491.641L520.92 491.641z" stroke="none" fill="#BFBFBF" fill-rule="nonzero" /><path id="942" transform="matrix(1 0 0 -1 0 842)" d="M104.16 459.24L104.641 459.24L104.641 491.159L104.16 491.159z" stroke="none" fill="#BFBFBF" fill-rule="nonzero" /><path id="943" transform="matrix(1 0 0 -1 0 842)" d="M250.92 459.24L251.4 459.24L251.4 491.159L250.92 491.159z" stroke="none" fill="#BFBFBF" fill-rule="nonzero" /><path id="944" transform="matrix(1 0 0 -1 0 842)" d="M357.24 459.24L357.721 459.24L357.721 491.159L357.24 491.159z" stroke="none" fill="#BFBFBF" fill-rule="nonzero" /><path id="945" transform="matrix(1 0 0 -1 0 842)" d="M520.92 459.24L521.4 459.24L521.4 491.159L520.92 491.159z" stroke="none" fill="#BFBFBF" fill-rule="nonzero" /><path id="980" transform="matrix(1 0 0 -1 0 842)" d="M104.16 458.76L104.641 458.76L104.641 459.241L104.16 459.241z" stroke="none" fill="#BFBFBF" fill-rule="nonzero" /><path id="981" transform="matrix(1 0 0 -1 0 842)" d="M104.64 458.76L250.92 458.76L250.92 459.241L104.64 459.241z" stroke="none" fill="#BFBFBF" fill-rule="nonzero" /><path id="982" transform="matrix(1 0 0 -1 0 842)" d="M250.92 458.76L251.4 458.76L251.4 459.241L250.92 459.241z" stroke="none" fill="#BFBFBF" fill-rule="nonzero" /><path id="983" transform="matrix(1 0 0 -1 0 842)" d="M251.4 458.76L357.24 458.76L357.24 459.241L251.4 459.241z" stroke="none" fill="#BFBFBF" fill-rule="nonzero" /><path id="984" transform="matrix(1 0 0 -1 0 842)" d="M357.24 458.76L357.721 458.76L357.721 459.241L357.24 459.241z" stroke="none" fill="#BFBFBF" fill-rule="nonzero" /><path id="985" transform="matrix(1 0 0 -1 0 842)" d="M357.72 458.76L520.92 458.76L520.92 459.241L357.72 459.241z" stroke="none" fill="#BFBFBF" fill-rule="nonzero" /><path id="986" transform="matrix(1 0 0 -1 0 842)" d="M520.92 458.76L521.4 458.76L521.4 459.241L520.92 459.241z" stroke="none" fill="#BFBFBF" fill-rule="nonzero" /><path id="987" transform="matrix(1 0 0 -1 0 842)" d="M104.16 426.72L104.641 426.72L104.641 458.76L104.16 458.76z" stroke="none" fill="#BFBFBF" fill-rule="nonzero" /><path id="988" transform="matrix(1 0 0 -1 0 842)" d="M250.92 426.72L251.4 426.72L251.4 458.76L250.92 458.76z" stroke="none" fill="#BFBFBF" fill-rule="nonzero" /><path id="989" transform="matrix(1 0 0 -1 0 842)" d="M357.24 426.72L357.721 426.72L357.721 458.76L357.24 458.76z" stroke="none" fill="#BFBFBF" fill-rule="nonzero" /><path id="990" transform="matrix(1 0 0 -1 0 842)" d="M520.92 426.72L521.4 426.72L521.4 458.76L520.92 458.76z" stroke="none" fill="#BFBFBF" fill-rule="nonzero" /><path id="1013" transform="matrix(1 0 0 -1 0 842)" d="M104.16 426.24L104.641 426.24L104.641 426.72L104.16 426.72z" stroke="none" fill="#BFBFBF" fill-rule="nonzero" /><path id="1014" transform="matrix(1 0 0 -1 0 842)" d="M104.64 426.24L250.92 426.24L250.92 426.72L104.64 426.72z" stroke="none" fill="#BFBFBF" fill-rule="nonzero" /><path id="1015" transform="matrix(1 0 0 -1 0 842)" d="M250.92 426.24L251.4 426.24L251.4 426.72L250.92 426.72z" stroke="none" fill="#BFBFBF" fill-rule="nonzero" /><path id="1016" transform="matrix(1 0 0 -1 0 842)" d="M251.4 426.24L357.24 426.24L357.24 426.72L251.4 426.72z" stroke="none" fill="#BFBFBF" fill-rule="nonzero" /><path id="1017" transform="matrix(1 0 0 -1 0 842)" d="M357.24 426.24L357.721 426.24L357.721 426.72L357.24 426.72z" stroke="none" fill="#BFBFBF" fill-rule="nonzero" /><path id="1018" transform="matrix(1 0 0 -1 0 842)" d="M357.72 426.24L520.92 426.24L520.92 426.72L357.72 426.72z" stroke="none" fill="#BFBFBF" fill-rule="nonzero" /><path id="1019" transform="matrix(1 0 0 -1 0 842)" d="M520.92 426.24L521.4 426.24L521.4 426.72L520.92 426.72z" stroke="none" fill="#BFBFBF" fill-rule="nonzero" /><path id="1020" transform="matrix(1 0 0 -1 0 842)" d="M104.16 394.32L104.641 394.32L104.641 426.24L104.16 426.24z" stroke="none" fill="#BFBFBF" fill-rule="nonzero" /><path id="1021" transform="matrix(1 0 0 -1 0 842)" d="M250.92 394.32L251.4 394.32L251.4 426.24L250.92 426.24z" stroke="none" fill="#BFBFBF" fill-rule="nonzero" /><path id="1022" transform="matrix(1 0 0 -1 0 842)" d="M357.24 394.32L357.721 394.32L357.721 426.24L357.24 426.24z" stroke="none" fill="#BFBFBF" fill-rule="nonzero" /><path id="1023" transform="matrix(1 0 0 -1 0 842)" d="M520.92 394.32L521.4 394.32L521.4 426.24L520.92 426.24z" stroke="none" fill="#BFBFBF" fill-rule="nonzero" /><path id="1051" transform="matrix(1 0 0 -1 0 842)" d="M104.16 393.84L104.641 393.84L104.641 394.32L104.16 394.32z" stroke="none" fill="#BFBFBF" fill-rule="nonzero" /><path id="1052" transform="matrix(1 0 0 -1 0 842)" d="M104.64 393.84L250.92 393.84L250.92 394.32L104.64 394.32z" stroke="none" fill="#BFBFBF" fill-rule="nonzero" /><path id="1053" transform="matrix(1 0 0 -1 0 842)" d="M250.92 393.84L251.4 393.84L251.4 394.32L250.92 394.32z" stroke="none" fill="#BFBFBF" fill-rule="nonzero" /><path id="1054" transform="matrix(1 0 0 -1 0 842)" d="M251.4 393.84L357.24 393.84L357.24 394.32L251.4 394.32z" stroke="none" fill="#BFBFBF" fill-rule="nonzero" /><path id="1055" transform="matrix(1 0 0 -1 0 842)" d="M357.24 393.84L357.721 393.84L357.721 394.32L357.24 394.32z" stroke="none" fill="#BFBFBF" fill-rule="nonzero" /><path id="1056" transform="matrix(1 0 0 -1 0 842)" d="M357.72 393.84L520.92 393.84L520.92 394.32L357.72 394.32z" stroke="none" fill="#BFBFBF" fill-rule="nonzero" /><path id="1057" transform="matrix(1 0 0 -1 0 842)" d="M520.92 393.84L521.4 393.84L521.4 394.32L520.92 394.32z" stroke="none" fill="#BFBFBF" fill-rule="nonzero" /><path id="1058" transform="matrix(1 0 0 -1 0 842)" d="M104.16 361.8L104.641 361.8L104.641 393.84L104.16 393.84z" stroke="none" fill="#BFBFBF" fill-rule="nonzero" /><path id="1059" transform="matrix(1 0 0 -1 0 842)" d="M250.92 361.8L251.4 361.8L251.4 393.84L250.92 393.84z" stroke="none" fill="#BFBFBF" fill-rule="nonzero" /><path id="1060" transform="matrix(1 0 0 -1 0 842)" d="M357.24 361.8L357.721 361.8L357.721 393.84L357.24 393.84z" stroke="none" fill="#BFBFBF" fill-rule="nonzero" /><path id="1061" transform="matrix(1 0 0 -1 0 842)" d="M520.92 361.8L521.4 361.8L521.4 393.84L520.92 393.84z" stroke="none" fill="#BFBFBF" fill-rule="nonzero" /><path id="1087" transform="matrix(1 0 0 -1 0 842)" d="M104.16 361.32L104.641 361.32L104.641 361.8L104.16 361.8z" stroke="none" fill="#BFBFBF" fill-rule="nonzero" /><path id="1088" transform="matrix(1 0 0 -1 0 842)" d="M104.64 361.32L250.92 361.32L250.92 361.8L104.64 361.8z" stroke="none" fill="#BFBFBF" fill-rule="nonzero" /><path id="1089" transform="matrix(1 0 0 -1 0 842)" d="M250.92 361.32L251.4 361.32L251.4 361.8L250.92 361.8z" stroke="none" fill="#BFBFBF" fill-rule="nonzero" /><path id="1090" transform="matrix(1 0 0 -1 0 842)" d="M251.4 361.32L357.24 361.32L357.24 361.8L251.4 361.8z" stroke="none" fill="#BFBFBF" fill-rule="nonzero" /><path id="1091" transform="matrix(1 0 0 -1 0 842)" d="M357.24 361.32L357.721 361.32L357.721 361.8L357.24 361.8z" stroke="none" fill="#BFBFBF" fill-rule="nonzero" /><path id="1092" transform="matrix(1 0 0 -1 0 842)" d="M357.72 361.32L520.92 361.32L520.92 361.8L357.72 361.8z" stroke="none" fill="#BFBFBF" fill-rule="nonzero" /><path id="1093" transform="matrix(1 0 0 -1 0 842)" d="M520.92 361.32L521.4 361.32L521.4 361.8L520.92 361.8z" stroke="none" fill="#BFBFBF" fill-rule="nonzero" /><path id="1094" transform="matrix(1 0 0 -1 0 842)" d="M104.16 329.4L104.641 329.4L104.641 361.32L104.16 361.32z" stroke="none" fill="#BFBFBF" fill-rule="nonzero" /><path id="1095" transform="matrix(1 0 0 -1 0 842)" d="M250.92 329.4L251.4 329.4L251.4 361.32L250.92 361.32z" stroke="none" fill="#BFBFBF" fill-rule="nonzero" /><path id="1096" transform="matrix(1 0 0 -1 0 842)" d="M357.24 329.4L357.721 329.4L357.721 361.32L357.24 361.32z" stroke="none" fill="#BFBFBF" fill-rule="nonzero" /><path id="1097" transform="matrix(1 0 0 -1 0 842)" d="M520.92 329.4L521.4 329.4L521.4 361.32L520.92 361.32z" stroke="none" fill="#BFBFBF" fill-rule="nonzero" /><path id="1137" transform="matrix(1 0 0 -1 0 842)" d="M104.16 328.92L104.641 328.92L104.641 329.4L104.16 329.4z" stroke="none" fill="#BFBFBF" fill-rule="nonzero" /><path id="1138" transform="matrix(1 0 0 -1 0 842)" d="M104.64 328.92L250.92 328.92L250.92 329.4L104.64 329.4z" stroke="none" fill="#BFBFBF" fill-rule="nonzero" /><path id="1139" transform="matrix(1 0 0 -1 0 842)" d="M250.92 328.92L251.4 328.92L251.4 329.4L250.92 329.4z" stroke="none" fill="#BFBFBF" fill-rule="nonzero" /><path id="1140" transform="matrix(1 0 0 -1 0 842)" d="M251.4 328.92L357.24 328.92L357.24 329.4L251.4 329.4z" stroke="none" fill="#BFBFBF" fill-rule="nonzero" /><path id="1141" transform="matrix(1 0 0 -1 0 842)" d="M357.24 328.92L357.721 328.92L357.721 329.4L357.24 329.4z" stroke="none" fill="#BFBFBF" fill-rule="nonzero" /><path id="1142" transform="matrix(1 0 0 -1 0 842)" d="M357.72 328.92L520.92 328.92L520.92 329.4L357.72 329.4z" stroke="none" fill="#BFBFBF" fill-rule="nonzero" /><path id="1143" transform="matrix(1 0 0 -1 0 842)" d="M520.92 328.92L521.4 328.92L521.4 329.4L520.92 329.4z" stroke="none" fill="#BFBFBF" fill-rule="nonzero" /><path id="1144" transform="matrix(1 0 0 -1 0 842)" d="M104.16 296.88L104.641 296.88L104.641 328.92L104.16 328.92z" stroke="none" fill="#BFBFBF" fill-rule="nonzero" /><path id="1145" transform="matrix(1 0 0 -1 0 842)" d="M250.92 296.88L251.4 296.88L251.4 328.92L250.92 328.92z" stroke="none" fill="#BFBFBF" fill-rule="nonzero" /><path id="1146" transform="matrix(1 0 0 -1 0 842)" d="M357.24 296.88L357.721 296.88L357.721 328.92L357.24 328.92z" stroke="none" fill="#BFBFBF" fill-rule="nonzero" /><path id="1147" transform="matrix(1 0 0 -1 0 842)" d="M520.92 296.88L521.4 296.88L521.4 328.92L520.92 328.92z" stroke="none" fill="#BFBFBF" fill-rule="nonzero" /><path id="1178" transform="matrix(1 0 0 -1 0 842)" d="M104.16 296.4L104.641 296.4L104.641 296.881L104.16 296.881z" stroke="none" fill="#BFBFBF" fill-rule="nonzero" /><path id="1179" transform="matrix(1 0 0 -1 0 842)" d="M104.64 296.4L250.92 296.4L250.92 296.881L104.64 296.881z" stroke="none" fill="#BFBFBF" fill-rule="nonzero" /><path id="1180" transform="matrix(1 0 0 -1 0 842)" d="M250.92 296.4L251.4 296.4L251.4 296.881L250.92 296.881z" stroke="none" fill="#BFBFBF" fill-rule="nonzero" /><path id="1181" transform="matrix(1 0 0 -1 0 842)" d="M251.4 296.4L357.24 296.4L357.24 296.881L251.4 296.881z" stroke="none" fill="#BFBFBF" fill-rule="nonzero" /><path id="1182" transform="matrix(1 0 0 -1 0 842)" d="M357.24 296.4L357.721 296.4L357.721 296.881L357.24 296.881z" stroke="none" fill="#BFBFBF" fill-rule="nonzero" /><path id="1183" transform="matrix(1 0 0 -1 0 842)" d="M357.72 296.4L520.92 296.4L520.92 296.881L357.72 296.881z" stroke="none" fill="#BFBFBF" fill-rule="nonzero" /><path id="1184" transform="matrix(1 0 0 -1 0 842)" d="M520.92 296.4L521.4 296.4L521.4 296.881L520.92 296.881z" stroke="none" fill="#BFBFBF" fill-rule="nonzero" /><path id="1185" transform="matrix(1 0 0 -1 0 842)" d="M104.16 264.48L104.641 264.48L104.641 296.399L104.16 296.399z" stroke="none" fill="#BFBFBF" fill-rule="nonzero" /><path id="1186" transform="matrix(1 0 0 -1 0 842)" d="M250.92 264.48L251.4 264.48L251.4 296.399L250.92 296.399z" stroke="none" fill="#BFBFBF" fill-rule="nonzero" /><path id="1187" transform="matrix(1 0 0 -1 0 842)" d="M357.24 264.48L357.721 264.48L357.721 296.399L357.24 296.399z" stroke="none" fill="#BFBFBF" fill-rule="nonzero" /><path id="1188" transform="matrix(1 0 0 -1 0 842)" d="M520.92 264.48L521.4 264.48L521.4 296.399L520.92 296.399z" stroke="none" fill="#BFBFBF" fill-rule="nonzero" /><path id="1220" transform="matrix(1 0 0 -1 0 842)" d="M104.16 264L104.641 264L104.641 264.481L104.16 264.481z" stroke="none" fill="#BFBFBF" fill-rule="nonzero" /><path id="1221" transform="matrix(1 0 0 -1 0 842)" d="M104.64 264L250.92 264L250.92 264.481L104.64 264.481z" stroke="none" fill="#BFBFBF" fill-rule="nonzero" /><path id="1222" transform="matrix(1 0 0 -1 0 842)" d="M250.92 264L251.4 264L251.4 264.481L250.92 264.481z" stroke="none" fill="#BFBFBF" fill-rule="nonzero" /><path id="1223" transform="matrix(1 0 0 -1 0 842)" d="M251.4 264L357.24 264L357.24 264.481L251.4 264.481z" stroke="none" fill="#BFBFBF" fill-rule="nonzero" /><path id="1224" transform="matrix(1 0 0 -1 0 842)" d="M357.24 264L357.721 264L357.721 264.481L357.24 264.481z" stroke="none" fill="#BFBFBF" fill-rule="nonzero" /><path id="1225" transform="matrix(1 0 0 -1 0 842)" d="M357.72 264L520.92 264L520.92 264.481L357.72 264.481z" stroke="none" fill="#BFBFBF" fill-rule="nonzero" /><path id="1226" transform="matrix(1 0 0 -1 0 842)" d="M520.92 264L521.4 264L521.4 264.481L520.92 264.481z" stroke="none" fill="#BFBFBF" fill-rule="nonzero" /><path id="1227" transform="matrix(1 0 0 -1 0 842)" d="M104.16 231.96L104.641 231.96L104.641 264L104.16 264z" stroke="none" fill="#BFBFBF" fill-rule="nonzero" /><path id="1228" transform="matrix(1 0 0 -1 0 842)" d="M104.16 231.48L104.641 231.48L104.641 231.96L104.16 231.96z" stroke="none" fill="#BFBFBF" fill-rule="nonzero" /><path id="1229" transform="matrix(1 0 0 -1 0 842)" d="M104.16 231.48L104.641 231.48L104.641 231.96L104.16 231.96z" stroke="none" fill="#BFBFBF" fill-rule="nonzero" /><path id="1230" transform="matrix(1 0 0 -1 0 842)" d="M104.64 231.48L250.92 231.48L250.92 231.96L104.64 231.96z" stroke="none" fill="#BFBFBF" fill-rule="nonzero" /><path id="1231" transform="matrix(1 0 0 -1 0 842)" d="M250.92 231.96L251.4 231.96L251.4 264L250.92 264z" stroke="none" fill="#BFBFBF" fill-rule="nonzero" /><path id="1232" transform="matrix(1 0 0 -1 0 842)" d="M250.92 231.48L251.4 231.48L251.4 231.96L250.92 231.96z" stroke="none" fill="#BFBFBF" fill-rule="nonzero" /><path id="1233" transform="matrix(1 0 0 -1 0 842)" d="M251.4 231.48L357.24 231.48L357.24 231.96L251.4 231.96z" stroke="none" fill="#BFBFBF" fill-rule="nonzero" /><path id="1234" transform="matrix(1 0 0 -1 0 842)" d="M357.24 231.96L357.721 231.96L357.721 264L357.24 264z" stroke="none" fill="#BFBFBF" fill-rule="nonzero" /><path id="1235" transform="matrix(1 0 0 -1 0 842)" d="M357.24 231.48L357.721 231.48L357.721 231.96L357.24 231.96z" stroke="none" fill="#BFBFBF" fill-rule="nonzero" /><path id="1236" transform="matrix(1 0 0 -1 0 842)" d="M357.72 231.48L520.92 231.48L520.92 231.96L357.72 231.96z" stroke="none" fill="#BFBFBF" fill-rule="nonzero" /><path id="1237" transform="matrix(1 0 0 -1 0 842)" d="M520.92 231.96L521.4 231.96L521.4 264L520.92 264z" stroke="none" fill="#BFBFBF" fill-rule="nonzero" /><path id="1238" transform="matrix(1 0 0 -1 0 842)" d="M520.92 231.48L521.4 231.48L521.4 231.96L520.92 231.96z" stroke="none" fill="#BFBFBF" fill-rule="nonzero" /><path id="1239" transform="matrix(1 0 0 -1 0 842)" d="M520.92 231.48L521.4 231.48L521.4 231.96L520.92 231.96z" stroke="none" fill="#BFBFBF" fill-rule="nonzero" /><g clip-path="url(#20)"></g><g clip-path="url(#21)"></g><g clip-path="url(#22)"></g><g clip-path="url(#23)"></g><g clip-path="url(#24)"></g><g clip-path="url(#25)"></g><g clip-path="url(#26)"></g><g clip-path="url(#27)"></g></g></g></svg>