<svg xmlns="http://www.w3.org/2000/svg" xmlns:xlink="http://www.w3.org/1999/xlink" id="body_7" preserveAspectRatio="xMinYMin meet" viewBox="0 0 793 1123"><defs><clipPath id="1"><path id="" clip-rule="evenodd" transform="matrix(1 0 0 1 0 0)" d="M0 842L0 -0.03997803L0 -0.03997803L595.56 -0.03997803L595.56 -0.03997803L595.56 842L595.56 842L0 842z" /></clipPath><clipPath id="2"><path id="" clip-rule="evenodd" transform="matrix(1 0 0 1 0 0)" d="M529.44 806.48L541.919 806.48L541.919 806.48L541.919 792.32L541.919 792.32L529.44 792.32z" /></clipPath><clipPath id="3"><path id="" clip-rule="evenodd" transform="matrix(1 0 0 1 0 0)" d="M529.44 806.48L541.919 806.48L541.919 806.48L541.919 792.32L541.919 792.32L529.44 792.32z" /></clipPath><clipPath id="4"><path id="" clip-rule="evenodd" transform="matrix(1 0 0 1 0 0)" d="M103.44 77.23999L270.961 77.23999L270.961 77.23999L270.961 41.479L270.961 41.479L103.44 41.479z" /></clipPath><clipPath id="5"><path id="" clip-rule="evenodd" transform="matrix(1 0 0 1 0 0)" d="M103.44 77.23999L270.961 77.23999L270.961 77.23999L270.961 41.479L270.961 41.479L103.44 41.479z" /></clipPath><clipPath id="6"><path id="" clip-rule="evenodd" transform="matrix(1 0 0 1 0 0)" d="M271.56 77.23999L477.961 77.23999L477.961 77.23999L477.961 41.479L477.961 41.479L271.56 41.479z" /></clipPath><clipPath id="7"><path id="" clip-rule="evenodd" transform="matrix(1 0 0 1 0 0)" d="M271.56 77.23999L477.961 77.23999L477.961 77.23999L477.961 41.479L477.961 41.479L271.56 41.479z" /></clipPath><clipPath id="8"><path id="" clip-rule="evenodd" transform="matrix(1 0 0 1 0 0)" d="M102.84 158.72L538.679 158.72L538.679 158.72L538.679 41L538.679 41L102.84 41z" /></clipPath><clipPath id="9"><path id="" clip-rule="evenodd" transform="matrix(1 0 0 1 0 0)" d="M78 190.76L102.96 190.76L102.96 190.76L102.96 158.72L102.96 158.72L78 158.72z" /></clipPath><clipPath id="10"><path id="" clip-rule="evenodd" transform="matrix(1 0 0 1 0 0)" d="M538.68 190.76L558.48 190.76L558.48 190.76L558.48 158.72L558.48 158.72L538.68 158.72z" /></clipPath><clipPath id="11"><path id="" clip-rule="evenodd" transform="matrix(1 0 0 1 0 0)" d="M102.84 557.96L538.679 557.96L538.679 557.96L538.679 190.76L538.679 190.76L102.84 190.76z" /></clipPath><clipPath id="12"><path id="" clip-rule="evenodd" transform="matrix(1 0 0 1 0 0)" d="M538.68 557.96L558.48 557.96L558.48 557.96L558.48 190.76L558.48 190.76L538.68 190.76z" /></clipPath><clipPath id="13"><path id="" clip-rule="evenodd" transform="matrix(1 0 0 1 0 0)" d="M57 782.12L78.001 782.12L78.001 782.12L78.001 557.96L78.001 557.96L57 557.96z" /></clipPath><clipPath id="14"><path id="" clip-rule="evenodd" transform="matrix(1 0 0 1 0 0)" d="M57 782.12L78.001 782.12L78.001 782.12L78.001 557.96L78.001 557.96L57 557.96z" /></clipPath><clipPath id="15"><path id="" clip-rule="evenodd" transform="matrix(1 0 0 1 0 0)" d="M102.84 782.12L538.679 782.12L538.679 782.12L538.679 557.96L538.679 557.96L102.84 557.96z" /></clipPath><clipPath id="16"><path id="" clip-rule="evenodd" transform="matrix(1 0 0 1 0 0)" d="M102.84 782.12L538.679 782.12L538.679 782.12L538.679 557.96L538.679 557.96L102.84 557.96z" /></clipPath><clipPath id="17"><path id="" clip-rule="evenodd" transform="matrix(1 0 0 1 0 0)" d="M102.84 782.12L538.679 782.12L538.679 782.12L538.679 557.96L538.679 557.96L102.84 557.96z" /></clipPath><clipPath id="18"><path id="" clip-rule="evenodd" transform="matrix(1 0 0 1 0 0)" d="M538.68 782.12L558.48 782.12L558.48 782.12L558.48 557.96L558.48 557.96L538.68 557.96z" /></clipPath></defs><g transform="matrix(1.333333 0 0 1.333333 0 0)"><g clip-path="url(#1)"><g clip-path="url(#2)"></g><g clip-path="url(#3)"></g><path id="3" transform="matrix(1 0 0 -1 0 842)" d="M103.44 764.76L270.96 764.76L270.96 764.76L270.96 800.52L270.96 800.52L103.44 800.52z" stroke="none" fill="#DBE5F1" fill-rule="evenodd" /><path id="4" transform="matrix(1 0 0 -1 0 842)" d="M108.6 779.64L265.799 779.64L265.799 800.52L108.6 800.52z" stroke="none" fill="#DBE5F1" fill-rule="nonzero" /><g clip-path="url(#4)"></g><g clip-path="url(#5)"></g><path id="29" transform="matrix(1 0 0 -1 0 842)" d="M271.56 764.76L477.96 764.76L477.96 764.76L477.96 800.52L477.96 800.52L271.56 800.52z" stroke="none" fill="#DBE5F1" fill-rule="evenodd" /><path id="30" transform="matrix(1 0 0 -1 0 842)" d="M276.6 779.64L472.8 779.64L472.8 800.52L276.6 800.52z" stroke="none" fill="#DBE5F1" fill-rule="nonzero" /><g clip-path="url(#6)"></g><g clip-path="url(#7)"></g><path id="51" transform="matrix(1 0 0 -1 0 842)" d="M102.84 800.52L103.32 800.52L103.32 801L102.84 801z" stroke="none" fill="#95B3D7" fill-rule="nonzero" /><path id="52" transform="matrix(1 0 0 -1 0 842)" d="M102.84 800.52L103.32 800.52L103.32 801L102.84 801z" stroke="none" fill="#95B3D7" fill-rule="nonzero" /><path id="53" transform="matrix(1 0 0 -1 0 842)" d="M103.32 800.52L270.96 800.52L270.96 801L103.32 801z" stroke="none" fill="#95B3D7" fill-rule="nonzero" /><path id="54" transform="matrix(1 0 0 -1 0 842)" d="M270.96 800.52L271.44 800.52L271.44 801L270.96 801z" stroke="none" fill="#95B3D7" fill-rule="nonzero" /><path id="55" transform="matrix(1 0 0 -1 0 842)" d="M271.44 800.52L477.96 800.52L477.96 801L271.44 801z" stroke="none" fill="#95B3D7" fill-rule="nonzero" /><path id="56" transform="matrix(1 0 0 -1 0 842)" d="M477.96 800.52L478.44 800.52L478.44 801L477.96 801z" stroke="none" fill="#95B3D7" fill-rule="nonzero" /><path id="57" transform="matrix(1 0 0 -1 0 842)" d="M477.96 800.52L478.44 800.52L478.44 801L477.96 801z" stroke="none" fill="#95B3D7" fill-rule="nonzero" /><path id="58" transform="matrix(1 0 0 -1 0 842)" d="M102.84 764.76L103.32 764.76L103.32 800.521L102.84 800.521z" stroke="none" fill="#95B3D7" fill-rule="nonzero" /><path id="59" transform="matrix(1 0 0 -1 0 842)" d="M270.96 764.76L271.44 764.76L271.44 800.521L270.96 800.521z" stroke="none" fill="#95B3D7" fill-rule="nonzero" /><path id="60" transform="matrix(1 0 0 -1 0 842)" d="M477.96 764.76L478.44 764.76L478.44 800.521L477.96 800.521z" stroke="none" fill="#95B3D7" fill-rule="nonzero" /><path id="229" transform="matrix(1 0 0 -1 0 842)" d="M102.84 764.28L103.32 764.28L103.32 764.76L102.84 764.76z" stroke="none" fill="#95B3D7" fill-rule="nonzero" /><path id="230" transform="matrix(1 0 0 -1 0 842)" d="M103.32 764.28L270.96 764.28L270.96 764.76L103.32 764.76z" stroke="none" fill="#95B3D7" fill-rule="nonzero" /><path id="231" transform="matrix(1 0 0 -1 0 842)" d="M270.96 764.28L271.44 764.28L271.44 764.76L270.96 764.76z" stroke="none" fill="#95B3D7" fill-rule="nonzero" /><path id="232" transform="matrix(1 0 0 -1 0 842)" d="M271.44 764.28L477.96 764.28L477.96 764.76L271.44 764.76z" stroke="none" fill="#95B3D7" fill-rule="nonzero" /><path id="233" transform="matrix(1 0 0 -1 0 842)" d="M477.96 764.28L478.44 764.28L478.44 764.76L477.96 764.76z" stroke="none" fill="#95B3D7" fill-rule="nonzero" /><path id="234" transform="matrix(1 0 0 -1 0 842)" d="M102.84 683.76L103.32 683.76L103.32 764.28L102.84 764.28z" stroke="none" fill="#95B3D7" fill-rule="nonzero" /><path id="235" transform="matrix(1 0 0 -1 0 842)" d="M102.84 683.28L103.32 683.28L103.32 683.76L102.84 683.76z" stroke="none" fill="#95B3D7" fill-rule="nonzero" /><path id="236" transform="matrix(1 0 0 -1 0 842)" d="M102.84 683.28L103.32 683.28L103.32 683.76L102.84 683.76z" stroke="none" fill="#95B3D7" fill-rule="nonzero" /><path id="237" transform="matrix(1 0 0 -1 0 842)" d="M103.32 683.28L270.96 683.28L270.96 683.76L103.32 683.76z" stroke="none" fill="#95B3D7" fill-rule="nonzero" /><path id="238" transform="matrix(1 0 0 -1 0 842)" d="M270.96 683.76L271.44 683.76L271.44 764.28L270.96 764.28z" stroke="none" fill="#95B3D7" fill-rule="nonzero" /><path id="239" transform="matrix(1 0 0 -1 0 842)" d="M270.96 683.28L271.44 683.28L271.44 683.76L270.96 683.76z" stroke="none" fill="#95B3D7" fill-rule="nonzero" /><path id="240" transform="matrix(1 0 0 -1 0 842)" d="M271.44 683.28L477.96 683.28L477.96 683.76L271.44 683.76z" stroke="none" fill="#95B3D7" fill-rule="nonzero" /><path id="241" transform="matrix(1 0 0 -1 0 842)" d="M477.96 683.76L478.44 683.76L478.44 764.28L477.96 764.28z" stroke="none" fill="#95B3D7" fill-rule="nonzero" /><path id="242" transform="matrix(1 0 0 -1 0 842)" d="M477.96 683.28L478.44 683.28L478.44 683.76L477.96 683.76z" stroke="none" fill="#95B3D7" fill-rule="nonzero" /><path id="243" transform="matrix(1 0 0 -1 0 842)" d="M477.96 683.28L478.44 683.28L478.44 683.76L477.96 683.76z" stroke="none" fill="#95B3D7" fill-rule="nonzero" /><g clip-path="url(#8)"></g><g clip-path="url(#9)"></g><g clip-path="url(#10)"></g><g clip-path="url(#11)"></g><g clip-path="url(#12)"></g><g clip-path="url(#13)"></g><g clip-path="url(#14)"></g><g clip-path="url(#15)"></g><g clip-path="url(#16)"></g><g clip-path="url(#17)"></g><g clip-path="url(#18)"></g></g></g></svg>