<svg xmlns="http://www.w3.org/2000/svg" xmlns:xlink="http://www.w3.org/1999/xlink" id="body_1" preserveAspectRatio="xMinYMin meet" viewBox="0 0 793 1123"><defs><clipPath id="1"><path id="" clip-rule="evenodd" transform="matrix(1 0 0 1 0 0)" d="M0 842L0 -0.03997803L0 -0.03997803L595.56 -0.03997803L595.56 -0.03997803L595.56 842L595.56 842L0 842z" /></clipPath></defs><g transform="matrix(1.333333 0 0 1.333333 0 0)"><g clip-path="url(#1)"><path id="1508" transform="matrix(1 0 0 -1 0 842)" d="M30.36 302.52L30.841 302.52L30.841 303.001L30.36 303.001z" stroke="none" fill="#BFBFBF" fill-rule="nonzero" /><path id="1509" transform="matrix(1 0 0 -1 0 842)" d="M30.36 302.52L30.841 302.52L30.841 303.001L30.36 303.001z" stroke="none" fill="#BFBFBF" fill-rule="nonzero" /><path id="1510" transform="matrix(1 0 0 -1 0 842)" d="M30.84 302.52L340.08 302.52L340.08 303.001L30.84 303.001z" stroke="none" fill="#BFBFBF" fill-rule="nonzero" /><path id="1511" transform="matrix(1 0 0 -1 0 842)" d="M340.08 302.52L340.56 302.52L340.56 303.001L340.08 303.001z" stroke="none" fill="#BFBFBF" fill-rule="nonzero" /><path id="1512" transform="matrix(1 0 0 -1 0 842)" d="M340.56 302.52L564.72 302.52L564.72 303.001L340.56 303.001z" stroke="none" fill="#BFBFBF" fill-rule="nonzero" /><path id="1513" transform="matrix(1 0 0 -1 0 842)" d="M564.72 302.52L565.2 302.52L565.2 303.001L564.72 303.001z" stroke="none" fill="#BFBFBF" fill-rule="nonzero" /><path id="1514" transform="matrix(1 0 0 -1 0 842)" d="M564.72 302.52L565.2 302.52L565.2 303.001L564.72 303.001z" stroke="none" fill="#BFBFBF" fill-rule="nonzero" /><path id="1515" transform="matrix(1 0 0 -1 0 842)" d="M30.36 270.6L30.841 270.6L30.841 302.519L30.36 302.519z" stroke="none" fill="#BFBFBF" fill-rule="nonzero" /><path id="1516" transform="matrix(1 0 0 -1 0 842)" d="M340.08 270.6L340.56 270.6L340.56 302.519L340.08 302.519z" stroke="none" fill="#BFBFBF" fill-rule="nonzero" /><path id="1517" transform="matrix(1 0 0 -1 0 842)" d="M564.72 270.6L565.2 270.6L565.2 302.519L564.72 302.519z" stroke="none" fill="#BFBFBF" fill-rule="nonzero" /><path id="1518" transform="matrix(1 0 0 -1 0 842)" d="M30.84 238.08L340.08 238.08L340.08 238.08L340.08 270L340.08 270L30.84 270z" stroke="none" fill="#F2F2F2" fill-rule="evenodd" /><path id="1519" transform="matrix(1 0 0 -1 0 842)" d="M36 238.08L334.92 238.08L334.92 270L36 270z" stroke="none" fill="#F2F2F2" fill-rule="nonzero" /><path id="1550" transform="matrix(1 0 0 -1 0 842)" d="M340.56 238.08L564.6 238.08L564.6 238.08L564.6 270L564.6 270L340.56 270z" stroke="none" fill="#F2F2F2" fill-rule="evenodd" /><path id="1551" transform="matrix(1 0 0 -1 0 842)" d="M345.72 238.08L559.56 238.08L559.56 270L345.72 270z" stroke="none" fill="#F2F2F2" fill-rule="nonzero" /><path id="1577" transform="matrix(1 0 0 -1 0 842)" d="M30.36 270.12L30.841 270.12L30.841 270.601L30.36 270.601z" stroke="none" fill="#BFBFBF" fill-rule="nonzero" /><path id="1578" transform="matrix(1 0 0 -1 0 842)" d="M30.84 270.12L340.08 270.12L340.08 270.601L30.84 270.601z" stroke="none" fill="#BFBFBF" fill-rule="nonzero" /><path id="1579" transform="matrix(1 0 0 -1 0 842)" d="M340.08 270.12L340.56 270.12L340.56 270.601L340.08 270.601z" stroke="none" fill="#BFBFBF" fill-rule="nonzero" /><path id="1580" transform="matrix(1 0 0 -1 0 842)" d="M340.56 270.12L564.72 270.12L564.72 270.601L340.56 270.601z" stroke="none" fill="#BFBFBF" fill-rule="nonzero" /><path id="1581" transform="matrix(1 0 0 -1 0 842)" d="M564.72 270.12L565.2 270.12L565.2 270.601L564.72 270.601z" stroke="none" fill="#BFBFBF" fill-rule="nonzero" /><path id="1582" transform="matrix(1 0 0 -1 0 842)" d="M30.36 238.08L30.841 238.08L30.841 270.12L30.36 270.12z" stroke="none" fill="#BFBFBF" fill-rule="nonzero" /><path id="1583" transform="matrix(1 0 0 -1 0 842)" d="M340.08 238.08L340.56 238.08L340.56 270.12L340.08 270.12z" stroke="none" fill="#BFBFBF" fill-rule="nonzero" /><path id="1584" transform="matrix(1 0 0 -1 0 842)" d="M564.72 238.08L565.2 238.08L565.2 270.12L564.72 270.12z" stroke="none" fill="#BFBFBF" fill-rule="nonzero" /><path id="1654" transform="matrix(1 0 0 -1 0 842)" d="M30.36 237.6L30.841 237.6L30.841 238.08L30.36 238.08z" stroke="none" fill="#BFBFBF" fill-rule="nonzero" /><path id="1655" transform="matrix(1 0 0 -1 0 842)" d="M30.84 237.6L340.08 237.6L340.08 238.08L30.84 238.08z" stroke="none" fill="#BFBFBF" fill-rule="nonzero" /><path id="1656" transform="matrix(1 0 0 -1 0 842)" d="M340.08 237.6L340.56 237.6L340.56 238.08L340.08 238.08z" stroke="none" fill="#BFBFBF" fill-rule="nonzero" /><path id="1657" transform="matrix(1 0 0 -1 0 842)" d="M340.56 237.6L564.72 237.6L564.72 238.08L340.56 238.08z" stroke="none" fill="#BFBFBF" fill-rule="nonzero" /><path id="1658" transform="matrix(1 0 0 -1 0 842)" d="M564.72 237.6L565.2 237.6L565.2 238.08L564.72 238.08z" stroke="none" fill="#BFBFBF" fill-rule="nonzero" /><path id="1659" transform="matrix(1 0 0 -1 0 842)" d="M30.36 205.68L30.841 205.68L30.841 237.6L30.36 237.6z" stroke="none" fill="#BFBFBF" fill-rule="nonzero" /><path id="1660" transform="matrix(1 0 0 -1 0 842)" d="M340.08 205.68L340.56 205.68L340.56 237.6L340.08 237.6z" stroke="none" fill="#BFBFBF" fill-rule="nonzero" /><path id="1661" transform="matrix(1 0 0 -1 0 842)" d="M564.72 205.68L565.2 205.68L565.2 237.6L564.72 237.6z" stroke="none" fill="#BFBFBF" fill-rule="nonzero" /><path id="1662" transform="matrix(1 0 0 -1 0 842)" d="M30.84 173.16L340.08 173.16L340.08 173.16L340.08 205.08L340.08 205.08L30.84 205.08z" stroke="none" fill="#F2F2F2" fill-rule="evenodd" /><path id="1663" transform="matrix(1 0 0 -1 0 842)" d="M36 173.16L334.92 173.16L334.92 205.08L36 205.08z" stroke="none" fill="#F2F2F2" fill-rule="nonzero" /><path id="1701" transform="matrix(1 0 0 -1 0 842)" d="M340.56 173.16L564.6 173.16L564.6 173.16L564.6 205.08L564.6 205.08L340.56 205.08z" stroke="none" fill="#F2F2F2" fill-rule="evenodd" /><path id="1702" transform="matrix(1 0 0 -1 0 842)" d="M345.72 173.16L559.56 173.16L559.56 205.08L345.72 205.08z" stroke="none" fill="#F2F2F2" fill-rule="nonzero" /><path id="1737" transform="matrix(1 0 0 -1 0 842)" d="M30.36 205.2L30.841 205.2L30.841 205.68L30.36 205.68z" stroke="none" fill="#BFBFBF" fill-rule="nonzero" /><path id="1738" transform="matrix(1 0 0 -1 0 842)" d="M30.84 205.2L340.08 205.2L340.08 205.68L30.84 205.68z" stroke="none" fill="#BFBFBF" fill-rule="nonzero" /><path id="1739" transform="matrix(1 0 0 -1 0 842)" d="M340.08 205.2L340.56 205.2L340.56 205.68L340.08 205.68z" stroke="none" fill="#BFBFBF" fill-rule="nonzero" /><path id="1740" transform="matrix(1 0 0 -1 0 842)" d="M340.56 205.2L564.72 205.2L564.72 205.68L340.56 205.68z" stroke="none" fill="#BFBFBF" fill-rule="nonzero" /><path id="1741" transform="matrix(1 0 0 -1 0 842)" d="M564.72 205.2L565.2 205.2L565.2 205.68L564.72 205.68z" stroke="none" fill="#BFBFBF" fill-rule="nonzero" /><path id="1742" transform="matrix(1 0 0 -1 0 842)" d="M30.36 173.16L30.841 173.16L30.841 205.2L30.36 205.2z" stroke="none" fill="#BFBFBF" fill-rule="nonzero" /><path id="1743" transform="matrix(1 0 0 -1 0 842)" d="M340.08 173.16L340.56 173.16L340.56 205.2L340.08 205.2z" stroke="none" fill="#BFBFBF" fill-rule="nonzero" /><path id="1744" transform="matrix(1 0 0 -1 0 842)" d="M564.72 173.16L565.2 173.16L565.2 205.2L564.72 205.2z" stroke="none" fill="#BFBFBF" fill-rule="nonzero" /><path id="1823" transform="matrix(1 0 0 -1 0 842)" d="M30.36 172.68L30.841 172.68L30.841 173.16L30.36 173.16z" stroke="none" fill="#BFBFBF" fill-rule="nonzero" /><path id="1824" transform="matrix(1 0 0 -1 0 842)" d="M30.84 172.68L340.08 172.68L340.08 173.16L30.84 173.16z" stroke="none" fill="#BFBFBF" fill-rule="nonzero" /><path id="1825" transform="matrix(1 0 0 -1 0 842)" d="M340.08 172.68L340.56 172.68L340.56 173.16L340.08 173.16z" stroke="none" fill="#BFBFBF" fill-rule="nonzero" /><path id="1826" transform="matrix(1 0 0 -1 0 842)" d="M340.56 172.68L564.72 172.68L564.72 173.16L340.56 173.16z" stroke="none" fill="#BFBFBF" fill-rule="nonzero" /><path id="1827" transform="matrix(1 0 0 -1 0 842)" d="M564.72 172.68L565.2 172.68L565.2 173.16L564.72 173.16z" stroke="none" fill="#BFBFBF" fill-rule="nonzero" /><path id="1828" transform="matrix(1 0 0 -1 0 842)" d="M30.36 140.64L30.841 140.64L30.841 172.68L30.36 172.68z" stroke="none" fill="#BFBFBF" fill-rule="nonzero" /><path id="1829" transform="matrix(1 0 0 -1 0 842)" d="M30.36 140.16L30.841 140.16L30.841 140.641L30.36 140.641z" stroke="none" fill="#BFBFBF" fill-rule="nonzero" /><path id="1830" transform="matrix(1 0 0 -1 0 842)" d="M30.36 140.16L30.841 140.16L30.841 140.641L30.36 140.641z" stroke="none" fill="#BFBFBF" fill-rule="nonzero" /><path id="1831" transform="matrix(1 0 0 -1 0 842)" d="M30.84 140.16L340.08 140.16L340.08 140.641L30.84 140.641z" stroke="none" fill="#BFBFBF" fill-rule="nonzero" /><path id="1832" transform="matrix(1 0 0 -1 0 842)" d="M340.08 140.64L340.56 140.64L340.56 172.68L340.08 172.68z" stroke="none" fill="#BFBFBF" fill-rule="nonzero" /><path id="1833" transform="matrix(1 0 0 -1 0 842)" d="M340.08 140.16L340.56 140.16L340.56 140.641L340.08 140.641z" stroke="none" fill="#BFBFBF" fill-rule="nonzero" /><path id="1834" transform="matrix(1 0 0 -1 0 842)" d="M340.56 140.16L564.72 140.16L564.72 140.641L340.56 140.641z" stroke="none" fill="#BFBFBF" fill-rule="nonzero" /><path id="1835" transform="matrix(1 0 0 -1 0 842)" d="M564.72 140.64L565.2 140.64L565.2 172.68L564.72 172.68z" stroke="none" fill="#BFBFBF" fill-rule="nonzero" /><path id="1836" transform="matrix(1 0 0 -1 0 842)" d="M564.72 140.16L565.2 140.16L565.2 140.641L564.72 140.641z" stroke="none" fill="#BFBFBF" fill-rule="nonzero" /><path id="1837" transform="matrix(1 0 0 -1 0 842)" d="M564.72 140.16L565.2 140.16L565.2 140.641L564.72 140.641z" stroke="none" fill="#BFBFBF" fill-rule="nonzero" /></g></g></svg>