<svg xmlns="http://www.w3.org/2000/svg" xmlns:xlink="http://www.w3.org/1999/xlink" id="body_2" preserveAspectRatio="xMinYMin meet" viewBox="0 0 793 1123"><defs><clipPath id="1"><path id="" clip-rule="evenodd" transform="matrix(1 0 0 1 0 0)" d="M0 842L0 -0.03997803L0 -0.03997803L595.56 -0.03997803L595.56 -0.03997803L595.56 842L595.56 842L0 842z" /></clipPath><clipPath id="2"><path id="" clip-rule="evenodd" transform="matrix(1 0 0 1 0 0)" d="M73.92 291.44L508.201 291.44L508.201 291.44L508.201 35.96002L508.201 35.96002L73.92 35.96002z" /></clipPath><clipPath id="3"><path id="" clip-rule="evenodd" transform="matrix(1 0 0 1 0 0)" d="M73.92 291.44L508.201 291.44L508.201 291.44L508.201 35.96002L508.201 35.96002L73.92 35.96002z" /></clipPath><clipPath id="4"><path id="" clip-rule="evenodd" transform="matrix(1 0 0 1 0 0)" d="M36 802.64L57 802.64L57 802.64L57 291.44L57 291.44L36 291.44z" /></clipPath><clipPath id="5"><path id="" clip-rule="evenodd" transform="matrix(1 0 0 1 0 0)" d="M57 802.64L73.92 802.64L73.92 802.64L73.92 291.44L73.92 291.44L57 291.44z" /></clipPath><clipPath id="6"><path id="" clip-rule="evenodd" transform="matrix(1 0 0 1 0 0)" d="M57 802.64L73.92 802.64L73.92 802.64L73.92 291.44L73.92 291.44L57 291.44z" /></clipPath><clipPath id="7"><path id="" clip-rule="evenodd" transform="matrix(1 0 0 1 0 0)" d="M73.92 802.64L508.201 802.64L508.201 802.64L508.201 291.44L508.201 291.44L73.92 291.44z" /></clipPath><clipPath id="8"><path id="" clip-rule="evenodd" transform="matrix(1 0 0 1 0 0)" d="M74.4 577.04L267 577.04L267 577.04L267 555.44L267 555.44L74.4 555.44z" /></clipPath><clipPath id="9"><path id="" clip-rule="evenodd" transform="matrix(1 0 0 1 0 0)" d="M74.4 577.04L267 577.04L267 577.04L267 555.44L267 555.44L74.4 555.44z" /></clipPath><clipPath id="10"><path id="" clip-rule="evenodd" transform="matrix(1 0 0 1 0 0)" d="M267.6 577.04L386.64 577.04L386.64 577.04L386.64 555.44L386.64 555.44L267.6 555.44z" /></clipPath><clipPath id="11"><path id="" clip-rule="evenodd" transform="matrix(1 0 0 1 0 0)" d="M267.6 577.04L386.64 577.04L386.64 577.04L386.64 555.44L386.64 555.44L267.6 555.44z" /></clipPath><clipPath id="12"><path id="" clip-rule="evenodd" transform="matrix(1 0 0 1 0 0)" d="M387.12 577.04L507.72 577.04L507.72 577.04L507.72 555.44L507.72 555.44L387.12 555.44z" /></clipPath><clipPath id="13"><path id="" clip-rule="evenodd" transform="matrix(1 0 0 1 0 0)" d="M387.12 577.04L507.72 577.04L507.72 577.04L507.72 555.44L507.72 555.44L387.12 555.44z" /></clipPath><clipPath id="14"><path id="" clip-rule="evenodd" transform="matrix(1 0 0 1 0 0)" d="M74.4 599.12L267 599.12L267 599.12L267 577.52L267 577.52L74.4 577.52z" /></clipPath><clipPath id="15"><path id="" clip-rule="evenodd" transform="matrix(1 0 0 1 0 0)" d="M74.4 599.12L267 599.12L267 599.12L267 577.52L267 577.52L74.4 577.52z" /></clipPath><clipPath id="16"><path id="" clip-rule="evenodd" transform="matrix(1 0 0 1 0 0)" d="M267.6 599.12L386.64 599.12L386.64 599.12L386.64 577.52L386.64 577.52L267.6 577.52z" /></clipPath><clipPath id="17"><path id="" clip-rule="evenodd" transform="matrix(1 0 0 1 0 0)" d="M267.6 599.12L386.64 599.12L386.64 599.12L386.64 577.52L386.64 577.52L267.6 577.52z" /></clipPath><clipPath id="18"><path id="" clip-rule="evenodd" transform="matrix(1 0 0 1 0 0)" d="M387.12 599.12L507.72 599.12L507.72 599.12L507.72 577.52L507.72 577.52L387.12 577.52z" /></clipPath><clipPath id="19"><path id="" clip-rule="evenodd" transform="matrix(1 0 0 1 0 0)" d="M387.12 599.12L507.72 599.12L507.72 599.12L507.72 577.52L507.72 577.52L387.12 577.52z" /></clipPath><clipPath id="20"><path id="" clip-rule="evenodd" transform="matrix(1 0 0 1 0 0)" d="M74.4 621.2L267 621.2L267 621.2L267 599.6L267 599.6L74.4 599.6z" /></clipPath><clipPath id="21"><path id="" clip-rule="evenodd" transform="matrix(1 0 0 1 0 0)" d="M74.4 621.2L267 621.2L267 621.2L267 599.6L267 599.6L74.4 599.6z" /></clipPath><clipPath id="22"><path id="" clip-rule="evenodd" transform="matrix(1 0 0 1 0 0)" d="M267.6 621.2L386.64 621.2L386.64 621.2L386.64 599.6L386.64 599.6L267.6 599.6z" /></clipPath><clipPath id="23"><path id="" clip-rule="evenodd" transform="matrix(1 0 0 1 0 0)" d="M267.6 621.2L386.64 621.2L386.64 621.2L386.64 599.6L386.64 599.6L267.6 599.6z" /></clipPath><clipPath id="24"><path id="" clip-rule="evenodd" transform="matrix(1 0 0 1 0 0)" d="M387.12 621.2L507.72 621.2L507.72 621.2L507.72 599.6L507.72 599.6L387.12 599.6z" /></clipPath><clipPath id="25"><path id="" clip-rule="evenodd" transform="matrix(1 0 0 1 0 0)" d="M387.12 621.2L507.72 621.2L507.72 621.2L507.72 599.6L507.72 599.6L387.12 599.6z" /></clipPath><clipPath id="26"><path id="" clip-rule="evenodd" transform="matrix(1 0 0 1 0 0)" d="M74.4 643.4L267 643.4L267 643.4L267 621.8L267 621.8L74.4 621.8z" /></clipPath><clipPath id="27"><path id="" clip-rule="evenodd" transform="matrix(1 0 0 1 0 0)" d="M74.4 643.4L267 643.4L267 643.4L267 621.8L267 621.8L74.4 621.8z" /></clipPath><clipPath id="28"><path id="" clip-rule="evenodd" transform="matrix(1 0 0 1 0 0)" d="M267.6 643.4L386.64 643.4L386.64 643.4L386.64 621.8L386.64 621.8L267.6 621.8z" /></clipPath><clipPath id="29"><path id="" clip-rule="evenodd" transform="matrix(1 0 0 1 0 0)" d="M267.6 643.4L386.64 643.4L386.64 643.4L386.64 621.8L386.64 621.8L267.6 621.8z" /></clipPath><clipPath id="30"><path id="" clip-rule="evenodd" transform="matrix(1 0 0 1 0 0)" d="M267.6 643.4L386.64 643.4L386.64 643.4L386.64 621.8L386.64 621.8L267.6 621.8z" /></clipPath><clipPath id="31"><path id="" clip-rule="evenodd" transform="matrix(1 0 0 1 0 0)" d="M267.6 643.4L386.64 643.4L386.64 643.4L386.64 621.8L386.64 621.8L267.6 621.8z" /></clipPath><clipPath id="32"><path id="" clip-rule="evenodd" transform="matrix(1 0 0 1 0 0)" d="M387.12 643.4L507.72 643.4L507.72 643.4L507.72 621.8L507.72 621.8L387.12 621.8z" /></clipPath><clipPath id="33"><path id="" clip-rule="evenodd" transform="matrix(1 0 0 1 0 0)" d="M387.12 643.4L507.72 643.4L507.72 643.4L507.72 621.8L507.72 621.8L387.12 621.8z" /></clipPath><clipPath id="34"><path id="" clip-rule="evenodd" transform="matrix(1 0 0 1 0 0)" d="M74.4 665.48L267 665.48L267 665.48L267 643.88L267 643.88L74.4 643.88z" /></clipPath><clipPath id="35"><path id="" clip-rule="evenodd" transform="matrix(1 0 0 1 0 0)" d="M74.4 665.48L267 665.48L267 665.48L267 643.88L267 643.88L74.4 643.88z" /></clipPath><clipPath id="36"><path id="" clip-rule="evenodd" transform="matrix(1 0 0 1 0 0)" d="M267.6 665.48L386.64 665.48L386.64 665.48L386.64 643.88L386.64 643.88L267.6 643.88z" /></clipPath><clipPath id="37"><path id="" clip-rule="evenodd" transform="matrix(1 0 0 1 0 0)" d="M267.6 665.48L386.64 665.48L386.64 665.48L386.64 643.88L386.64 643.88L267.6 643.88z" /></clipPath><clipPath id="38"><path id="" clip-rule="evenodd" transform="matrix(1 0 0 1 0 0)" d="M387.12 665.48L507.72 665.48L507.72 665.48L507.72 643.88L507.72 643.88L387.12 643.88z" /></clipPath><clipPath id="39"><path id="" clip-rule="evenodd" transform="matrix(1 0 0 1 0 0)" d="M387.12 665.48L507.72 665.48L507.72 665.48L507.72 643.88L507.72 643.88L387.12 643.88z" /></clipPath><clipPath id="40"><path id="" clip-rule="evenodd" transform="matrix(1 0 0 1 0 0)" d="M74.4 687.56L267 687.56L267 687.56L267 665.96L267 665.96L74.4 665.96z" /></clipPath><clipPath id="41"><path id="" clip-rule="evenodd" transform="matrix(1 0 0 1 0 0)" d="M74.4 687.56L267 687.56L267 687.56L267 665.96L267 665.96L74.4 665.96z" /></clipPath><clipPath id="42"><path id="" clip-rule="evenodd" transform="matrix(1 0 0 1 0 0)" d="M267.6 687.56L386.64 687.56L386.64 687.56L386.64 665.96L386.64 665.96L267.6 665.96z" /></clipPath><clipPath id="43"><path id="" clip-rule="evenodd" transform="matrix(1 0 0 1 0 0)" d="M267.6 687.56L386.64 687.56L386.64 687.56L386.64 665.96L386.64 665.96L267.6 665.96z" /></clipPath><clipPath id="44"><path id="" clip-rule="evenodd" transform="matrix(1 0 0 1 0 0)" d="M387.12 687.56L507.72 687.56L507.72 687.56L507.72 665.96L507.72 665.96L387.12 665.96z" /></clipPath><clipPath id="45"><path id="" clip-rule="evenodd" transform="matrix(1 0 0 1 0 0)" d="M387.12 687.56L507.72 687.56L507.72 687.56L507.72 665.96L507.72 665.96L387.12 665.96z" /></clipPath><clipPath id="46"><path id="" clip-rule="evenodd" transform="matrix(1 0 0 1 0 0)" d="M74.4 709.64L267 709.64L267 709.64L267 688.04L267 688.04L74.4 688.04z" /></clipPath><clipPath id="47"><path id="" clip-rule="evenodd" transform="matrix(1 0 0 1 0 0)" d="M74.4 709.64L267 709.64L267 709.64L267 688.04L267 688.04L74.4 688.04z" /></clipPath><clipPath id="48"><path id="" clip-rule="evenodd" transform="matrix(1 0 0 1 0 0)" d="M267.6 709.64L386.64 709.64L386.64 709.64L386.64 688.04L386.64 688.04L267.6 688.04z" /></clipPath><clipPath id="49"><path id="" clip-rule="evenodd" transform="matrix(1 0 0 1 0 0)" d="M267.6 709.64L386.64 709.64L386.64 709.64L386.64 688.04L386.64 688.04L267.6 688.04z" /></clipPath><clipPath id="50"><path id="" clip-rule="evenodd" transform="matrix(1 0 0 1 0 0)" d="M387.12 709.64L507.72 709.64L507.72 709.64L507.72 688.04L507.72 688.04L387.12 688.04z" /></clipPath><clipPath id="51"><path id="" clip-rule="evenodd" transform="matrix(1 0 0 1 0 0)" d="M387.12 709.64L507.72 709.64L507.72 709.64L507.72 688.04L507.72 688.04L387.12 688.04z" /></clipPath></defs><g transform="matrix(1.333333 0 0 1.333333 0 0)"><g clip-path="url(#1)"><g clip-path="url(#2)"></g><g clip-path="url(#3)"></g><g clip-path="url(#4)"></g><g clip-path="url(#5)"></g><g clip-path="url(#6)"></g><g clip-path="url(#7)"></g><g clip-path="url(#8)"></g><g clip-path="url(#9)"></g><g clip-path="url(#10)"></g><g clip-path="url(#11)"></g><g clip-path="url(#12)"></g><g clip-path="url(#13)"></g><path id="1252" transform="matrix(1 0 0 -1 0 842)" d="M73.92 286.56L74.401 286.56L74.401 287.04L73.92 287.04z" stroke="none" fill="#BFBFBF" fill-rule="nonzero" /><path id="1253" transform="matrix(1 0 0 -1 0 842)" d="M73.92 286.56L74.401 286.56L74.401 287.04L73.92 287.04z" stroke="none" fill="#BFBFBF" fill-rule="nonzero" /><path id="1254" transform="matrix(1 0 0 -1 0 842)" d="M74.4 286.56L267.12 286.56L267.12 287.04L74.4 287.04z" stroke="none" fill="#BFBFBF" fill-rule="nonzero" /><path id="1255" transform="matrix(1 0 0 -1 0 842)" d="M267.12 286.56L267.6 286.56L267.6 287.04L267.12 287.04z" stroke="none" fill="#BFBFBF" fill-rule="nonzero" /><path id="1256" transform="matrix(1 0 0 -1 0 842)" d="M267.6 286.56L386.64 286.56L386.64 287.04L267.6 287.04z" stroke="none" fill="#BFBFBF" fill-rule="nonzero" /><path id="1257" transform="matrix(1 0 0 -1 0 842)" d="M386.64 286.56L387.12 286.56L387.12 287.04L386.64 287.04z" stroke="none" fill="#BFBFBF" fill-rule="nonzero" /><path id="1258" transform="matrix(1 0 0 -1 0 842)" d="M387.12 286.56L507.72 286.56L507.72 287.04L387.12 287.04z" stroke="none" fill="#BFBFBF" fill-rule="nonzero" /><path id="1259" transform="matrix(1 0 0 -1 0 842)" d="M507.72 286.56L508.201 286.56L508.201 287.04L507.72 287.04z" stroke="none" fill="#BFBFBF" fill-rule="nonzero" /><path id="1260" transform="matrix(1 0 0 -1 0 842)" d="M507.72 286.56L508.201 286.56L508.201 287.04L507.72 287.04z" stroke="none" fill="#BFBFBF" fill-rule="nonzero" /><path id="1261" transform="matrix(1 0 0 -1 0 842)" d="M73.92 264.96L74.401 264.96L74.401 286.56L73.92 286.56z" stroke="none" fill="#BFBFBF" fill-rule="nonzero" /><path id="1262" transform="matrix(1 0 0 -1 0 842)" d="M267.12 264.96L267.6 264.96L267.6 286.56L267.12 286.56z" stroke="none" fill="#BFBFBF" fill-rule="nonzero" /><path id="1263" transform="matrix(1 0 0 -1 0 842)" d="M386.64 264.96L387.12 264.96L387.12 286.56L386.64 286.56z" stroke="none" fill="#BFBFBF" fill-rule="nonzero" /><path id="1264" transform="matrix(1 0 0 -1 0 842)" d="M507.72 264.96L508.201 264.96L508.201 286.56L507.72 286.56z" stroke="none" fill="#BFBFBF" fill-rule="nonzero" /><path id="1265" transform="matrix(1 0 0 -1 0 842)" d="M74.4 242.88L267 242.88L267 242.88L267 264.48L267 264.48L74.4 264.48z" stroke="none" fill="#F2F2F2" fill-rule="evenodd" /><path id="1266" transform="matrix(1 0 0 -1 0 842)" d="M79.56 248.52L261.84 248.52L261.84 264.481L79.56 264.481z" stroke="none" fill="#F2F2F2" fill-rule="nonzero" /><g clip-path="url(#14)"></g><g clip-path="url(#15)"></g><path id="1272" transform="matrix(1 0 0 -1 0 842)" d="M267.6 242.88L386.64 242.88L386.64 242.88L386.64 264.48L386.64 264.48L267.6 264.48z" stroke="none" fill="#F2F2F2" fill-rule="evenodd" /><path id="1273" transform="matrix(1 0 0 -1 0 842)" d="M272.64 248.52L381.481 248.52L381.481 264.481L272.64 264.481z" stroke="none" fill="#F2F2F2" fill-rule="nonzero" /><g clip-path="url(#16)"></g><g clip-path="url(#17)"></g><path id="1284" transform="matrix(1 0 0 -1 0 842)" d="M387.12 242.88L507.72 242.88L507.72 242.88L507.72 264.48L507.72 264.48L387.12 264.48z" stroke="none" fill="#F2F2F2" fill-rule="evenodd" /><path id="1285" transform="matrix(1 0 0 -1 0 842)" d="M392.28 248.52L502.56 248.52L502.56 264.481L392.28 264.481z" stroke="none" fill="#F2F2F2" fill-rule="nonzero" /><g clip-path="url(#18)"></g><g clip-path="url(#19)"></g><path id="1295" transform="matrix(1 0 0 -1 0 842)" d="M73.92 264.48L74.401 264.48L74.401 264.96L73.92 264.96z" stroke="none" fill="#BFBFBF" fill-rule="nonzero" /><path id="1296" transform="matrix(1 0 0 -1 0 842)" d="M74.4 264.48L267.12 264.48L267.12 264.96L74.4 264.96z" stroke="none" fill="#BFBFBF" fill-rule="nonzero" /><path id="1297" transform="matrix(1 0 0 -1 0 842)" d="M267.12 264.48L267.6 264.48L267.6 264.96L267.12 264.96z" stroke="none" fill="#BFBFBF" fill-rule="nonzero" /><path id="1298" transform="matrix(1 0 0 -1 0 842)" d="M267.6 264.48L386.64 264.48L386.64 264.96L267.6 264.96z" stroke="none" fill="#BFBFBF" fill-rule="nonzero" /><path id="1299" transform="matrix(1 0 0 -1 0 842)" d="M386.64 264.48L387.12 264.48L387.12 264.96L386.64 264.96z" stroke="none" fill="#BFBFBF" fill-rule="nonzero" /><path id="1300" transform="matrix(1 0 0 -1 0 842)" d="M387.12 264.48L507.72 264.48L507.72 264.96L387.12 264.96z" stroke="none" fill="#BFBFBF" fill-rule="nonzero" /><path id="1301" transform="matrix(1 0 0 -1 0 842)" d="M507.72 264.48L508.201 264.48L508.201 264.96L507.72 264.96z" stroke="none" fill="#BFBFBF" fill-rule="nonzero" /><path id="1302" transform="matrix(1 0 0 -1 0 842)" d="M73.92 242.88L74.401 242.88L74.401 264.48L73.92 264.48z" stroke="none" fill="#BFBFBF" fill-rule="nonzero" /><path id="1303" transform="matrix(1 0 0 -1 0 842)" d="M267.12 242.88L267.6 242.88L267.6 264.48L267.12 264.48z" stroke="none" fill="#BFBFBF" fill-rule="nonzero" /><path id="1304" transform="matrix(1 0 0 -1 0 842)" d="M386.64 242.88L387.12 242.88L387.12 264.48L386.64 264.48z" stroke="none" fill="#BFBFBF" fill-rule="nonzero" /><path id="1305" transform="matrix(1 0 0 -1 0 842)" d="M507.72 242.88L508.201 242.88L508.201 264.48L507.72 264.48z" stroke="none" fill="#BFBFBF" fill-rule="nonzero" /><g clip-path="url(#20)"></g><g clip-path="url(#21)"></g><g clip-path="url(#22)"></g><g clip-path="url(#23)"></g><g clip-path="url(#24)"></g><g clip-path="url(#25)"></g><path id="1322" transform="matrix(1 0 0 -1 0 842)" d="M73.92 242.4L74.401 242.4L74.401 242.881L73.92 242.881z" stroke="none" fill="#BFBFBF" fill-rule="nonzero" /><path id="1323" transform="matrix(1 0 0 -1 0 842)" d="M74.4 242.4L267.12 242.4L267.12 242.881L74.4 242.881z" stroke="none" fill="#BFBFBF" fill-rule="nonzero" /><path id="1324" transform="matrix(1 0 0 -1 0 842)" d="M267.12 242.4L267.6 242.4L267.6 242.881L267.12 242.881z" stroke="none" fill="#BFBFBF" fill-rule="nonzero" /><path id="1325" transform="matrix(1 0 0 -1 0 842)" d="M267.6 242.4L386.64 242.4L386.64 242.881L267.6 242.881z" stroke="none" fill="#BFBFBF" fill-rule="nonzero" /><path id="1326" transform="matrix(1 0 0 -1 0 842)" d="M386.64 242.4L387.12 242.4L387.12 242.881L386.64 242.881z" stroke="none" fill="#BFBFBF" fill-rule="nonzero" /><path id="1327" transform="matrix(1 0 0 -1 0 842)" d="M387.12 242.4L507.72 242.4L507.72 242.881L387.12 242.881z" stroke="none" fill="#BFBFBF" fill-rule="nonzero" /><path id="1328" transform="matrix(1 0 0 -1 0 842)" d="M507.72 242.4L508.201 242.4L508.201 242.881L507.72 242.881z" stroke="none" fill="#BFBFBF" fill-rule="nonzero" /><path id="1329" transform="matrix(1 0 0 -1 0 842)" d="M73.92 220.8L74.401 220.8L74.401 242.4L73.92 242.4z" stroke="none" fill="#BFBFBF" fill-rule="nonzero" /><path id="1330" transform="matrix(1 0 0 -1 0 842)" d="M267.12 220.8L267.6 220.8L267.6 242.4L267.12 242.4z" stroke="none" fill="#BFBFBF" fill-rule="nonzero" /><path id="1331" transform="matrix(1 0 0 -1 0 842)" d="M386.64 220.8L387.12 220.8L387.12 242.4L386.64 242.4z" stroke="none" fill="#BFBFBF" fill-rule="nonzero" /><path id="1332" transform="matrix(1 0 0 -1 0 842)" d="M507.72 220.8L508.201 220.8L508.201 242.4L507.72 242.4z" stroke="none" fill="#BFBFBF" fill-rule="nonzero" /><path id="1333" transform="matrix(1 0 0 -1 0 842)" d="M74.4 198.6L267 198.6L267 198.6L267 220.2L267 220.2L74.4 220.2z" stroke="none" fill="#F2F2F2" fill-rule="evenodd" /><path id="1334" transform="matrix(1 0 0 -1 0 842)" d="M79.56 204.24L261.84 204.24L261.84 220.201L79.56 220.201z" stroke="none" fill="#F2F2F2" fill-rule="nonzero" /><g clip-path="url(#26)"></g><g clip-path="url(#27)"></g><path id="1342" transform="matrix(1 0 0 -1 0 842)" d="M267.6 198.6L386.64 198.6L386.64 198.6L386.64 220.2L386.64 220.2L267.6 220.2z" stroke="none" fill="#F2F2F2" fill-rule="evenodd" /><path id="1343" transform="matrix(1 0 0 -1 0 842)" d="M272.64 204.24L381.481 204.24L381.481 220.201L272.64 220.201z" stroke="none" fill="#F2F2F2" fill-rule="nonzero" /><g clip-path="url(#28)"></g><g clip-path="url(#29)"></g><g clip-path="url(#30)"></g><g clip-path="url(#31)"></g><path id="1356" transform="matrix(1 0 0 -1 0 842)" d="M387.12 198.6L507.72 198.6L507.72 198.6L507.72 220.2L507.72 220.2L387.12 220.2z" stroke="none" fill="#F2F2F2" fill-rule="evenodd" /><path id="1357" transform="matrix(1 0 0 -1 0 842)" d="M392.28 204.24L502.56 204.24L502.56 220.201L392.28 220.201z" stroke="none" fill="#F2F2F2" fill-rule="nonzero" /><g clip-path="url(#32)"></g><g clip-path="url(#33)"></g><path id="1370" transform="matrix(1 0 0 -1 0 842)" d="M73.92 220.32L74.401 220.32L74.401 220.8L73.92 220.8z" stroke="none" fill="#BFBFBF" fill-rule="nonzero" /><path id="1371" transform="matrix(1 0 0 -1 0 842)" d="M74.4 220.32L267.12 220.32L267.12 220.8L74.4 220.8z" stroke="none" fill="#BFBFBF" fill-rule="nonzero" /><path id="1372" transform="matrix(1 0 0 -1 0 842)" d="M267.12 220.32L267.6 220.32L267.6 220.8L267.12 220.8z" stroke="none" fill="#BFBFBF" fill-rule="nonzero" /><path id="1373" transform="matrix(1 0 0 -1 0 842)" d="M267.6 220.32L386.64 220.32L386.64 220.8L267.6 220.8z" stroke="none" fill="#BFBFBF" fill-rule="nonzero" /><path id="1374" transform="matrix(1 0 0 -1 0 842)" d="M386.64 220.32L387.12 220.32L387.12 220.8L386.64 220.8z" stroke="none" fill="#BFBFBF" fill-rule="nonzero" /><path id="1375" transform="matrix(1 0 0 -1 0 842)" d="M387.12 220.32L507.72 220.32L507.72 220.8L387.12 220.8z" stroke="none" fill="#BFBFBF" fill-rule="nonzero" /><path id="1376" transform="matrix(1 0 0 -1 0 842)" d="M507.72 220.32L508.201 220.32L508.201 220.8L507.72 220.8z" stroke="none" fill="#BFBFBF" fill-rule="nonzero" /><path id="1377" transform="matrix(1 0 0 -1 0 842)" d="M73.92 198.6L74.401 198.6L74.401 220.32L73.92 220.32z" stroke="none" fill="#BFBFBF" fill-rule="nonzero" /><path id="1378" transform="matrix(1 0 0 -1 0 842)" d="M267.12 198.6L267.6 198.6L267.6 220.32L267.12 220.32z" stroke="none" fill="#BFBFBF" fill-rule="nonzero" /><path id="1379" transform="matrix(1 0 0 -1 0 842)" d="M386.64 198.6L387.12 198.6L387.12 220.32L386.64 220.32z" stroke="none" fill="#BFBFBF" fill-rule="nonzero" /><path id="1380" transform="matrix(1 0 0 -1 0 842)" d="M507.72 198.6L508.201 198.6L508.201 220.32L507.72 220.32z" stroke="none" fill="#BFBFBF" fill-rule="nonzero" /><g clip-path="url(#34)"></g><g clip-path="url(#35)"></g><g clip-path="url(#36)"></g><g clip-path="url(#37)"></g><g clip-path="url(#38)"></g><g clip-path="url(#39)"></g><path id="1395" transform="matrix(1 0 0 -1 0 842)" d="M73.92 198.12L74.401 198.12L74.401 198.601L73.92 198.601z" stroke="none" fill="#BFBFBF" fill-rule="nonzero" /><path id="1396" transform="matrix(1 0 0 -1 0 842)" d="M74.4 198.12L267.12 198.12L267.12 198.601L74.4 198.601z" stroke="none" fill="#BFBFBF" fill-rule="nonzero" /><path id="1397" transform="matrix(1 0 0 -1 0 842)" d="M267.12 198.12L267.6 198.12L267.6 198.601L267.12 198.601z" stroke="none" fill="#BFBFBF" fill-rule="nonzero" /><path id="1398" transform="matrix(1 0 0 -1 0 842)" d="M267.6 198.12L386.64 198.12L386.64 198.601L267.6 198.601z" stroke="none" fill="#BFBFBF" fill-rule="nonzero" /><path id="1399" transform="matrix(1 0 0 -1 0 842)" d="M386.64 198.12L387.12 198.12L387.12 198.601L386.64 198.601z" stroke="none" fill="#BFBFBF" fill-rule="nonzero" /><path id="1400" transform="matrix(1 0 0 -1 0 842)" d="M387.12 198.12L507.72 198.12L507.72 198.601L387.12 198.601z" stroke="none" fill="#BFBFBF" fill-rule="nonzero" /><path id="1401" transform="matrix(1 0 0 -1 0 842)" d="M507.72 198.12L508.201 198.12L508.201 198.601L507.72 198.601z" stroke="none" fill="#BFBFBF" fill-rule="nonzero" /><path id="1402" transform="matrix(1 0 0 -1 0 842)" d="M73.92 176.52L74.401 176.52L74.401 198.12L73.92 198.12z" stroke="none" fill="#BFBFBF" fill-rule="nonzero" /><path id="1403" transform="matrix(1 0 0 -1 0 842)" d="M267.12 176.52L267.6 176.52L267.6 198.12L267.12 198.12z" stroke="none" fill="#BFBFBF" fill-rule="nonzero" /><path id="1404" transform="matrix(1 0 0 -1 0 842)" d="M386.64 176.52L387.12 176.52L387.12 198.12L386.64 198.12z" stroke="none" fill="#BFBFBF" fill-rule="nonzero" /><path id="1405" transform="matrix(1 0 0 -1 0 842)" d="M507.72 176.52L508.201 176.52L508.201 198.12L507.72 198.12z" stroke="none" fill="#BFBFBF" fill-rule="nonzero" /><path id="1406" transform="matrix(1 0 0 -1 0 842)" d="M74.4 154.44L267 154.44L267 154.44L267 176.04L267 176.04L74.4 176.04z" stroke="none" fill="#F2F2F2" fill-rule="evenodd" /><path id="1407" transform="matrix(1 0 0 -1 0 842)" d="M79.56 160.08L261.84 160.08L261.84 176.04L79.56 176.04z" stroke="none" fill="#F2F2F2" fill-rule="nonzero" /><g clip-path="url(#40)"></g><g clip-path="url(#41)"></g><path id="1421" transform="matrix(1 0 0 -1 0 842)" d="M267.6 154.44L386.64 154.44L386.64 154.44L386.64 176.04L386.64 176.04L267.6 176.04z" stroke="none" fill="#F2F2F2" fill-rule="evenodd" /><path id="1422" transform="matrix(1 0 0 -1 0 842)" d="M272.64 160.08L381.481 160.08L381.481 176.04L272.64 176.04z" stroke="none" fill="#F2F2F2" fill-rule="nonzero" /><g clip-path="url(#42)"></g><g clip-path="url(#43)"></g><path id="1427" transform="matrix(1 0 0 -1 0 842)" d="M387.12 154.44L507.72 154.44L507.72 154.44L507.72 176.04L507.72 176.04L387.12 176.04z" stroke="none" fill="#F2F2F2" fill-rule="evenodd" /><path id="1428" transform="matrix(1 0 0 -1 0 842)" d="M392.28 160.08L502.56 160.08L502.56 176.04L392.28 176.04z" stroke="none" fill="#F2F2F2" fill-rule="nonzero" /><g clip-path="url(#44)"></g><g clip-path="url(#45)"></g><path id="1432" transform="matrix(1 0 0 -1 0 842)" d="M73.92 176.04L74.401 176.04L74.401 176.52L73.92 176.52z" stroke="none" fill="#BFBFBF" fill-rule="nonzero" /><path id="1433" transform="matrix(1 0 0 -1 0 842)" d="M74.4 176.04L267.12 176.04L267.12 176.52L74.4 176.52z" stroke="none" fill="#BFBFBF" fill-rule="nonzero" /><path id="1434" transform="matrix(1 0 0 -1 0 842)" d="M267.12 176.04L267.6 176.04L267.6 176.52L267.12 176.52z" stroke="none" fill="#BFBFBF" fill-rule="nonzero" /><path id="1435" transform="matrix(1 0 0 -1 0 842)" d="M267.6 176.04L386.64 176.04L386.64 176.52L267.6 176.52z" stroke="none" fill="#BFBFBF" fill-rule="nonzero" /><path id="1436" transform="matrix(1 0 0 -1 0 842)" d="M386.64 176.04L387.12 176.04L387.12 176.52L386.64 176.52z" stroke="none" fill="#BFBFBF" fill-rule="nonzero" /><path id="1437" transform="matrix(1 0 0 -1 0 842)" d="M387.12 176.04L507.72 176.04L507.72 176.52L387.12 176.52z" stroke="none" fill="#BFBFBF" fill-rule="nonzero" /><path id="1438" transform="matrix(1 0 0 -1 0 842)" d="M507.72 176.04L508.201 176.04L508.201 176.52L507.72 176.52z" stroke="none" fill="#BFBFBF" fill-rule="nonzero" /><path id="1439" transform="matrix(1 0 0 -1 0 842)" d="M73.92 154.44L74.401 154.44L74.401 176.04L73.92 176.04z" stroke="none" fill="#BFBFBF" fill-rule="nonzero" /><path id="1440" transform="matrix(1 0 0 -1 0 842)" d="M267.12 154.44L267.6 154.44L267.6 176.04L267.12 176.04z" stroke="none" fill="#BFBFBF" fill-rule="nonzero" /><path id="1441" transform="matrix(1 0 0 -1 0 842)" d="M386.64 154.44L387.12 154.44L387.12 176.04L386.64 176.04z" stroke="none" fill="#BFBFBF" fill-rule="nonzero" /><path id="1442" transform="matrix(1 0 0 -1 0 842)" d="M507.72 154.44L508.201 154.44L508.201 176.04L507.72 176.04z" stroke="none" fill="#BFBFBF" fill-rule="nonzero" /><g clip-path="url(#46)"></g><g clip-path="url(#47)"></g><g clip-path="url(#48)"></g><g clip-path="url(#49)"></g><g clip-path="url(#50)"></g><g clip-path="url(#51)"></g><path id="1473" transform="matrix(1 0 0 -1 0 842)" d="M73.92 153.96L74.401 153.96L74.401 154.44L73.92 154.44z" stroke="none" fill="#BFBFBF" fill-rule="nonzero" /><path id="1474" transform="matrix(1 0 0 -1 0 842)" d="M74.4 153.96L267.12 153.96L267.12 154.44L74.4 154.44z" stroke="none" fill="#BFBFBF" fill-rule="nonzero" /><path id="1475" transform="matrix(1 0 0 -1 0 842)" d="M267.12 153.96L267.6 153.96L267.6 154.44L267.12 154.44z" stroke="none" fill="#BFBFBF" fill-rule="nonzero" /><path id="1476" transform="matrix(1 0 0 -1 0 842)" d="M267.6 153.96L386.64 153.96L386.64 154.44L267.6 154.44z" stroke="none" fill="#BFBFBF" fill-rule="nonzero" /><path id="1477" transform="matrix(1 0 0 -1 0 842)" d="M386.64 153.96L387.12 153.96L387.12 154.44L386.64 154.44z" stroke="none" fill="#BFBFBF" fill-rule="nonzero" /><path id="1478" transform="matrix(1 0 0 -1 0 842)" d="M387.12 153.96L507.72 153.96L507.72 154.44L387.12 154.44z" stroke="none" fill="#BFBFBF" fill-rule="nonzero" /><path id="1479" transform="matrix(1 0 0 -1 0 842)" d="M507.72 153.96L508.201 153.96L508.201 154.44L507.72 154.44z" stroke="none" fill="#BFBFBF" fill-rule="nonzero" /><path id="1480" transform="matrix(1 0 0 -1 0 842)" d="M73.92 132.36L74.401 132.36L74.401 153.96L73.92 153.96z" stroke="none" fill="#BFBFBF" fill-rule="nonzero" /><path id="1481" transform="matrix(1 0 0 -1 0 842)" d="M73.92 131.88L74.401 131.88L74.401 132.361L73.92 132.361z" stroke="none" fill="#BFBFBF" fill-rule="nonzero" /><path id="1482" transform="matrix(1 0 0 -1 0 842)" d="M73.92 131.88L74.401 131.88L74.401 132.361L73.92 132.361z" stroke="none" fill="#BFBFBF" fill-rule="nonzero" /><path id="1483" transform="matrix(1 0 0 -1 0 842)" d="M74.4 131.88L267.12 131.88L267.12 132.361L74.4 132.361z" stroke="none" fill="#BFBFBF" fill-rule="nonzero" /><path id="1484" transform="matrix(1 0 0 -1 0 842)" d="M267.12 132.36L267.6 132.36L267.6 153.96L267.12 153.96z" stroke="none" fill="#BFBFBF" fill-rule="nonzero" /><path id="1485" transform="matrix(1 0 0 -1 0 842)" d="M267.12 131.88L267.6 131.88L267.6 132.361L267.12 132.361z" stroke="none" fill="#BFBFBF" fill-rule="nonzero" /><path id="1486" transform="matrix(1 0 0 -1 0 842)" d="M267.6 131.88L386.64 131.88L386.64 132.361L267.6 132.361z" stroke="none" fill="#BFBFBF" fill-rule="nonzero" /><path id="1487" transform="matrix(1 0 0 -1 0 842)" d="M386.64 132.36L387.12 132.36L387.12 153.96L386.64 153.96z" stroke="none" fill="#BFBFBF" fill-rule="nonzero" /><path id="1488" transform="matrix(1 0 0 -1 0 842)" d="M386.64 131.88L387.12 131.88L387.12 132.361L386.64 132.361z" stroke="none" fill="#BFBFBF" fill-rule="nonzero" /><path id="1489" transform="matrix(1 0 0 -1 0 842)" d="M387.12 131.88L507.72 131.88L507.72 132.361L387.12 132.361z" stroke="none" fill="#BFBFBF" fill-rule="nonzero" /><path id="1490" transform="matrix(1 0 0 -1 0 842)" d="M507.72 132.36L508.201 132.36L508.201 153.96L507.72 153.96z" stroke="none" fill="#BFBFBF" fill-rule="nonzero" /><path id="1491" transform="matrix(1 0 0 -1 0 842)" d="M507.72 131.88L508.201 131.88L508.201 132.361L507.72 132.361z" stroke="none" fill="#BFBFBF" fill-rule="nonzero" /><path id="1492" transform="matrix(1 0 0 -1 0 842)" d="M507.72 131.88L508.201 131.88L508.201 132.361L507.72 132.361z" stroke="none" fill="#BFBFBF" fill-rule="nonzero" /></g></g></svg>