<svg xmlns="http://www.w3.org/2000/svg" xmlns:xlink="http://www.w3.org/1999/xlink" id="body_6" preserveAspectRatio="xMinYMin meet" viewBox="0 0 793 1123"><defs><clipPath id="1"><path id="" clip-rule="evenodd" transform="matrix(1 0 0 1 0 0)" d="M0 842L0 -0.03997803L0 -0.03997803L595.56 -0.03997803L595.56 -0.03997803L595.56 842L595.56 842L0 842z" /></clipPath><clipPath id="2"><path id="" clip-rule="evenodd" transform="matrix(1 0 0 1 0 0)" d="M529.44 806.48L542.04 806.48L542.04 806.48L542.04 792.32L542.04 792.32L529.44 792.32z" /></clipPath><clipPath id="3"><path id="" clip-rule="evenodd" transform="matrix(1 0 0 1 0 0)" d="M529.44 806.48L542.04 806.48L542.04 806.48L542.04 792.32L542.04 792.32L529.44 792.32z" /></clipPath><clipPath id="4"><path id="" clip-rule="evenodd" transform="matrix(1 0 0 1 0 0)" d="M125.76 387.56L517.68 387.56L517.68 387.56L517.68 23.95996L517.68 23.95996L125.76 23.95996z" /></clipPath><clipPath id="5"><path id="" clip-rule="evenodd" transform="matrix(1 0 0 1 0 0)" d="M125.76 387.56L517.68 387.56L517.68 387.56L517.68 23.95996L517.68 23.95996L125.76 23.95996z" /></clipPath><clipPath id="6"><path id="" clip-rule="evenodd" transform="matrix(1 0 0 1 0 0)" d="M125.76 387.56L517.68 387.56L517.68 387.56L517.68 23.95996L517.68 23.95996L125.76 23.95996z" /></clipPath><clipPath id="7"><path id="" clip-rule="evenodd" transform="matrix(1 0 0 1 0 0)" d="M125.76 387.56L517.68 387.56L517.68 387.56L517.68 23.95996L517.68 23.95996L125.76 23.95996z" /></clipPath><clipPath id="8"><path id="" clip-rule="evenodd" transform="matrix(1 0 0 1 0 0)" d="M125.76 387.56L517.68 387.56L517.68 387.56L517.68 23.95996L517.68 23.95996L125.76 23.95996z" /></clipPath><clipPath id="9"><path id="" clip-rule="evenodd" transform="matrix(1 0 0 1 0 0)" d="M125.76 387.56L517.68 387.56L517.68 387.56L517.68 23.95996L517.68 23.95996L125.76 23.95996z" /></clipPath><clipPath id="10"><path id="" clip-rule="evenodd" transform="matrix(1 0 0 1 0 0)" d="M125.76 387.56L517.68 387.56L517.68 387.56L517.68 23.95996L517.68 23.95996L125.76 23.95996z" /></clipPath><clipPath id="11"><path id="" clip-rule="evenodd" transform="matrix(1 0 0 1 0 0)" d="M125.76 387.56L517.68 387.56L517.68 387.56L517.68 23.95996L517.68 23.95996L125.76 23.95996z" /></clipPath><clipPath id="12"><path id="" clip-rule="evenodd" transform="matrix(1 0 0 1 0 0)" d="M125.76 387.56L517.68 387.56L517.68 387.56L517.68 23.95996L517.68 23.95996L125.76 23.95996z" /></clipPath><clipPath id="13"><path id="" clip-rule="evenodd" transform="matrix(1 0 0 1 0 0)" d="M125.76 387.56L517.68 387.56L517.68 387.56L517.68 23.95996L517.68 23.95996L125.76 23.95996z" /></clipPath><clipPath id="14"><path id="" clip-rule="evenodd" transform="matrix(1 0 0 1 0 0)" d="M125.76 387.56L517.68 387.56L517.68 387.56L517.68 23.95996L517.68 23.95996L125.76 23.95996z" /></clipPath><clipPath id="15"><path id="" clip-rule="evenodd" transform="matrix(1 0 0 1 0 0)" d="M125.76 387.56L517.68 387.56L517.68 387.56L517.68 23.95996L517.68 23.95996L125.76 23.95996z" /></clipPath><clipPath id="16"><path id="" clip-rule="evenodd" transform="matrix(1 0 0 1 0 0)" d="M74.04 748.88L96.72 748.88L96.72 748.88L96.72 387.561L96.72 387.561L74.04 387.561z" /></clipPath><clipPath id="17"><path id="" clip-rule="evenodd" transform="matrix(1 0 0 1 0 0)" d="M74.04 748.88L96.72 748.88L96.72 748.88L96.72 387.561L96.72 387.561L74.04 387.561z" /></clipPath><clipPath id="18"><path id="" clip-rule="evenodd" transform="matrix(1 0 0 1 0 0)" d="M96.72 748.88L125.759 748.88L125.759 748.88L125.759 387.561L125.759 387.561L96.72 387.561z" /></clipPath><clipPath id="19"><path id="" clip-rule="evenodd" transform="matrix(1 0 0 1 0 0)" d="M96.72 748.88L125.759 748.88L125.759 748.88L125.759 387.561L125.759 387.561L96.72 387.561z" /></clipPath><clipPath id="20"><path id="" clip-rule="evenodd" transform="matrix(1 0 0 1 0 0)" d="M125.76 748.88L517.68 748.88L517.68 748.88L517.68 387.561L517.68 387.561L125.76 387.561z" /></clipPath><clipPath id="21"><path id="" clip-rule="evenodd" transform="matrix(1 0 0 1 0 0)" d="M125.76 748.88L517.68 748.88L517.68 748.88L517.68 387.561L517.68 387.561L125.76 387.561z" /></clipPath><clipPath id="22"><path id="" clip-rule="evenodd" transform="matrix(1 0 0 1 0 0)" d="M125.76 748.88L517.68 748.88L517.68 748.88L517.68 387.561L517.68 387.561L125.76 387.561z" /></clipPath><clipPath id="23"><path id="" clip-rule="evenodd" transform="matrix(1 0 0 1 0 0)" d="M125.76 748.88L517.68 748.88L517.68 748.88L517.68 387.561L517.68 387.561L125.76 387.561z" /></clipPath><clipPath id="24"><path id="" clip-rule="evenodd" transform="matrix(1 0 0 1 0 0)" d="M125.76 748.88L517.68 748.88L517.68 748.88L517.68 387.561L517.68 387.561L125.76 387.561z" /></clipPath><clipPath id="25"><path id="" clip-rule="evenodd" transform="matrix(1 0 0 1 0 0)" d="M125.76 748.88L517.68 748.88L517.68 748.88L517.68 387.561L517.68 387.561L125.76 387.561z" /></clipPath><clipPath id="26"><path id="" clip-rule="evenodd" transform="matrix(1 0 0 1 0 0)" d="M125.76 748.88L517.68 748.88L517.68 748.88L517.68 387.561L517.68 387.561L125.76 387.561z" /></clipPath><clipPath id="27"><path id="" clip-rule="evenodd" transform="matrix(1 0 0 1 0 0)" d="M125.76 748.88L517.68 748.88L517.68 748.88L517.68 387.561L517.68 387.561L125.76 387.561z" /></clipPath><clipPath id="28"><path id="" clip-rule="evenodd" transform="matrix(1 0 0 1 0 0)" d="M125.76 748.88L517.68 748.88L517.68 748.88L517.68 387.561L517.68 387.561L125.76 387.561z" /></clipPath><clipPath id="29"><path id="" clip-rule="evenodd" transform="matrix(1 0 0 1 0 0)" d="M125.76 748.88L517.68 748.88L517.68 748.88L517.68 387.561L517.68 387.561L125.76 387.561z" /></clipPath><clipPath id="30"><path id="" clip-rule="evenodd" transform="matrix(1 0 0 1 0 0)" d="M125.76 748.88L517.68 748.88L517.68 748.88L517.68 387.561L517.68 387.561L125.76 387.561z" /></clipPath><clipPath id="31"><path id="" clip-rule="evenodd" transform="matrix(1 0 0 1 0 0)" d="M517.68 748.88L533.52 748.88L533.52 748.88L533.52 387.561L533.52 387.561L517.68 387.561z" /></clipPath><clipPath id="32"><path id="" clip-rule="evenodd" transform="matrix(1 0 0 1 0 0)" d="M517.68 748.88L533.52 748.88L533.52 748.88L533.52 387.561L533.52 387.561L517.68 387.561z" /></clipPath><clipPath id="33"><path id="" clip-rule="evenodd" transform="matrix(1 0 0 1 0 0)" d="M74.04 775.64L96.72 775.64L96.72 775.64L96.72 748.879L96.72 748.879L74.04 748.879z" /></clipPath><clipPath id="34"><path id="" clip-rule="evenodd" transform="matrix(1 0 0 1 0 0)" d="M96.72 775.64L125.759 775.64L125.759 775.64L125.759 748.879L125.759 748.879L96.72 748.879z" /></clipPath><clipPath id="35"><path id="" clip-rule="evenodd" transform="matrix(1 0 0 1 0 0)" d="M96.72 775.64L125.759 775.64L125.759 775.64L125.759 748.879L125.759 748.879L96.72 748.879z" /></clipPath><clipPath id="36"><path id="" clip-rule="evenodd" transform="matrix(1 0 0 1 0 0)" d="M125.76 775.64L517.68 775.64L517.68 775.64L517.68 748.879L517.68 748.879L125.76 748.879z" /></clipPath><clipPath id="37"><path id="" clip-rule="evenodd" transform="matrix(1 0 0 1 0 0)" d="M125.76 775.64L517.68 775.64L517.68 775.64L517.68 748.879L517.68 748.879L125.76 748.879z" /></clipPath><clipPath id="38"><path id="" clip-rule="evenodd" transform="matrix(1 0 0 1 0 0)" d="M125.76 775.64L517.68 775.64L517.68 775.64L517.68 748.879L517.68 748.879L125.76 748.879z" /></clipPath><clipPath id="39"><path id="" clip-rule="evenodd" transform="matrix(1 0 0 1 0 0)" d="M125.76 775.64L517.68 775.64L517.68 775.64L517.68 748.879L517.68 748.879L125.76 748.879z" /></clipPath><clipPath id="40"><path id="" clip-rule="evenodd" transform="matrix(1 0 0 1 0 0)" d="M125.76 775.64L517.68 775.64L517.68 775.64L517.68 748.879L517.68 748.879L125.76 748.879z" /></clipPath><clipPath id="41"><path id="" clip-rule="evenodd" transform="matrix(1 0 0 1 0 0)" d="M125.76 775.64L517.68 775.64L517.68 775.64L517.68 748.879L517.68 748.879L125.76 748.879z" /></clipPath><clipPath id="42"><path id="" clip-rule="evenodd" transform="matrix(1 0 0 1 0 0)" d="M125.76 775.64L517.68 775.64L517.68 775.64L517.68 748.879L517.68 748.879L125.76 748.879z" /></clipPath><clipPath id="43"><path id="" clip-rule="evenodd" transform="matrix(1 0 0 1 0 0)" d="M125.76 775.64L517.68 775.64L517.68 775.64L517.68 748.879L517.68 748.879L125.76 748.879z" /></clipPath><clipPath id="44"><path id="" clip-rule="evenodd" transform="matrix(1 0 0 1 0 0)" d="M125.76 775.64L517.68 775.64L517.68 775.64L517.68 748.879L517.68 748.879L125.76 748.879z" /></clipPath><clipPath id="45"><path id="" clip-rule="evenodd" transform="matrix(1 0 0 1 0 0)" d="M125.76 775.64L517.68 775.64L517.68 775.64L517.68 748.879L517.68 748.879L125.76 748.879z" /></clipPath><clipPath id="46"><path id="" clip-rule="evenodd" transform="matrix(1 0 0 1 0 0)" d="M125.76 775.64L517.68 775.64L517.68 775.64L517.68 748.879L517.68 748.879L125.76 748.879z" /></clipPath><clipPath id="47"><path id="" clip-rule="evenodd" transform="matrix(1 0 0 1 0 0)" d="M125.76 775.64L517.68 775.64L517.68 775.64L517.68 748.879L517.68 748.879L125.76 748.879z" /></clipPath><clipPath id="48"><path id="" clip-rule="evenodd" transform="matrix(1 0 0 1 0 0)" d="M517.68 775.64L533.52 775.64L533.52 775.64L533.52 748.879L533.52 748.879L517.68 748.879z" /></clipPath><clipPath id="49"><path id="" clip-rule="evenodd" transform="matrix(1 0 0 1 0 0)" d="M517.68 775.64L533.52 775.64L533.52 775.64L533.52 748.879L533.52 748.879L517.68 748.879z" /></clipPath></defs><g transform="matrix(1.333333 0 0 1.333333 0 0)"><g clip-path="url(#1)"><g clip-path="url(#2)"></g><g clip-path="url(#3)"></g><g clip-path="url(#4)"></g><g clip-path="url(#5)"></g><g clip-path="url(#6)"></g><g clip-path="url(#7)"></g><g clip-path="url(#8)"></g><g clip-path="url(#9)"></g><g clip-path="url(#10)"></g><g clip-path="url(#11)"></g><g clip-path="url(#12)"></g><g clip-path="url(#13)"></g><g clip-path="url(#14)"></g><g clip-path="url(#15)"></g><g clip-path="url(#16)"></g><g clip-path="url(#17)"></g><g clip-path="url(#18)"></g><g clip-path="url(#19)"></g><g clip-path="url(#20)"></g><g clip-path="url(#21)"></g><g clip-path="url(#22)"></g><g clip-path="url(#23)"></g><g clip-path="url(#24)"></g><g clip-path="url(#25)"></g><g clip-path="url(#26)"></g><g clip-path="url(#27)"></g><g clip-path="url(#28)"></g><g clip-path="url(#29)"></g><path id="1141" transform="matrix(1 0 0 -1 0 842)" d="M125.76 427.08L126.241 427.08L126.241 427.561L125.76 427.561z" stroke="none" fill="#BFBFBF" fill-rule="nonzero" /><path id="1142" transform="matrix(1 0 0 -1 0 842)" d="M125.76 427.08L126.241 427.08L126.241 427.561L125.76 427.561z" stroke="none" fill="#BFBFBF" fill-rule="nonzero" /><path id="1143" transform="matrix(1 0 0 -1 0 842)" d="M126.24 427.08L287.16 427.08L287.16 427.561L126.24 427.561z" stroke="none" fill="#BFBFBF" fill-rule="nonzero" /><path id="1144" transform="matrix(1 0 0 -1 0 842)" d="M287.16 427.08L287.64 427.08L287.64 427.561L287.16 427.561z" stroke="none" fill="#BFBFBF" fill-rule="nonzero" /><path id="1145" transform="matrix(1 0 0 -1 0 842)" d="M287.64 427.08L517.2 427.08L517.2 427.561L287.64 427.561z" stroke="none" fill="#BFBFBF" fill-rule="nonzero" /><path id="1146" transform="matrix(1 0 0 -1 0 842)" d="M517.2 427.08L517.68 427.08L517.68 427.561L517.2 427.561z" stroke="none" fill="#BFBFBF" fill-rule="nonzero" /><path id="1147" transform="matrix(1 0 0 -1 0 842)" d="M517.2 427.08L517.68 427.08L517.68 427.561L517.2 427.561z" stroke="none" fill="#BFBFBF" fill-rule="nonzero" /><path id="1148" transform="matrix(1 0 0 -1 0 842)" d="M125.76 399L126.241 399L126.241 427.08L125.76 427.08z" stroke="none" fill="#BFBFBF" fill-rule="nonzero" /><path id="1149" transform="matrix(1 0 0 -1 0 842)" d="M287.16 399L287.64 399L287.64 427.08L287.16 427.08z" stroke="none" fill="#BFBFBF" fill-rule="nonzero" /><path id="1150" transform="matrix(1 0 0 -1 0 842)" d="M517.2 399L517.68 399L517.68 427.08L517.2 427.08z" stroke="none" fill="#BFBFBF" fill-rule="nonzero" /><path id="1349" transform="matrix(1 0 0 -1 0 842)" d="M125.76 398.52L126.241 398.52L126.241 399L125.76 399z" stroke="none" fill="#BFBFBF" fill-rule="nonzero" /><path id="1350" transform="matrix(1 0 0 -1 0 842)" d="M126.24 398.52L287.16 398.52L287.16 399L126.24 399z" stroke="none" fill="#BFBFBF" fill-rule="nonzero" /><path id="1351" transform="matrix(1 0 0 -1 0 842)" d="M287.16 398.52L287.64 398.52L287.64 399L287.16 399z" stroke="none" fill="#BFBFBF" fill-rule="nonzero" /><path id="1352" transform="matrix(1 0 0 -1 0 842)" d="M287.64 398.52L517.2 398.52L517.2 399L287.64 399z" stroke="none" fill="#BFBFBF" fill-rule="nonzero" /><path id="1353" transform="matrix(1 0 0 -1 0 842)" d="M517.2 398.52L517.68 398.52L517.68 399L517.2 399z" stroke="none" fill="#BFBFBF" fill-rule="nonzero" /><path id="1354" transform="matrix(1 0 0 -1 0 842)" d="M125.76 306.72L126.241 306.72L126.241 398.52L125.76 398.52z" stroke="none" fill="#BFBFBF" fill-rule="nonzero" /><path id="1355" transform="matrix(1 0 0 -1 0 842)" d="M287.16 306.72L287.64 306.72L287.64 398.52L287.16 398.52z" stroke="none" fill="#BFBFBF" fill-rule="nonzero" /><path id="1356" transform="matrix(1 0 0 -1 0 842)" d="M517.2 306.72L517.68 306.72L517.68 398.52L517.2 398.52z" stroke="none" fill="#BFBFBF" fill-rule="nonzero" /><path id="1520" transform="matrix(1 0 0 -1 0 842)" d="M125.76 306.24L126.241 306.24L126.241 306.72L125.76 306.72z" stroke="none" fill="#BFBFBF" fill-rule="nonzero" /><path id="1521" transform="matrix(1 0 0 -1 0 842)" d="M126.24 306.24L287.16 306.24L287.16 306.72L126.24 306.72z" stroke="none" fill="#BFBFBF" fill-rule="nonzero" /><path id="1522" transform="matrix(1 0 0 -1 0 842)" d="M287.16 306.24L287.64 306.24L287.64 306.72L287.16 306.72z" stroke="none" fill="#BFBFBF" fill-rule="nonzero" /><path id="1523" transform="matrix(1 0 0 -1 0 842)" d="M287.64 306.24L517.2 306.24L517.2 306.72L287.64 306.72z" stroke="none" fill="#BFBFBF" fill-rule="nonzero" /><path id="1524" transform="matrix(1 0 0 -1 0 842)" d="M517.2 306.24L517.68 306.24L517.68 306.72L517.2 306.72z" stroke="none" fill="#BFBFBF" fill-rule="nonzero" /><path id="1525" transform="matrix(1 0 0 -1 0 842)" d="M125.76 246.36L126.241 246.36L126.241 306.241L125.76 306.241z" stroke="none" fill="#BFBFBF" fill-rule="nonzero" /><path id="1526" transform="matrix(1 0 0 -1 0 842)" d="M287.16 246.36L287.64 246.36L287.64 306.241L287.16 306.241z" stroke="none" fill="#BFBFBF" fill-rule="nonzero" /><path id="1527" transform="matrix(1 0 0 -1 0 842)" d="M517.2 246.36L517.68 246.36L517.68 306.241L517.2 306.241z" stroke="none" fill="#BFBFBF" fill-rule="nonzero" /><path id="1784" transform="matrix(1 0 0 -1 0 842)" d="M125.76 245.88L126.241 245.88L126.241 246.36L125.76 246.36z" stroke="none" fill="#BFBFBF" fill-rule="nonzero" /><path id="1785" transform="matrix(1 0 0 -1 0 842)" d="M126.24 245.88L287.16 245.88L287.16 246.36L126.24 246.36z" stroke="none" fill="#BFBFBF" fill-rule="nonzero" /><path id="1786" transform="matrix(1 0 0 -1 0 842)" d="M287.16 245.88L287.64 245.88L287.64 246.36L287.16 246.36z" stroke="none" fill="#BFBFBF" fill-rule="nonzero" /><path id="1787" transform="matrix(1 0 0 -1 0 842)" d="M287.64 245.88L517.2 245.88L517.2 246.36L287.64 246.36z" stroke="none" fill="#BFBFBF" fill-rule="nonzero" /><path id="1788" transform="matrix(1 0 0 -1 0 842)" d="M517.2 245.88L517.68 245.88L517.68 246.36L517.2 246.36z" stroke="none" fill="#BFBFBF" fill-rule="nonzero" /><path id="1789" transform="matrix(1 0 0 -1 0 842)" d="M125.76 154.08L126.241 154.08L126.241 245.88L125.76 245.88z" stroke="none" fill="#BFBFBF" fill-rule="nonzero" /><path id="1790" transform="matrix(1 0 0 -1 0 842)" d="M287.16 154.08L287.64 154.08L287.64 245.88L287.16 245.88z" stroke="none" fill="#BFBFBF" fill-rule="nonzero" /><path id="1791" transform="matrix(1 0 0 -1 0 842)" d="M517.2 154.08L517.68 154.08L517.68 245.88L517.2 245.88z" stroke="none" fill="#BFBFBF" fill-rule="nonzero" /><path id="1917" transform="matrix(1 0 0 -1 0 842)" d="M125.76 153.6L126.241 153.6L126.241 154.08L125.76 154.08z" stroke="none" fill="#BFBFBF" fill-rule="nonzero" /><path id="1918" transform="matrix(1 0 0 -1 0 842)" d="M126.24 153.6L287.16 153.6L287.16 154.08L126.24 154.08z" stroke="none" fill="#BFBFBF" fill-rule="nonzero" /><path id="1919" transform="matrix(1 0 0 -1 0 842)" d="M287.16 153.6L287.64 153.6L287.64 154.08L287.16 154.08z" stroke="none" fill="#BFBFBF" fill-rule="nonzero" /><path id="1920" transform="matrix(1 0 0 -1 0 842)" d="M287.64 153.6L517.2 153.6L517.2 154.08L287.64 154.08z" stroke="none" fill="#BFBFBF" fill-rule="nonzero" /><path id="1921" transform="matrix(1 0 0 -1 0 842)" d="M517.2 153.6L517.68 153.6L517.68 154.08L517.2 154.08z" stroke="none" fill="#BFBFBF" fill-rule="nonzero" /><path id="1922" transform="matrix(1 0 0 -1 0 842)" d="M125.76 93.6L126.241 93.6L126.241 153.6L125.76 153.6z" stroke="none" fill="#BFBFBF" fill-rule="nonzero" /><path id="1923" transform="matrix(1 0 0 -1 0 842)" d="M125.76 93.12L126.241 93.12L126.241 93.60001L125.76 93.60001z" stroke="none" fill="#BFBFBF" fill-rule="nonzero" /><path id="1924" transform="matrix(1 0 0 -1 0 842)" d="M125.76 93.12L126.241 93.12L126.241 93.60001L125.76 93.60001z" stroke="none" fill="#BFBFBF" fill-rule="nonzero" /><path id="1925" transform="matrix(1 0 0 -1 0 842)" d="M126.24 93.12L287.16 93.12L287.16 93.60001L126.24 93.60001z" stroke="none" fill="#BFBFBF" fill-rule="nonzero" /><path id="1926" transform="matrix(1 0 0 -1 0 842)" d="M287.16 93.6L287.64 93.6L287.64 153.6L287.16 153.6z" stroke="none" fill="#BFBFBF" fill-rule="nonzero" /><path id="1927" transform="matrix(1 0 0 -1 0 842)" d="M287.16 93.12L287.64 93.12L287.64 93.60001L287.16 93.60001z" stroke="none" fill="#BFBFBF" fill-rule="nonzero" /><path id="1928" transform="matrix(1 0 0 -1 0 842)" d="M287.64 93.12L517.2 93.12L517.2 93.60001L287.64 93.60001z" stroke="none" fill="#BFBFBF" fill-rule="nonzero" /><path id="1929" transform="matrix(1 0 0 -1 0 842)" d="M517.2 93.6L517.68 93.6L517.68 153.6L517.2 153.6z" stroke="none" fill="#BFBFBF" fill-rule="nonzero" /><path id="1930" transform="matrix(1 0 0 -1 0 842)" d="M517.2 93.12L517.68 93.12L517.68 93.60001L517.2 93.60001z" stroke="none" fill="#BFBFBF" fill-rule="nonzero" /><path id="1931" transform="matrix(1 0 0 -1 0 842)" d="M517.2 93.12L517.68 93.12L517.68 93.60001L517.2 93.60001z" stroke="none" fill="#BFBFBF" fill-rule="nonzero" /><g clip-path="url(#30)"></g><g clip-path="url(#31)"></g><g clip-path="url(#32)"></g><g clip-path="url(#33)"></g><g clip-path="url(#34)"></g><g clip-path="url(#35)"></g><g clip-path="url(#36)"></g><g clip-path="url(#37)"></g><g clip-path="url(#38)"></g><g clip-path="url(#39)"></g><g clip-path="url(#40)"></g><g clip-path="url(#41)"></g><g clip-path="url(#42)"></g><g clip-path="url(#43)"></g><g clip-path="url(#44)"></g><g clip-path="url(#45)"></g><g clip-path="url(#46)"></g><g clip-path="url(#47)"></g><g clip-path="url(#48)"></g><g clip-path="url(#49)"></g></g></g></svg>