<svg xmlns="http://www.w3.org/2000/svg" xmlns:xlink="http://www.w3.org/1999/xlink" id="body_7" preserveAspectRatio="xMinYMin meet" viewBox="0 0 793 1123"><defs><clipPath id="1"><path id="" clip-rule="evenodd" transform="matrix(1 0 0 1 0 0)" d="M0 842L0 -0.03997803L0 -0.03997803L595.56 -0.03997803L595.56 -0.03997803L595.56 842L595.56 842L0 842z" /></clipPath><clipPath id="2"><path id="" clip-rule="evenodd" transform="matrix(1 0 0 1 0 0)" d="M529.44 806.48L542.04 806.48L542.04 806.48L542.04 792.32L542.04 792.32L529.44 792.32z" /></clipPath><clipPath id="3"><path id="" clip-rule="evenodd" transform="matrix(1 0 0 1 0 0)" d="M529.44 806.48L542.04 806.48L542.04 806.48L542.04 792.32L542.04 792.32L529.44 792.32z" /></clipPath><clipPath id="4"><path id="" clip-rule="evenodd" transform="matrix(1 0 0 1 0 0)" d="M125.76 178.52L517.68 178.52L517.68 178.52L517.68 23.96002L517.68 23.96002L125.76 23.96002z" /></clipPath><clipPath id="5"><path id="" clip-rule="evenodd" transform="matrix(1 0 0 1 0 0)" d="M125.76 178.52L517.68 178.52L517.68 178.52L517.68 23.96002L517.68 23.96002L125.76 23.96002z" /></clipPath><clipPath id="6"><path id="" clip-rule="evenodd" transform="matrix(1 0 0 1 0 0)" d="M125.76 178.52L517.68 178.52L517.68 178.52L517.68 23.96002L517.68 23.96002L125.76 23.96002z" /></clipPath><clipPath id="7"><path id="" clip-rule="evenodd" transform="matrix(1 0 0 1 0 0)" d="M125.76 178.52L517.68 178.52L517.68 178.52L517.68 23.96002L517.68 23.96002L125.76 23.96002z" /></clipPath><clipPath id="8"><path id="" clip-rule="evenodd" transform="matrix(1 0 0 1 0 0)" d="M74.04 565.64L96.72 565.64L96.72 565.64L96.72 178.52L96.72 178.52L74.04 178.52z" /></clipPath><clipPath id="9"><path id="" clip-rule="evenodd" transform="matrix(1 0 0 1 0 0)" d="M96.72 565.64L125.759 565.64L125.759 565.64L125.759 178.52L125.759 178.52L96.72 178.52z" /></clipPath><clipPath id="10"><path id="" clip-rule="evenodd" transform="matrix(1 0 0 1 0 0)" d="M96.72 565.64L125.759 565.64L125.759 565.64L125.759 178.52L125.759 178.52L96.72 178.52z" /></clipPath><clipPath id="11"><path id="" clip-rule="evenodd" transform="matrix(1 0 0 1 0 0)" d="M125.76 565.64L517.68 565.64L517.68 565.64L517.68 178.52L517.68 178.52L125.76 178.52z" /></clipPath><clipPath id="12"><path id="" clip-rule="evenodd" transform="matrix(1 0 0 1 0 0)" d="M125.76 565.64L517.68 565.64L517.68 565.64L517.68 178.52L517.68 178.52L125.76 178.52z" /></clipPath><clipPath id="13"><path id="" clip-rule="evenodd" transform="matrix(1 0 0 1 0 0)" d="M125.76 565.64L517.68 565.64L517.68 565.64L517.68 178.52L517.68 178.52L125.76 178.52z" /></clipPath><clipPath id="14"><path id="" clip-rule="evenodd" transform="matrix(1 0 0 1 0 0)" d="M125.76 565.64L517.68 565.64L517.68 565.64L517.68 178.52L517.68 178.52L125.76 178.52z" /></clipPath><clipPath id="15"><path id="" clip-rule="evenodd" transform="matrix(1 0 0 1 0 0)" d="M125.76 565.64L517.68 565.64L517.68 565.64L517.68 178.52L517.68 178.52L125.76 178.52z" /></clipPath><clipPath id="16"><path id="" clip-rule="evenodd" transform="matrix(1 0 0 1 0 0)" d="M125.76 565.64L517.68 565.64L517.68 565.64L517.68 178.52L517.68 178.52L125.76 178.52z" /></clipPath><clipPath id="17"><path id="" clip-rule="evenodd" transform="matrix(1 0 0 1 0 0)" d="M125.76 565.64L517.68 565.64L517.68 565.64L517.68 178.52L517.68 178.52L125.76 178.52z" /></clipPath><clipPath id="18"><path id="" clip-rule="evenodd" transform="matrix(1 0 0 1 0 0)" d="M125.76 565.64L517.68 565.64L517.68 565.64L517.68 178.52L517.68 178.52L125.76 178.52z" /></clipPath><clipPath id="19"><path id="" clip-rule="evenodd" transform="matrix(1 0 0 1 0 0)" d="M125.76 565.64L517.68 565.64L517.68 565.64L517.68 178.52L517.68 178.52L125.76 178.52z" /></clipPath><clipPath id="20"><path id="" clip-rule="evenodd" transform="matrix(1 0 0 1 0 0)" d="M125.76 565.64L517.68 565.64L517.68 565.64L517.68 178.52L517.68 178.52L125.76 178.52z" /></clipPath><clipPath id="21"><path id="" clip-rule="evenodd" transform="matrix(1 0 0 1 0 0)" d="M125.76 565.64L517.68 565.64L517.68 565.64L517.68 178.52L517.68 178.52L125.76 178.52z" /></clipPath><clipPath id="22"><path id="" clip-rule="evenodd" transform="matrix(1 0 0 1 0 0)" d="M125.76 565.64L517.68 565.64L517.68 565.64L517.68 178.52L517.68 178.52L125.76 178.52z" /></clipPath><clipPath id="23"><path id="" clip-rule="evenodd" transform="matrix(1 0 0 1 0 0)" d="M125.76 565.64L517.68 565.64L517.68 565.64L517.68 178.52L517.68 178.52L125.76 178.52z" /></clipPath><clipPath id="24"><path id="" clip-rule="evenodd" transform="matrix(1 0 0 1 0 0)" d="M125.76 565.64L517.68 565.64L517.68 565.64L517.68 178.52L517.68 178.52L125.76 178.52z" /></clipPath><clipPath id="25"><path id="" clip-rule="evenodd" transform="matrix(1 0 0 1 0 0)" d="M125.76 565.64L517.68 565.64L517.68 565.64L517.68 178.52L517.68 178.52L125.76 178.52z" /></clipPath><clipPath id="26"><path id="" clip-rule="evenodd" transform="matrix(1 0 0 1 0 0)" d="M125.76 565.64L517.68 565.64L517.68 565.64L517.68 178.52L517.68 178.52L125.76 178.52z" /></clipPath><clipPath id="27"><path id="" clip-rule="evenodd" transform="matrix(1 0 0 1 0 0)" d="M125.76 565.64L517.68 565.64L517.68 565.64L517.68 178.52L517.68 178.52L125.76 178.52z" /></clipPath><clipPath id="28"><path id="" clip-rule="evenodd" transform="matrix(1 0 0 1 0 0)" d="M125.76 565.64L517.68 565.64L517.68 565.64L517.68 178.52L517.68 178.52L125.76 178.52z" /></clipPath><clipPath id="29"><path id="" clip-rule="evenodd" transform="matrix(1 0 0 1 0 0)" d="M125.76 565.64L517.68 565.64L517.68 565.64L517.68 178.52L517.68 178.52L125.76 178.52z" /></clipPath><clipPath id="30"><path id="" clip-rule="evenodd" transform="matrix(1 0 0 1 0 0)" d="M125.76 565.64L517.68 565.64L517.68 565.64L517.68 178.52L517.68 178.52L125.76 178.52z" /></clipPath><clipPath id="31"><path id="" clip-rule="evenodd" transform="matrix(1 0 0 1 0 0)" d="M125.76 565.64L517.68 565.64L517.68 565.64L517.68 178.52L517.68 178.52L125.76 178.52z" /></clipPath><clipPath id="32"><path id="" clip-rule="evenodd" transform="matrix(1 0 0 1 0 0)" d="M125.76 565.64L517.68 565.64L517.68 565.64L517.68 178.52L517.68 178.52L125.76 178.52z" /></clipPath><clipPath id="33"><path id="" clip-rule="evenodd" transform="matrix(1 0 0 1 0 0)" d="M125.76 565.64L517.68 565.64L517.68 565.64L517.68 178.52L517.68 178.52L125.76 178.52z" /></clipPath><clipPath id="34"><path id="" clip-rule="evenodd" transform="matrix(1 0 0 1 0 0)" d="M125.76 565.64L517.68 565.64L517.68 565.64L517.68 178.52L517.68 178.52L125.76 178.52z" /></clipPath><clipPath id="35"><path id="" clip-rule="evenodd" transform="matrix(1 0 0 1 0 0)" d="M125.76 565.64L517.68 565.64L517.68 565.64L517.68 178.52L517.68 178.52L125.76 178.52z" /></clipPath><clipPath id="36"><path id="" clip-rule="evenodd" transform="matrix(1 0 0 1 0 0)" d="M125.76 565.64L517.68 565.64L517.68 565.64L517.68 178.52L517.68 178.52L125.76 178.52z" /></clipPath><clipPath id="37"><path id="" clip-rule="evenodd" transform="matrix(1 0 0 1 0 0)" d="M125.76 565.64L517.68 565.64L517.68 565.64L517.68 178.52L517.68 178.52L125.76 178.52z" /></clipPath><clipPath id="38"><path id="" clip-rule="evenodd" transform="matrix(1 0 0 1 0 0)" d="M125.76 565.64L517.68 565.64L517.68 565.64L517.68 178.52L517.68 178.52L125.76 178.52z" /></clipPath><clipPath id="39"><path id="" clip-rule="evenodd" transform="matrix(1 0 0 1 0 0)" d="M125.76 565.64L517.68 565.64L517.68 565.64L517.68 178.52L517.68 178.52L125.76 178.52z" /></clipPath><clipPath id="40"><path id="" clip-rule="evenodd" transform="matrix(1 0 0 1 0 0)" d="M125.76 565.64L517.68 565.64L517.68 565.64L517.68 178.52L517.68 178.52L125.76 178.52z" /></clipPath><clipPath id="41"><path id="" clip-rule="evenodd" transform="matrix(1 0 0 1 0 0)" d="M125.76 565.64L517.68 565.64L517.68 565.64L517.68 178.52L517.68 178.52L125.76 178.52z" /></clipPath><clipPath id="42"><path id="" clip-rule="evenodd" transform="matrix(1 0 0 1 0 0)" d="M125.76 565.64L517.68 565.64L517.68 565.64L517.68 178.52L517.68 178.52L125.76 178.52z" /></clipPath><clipPath id="43"><path id="" clip-rule="evenodd" transform="matrix(1 0 0 1 0 0)" d="M125.76 565.64L517.68 565.64L517.68 565.64L517.68 178.52L517.68 178.52L125.76 178.52z" /></clipPath><clipPath id="44"><path id="" clip-rule="evenodd" transform="matrix(1 0 0 1 0 0)" d="M125.76 565.64L517.68 565.64L517.68 565.64L517.68 178.52L517.68 178.52L125.76 178.52z" /></clipPath><clipPath id="45"><path id="" clip-rule="evenodd" transform="matrix(1 0 0 1 0 0)" d="M125.76 565.64L517.68 565.64L517.68 565.64L517.68 178.52L517.68 178.52L125.76 178.52z" /></clipPath><clipPath id="46"><path id="" clip-rule="evenodd" transform="matrix(1 0 0 1 0 0)" d="M125.76 565.64L517.68 565.64L517.68 565.64L517.68 178.52L517.68 178.52L125.76 178.52z" /></clipPath><clipPath id="47"><path id="" clip-rule="evenodd" transform="matrix(1 0 0 1 0 0)" d="M125.76 565.64L517.68 565.64L517.68 565.64L517.68 178.52L517.68 178.52L125.76 178.52z" /></clipPath><clipPath id="48"><path id="" clip-rule="evenodd" transform="matrix(1 0 0 1 0 0)" d="M125.76 565.64L517.68 565.64L517.68 565.64L517.68 178.52L517.68 178.52L125.76 178.52z" /></clipPath><clipPath id="49"><path id="" clip-rule="evenodd" transform="matrix(1 0 0 1 0 0)" d="M125.76 565.64L517.68 565.64L517.68 565.64L517.68 178.52L517.68 178.52L125.76 178.52z" /></clipPath><clipPath id="50"><path id="" clip-rule="evenodd" transform="matrix(1 0 0 1 0 0)" d="M517.68 565.64L533.52 565.64L533.52 565.64L533.52 178.52L533.52 178.52L517.68 178.52z" /></clipPath><clipPath id="51"><path id="" clip-rule="evenodd" transform="matrix(1 0 0 1 0 0)" d="M517.68 565.64L533.52 565.64L533.52 565.64L533.52 178.52L533.52 178.52L517.68 178.52z" /></clipPath><clipPath id="52"><path id="" clip-rule="evenodd" transform="matrix(1 0 0 1 0 0)" d="M74.04 786.68L96.72 786.68L96.72 786.68L96.72 565.64L96.72 565.64L74.04 565.64z" /></clipPath><clipPath id="53"><path id="" clip-rule="evenodd" transform="matrix(1 0 0 1 0 0)" d="M96.72 786.68L125.759 786.68L125.759 786.68L125.759 565.64L125.759 565.64L96.72 565.64z" /></clipPath><clipPath id="54"><path id="" clip-rule="evenodd" transform="matrix(1 0 0 1 0 0)" d="M96.72 786.68L125.759 786.68L125.759 786.68L125.759 565.64L125.759 565.64L96.72 565.64z" /></clipPath><clipPath id="55"><path id="" clip-rule="evenodd" transform="matrix(1 0 0 1 0 0)" d="M125.76 786.68L517.68 786.68L517.68 786.68L517.68 565.64L517.68 565.64L125.76 565.64z" /></clipPath><clipPath id="56"><path id="" clip-rule="evenodd" transform="matrix(1 0 0 1 0 0)" d="M125.76 786.68L517.68 786.68L517.68 786.68L517.68 565.64L517.68 565.64L125.76 565.64z" /></clipPath><clipPath id="57"><path id="" clip-rule="evenodd" transform="matrix(1 0 0 1 0 0)" d="M125.76 786.68L517.68 786.68L517.68 786.68L517.68 565.64L517.68 565.64L125.76 565.64z" /></clipPath><clipPath id="58"><path id="" clip-rule="evenodd" transform="matrix(1 0 0 1 0 0)" d="M125.76 786.68L517.68 786.68L517.68 786.68L517.68 565.64L517.68 565.64L125.76 565.64z" /></clipPath><clipPath id="59"><path id="" clip-rule="evenodd" transform="matrix(1 0 0 1 0 0)" d="M125.76 786.68L517.68 786.68L517.68 786.68L517.68 565.64L517.68 565.64L125.76 565.64z" /></clipPath><clipPath id="60"><path id="" clip-rule="evenodd" transform="matrix(1 0 0 1 0 0)" d="M125.76 786.68L517.68 786.68L517.68 786.68L517.68 565.64L517.68 565.64L125.76 565.64z" /></clipPath><clipPath id="61"><path id="" clip-rule="evenodd" transform="matrix(1 0 0 1 0 0)" d="M125.76 786.68L517.68 786.68L517.68 786.68L517.68 565.64L517.68 565.64L125.76 565.64z" /></clipPath><clipPath id="62"><path id="" clip-rule="evenodd" transform="matrix(1 0 0 1 0 0)" d="M125.76 786.68L517.68 786.68L517.68 786.68L517.68 565.64L517.68 565.64L125.76 565.64z" /></clipPath><clipPath id="63"><path id="" clip-rule="evenodd" transform="matrix(1 0 0 1 0 0)" d="M125.76 786.68L517.68 786.68L517.68 786.68L517.68 565.64L517.68 565.64L125.76 565.64z" /></clipPath><clipPath id="64"><path id="" clip-rule="evenodd" transform="matrix(1 0 0 1 0 0)" d="M125.76 786.68L517.68 786.68L517.68 786.68L517.68 565.64L517.68 565.64L125.76 565.64z" /></clipPath><clipPath id="65"><path id="" clip-rule="evenodd" transform="matrix(1 0 0 1 0 0)" d="M125.76 786.68L517.68 786.68L517.68 786.68L517.68 565.64L517.68 565.64L125.76 565.64z" /></clipPath><clipPath id="66"><path id="" clip-rule="evenodd" transform="matrix(1 0 0 1 0 0)" d="M125.76 786.68L517.68 786.68L517.68 786.68L517.68 565.64L517.68 565.64L125.76 565.64z" /></clipPath><clipPath id="67"><path id="" clip-rule="evenodd" transform="matrix(1 0 0 1 0 0)" d="M125.76 786.68L517.68 786.68L517.68 786.68L517.68 565.64L517.68 565.64L125.76 565.64z" /></clipPath><clipPath id="68"><path id="" clip-rule="evenodd" transform="matrix(1 0 0 1 0 0)" d="M125.76 786.68L517.68 786.68L517.68 786.68L517.68 565.64L517.68 565.64L125.76 565.64z" /></clipPath><clipPath id="69"><path id="" clip-rule="evenodd" transform="matrix(1 0 0 1 0 0)" d="M125.76 786.68L517.68 786.68L517.68 786.68L517.68 565.64L517.68 565.64L125.76 565.64z" /></clipPath><clipPath id="70"><path id="" clip-rule="evenodd" transform="matrix(1 0 0 1 0 0)" d="M125.76 786.68L517.68 786.68L517.68 786.68L517.68 565.64L517.68 565.64L125.76 565.64z" /></clipPath><clipPath id="71"><path id="" clip-rule="evenodd" transform="matrix(1 0 0 1 0 0)" d="M517.68 786.68L533.52 786.68L533.52 786.68L533.52 565.64L533.52 565.64L517.68 565.64z" /></clipPath><clipPath id="72"><path id="" clip-rule="evenodd" transform="matrix(1 0 0 1 0 0)" d="M517.68 786.68L533.52 786.68L533.52 786.68L533.52 565.64L533.52 565.64L517.68 565.64z" /></clipPath></defs><g transform="matrix(1.333333 0 0 1.333333 0 0)"><g clip-path="url(#1)"><g clip-path="url(#2)"></g><g clip-path="url(#3)"></g><g clip-path="url(#4)"></g><g clip-path="url(#5)"></g><g clip-path="url(#6)"></g><g clip-path="url(#7)"></g><g clip-path="url(#8)"></g><g clip-path="url(#9)"></g><g clip-path="url(#10)"></g><g clip-path="url(#11)"></g><g clip-path="url(#12)"></g><g clip-path="url(#13)"></g><g clip-path="url(#14)"></g><g clip-path="url(#15)"></g><g clip-path="url(#16)"></g><g clip-path="url(#17)"></g><g clip-path="url(#18)"></g><g clip-path="url(#19)"></g><g clip-path="url(#20)"></g><g clip-path="url(#21)"></g><g clip-path="url(#22)"></g><g clip-path="url(#23)"></g><g clip-path="url(#24)"></g><g clip-path="url(#25)"></g><g clip-path="url(#26)"></g><g clip-path="url(#27)"></g><g clip-path="url(#28)"></g><g clip-path="url(#29)"></g><g clip-path="url(#30)"></g><g clip-path="url(#31)"></g><g clip-path="url(#32)"></g><g clip-path="url(#33)"></g><g clip-path="url(#34)"></g><g clip-path="url(#35)"></g><g clip-path="url(#36)"></g><g clip-path="url(#37)"></g><g clip-path="url(#38)"></g><g clip-path="url(#39)"></g><g clip-path="url(#40)"></g><g clip-path="url(#41)"></g><g clip-path="url(#42)"></g><g clip-path="url(#43)"></g><g clip-path="url(#44)"></g><g clip-path="url(#45)"></g><g clip-path="url(#46)"></g><g clip-path="url(#47)"></g><g clip-path="url(#48)"></g><g clip-path="url(#49)"></g><g clip-path="url(#50)"></g><g clip-path="url(#51)"></g><g clip-path="url(#52)"></g><g clip-path="url(#53)"></g><g clip-path="url(#54)"></g><g clip-path="url(#55)"></g><g clip-path="url(#56)"></g><g clip-path="url(#57)"></g><g clip-path="url(#58)"></g><g clip-path="url(#59)"></g><g clip-path="url(#60)"></g><g clip-path="url(#61)"></g><g clip-path="url(#62)"></g><g clip-path="url(#63)"></g><g clip-path="url(#64)"></g><g clip-path="url(#65)"></g><g clip-path="url(#66)"></g><g clip-path="url(#67)"></g><g clip-path="url(#68)"></g><g clip-path="url(#69)"></g><g clip-path="url(#70)"></g><path id="1190" transform="matrix(1 0 0 -1 0 842)" d="M125.76 249L126.241 249L126.241 249.48L125.76 249.48z" stroke="none" fill="#BFBFBF" fill-rule="nonzero" /><path id="1191" transform="matrix(1 0 0 -1 0 842)" d="M125.76 249L126.241 249L126.241 249.48L125.76 249.48z" stroke="none" fill="#BFBFBF" fill-rule="nonzero" /><path id="1192" transform="matrix(1 0 0 -1 0 842)" d="M126.24 249L324.24 249L324.24 249.48L126.24 249.48z" stroke="none" fill="#BFBFBF" fill-rule="nonzero" /><path id="1193" transform="matrix(1 0 0 -1 0 842)" d="M324.24 249L324.72 249L324.72 249.48L324.24 249.48z" stroke="none" fill="#BFBFBF" fill-rule="nonzero" /><path id="1194" transform="matrix(1 0 0 -1 0 842)" d="M324.72 249L517.2 249L517.2 249.48L324.72 249.48z" stroke="none" fill="#BFBFBF" fill-rule="nonzero" /><path id="1195" transform="matrix(1 0 0 -1 0 842)" d="M517.2 249L517.68 249L517.68 249.48L517.2 249.48z" stroke="none" fill="#BFBFBF" fill-rule="nonzero" /><path id="1196" transform="matrix(1 0 0 -1 0 842)" d="M517.2 249L517.68 249L517.68 249.48L517.2 249.48z" stroke="none" fill="#BFBFBF" fill-rule="nonzero" /><path id="1197" transform="matrix(1 0 0 -1 0 842)" d="M125.76 220.92L126.241 220.92L126.241 249L125.76 249z" stroke="none" fill="#BFBFBF" fill-rule="nonzero" /><path id="1198" transform="matrix(1 0 0 -1 0 842)" d="M324.24 220.92L324.72 220.92L324.72 249L324.24 249z" stroke="none" fill="#BFBFBF" fill-rule="nonzero" /><path id="1199" transform="matrix(1 0 0 -1 0 842)" d="M517.2 220.92L517.68 220.92L517.68 249L517.2 249z" stroke="none" fill="#BFBFBF" fill-rule="nonzero" /><path id="1319" transform="matrix(1 0 0 -1 0 842)" d="M125.76 220.44L126.241 220.44L126.241 220.921L125.76 220.921z" stroke="none" fill="#BFBFBF" fill-rule="nonzero" /><path id="1320" transform="matrix(1 0 0 -1 0 842)" d="M126.24 220.44L324.24 220.44L324.24 220.921L126.24 220.921z" stroke="none" fill="#BFBFBF" fill-rule="nonzero" /><path id="1321" transform="matrix(1 0 0 -1 0 842)" d="M324.24 220.44L324.72 220.44L324.72 220.921L324.24 220.921z" stroke="none" fill="#BFBFBF" fill-rule="nonzero" /><path id="1322" transform="matrix(1 0 0 -1 0 842)" d="M324.72 220.44L517.2 220.44L517.2 220.921L324.72 220.921z" stroke="none" fill="#BFBFBF" fill-rule="nonzero" /><path id="1323" transform="matrix(1 0 0 -1 0 842)" d="M517.2 220.44L517.68 220.44L517.68 220.921L517.2 220.921z" stroke="none" fill="#BFBFBF" fill-rule="nonzero" /><path id="1324" transform="matrix(1 0 0 -1 0 842)" d="M125.76 160.56L126.241 160.56L126.241 220.44L125.76 220.44z" stroke="none" fill="#BFBFBF" fill-rule="nonzero" /><path id="1325" transform="matrix(1 0 0 -1 0 842)" d="M324.24 160.56L324.72 160.56L324.72 220.44L324.24 220.44z" stroke="none" fill="#BFBFBF" fill-rule="nonzero" /><path id="1326" transform="matrix(1 0 0 -1 0 842)" d="M517.2 160.56L517.68 160.56L517.68 220.44L517.2 220.44z" stroke="none" fill="#BFBFBF" fill-rule="nonzero" /><path id="1429" transform="matrix(1 0 0 -1 0 842)" d="M125.76 160.08L126.241 160.08L126.241 160.56L125.76 160.56z" stroke="none" fill="#BFBFBF" fill-rule="nonzero" /><path id="1430" transform="matrix(1 0 0 -1 0 842)" d="M126.24 160.08L324.24 160.08L324.24 160.56L126.24 160.56z" stroke="none" fill="#BFBFBF" fill-rule="nonzero" /><path id="1431" transform="matrix(1 0 0 -1 0 842)" d="M324.24 160.08L324.72 160.08L324.72 160.56L324.24 160.56z" stroke="none" fill="#BFBFBF" fill-rule="nonzero" /><path id="1432" transform="matrix(1 0 0 -1 0 842)" d="M324.72 160.08L517.2 160.08L517.2 160.56L324.72 160.56z" stroke="none" fill="#BFBFBF" fill-rule="nonzero" /><path id="1433" transform="matrix(1 0 0 -1 0 842)" d="M517.2 160.08L517.68 160.08L517.68 160.56L517.2 160.56z" stroke="none" fill="#BFBFBF" fill-rule="nonzero" /><path id="1434" transform="matrix(1 0 0 -1 0 842)" d="M125.76 116.16L126.241 116.16L126.241 160.08L125.76 160.08z" stroke="none" fill="#BFBFBF" fill-rule="nonzero" /><path id="1435" transform="matrix(1 0 0 -1 0 842)" d="M324.24 116.16L324.72 116.16L324.72 160.08L324.24 160.08z" stroke="none" fill="#BFBFBF" fill-rule="nonzero" /><path id="1436" transform="matrix(1 0 0 -1 0 842)" d="M517.2 116.16L517.68 116.16L517.68 160.08L517.2 160.08z" stroke="none" fill="#BFBFBF" fill-rule="nonzero" /><path id="1567" transform="matrix(1 0 0 -1 0 842)" d="M125.76 115.68L126.241 115.68L126.241 116.161L125.76 116.161z" stroke="none" fill="#BFBFBF" fill-rule="nonzero" /><path id="1568" transform="matrix(1 0 0 -1 0 842)" d="M126.24 115.68L324.24 115.68L324.24 116.161L126.24 116.161z" stroke="none" fill="#BFBFBF" fill-rule="nonzero" /><path id="1569" transform="matrix(1 0 0 -1 0 842)" d="M324.24 115.68L324.72 115.68L324.72 116.161L324.24 116.161z" stroke="none" fill="#BFBFBF" fill-rule="nonzero" /><path id="1570" transform="matrix(1 0 0 -1 0 842)" d="M324.72 115.68L517.2 115.68L517.2 116.161L324.72 116.161z" stroke="none" fill="#BFBFBF" fill-rule="nonzero" /><path id="1571" transform="matrix(1 0 0 -1 0 842)" d="M517.2 115.68L517.68 115.68L517.68 116.161L517.2 116.161z" stroke="none" fill="#BFBFBF" fill-rule="nonzero" /><path id="1572" transform="matrix(1 0 0 -1 0 842)" d="M125.76 55.8L126.241 55.8L126.241 115.68L125.76 115.68z" stroke="none" fill="#BFBFBF" fill-rule="nonzero" /><path id="1573" transform="matrix(1 0 0 -1 0 842)" d="M125.76 55.32L126.241 55.32L126.241 55.8L125.76 55.8z" stroke="none" fill="#BFBFBF" fill-rule="nonzero" /><path id="1574" transform="matrix(1 0 0 -1 0 842)" d="M125.76 55.32L126.241 55.32L126.241 55.8L125.76 55.8z" stroke="none" fill="#BFBFBF" fill-rule="nonzero" /><path id="1575" transform="matrix(1 0 0 -1 0 842)" d="M126.24 55.32L324.24 55.32L324.24 55.8L126.24 55.8z" stroke="none" fill="#BFBFBF" fill-rule="nonzero" /><path id="1576" transform="matrix(1 0 0 -1 0 842)" d="M324.24 55.8L324.72 55.8L324.72 115.68L324.24 115.68z" stroke="none" fill="#BFBFBF" fill-rule="nonzero" /><path id="1577" transform="matrix(1 0 0 -1 0 842)" d="M324.24 55.32L324.72 55.32L324.72 55.8L324.24 55.8z" stroke="none" fill="#BFBFBF" fill-rule="nonzero" /><path id="1578" transform="matrix(1 0 0 -1 0 842)" d="M324.72 55.32L517.2 55.32L517.2 55.8L324.72 55.8z" stroke="none" fill="#BFBFBF" fill-rule="nonzero" /><path id="1579" transform="matrix(1 0 0 -1 0 842)" d="M517.2 55.8L517.68 55.8L517.68 115.68L517.2 115.68z" stroke="none" fill="#BFBFBF" fill-rule="nonzero" /><path id="1580" transform="matrix(1 0 0 -1 0 842)" d="M517.2 55.32L517.68 55.32L517.68 55.8L517.2 55.8z" stroke="none" fill="#BFBFBF" fill-rule="nonzero" /><path id="1581" transform="matrix(1 0 0 -1 0 842)" d="M517.2 55.32L517.68 55.32L517.68 55.8L517.2 55.8z" stroke="none" fill="#BFBFBF" fill-rule="nonzero" /><g clip-path="url(#71)"></g><g clip-path="url(#72)"></g></g></g></svg>