<svg xmlns="http://www.w3.org/2000/svg" xmlns:xlink="http://www.w3.org/1999/xlink" id="body_8" preserveAspectRatio="xMinYMin meet" viewBox="0 0 793 1123"><defs><clipPath id="1"><path id="" clip-rule="evenodd" transform="matrix(1 0 0 1 0 0)" d="M0 842L0 -0.03997803L0 -0.03997803L595.56 -0.03997803L595.56 -0.03997803L595.56 842L595.56 842L0 842z" /></clipPath><clipPath id="2"><path id="" clip-rule="evenodd" transform="matrix(1 0 0 1 0 0)" d="M529.44 806.48L542.04 806.48L542.04 806.48L542.04 792.32L542.04 792.32L529.44 792.32z" /></clipPath><clipPath id="3"><path id="" clip-rule="evenodd" transform="matrix(1 0 0 1 0 0)" d="M529.44 806.48L542.04 806.48L542.04 806.48L542.04 792.32L542.04 792.32L529.44 792.32z" /></clipPath><clipPath id="4"><path id="" clip-rule="evenodd" transform="matrix(1 0 0 1 0 0)" d="M125.76 84.79999L517.68 84.79999L517.68 84.79999L517.68 23.95996L517.68 23.95996L125.76 23.95996z" /></clipPath><clipPath id="5"><path id="" clip-rule="evenodd" transform="matrix(1 0 0 1 0 0)" d="M74.04 100.76L96.72 100.76L96.72 100.76L96.72 84.79999L96.72 84.79999L74.04 84.79999z" /></clipPath><clipPath id="6"><path id="" clip-rule="evenodd" transform="matrix(1 0 0 1 0 0)" d="M96.72 100.76L125.759 100.76L125.759 100.76L125.759 84.79999L125.759 84.79999L96.72 84.79999z" /></clipPath><clipPath id="7"><path id="" clip-rule="evenodd" transform="matrix(1 0 0 1 0 0)" d="M125.76 100.76L517.68 100.76L517.68 100.76L517.68 84.79999L517.68 84.79999L125.76 84.79999z" /></clipPath><clipPath id="8"><path id="" clip-rule="evenodd" transform="matrix(1 0 0 1 0 0)" d="M125.76 100.76L517.68 100.76L517.68 100.76L517.68 84.79999L517.68 84.79999L125.76 84.79999z" /></clipPath><clipPath id="9"><path id="" clip-rule="evenodd" transform="matrix(1 0 0 1 0 0)" d="M517.68 100.76L533.52 100.76L533.52 100.76L533.52 84.79999L533.52 84.79999L517.68 84.79999z" /></clipPath><clipPath id="10"><path id="" clip-rule="evenodd" transform="matrix(1 0 0 1 0 0)" d="M74.04 617.12L96.72 617.12L96.72 617.12L96.72 100.76L96.72 100.76L74.04 100.76z" /></clipPath><clipPath id="11"><path id="" clip-rule="evenodd" transform="matrix(1 0 0 1 0 0)" d="M74.04 617.12L96.72 617.12L96.72 617.12L96.72 100.76L96.72 100.76L74.04 100.76z" /></clipPath><clipPath id="12"><path id="" clip-rule="evenodd" transform="matrix(1 0 0 1 0 0)" d="M96.72 617.12L125.759 617.12L125.759 617.12L125.759 100.76L125.759 100.76L96.72 100.76z" /></clipPath><clipPath id="13"><path id="" clip-rule="evenodd" transform="matrix(1 0 0 1 0 0)" d="M96.72 617.12L125.759 617.12L125.759 617.12L125.759 100.76L125.759 100.76L96.72 100.76z" /></clipPath><clipPath id="14"><path id="" clip-rule="evenodd" transform="matrix(1 0 0 1 0 0)" d="M125.76 617.12L517.68 617.12L517.68 617.12L517.68 100.76L517.68 100.76L125.76 100.76z" /></clipPath><clipPath id="15"><path id="" clip-rule="evenodd" transform="matrix(1 0 0 1 0 0)" d="M125.76 617.12L517.68 617.12L517.68 617.12L517.68 100.76L517.68 100.76L125.76 100.76z" /></clipPath><clipPath id="16"><path id="" clip-rule="evenodd" transform="matrix(1 0 0 1 0 0)" d="M125.76 617.12L517.68 617.12L517.68 617.12L517.68 100.76L517.68 100.76L125.76 100.76z" /></clipPath><clipPath id="17"><path id="" clip-rule="evenodd" transform="matrix(1 0 0 1 0 0)" d="M125.76 617.12L517.68 617.12L517.68 617.12L517.68 100.76L517.68 100.76L125.76 100.76z" /></clipPath><clipPath id="18"><path id="" clip-rule="evenodd" transform="matrix(1 0 0 1 0 0)" d="M125.76 617.12L517.68 617.12L517.68 617.12L517.68 100.76L517.68 100.76L125.76 100.76z" /></clipPath><clipPath id="19"><path id="" clip-rule="evenodd" transform="matrix(1 0 0 1 0 0)" d="M125.76 617.12L517.68 617.12L517.68 617.12L517.68 100.76L517.68 100.76L125.76 100.76z" /></clipPath><clipPath id="20"><path id="" clip-rule="evenodd" transform="matrix(1 0 0 1 0 0)" d="M125.76 617.12L517.68 617.12L517.68 617.12L517.68 100.76L517.68 100.76L125.76 100.76z" /></clipPath><clipPath id="21"><path id="" clip-rule="evenodd" transform="matrix(1 0 0 1 0 0)" d="M125.76 617.12L517.68 617.12L517.68 617.12L517.68 100.76L517.68 100.76L125.76 100.76z" /></clipPath><clipPath id="22"><path id="" clip-rule="evenodd" transform="matrix(1 0 0 1 0 0)" d="M125.76 617.12L517.68 617.12L517.68 617.12L517.68 100.76L517.68 100.76L125.76 100.76z" /></clipPath><clipPath id="23"><path id="" clip-rule="evenodd" transform="matrix(1 0 0 1 0 0)" d="M125.76 617.12L517.68 617.12L517.68 617.12L517.68 100.76L517.68 100.76L125.76 100.76z" /></clipPath><clipPath id="24"><path id="" clip-rule="evenodd" transform="matrix(1 0 0 1 0 0)" d="M125.76 617.12L517.68 617.12L517.68 617.12L517.68 100.76L517.68 100.76L125.76 100.76z" /></clipPath><clipPath id="25"><path id="" clip-rule="evenodd" transform="matrix(1 0 0 1 0 0)" d="M125.76 617.12L517.68 617.12L517.68 617.12L517.68 100.76L517.68 100.76L125.76 100.76z" /></clipPath><clipPath id="26"><path id="" clip-rule="evenodd" transform="matrix(1 0 0 1 0 0)" d="M125.76 617.12L517.68 617.12L517.68 617.12L517.68 100.76L517.68 100.76L125.76 100.76z" /></clipPath><clipPath id="27"><path id="" clip-rule="evenodd" transform="matrix(1 0 0 1 0 0)" d="M125.76 617.12L517.68 617.12L517.68 617.12L517.68 100.76L517.68 100.76L125.76 100.76z" /></clipPath><clipPath id="28"><path id="" clip-rule="evenodd" transform="matrix(1 0 0 1 0 0)" d="M125.76 617.12L517.68 617.12L517.68 617.12L517.68 100.76L517.68 100.76L125.76 100.76z" /></clipPath><clipPath id="29"><path id="" clip-rule="evenodd" transform="matrix(1 0 0 1 0 0)" d="M125.76 617.12L517.68 617.12L517.68 617.12L517.68 100.76L517.68 100.76L125.76 100.76z" /></clipPath><clipPath id="30"><path id="" clip-rule="evenodd" transform="matrix(1 0 0 1 0 0)" d="M125.76 617.12L517.68 617.12L517.68 617.12L517.68 100.76L517.68 100.76L125.76 100.76z" /></clipPath><clipPath id="31"><path id="" clip-rule="evenodd" transform="matrix(1 0 0 1 0 0)" d="M125.76 617.12L517.68 617.12L517.68 617.12L517.68 100.76L517.68 100.76L125.76 100.76z" /></clipPath><clipPath id="32"><path id="" clip-rule="evenodd" transform="matrix(1 0 0 1 0 0)" d="M125.76 617.12L517.68 617.12L517.68 617.12L517.68 100.76L517.68 100.76L125.76 100.76z" /></clipPath><clipPath id="33"><path id="" clip-rule="evenodd" transform="matrix(1 0 0 1 0 0)" d="M517.68 617.12L533.52 617.12L533.52 617.12L533.52 100.76L533.52 100.76L517.68 100.76z" /></clipPath><clipPath id="34"><path id="" clip-rule="evenodd" transform="matrix(1 0 0 1 0 0)" d="M517.68 617.12L533.52 617.12L533.52 617.12L533.52 100.76L533.52 100.76L517.68 100.76z" /></clipPath><clipPath id="35"><path id="" clip-rule="evenodd" transform="matrix(1 0 0 1 0 0)" d="M74.04 770.72L96.72 770.72L96.72 770.72L96.72 617.12L96.72 617.12L74.04 617.12z" /></clipPath><clipPath id="36"><path id="" clip-rule="evenodd" transform="matrix(1 0 0 1 0 0)" d="M96.72 770.72L125.759 770.72L125.759 770.72L125.759 617.12L125.759 617.12L96.72 617.12z" /></clipPath><clipPath id="37"><path id="" clip-rule="evenodd" transform="matrix(1 0 0 1 0 0)" d="M96.72 770.72L125.759 770.72L125.759 770.72L125.759 617.12L125.759 617.12L96.72 617.12z" /></clipPath><clipPath id="38"><path id="" clip-rule="evenodd" transform="matrix(1 0 0 1 0 0)" d="M125.76 770.72L517.68 770.72L517.68 770.72L517.68 617.12L517.68 617.12L125.76 617.12z" /></clipPath><clipPath id="39"><path id="" clip-rule="evenodd" transform="matrix(1 0 0 1 0 0)" d="M125.76 770.72L517.68 770.72L517.68 770.72L517.68 617.12L517.68 617.12L125.76 617.12z" /></clipPath><clipPath id="40"><path id="" clip-rule="evenodd" transform="matrix(1 0 0 1 0 0)" d="M125.76 770.72L517.68 770.72L517.68 770.72L517.68 617.12L517.68 617.12L125.76 617.12z" /></clipPath><clipPath id="41"><path id="" clip-rule="evenodd" transform="matrix(1 0 0 1 0 0)" d="M125.76 770.72L517.68 770.72L517.68 770.72L517.68 617.12L517.68 617.12L125.76 617.12z" /></clipPath><clipPath id="42"><path id="" clip-rule="evenodd" transform="matrix(1 0 0 1 0 0)" d="M125.76 770.72L517.68 770.72L517.68 770.72L517.68 617.12L517.68 617.12L125.76 617.12z" /></clipPath><clipPath id="43"><path id="" clip-rule="evenodd" transform="matrix(1 0 0 1 0 0)" d="M125.76 770.72L517.68 770.72L517.68 770.72L517.68 617.12L517.68 617.12L125.76 617.12z" /></clipPath><clipPath id="44"><path id="" clip-rule="evenodd" transform="matrix(1 0 0 1 0 0)" d="M125.76 770.72L517.68 770.72L517.68 770.72L517.68 617.12L517.68 617.12L125.76 617.12z" /></clipPath><clipPath id="45"><path id="" clip-rule="evenodd" transform="matrix(1 0 0 1 0 0)" d="M125.76 770.72L517.68 770.72L517.68 770.72L517.68 617.12L517.68 617.12L125.76 617.12z" /></clipPath><clipPath id="46"><path id="" clip-rule="evenodd" transform="matrix(1 0 0 1 0 0)" d="M125.76 770.72L517.68 770.72L517.68 770.72L517.68 617.12L517.68 617.12L125.76 617.12z" /></clipPath><clipPath id="47"><path id="" clip-rule="evenodd" transform="matrix(1 0 0 1 0 0)" d="M125.76 770.72L517.68 770.72L517.68 770.72L517.68 617.12L517.68 617.12L125.76 617.12z" /></clipPath><clipPath id="48"><path id="" clip-rule="evenodd" transform="matrix(1 0 0 1 0 0)" d="M125.76 770.72L517.68 770.72L517.68 770.72L517.68 617.12L517.68 617.12L125.76 617.12z" /></clipPath><clipPath id="49"><path id="" clip-rule="evenodd" transform="matrix(1 0 0 1 0 0)" d="M125.76 770.72L517.68 770.72L517.68 770.72L517.68 617.12L517.68 617.12L125.76 617.12z" /></clipPath><clipPath id="50"><path id="" clip-rule="evenodd" transform="matrix(1 0 0 1 0 0)" d="M125.76 770.72L517.68 770.72L517.68 770.72L517.68 617.12L517.68 617.12L125.76 617.12z" /></clipPath><clipPath id="51"><path id="" clip-rule="evenodd" transform="matrix(1 0 0 1 0 0)" d="M125.76 770.72L517.68 770.72L517.68 770.72L517.68 617.12L517.68 617.12L125.76 617.12z" /></clipPath><clipPath id="52"><path id="" clip-rule="evenodd" transform="matrix(1 0 0 1 0 0)" d="M517.68 770.72L533.52 770.72L533.52 770.72L533.52 617.12L533.52 617.12L517.68 617.12z" /></clipPath><clipPath id="53"><path id="" clip-rule="evenodd" transform="matrix(1 0 0 1 0 0)" d="M517.68 770.72L533.52 770.72L533.52 770.72L533.52 617.12L533.52 617.12L517.68 617.12z" /></clipPath></defs><g transform="matrix(1.333333 0 0 1.333333 0 0)"><g clip-path="url(#1)"><g clip-path="url(#2)"></g><g clip-path="url(#3)"></g><path id="135" transform="matrix(1 0 0 -1 0 842)" d="M125.76 817.56L126.241 817.56L126.241 818.04L125.76 818.04z" stroke="none" fill="#BFBFBF" fill-rule="nonzero" /><path id="136" transform="matrix(1 0 0 -1 0 842)" d="M125.76 817.56L126.241 817.56L126.241 818.04L125.76 818.04z" stroke="none" fill="#BFBFBF" fill-rule="nonzero" /><path id="137" transform="matrix(1 0 0 -1 0 842)" d="M126.24 817.56L324.24 817.56L324.24 818.04L126.24 818.04z" stroke="none" fill="#BFBFBF" fill-rule="nonzero" /><path id="138" transform="matrix(1 0 0 -1 0 842)" d="M324.24 817.56L324.72 817.56L324.72 818.04L324.24 818.04z" stroke="none" fill="#BFBFBF" fill-rule="nonzero" /><path id="139" transform="matrix(1 0 0 -1 0 842)" d="M324.72 817.56L517.2 817.56L517.2 818.04L324.72 818.04z" stroke="none" fill="#BFBFBF" fill-rule="nonzero" /><path id="140" transform="matrix(1 0 0 -1 0 842)" d="M517.2 817.56L517.68 817.56L517.68 818.04L517.2 818.04z" stroke="none" fill="#BFBFBF" fill-rule="nonzero" /><path id="141" transform="matrix(1 0 0 -1 0 842)" d="M517.2 817.56L517.68 817.56L517.68 818.04L517.2 818.04z" stroke="none" fill="#BFBFBF" fill-rule="nonzero" /><path id="142" transform="matrix(1 0 0 -1 0 842)" d="M125.76 757.68L126.241 757.68L126.241 817.56L125.76 817.56z" stroke="none" fill="#BFBFBF" fill-rule="nonzero" /><path id="143" transform="matrix(1 0 0 -1 0 842)" d="M125.76 757.2L126.241 757.2L126.241 757.681L125.76 757.681z" stroke="none" fill="#BFBFBF" fill-rule="nonzero" /><path id="144" transform="matrix(1 0 0 -1 0 842)" d="M125.76 757.2L126.241 757.2L126.241 757.681L125.76 757.681z" stroke="none" fill="#BFBFBF" fill-rule="nonzero" /><path id="145" transform="matrix(1 0 0 -1 0 842)" d="M126.24 757.2L324.24 757.2L324.24 757.681L126.24 757.681z" stroke="none" fill="#BFBFBF" fill-rule="nonzero" /><path id="146" transform="matrix(1 0 0 -1 0 842)" d="M324.24 757.68L324.72 757.68L324.72 817.56L324.24 817.56z" stroke="none" fill="#BFBFBF" fill-rule="nonzero" /><path id="147" transform="matrix(1 0 0 -1 0 842)" d="M324.24 757.2L324.72 757.2L324.72 757.681L324.24 757.681z" stroke="none" fill="#BFBFBF" fill-rule="nonzero" /><path id="148" transform="matrix(1 0 0 -1 0 842)" d="M324.72 757.2L517.2 757.2L517.2 757.681L324.72 757.681z" stroke="none" fill="#BFBFBF" fill-rule="nonzero" /><path id="149" transform="matrix(1 0 0 -1 0 842)" d="M517.2 757.68L517.68 757.68L517.68 817.56L517.2 817.56z" stroke="none" fill="#BFBFBF" fill-rule="nonzero" /><path id="150" transform="matrix(1 0 0 -1 0 842)" d="M517.2 757.2L517.68 757.2L517.68 757.681L517.2 757.681z" stroke="none" fill="#BFBFBF" fill-rule="nonzero" /><path id="151" transform="matrix(1 0 0 -1 0 842)" d="M517.2 757.2L517.68 757.2L517.68 757.681L517.2 757.681z" stroke="none" fill="#BFBFBF" fill-rule="nonzero" /><g clip-path="url(#4)"></g><g clip-path="url(#5)"></g><g clip-path="url(#6)"></g><g clip-path="url(#7)"></g><g clip-path="url(#8)"></g><g clip-path="url(#9)"></g><g clip-path="url(#10)"></g><g clip-path="url(#11)"></g><g clip-path="url(#12)"></g><g clip-path="url(#13)"></g><g clip-path="url(#14)"></g><g clip-path="url(#15)"></g><g clip-path="url(#16)"></g><g clip-path="url(#17)"></g><g clip-path="url(#18)"></g><g clip-path="url(#19)"></g><g clip-path="url(#20)"></g><g clip-path="url(#21)"></g><g clip-path="url(#22)"></g><g clip-path="url(#23)"></g><g clip-path="url(#24)"></g><g clip-path="url(#25)"></g><g clip-path="url(#26)"></g><g clip-path="url(#27)"></g><g clip-path="url(#28)"></g><g clip-path="url(#29)"></g><g clip-path="url(#30)"></g><g clip-path="url(#31)"></g><g clip-path="url(#32)"></g><g clip-path="url(#33)"></g><g clip-path="url(#34)"></g><g clip-path="url(#35)"></g><g clip-path="url(#36)"></g><g clip-path="url(#37)"></g><g clip-path="url(#38)"></g><g clip-path="url(#39)"></g><g clip-path="url(#40)"></g><g clip-path="url(#41)"></g><g clip-path="url(#42)"></g><g clip-path="url(#43)"></g><g clip-path="url(#44)"></g><g clip-path="url(#45)"></g><g clip-path="url(#46)"></g><g clip-path="url(#47)"></g><g clip-path="url(#48)"></g><g clip-path="url(#49)"></g><g clip-path="url(#50)"></g><g clip-path="url(#51)"></g><g clip-path="url(#52)"></g><g clip-path="url(#53)"></g></g></g></svg>