<svg xmlns="http://www.w3.org/2000/svg" xmlns:xlink="http://www.w3.org/1999/xlink" id="body_9" preserveAspectRatio="xMinYMin meet" viewBox="0 0 793 1123"><defs><clipPath id="1"><path id="" clip-rule="evenodd" transform="matrix(1 0 0 1 0 0)" d="M0 842L0 -0.03997803L0 -0.03997803L595.56 -0.03997803L595.56 -0.03997803L595.56 842L595.56 842L0 842z" /></clipPath><clipPath id="2"><path id="" clip-rule="evenodd" transform="matrix(1 0 0 1 0 0)" d="M529.44 806.48L542.04 806.48L542.04 806.48L542.04 792.32L542.04 792.32L529.44 792.32z" /></clipPath><clipPath id="3"><path id="" clip-rule="evenodd" transform="matrix(1 0 0 1 0 0)" d="M529.44 806.48L542.04 806.48L542.04 806.48L542.04 792.32L542.04 792.32L529.44 792.32z" /></clipPath><clipPath id="4"><path id="" clip-rule="evenodd" transform="matrix(1 0 0 1 0 0)" d="M125.76 292.16L517.68 292.16L517.68 292.16L517.68 23.95996L517.68 23.95996L125.76 23.95996z" /></clipPath><clipPath id="5"><path id="" clip-rule="evenodd" transform="matrix(1 0 0 1 0 0)" d="M125.76 292.16L517.68 292.16L517.68 292.16L517.68 23.95996L517.68 23.95996L125.76 23.95996z" /></clipPath><clipPath id="6"><path id="" clip-rule="evenodd" transform="matrix(1 0 0 1 0 0)" d="M125.76 292.16L517.68 292.16L517.68 292.16L517.68 23.95996L517.68 23.95996L125.76 23.95996z" /></clipPath><clipPath id="7"><path id="" clip-rule="evenodd" transform="matrix(1 0 0 1 0 0)" d="M74.04 602.36L96.72 602.36L96.72 602.36L96.72 292.161L96.72 292.161L74.04 292.161z" /></clipPath><clipPath id="8"><path id="" clip-rule="evenodd" transform="matrix(1 0 0 1 0 0)" d="M96.72 602.36L125.759 602.36L125.759 602.36L125.759 292.161L125.759 292.161L96.72 292.161z" /></clipPath><clipPath id="9"><path id="" clip-rule="evenodd" transform="matrix(1 0 0 1 0 0)" d="M96.72 602.36L125.759 602.36L125.759 602.36L125.759 292.161L125.759 292.161L96.72 292.161z" /></clipPath><clipPath id="10"><path id="" clip-rule="evenodd" transform="matrix(1 0 0 1 0 0)" d="M125.76 602.36L517.68 602.36L517.68 602.36L517.68 292.161L517.68 292.161L125.76 292.161z" /></clipPath><clipPath id="11"><path id="" clip-rule="evenodd" transform="matrix(1 0 0 1 0 0)" d="M125.76 602.36L517.68 602.36L517.68 602.36L517.68 292.161L517.68 292.161L125.76 292.161z" /></clipPath><clipPath id="12"><path id="" clip-rule="evenodd" transform="matrix(1 0 0 1 0 0)" d="M125.76 602.36L517.68 602.36L517.68 602.36L517.68 292.161L517.68 292.161L125.76 292.161z" /></clipPath><clipPath id="13"><path id="" clip-rule="evenodd" transform="matrix(1 0 0 1 0 0)" d="M125.76 602.36L517.68 602.36L517.68 602.36L517.68 292.161L517.68 292.161L125.76 292.161z" /></clipPath><clipPath id="14"><path id="" clip-rule="evenodd" transform="matrix(1 0 0 1 0 0)" d="M125.76 602.36L517.68 602.36L517.68 602.36L517.68 292.161L517.68 292.161L125.76 292.161z" /></clipPath><clipPath id="15"><path id="" clip-rule="evenodd" transform="matrix(1 0 0 1 0 0)" d="M125.76 602.36L517.68 602.36L517.68 602.36L517.68 292.161L517.68 292.161L125.76 292.161z" /></clipPath><clipPath id="16"><path id="" clip-rule="evenodd" transform="matrix(1 0 0 1 0 0)" d="M125.76 602.36L517.68 602.36L517.68 602.36L517.68 292.161L517.68 292.161L125.76 292.161z" /></clipPath><clipPath id="17"><path id="" clip-rule="evenodd" transform="matrix(1 0 0 1 0 0)" d="M125.76 602.36L517.68 602.36L517.68 602.36L517.68 292.161L517.68 292.161L125.76 292.161z" /></clipPath><clipPath id="18"><path id="" clip-rule="evenodd" transform="matrix(1 0 0 1 0 0)" d="M125.76 602.36L517.68 602.36L517.68 602.36L517.68 292.161L517.68 292.161L125.76 292.161z" /></clipPath><clipPath id="19"><path id="" clip-rule="evenodd" transform="matrix(1 0 0 1 0 0)" d="M125.76 602.36L517.68 602.36L517.68 602.36L517.68 292.161L517.68 292.161L125.76 292.161z" /></clipPath><clipPath id="20"><path id="" clip-rule="evenodd" transform="matrix(1 0 0 1 0 0)" d="M125.76 602.36L517.68 602.36L517.68 602.36L517.68 292.161L517.68 292.161L125.76 292.161z" /></clipPath><clipPath id="21"><path id="" clip-rule="evenodd" transform="matrix(1 0 0 1 0 0)" d="M125.76 602.36L517.68 602.36L517.68 602.36L517.68 292.161L517.68 292.161L125.76 292.161z" /></clipPath><clipPath id="22"><path id="" clip-rule="evenodd" transform="matrix(1 0 0 1 0 0)" d="M125.76 602.36L517.68 602.36L517.68 602.36L517.68 292.161L517.68 292.161L125.76 292.161z" /></clipPath><clipPath id="23"><path id="" clip-rule="evenodd" transform="matrix(1 0 0 1 0 0)" d="M125.76 602.36L517.68 602.36L517.68 602.36L517.68 292.161L517.68 292.161L125.76 292.161z" /></clipPath><clipPath id="24"><path id="" clip-rule="evenodd" transform="matrix(1 0 0 1 0 0)" d="M125.76 602.36L517.68 602.36L517.68 602.36L517.68 292.161L517.68 292.161L125.76 292.161z" /></clipPath><clipPath id="25"><path id="" clip-rule="evenodd" transform="matrix(1 0 0 1 0 0)" d="M125.76 602.36L517.68 602.36L517.68 602.36L517.68 292.161L517.68 292.161L125.76 292.161z" /></clipPath><clipPath id="26"><path id="" clip-rule="evenodd" transform="matrix(1 0 0 1 0 0)" d="M125.76 602.36L517.68 602.36L517.68 602.36L517.68 292.161L517.68 292.161L125.76 292.161z" /></clipPath><clipPath id="27"><path id="" clip-rule="evenodd" transform="matrix(1 0 0 1 0 0)" d="M125.76 602.36L517.68 602.36L517.68 602.36L517.68 292.161L517.68 292.161L125.76 292.161z" /></clipPath><clipPath id="28"><path id="" clip-rule="evenodd" transform="matrix(1 0 0 1 0 0)" d="M125.76 602.36L517.68 602.36L517.68 602.36L517.68 292.161L517.68 292.161L125.76 292.161z" /></clipPath><clipPath id="29"><path id="" clip-rule="evenodd" transform="matrix(1 0 0 1 0 0)" d="M125.76 602.36L517.68 602.36L517.68 602.36L517.68 292.161L517.68 292.161L125.76 292.161z" /></clipPath><clipPath id="30"><path id="" clip-rule="evenodd" transform="matrix(1 0 0 1 0 0)" d="M125.76 602.36L517.68 602.36L517.68 602.36L517.68 292.161L517.68 292.161L125.76 292.161z" /></clipPath><clipPath id="31"><path id="" clip-rule="evenodd" transform="matrix(1 0 0 1 0 0)" d="M125.76 602.36L517.68 602.36L517.68 602.36L517.68 292.161L517.68 292.161L125.76 292.161z" /></clipPath><clipPath id="32"><path id="" clip-rule="evenodd" transform="matrix(1 0 0 1 0 0)" d="M125.76 602.36L517.68 602.36L517.68 602.36L517.68 292.161L517.68 292.161L125.76 292.161z" /></clipPath><clipPath id="33"><path id="" clip-rule="evenodd" transform="matrix(1 0 0 1 0 0)" d="M125.76 602.36L517.68 602.36L517.68 602.36L517.68 292.161L517.68 292.161L125.76 292.161z" /></clipPath><clipPath id="34"><path id="" clip-rule="evenodd" transform="matrix(1 0 0 1 0 0)" d="M125.76 602.36L517.68 602.36L517.68 602.36L517.68 292.161L517.68 292.161L125.76 292.161z" /></clipPath><clipPath id="35"><path id="" clip-rule="evenodd" transform="matrix(1 0 0 1 0 0)" d="M125.76 602.36L517.68 602.36L517.68 602.36L517.68 292.161L517.68 292.161L125.76 292.161z" /></clipPath><clipPath id="36"><path id="" clip-rule="evenodd" transform="matrix(1 0 0 1 0 0)" d="M517.68 602.36L533.52 602.36L533.52 602.36L533.52 292.161L533.52 292.161L517.68 292.161z" /></clipPath><clipPath id="37"><path id="" clip-rule="evenodd" transform="matrix(1 0 0 1 0 0)" d="M517.68 602.36L533.52 602.36L533.52 602.36L533.52 292.161L533.52 292.161L517.68 292.161z" /></clipPath><clipPath id="38"><path id="" clip-rule="evenodd" transform="matrix(1 0 0 1 0 0)" d="M74.04 779.48L96.72 779.48L96.72 779.48L96.72 602.36L96.72 602.36L74.04 602.36z" /></clipPath><clipPath id="39"><path id="" clip-rule="evenodd" transform="matrix(1 0 0 1 0 0)" d="M74.04 779.48L96.72 779.48L96.72 779.48L96.72 602.36L96.72 602.36L74.04 602.36z" /></clipPath><clipPath id="40"><path id="" clip-rule="evenodd" transform="matrix(1 0 0 1 0 0)" d="M96.72 779.48L125.759 779.48L125.759 779.48L125.759 602.36L125.759 602.36L96.72 602.36z" /></clipPath><clipPath id="41"><path id="" clip-rule="evenodd" transform="matrix(1 0 0 1 0 0)" d="M96.72 779.48L125.759 779.48L125.759 779.48L125.759 602.36L125.759 602.36L96.72 602.36z" /></clipPath><clipPath id="42"><path id="" clip-rule="evenodd" transform="matrix(1 0 0 1 0 0)" d="M125.76 779.48L517.68 779.48L517.68 779.48L517.68 602.36L517.68 602.36L125.76 602.36z" /></clipPath><clipPath id="43"><path id="" clip-rule="evenodd" transform="matrix(1 0 0 1 0 0)" d="M125.76 779.48L517.68 779.48L517.68 779.48L517.68 602.36L517.68 602.36L125.76 602.36z" /></clipPath><clipPath id="44"><path id="" clip-rule="evenodd" transform="matrix(1 0 0 1 0 0)" d="M125.76 779.48L517.68 779.48L517.68 779.48L517.68 602.36L517.68 602.36L125.76 602.36z" /></clipPath><clipPath id="45"><path id="" clip-rule="evenodd" transform="matrix(1 0 0 1 0 0)" d="M125.76 779.48L517.68 779.48L517.68 779.48L517.68 602.36L517.68 602.36L125.76 602.36z" /></clipPath><clipPath id="46"><path id="" clip-rule="evenodd" transform="matrix(1 0 0 1 0 0)" d="M125.76 779.48L517.68 779.48L517.68 779.48L517.68 602.36L517.68 602.36L125.76 602.36z" /></clipPath><clipPath id="47"><path id="" clip-rule="evenodd" transform="matrix(1 0 0 1 0 0)" d="M125.76 779.48L517.68 779.48L517.68 779.48L517.68 602.36L517.68 602.36L125.76 602.36z" /></clipPath><clipPath id="48"><path id="" clip-rule="evenodd" transform="matrix(1 0 0 1 0 0)" d="M125.76 779.48L517.68 779.48L517.68 779.48L517.68 602.36L517.68 602.36L125.76 602.36z" /></clipPath><clipPath id="49"><path id="" clip-rule="evenodd" transform="matrix(1 0 0 1 0 0)" d="M125.76 779.48L517.68 779.48L517.68 779.48L517.68 602.36L517.68 602.36L125.76 602.36z" /></clipPath><clipPath id="50"><path id="" clip-rule="evenodd" transform="matrix(1 0 0 1 0 0)" d="M125.76 779.48L517.68 779.48L517.68 779.48L517.68 602.36L517.68 602.36L125.76 602.36z" /></clipPath><clipPath id="51"><path id="" clip-rule="evenodd" transform="matrix(1 0 0 1 0 0)" d="M125.76 779.48L517.68 779.48L517.68 779.48L517.68 602.36L517.68 602.36L125.76 602.36z" /></clipPath><clipPath id="52"><path id="" clip-rule="evenodd" transform="matrix(1 0 0 1 0 0)" d="M125.76 779.48L517.68 779.48L517.68 779.48L517.68 602.36L517.68 602.36L125.76 602.36z" /></clipPath><clipPath id="53"><path id="" clip-rule="evenodd" transform="matrix(1 0 0 1 0 0)" d="M125.76 779.48L517.68 779.48L517.68 779.48L517.68 602.36L517.68 602.36L125.76 602.36z" /></clipPath><clipPath id="54"><path id="" clip-rule="evenodd" transform="matrix(1 0 0 1 0 0)" d="M517.68 779.48L533.52 779.48L533.52 779.48L533.52 602.36L533.52 602.36L517.68 602.36z" /></clipPath><clipPath id="55"><path id="" clip-rule="evenodd" transform="matrix(1 0 0 1 0 0)" d="M517.68 779.48L533.52 779.48L533.52 779.48L533.52 602.36L533.52 602.36L517.68 602.36z" /></clipPath></defs><g transform="matrix(1.333333 0 0 1.333333 0 0)"><g clip-path="url(#1)"><g clip-path="url(#2)"></g><g clip-path="url(#3)"></g><g clip-path="url(#4)"></g><g clip-path="url(#5)"></g><g clip-path="url(#6)"></g><g clip-path="url(#7)"></g><g clip-path="url(#8)"></g><g clip-path="url(#9)"></g><g clip-path="url(#10)"></g><g clip-path="url(#11)"></g><g clip-path="url(#12)"></g><g clip-path="url(#13)"></g><g clip-path="url(#14)"></g><g clip-path="url(#15)"></g><g clip-path="url(#16)"></g><g clip-path="url(#17)"></g><g clip-path="url(#18)"></g><g clip-path="url(#19)"></g><g clip-path="url(#20)"></g><g clip-path="url(#21)"></g><g clip-path="url(#22)"></g><g clip-path="url(#23)"></g><g clip-path="url(#24)"></g><g clip-path="url(#25)"></g><g clip-path="url(#26)"></g><g clip-path="url(#27)"></g><g clip-path="url(#28)"></g><g clip-path="url(#29)"></g><g clip-path="url(#30)"></g><g clip-path="url(#31)"></g><g clip-path="url(#32)"></g><g clip-path="url(#33)"></g><g clip-path="url(#34)"></g><g clip-path="url(#35)"></g><g clip-path="url(#36)"></g><g clip-path="url(#37)"></g><g clip-path="url(#38)"></g><g clip-path="url(#39)"></g><g clip-path="url(#40)"></g><g clip-path="url(#41)"></g><g clip-path="url(#42)"></g><g clip-path="url(#43)"></g><g clip-path="url(#44)"></g><g clip-path="url(#45)"></g><g clip-path="url(#46)"></g><g clip-path="url(#47)"></g><g clip-path="url(#48)"></g><g clip-path="url(#49)"></g><g clip-path="url(#50)"></g><g clip-path="url(#51)"></g><g clip-path="url(#52)"></g><g clip-path="url(#53)"></g><path id="1620" transform="matrix(1 0 0 -1 0 842)" d="M125.76 211.8L126.241 211.8L126.241 212.281L125.76 212.281z" stroke="none" fill="#BFBFBF" fill-rule="nonzero" /><path id="1621" transform="matrix(1 0 0 -1 0 842)" d="M125.76 211.8L126.241 211.8L126.241 212.281L125.76 212.281z" stroke="none" fill="#BFBFBF" fill-rule="nonzero" /><path id="1622" transform="matrix(1 0 0 -1 0 842)" d="M126.24 211.8L331.319 211.8L331.319 212.281L126.24 212.281z" stroke="none" fill="#BFBFBF" fill-rule="nonzero" /><path id="1623" transform="matrix(1 0 0 -1 0 842)" d="M331.32 211.8L331.801 211.8L331.801 212.281L331.32 212.281z" stroke="none" fill="#BFBFBF" fill-rule="nonzero" /><path id="1624" transform="matrix(1 0 0 -1 0 842)" d="M331.8 211.8L517.2 211.8L517.2 212.281L331.8 212.281z" stroke="none" fill="#BFBFBF" fill-rule="nonzero" /><path id="1625" transform="matrix(1 0 0 -1 0 842)" d="M517.2 211.8L517.68 211.8L517.68 212.281L517.2 212.281z" stroke="none" fill="#BFBFBF" fill-rule="nonzero" /><path id="1626" transform="matrix(1 0 0 -1 0 842)" d="M517.2 211.8L517.68 211.8L517.68 212.281L517.2 212.281z" stroke="none" fill="#BFBFBF" fill-rule="nonzero" /><path id="1627" transform="matrix(1 0 0 -1 0 842)" d="M125.76 183.84L126.241 183.84L126.241 211.799L125.76 211.799z" stroke="none" fill="#BFBFBF" fill-rule="nonzero" /><path id="1628" transform="matrix(1 0 0 -1 0 842)" d="M331.32 183.84L331.801 183.84L331.801 211.799L331.32 211.799z" stroke="none" fill="#BFBFBF" fill-rule="nonzero" /><path id="1629" transform="matrix(1 0 0 -1 0 842)" d="M517.2 183.84L517.68 183.84L517.68 211.799L517.2 211.799z" stroke="none" fill="#BFBFBF" fill-rule="nonzero" /><path id="1769" transform="matrix(1 0 0 -1 0 842)" d="M125.76 183.36L126.241 183.36L126.241 183.841L125.76 183.841z" stroke="none" fill="#BFBFBF" fill-rule="nonzero" /><path id="1770" transform="matrix(1 0 0 -1 0 842)" d="M126.24 183.36L331.319 183.36L331.319 183.841L126.24 183.841z" stroke="none" fill="#BFBFBF" fill-rule="nonzero" /><path id="1771" transform="matrix(1 0 0 -1 0 842)" d="M331.32 183.36L331.801 183.36L331.801 183.841L331.32 183.841z" stroke="none" fill="#BFBFBF" fill-rule="nonzero" /><path id="1772" transform="matrix(1 0 0 -1 0 842)" d="M331.8 183.36L517.2 183.36L517.2 183.841L331.8 183.841z" stroke="none" fill="#BFBFBF" fill-rule="nonzero" /><path id="1773" transform="matrix(1 0 0 -1 0 842)" d="M517.2 183.36L517.68 183.36L517.68 183.841L517.2 183.841z" stroke="none" fill="#BFBFBF" fill-rule="nonzero" /><path id="1774" transform="matrix(1 0 0 -1 0 842)" d="M125.76 123.36L126.241 123.36L126.241 183.359L125.76 183.359z" stroke="none" fill="#BFBFBF" fill-rule="nonzero" /><path id="1775" transform="matrix(1 0 0 -1 0 842)" d="M331.32 123.36L331.801 123.36L331.801 183.359L331.32 183.359z" stroke="none" fill="#BFBFBF" fill-rule="nonzero" /><path id="1776" transform="matrix(1 0 0 -1 0 842)" d="M517.2 123.36L517.68 123.36L517.68 183.359L517.2 183.359z" stroke="none" fill="#BFBFBF" fill-rule="nonzero" /><path id="1885" transform="matrix(1 0 0 -1 0 842)" d="M125.76 122.88L126.241 122.88L126.241 123.361L125.76 123.361z" stroke="none" fill="#BFBFBF" fill-rule="nonzero" /><path id="1886" transform="matrix(1 0 0 -1 0 842)" d="M126.24 122.88L331.319 122.88L331.319 123.361L126.24 123.361z" stroke="none" fill="#BFBFBF" fill-rule="nonzero" /><path id="1887" transform="matrix(1 0 0 -1 0 842)" d="M331.32 122.88L331.801 122.88L331.801 123.361L331.32 123.361z" stroke="none" fill="#BFBFBF" fill-rule="nonzero" /><path id="1888" transform="matrix(1 0 0 -1 0 842)" d="M331.8 122.88L517.2 122.88L517.2 123.361L331.8 123.361z" stroke="none" fill="#BFBFBF" fill-rule="nonzero" /><path id="1889" transform="matrix(1 0 0 -1 0 842)" d="M517.2 122.88L517.68 122.88L517.68 123.361L517.2 123.361z" stroke="none" fill="#BFBFBF" fill-rule="nonzero" /><path id="1890" transform="matrix(1 0 0 -1 0 842)" d="M125.76 63L126.241 63L126.241 122.88L125.76 122.88z" stroke="none" fill="#BFBFBF" fill-rule="nonzero" /><path id="1891" transform="matrix(1 0 0 -1 0 842)" d="M125.76 62.52L126.241 62.52L126.241 63L125.76 63z" stroke="none" fill="#BFBFBF" fill-rule="nonzero" /><path id="1892" transform="matrix(1 0 0 -1 0 842)" d="M125.76 62.52L126.241 62.52L126.241 63L125.76 63z" stroke="none" fill="#BFBFBF" fill-rule="nonzero" /><path id="1893" transform="matrix(1 0 0 -1 0 842)" d="M126.24 62.52L331.319 62.52L331.319 63L126.24 63z" stroke="none" fill="#BFBFBF" fill-rule="nonzero" /><path id="1894" transform="matrix(1 0 0 -1 0 842)" d="M331.32 63L331.801 63L331.801 122.88L331.32 122.88z" stroke="none" fill="#BFBFBF" fill-rule="nonzero" /><path id="1895" transform="matrix(1 0 0 -1 0 842)" d="M331.32 62.52L331.801 62.52L331.801 63L331.32 63z" stroke="none" fill="#BFBFBF" fill-rule="nonzero" /><path id="1896" transform="matrix(1 0 0 -1 0 842)" d="M331.8 62.52L517.2 62.52L517.2 63L331.8 63z" stroke="none" fill="#BFBFBF" fill-rule="nonzero" /><path id="1897" transform="matrix(1 0 0 -1 0 842)" d="M517.2 63L517.68 63L517.68 122.88L517.2 122.88z" stroke="none" fill="#BFBFBF" fill-rule="nonzero" /><path id="1898" transform="matrix(1 0 0 -1 0 842)" d="M517.2 62.52L517.68 62.52L517.68 63L517.2 63z" stroke="none" fill="#BFBFBF" fill-rule="nonzero" /><path id="1899" transform="matrix(1 0 0 -1 0 842)" d="M517.2 62.52L517.68 62.52L517.68 63L517.2 63z" stroke="none" fill="#BFBFBF" fill-rule="nonzero" /><g clip-path="url(#54)"></g><g clip-path="url(#55)"></g></g></g></svg>