<svg xmlns="http://www.w3.org/2000/svg" xmlns:xlink="http://www.w3.org/1999/xlink" id="body_3" preserveAspectRatio="xMinYMin meet" viewBox="0 0 793 1123"><defs><clipPath id="1"><path id="" clip-rule="evenodd" transform="matrix(1 0 0 1 0 0)" d="M0 842L0 -0.03997803L0 -0.03997803L595.56 -0.03997803L595.56 -0.03997803L595.56 842L595.56 842L0 842z" /></clipPath><clipPath id="2"><path id="" clip-rule="evenodd" transform="matrix(1 0 0 1 0 0)" d="M529.44 806.48L542.04 806.48L542.04 806.48L542.04 792.32L542.04 792.32L529.44 792.32z" /></clipPath><clipPath id="3"><path id="" clip-rule="evenodd" transform="matrix(1 0 0 1 0 0)" d="M529.44 806.48L542.04 806.48L542.04 806.48L542.04 792.32L542.04 792.32L529.44 792.32z" /></clipPath></defs><g transform="matrix(1.333333 0 0 1.333333 0 0)"><g clip-path="url(#1)"><g clip-path="url(#2)"></g><g clip-path="url(#3)"></g><path id="750" transform="matrix(1 0 0 -1 0 842)" d="M74.04 546.72L74.52 546.72L74.52 547.2L74.04 547.2z" stroke="none" fill="#BFBFBF" fill-rule="nonzero" /><path id="751" transform="matrix(1 0 0 -1 0 842)" d="M74.04 546.72L74.52 546.72L74.52 547.2L74.04 547.2z" stroke="none" fill="#BFBFBF" fill-rule="nonzero" /><path id="752" transform="matrix(1 0 0 -1 0 842)" d="M74.52 546.72L327 546.72L327 547.2L74.52 547.2z" stroke="none" fill="#BFBFBF" fill-rule="nonzero" /><path id="753" transform="matrix(1 0 0 -1 0 842)" d="M327 546.72L327.481 546.72L327.481 547.2L327 547.2z" stroke="none" fill="#BFBFBF" fill-rule="nonzero" /><path id="754" transform="matrix(1 0 0 -1 0 842)" d="M327.48 546.72L544.32 546.72L544.32 547.2L327.48 547.2z" stroke="none" fill="#BFBFBF" fill-rule="nonzero" /><path id="755" transform="matrix(1 0 0 -1 0 842)" d="M544.32 546.72L544.8 546.72L544.8 547.2L544.32 547.2z" stroke="none" fill="#BFBFBF" fill-rule="nonzero" /><path id="756" transform="matrix(1 0 0 -1 0 842)" d="M544.32 546.72L544.8 546.72L544.8 547.2L544.32 547.2z" stroke="none" fill="#BFBFBF" fill-rule="nonzero" /><path id="757" transform="matrix(1 0 0 -1 0 842)" d="M74.04 518.64L74.52 518.64L74.52 546.72L74.04 546.72z" stroke="none" fill="#BFBFBF" fill-rule="nonzero" /><path id="758" transform="matrix(1 0 0 -1 0 842)" d="M327 518.64L327.481 518.64L327.481 546.72L327 546.72z" stroke="none" fill="#BFBFBF" fill-rule="nonzero" /><path id="759" transform="matrix(1 0 0 -1 0 842)" d="M544.32 518.64L544.8 518.64L544.8 546.72L544.32 546.72z" stroke="none" fill="#BFBFBF" fill-rule="nonzero" /><path id="981" transform="matrix(1 0 0 -1 0 842)" d="M74.04 518.16L74.52 518.16L74.52 518.641L74.04 518.641z" stroke="none" fill="#BFBFBF" fill-rule="nonzero" /><path id="982" transform="matrix(1 0 0 -1 0 842)" d="M74.52 518.16L327 518.16L327 518.641L74.52 518.641z" stroke="none" fill="#BFBFBF" fill-rule="nonzero" /><path id="983" transform="matrix(1 0 0 -1 0 842)" d="M327 518.16L327.481 518.16L327.481 518.641L327 518.641z" stroke="none" fill="#BFBFBF" fill-rule="nonzero" /><path id="984" transform="matrix(1 0 0 -1 0 842)" d="M327.48 518.16L544.32 518.16L544.32 518.641L327.48 518.641z" stroke="none" fill="#BFBFBF" fill-rule="nonzero" /><path id="985" transform="matrix(1 0 0 -1 0 842)" d="M544.32 518.16L544.8 518.16L544.8 518.641L544.32 518.641z" stroke="none" fill="#BFBFBF" fill-rule="nonzero" /><path id="986" transform="matrix(1 0 0 -1 0 842)" d="M74.04 442.32L74.52 442.32L74.52 518.159L74.04 518.159z" stroke="none" fill="#BFBFBF" fill-rule="nonzero" /><path id="987" transform="matrix(1 0 0 -1 0 842)" d="M327 442.32L327.481 442.32L327.481 518.159L327 518.159z" stroke="none" fill="#BFBFBF" fill-rule="nonzero" /><path id="988" transform="matrix(1 0 0 -1 0 842)" d="M544.32 442.32L544.8 442.32L544.8 518.159L544.32 518.159z" stroke="none" fill="#BFBFBF" fill-rule="nonzero" /><path id="1116" transform="matrix(1 0 0 -1 0 842)" d="M74.04 441.84L74.52 441.84L74.52 442.321L74.04 442.321z" stroke="none" fill="#BFBFBF" fill-rule="nonzero" /><path id="1117" transform="matrix(1 0 0 -1 0 842)" d="M74.52 441.84L327 441.84L327 442.321L74.52 442.321z" stroke="none" fill="#BFBFBF" fill-rule="nonzero" /><path id="1118" transform="matrix(1 0 0 -1 0 842)" d="M327 441.84L327.481 441.84L327.481 442.321L327 442.321z" stroke="none" fill="#BFBFBF" fill-rule="nonzero" /><path id="1119" transform="matrix(1 0 0 -1 0 842)" d="M327.48 441.84L544.32 441.84L544.32 442.321L327.48 442.321z" stroke="none" fill="#BFBFBF" fill-rule="nonzero" /><path id="1120" transform="matrix(1 0 0 -1 0 842)" d="M544.32 441.84L544.8 441.84L544.8 442.321L544.32 442.321z" stroke="none" fill="#BFBFBF" fill-rule="nonzero" /><path id="1121" transform="matrix(1 0 0 -1 0 842)" d="M74.04 397.92L74.52 397.92L74.52 441.84L74.04 441.84z" stroke="none" fill="#BFBFBF" fill-rule="nonzero" /><path id="1122" transform="matrix(1 0 0 -1 0 842)" d="M327 397.92L327.481 397.92L327.481 441.84L327 441.84z" stroke="none" fill="#BFBFBF" fill-rule="nonzero" /><path id="1123" transform="matrix(1 0 0 -1 0 842)" d="M544.32 397.92L544.8 397.92L544.8 441.84L544.32 441.84z" stroke="none" fill="#BFBFBF" fill-rule="nonzero" /><path id="1162" transform="matrix(1 0 0 -1 0 842)" d="M74.04 397.44L74.52 397.44L74.52 397.92L74.04 397.92z" stroke="none" fill="#BFBFBF" fill-rule="nonzero" /><path id="1163" transform="matrix(1 0 0 -1 0 842)" d="M74.52 397.44L327 397.44L327 397.92L74.52 397.92z" stroke="none" fill="#BFBFBF" fill-rule="nonzero" /><path id="1164" transform="matrix(1 0 0 -1 0 842)" d="M327 397.44L327.481 397.44L327.481 397.92L327 397.92z" stroke="none" fill="#BFBFBF" fill-rule="nonzero" /><path id="1165" transform="matrix(1 0 0 -1 0 842)" d="M327.48 397.44L544.32 397.44L544.32 397.92L327.48 397.92z" stroke="none" fill="#BFBFBF" fill-rule="nonzero" /><path id="1166" transform="matrix(1 0 0 -1 0 842)" d="M544.32 397.44L544.8 397.44L544.8 397.92L544.32 397.92z" stroke="none" fill="#BFBFBF" fill-rule="nonzero" /><path id="1167" transform="matrix(1 0 0 -1 0 842)" d="M74.04 369.48L74.52 369.48L74.52 397.44L74.04 397.44z" stroke="none" fill="#BFBFBF" fill-rule="nonzero" /><path id="1168" transform="matrix(1 0 0 -1 0 842)" d="M327 369.48L327.481 369.48L327.481 397.44L327 397.44z" stroke="none" fill="#BFBFBF" fill-rule="nonzero" /><path id="1169" transform="matrix(1 0 0 -1 0 842)" d="M544.32 369.48L544.8 369.48L544.8 397.44L544.32 397.44z" stroke="none" fill="#BFBFBF" fill-rule="nonzero" /><path id="1262" transform="matrix(1 0 0 -1 0 842)" d="M74.04 369L74.52 369L74.52 369.48L74.04 369.48z" stroke="none" fill="#BFBFBF" fill-rule="nonzero" /><path id="1263" transform="matrix(1 0 0 -1 0 842)" d="M74.52 369L327 369L327 369.48L74.52 369.48z" stroke="none" fill="#BFBFBF" fill-rule="nonzero" /><path id="1264" transform="matrix(1 0 0 -1 0 842)" d="M327 369L327.481 369L327.481 369.48L327 369.48z" stroke="none" fill="#BFBFBF" fill-rule="nonzero" /><path id="1265" transform="matrix(1 0 0 -1 0 842)" d="M327.48 369L544.32 369L544.32 369.48L327.48 369.48z" stroke="none" fill="#BFBFBF" fill-rule="nonzero" /><path id="1266" transform="matrix(1 0 0 -1 0 842)" d="M544.32 369L544.8 369L544.8 369.48L544.32 369.48z" stroke="none" fill="#BFBFBF" fill-rule="nonzero" /><path id="1267" transform="matrix(1 0 0 -1 0 842)" d="M74.04 325.08L74.52 325.08L74.52 369L74.04 369z" stroke="none" fill="#BFBFBF" fill-rule="nonzero" /><path id="1268" transform="matrix(1 0 0 -1 0 842)" d="M327 325.08L327.481 325.08L327.481 369L327 369z" stroke="none" fill="#BFBFBF" fill-rule="nonzero" /><path id="1269" transform="matrix(1 0 0 -1 0 842)" d="M544.32 325.08L544.8 325.08L544.8 369L544.32 369z" stroke="none" fill="#BFBFBF" fill-rule="nonzero" /><path id="1320" transform="matrix(1 0 0 -1 0 842)" d="M74.04 324.6L74.52 324.6L74.52 325.08L74.04 325.08z" stroke="none" fill="#BFBFBF" fill-rule="nonzero" /><path id="1321" transform="matrix(1 0 0 -1 0 842)" d="M74.52 324.6L327 324.6L327 325.08L74.52 325.08z" stroke="none" fill="#BFBFBF" fill-rule="nonzero" /><path id="1322" transform="matrix(1 0 0 -1 0 842)" d="M327 324.6L327.481 324.6L327.481 325.08L327 325.08z" stroke="none" fill="#BFBFBF" fill-rule="nonzero" /><path id="1323" transform="matrix(1 0 0 -1 0 842)" d="M327.48 324.6L544.32 324.6L544.32 325.08L327.48 325.08z" stroke="none" fill="#BFBFBF" fill-rule="nonzero" /><path id="1324" transform="matrix(1 0 0 -1 0 842)" d="M544.32 324.6L544.8 324.6L544.8 325.08L544.32 325.08z" stroke="none" fill="#BFBFBF" fill-rule="nonzero" /><path id="1325" transform="matrix(1 0 0 -1 0 842)" d="M74.04 296.52L74.52 296.52L74.52 324.6L74.04 324.6z" stroke="none" fill="#BFBFBF" fill-rule="nonzero" /><path id="1326" transform="matrix(1 0 0 -1 0 842)" d="M74.04 296.04L74.52 296.04L74.52 296.521L74.04 296.521z" stroke="none" fill="#BFBFBF" fill-rule="nonzero" /><path id="1327" transform="matrix(1 0 0 -1 0 842)" d="M74.04 296.04L74.52 296.04L74.52 296.521L74.04 296.521z" stroke="none" fill="#BFBFBF" fill-rule="nonzero" /><path id="1328" transform="matrix(1 0 0 -1 0 842)" d="M74.52 296.04L327 296.04L327 296.521L74.52 296.521z" stroke="none" fill="#BFBFBF" fill-rule="nonzero" /><path id="1329" transform="matrix(1 0 0 -1 0 842)" d="M327 296.52L327.481 296.52L327.481 324.6L327 324.6z" stroke="none" fill="#BFBFBF" fill-rule="nonzero" /><path id="1330" transform="matrix(1 0 0 -1 0 842)" d="M327 296.04L327.481 296.04L327.481 296.521L327 296.521z" stroke="none" fill="#BFBFBF" fill-rule="nonzero" /><path id="1331" transform="matrix(1 0 0 -1 0 842)" d="M327.48 296.04L544.32 296.04L544.32 296.521L327.48 296.521z" stroke="none" fill="#BFBFBF" fill-rule="nonzero" /><path id="1332" transform="matrix(1 0 0 -1 0 842)" d="M544.32 296.52L544.8 296.52L544.8 324.6L544.32 324.6z" stroke="none" fill="#BFBFBF" fill-rule="nonzero" /><path id="1333" transform="matrix(1 0 0 -1 0 842)" d="M544.32 296.04L544.8 296.04L544.8 296.521L544.32 296.521z" stroke="none" fill="#BFBFBF" fill-rule="nonzero" /><path id="1334" transform="matrix(1 0 0 -1 0 842)" d="M544.32 296.04L544.8 296.04L544.8 296.521L544.32 296.521z" stroke="none" fill="#BFBFBF" fill-rule="nonzero" /></g></g></svg>