<svg xmlns="http://www.w3.org/2000/svg" xmlns:xlink="http://www.w3.org/1999/xlink" id="body_2" preserveAspectRatio="xMinYMin meet" viewBox="0 0 793 1123"><defs><clipPath id="1"><path id="" clip-rule="evenodd" transform="matrix(1 0 0 1 0 0)" d="M0 842L0 -0.03997803L0 -0.03997803L595.56 -0.03997803L595.56 -0.03997803L595.56 842L595.56 842L0 842z" /></clipPath><clipPath id="2"><path id="" clip-rule="evenodd" transform="matrix(1 0 0 1 0 0)" d="M529.44 806.48L542.04 806.48L542.04 806.48L542.04 792.32L542.04 792.32L529.44 792.32z" /></clipPath><clipPath id="3"><path id="" clip-rule="evenodd" transform="matrix(1 0 0 1 0 0)" d="M529.44 806.48L542.04 806.48L542.04 806.48L542.04 792.32L542.04 792.32L529.44 792.32z" /></clipPath></defs><g transform="matrix(1.333333 0 0 1.333333 0 0)"><g clip-path="url(#1)"><g clip-path="url(#2)"></g><g clip-path="url(#3)"></g><path id="361" transform="matrix(1 0 0 -1 0 842)" d="M74.04 649.92L74.52 649.92L74.52 650.401L74.04 650.401z" stroke="none" fill="#BFBFBF" fill-rule="nonzero" /><path id="362" transform="matrix(1 0 0 -1 0 842)" d="M74.04 649.92L74.52 649.92L74.52 650.401L74.04 650.401z" stroke="none" fill="#BFBFBF" fill-rule="nonzero" /><path id="363" transform="matrix(1 0 0 -1 0 842)" d="M74.52 649.92L314.64 649.92L314.64 650.401L74.52 650.401z" stroke="none" fill="#BFBFBF" fill-rule="nonzero" /><path id="364" transform="matrix(1 0 0 -1 0 842)" d="M314.64 649.92L315.12 649.92L315.12 650.401L314.64 650.401z" stroke="none" fill="#BFBFBF" fill-rule="nonzero" /><path id="365" transform="matrix(1 0 0 -1 0 842)" d="M315.12 649.92L544.32 649.92L544.32 650.401L315.12 650.401z" stroke="none" fill="#BFBFBF" fill-rule="nonzero" /><path id="366" transform="matrix(1 0 0 -1 0 842)" d="M544.32 649.92L544.8 649.92L544.8 650.401L544.32 650.401z" stroke="none" fill="#BFBFBF" fill-rule="nonzero" /><path id="367" transform="matrix(1 0 0 -1 0 842)" d="M544.32 649.92L544.8 649.92L544.8 650.401L544.32 650.401z" stroke="none" fill="#BFBFBF" fill-rule="nonzero" /><path id="368" transform="matrix(1 0 0 -1 0 842)" d="M74.04 621.96L74.52 621.96L74.52 649.919L74.04 649.919z" stroke="none" fill="#BFBFBF" fill-rule="nonzero" /><path id="369" transform="matrix(1 0 0 -1 0 842)" d="M314.64 621.96L315.12 621.96L315.12 649.919L314.64 649.919z" stroke="none" fill="#BFBFBF" fill-rule="nonzero" /><path id="370" transform="matrix(1 0 0 -1 0 842)" d="M544.32 621.96L544.8 621.96L544.8 649.919L544.32 649.919z" stroke="none" fill="#BFBFBF" fill-rule="nonzero" /><path id="448" transform="matrix(1 0 0 -1 0 842)" d="M74.04 621.48L74.52 621.48L74.52 621.961L74.04 621.961z" stroke="none" fill="#BFBFBF" fill-rule="nonzero" /><path id="449" transform="matrix(1 0 0 -1 0 842)" d="M74.52 621.48L314.64 621.48L314.64 621.961L74.52 621.961z" stroke="none" fill="#BFBFBF" fill-rule="nonzero" /><path id="450" transform="matrix(1 0 0 -1 0 842)" d="M314.64 621.48L315.12 621.48L315.12 621.961L314.64 621.961z" stroke="none" fill="#BFBFBF" fill-rule="nonzero" /><path id="451" transform="matrix(1 0 0 -1 0 842)" d="M315.12 621.48L544.32 621.48L544.32 621.961L315.12 621.961z" stroke="none" fill="#BFBFBF" fill-rule="nonzero" /><path id="452" transform="matrix(1 0 0 -1 0 842)" d="M544.32 621.48L544.8 621.48L544.8 621.961L544.32 621.961z" stroke="none" fill="#BFBFBF" fill-rule="nonzero" /><path id="453" transform="matrix(1 0 0 -1 0 842)" d="M74.04 577.56L74.52 577.56L74.52 621.48L74.04 621.48z" stroke="none" fill="#BFBFBF" fill-rule="nonzero" /><path id="454" transform="matrix(1 0 0 -1 0 842)" d="M314.64 577.56L315.12 577.56L315.12 621.48L314.64 621.48z" stroke="none" fill="#BFBFBF" fill-rule="nonzero" /><path id="455" transform="matrix(1 0 0 -1 0 842)" d="M544.32 577.56L544.8 577.56L544.8 621.48L544.32 621.48z" stroke="none" fill="#BFBFBF" fill-rule="nonzero" /><path id="489" transform="matrix(1 0 0 -1 0 842)" d="M74.04 577.08L74.52 577.08L74.52 577.56L74.04 577.56z" stroke="none" fill="#BFBFBF" fill-rule="nonzero" /><path id="490" transform="matrix(1 0 0 -1 0 842)" d="M74.52 577.08L314.64 577.08L314.64 577.56L74.52 577.56z" stroke="none" fill="#BFBFBF" fill-rule="nonzero" /><path id="491" transform="matrix(1 0 0 -1 0 842)" d="M314.64 577.08L315.12 577.08L315.12 577.56L314.64 577.56z" stroke="none" fill="#BFBFBF" fill-rule="nonzero" /><path id="492" transform="matrix(1 0 0 -1 0 842)" d="M315.12 577.08L544.32 577.08L544.32 577.56L315.12 577.56z" stroke="none" fill="#BFBFBF" fill-rule="nonzero" /><path id="493" transform="matrix(1 0 0 -1 0 842)" d="M544.32 577.08L544.8 577.08L544.8 577.56L544.32 577.56z" stroke="none" fill="#BFBFBF" fill-rule="nonzero" /><path id="494" transform="matrix(1 0 0 -1 0 842)" d="M74.04 549L74.52 549L74.52 577.08L74.04 577.08z" stroke="none" fill="#BFBFBF" fill-rule="nonzero" /><path id="495" transform="matrix(1 0 0 -1 0 842)" d="M314.64 549L315.12 549L315.12 577.08L314.64 577.08z" stroke="none" fill="#BFBFBF" fill-rule="nonzero" /><path id="496" transform="matrix(1 0 0 -1 0 842)" d="M544.32 549L544.8 549L544.8 577.08L544.32 577.08z" stroke="none" fill="#BFBFBF" fill-rule="nonzero" /><path id="607" transform="matrix(1 0 0 -1 0 842)" d="M74.04 548.52L74.52 548.52L74.52 549L74.04 549z" stroke="none" fill="#BFBFBF" fill-rule="nonzero" /><path id="608" transform="matrix(1 0 0 -1 0 842)" d="M74.52 548.52L314.64 548.52L314.64 549L74.52 549z" stroke="none" fill="#BFBFBF" fill-rule="nonzero" /><path id="609" transform="matrix(1 0 0 -1 0 842)" d="M314.64 548.52L315.12 548.52L315.12 549L314.64 549z" stroke="none" fill="#BFBFBF" fill-rule="nonzero" /><path id="610" transform="matrix(1 0 0 -1 0 842)" d="M315.12 548.52L544.32 548.52L544.32 549L315.12 549z" stroke="none" fill="#BFBFBF" fill-rule="nonzero" /><path id="611" transform="matrix(1 0 0 -1 0 842)" d="M544.32 548.52L544.8 548.52L544.8 549L544.32 549z" stroke="none" fill="#BFBFBF" fill-rule="nonzero" /><path id="612" transform="matrix(1 0 0 -1 0 842)" d="M74.04 504.6L74.52 504.6L74.52 548.52L74.04 548.52z" stroke="none" fill="#BFBFBF" fill-rule="nonzero" /><path id="613" transform="matrix(1 0 0 -1 0 842)" d="M314.64 504.6L315.12 504.6L315.12 548.52L314.64 548.52z" stroke="none" fill="#BFBFBF" fill-rule="nonzero" /><path id="614" transform="matrix(1 0 0 -1 0 842)" d="M544.32 504.6L544.8 504.6L544.8 548.52L544.32 548.52z" stroke="none" fill="#BFBFBF" fill-rule="nonzero" /><path id="712" transform="matrix(1 0 0 -1 0 842)" d="M74.04 504.12L74.52 504.12L74.52 504.601L74.04 504.601z" stroke="none" fill="#BFBFBF" fill-rule="nonzero" /><path id="713" transform="matrix(1 0 0 -1 0 842)" d="M74.52 504.12L314.64 504.12L314.64 504.601L74.52 504.601z" stroke="none" fill="#BFBFBF" fill-rule="nonzero" /><path id="714" transform="matrix(1 0 0 -1 0 842)" d="M314.64 504.12L315.12 504.12L315.12 504.601L314.64 504.601z" stroke="none" fill="#BFBFBF" fill-rule="nonzero" /><path id="715" transform="matrix(1 0 0 -1 0 842)" d="M315.12 504.12L544.32 504.12L544.32 504.601L315.12 504.601z" stroke="none" fill="#BFBFBF" fill-rule="nonzero" /><path id="716" transform="matrix(1 0 0 -1 0 842)" d="M544.32 504.12L544.8 504.12L544.8 504.601L544.32 504.601z" stroke="none" fill="#BFBFBF" fill-rule="nonzero" /><path id="717" transform="matrix(1 0 0 -1 0 842)" d="M74.04 460.2L74.52 460.2L74.52 504.12L74.04 504.12z" stroke="none" fill="#BFBFBF" fill-rule="nonzero" /><path id="718" transform="matrix(1 0 0 -1 0 842)" d="M314.64 460.2L315.12 460.2L315.12 504.12L314.64 504.12z" stroke="none" fill="#BFBFBF" fill-rule="nonzero" /><path id="719" transform="matrix(1 0 0 -1 0 842)" d="M544.32 460.2L544.8 460.2L544.8 504.12L544.32 504.12z" stroke="none" fill="#BFBFBF" fill-rule="nonzero" /><path id="854" transform="matrix(1 0 0 -1 0 842)" d="M74.04 459.72L74.52 459.72L74.52 460.2L74.04 460.2z" stroke="none" fill="#BFBFBF" fill-rule="nonzero" /><path id="855" transform="matrix(1 0 0 -1 0 842)" d="M74.52 459.72L314.64 459.72L314.64 460.2L74.52 460.2z" stroke="none" fill="#BFBFBF" fill-rule="nonzero" /><path id="856" transform="matrix(1 0 0 -1 0 842)" d="M314.64 459.72L315.12 459.72L315.12 460.2L314.64 460.2z" stroke="none" fill="#BFBFBF" fill-rule="nonzero" /><path id="857" transform="matrix(1 0 0 -1 0 842)" d="M315.12 459.72L544.32 459.72L544.32 460.2L315.12 460.2z" stroke="none" fill="#BFBFBF" fill-rule="nonzero" /><path id="858" transform="matrix(1 0 0 -1 0 842)" d="M544.32 459.72L544.8 459.72L544.8 460.2L544.32 460.2z" stroke="none" fill="#BFBFBF" fill-rule="nonzero" /><path id="859" transform="matrix(1 0 0 -1 0 842)" d="M74.04 415.8L74.52 415.8L74.52 459.72L74.04 459.72z" stroke="none" fill="#BFBFBF" fill-rule="nonzero" /><path id="860" transform="matrix(1 0 0 -1 0 842)" d="M314.64 415.8L315.12 415.8L315.12 459.72L314.64 459.72z" stroke="none" fill="#BFBFBF" fill-rule="nonzero" /><path id="861" transform="matrix(1 0 0 -1 0 842)" d="M544.32 415.8L544.8 415.8L544.8 459.72L544.32 459.72z" stroke="none" fill="#BFBFBF" fill-rule="nonzero" /><path id="989" transform="matrix(1 0 0 -1 0 842)" d="M74.04 415.32L74.52 415.32L74.52 415.8L74.04 415.8z" stroke="none" fill="#BFBFBF" fill-rule="nonzero" /><path id="990" transform="matrix(1 0 0 -1 0 842)" d="M74.52 415.32L314.64 415.32L314.64 415.8L74.52 415.8z" stroke="none" fill="#BFBFBF" fill-rule="nonzero" /><path id="991" transform="matrix(1 0 0 -1 0 842)" d="M314.64 415.32L315.12 415.32L315.12 415.8L314.64 415.8z" stroke="none" fill="#BFBFBF" fill-rule="nonzero" /><path id="992" transform="matrix(1 0 0 -1 0 842)" d="M315.12 415.32L544.32 415.32L544.32 415.8L315.12 415.8z" stroke="none" fill="#BFBFBF" fill-rule="nonzero" /><path id="993" transform="matrix(1 0 0 -1 0 842)" d="M544.32 415.32L544.8 415.32L544.8 415.8L544.32 415.8z" stroke="none" fill="#BFBFBF" fill-rule="nonzero" /><path id="994" transform="matrix(1 0 0 -1 0 842)" d="M74.04 371.4L74.52 371.4L74.52 415.32L74.04 415.32z" stroke="none" fill="#BFBFBF" fill-rule="nonzero" /><path id="995" transform="matrix(1 0 0 -1 0 842)" d="M74.04 370.92L74.52 370.92L74.52 371.401L74.04 371.401z" stroke="none" fill="#BFBFBF" fill-rule="nonzero" /><path id="996" transform="matrix(1 0 0 -1 0 842)" d="M74.04 370.92L74.52 370.92L74.52 371.401L74.04 371.401z" stroke="none" fill="#BFBFBF" fill-rule="nonzero" /><path id="997" transform="matrix(1 0 0 -1 0 842)" d="M74.52 370.92L314.64 370.92L314.64 371.401L74.52 371.401z" stroke="none" fill="#BFBFBF" fill-rule="nonzero" /><path id="998" transform="matrix(1 0 0 -1 0 842)" d="M314.64 371.4L315.12 371.4L315.12 415.32L314.64 415.32z" stroke="none" fill="#BFBFBF" fill-rule="nonzero" /><path id="999" transform="matrix(1 0 0 -1 0 842)" d="M314.64 370.92L315.12 370.92L315.12 371.401L314.64 371.401z" stroke="none" fill="#BFBFBF" fill-rule="nonzero" /><path id="1000" transform="matrix(1 0 0 -1 0 842)" d="M315.12 370.92L544.32 370.92L544.32 371.401L315.12 371.401z" stroke="none" fill="#BFBFBF" fill-rule="nonzero" /><path id="1001" transform="matrix(1 0 0 -1 0 842)" d="M544.32 371.4L544.8 371.4L544.8 415.32L544.32 415.32z" stroke="none" fill="#BFBFBF" fill-rule="nonzero" /><path id="1002" transform="matrix(1 0 0 -1 0 842)" d="M544.32 370.92L544.8 370.92L544.8 371.401L544.32 371.401z" stroke="none" fill="#BFBFBF" fill-rule="nonzero" /><path id="1003" transform="matrix(1 0 0 -1 0 842)" d="M544.32 370.92L544.8 370.92L544.8 371.401L544.32 371.401z" stroke="none" fill="#BFBFBF" fill-rule="nonzero" /></g></g></svg>