<svg xmlns="http://www.w3.org/2000/svg" xmlns:xlink="http://www.w3.org/1999/xlink" id="body_10" preserveAspectRatio="xMinYMin meet" viewBox="0 0 793 1123"><defs><clipPath id="1"><path id="" clip-rule="evenodd" transform="matrix(1 0 0 1 0 0)" d="M0 842L0 -0.03997803L0 -0.03997803L595.56 -0.03997803L595.56 -0.03997803L595.56 842L595.56 842L0 842z" /></clipPath><clipPath id="2"><path id="" clip-rule="evenodd" transform="matrix(1 0 0 1 0 0)" d="M529.44 806.48L542.04 806.48L542.04 806.48L542.04 792.32L542.04 792.32L529.44 792.32z" /></clipPath><clipPath id="3"><path id="" clip-rule="evenodd" transform="matrix(1 0 0 1 0 0)" d="M529.44 806.48L542.04 806.48L542.04 806.48L542.04 792.32L542.04 792.32L529.44 792.32z" /></clipPath><clipPath id="4"><path id="" clip-rule="evenodd" transform="matrix(1 0 0 1 0 0)" d="M126.24 62.35999L331.2 62.35999L331.2 62.35999L331.2 24.44L331.2 24.44L126.24 24.44z" /></clipPath><clipPath id="5"><path id="" clip-rule="evenodd" transform="matrix(1 0 0 1 0 0)" d="M125.76 215.6L517.68 215.6L517.68 215.6L517.68 23.95996L517.68 23.95996L125.76 23.95996z" /></clipPath><clipPath id="6"><path id="" clip-rule="evenodd" transform="matrix(1 0 0 1 0 0)" d="M74.04 650.84L96.72 650.84L96.72 650.84L96.72 215.6L96.72 215.6L74.04 215.6z" /></clipPath><clipPath id="7"><path id="" clip-rule="evenodd" transform="matrix(1 0 0 1 0 0)" d="M96.72 650.84L125.759 650.84L125.759 650.84L125.759 215.6L125.759 215.6L96.72 215.6z" /></clipPath><clipPath id="8"><path id="" clip-rule="evenodd" transform="matrix(1 0 0 1 0 0)" d="M96.72 650.84L125.759 650.84L125.759 650.84L125.759 215.6L125.759 215.6L96.72 215.6z" /></clipPath><clipPath id="9"><path id="" clip-rule="evenodd" transform="matrix(1 0 0 1 0 0)" d="M125.76 650.84L517.68 650.84L517.68 650.84L517.68 215.6L517.68 215.6L125.76 215.6z" /></clipPath><clipPath id="10"><path id="" clip-rule="evenodd" transform="matrix(1 0 0 1 0 0)" d="M125.76 650.84L517.68 650.84L517.68 650.84L517.68 215.6L517.68 215.6L125.76 215.6z" /></clipPath><clipPath id="11"><path id="" clip-rule="evenodd" transform="matrix(1 0 0 1 0 0)" d="M125.76 650.84L517.68 650.84L517.68 650.84L517.68 215.6L517.68 215.6L125.76 215.6z" /></clipPath><clipPath id="12"><path id="" clip-rule="evenodd" transform="matrix(1 0 0 1 0 0)" d="M125.76 650.84L517.68 650.84L517.68 650.84L517.68 215.6L517.68 215.6L125.76 215.6z" /></clipPath><clipPath id="13"><path id="" clip-rule="evenodd" transform="matrix(1 0 0 1 0 0)" d="M125.76 650.84L517.68 650.84L517.68 650.84L517.68 215.6L517.68 215.6L125.76 215.6z" /></clipPath><clipPath id="14"><path id="" clip-rule="evenodd" transform="matrix(1 0 0 1 0 0)" d="M125.76 650.84L517.68 650.84L517.68 650.84L517.68 215.6L517.68 215.6L125.76 215.6z" /></clipPath><clipPath id="15"><path id="" clip-rule="evenodd" transform="matrix(1 0 0 1 0 0)" d="M125.76 650.84L517.68 650.84L517.68 650.84L517.68 215.6L517.68 215.6L125.76 215.6z" /></clipPath><clipPath id="16"><path id="" clip-rule="evenodd" transform="matrix(1 0 0 1 0 0)" d="M125.76 650.84L517.68 650.84L517.68 650.84L517.68 215.6L517.68 215.6L125.76 215.6z" /></clipPath><clipPath id="17"><path id="" clip-rule="evenodd" transform="matrix(1 0 0 1 0 0)" d="M125.76 650.84L517.68 650.84L517.68 650.84L517.68 215.6L517.68 215.6L125.76 215.6z" /></clipPath><clipPath id="18"><path id="" clip-rule="evenodd" transform="matrix(1 0 0 1 0 0)" d="M125.76 650.84L517.68 650.84L517.68 650.84L517.68 215.6L517.68 215.6L125.76 215.6z" /></clipPath><clipPath id="19"><path id="" clip-rule="evenodd" transform="matrix(1 0 0 1 0 0)" d="M125.76 650.84L517.68 650.84L517.68 650.84L517.68 215.6L517.68 215.6L125.76 215.6z" /></clipPath><clipPath id="20"><path id="" clip-rule="evenodd" transform="matrix(1 0 0 1 0 0)" d="M125.76 650.84L517.68 650.84L517.68 650.84L517.68 215.6L517.68 215.6L125.76 215.6z" /></clipPath><clipPath id="21"><path id="" clip-rule="evenodd" transform="matrix(1 0 0 1 0 0)" d="M125.76 650.84L517.68 650.84L517.68 650.84L517.68 215.6L517.68 215.6L125.76 215.6z" /></clipPath><clipPath id="22"><path id="" clip-rule="evenodd" transform="matrix(1 0 0 1 0 0)" d="M125.76 650.84L517.68 650.84L517.68 650.84L517.68 215.6L517.68 215.6L125.76 215.6z" /></clipPath><clipPath id="23"><path id="" clip-rule="evenodd" transform="matrix(1 0 0 1 0 0)" d="M125.76 650.84L517.68 650.84L517.68 650.84L517.68 215.6L517.68 215.6L125.76 215.6z" /></clipPath><clipPath id="24"><path id="" clip-rule="evenodd" transform="matrix(1 0 0 1 0 0)" d="M125.76 650.84L517.68 650.84L517.68 650.84L517.68 215.6L517.68 215.6L125.76 215.6z" /></clipPath><clipPath id="25"><path id="" clip-rule="evenodd" transform="matrix(1 0 0 1 0 0)" d="M125.76 650.84L517.68 650.84L517.68 650.84L517.68 215.6L517.68 215.6L125.76 215.6z" /></clipPath><clipPath id="26"><path id="" clip-rule="evenodd" transform="matrix(1 0 0 1 0 0)" d="M125.76 650.84L517.68 650.84L517.68 650.84L517.68 215.6L517.68 215.6L125.76 215.6z" /></clipPath><clipPath id="27"><path id="" clip-rule="evenodd" transform="matrix(1 0 0 1 0 0)" d="M125.76 650.84L517.68 650.84L517.68 650.84L517.68 215.6L517.68 215.6L125.76 215.6z" /></clipPath><clipPath id="28"><path id="" clip-rule="evenodd" transform="matrix(1 0 0 1 0 0)" d="M125.76 650.84L517.68 650.84L517.68 650.84L517.68 215.6L517.68 215.6L125.76 215.6z" /></clipPath><clipPath id="29"><path id="" clip-rule="evenodd" transform="matrix(1 0 0 1 0 0)" d="M125.76 650.84L517.68 650.84L517.68 650.84L517.68 215.6L517.68 215.6L125.76 215.6z" /></clipPath><clipPath id="30"><path id="" clip-rule="evenodd" transform="matrix(1 0 0 1 0 0)" d="M125.76 650.84L517.68 650.84L517.68 650.84L517.68 215.6L517.68 215.6L125.76 215.6z" /></clipPath><clipPath id="31"><path id="" clip-rule="evenodd" transform="matrix(1 0 0 1 0 0)" d="M125.76 650.84L517.68 650.84L517.68 650.84L517.68 215.6L517.68 215.6L125.76 215.6z" /></clipPath><clipPath id="32"><path id="" clip-rule="evenodd" transform="matrix(1 0 0 1 0 0)" d="M125.76 650.84L517.68 650.84L517.68 650.84L517.68 215.6L517.68 215.6L125.76 215.6z" /></clipPath><clipPath id="33"><path id="" clip-rule="evenodd" transform="matrix(1 0 0 1 0 0)" d="M125.76 650.84L517.68 650.84L517.68 650.84L517.68 215.6L517.68 215.6L125.76 215.6z" /></clipPath><clipPath id="34"><path id="" clip-rule="evenodd" transform="matrix(1 0 0 1 0 0)" d="M125.76 650.84L517.68 650.84L517.68 650.84L517.68 215.6L517.68 215.6L125.76 215.6z" /></clipPath><clipPath id="35"><path id="" clip-rule="evenodd" transform="matrix(1 0 0 1 0 0)" d="M517.68 650.84L533.52 650.84L533.52 650.84L533.52 215.6L533.52 215.6L517.68 215.6z" /></clipPath><clipPath id="36"><path id="" clip-rule="evenodd" transform="matrix(1 0 0 1 0 0)" d="M517.68 650.84L533.52 650.84L533.52 650.84L533.52 215.6L533.52 215.6L517.68 215.6z" /></clipPath><clipPath id="37"><path id="" clip-rule="evenodd" transform="matrix(1 0 0 1 0 0)" d="M74.04 788.48L96.72 788.48L96.72 788.48L96.72 650.84L96.72 650.84L74.04 650.84z" /></clipPath><clipPath id="38"><path id="" clip-rule="evenodd" transform="matrix(1 0 0 1 0 0)" d="M96.72 788.48L125.759 788.48L125.759 788.48L125.759 650.84L125.759 650.84L96.72 650.84z" /></clipPath><clipPath id="39"><path id="" clip-rule="evenodd" transform="matrix(1 0 0 1 0 0)" d="M96.72 788.48L125.759 788.48L125.759 788.48L125.759 650.84L125.759 650.84L96.72 650.84z" /></clipPath><clipPath id="40"><path id="" clip-rule="evenodd" transform="matrix(1 0 0 1 0 0)" d="M125.76 788.48L517.68 788.48L517.68 788.48L517.68 650.84L517.68 650.84L125.76 650.84z" /></clipPath><clipPath id="41"><path id="" clip-rule="evenodd" transform="matrix(1 0 0 1 0 0)" d="M125.76 788.48L517.68 788.48L517.68 788.48L517.68 650.84L517.68 650.84L125.76 650.84z" /></clipPath><clipPath id="42"><path id="" clip-rule="evenodd" transform="matrix(1 0 0 1 0 0)" d="M125.76 788.48L517.68 788.48L517.68 788.48L517.68 650.84L517.68 650.84L125.76 650.84z" /></clipPath><clipPath id="43"><path id="" clip-rule="evenodd" transform="matrix(1 0 0 1 0 0)" d="M125.76 788.48L517.68 788.48L517.68 788.48L517.68 650.84L517.68 650.84L125.76 650.84z" /></clipPath><clipPath id="44"><path id="" clip-rule="evenodd" transform="matrix(1 0 0 1 0 0)" d="M125.76 788.48L517.68 788.48L517.68 788.48L517.68 650.84L517.68 650.84L125.76 650.84z" /></clipPath><clipPath id="45"><path id="" clip-rule="evenodd" transform="matrix(1 0 0 1 0 0)" d="M125.76 788.48L517.68 788.48L517.68 788.48L517.68 650.84L517.68 650.84L125.76 650.84z" /></clipPath><clipPath id="46"><path id="" clip-rule="evenodd" transform="matrix(1 0 0 1 0 0)" d="M125.76 788.48L517.68 788.48L517.68 788.48L517.68 650.84L517.68 650.84L125.76 650.84z" /></clipPath><clipPath id="47"><path id="" clip-rule="evenodd" transform="matrix(1 0 0 1 0 0)" d="M125.76 788.48L517.68 788.48L517.68 788.48L517.68 650.84L517.68 650.84L125.76 650.84z" /></clipPath><clipPath id="48"><path id="" clip-rule="evenodd" transform="matrix(1 0 0 1 0 0)" d="M125.76 788.48L517.68 788.48L517.68 788.48L517.68 650.84L517.68 650.84L125.76 650.84z" /></clipPath><clipPath id="49"><path id="" clip-rule="evenodd" transform="matrix(1 0 0 1 0 0)" d="M125.76 788.48L517.68 788.48L517.68 788.48L517.68 650.84L517.68 650.84L125.76 650.84z" /></clipPath><clipPath id="50"><path id="" clip-rule="evenodd" transform="matrix(1 0 0 1 0 0)" d="M125.76 788.48L517.68 788.48L517.68 788.48L517.68 650.84L517.68 650.84L125.76 650.84z" /></clipPath><clipPath id="51"><path id="" clip-rule="evenodd" transform="matrix(1 0 0 1 0 0)" d="M125.76 788.48L517.68 788.48L517.68 788.48L517.68 650.84L517.68 650.84L125.76 650.84z" /></clipPath><clipPath id="52"><path id="" clip-rule="evenodd" transform="matrix(1 0 0 1 0 0)" d="M125.76 788.48L517.68 788.48L517.68 788.48L517.68 650.84L517.68 650.84L125.76 650.84z" /></clipPath><clipPath id="53"><path id="" clip-rule="evenodd" transform="matrix(1 0 0 1 0 0)" d="M125.76 788.48L517.68 788.48L517.68 788.48L517.68 650.84L517.68 650.84L125.76 650.84z" /></clipPath><clipPath id="54"><path id="" clip-rule="evenodd" transform="matrix(1 0 0 1 0 0)" d="M125.76 788.48L517.68 788.48L517.68 788.48L517.68 650.84L517.68 650.84L125.76 650.84z" /></clipPath><clipPath id="55"><path id="" clip-rule="evenodd" transform="matrix(1 0 0 1 0 0)" d="M125.76 788.48L517.68 788.48L517.68 788.48L517.68 650.84L517.68 650.84L125.76 650.84z" /></clipPath><clipPath id="56"><path id="" clip-rule="evenodd" transform="matrix(1 0 0 1 0 0)" d="M125.76 788.48L517.68 788.48L517.68 788.48L517.68 650.84L517.68 650.84L125.76 650.84z" /></clipPath><clipPath id="57"><path id="" clip-rule="evenodd" transform="matrix(1 0 0 1 0 0)" d="M517.68 788.48L533.52 788.48L533.52 788.48L533.52 650.84L533.52 650.84L517.68 650.84z" /></clipPath><clipPath id="58"><path id="" clip-rule="evenodd" transform="matrix(1 0 0 1 0 0)" d="M517.68 788.48L533.52 788.48L533.52 788.48L533.52 650.84L533.52 650.84L517.68 650.84z" /></clipPath></defs><g transform="matrix(1.333333 0 0 1.333333 0 0)"><g clip-path="url(#1)"><g clip-path="url(#2)"></g><g clip-path="url(#3)"></g><g clip-path="url(#4)"></g><path id="38" transform="matrix(1 0 0 -1 0 842)" d="M125.76 817.56L126.241 817.56L126.241 818.04L125.76 818.04z" stroke="none" fill="#BFBFBF" fill-rule="nonzero" /><path id="39" transform="matrix(1 0 0 -1 0 842)" d="M125.76 817.56L126.241 817.56L126.241 818.04L125.76 818.04z" stroke="none" fill="#BFBFBF" fill-rule="nonzero" /><path id="40" transform="matrix(1 0 0 -1 0 842)" d="M126.24 817.56L331.319 817.56L331.319 818.04L126.24 818.04z" stroke="none" fill="#BFBFBF" fill-rule="nonzero" /><path id="41" transform="matrix(1 0 0 -1 0 842)" d="M331.32 817.56L331.801 817.56L331.801 818.04L331.32 818.04z" stroke="none" fill="#BFBFBF" fill-rule="nonzero" /><path id="42" transform="matrix(1 0 0 -1 0 842)" d="M331.8 817.56L517.2 817.56L517.2 818.04L331.8 818.04z" stroke="none" fill="#BFBFBF" fill-rule="nonzero" /><path id="43" transform="matrix(1 0 0 -1 0 842)" d="M517.2 817.56L517.68 817.56L517.68 818.04L517.2 818.04z" stroke="none" fill="#BFBFBF" fill-rule="nonzero" /><path id="44" transform="matrix(1 0 0 -1 0 842)" d="M517.2 817.56L517.68 817.56L517.68 818.04L517.2 818.04z" stroke="none" fill="#BFBFBF" fill-rule="nonzero" /><path id="45" transform="matrix(1 0 0 -1 0 842)" d="M125.76 779.64L126.241 779.64L126.241 817.56L125.76 817.56z" stroke="none" fill="#BFBFBF" fill-rule="nonzero" /><path id="46" transform="matrix(1 0 0 -1 0 842)" d="M331.32 779.64L331.801 779.64L331.801 817.56L331.32 817.56z" stroke="none" fill="#BFBFBF" fill-rule="nonzero" /><path id="47" transform="matrix(1 0 0 -1 0 842)" d="M517.2 779.64L517.68 779.64L517.68 817.56L517.2 817.56z" stroke="none" fill="#BFBFBF" fill-rule="nonzero" /><path id="225" transform="matrix(1 0 0 -1 0 842)" d="M125.76 779.16L126.241 779.16L126.241 779.641L125.76 779.641z" stroke="none" fill="#BFBFBF" fill-rule="nonzero" /><path id="226" transform="matrix(1 0 0 -1 0 842)" d="M126.24 779.16L331.319 779.16L331.319 779.641L126.24 779.641z" stroke="none" fill="#BFBFBF" fill-rule="nonzero" /><path id="227" transform="matrix(1 0 0 -1 0 842)" d="M331.32 779.16L331.801 779.16L331.801 779.641L331.32 779.641z" stroke="none" fill="#BFBFBF" fill-rule="nonzero" /><path id="228" transform="matrix(1 0 0 -1 0 842)" d="M331.8 779.16L517.2 779.16L517.2 779.641L331.8 779.641z" stroke="none" fill="#BFBFBF" fill-rule="nonzero" /><path id="229" transform="matrix(1 0 0 -1 0 842)" d="M517.2 779.16L517.68 779.16L517.68 779.641L517.2 779.641z" stroke="none" fill="#BFBFBF" fill-rule="nonzero" /><path id="230" transform="matrix(1 0 0 -1 0 842)" d="M125.76 703.32L126.241 703.32L126.241 779.159L125.76 779.159z" stroke="none" fill="#BFBFBF" fill-rule="nonzero" /><path id="231" transform="matrix(1 0 0 -1 0 842)" d="M331.32 703.32L331.801 703.32L331.801 779.159L331.32 779.159z" stroke="none" fill="#BFBFBF" fill-rule="nonzero" /><path id="232" transform="matrix(1 0 0 -1 0 842)" d="M517.2 703.32L517.68 703.32L517.68 779.159L517.2 779.159z" stroke="none" fill="#BFBFBF" fill-rule="nonzero" /><path id="388" transform="matrix(1 0 0 -1 0 842)" d="M125.76 702.84L126.241 702.84L126.241 703.321L125.76 703.321z" stroke="none" fill="#BFBFBF" fill-rule="nonzero" /><path id="389" transform="matrix(1 0 0 -1 0 842)" d="M126.24 702.84L331.319 702.84L331.319 703.321L126.24 703.321z" stroke="none" fill="#BFBFBF" fill-rule="nonzero" /><path id="390" transform="matrix(1 0 0 -1 0 842)" d="M331.32 702.84L331.801 702.84L331.801 703.321L331.32 703.321z" stroke="none" fill="#BFBFBF" fill-rule="nonzero" /><path id="391" transform="matrix(1 0 0 -1 0 842)" d="M331.8 702.84L517.2 702.84L517.2 703.321L331.8 703.321z" stroke="none" fill="#BFBFBF" fill-rule="nonzero" /><path id="392" transform="matrix(1 0 0 -1 0 842)" d="M517.2 702.84L517.68 702.84L517.68 703.321L517.2 703.321z" stroke="none" fill="#BFBFBF" fill-rule="nonzero" /><path id="393" transform="matrix(1 0 0 -1 0 842)" d="M125.76 626.88L126.241 626.88L126.241 702.84L125.76 702.84z" stroke="none" fill="#BFBFBF" fill-rule="nonzero" /><path id="394" transform="matrix(1 0 0 -1 0 842)" d="M125.76 626.4L126.241 626.4L126.241 626.88L125.76 626.88z" stroke="none" fill="#BFBFBF" fill-rule="nonzero" /><path id="395" transform="matrix(1 0 0 -1 0 842)" d="M125.76 626.4L126.241 626.4L126.241 626.88L125.76 626.88z" stroke="none" fill="#BFBFBF" fill-rule="nonzero" /><path id="396" transform="matrix(1 0 0 -1 0 842)" d="M126.24 626.4L331.319 626.4L331.319 626.88L126.24 626.88z" stroke="none" fill="#BFBFBF" fill-rule="nonzero" /><path id="397" transform="matrix(1 0 0 -1 0 842)" d="M331.32 626.88L331.801 626.88L331.801 702.84L331.32 702.84z" stroke="none" fill="#BFBFBF" fill-rule="nonzero" /><path id="398" transform="matrix(1 0 0 -1 0 842)" d="M331.32 626.4L331.801 626.4L331.801 626.88L331.32 626.88z" stroke="none" fill="#BFBFBF" fill-rule="nonzero" /><path id="399" transform="matrix(1 0 0 -1 0 842)" d="M331.8 626.4L517.2 626.4L517.2 626.88L331.8 626.88z" stroke="none" fill="#BFBFBF" fill-rule="nonzero" /><path id="400" transform="matrix(1 0 0 -1 0 842)" d="M517.2 626.88L517.68 626.88L517.68 702.84L517.2 702.84z" stroke="none" fill="#BFBFBF" fill-rule="nonzero" /><path id="401" transform="matrix(1 0 0 -1 0 842)" d="M517.2 626.4L517.68 626.4L517.68 626.88L517.2 626.88z" stroke="none" fill="#BFBFBF" fill-rule="nonzero" /><path id="402" transform="matrix(1 0 0 -1 0 842)" d="M517.2 626.4L517.68 626.4L517.68 626.88L517.2 626.88z" stroke="none" fill="#BFBFBF" fill-rule="nonzero" /><g clip-path="url(#5)"></g><g clip-path="url(#6)"></g><g clip-path="url(#7)"></g><g clip-path="url(#8)"></g><g clip-path="url(#9)"></g><g clip-path="url(#10)"></g><g clip-path="url(#11)"></g><g clip-path="url(#12)"></g><g clip-path="url(#13)"></g><g clip-path="url(#14)"></g><g clip-path="url(#15)"></g><g clip-path="url(#16)"></g><g clip-path="url(#17)"></g><g clip-path="url(#18)"></g><g clip-path="url(#19)"></g><g clip-path="url(#20)"></g><g clip-path="url(#21)"></g><g clip-path="url(#22)"></g><g clip-path="url(#23)"></g><g clip-path="url(#24)"></g><g clip-path="url(#25)"></g><g clip-path="url(#26)"></g><g clip-path="url(#27)"></g><g clip-path="url(#28)"></g><g clip-path="url(#29)"></g><g clip-path="url(#30)"></g><g clip-path="url(#31)"></g><g clip-path="url(#32)"></g><g clip-path="url(#33)"></g><g clip-path="url(#34)"></g><g clip-path="url(#35)"></g><g clip-path="url(#36)"></g><g clip-path="url(#37)"></g><g clip-path="url(#38)"></g><g clip-path="url(#39)"></g><g clip-path="url(#40)"></g><g clip-path="url(#41)"></g><g clip-path="url(#42)"></g><g clip-path="url(#43)"></g><g clip-path="url(#44)"></g><g clip-path="url(#45)"></g><g clip-path="url(#46)"></g><g clip-path="url(#47)"></g><g clip-path="url(#48)"></g><g clip-path="url(#49)"></g><g clip-path="url(#50)"></g><g clip-path="url(#51)"></g><g clip-path="url(#52)"></g><g clip-path="url(#53)"></g><g clip-path="url(#54)"></g><g clip-path="url(#55)"></g><g clip-path="url(#56)"></g><g clip-path="url(#57)"></g><g clip-path="url(#58)"></g></g></g></svg>