<svg xmlns="http://www.w3.org/2000/svg" xmlns:xlink="http://www.w3.org/1999/xlink" id="body_4" preserveAspectRatio="xMinYMin meet" viewBox="0 0 793 1123"><defs><clipPath id="1"><path id="" clip-rule="evenodd" transform="matrix(1 0 0 1 0 0)" d="M0 842L0 -0.03997803L0 -0.03997803L595.56 -0.03997803L595.56 -0.03997803L595.56 842L595.56 842L0 842z" /></clipPath><clipPath id="2"><path id="" clip-rule="evenodd" transform="matrix(1 0 0 1 0 0)" d="M529.44 806.48L542.04 806.48L542.04 806.48L542.04 792.32L542.04 792.32L529.44 792.32z" /></clipPath><clipPath id="3"><path id="" clip-rule="evenodd" transform="matrix(1 0 0 1 0 0)" d="M529.44 806.48L542.04 806.48L542.04 806.48L542.04 792.32L542.04 792.32L529.44 792.32z" /></clipPath></defs><g transform="matrix(1.333333 0 0 1.333333 0 0)"><g clip-path="url(#1)"><g clip-path="url(#2)"></g><g clip-path="url(#3)"></g><path id="261" transform="matrix(1 0 0 -1 0 842)" d="M74.04 642.48L74.52 642.48L74.52 642.96L74.04 642.96z" stroke="none" fill="#BFBFBF" fill-rule="nonzero" /><path id="262" transform="matrix(1 0 0 -1 0 842)" d="M74.04 642.48L74.52 642.48L74.52 642.96L74.04 642.96z" stroke="none" fill="#BFBFBF" fill-rule="nonzero" /><path id="263" transform="matrix(1 0 0 -1 0 842)" d="M74.52 642.48L298.56 642.48L298.56 642.96L74.52 642.96z" stroke="none" fill="#BFBFBF" fill-rule="nonzero" /><path id="264" transform="matrix(1 0 0 -1 0 842)" d="M298.56 642.48L299.041 642.48L299.041 642.96L298.56 642.96z" stroke="none" fill="#BFBFBF" fill-rule="nonzero" /><path id="265" transform="matrix(1 0 0 -1 0 842)" d="M299.04 642.48L544.32 642.48L544.32 642.96L299.04 642.96z" stroke="none" fill="#BFBFBF" fill-rule="nonzero" /><path id="266" transform="matrix(1 0 0 -1 0 842)" d="M544.32 642.48L544.8 642.48L544.8 642.96L544.32 642.96z" stroke="none" fill="#BFBFBF" fill-rule="nonzero" /><path id="267" transform="matrix(1 0 0 -1 0 842)" d="M544.32 642.48L544.8 642.48L544.8 642.96L544.32 642.96z" stroke="none" fill="#BFBFBF" fill-rule="nonzero" /><path id="268" transform="matrix(1 0 0 -1 0 842)" d="M74.04 614.4L74.52 614.4L74.52 642.48L74.04 642.48z" stroke="none" fill="#BFBFBF" fill-rule="nonzero" /><path id="269" transform="matrix(1 0 0 -1 0 842)" d="M298.56 614.4L299.041 614.4L299.041 642.48L298.56 642.48z" stroke="none" fill="#BFBFBF" fill-rule="nonzero" /><path id="270" transform="matrix(1 0 0 -1 0 842)" d="M544.32 614.4L544.8 614.4L544.8 642.48L544.32 642.48z" stroke="none" fill="#BFBFBF" fill-rule="nonzero" /><path id="423" transform="matrix(1 0 0 -1 0 842)" d="M74.04 613.92L74.52 613.92L74.52 614.401L74.04 614.401z" stroke="none" fill="#BFBFBF" fill-rule="nonzero" /><path id="424" transform="matrix(1 0 0 -1 0 842)" d="M74.52 613.92L298.56 613.92L298.56 614.401L74.52 614.401z" stroke="none" fill="#BFBFBF" fill-rule="nonzero" /><path id="425" transform="matrix(1 0 0 -1 0 842)" d="M298.56 613.92L299.041 613.92L299.041 614.401L298.56 614.401z" stroke="none" fill="#BFBFBF" fill-rule="nonzero" /><path id="426" transform="matrix(1 0 0 -1 0 842)" d="M299.04 613.92L544.32 613.92L544.32 614.401L299.04 614.401z" stroke="none" fill="#BFBFBF" fill-rule="nonzero" /><path id="427" transform="matrix(1 0 0 -1 0 842)" d="M544.32 613.92L544.8 613.92L544.8 614.401L544.32 614.401z" stroke="none" fill="#BFBFBF" fill-rule="nonzero" /><path id="428" transform="matrix(1 0 0 -1 0 842)" d="M74.04 554.04L74.52 554.04L74.52 613.92L74.04 613.92z" stroke="none" fill="#BFBFBF" fill-rule="nonzero" /><path id="429" transform="matrix(1 0 0 -1 0 842)" d="M298.56 554.04L299.041 554.04L299.041 613.92L298.56 613.92z" stroke="none" fill="#BFBFBF" fill-rule="nonzero" /><path id="430" transform="matrix(1 0 0 -1 0 842)" d="M544.32 554.04L544.8 554.04L544.8 613.92L544.32 613.92z" stroke="none" fill="#BFBFBF" fill-rule="nonzero" /><path id="537" transform="matrix(1 0 0 -1 0 842)" d="M74.04 553.56L74.52 553.56L74.52 554.04L74.04 554.04z" stroke="none" fill="#BFBFBF" fill-rule="nonzero" /><path id="538" transform="matrix(1 0 0 -1 0 842)" d="M74.52 553.56L298.56 553.56L298.56 554.04L74.52 554.04z" stroke="none" fill="#BFBFBF" fill-rule="nonzero" /><path id="539" transform="matrix(1 0 0 -1 0 842)" d="M298.56 553.56L299.041 553.56L299.041 554.04L298.56 554.04z" stroke="none" fill="#BFBFBF" fill-rule="nonzero" /><path id="540" transform="matrix(1 0 0 -1 0 842)" d="M299.04 553.56L544.32 553.56L544.32 554.04L299.04 554.04z" stroke="none" fill="#BFBFBF" fill-rule="nonzero" /><path id="541" transform="matrix(1 0 0 -1 0 842)" d="M544.32 553.56L544.8 553.56L544.8 554.04L544.32 554.04z" stroke="none" fill="#BFBFBF" fill-rule="nonzero" /><path id="542" transform="matrix(1 0 0 -1 0 842)" d="M74.04 493.68L74.52 493.68L74.52 553.561L74.04 553.561z" stroke="none" fill="#BFBFBF" fill-rule="nonzero" /><path id="543" transform="matrix(1 0 0 -1 0 842)" d="M298.56 493.68L299.041 493.68L299.041 553.561L298.56 553.561z" stroke="none" fill="#BFBFBF" fill-rule="nonzero" /><path id="544" transform="matrix(1 0 0 -1 0 842)" d="M544.32 493.68L544.8 493.68L544.8 553.561L544.32 553.561z" stroke="none" fill="#BFBFBF" fill-rule="nonzero" /><path id="594" transform="matrix(1 0 0 -1 0 842)" d="M74.04 493.2L74.52 493.2L74.52 493.68L74.04 493.68z" stroke="none" fill="#BFBFBF" fill-rule="nonzero" /><path id="595" transform="matrix(1 0 0 -1 0 842)" d="M74.52 493.2L298.56 493.2L298.56 493.68L74.52 493.68z" stroke="none" fill="#BFBFBF" fill-rule="nonzero" /><path id="596" transform="matrix(1 0 0 -1 0 842)" d="M298.56 493.2L299.041 493.2L299.041 493.68L298.56 493.68z" stroke="none" fill="#BFBFBF" fill-rule="nonzero" /><path id="597" transform="matrix(1 0 0 -1 0 842)" d="M299.04 493.2L544.32 493.2L544.32 493.68L299.04 493.68z" stroke="none" fill="#BFBFBF" fill-rule="nonzero" /><path id="598" transform="matrix(1 0 0 -1 0 842)" d="M544.32 493.2L544.8 493.2L544.8 493.68L544.32 493.68z" stroke="none" fill="#BFBFBF" fill-rule="nonzero" /><path id="599" transform="matrix(1 0 0 -1 0 842)" d="M74.04 465.24L74.52 465.24L74.52 493.2L74.04 493.2z" stroke="none" fill="#BFBFBF" fill-rule="nonzero" /><path id="600" transform="matrix(1 0 0 -1 0 842)" d="M298.56 465.24L299.041 465.24L299.041 493.2L298.56 493.2z" stroke="none" fill="#BFBFBF" fill-rule="nonzero" /><path id="601" transform="matrix(1 0 0 -1 0 842)" d="M544.32 465.24L544.8 465.24L544.8 493.2L544.32 493.2z" stroke="none" fill="#BFBFBF" fill-rule="nonzero" /><path id="728" transform="matrix(1 0 0 -1 0 842)" d="M74.04 464.76L74.52 464.76L74.52 465.24L74.04 465.24z" stroke="none" fill="#BFBFBF" fill-rule="nonzero" /><path id="729" transform="matrix(1 0 0 -1 0 842)" d="M74.52 464.76L298.56 464.76L298.56 465.24L74.52 465.24z" stroke="none" fill="#BFBFBF" fill-rule="nonzero" /><path id="730" transform="matrix(1 0 0 -1 0 842)" d="M298.56 464.76L299.041 464.76L299.041 465.24L298.56 465.24z" stroke="none" fill="#BFBFBF" fill-rule="nonzero" /><path id="731" transform="matrix(1 0 0 -1 0 842)" d="M299.04 464.76L544.32 464.76L544.32 465.24L299.04 465.24z" stroke="none" fill="#BFBFBF" fill-rule="nonzero" /><path id="732" transform="matrix(1 0 0 -1 0 842)" d="M544.32 464.76L544.8 464.76L544.8 465.24L544.32 465.24z" stroke="none" fill="#BFBFBF" fill-rule="nonzero" /><path id="733" transform="matrix(1 0 0 -1 0 842)" d="M74.04 404.88L74.52 404.88L74.52 464.76L74.04 464.76z" stroke="none" fill="#BFBFBF" fill-rule="nonzero" /><path id="734" transform="matrix(1 0 0 -1 0 842)" d="M298.56 404.88L299.041 404.88L299.041 464.76L298.56 464.76z" stroke="none" fill="#BFBFBF" fill-rule="nonzero" /><path id="735" transform="matrix(1 0 0 -1 0 842)" d="M544.32 404.88L544.8 404.88L544.8 464.76L544.32 464.76z" stroke="none" fill="#BFBFBF" fill-rule="nonzero" /><path id="849" transform="matrix(1 0 0 -1 0 842)" d="M74.04 404.4L74.52 404.4L74.52 404.881L74.04 404.881z" stroke="none" fill="#BFBFBF" fill-rule="nonzero" /><path id="850" transform="matrix(1 0 0 -1 0 842)" d="M74.52 404.4L298.56 404.4L298.56 404.881L74.52 404.881z" stroke="none" fill="#BFBFBF" fill-rule="nonzero" /><path id="851" transform="matrix(1 0 0 -1 0 842)" d="M298.56 404.4L299.041 404.4L299.041 404.881L298.56 404.881z" stroke="none" fill="#BFBFBF" fill-rule="nonzero" /><path id="852" transform="matrix(1 0 0 -1 0 842)" d="M299.04 404.4L544.32 404.4L544.32 404.881L299.04 404.881z" stroke="none" fill="#BFBFBF" fill-rule="nonzero" /><path id="853" transform="matrix(1 0 0 -1 0 842)" d="M544.32 404.4L544.8 404.4L544.8 404.881L544.32 404.881z" stroke="none" fill="#BFBFBF" fill-rule="nonzero" /><path id="854" transform="matrix(1 0 0 -1 0 842)" d="M74.04 360.36L74.52 360.36L74.52 404.4L74.04 404.4z" stroke="none" fill="#BFBFBF" fill-rule="nonzero" /><path id="855" transform="matrix(1 0 0 -1 0 842)" d="M74.04 359.88L74.52 359.88L74.52 360.36L74.04 360.36z" stroke="none" fill="#BFBFBF" fill-rule="nonzero" /><path id="856" transform="matrix(1 0 0 -1 0 842)" d="M74.04 359.88L74.52 359.88L74.52 360.36L74.04 360.36z" stroke="none" fill="#BFBFBF" fill-rule="nonzero" /><path id="857" transform="matrix(1 0 0 -1 0 842)" d="M74.52 359.88L298.56 359.88L298.56 360.36L74.52 360.36z" stroke="none" fill="#BFBFBF" fill-rule="nonzero" /><path id="858" transform="matrix(1 0 0 -1 0 842)" d="M298.56 360.36L299.041 360.36L299.041 404.4L298.56 404.4z" stroke="none" fill="#BFBFBF" fill-rule="nonzero" /><path id="859" transform="matrix(1 0 0 -1 0 842)" d="M298.56 359.88L299.041 359.88L299.041 360.36L298.56 360.36z" stroke="none" fill="#BFBFBF" fill-rule="nonzero" /><path id="860" transform="matrix(1 0 0 -1 0 842)" d="M299.04 359.88L544.32 359.88L544.32 360.36L299.04 360.36z" stroke="none" fill="#BFBFBF" fill-rule="nonzero" /><path id="861" transform="matrix(1 0 0 -1 0 842)" d="M544.32 360.36L544.8 360.36L544.8 404.4L544.32 404.4z" stroke="none" fill="#BFBFBF" fill-rule="nonzero" /><path id="862" transform="matrix(1 0 0 -1 0 842)" d="M544.32 359.88L544.8 359.88L544.8 360.36L544.32 360.36z" stroke="none" fill="#BFBFBF" fill-rule="nonzero" /><path id="863" transform="matrix(1 0 0 -1 0 842)" d="M544.32 359.88L544.8 359.88L544.8 360.36L544.32 360.36z" stroke="none" fill="#BFBFBF" fill-rule="nonzero" /></g></g></svg>