<svg xmlns="http://www.w3.org/2000/svg" xmlns:xlink="http://www.w3.org/1999/xlink" id="body_5" preserveAspectRatio="xMinYMin meet" viewBox="0 0 793 1123"><defs><clipPath id="1"><path id="" clip-rule="evenodd" transform="matrix(1 0 0 1 0 0)" d="M0 842L0 -0.03997803L0 -0.03997803L595.56 -0.03997803L595.56 -0.03997803L595.56 842L595.56 842L0 842z" /></clipPath><clipPath id="2"><path id="" clip-rule="evenodd" transform="matrix(1 0 0 1 0 0)" d="M529.44 806.48L542.04 806.48L542.04 806.48L542.04 792.32L542.04 792.32L529.44 792.32z" /></clipPath><clipPath id="3"><path id="" clip-rule="evenodd" transform="matrix(1 0 0 1 0 0)" d="M529.44 806.48L542.04 806.48L542.04 806.48L542.04 792.32L542.04 792.32L529.44 792.32z" /></clipPath><clipPath id="4"><path id="" clip-rule="evenodd" transform="matrix(1 0 0 1 0 0)" d="M74.04 629.48L96.72 629.48L96.72 629.48L96.72 225.92L96.72 225.92L74.04 225.92z" /></clipPath><clipPath id="5"><path id="" clip-rule="evenodd" transform="matrix(1 0 0 1 0 0)" d="M74.04 629.48L96.72 629.48L96.72 629.48L96.72 225.92L96.72 225.92L74.04 225.92z" /></clipPath><clipPath id="6"><path id="" clip-rule="evenodd" transform="matrix(1 0 0 1 0 0)" d="M96.72 629.48L125.759 629.48L125.759 629.48L125.759 225.92L125.759 225.92L96.72 225.92z" /></clipPath><clipPath id="7"><path id="" clip-rule="evenodd" transform="matrix(1 0 0 1 0 0)" d="M96.72 629.48L125.759 629.48L125.759 629.48L125.759 225.92L125.759 225.92L96.72 225.92z" /></clipPath><clipPath id="8"><path id="" clip-rule="evenodd" transform="matrix(1 0 0 1 0 0)" d="M125.76 629.48L517.68 629.48L517.68 629.48L517.68 225.92L517.68 225.92L125.76 225.92z" /></clipPath><clipPath id="9"><path id="" clip-rule="evenodd" transform="matrix(1 0 0 1 0 0)" d="M125.76 629.48L517.68 629.48L517.68 629.48L517.68 225.92L517.68 225.92L125.76 225.92z" /></clipPath><clipPath id="10"><path id="" clip-rule="evenodd" transform="matrix(1 0 0 1 0 0)" d="M125.76 629.48L517.68 629.48L517.68 629.48L517.68 225.92L517.68 225.92L125.76 225.92z" /></clipPath><clipPath id="11"><path id="" clip-rule="evenodd" transform="matrix(1 0 0 1 0 0)" d="M125.76 629.48L517.68 629.48L517.68 629.48L517.68 225.92L517.68 225.92L125.76 225.92z" /></clipPath><clipPath id="12"><path id="" clip-rule="evenodd" transform="matrix(1 0 0 1 0 0)" d="M125.76 629.48L517.68 629.48L517.68 629.48L517.68 225.92L517.68 225.92L125.76 225.92z" /></clipPath><clipPath id="13"><path id="" clip-rule="evenodd" transform="matrix(1 0 0 1 0 0)" d="M125.76 629.48L517.68 629.48L517.68 629.48L517.68 225.92L517.68 225.92L125.76 225.92z" /></clipPath><clipPath id="14"><path id="" clip-rule="evenodd" transform="matrix(1 0 0 1 0 0)" d="M125.76 629.48L517.68 629.48L517.68 629.48L517.68 225.92L517.68 225.92L125.76 225.92z" /></clipPath><clipPath id="15"><path id="" clip-rule="evenodd" transform="matrix(1 0 0 1 0 0)" d="M125.76 629.48L517.68 629.48L517.68 629.48L517.68 225.92L517.68 225.92L125.76 225.92z" /></clipPath><clipPath id="16"><path id="" clip-rule="evenodd" transform="matrix(1 0 0 1 0 0)" d="M125.76 629.48L517.68 629.48L517.68 629.48L517.68 225.92L517.68 225.92L125.76 225.92z" /></clipPath><clipPath id="17"><path id="" clip-rule="evenodd" transform="matrix(1 0 0 1 0 0)" d="M125.76 629.48L517.68 629.48L517.68 629.48L517.68 225.92L517.68 225.92L125.76 225.92z" /></clipPath><clipPath id="18"><path id="" clip-rule="evenodd" transform="matrix(1 0 0 1 0 0)" d="M125.76 629.48L517.68 629.48L517.68 629.48L517.68 225.92L517.68 225.92L125.76 225.92z" /></clipPath><clipPath id="19"><path id="" clip-rule="evenodd" transform="matrix(1 0 0 1 0 0)" d="M125.76 629.48L517.68 629.48L517.68 629.48L517.68 225.92L517.68 225.92L125.76 225.92z" /></clipPath><clipPath id="20"><path id="" clip-rule="evenodd" transform="matrix(1 0 0 1 0 0)" d="M125.76 629.48L517.68 629.48L517.68 629.48L517.68 225.92L517.68 225.92L125.76 225.92z" /></clipPath><clipPath id="21"><path id="" clip-rule="evenodd" transform="matrix(1 0 0 1 0 0)" d="M125.76 629.48L517.68 629.48L517.68 629.48L517.68 225.92L517.68 225.92L125.76 225.92z" /></clipPath><clipPath id="22"><path id="" clip-rule="evenodd" transform="matrix(1 0 0 1 0 0)" d="M125.76 629.48L517.68 629.48L517.68 629.48L517.68 225.92L517.68 225.92L125.76 225.92z" /></clipPath><clipPath id="23"><path id="" clip-rule="evenodd" transform="matrix(1 0 0 1 0 0)" d="M125.76 629.48L517.68 629.48L517.68 629.48L517.68 225.92L517.68 225.92L125.76 225.92z" /></clipPath><clipPath id="24"><path id="" clip-rule="evenodd" transform="matrix(1 0 0 1 0 0)" d="M125.76 629.48L517.68 629.48L517.68 629.48L517.68 225.92L517.68 225.92L125.76 225.92z" /></clipPath><clipPath id="25"><path id="" clip-rule="evenodd" transform="matrix(1 0 0 1 0 0)" d="M125.76 629.48L517.68 629.48L517.68 629.48L517.68 225.92L517.68 225.92L125.76 225.92z" /></clipPath><clipPath id="26"><path id="" clip-rule="evenodd" transform="matrix(1 0 0 1 0 0)" d="M125.76 629.48L517.68 629.48L517.68 629.48L517.68 225.92L517.68 225.92L125.76 225.92z" /></clipPath><clipPath id="27"><path id="" clip-rule="evenodd" transform="matrix(1 0 0 1 0 0)" d="M125.76 629.48L517.68 629.48L517.68 629.48L517.68 225.92L517.68 225.92L125.76 225.92z" /></clipPath><clipPath id="28"><path id="" clip-rule="evenodd" transform="matrix(1 0 0 1 0 0)" d="M125.76 629.48L517.68 629.48L517.68 629.48L517.68 225.92L517.68 225.92L125.76 225.92z" /></clipPath><clipPath id="29"><path id="" clip-rule="evenodd" transform="matrix(1 0 0 1 0 0)" d="M517.68 629.48L533.52 629.48L533.52 629.48L533.52 225.92L533.52 225.92L517.68 225.92z" /></clipPath><clipPath id="30"><path id="" clip-rule="evenodd" transform="matrix(1 0 0 1 0 0)" d="M517.68 629.48L533.52 629.48L533.52 629.48L533.52 225.92L533.52 225.92L517.68 225.92z" /></clipPath><clipPath id="31"><path id="" clip-rule="evenodd" transform="matrix(1 0 0 1 0 0)" d="M74.04 765.08L96.72 765.08L96.72 765.08L96.72 629.481L96.72 629.481L74.04 629.481z" /></clipPath><clipPath id="32"><path id="" clip-rule="evenodd" transform="matrix(1 0 0 1 0 0)" d="M96.72 765.08L125.759 765.08L125.759 765.08L125.759 629.481L125.759 629.481L96.72 629.481z" /></clipPath><clipPath id="33"><path id="" clip-rule="evenodd" transform="matrix(1 0 0 1 0 0)" d="M96.72 765.08L125.759 765.08L125.759 765.08L125.759 629.481L125.759 629.481L96.72 629.481z" /></clipPath><clipPath id="34"><path id="" clip-rule="evenodd" transform="matrix(1 0 0 1 0 0)" d="M125.76 765.08L517.68 765.08L517.68 765.08L517.68 629.481L517.68 629.481L125.76 629.481z" /></clipPath><clipPath id="35"><path id="" clip-rule="evenodd" transform="matrix(1 0 0 1 0 0)" d="M125.76 765.08L517.68 765.08L517.68 765.08L517.68 629.481L517.68 629.481L125.76 629.481z" /></clipPath><clipPath id="36"><path id="" clip-rule="evenodd" transform="matrix(1 0 0 1 0 0)" d="M125.76 765.08L517.68 765.08L517.68 765.08L517.68 629.481L517.68 629.481L125.76 629.481z" /></clipPath><clipPath id="37"><path id="" clip-rule="evenodd" transform="matrix(1 0 0 1 0 0)" d="M125.76 765.08L517.68 765.08L517.68 765.08L517.68 629.481L517.68 629.481L125.76 629.481z" /></clipPath><clipPath id="38"><path id="" clip-rule="evenodd" transform="matrix(1 0 0 1 0 0)" d="M125.76 765.08L517.68 765.08L517.68 765.08L517.68 629.481L517.68 629.481L125.76 629.481z" /></clipPath><clipPath id="39"><path id="" clip-rule="evenodd" transform="matrix(1 0 0 1 0 0)" d="M125.76 765.08L517.68 765.08L517.68 765.08L517.68 629.481L517.68 629.481L125.76 629.481z" /></clipPath><clipPath id="40"><path id="" clip-rule="evenodd" transform="matrix(1 0 0 1 0 0)" d="M125.76 765.08L517.68 765.08L517.68 765.08L517.68 629.481L517.68 629.481L125.76 629.481z" /></clipPath><clipPath id="41"><path id="" clip-rule="evenodd" transform="matrix(1 0 0 1 0 0)" d="M125.76 765.08L517.68 765.08L517.68 765.08L517.68 629.481L517.68 629.481L125.76 629.481z" /></clipPath><clipPath id="42"><path id="" clip-rule="evenodd" transform="matrix(1 0 0 1 0 0)" d="M125.76 765.08L517.68 765.08L517.68 765.08L517.68 629.481L517.68 629.481L125.76 629.481z" /></clipPath><clipPath id="43"><path id="" clip-rule="evenodd" transform="matrix(1 0 0 1 0 0)" d="M125.76 765.08L517.68 765.08L517.68 765.08L517.68 629.481L517.68 629.481L125.76 629.481z" /></clipPath><clipPath id="44"><path id="" clip-rule="evenodd" transform="matrix(1 0 0 1 0 0)" d="M125.76 765.08L517.68 765.08L517.68 765.08L517.68 629.481L517.68 629.481L125.76 629.481z" /></clipPath><clipPath id="45"><path id="" clip-rule="evenodd" transform="matrix(1 0 0 1 0 0)" d="M125.76 765.08L517.68 765.08L517.68 765.08L517.68 629.481L517.68 629.481L125.76 629.481z" /></clipPath><clipPath id="46"><path id="" clip-rule="evenodd" transform="matrix(1 0 0 1 0 0)" d="M125.76 765.08L517.68 765.08L517.68 765.08L517.68 629.481L517.68 629.481L125.76 629.481z" /></clipPath><clipPath id="47"><path id="" clip-rule="evenodd" transform="matrix(1 0 0 1 0 0)" d="M125.76 765.08L517.68 765.08L517.68 765.08L517.68 629.481L517.68 629.481L125.76 629.481z" /></clipPath><clipPath id="48"><path id="" clip-rule="evenodd" transform="matrix(1 0 0 1 0 0)" d="M125.76 765.08L517.68 765.08L517.68 765.08L517.68 629.481L517.68 629.481L125.76 629.481z" /></clipPath><clipPath id="49"><path id="" clip-rule="evenodd" transform="matrix(1 0 0 1 0 0)" d="M125.76 765.08L517.68 765.08L517.68 765.08L517.68 629.481L517.68 629.481L125.76 629.481z" /></clipPath><clipPath id="50"><path id="" clip-rule="evenodd" transform="matrix(1 0 0 1 0 0)" d="M125.76 765.08L517.68 765.08L517.68 765.08L517.68 629.481L517.68 629.481L125.76 629.481z" /></clipPath><clipPath id="51"><path id="" clip-rule="evenodd" transform="matrix(1 0 0 1 0 0)" d="M125.76 765.08L517.68 765.08L517.68 765.08L517.68 629.481L517.68 629.481L125.76 629.481z" /></clipPath><clipPath id="52"><path id="" clip-rule="evenodd" transform="matrix(1 0 0 1 0 0)" d="M125.76 765.08L517.68 765.08L517.68 765.08L517.68 629.481L517.68 629.481L125.76 629.481z" /></clipPath><clipPath id="53"><path id="" clip-rule="evenodd" transform="matrix(1 0 0 1 0 0)" d="M125.76 765.08L517.68 765.08L517.68 765.08L517.68 629.481L517.68 629.481L125.76 629.481z" /></clipPath><clipPath id="54"><path id="" clip-rule="evenodd" transform="matrix(1 0 0 1 0 0)" d="M125.76 765.08L517.68 765.08L517.68 765.08L517.68 629.481L517.68 629.481L125.76 629.481z" /></clipPath><clipPath id="55"><path id="" clip-rule="evenodd" transform="matrix(1 0 0 1 0 0)" d="M125.76 765.08L517.68 765.08L517.68 765.08L517.68 629.481L517.68 629.481L125.76 629.481z" /></clipPath><clipPath id="56"><path id="" clip-rule="evenodd" transform="matrix(1 0 0 1 0 0)" d="M125.76 765.08L517.68 765.08L517.68 765.08L517.68 629.481L517.68 629.481L125.76 629.481z" /></clipPath><clipPath id="57"><path id="" clip-rule="evenodd" transform="matrix(1 0 0 1 0 0)" d="M125.76 765.08L517.68 765.08L517.68 765.08L517.68 629.481L517.68 629.481L125.76 629.481z" /></clipPath><clipPath id="58"><path id="" clip-rule="evenodd" transform="matrix(1 0 0 1 0 0)" d="M125.76 765.08L517.68 765.08L517.68 765.08L517.68 629.481L517.68 629.481L125.76 629.481z" /></clipPath><clipPath id="59"><path id="" clip-rule="evenodd" transform="matrix(1 0 0 1 0 0)" d="M125.76 765.08L517.68 765.08L517.68 765.08L517.68 629.481L517.68 629.481L125.76 629.481z" /></clipPath><clipPath id="60"><path id="" clip-rule="evenodd" transform="matrix(1 0 0 1 0 0)" d="M125.76 765.08L517.68 765.08L517.68 765.08L517.68 629.481L517.68 629.481L125.76 629.481z" /></clipPath><clipPath id="61"><path id="" clip-rule="evenodd" transform="matrix(1 0 0 1 0 0)" d="M125.76 765.08L517.68 765.08L517.68 765.08L517.68 629.481L517.68 629.481L125.76 629.481z" /></clipPath><clipPath id="62"><path id="" clip-rule="evenodd" transform="matrix(1 0 0 1 0 0)" d="M125.76 765.08L517.68 765.08L517.68 765.08L517.68 629.481L517.68 629.481L125.76 629.481z" /></clipPath><clipPath id="63"><path id="" clip-rule="evenodd" transform="matrix(1 0 0 1 0 0)" d="M125.76 765.08L517.68 765.08L517.68 765.08L517.68 629.481L517.68 629.481L125.76 629.481z" /></clipPath><clipPath id="64"><path id="" clip-rule="evenodd" transform="matrix(1 0 0 1 0 0)" d="M125.76 765.08L517.68 765.08L517.68 765.08L517.68 629.481L517.68 629.481L125.76 629.481z" /></clipPath><clipPath id="65"><path id="" clip-rule="evenodd" transform="matrix(1 0 0 1 0 0)" d="M125.76 765.08L517.68 765.08L517.68 765.08L517.68 629.481L517.68 629.481L125.76 629.481z" /></clipPath><clipPath id="66"><path id="" clip-rule="evenodd" transform="matrix(1 0 0 1 0 0)" d="M125.76 765.08L517.68 765.08L517.68 765.08L517.68 629.481L517.68 629.481L125.76 629.481z" /></clipPath><clipPath id="67"><path id="" clip-rule="evenodd" transform="matrix(1 0 0 1 0 0)" d="M125.76 765.08L517.68 765.08L517.68 765.08L517.68 629.481L517.68 629.481L125.76 629.481z" /></clipPath><clipPath id="68"><path id="" clip-rule="evenodd" transform="matrix(1 0 0 1 0 0)" d="M517.68 765.08L533.52 765.08L533.52 765.08L533.52 629.481L533.52 629.481L517.68 629.481z" /></clipPath><clipPath id="69"><path id="" clip-rule="evenodd" transform="matrix(1 0 0 1 0 0)" d="M517.68 765.08L533.52 765.08L533.52 765.08L533.52 629.481L533.52 629.481L517.68 629.481z" /></clipPath></defs><g transform="matrix(1.333333 0 0 1.333333 0 0)"><g clip-path="url(#1)"><g clip-path="url(#2)"></g><g clip-path="url(#3)"></g><path id="23" transform="matrix(1 0 0 -1 0 842)" d="M129.84 767.64L177.599 767.64L177.599 768.36L129.84 768.36z" stroke="none" fill="#000000" fill-rule="nonzero" /><path id="24" transform="matrix(1 0 0 -1 0 842)" d="M456.72 767.64L521.399 767.64L521.399 768.36L456.72 768.36z" stroke="none" fill="#000000" fill-rule="nonzero" /><g clip-path="url(#4)"></g><g clip-path="url(#5)"></g><g clip-path="url(#6)"></g><g clip-path="url(#7)"></g><g clip-path="url(#8)"></g><g clip-path="url(#9)"></g><g clip-path="url(#10)"></g><g clip-path="url(#11)"></g><g clip-path="url(#12)"></g><g clip-path="url(#13)"></g><g clip-path="url(#14)"></g><g clip-path="url(#15)"></g><g clip-path="url(#16)"></g><g clip-path="url(#17)"></g><g clip-path="url(#18)"></g><g clip-path="url(#19)"></g><g clip-path="url(#20)"></g><g clip-path="url(#21)"></g><g clip-path="url(#22)"></g><g clip-path="url(#23)"></g><g clip-path="url(#24)"></g><g clip-path="url(#25)"></g><g clip-path="url(#26)"></g><g clip-path="url(#27)"></g><g clip-path="url(#28)"></g><g clip-path="url(#29)"></g><g clip-path="url(#30)"></g><g clip-path="url(#31)"></g><g clip-path="url(#32)"></g><g clip-path="url(#33)"></g><g clip-path="url(#34)"></g><g clip-path="url(#35)"></g><g clip-path="url(#36)"></g><g clip-path="url(#37)"></g><g clip-path="url(#38)"></g><g clip-path="url(#39)"></g><g clip-path="url(#40)"></g><g clip-path="url(#41)"></g><g clip-path="url(#42)"></g><g clip-path="url(#43)"></g><g clip-path="url(#44)"></g><g clip-path="url(#45)"></g><g clip-path="url(#46)"></g><g clip-path="url(#47)"></g><g clip-path="url(#48)"></g><g clip-path="url(#49)"></g><g clip-path="url(#50)"></g><g clip-path="url(#51)"></g><g clip-path="url(#52)"></g><g clip-path="url(#53)"></g><g clip-path="url(#54)"></g><g clip-path="url(#55)"></g><g clip-path="url(#56)"></g><g clip-path="url(#57)"></g><g clip-path="url(#58)"></g><g clip-path="url(#59)"></g><g clip-path="url(#60)"></g><g clip-path="url(#61)"></g><g clip-path="url(#62)"></g><g clip-path="url(#63)"></g><g clip-path="url(#64)"></g><g clip-path="url(#65)"></g><g clip-path="url(#66)"></g><g clip-path="url(#67)"></g><g clip-path="url(#68)"></g><g clip-path="url(#69)"></g></g></g></svg>