<svg xmlns="http://www.w3.org/2000/svg" xmlns:xlink="http://www.w3.org/1999/xlink" id="body_1" preserveAspectRatio="xMinYMin meet" viewBox="0 0 793 1123"><defs><clipPath id="1"><path id="" clip-rule="evenodd" transform="matrix(1 0 0 1 0 0)" d="M0 842L0 -0.03997803L0 -0.03997803L595.56 -0.03997803L595.56 -0.03997803L595.56 842L595.56 842L0 842z" /></clipPath><clipPath id="2"><path id="" clip-rule="evenodd" transform="matrix(1 0 0 1 0 0)" d="M529.44 806.48L541.919 806.48L541.919 806.48L541.919 792.32L541.919 792.32L529.44 792.32z" /></clipPath><clipPath id="3"><path id="" clip-rule="evenodd" transform="matrix(1 0 0 1 0 0)" d="M529.44 806.48L541.919 806.48L541.919 806.48L541.919 792.32L541.919 792.32L529.44 792.32z" /></clipPath><clipPath id="4"><path id="" clip-rule="evenodd" transform="matrix(1 0 0 1 0 0)" d="M68.04 248.6L89.04 248.6L89.04 248.6L89.04 216.68L89.04 216.68L68.04 216.68z" /></clipPath><clipPath id="5"><path id="" clip-rule="evenodd" transform="matrix(1 0 0 1 0 0)" d="M89.04 248.6L111.36 248.6L111.36 248.6L111.36 216.68L111.36 216.68L89.04 216.68z" /></clipPath><clipPath id="6"><path id="" clip-rule="evenodd" transform="matrix(1 0 0 1 0 0)" d="M111.36 248.6L504.601 248.6L504.601 248.6L504.601 216.68L504.601 216.68L111.36 216.68z" /></clipPath><clipPath id="7"><path id="" clip-rule="evenodd" transform="matrix(1 0 0 1 0 0)" d="M504.6 248.6L548.52 248.6L548.52 248.6L548.52 216.68L548.52 216.68L504.6 216.68z" /></clipPath><clipPath id="8"><path id="" clip-rule="evenodd" transform="matrix(1 0 0 1 0 0)" d="M504.6 248.6L548.52 248.6L548.52 248.6L548.52 216.68L548.52 216.68L504.6 216.68z" /></clipPath><clipPath id="9"><path id="" clip-rule="evenodd" transform="matrix(1 0 0 1 0 0)" d="M68.04 778.4L89.04 778.4L89.04 778.4L89.04 248.601L89.04 248.601L68.04 248.601z" /></clipPath><clipPath id="10"><path id="" clip-rule="evenodd" transform="matrix(1 0 0 1 0 0)" d="M68.04 778.4L89.04 778.4L89.04 778.4L89.04 248.601L89.04 248.601L68.04 248.601z" /></clipPath><clipPath id="11"><path id="" clip-rule="evenodd" transform="matrix(1 0 0 1 0 0)" d="M89.04 778.4L111.36 778.4L111.36 778.4L111.36 248.601L111.36 248.601L89.04 248.601z" /></clipPath><clipPath id="12"><path id="" clip-rule="evenodd" transform="matrix(1 0 0 1 0 0)" d="M111.36 778.4L504.601 778.4L504.601 778.4L504.601 248.601L504.601 248.601L111.36 248.601z" /></clipPath><clipPath id="13"><path id="" clip-rule="evenodd" transform="matrix(1 0 0 1 0 0)" d="M111.36 778.4L504.601 778.4L504.601 778.4L504.601 248.601L504.601 248.601L111.36 248.601z" /></clipPath><clipPath id="14"><path id="" clip-rule="evenodd" transform="matrix(1 0 0 1 0 0)" d="M111.36 778.4L504.601 778.4L504.601 778.4L504.601 248.601L504.601 248.601L111.36 248.601z" /></clipPath><clipPath id="15"><path id="" clip-rule="evenodd" transform="matrix(1 0 0 1 0 0)" d="M111.36 778.4L504.601 778.4L504.601 778.4L504.601 248.601L504.601 248.601L111.36 248.601z" /></clipPath><clipPath id="16"><path id="" clip-rule="evenodd" transform="matrix(1 0 0 1 0 0)" d="M111.36 778.4L504.601 778.4L504.601 778.4L504.601 248.601L504.601 248.601L111.36 248.601z" /></clipPath><clipPath id="17"><path id="" clip-rule="evenodd" transform="matrix(1 0 0 1 0 0)" d="M111.36 778.4L504.601 778.4L504.601 778.4L504.601 248.601L504.601 248.601L111.36 248.601z" /></clipPath><clipPath id="18"><path id="" clip-rule="evenodd" transform="matrix(1 0 0 1 0 0)" d="M111.36 778.4L504.601 778.4L504.601 778.4L504.601 248.601L504.601 248.601L111.36 248.601z" /></clipPath><clipPath id="19"><path id="" clip-rule="evenodd" transform="matrix(1 0 0 1 0 0)" d="M111.36 778.4L504.601 778.4L504.601 778.4L504.601 248.601L504.601 248.601L111.36 248.601z" /></clipPath></defs><g transform="matrix(1.333333 0 0 1.333333 0 0)"><g clip-path="url(#1)"><g clip-path="url(#2)"></g><g clip-path="url(#3)"></g><path id="22" transform="matrix(1 0 0 -1 0 842)" d="M129.84 795.24L177.599 795.24L177.599 795.96L129.84 795.96z" stroke="none" fill="#000000" fill-rule="nonzero" /><path id="23" transform="matrix(1 0 0 -1 0 842)" d="M456.72 795.24L521.399 795.24L521.399 795.96L456.72 795.96z" stroke="none" fill="#000000" fill-rule="nonzero" /><g clip-path="url(#4)"></g><g clip-path="url(#5)"></g><g clip-path="url(#6)"></g><g clip-path="url(#7)"></g><g clip-path="url(#8)"></g><g clip-path="url(#9)"></g><g clip-path="url(#10)"></g><g clip-path="url(#11)"></g><g clip-path="url(#12)"></g><g clip-path="url(#13)"></g><g clip-path="url(#14)"></g><g clip-path="url(#15)"></g><g clip-path="url(#16)"></g><g clip-path="url(#17)"></g><g clip-path="url(#18)"></g><g clip-path="url(#19)"></g></g></g></svg>