<svg xmlns="http://www.w3.org/2000/svg" xmlns:xlink="http://www.w3.org/1999/xlink" id="body_6" preserveAspectRatio="xMinYMin meet" viewBox="0 0 793 1123"><defs><clipPath id="1"><path id="" clip-rule="evenodd" transform="matrix(1 0 0 1 0 0)" d="M0 842L0 -0.03997803L0 -0.03997803L595.56 -0.03997803L595.56 -0.03997803L595.56 842L595.56 842L0 842z" /></clipPath><clipPath id="2"><path id="" clip-rule="evenodd" transform="matrix(1 0 0 1 0 0)" d="M529.44 806.48L541.919 806.48L541.919 806.48L541.919 792.32L541.919 792.32L529.44 792.32z" /></clipPath><clipPath id="3"><path id="" clip-rule="evenodd" transform="matrix(1 0 0 1 0 0)" d="M529.44 806.48L541.919 806.48L541.919 806.48L541.919 792.32L541.919 792.32L529.44 792.32z" /></clipPath><clipPath id="4"><path id="" clip-rule="evenodd" transform="matrix(1 0 0 1 0 0)" d="M116.76 130.88L488.64 130.88L488.64 130.88L488.64 23.96002L488.64 23.96002L116.76 23.96002z" /></clipPath><clipPath id="5"><path id="" clip-rule="evenodd" transform="matrix(1 0 0 1 0 0)" d="M116.76 130.88L488.64 130.88L488.64 130.88L488.64 23.96002L488.64 23.96002L116.76 23.96002z" /></clipPath><clipPath id="6"><path id="" clip-rule="evenodd" transform="matrix(1 0 0 1 0 0)" d="M116.76 130.88L488.64 130.88L488.64 130.88L488.64 23.96002L488.64 23.96002L116.76 23.96002z" /></clipPath><clipPath id="7"><path id="" clip-rule="evenodd" transform="matrix(1 0 0 1 0 0)" d="M116.76 130.88L488.64 130.88L488.64 130.88L488.64 23.96002L488.64 23.96002L116.76 23.96002z" /></clipPath><clipPath id="8"><path id="" clip-rule="evenodd" transform="matrix(1 0 0 1 0 0)" d="M116.76 130.88L488.64 130.88L488.64 130.88L488.64 23.96002L488.64 23.96002L116.76 23.96002z" /></clipPath><clipPath id="9"><path id="" clip-rule="evenodd" transform="matrix(1 0 0 1 0 0)" d="M74.04 748.04L95.04 748.04L95.04 748.04L95.04 130.88L95.04 130.88L74.04 130.88z" /></clipPath><clipPath id="10"><path id="" clip-rule="evenodd" transform="matrix(1 0 0 1 0 0)" d="M95.04 748.04L116.76 748.04L116.76 748.04L116.76 130.88L116.76 130.88L95.04 130.88z" /></clipPath><clipPath id="11"><path id="" clip-rule="evenodd" transform="matrix(1 0 0 1 0 0)" d="M95.04 748.04L116.76 748.04L116.76 748.04L116.76 130.88L116.76 130.88L95.04 130.88z" /></clipPath><clipPath id="12"><path id="" clip-rule="evenodd" transform="matrix(1 0 0 1 0 0)" d="M116.76 748.04L488.64 748.04L488.64 748.04L488.64 130.88L488.64 130.88L116.76 130.88z" /></clipPath><clipPath id="13"><path id="" clip-rule="evenodd" transform="matrix(1 0 0 1 0 0)" d="M116.76 748.04L488.64 748.04L488.64 748.04L488.64 130.88L488.64 130.88L116.76 130.88z" /></clipPath><clipPath id="14"><path id="" clip-rule="evenodd" transform="matrix(1 0 0 1 0 0)" d="M116.76 748.04L488.64 748.04L488.64 748.04L488.64 130.88L488.64 130.88L116.76 130.88z" /></clipPath><clipPath id="15"><path id="" clip-rule="evenodd" transform="matrix(1 0 0 1 0 0)" d="M116.76 748.04L488.64 748.04L488.64 748.04L488.64 130.88L488.64 130.88L116.76 130.88z" /></clipPath><clipPath id="16"><path id="" clip-rule="evenodd" transform="matrix(1 0 0 1 0 0)" d="M116.76 748.04L488.64 748.04L488.64 748.04L488.64 130.88L488.64 130.88L116.76 130.88z" /></clipPath><clipPath id="17"><path id="" clip-rule="evenodd" transform="matrix(1 0 0 1 0 0)" d="M116.76 748.04L488.64 748.04L488.64 748.04L488.64 130.88L488.64 130.88L116.76 130.88z" /></clipPath><clipPath id="18"><path id="" clip-rule="evenodd" transform="matrix(1 0 0 1 0 0)" d="M116.76 748.04L488.64 748.04L488.64 748.04L488.64 130.88L488.64 130.88L116.76 130.88z" /></clipPath><clipPath id="19"><path id="" clip-rule="evenodd" transform="matrix(1 0 0 1 0 0)" d="M116.76 748.04L488.64 748.04L488.64 748.04L488.64 130.88L488.64 130.88L116.76 130.88z" /></clipPath><clipPath id="20"><path id="" clip-rule="evenodd" transform="matrix(1 0 0 1 0 0)" d="M116.76 748.04L488.64 748.04L488.64 748.04L488.64 130.88L488.64 130.88L116.76 130.88z" /></clipPath><clipPath id="21"><path id="" clip-rule="evenodd" transform="matrix(1 0 0 1 0 0)" d="M116.76 748.04L488.64 748.04L488.64 748.04L488.64 130.88L488.64 130.88L116.76 130.88z" /></clipPath><clipPath id="22"><path id="" clip-rule="evenodd" transform="matrix(1 0 0 1 0 0)" d="M116.76 748.04L488.64 748.04L488.64 748.04L488.64 130.88L488.64 130.88L116.76 130.88z" /></clipPath><clipPath id="23"><path id="" clip-rule="evenodd" transform="matrix(1 0 0 1 0 0)" d="M116.76 748.04L488.64 748.04L488.64 748.04L488.64 130.88L488.64 130.88L116.76 130.88z" /></clipPath><clipPath id="24"><path id="" clip-rule="evenodd" transform="matrix(1 0 0 1 0 0)" d="M116.76 748.04L488.64 748.04L488.64 748.04L488.64 130.88L488.64 130.88L116.76 130.88z" /></clipPath><clipPath id="25"><path id="" clip-rule="evenodd" transform="matrix(1 0 0 1 0 0)" d="M116.76 748.04L488.64 748.04L488.64 748.04L488.64 130.88L488.64 130.88L116.76 130.88z" /></clipPath><clipPath id="26"><path id="" clip-rule="evenodd" transform="matrix(1 0 0 1 0 0)" d="M116.76 748.04L488.64 748.04L488.64 748.04L488.64 130.88L488.64 130.88L116.76 130.88z" /></clipPath><clipPath id="27"><path id="" clip-rule="evenodd" transform="matrix(1 0 0 1 0 0)" d="M488.64 748.04L533.52 748.04L533.52 748.04L533.52 130.88L533.52 130.88L488.64 130.88z" /></clipPath><clipPath id="28"><path id="" clip-rule="evenodd" transform="matrix(1 0 0 1 0 0)" d="M488.64 748.04L533.52 748.04L533.52 748.04L533.52 130.88L533.52 130.88L488.64 130.88z" /></clipPath><clipPath id="29"><path id="" clip-rule="evenodd" transform="matrix(1 0 0 1 0 0)" d="M74.04 764.36L95.04 764.36L95.04 764.36L95.04 748.04L95.04 748.04L74.04 748.04z" /></clipPath><clipPath id="30"><path id="" clip-rule="evenodd" transform="matrix(1 0 0 1 0 0)" d="M95.04 764.36L116.76 764.36L116.76 764.36L116.76 748.04L116.76 748.04L95.04 748.04z" /></clipPath><clipPath id="31"><path id="" clip-rule="evenodd" transform="matrix(1 0 0 1 0 0)" d="M116.76 764.36L488.64 764.36L488.64 764.36L488.64 748.04L488.64 748.04L116.76 748.04z" /></clipPath><clipPath id="32"><path id="" clip-rule="evenodd" transform="matrix(1 0 0 1 0 0)" d="M116.76 764.36L488.64 764.36L488.64 764.36L488.64 748.04L488.64 748.04L116.76 748.04z" /></clipPath><clipPath id="33"><path id="" clip-rule="evenodd" transform="matrix(1 0 0 1 0 0)" d="M488.64 764.36L533.52 764.36L533.52 764.36L533.52 748.04L533.52 748.04L488.64 748.04z" /></clipPath></defs><g transform="matrix(1.333333 0 0 1.333333 0 0)"><g clip-path="url(#1)"><g clip-path="url(#2)"></g><g clip-path="url(#3)"></g><g clip-path="url(#4)"></g><g clip-path="url(#5)"></g><g clip-path="url(#6)"></g><g clip-path="url(#7)"></g><g clip-path="url(#8)"></g><g clip-path="url(#9)"></g><g clip-path="url(#10)"></g><g clip-path="url(#11)"></g><g clip-path="url(#12)"></g><g clip-path="url(#13)"></g><g clip-path="url(#14)"></g><g clip-path="url(#15)"></g><g clip-path="url(#16)"></g><g clip-path="url(#17)"></g><g clip-path="url(#18)"></g><g clip-path="url(#19)"></g><g clip-path="url(#20)"></g><path id="817" transform="matrix(1 0 0 -1 0 842)" d="M206.88 473.28L207.119 473.28L207.119 473.519L206.88 473.519z" stroke="none" fill="#D9D9E3" fill-rule="nonzero" /><path id="818" transform="matrix(1 0 0 -1 0 842)" d="M206.88 473.28L207.119 473.28L207.119 473.519L206.88 473.519z" stroke="none" fill="#D9D9E3" fill-rule="nonzero" /><path id="819" transform="matrix(1 0 0 -1 0 842)" d="M207.12 473.28L223.56 473.28L223.56 473.519L207.12 473.519z" stroke="none" fill="#D9D9E3" fill-rule="nonzero" /><path id="820" transform="matrix(1 0 0 -1 0 842)" d="M223.56 473.28L223.8 473.28L223.8 473.519L223.56 473.519z" stroke="none" fill="#D9D9E3" fill-rule="nonzero" /><path id="821" transform="matrix(1 0 0 -1 0 842)" d="M223.56 473.28L223.8 473.28L223.8 473.519L223.56 473.519z" stroke="none" fill="#D9D9E3" fill-rule="nonzero" /><path id="822" transform="matrix(1 0 0 -1 0 842)" d="M206.88 457.44L207.119 457.44L207.119 473.28L206.88 473.28z" stroke="none" fill="#D9D9E3" fill-rule="nonzero" /><path id="823" transform="matrix(1 0 0 -1 0 842)" d="M223.56 457.44L223.8 457.44L223.8 473.28L223.56 473.28z" stroke="none" fill="#D9D9E3" fill-rule="nonzero" /><path id="824" transform="matrix(1 0 0 -1 0 842)" d="M206.88 457.2L207.119 457.2L207.119 457.44L206.88 457.44z" stroke="none" fill="#D9D9E3" fill-rule="nonzero" /><path id="825" transform="matrix(1 0 0 -1 0 842)" d="M206.88 457.2L207.119 457.2L207.119 457.44L206.88 457.44z" stroke="none" fill="#D9D9E3" fill-rule="nonzero" /><path id="826" transform="matrix(1 0 0 -1 0 842)" d="M207.12 457.2L223.56 457.2L223.56 457.44L207.12 457.44z" stroke="none" fill="#D9D9E3" fill-rule="nonzero" /><path id="827" transform="matrix(1 0 0 -1 0 842)" d="M223.56 457.2L223.8 457.2L223.8 457.44L223.56 457.44z" stroke="none" fill="#D9D9E3" fill-rule="nonzero" /><path id="828" transform="matrix(1 0 0 -1 0 842)" d="M223.56 457.2L223.8 457.2L223.8 457.44L223.56 457.44z" stroke="none" fill="#D9D9E3" fill-rule="nonzero" /><g clip-path="url(#21)"></g><g clip-path="url(#22)"></g><g clip-path="url(#23)"></g><g clip-path="url(#24)"></g><g clip-path="url(#25)"></g><g clip-path="url(#26)"></g><g clip-path="url(#27)"></g><g clip-path="url(#28)"></g><g clip-path="url(#29)"></g><g clip-path="url(#30)"></g><g clip-path="url(#31)"></g><g clip-path="url(#32)"></g><g clip-path="url(#33)"></g></g></g></svg>