<svg xmlns="http://www.w3.org/2000/svg" xmlns:xlink="http://www.w3.org/1999/xlink" id="body_5" preserveAspectRatio="xMinYMin meet" viewBox="0 0 793 1123"><defs><clipPath id="1"><path id="" clip-rule="evenodd" transform="matrix(1 0 0 1 0 0)" d="M0 842L0 -0.03997803L0 -0.03997803L595.56 -0.03997803L595.56 -0.03997803L595.56 842L595.56 842L0 842z" /></clipPath><clipPath id="2"><path id="" clip-rule="evenodd" transform="matrix(1 0 0 1 0 0)" d="M529.44 806.48L541.919 806.48L541.919 806.48L541.919 792.32L541.919 792.32L529.44 792.32z" /></clipPath><clipPath id="3"><path id="" clip-rule="evenodd" transform="matrix(1 0 0 1 0 0)" d="M529.44 806.48L541.919 806.48L541.919 806.48L541.919 792.32L541.919 792.32L529.44 792.32z" /></clipPath><clipPath id="4"><path id="" clip-rule="evenodd" transform="matrix(1 0 0 1 0 0)" d="M116.76 138.56L488.64 138.56L488.64 138.56L488.64 23.96002L488.64 23.96002L116.76 23.96002z" /></clipPath><clipPath id="5"><path id="" clip-rule="evenodd" transform="matrix(1 0 0 1 0 0)" d="M116.76 138.56L488.64 138.56L488.64 138.56L488.64 23.96002L488.64 23.96002L116.76 23.96002z" /></clipPath><clipPath id="6"><path id="" clip-rule="evenodd" transform="matrix(1 0 0 1 0 0)" d="M116.76 138.56L488.64 138.56L488.64 138.56L488.64 23.96002L488.64 23.96002L116.76 23.96002z" /></clipPath><clipPath id="7"><path id="" clip-rule="evenodd" transform="matrix(1 0 0 1 0 0)" d="M116.76 138.56L488.64 138.56L488.64 138.56L488.64 23.96002L488.64 23.96002L116.76 23.96002z" /></clipPath><clipPath id="8"><path id="" clip-rule="evenodd" transform="matrix(1 0 0 1 0 0)" d="M74.04 441.92L95.04 441.92L95.04 441.92L95.04 138.5601L95.04 138.5601L74.04 138.5601z" /></clipPath><clipPath id="9"><path id="" clip-rule="evenodd" transform="matrix(1 0 0 1 0 0)" d="M74.04 441.92L95.04 441.92L95.04 441.92L95.04 138.5601L95.04 138.5601L74.04 138.5601z" /></clipPath><clipPath id="10"><path id="" clip-rule="evenodd" transform="matrix(1 0 0 1 0 0)" d="M95.04 441.92L116.76 441.92L116.76 441.92L116.76 138.5601L116.76 138.5601L95.04 138.5601z" /></clipPath><clipPath id="11"><path id="" clip-rule="evenodd" transform="matrix(1 0 0 1 0 0)" d="M116.76 441.92L488.64 441.92L488.64 441.92L488.64 138.5601L488.64 138.5601L116.76 138.5601z" /></clipPath><clipPath id="12"><path id="" clip-rule="evenodd" transform="matrix(1 0 0 1 0 0)" d="M116.76 441.92L488.64 441.92L488.64 441.92L488.64 138.5601L488.64 138.5601L116.76 138.5601z" /></clipPath><clipPath id="13"><path id="" clip-rule="evenodd" transform="matrix(1 0 0 1 0 0)" d="M116.76 441.92L488.64 441.92L488.64 441.92L488.64 138.5601L488.64 138.5601L116.76 138.5601z" /></clipPath><clipPath id="14"><path id="" clip-rule="evenodd" transform="matrix(1 0 0 1 0 0)" d="M116.76 441.92L488.64 441.92L488.64 441.92L488.64 138.5601L488.64 138.5601L116.76 138.5601z" /></clipPath><clipPath id="15"><path id="" clip-rule="evenodd" transform="matrix(1 0 0 1 0 0)" d="M116.76 441.92L488.64 441.92L488.64 441.92L488.64 138.5601L488.64 138.5601L116.76 138.5601z" /></clipPath><clipPath id="16"><path id="" clip-rule="evenodd" transform="matrix(1 0 0 1 0 0)" d="M116.76 441.92L488.64 441.92L488.64 441.92L488.64 138.5601L488.64 138.5601L116.76 138.5601z" /></clipPath><clipPath id="17"><path id="" clip-rule="evenodd" transform="matrix(1 0 0 1 0 0)" d="M116.76 441.92L488.64 441.92L488.64 441.92L488.64 138.5601L488.64 138.5601L116.76 138.5601z" /></clipPath><clipPath id="18"><path id="" clip-rule="evenodd" transform="matrix(1 0 0 1 0 0)" d="M116.76 441.92L488.64 441.92L488.64 441.92L488.64 138.5601L488.64 138.5601L116.76 138.5601z" /></clipPath><clipPath id="19"><path id="" clip-rule="evenodd" transform="matrix(1 0 0 1 0 0)" d="M116.76 441.92L488.64 441.92L488.64 441.92L488.64 138.5601L488.64 138.5601L116.76 138.5601z" /></clipPath><clipPath id="20"><path id="" clip-rule="evenodd" transform="matrix(1 0 0 1 0 0)" d="M116.76 441.92L488.64 441.92L488.64 441.92L488.64 138.5601L488.64 138.5601L116.76 138.5601z" /></clipPath><clipPath id="21"><path id="" clip-rule="evenodd" transform="matrix(1 0 0 1 0 0)" d="M116.76 441.92L488.64 441.92L488.64 441.92L488.64 138.5601L488.64 138.5601L116.76 138.5601z" /></clipPath><clipPath id="22"><path id="" clip-rule="evenodd" transform="matrix(1 0 0 1 0 0)" d="M116.76 441.92L488.64 441.92L488.64 441.92L488.64 138.5601L488.64 138.5601L116.76 138.5601z" /></clipPath><clipPath id="23"><path id="" clip-rule="evenodd" transform="matrix(1 0 0 1 0 0)" d="M116.76 441.92L488.64 441.92L488.64 441.92L488.64 138.5601L488.64 138.5601L116.76 138.5601z" /></clipPath><clipPath id="24"><path id="" clip-rule="evenodd" transform="matrix(1 0 0 1 0 0)" d="M116.76 441.92L488.64 441.92L488.64 441.92L488.64 138.5601L488.64 138.5601L116.76 138.5601z" /></clipPath><clipPath id="25"><path id="" clip-rule="evenodd" transform="matrix(1 0 0 1 0 0)" d="M116.76 441.92L488.64 441.92L488.64 441.92L488.64 138.5601L488.64 138.5601L116.76 138.5601z" /></clipPath><clipPath id="26"><path id="" clip-rule="evenodd" transform="matrix(1 0 0 1 0 0)" d="M74.04 780.8L95.04 780.8L95.04 780.8L95.04 441.92L95.04 441.92L74.04 441.92z" /></clipPath><clipPath id="27"><path id="" clip-rule="evenodd" transform="matrix(1 0 0 1 0 0)" d="M95.04 780.8L116.76 780.8L116.76 780.8L116.76 441.92L116.76 441.92L95.04 441.92z" /></clipPath><clipPath id="28"><path id="" clip-rule="evenodd" transform="matrix(1 0 0 1 0 0)" d="M95.04 780.8L116.76 780.8L116.76 780.8L116.76 441.92L116.76 441.92L95.04 441.92z" /></clipPath><clipPath id="29"><path id="" clip-rule="evenodd" transform="matrix(1 0 0 1 0 0)" d="M116.76 780.8L488.64 780.8L488.64 780.8L488.64 441.92L488.64 441.92L116.76 441.92z" /></clipPath><clipPath id="30"><path id="" clip-rule="evenodd" transform="matrix(1 0 0 1 0 0)" d="M116.76 780.8L488.64 780.8L488.64 780.8L488.64 441.92L488.64 441.92L116.76 441.92z" /></clipPath><clipPath id="31"><path id="" clip-rule="evenodd" transform="matrix(1 0 0 1 0 0)" d="M116.76 780.8L488.64 780.8L488.64 780.8L488.64 441.92L488.64 441.92L116.76 441.92z" /></clipPath><clipPath id="32"><path id="" clip-rule="evenodd" transform="matrix(1 0 0 1 0 0)" d="M116.76 780.8L488.64 780.8L488.64 780.8L488.64 441.92L488.64 441.92L116.76 441.92z" /></clipPath><clipPath id="33"><path id="" clip-rule="evenodd" transform="matrix(1 0 0 1 0 0)" d="M116.76 780.8L488.64 780.8L488.64 780.8L488.64 441.92L488.64 441.92L116.76 441.92z" /></clipPath><clipPath id="34"><path id="" clip-rule="evenodd" transform="matrix(1 0 0 1 0 0)" d="M116.76 780.8L488.64 780.8L488.64 780.8L488.64 441.92L488.64 441.92L116.76 441.92z" /></clipPath><clipPath id="35"><path id="" clip-rule="evenodd" transform="matrix(1 0 0 1 0 0)" d="M116.76 780.8L488.64 780.8L488.64 780.8L488.64 441.92L488.64 441.92L116.76 441.92z" /></clipPath><clipPath id="36"><path id="" clip-rule="evenodd" transform="matrix(1 0 0 1 0 0)" d="M116.76 780.8L488.64 780.8L488.64 780.8L488.64 441.92L488.64 441.92L116.76 441.92z" /></clipPath><clipPath id="37"><path id="" clip-rule="evenodd" transform="matrix(1 0 0 1 0 0)" d="M116.76 780.8L488.64 780.8L488.64 780.8L488.64 441.92L488.64 441.92L116.76 441.92z" /></clipPath><clipPath id="38"><path id="" clip-rule="evenodd" transform="matrix(1 0 0 1 0 0)" d="M116.76 780.8L488.64 780.8L488.64 780.8L488.64 441.92L488.64 441.92L116.76 441.92z" /></clipPath><clipPath id="39"><path id="" clip-rule="evenodd" transform="matrix(1 0 0 1 0 0)" d="M116.76 780.8L488.64 780.8L488.64 780.8L488.64 441.92L488.64 441.92L116.76 441.92z" /></clipPath><clipPath id="40"><path id="" clip-rule="evenodd" transform="matrix(1 0 0 1 0 0)" d="M116.76 780.8L488.64 780.8L488.64 780.8L488.64 441.92L488.64 441.92L116.76 441.92z" /></clipPath><clipPath id="41"><path id="" clip-rule="evenodd" transform="matrix(1 0 0 1 0 0)" d="M116.76 780.8L488.64 780.8L488.64 780.8L488.64 441.92L488.64 441.92L116.76 441.92z" /></clipPath><clipPath id="42"><path id="" clip-rule="evenodd" transform="matrix(1 0 0 1 0 0)" d="M116.76 780.8L488.64 780.8L488.64 780.8L488.64 441.92L488.64 441.92L116.76 441.92z" /></clipPath><clipPath id="43"><path id="" clip-rule="evenodd" transform="matrix(1 0 0 1 0 0)" d="M116.76 780.8L488.64 780.8L488.64 780.8L488.64 441.92L488.64 441.92L116.76 441.92z" /></clipPath><clipPath id="44"><path id="" clip-rule="evenodd" transform="matrix(1 0 0 1 0 0)" d="M116.76 780.8L488.64 780.8L488.64 780.8L488.64 441.92L488.64 441.92L116.76 441.92z" /></clipPath><clipPath id="45"><path id="" clip-rule="evenodd" transform="matrix(1 0 0 1 0 0)" d="M488.64 780.8L533.52 780.8L533.52 780.8L533.52 441.92L533.52 441.92L488.64 441.92z" /></clipPath><clipPath id="46"><path id="" clip-rule="evenodd" transform="matrix(1 0 0 1 0 0)" d="M488.64 780.8L533.52 780.8L533.52 780.8L533.52 441.92L533.52 441.92L488.64 441.92z" /></clipPath></defs><g transform="matrix(1.333333 0 0 1.333333 0 0)"><g clip-path="url(#1)"><g clip-path="url(#2)"></g><g clip-path="url(#3)"></g><g clip-path="url(#4)"></g><g clip-path="url(#5)"></g><g clip-path="url(#6)"></g><g clip-path="url(#7)"></g><g clip-path="url(#8)"></g><g clip-path="url(#9)"></g><g clip-path="url(#10)"></g><g clip-path="url(#11)"></g><g clip-path="url(#12)"></g><g clip-path="url(#13)"></g><g clip-path="url(#14)"></g><g clip-path="url(#15)"></g><g clip-path="url(#16)"></g><g clip-path="url(#17)"></g><g clip-path="url(#18)"></g><g clip-path="url(#19)"></g><g clip-path="url(#20)"></g><g clip-path="url(#21)"></g><g clip-path="url(#22)"></g><g clip-path="url(#23)"></g><g clip-path="url(#24)"></g><g clip-path="url(#25)"></g><g clip-path="url(#26)"></g><g clip-path="url(#27)"></g><g clip-path="url(#28)"></g><g clip-path="url(#29)"></g><g clip-path="url(#30)"></g><g clip-path="url(#31)"></g><g clip-path="url(#32)"></g><g clip-path="url(#33)"></g><g clip-path="url(#34)"></g><g clip-path="url(#35)"></g><g clip-path="url(#36)"></g><g clip-path="url(#37)"></g><g clip-path="url(#38)"></g><g clip-path="url(#39)"></g><g clip-path="url(#40)"></g><g clip-path="url(#41)"></g><g clip-path="url(#42)"></g><g clip-path="url(#43)"></g><g clip-path="url(#44)"></g><path id="1267" transform="matrix(1 0 0 -1 0 842)" d="M116.76 326.16L117.241 326.16L117.241 326.64L116.76 326.64z" stroke="none" fill="#BFBFBF" fill-rule="nonzero" /><path id="1268" transform="matrix(1 0 0 -1 0 842)" d="M116.76 326.16L117.241 326.16L117.241 326.64L116.76 326.64z" stroke="none" fill="#BFBFBF" fill-rule="nonzero" /><path id="1269" transform="matrix(1 0 0 -1 0 842)" d="M117.24 326.16L172.199 326.16L172.199 326.64L117.24 326.64z" stroke="none" fill="#BFBFBF" fill-rule="nonzero" /><path id="1270" transform="matrix(1 0 0 -1 0 842)" d="M172.2 326.16L172.681 326.16L172.681 326.64L172.2 326.64z" stroke="none" fill="#BFBFBF" fill-rule="nonzero" /><path id="1271" transform="matrix(1 0 0 -1 0 842)" d="M172.68 326.16L488.16 326.16L488.16 326.64L172.68 326.64z" stroke="none" fill="#BFBFBF" fill-rule="nonzero" /><path id="1272" transform="matrix(1 0 0 -1 0 842)" d="M488.16 326.16L488.64 326.16L488.64 326.64L488.16 326.64z" stroke="none" fill="#BFBFBF" fill-rule="nonzero" /><path id="1273" transform="matrix(1 0 0 -1 0 842)" d="M488.16 326.16L488.64 326.16L488.64 326.64L488.16 326.64z" stroke="none" fill="#BFBFBF" fill-rule="nonzero" /><path id="1274" transform="matrix(1 0 0 -1 0 842)" d="M116.76 286.2L117.241 286.2L117.241 326.16L116.76 326.16z" stroke="none" fill="#BFBFBF" fill-rule="nonzero" /><path id="1275" transform="matrix(1 0 0 -1 0 842)" d="M172.2 286.2L172.681 286.2L172.681 326.16L172.2 326.16z" stroke="none" fill="#BFBFBF" fill-rule="nonzero" /><path id="1276" transform="matrix(1 0 0 -1 0 842)" d="M488.16 286.2L488.64 286.2L488.64 326.16L488.16 326.16z" stroke="none" fill="#BFBFBF" fill-rule="nonzero" /><path id="1508" transform="matrix(1 0 0 -1 0 842)" d="M116.76 285.72L117.241 285.72L117.241 286.2L116.76 286.2z" stroke="none" fill="#BFBFBF" fill-rule="nonzero" /><path id="1509" transform="matrix(1 0 0 -1 0 842)" d="M117.24 285.72L172.199 285.72L172.199 286.2L117.24 286.2z" stroke="none" fill="#BFBFBF" fill-rule="nonzero" /><path id="1510" transform="matrix(1 0 0 -1 0 842)" d="M172.2 285.72L172.681 285.72L172.681 286.2L172.2 286.2z" stroke="none" fill="#BFBFBF" fill-rule="nonzero" /><path id="1511" transform="matrix(1 0 0 -1 0 842)" d="M172.68 285.72L488.16 285.72L488.16 286.2L172.68 286.2z" stroke="none" fill="#BFBFBF" fill-rule="nonzero" /><path id="1512" transform="matrix(1 0 0 -1 0 842)" d="M488.16 285.72L488.64 285.72L488.64 286.2L488.16 286.2z" stroke="none" fill="#BFBFBF" fill-rule="nonzero" /><path id="1513" transform="matrix(1 0 0 -1 0 842)" d="M116.76 165.96L117.241 165.96L117.241 285.72L116.76 285.72z" stroke="none" fill="#BFBFBF" fill-rule="nonzero" /><path id="1514" transform="matrix(1 0 0 -1 0 842)" d="M172.2 165.96L172.681 165.96L172.681 285.72L172.2 285.72z" stroke="none" fill="#BFBFBF" fill-rule="nonzero" /><path id="1515" transform="matrix(1 0 0 -1 0 842)" d="M488.16 165.96L488.64 165.96L488.64 285.72L488.16 285.72z" stroke="none" fill="#BFBFBF" fill-rule="nonzero" /><path id="1715" transform="matrix(1 0 0 -1 0 842)" d="M116.76 165.48L117.241 165.48L117.241 165.96L116.76 165.96z" stroke="none" fill="#BFBFBF" fill-rule="nonzero" /><path id="1716" transform="matrix(1 0 0 -1 0 842)" d="M117.24 165.48L172.199 165.48L172.199 165.96L117.24 165.96z" stroke="none" fill="#BFBFBF" fill-rule="nonzero" /><path id="1717" transform="matrix(1 0 0 -1 0 842)" d="M172.2 165.48L172.681 165.48L172.681 165.96L172.2 165.96z" stroke="none" fill="#BFBFBF" fill-rule="nonzero" /><path id="1718" transform="matrix(1 0 0 -1 0 842)" d="M172.68 165.48L488.16 165.48L488.16 165.96L172.68 165.96z" stroke="none" fill="#BFBFBF" fill-rule="nonzero" /><path id="1719" transform="matrix(1 0 0 -1 0 842)" d="M488.16 165.48L488.64 165.48L488.64 165.96L488.16 165.96z" stroke="none" fill="#BFBFBF" fill-rule="nonzero" /><path id="1720" transform="matrix(1 0 0 -1 0 842)" d="M116.76 61.68L117.241 61.68L117.241 165.481L116.76 165.481z" stroke="none" fill="#BFBFBF" fill-rule="nonzero" /><path id="1721" transform="matrix(1 0 0 -1 0 842)" d="M116.76 61.2L117.241 61.2L117.241 61.68L116.76 61.68z" stroke="none" fill="#BFBFBF" fill-rule="nonzero" /><path id="1722" transform="matrix(1 0 0 -1 0 842)" d="M116.76 61.2L117.241 61.2L117.241 61.68L116.76 61.68z" stroke="none" fill="#BFBFBF" fill-rule="nonzero" /><path id="1723" transform="matrix(1 0 0 -1 0 842)" d="M117.24 61.2L172.199 61.2L172.199 61.68L117.24 61.68z" stroke="none" fill="#BFBFBF" fill-rule="nonzero" /><path id="1724" transform="matrix(1 0 0 -1 0 842)" d="M172.2 61.68L172.681 61.68L172.681 165.481L172.2 165.481z" stroke="none" fill="#BFBFBF" fill-rule="nonzero" /><path id="1725" transform="matrix(1 0 0 -1 0 842)" d="M172.2 61.2L172.681 61.2L172.681 61.68L172.2 61.68z" stroke="none" fill="#BFBFBF" fill-rule="nonzero" /><path id="1726" transform="matrix(1 0 0 -1 0 842)" d="M172.68 61.2L488.16 61.2L488.16 61.68L172.68 61.68z" stroke="none" fill="#BFBFBF" fill-rule="nonzero" /><path id="1727" transform="matrix(1 0 0 -1 0 842)" d="M488.16 61.68L488.64 61.68L488.64 165.481L488.16 165.481z" stroke="none" fill="#BFBFBF" fill-rule="nonzero" /><path id="1728" transform="matrix(1 0 0 -1 0 842)" d="M488.16 61.2L488.64 61.2L488.64 61.68L488.16 61.68z" stroke="none" fill="#BFBFBF" fill-rule="nonzero" /><path id="1729" transform="matrix(1 0 0 -1 0 842)" d="M488.16 61.2L488.64 61.2L488.64 61.68L488.16 61.68z" stroke="none" fill="#BFBFBF" fill-rule="nonzero" /><g clip-path="url(#45)"></g><g clip-path="url(#46)"></g></g></g></svg>