<svg xmlns="http://www.w3.org/2000/svg" xmlns:xlink="http://www.w3.org/1999/xlink" id="body_3" preserveAspectRatio="xMinYMin meet" viewBox="0 0 793 1123"><defs><clipPath id="1"><path id="" clip-rule="evenodd" transform="matrix(1 0 0 1 0 0)" d="M0 842L0 -0.03997803L0 -0.03997803L595.56 -0.03997803L595.56 -0.03997803L595.56 842L595.56 842L0 842z" /></clipPath><clipPath id="2"><path id="" clip-rule="evenodd" transform="matrix(1 0 0 1 0 0)" d="M529.44 806.48L541.919 806.48L541.919 806.48L541.919 792.32L541.919 792.32L529.44 792.32z" /></clipPath><clipPath id="3"><path id="" clip-rule="evenodd" transform="matrix(1 0 0 1 0 0)" d="M529.44 806.48L541.919 806.48L541.919 806.48L541.919 792.32L541.919 792.32L529.44 792.32z" /></clipPath><clipPath id="4"><path id="" clip-rule="evenodd" transform="matrix(1 0 0 1 0 0)" d="M116.76 235.64L488.64 235.64L488.64 235.64L488.64 23.96002L488.64 23.96002L116.76 23.96002z" /></clipPath><clipPath id="5"><path id="" clip-rule="evenodd" transform="matrix(1 0 0 1 0 0)" d="M116.76 235.64L488.64 235.64L488.64 235.64L488.64 23.96002L488.64 23.96002L116.76 23.96002z" /></clipPath><clipPath id="6"><path id="" clip-rule="evenodd" transform="matrix(1 0 0 1 0 0)" d="M116.76 235.64L488.64 235.64L488.64 235.64L488.64 23.96002L488.64 23.96002L116.76 23.96002z" /></clipPath><clipPath id="7"><path id="" clip-rule="evenodd" transform="matrix(1 0 0 1 0 0)" d="M116.76 235.64L488.64 235.64L488.64 235.64L488.64 23.96002L488.64 23.96002L116.76 23.96002z" /></clipPath><clipPath id="8"><path id="" clip-rule="evenodd" transform="matrix(1 0 0 1 0 0)" d="M116.76 235.64L488.64 235.64L488.64 235.64L488.64 23.96002L488.64 23.96002L116.76 23.96002z" /></clipPath><clipPath id="9"><path id="" clip-rule="evenodd" transform="matrix(1 0 0 1 0 0)" d="M74.04 775.04L95.04 775.04L95.04 775.04L95.04 235.64L95.04 235.64L74.04 235.64z" /></clipPath><clipPath id="10"><path id="" clip-rule="evenodd" transform="matrix(1 0 0 1 0 0)" d="M95.04 775.04L116.76 775.04L116.76 775.04L116.76 235.64L116.76 235.64L95.04 235.64z" /></clipPath><clipPath id="11"><path id="" clip-rule="evenodd" transform="matrix(1 0 0 1 0 0)" d="M95.04 775.04L116.76 775.04L116.76 775.04L116.76 235.64L116.76 235.64L95.04 235.64z" /></clipPath><clipPath id="12"><path id="" clip-rule="evenodd" transform="matrix(1 0 0 1 0 0)" d="M116.76 775.04L488.64 775.04L488.64 775.04L488.64 235.64L488.64 235.64L116.76 235.64z" /></clipPath><clipPath id="13"><path id="" clip-rule="evenodd" transform="matrix(1 0 0 1 0 0)" d="M116.76 775.04L488.64 775.04L488.64 775.04L488.64 235.64L488.64 235.64L116.76 235.64z" /></clipPath><clipPath id="14"><path id="" clip-rule="evenodd" transform="matrix(1 0 0 1 0 0)" d="M116.76 775.04L488.64 775.04L488.64 775.04L488.64 235.64L488.64 235.64L116.76 235.64z" /></clipPath><clipPath id="15"><path id="" clip-rule="evenodd" transform="matrix(1 0 0 1 0 0)" d="M116.76 775.04L488.64 775.04L488.64 775.04L488.64 235.64L488.64 235.64L116.76 235.64z" /></clipPath><clipPath id="16"><path id="" clip-rule="evenodd" transform="matrix(1 0 0 1 0 0)" d="M116.76 775.04L488.64 775.04L488.64 775.04L488.64 235.64L488.64 235.64L116.76 235.64z" /></clipPath><clipPath id="17"><path id="" clip-rule="evenodd" transform="matrix(1 0 0 1 0 0)" d="M116.76 775.04L488.64 775.04L488.64 775.04L488.64 235.64L488.64 235.64L116.76 235.64z" /></clipPath><clipPath id="18"><path id="" clip-rule="evenodd" transform="matrix(1 0 0 1 0 0)" d="M116.76 775.04L488.64 775.04L488.64 775.04L488.64 235.64L488.64 235.64L116.76 235.64z" /></clipPath><clipPath id="19"><path id="" clip-rule="evenodd" transform="matrix(1 0 0 1 0 0)" d="M116.76 775.04L488.64 775.04L488.64 775.04L488.64 235.64L488.64 235.64L116.76 235.64z" /></clipPath><clipPath id="20"><path id="" clip-rule="evenodd" transform="matrix(1 0 0 1 0 0)" d="M116.76 775.04L488.64 775.04L488.64 775.04L488.64 235.64L488.64 235.64L116.76 235.64z" /></clipPath><clipPath id="21"><path id="" clip-rule="evenodd" transform="matrix(1 0 0 1 0 0)" d="M116.76 775.04L488.64 775.04L488.64 775.04L488.64 235.64L488.64 235.64L116.76 235.64z" /></clipPath><clipPath id="22"><path id="" clip-rule="evenodd" transform="matrix(1 0 0 1 0 0)" d="M116.76 775.04L488.64 775.04L488.64 775.04L488.64 235.64L488.64 235.64L116.76 235.64z" /></clipPath><clipPath id="23"><path id="" clip-rule="evenodd" transform="matrix(1 0 0 1 0 0)" d="M116.76 775.04L488.64 775.04L488.64 775.04L488.64 235.64L488.64 235.64L116.76 235.64z" /></clipPath><clipPath id="24"><path id="" clip-rule="evenodd" transform="matrix(1 0 0 1 0 0)" d="M488.64 775.04L533.52 775.04L533.52 775.04L533.52 235.64L533.52 235.64L488.64 235.64z" /></clipPath><clipPath id="25"><path id="" clip-rule="evenodd" transform="matrix(1 0 0 1 0 0)" d="M488.64 775.04L533.52 775.04L533.52 775.04L533.52 235.64L533.52 235.64L488.64 235.64z" /></clipPath></defs><g transform="matrix(1.333333 0 0 1.333333 0 0)"><g clip-path="url(#1)"><g clip-path="url(#2)"></g><g clip-path="url(#3)"></g><path id="201" transform="matrix(1 0 0 -1 0 842)" d="M116.76 817.56L117.241 817.56L117.241 818.04L116.76 818.04z" stroke="none" fill="#BFBFBF" fill-rule="nonzero" /><path id="202" transform="matrix(1 0 0 -1 0 842)" d="M116.76 817.56L117.241 817.56L117.241 818.04L116.76 818.04z" stroke="none" fill="#BFBFBF" fill-rule="nonzero" /><path id="203" transform="matrix(1 0 0 -1 0 842)" d="M117.24 817.56L172.199 817.56L172.199 818.04L117.24 818.04z" stroke="none" fill="#BFBFBF" fill-rule="nonzero" /><path id="204" transform="matrix(1 0 0 -1 0 842)" d="M172.2 817.56L172.681 817.56L172.681 818.04L172.2 818.04z" stroke="none" fill="#BFBFBF" fill-rule="nonzero" /><path id="205" transform="matrix(1 0 0 -1 0 842)" d="M172.68 817.56L488.16 817.56L488.16 818.04L172.68 818.04z" stroke="none" fill="#BFBFBF" fill-rule="nonzero" /><path id="206" transform="matrix(1 0 0 -1 0 842)" d="M488.16 817.56L488.64 817.56L488.64 818.04L488.16 818.04z" stroke="none" fill="#BFBFBF" fill-rule="nonzero" /><path id="207" transform="matrix(1 0 0 -1 0 842)" d="M488.16 817.56L488.64 817.56L488.64 818.04L488.16 818.04z" stroke="none" fill="#BFBFBF" fill-rule="nonzero" /><path id="208" transform="matrix(1 0 0 -1 0 842)" d="M116.76 713.76L117.241 713.76L117.241 817.56L116.76 817.56z" stroke="none" fill="#BFBFBF" fill-rule="nonzero" /><path id="209" transform="matrix(1 0 0 -1 0 842)" d="M116.76 713.28L117.241 713.28L117.241 713.761L116.76 713.761z" stroke="none" fill="#BFBFBF" fill-rule="nonzero" /><path id="210" transform="matrix(1 0 0 -1 0 842)" d="M116.76 713.28L117.241 713.28L117.241 713.761L116.76 713.761z" stroke="none" fill="#BFBFBF" fill-rule="nonzero" /><path id="211" transform="matrix(1 0 0 -1 0 842)" d="M117.24 713.28L172.199 713.28L172.199 713.761L117.24 713.761z" stroke="none" fill="#BFBFBF" fill-rule="nonzero" /><path id="212" transform="matrix(1 0 0 -1 0 842)" d="M172.2 713.76L172.681 713.76L172.681 817.56L172.2 817.56z" stroke="none" fill="#BFBFBF" fill-rule="nonzero" /><path id="213" transform="matrix(1 0 0 -1 0 842)" d="M172.2 713.28L172.681 713.28L172.681 713.761L172.2 713.761z" stroke="none" fill="#BFBFBF" fill-rule="nonzero" /><path id="214" transform="matrix(1 0 0 -1 0 842)" d="M172.68 713.28L488.16 713.28L488.16 713.761L172.68 713.761z" stroke="none" fill="#BFBFBF" fill-rule="nonzero" /><path id="215" transform="matrix(1 0 0 -1 0 842)" d="M488.16 713.76L488.64 713.76L488.64 817.56L488.16 817.56z" stroke="none" fill="#BFBFBF" fill-rule="nonzero" /><path id="216" transform="matrix(1 0 0 -1 0 842)" d="M488.16 713.28L488.64 713.28L488.64 713.761L488.16 713.761z" stroke="none" fill="#BFBFBF" fill-rule="nonzero" /><path id="217" transform="matrix(1 0 0 -1 0 842)" d="M488.16 713.28L488.64 713.28L488.64 713.761L488.16 713.761z" stroke="none" fill="#BFBFBF" fill-rule="nonzero" /><g clip-path="url(#4)"></g><g clip-path="url(#5)"></g><g clip-path="url(#6)"></g><g clip-path="url(#7)"></g><g clip-path="url(#8)"></g><g clip-path="url(#9)"></g><g clip-path="url(#10)"></g><g clip-path="url(#11)"></g><g clip-path="url(#12)"></g><g clip-path="url(#13)"></g><g clip-path="url(#14)"></g><g clip-path="url(#15)"></g><g clip-path="url(#16)"></g><g clip-path="url(#17)"></g><g clip-path="url(#18)"></g><g clip-path="url(#19)"></g><g clip-path="url(#20)"></g><path id="1032" transform="matrix(1 0 0 -1 0 842)" d="M206.88 368.52L207.119 368.52L207.119 368.759L206.88 368.759z" stroke="none" fill="#D9D9E3" fill-rule="nonzero" /><path id="1033" transform="matrix(1 0 0 -1 0 842)" d="M206.88 368.52L207.119 368.52L207.119 368.759L206.88 368.759z" stroke="none" fill="#D9D9E3" fill-rule="nonzero" /><path id="1034" transform="matrix(1 0 0 -1 0 842)" d="M207.12 368.52L223.56 368.52L223.56 368.759L207.12 368.759z" stroke="none" fill="#D9D9E3" fill-rule="nonzero" /><path id="1035" transform="matrix(1 0 0 -1 0 842)" d="M223.56 368.52L223.8 368.52L223.8 368.759L223.56 368.759z" stroke="none" fill="#D9D9E3" fill-rule="nonzero" /><path id="1036" transform="matrix(1 0 0 -1 0 842)" d="M223.56 368.52L223.8 368.52L223.8 368.759L223.56 368.759z" stroke="none" fill="#D9D9E3" fill-rule="nonzero" /><path id="1037" transform="matrix(1 0 0 -1 0 842)" d="M206.88 352.68L207.119 352.68L207.119 368.52L206.88 368.52z" stroke="none" fill="#D9D9E3" fill-rule="nonzero" /><path id="1038" transform="matrix(1 0 0 -1 0 842)" d="M223.56 352.68L223.8 352.68L223.8 368.52L223.56 368.52z" stroke="none" fill="#D9D9E3" fill-rule="nonzero" /><path id="1039" transform="matrix(1 0 0 -1 0 842)" d="M206.88 352.44L207.119 352.44L207.119 352.68L206.88 352.68z" stroke="none" fill="#D9D9E3" fill-rule="nonzero" /><path id="1040" transform="matrix(1 0 0 -1 0 842)" d="M206.88 352.44L207.119 352.44L207.119 352.68L206.88 352.68z" stroke="none" fill="#D9D9E3" fill-rule="nonzero" /><path id="1041" transform="matrix(1 0 0 -1 0 842)" d="M207.12 352.44L223.56 352.44L223.56 352.68L207.12 352.68z" stroke="none" fill="#D9D9E3" fill-rule="nonzero" /><path id="1042" transform="matrix(1 0 0 -1 0 842)" d="M223.56 352.44L223.8 352.44L223.8 352.68L223.56 352.68z" stroke="none" fill="#D9D9E3" fill-rule="nonzero" /><path id="1043" transform="matrix(1 0 0 -1 0 842)" d="M223.56 352.44L223.8 352.44L223.8 352.68L223.56 352.68z" stroke="none" fill="#D9D9E3" fill-rule="nonzero" /><g clip-path="url(#21)"></g><g clip-path="url(#22)"></g><g clip-path="url(#23)"></g><g clip-path="url(#24)"></g><g clip-path="url(#25)"></g></g></g></svg>