<svg xmlns="http://www.w3.org/2000/svg" xmlns:xlink="http://www.w3.org/1999/xlink" id="body_7" preserveAspectRatio="xMinYMin meet" viewBox="0 0 793 1123"><defs><clipPath id="1"><path id="" clip-rule="evenodd" transform="matrix(1 0 0 1 0 0)" d="M0 842L0 -0.03997803L0 -0.03997803L595.56 -0.03997803L595.56 -0.03997803L595.56 842L595.56 842L0 842z" /></clipPath><clipPath id="2"><path id="" clip-rule="evenodd" transform="matrix(1 0 0 1 0 0)" d="M529.44 806.48L541.919 806.48L541.919 806.48L541.919 792.32L541.919 792.32L529.44 792.32z" /></clipPath><clipPath id="3"><path id="" clip-rule="evenodd" transform="matrix(1 0 0 1 0 0)" d="M529.44 806.48L541.919 806.48L541.919 806.48L541.919 792.32L541.919 792.32L529.44 792.32z" /></clipPath><clipPath id="4"><path id="" clip-rule="evenodd" transform="matrix(1 0 0 1 0 0)" d="M116.76 322.16L488.64 322.16L488.64 322.16L488.64 23.95996L488.64 23.95996L116.76 23.95996z" /></clipPath><clipPath id="5"><path id="" clip-rule="evenodd" transform="matrix(1 0 0 1 0 0)" d="M116.76 322.16L488.64 322.16L488.64 322.16L488.64 23.95996L488.64 23.95996L116.76 23.95996z" /></clipPath><clipPath id="6"><path id="" clip-rule="evenodd" transform="matrix(1 0 0 1 0 0)" d="M116.76 322.16L488.64 322.16L488.64 322.16L488.64 23.95996L488.64 23.95996L116.76 23.95996z" /></clipPath><clipPath id="7"><path id="" clip-rule="evenodd" transform="matrix(1 0 0 1 0 0)" d="M116.76 322.16L488.64 322.16L488.64 322.16L488.64 23.95996L488.64 23.95996L116.76 23.95996z" /></clipPath><clipPath id="8"><path id="" clip-rule="evenodd" transform="matrix(1 0 0 1 0 0)" d="M116.76 322.16L488.64 322.16L488.64 322.16L488.64 23.95996L488.64 23.95996L116.76 23.95996z" /></clipPath><clipPath id="9"><path id="" clip-rule="evenodd" transform="matrix(1 0 0 1 0 0)" d="M116.76 322.16L488.64 322.16L488.64 322.16L488.64 23.95996L488.64 23.95996L116.76 23.95996z" /></clipPath><clipPath id="10"><path id="" clip-rule="evenodd" transform="matrix(1 0 0 1 0 0)" d="M116.76 322.16L488.64 322.16L488.64 322.16L488.64 23.95996L488.64 23.95996L116.76 23.95996z" /></clipPath><clipPath id="11"><path id="" clip-rule="evenodd" transform="matrix(1 0 0 1 0 0)" d="M74.04 789.2L95.04 789.2L95.04 789.2L95.04 322.16L95.04 322.16L74.04 322.16z" /></clipPath><clipPath id="12"><path id="" clip-rule="evenodd" transform="matrix(1 0 0 1 0 0)" d="M95.04 789.2L116.76 789.2L116.76 789.2L116.76 322.16L116.76 322.16L95.04 322.16z" /></clipPath><clipPath id="13"><path id="" clip-rule="evenodd" transform="matrix(1 0 0 1 0 0)" d="M95.04 789.2L116.76 789.2L116.76 789.2L116.76 322.16L116.76 322.16L95.04 322.16z" /></clipPath><clipPath id="14"><path id="" clip-rule="evenodd" transform="matrix(1 0 0 1 0 0)" d="M116.76 789.2L488.64 789.2L488.64 789.2L488.64 322.16L488.64 322.16L116.76 322.16z" /></clipPath><clipPath id="15"><path id="" clip-rule="evenodd" transform="matrix(1 0 0 1 0 0)" d="M116.76 789.2L488.64 789.2L488.64 789.2L488.64 322.16L488.64 322.16L116.76 322.16z" /></clipPath><clipPath id="16"><path id="" clip-rule="evenodd" transform="matrix(1 0 0 1 0 0)" d="M116.76 789.2L488.64 789.2L488.64 789.2L488.64 322.16L488.64 322.16L116.76 322.16z" /></clipPath><clipPath id="17"><path id="" clip-rule="evenodd" transform="matrix(1 0 0 1 0 0)" d="M116.76 789.2L488.64 789.2L488.64 789.2L488.64 322.16L488.64 322.16L116.76 322.16z" /></clipPath><clipPath id="18"><path id="" clip-rule="evenodd" transform="matrix(1 0 0 1 0 0)" d="M116.76 789.2L488.64 789.2L488.64 789.2L488.64 322.16L488.64 322.16L116.76 322.16z" /></clipPath><clipPath id="19"><path id="" clip-rule="evenodd" transform="matrix(1 0 0 1 0 0)" d="M116.76 789.2L488.64 789.2L488.64 789.2L488.64 322.16L488.64 322.16L116.76 322.16z" /></clipPath><clipPath id="20"><path id="" clip-rule="evenodd" transform="matrix(1 0 0 1 0 0)" d="M116.76 789.2L488.64 789.2L488.64 789.2L488.64 322.16L488.64 322.16L116.76 322.16z" /></clipPath><clipPath id="21"><path id="" clip-rule="evenodd" transform="matrix(1 0 0 1 0 0)" d="M116.76 789.2L488.64 789.2L488.64 789.2L488.64 322.16L488.64 322.16L116.76 322.16z" /></clipPath><clipPath id="22"><path id="" clip-rule="evenodd" transform="matrix(1 0 0 1 0 0)" d="M116.76 789.2L488.64 789.2L488.64 789.2L488.64 322.16L488.64 322.16L116.76 322.16z" /></clipPath><clipPath id="23"><path id="" clip-rule="evenodd" transform="matrix(1 0 0 1 0 0)" d="M116.76 789.2L488.64 789.2L488.64 789.2L488.64 322.16L488.64 322.16L116.76 322.16z" /></clipPath><clipPath id="24"><path id="" clip-rule="evenodd" transform="matrix(1 0 0 1 0 0)" d="M116.76 789.2L488.64 789.2L488.64 789.2L488.64 322.16L488.64 322.16L116.76 322.16z" /></clipPath><clipPath id="25"><path id="" clip-rule="evenodd" transform="matrix(1 0 0 1 0 0)" d="M116.76 789.2L488.64 789.2L488.64 789.2L488.64 322.16L488.64 322.16L116.76 322.16z" /></clipPath><clipPath id="26"><path id="" clip-rule="evenodd" transform="matrix(1 0 0 1 0 0)" d="M116.76 789.2L488.64 789.2L488.64 789.2L488.64 322.16L488.64 322.16L116.76 322.16z" /></clipPath><clipPath id="27"><path id="" clip-rule="evenodd" transform="matrix(1 0 0 1 0 0)" d="M116.76 789.2L488.64 789.2L488.64 789.2L488.64 322.16L488.64 322.16L116.76 322.16z" /></clipPath><clipPath id="28"><path id="" clip-rule="evenodd" transform="matrix(1 0 0 1 0 0)" d="M116.76 789.2L488.64 789.2L488.64 789.2L488.64 322.16L488.64 322.16L116.76 322.16z" /></clipPath><clipPath id="29"><path id="" clip-rule="evenodd" transform="matrix(1 0 0 1 0 0)" d="M116.76 789.2L488.64 789.2L488.64 789.2L488.64 322.16L488.64 322.16L116.76 322.16z" /></clipPath><clipPath id="30"><path id="" clip-rule="evenodd" transform="matrix(1 0 0 1 0 0)" d="M116.76 789.2L488.64 789.2L488.64 789.2L488.64 322.16L488.64 322.16L116.76 322.16z" /></clipPath><clipPath id="31"><path id="" clip-rule="evenodd" transform="matrix(1 0 0 1 0 0)" d="M116.76 789.2L488.64 789.2L488.64 789.2L488.64 322.16L488.64 322.16L116.76 322.16z" /></clipPath><clipPath id="32"><path id="" clip-rule="evenodd" transform="matrix(1 0 0 1 0 0)" d="M116.76 789.2L488.64 789.2L488.64 789.2L488.64 322.16L488.64 322.16L116.76 322.16z" /></clipPath><clipPath id="33"><path id="" clip-rule="evenodd" transform="matrix(1 0 0 1 0 0)" d="M116.76 789.2L488.64 789.2L488.64 789.2L488.64 322.16L488.64 322.16L116.76 322.16z" /></clipPath><clipPath id="34"><path id="" clip-rule="evenodd" transform="matrix(1 0 0 1 0 0)" d="M116.76 789.2L488.64 789.2L488.64 789.2L488.64 322.16L488.64 322.16L116.76 322.16z" /></clipPath><clipPath id="35"><path id="" clip-rule="evenodd" transform="matrix(1 0 0 1 0 0)" d="M116.76 789.2L488.64 789.2L488.64 789.2L488.64 322.16L488.64 322.16L116.76 322.16z" /></clipPath><clipPath id="36"><path id="" clip-rule="evenodd" transform="matrix(1 0 0 1 0 0)" d="M116.76 789.2L488.64 789.2L488.64 789.2L488.64 322.16L488.64 322.16L116.76 322.16z" /></clipPath><clipPath id="37"><path id="" clip-rule="evenodd" transform="matrix(1 0 0 1 0 0)" d="M116.76 789.2L488.64 789.2L488.64 789.2L488.64 322.16L488.64 322.16L116.76 322.16z" /></clipPath><clipPath id="38"><path id="" clip-rule="evenodd" transform="matrix(1 0 0 1 0 0)" d="M116.76 789.2L488.64 789.2L488.64 789.2L488.64 322.16L488.64 322.16L116.76 322.16z" /></clipPath><clipPath id="39"><path id="" clip-rule="evenodd" transform="matrix(1 0 0 1 0 0)" d="M116.76 789.2L488.64 789.2L488.64 789.2L488.64 322.16L488.64 322.16L116.76 322.16z" /></clipPath><clipPath id="40"><path id="" clip-rule="evenodd" transform="matrix(1 0 0 1 0 0)" d="M116.76 789.2L488.64 789.2L488.64 789.2L488.64 322.16L488.64 322.16L116.76 322.16z" /></clipPath><clipPath id="41"><path id="" clip-rule="evenodd" transform="matrix(1 0 0 1 0 0)" d="M116.76 789.2L488.64 789.2L488.64 789.2L488.64 322.16L488.64 322.16L116.76 322.16z" /></clipPath><clipPath id="42"><path id="" clip-rule="evenodd" transform="matrix(1 0 0 1 0 0)" d="M116.76 789.2L488.64 789.2L488.64 789.2L488.64 322.16L488.64 322.16L116.76 322.16z" /></clipPath><clipPath id="43"><path id="" clip-rule="evenodd" transform="matrix(1 0 0 1 0 0)" d="M116.76 789.2L488.64 789.2L488.64 789.2L488.64 322.16L488.64 322.16L116.76 322.16z" /></clipPath><clipPath id="44"><path id="" clip-rule="evenodd" transform="matrix(1 0 0 1 0 0)" d="M116.76 789.2L488.64 789.2L488.64 789.2L488.64 322.16L488.64 322.16L116.76 322.16z" /></clipPath><clipPath id="45"><path id="" clip-rule="evenodd" transform="matrix(1 0 0 1 0 0)" d="M116.76 789.2L488.64 789.2L488.64 789.2L488.64 322.16L488.64 322.16L116.76 322.16z" /></clipPath><clipPath id="46"><path id="" clip-rule="evenodd" transform="matrix(1 0 0 1 0 0)" d="M488.64 789.2L533.52 789.2L533.52 789.2L533.52 322.16L533.52 322.16L488.64 322.16z" /></clipPath><clipPath id="47"><path id="" clip-rule="evenodd" transform="matrix(1 0 0 1 0 0)" d="M488.64 789.2L533.52 789.2L533.52 789.2L533.52 322.16L533.52 322.16L488.64 322.16z" /></clipPath></defs><g transform="matrix(1.333333 0 0 1.333333 0 0)"><g clip-path="url(#1)"><g clip-path="url(#2)"></g><g clip-path="url(#3)"></g><g clip-path="url(#4)"></g><g clip-path="url(#5)"></g><g clip-path="url(#6)"></g><g clip-path="url(#7)"></g><g clip-path="url(#8)"></g><g clip-path="url(#9)"></g><g clip-path="url(#10)"></g><g clip-path="url(#11)"></g><g clip-path="url(#12)"></g><g clip-path="url(#13)"></g><g clip-path="url(#14)"></g><g clip-path="url(#15)"></g><g clip-path="url(#16)"></g><g clip-path="url(#17)"></g><g clip-path="url(#18)"></g><g clip-path="url(#19)"></g><g clip-path="url(#20)"></g><g clip-path="url(#21)"></g><g clip-path="url(#22)"></g><g clip-path="url(#23)"></g><g clip-path="url(#24)"></g><g clip-path="url(#25)"></g><g clip-path="url(#26)"></g><g clip-path="url(#27)"></g><g clip-path="url(#28)"></g><g clip-path="url(#29)"></g><g clip-path="url(#30)"></g><g clip-path="url(#31)"></g><g clip-path="url(#32)"></g><g clip-path="url(#33)"></g><g clip-path="url(#34)"></g><g clip-path="url(#35)"></g><g clip-path="url(#36)"></g><g clip-path="url(#37)"></g><g clip-path="url(#38)"></g><g clip-path="url(#39)"></g><g clip-path="url(#40)"></g><g clip-path="url(#41)"></g><g clip-path="url(#42)"></g><path id="1347" transform="matrix(1 0 0 -1 0 842)" d="M116.76 316.92L117.241 316.92L117.241 317.401L116.76 317.401z" stroke="none" fill="#BFBFBF" fill-rule="nonzero" /><path id="1348" transform="matrix(1 0 0 -1 0 842)" d="M116.76 316.92L117.241 316.92L117.241 317.401L116.76 317.401z" stroke="none" fill="#BFBFBF" fill-rule="nonzero" /><path id="1349" transform="matrix(1 0 0 -1 0 842)" d="M117.24 316.92L273.12 316.92L273.12 317.401L117.24 317.401z" stroke="none" fill="#BFBFBF" fill-rule="nonzero" /><path id="1350" transform="matrix(1 0 0 -1 0 842)" d="M273.12 316.92L273.6 316.92L273.6 317.401L273.12 317.401z" stroke="none" fill="#BFBFBF" fill-rule="nonzero" /><path id="1351" transform="matrix(1 0 0 -1 0 842)" d="M273.6 316.92L377.52 316.92L377.52 317.401L273.6 317.401z" stroke="none" fill="#BFBFBF" fill-rule="nonzero" /><path id="1352" transform="matrix(1 0 0 -1 0 842)" d="M377.52 316.92L378 316.92L378 317.401L377.52 317.401z" stroke="none" fill="#BFBFBF" fill-rule="nonzero" /><path id="1353" transform="matrix(1 0 0 -1 0 842)" d="M378 316.92L488.16 316.92L488.16 317.401L378 317.401z" stroke="none" fill="#BFBFBF" fill-rule="nonzero" /><path id="1354" transform="matrix(1 0 0 -1 0 842)" d="M488.16 316.92L488.64 316.92L488.64 317.401L488.16 317.401z" stroke="none" fill="#BFBFBF" fill-rule="nonzero" /><path id="1355" transform="matrix(1 0 0 -1 0 842)" d="M488.16 316.92L488.64 316.92L488.64 317.401L488.16 317.401z" stroke="none" fill="#BFBFBF" fill-rule="nonzero" /><path id="1356" transform="matrix(1 0 0 -1 0 842)" d="M116.76 288.96L117.241 288.96L117.241 316.919L116.76 316.919z" stroke="none" fill="#BFBFBF" fill-rule="nonzero" /><path id="1357" transform="matrix(1 0 0 -1 0 842)" d="M273.12 288.96L273.6 288.96L273.6 316.919L273.12 316.919z" stroke="none" fill="#BFBFBF" fill-rule="nonzero" /><path id="1358" transform="matrix(1 0 0 -1 0 842)" d="M377.52 288.96L378 288.96L378 316.919L377.52 316.919z" stroke="none" fill="#BFBFBF" fill-rule="nonzero" /><path id="1359" transform="matrix(1 0 0 -1 0 842)" d="M488.16 288.96L488.64 288.96L488.64 316.919L488.16 316.919z" stroke="none" fill="#BFBFBF" fill-rule="nonzero" /><path id="1364" transform="matrix(1 0 0 -1 0 842)" d="M116.76 288.48L117.241 288.48L117.241 288.961L116.76 288.961z" stroke="none" fill="#BFBFBF" fill-rule="nonzero" /><path id="1365" transform="matrix(1 0 0 -1 0 842)" d="M117.24 288.48L273.12 288.48L273.12 288.961L117.24 288.961z" stroke="none" fill="#BFBFBF" fill-rule="nonzero" /><path id="1366" transform="matrix(1 0 0 -1 0 842)" d="M273.12 288.48L273.6 288.48L273.6 288.961L273.12 288.961z" stroke="none" fill="#BFBFBF" fill-rule="nonzero" /><path id="1367" transform="matrix(1 0 0 -1 0 842)" d="M273.6 288.48L377.52 288.48L377.52 288.961L273.6 288.961z" stroke="none" fill="#BFBFBF" fill-rule="nonzero" /><path id="1368" transform="matrix(1 0 0 -1 0 842)" d="M377.52 288.48L378 288.48L378 288.961L377.52 288.961z" stroke="none" fill="#BFBFBF" fill-rule="nonzero" /><path id="1369" transform="matrix(1 0 0 -1 0 842)" d="M378 288.48L488.16 288.48L488.16 288.961L378 288.961z" stroke="none" fill="#BFBFBF" fill-rule="nonzero" /><path id="1370" transform="matrix(1 0 0 -1 0 842)" d="M488.16 288.48L488.64 288.48L488.64 288.961L488.16 288.961z" stroke="none" fill="#BFBFBF" fill-rule="nonzero" /><path id="1371" transform="matrix(1 0 0 -1 0 842)" d="M116.76 260.52L117.241 260.52L117.241 288.479L116.76 288.479z" stroke="none" fill="#BFBFBF" fill-rule="nonzero" /><path id="1372" transform="matrix(1 0 0 -1 0 842)" d="M273.12 260.52L273.6 260.52L273.6 288.479L273.12 288.479z" stroke="none" fill="#BFBFBF" fill-rule="nonzero" /><path id="1373" transform="matrix(1 0 0 -1 0 842)" d="M377.52 260.52L378 260.52L378 288.479L377.52 288.479z" stroke="none" fill="#BFBFBF" fill-rule="nonzero" /><path id="1374" transform="matrix(1 0 0 -1 0 842)" d="M488.16 260.52L488.64 260.52L488.64 288.479L488.16 288.479z" stroke="none" fill="#BFBFBF" fill-rule="nonzero" /><path id="1379" transform="matrix(1 0 0 -1 0 842)" d="M116.76 260.04L117.241 260.04L117.241 260.521L116.76 260.521z" stroke="none" fill="#BFBFBF" fill-rule="nonzero" /><path id="1380" transform="matrix(1 0 0 -1 0 842)" d="M117.24 260.04L273.12 260.04L273.12 260.521L117.24 260.521z" stroke="none" fill="#BFBFBF" fill-rule="nonzero" /><path id="1381" transform="matrix(1 0 0 -1 0 842)" d="M273.12 260.04L273.6 260.04L273.6 260.521L273.12 260.521z" stroke="none" fill="#BFBFBF" fill-rule="nonzero" /><path id="1382" transform="matrix(1 0 0 -1 0 842)" d="M273.6 260.04L377.52 260.04L377.52 260.521L273.6 260.521z" stroke="none" fill="#BFBFBF" fill-rule="nonzero" /><path id="1383" transform="matrix(1 0 0 -1 0 842)" d="M377.52 260.04L378 260.04L378 260.521L377.52 260.521z" stroke="none" fill="#BFBFBF" fill-rule="nonzero" /><path id="1384" transform="matrix(1 0 0 -1 0 842)" d="M378 260.04L488.16 260.04L488.16 260.521L378 260.521z" stroke="none" fill="#BFBFBF" fill-rule="nonzero" /><path id="1385" transform="matrix(1 0 0 -1 0 842)" d="M488.16 260.04L488.64 260.04L488.64 260.521L488.16 260.521z" stroke="none" fill="#BFBFBF" fill-rule="nonzero" /><path id="1386" transform="matrix(1 0 0 -1 0 842)" d="M116.76 232.08L117.241 232.08L117.241 260.039L116.76 260.039z" stroke="none" fill="#BFBFBF" fill-rule="nonzero" /><path id="1387" transform="matrix(1 0 0 -1 0 842)" d="M116.76 231.6L117.241 231.6L117.241 232.081L116.76 232.081z" stroke="none" fill="#BFBFBF" fill-rule="nonzero" /><path id="1388" transform="matrix(1 0 0 -1 0 842)" d="M116.76 231.6L117.241 231.6L117.241 232.081L116.76 232.081z" stroke="none" fill="#BFBFBF" fill-rule="nonzero" /><path id="1389" transform="matrix(1 0 0 -1 0 842)" d="M117.24 231.6L273.12 231.6L273.12 232.081L117.24 232.081z" stroke="none" fill="#BFBFBF" fill-rule="nonzero" /><path id="1390" transform="matrix(1 0 0 -1 0 842)" d="M273.12 232.08L273.6 232.08L273.6 260.039L273.12 260.039z" stroke="none" fill="#BFBFBF" fill-rule="nonzero" /><path id="1391" transform="matrix(1 0 0 -1 0 842)" d="M273.12 231.6L273.6 231.6L273.6 232.081L273.12 232.081z" stroke="none" fill="#BFBFBF" fill-rule="nonzero" /><path id="1392" transform="matrix(1 0 0 -1 0 842)" d="M273.6 231.6L377.52 231.6L377.52 232.081L273.6 232.081z" stroke="none" fill="#BFBFBF" fill-rule="nonzero" /><path id="1393" transform="matrix(1 0 0 -1 0 842)" d="M377.52 232.08L378 232.08L378 260.039L377.52 260.039z" stroke="none" fill="#BFBFBF" fill-rule="nonzero" /><path id="1394" transform="matrix(1 0 0 -1 0 842)" d="M377.52 231.6L378 231.6L378 232.081L377.52 232.081z" stroke="none" fill="#BFBFBF" fill-rule="nonzero" /><path id="1395" transform="matrix(1 0 0 -1 0 842)" d="M378 231.6L488.16 231.6L488.16 232.081L378 232.081z" stroke="none" fill="#BFBFBF" fill-rule="nonzero" /><path id="1396" transform="matrix(1 0 0 -1 0 842)" d="M488.16 232.08L488.64 232.08L488.64 260.039L488.16 260.039z" stroke="none" fill="#BFBFBF" fill-rule="nonzero" /><path id="1397" transform="matrix(1 0 0 -1 0 842)" d="M488.16 231.6L488.64 231.6L488.64 232.081L488.16 232.081z" stroke="none" fill="#BFBFBF" fill-rule="nonzero" /><path id="1398" transform="matrix(1 0 0 -1 0 842)" d="M488.16 231.6L488.64 231.6L488.64 232.081L488.16 232.081z" stroke="none" fill="#BFBFBF" fill-rule="nonzero" /><g clip-path="url(#43)"></g><path id="1437" transform="matrix(1 0 0 -1 0 842)" d="M116.76 185.16L117.241 185.16L117.241 185.641L116.76 185.641z" stroke="none" fill="#BFBFBF" fill-rule="nonzero" /><path id="1438" transform="matrix(1 0 0 -1 0 842)" d="M116.76 185.16L117.241 185.16L117.241 185.641L116.76 185.641z" stroke="none" fill="#BFBFBF" fill-rule="nonzero" /><path id="1439" transform="matrix(1 0 0 -1 0 842)" d="M117.24 185.16L238.92 185.16L238.92 185.641L117.24 185.641z" stroke="none" fill="#BFBFBF" fill-rule="nonzero" /><path id="1440" transform="matrix(1 0 0 -1 0 842)" d="M238.92 185.16L239.4 185.16L239.4 185.641L238.92 185.641z" stroke="none" fill="#BFBFBF" fill-rule="nonzero" /><path id="1441" transform="matrix(1 0 0 -1 0 842)" d="M239.4 185.16L361.08 185.16L361.08 185.641L239.4 185.641z" stroke="none" fill="#BFBFBF" fill-rule="nonzero" /><path id="1442" transform="matrix(1 0 0 -1 0 842)" d="M361.08 185.16L361.56 185.16L361.56 185.641L361.08 185.641z" stroke="none" fill="#BFBFBF" fill-rule="nonzero" /><path id="1443" transform="matrix(1 0 0 -1 0 842)" d="M361.56 185.16L488.16 185.16L488.16 185.641L361.56 185.641z" stroke="none" fill="#BFBFBF" fill-rule="nonzero" /><path id="1444" transform="matrix(1 0 0 -1 0 842)" d="M488.16 185.16L488.64 185.16L488.64 185.641L488.16 185.641z" stroke="none" fill="#BFBFBF" fill-rule="nonzero" /><path id="1445" transform="matrix(1 0 0 -1 0 842)" d="M488.16 185.16L488.64 185.16L488.64 185.641L488.16 185.641z" stroke="none" fill="#BFBFBF" fill-rule="nonzero" /><path id="1446" transform="matrix(1 0 0 -1 0 842)" d="M116.76 157.2L117.241 157.2L117.241 185.159L116.76 185.159z" stroke="none" fill="#BFBFBF" fill-rule="nonzero" /><path id="1447" transform="matrix(1 0 0 -1 0 842)" d="M238.92 157.2L239.4 157.2L239.4 185.159L238.92 185.159z" stroke="none" fill="#BFBFBF" fill-rule="nonzero" /><path id="1448" transform="matrix(1 0 0 -1 0 842)" d="M361.08 157.2L361.56 157.2L361.56 185.159L361.08 185.159z" stroke="none" fill="#BFBFBF" fill-rule="nonzero" /><path id="1449" transform="matrix(1 0 0 -1 0 842)" d="M488.16 157.2L488.64 157.2L488.64 185.159L488.16 185.159z" stroke="none" fill="#BFBFBF" fill-rule="nonzero" /><path id="1453" transform="matrix(1 0 0 -1 0 842)" d="M116.76 156.72L117.241 156.72L117.241 157.201L116.76 157.201z" stroke="none" fill="#BFBFBF" fill-rule="nonzero" /><path id="1454" transform="matrix(1 0 0 -1 0 842)" d="M117.24 156.72L238.92 156.72L238.92 157.201L117.24 157.201z" stroke="none" fill="#BFBFBF" fill-rule="nonzero" /><path id="1455" transform="matrix(1 0 0 -1 0 842)" d="M238.92 156.72L239.4 156.72L239.4 157.201L238.92 157.201z" stroke="none" fill="#BFBFBF" fill-rule="nonzero" /><path id="1456" transform="matrix(1 0 0 -1 0 842)" d="M239.4 156.72L361.08 156.72L361.08 157.201L239.4 157.201z" stroke="none" fill="#BFBFBF" fill-rule="nonzero" /><path id="1457" transform="matrix(1 0 0 -1 0 842)" d="M361.08 156.72L361.56 156.72L361.56 157.201L361.08 157.201z" stroke="none" fill="#BFBFBF" fill-rule="nonzero" /><path id="1458" transform="matrix(1 0 0 -1 0 842)" d="M361.56 156.72L488.16 156.72L488.16 157.201L361.56 157.201z" stroke="none" fill="#BFBFBF" fill-rule="nonzero" /><path id="1459" transform="matrix(1 0 0 -1 0 842)" d="M488.16 156.72L488.64 156.72L488.64 157.201L488.16 157.201z" stroke="none" fill="#BFBFBF" fill-rule="nonzero" /><path id="1460" transform="matrix(1 0 0 -1 0 842)" d="M116.76 128.64L117.241 128.64L117.241 156.72L116.76 156.72z" stroke="none" fill="#BFBFBF" fill-rule="nonzero" /><path id="1461" transform="matrix(1 0 0 -1 0 842)" d="M238.92 128.64L239.4 128.64L239.4 156.72L238.92 156.72z" stroke="none" fill="#BFBFBF" fill-rule="nonzero" /><path id="1462" transform="matrix(1 0 0 -1 0 842)" d="M361.08 128.64L361.56 128.64L361.56 156.72L361.08 156.72z" stroke="none" fill="#BFBFBF" fill-rule="nonzero" /><path id="1463" transform="matrix(1 0 0 -1 0 842)" d="M488.16 128.64L488.64 128.64L488.64 156.72L488.16 156.72z" stroke="none" fill="#BFBFBF" fill-rule="nonzero" /><path id="1467" transform="matrix(1 0 0 -1 0 842)" d="M116.76 128.16L117.241 128.16L117.241 128.64L116.76 128.64z" stroke="none" fill="#BFBFBF" fill-rule="nonzero" /><path id="1468" transform="matrix(1 0 0 -1 0 842)" d="M117.24 128.16L238.92 128.16L238.92 128.64L117.24 128.64z" stroke="none" fill="#BFBFBF" fill-rule="nonzero" /><path id="1469" transform="matrix(1 0 0 -1 0 842)" d="M238.92 128.16L239.4 128.16L239.4 128.64L238.92 128.64z" stroke="none" fill="#BFBFBF" fill-rule="nonzero" /><path id="1470" transform="matrix(1 0 0 -1 0 842)" d="M239.4 128.16L361.08 128.16L361.08 128.64L239.4 128.64z" stroke="none" fill="#BFBFBF" fill-rule="nonzero" /><path id="1471" transform="matrix(1 0 0 -1 0 842)" d="M361.08 128.16L361.56 128.16L361.56 128.64L361.08 128.64z" stroke="none" fill="#BFBFBF" fill-rule="nonzero" /><path id="1472" transform="matrix(1 0 0 -1 0 842)" d="M361.56 128.16L488.16 128.16L488.16 128.64L361.56 128.64z" stroke="none" fill="#BFBFBF" fill-rule="nonzero" /><path id="1473" transform="matrix(1 0 0 -1 0 842)" d="M488.16 128.16L488.64 128.16L488.64 128.64L488.16 128.64z" stroke="none" fill="#BFBFBF" fill-rule="nonzero" /><path id="1474" transform="matrix(1 0 0 -1 0 842)" d="M116.76 100.2L117.241 100.2L117.241 128.16L116.76 128.16z" stroke="none" fill="#BFBFBF" fill-rule="nonzero" /><path id="1475" transform="matrix(1 0 0 -1 0 842)" d="M116.76 99.72L117.241 99.72L117.241 100.2L116.76 100.2z" stroke="none" fill="#BFBFBF" fill-rule="nonzero" /><path id="1476" transform="matrix(1 0 0 -1 0 842)" d="M116.76 99.72L117.241 99.72L117.241 100.2L116.76 100.2z" stroke="none" fill="#BFBFBF" fill-rule="nonzero" /><path id="1477" transform="matrix(1 0 0 -1 0 842)" d="M117.24 99.72L238.92 99.72L238.92 100.2L117.24 100.2z" stroke="none" fill="#BFBFBF" fill-rule="nonzero" /><path id="1478" transform="matrix(1 0 0 -1 0 842)" d="M238.92 100.2L239.4 100.2L239.4 128.16L238.92 128.16z" stroke="none" fill="#BFBFBF" fill-rule="nonzero" /><path id="1479" transform="matrix(1 0 0 -1 0 842)" d="M238.92 99.72L239.4 99.72L239.4 100.2L238.92 100.2z" stroke="none" fill="#BFBFBF" fill-rule="nonzero" /><path id="1480" transform="matrix(1 0 0 -1 0 842)" d="M239.4 99.72L361.08 99.72L361.08 100.2L239.4 100.2z" stroke="none" fill="#BFBFBF" fill-rule="nonzero" /><path id="1481" transform="matrix(1 0 0 -1 0 842)" d="M361.08 100.2L361.56 100.2L361.56 128.16L361.08 128.16z" stroke="none" fill="#BFBFBF" fill-rule="nonzero" /><path id="1482" transform="matrix(1 0 0 -1 0 842)" d="M361.08 99.72L361.56 99.72L361.56 100.2L361.08 100.2z" stroke="none" fill="#BFBFBF" fill-rule="nonzero" /><path id="1483" transform="matrix(1 0 0 -1 0 842)" d="M361.56 99.72L488.16 99.72L488.16 100.2L361.56 100.2z" stroke="none" fill="#BFBFBF" fill-rule="nonzero" /><path id="1484" transform="matrix(1 0 0 -1 0 842)" d="M488.16 100.2L488.64 100.2L488.64 128.16L488.16 128.16z" stroke="none" fill="#BFBFBF" fill-rule="nonzero" /><path id="1485" transform="matrix(1 0 0 -1 0 842)" d="M488.16 99.72L488.64 99.72L488.64 100.2L488.16 100.2z" stroke="none" fill="#BFBFBF" fill-rule="nonzero" /><path id="1486" transform="matrix(1 0 0 -1 0 842)" d="M488.16 99.72L488.64 99.72L488.64 100.2L488.16 100.2z" stroke="none" fill="#BFBFBF" fill-rule="nonzero" /><g clip-path="url(#44)"></g><g clip-path="url(#45)"></g><g clip-path="url(#46)"></g><g clip-path="url(#47)"></g></g></g></svg>