<svg xmlns="http://www.w3.org/2000/svg" xmlns:xlink="http://www.w3.org/1999/xlink" id="body_3" preserveAspectRatio="xMinYMin meet" viewBox="0 0 793 1123"><defs><clipPath id="1"><path id="" clip-rule="evenodd" transform="matrix(1 0 0 1 0 0)" d="M0 842L0 -0.03997803L0 -0.03997803L595.56 -0.03997803L595.56 -0.03997803L595.56 842L595.56 842L0 842z" /></clipPath><clipPath id="2"><path id="" clip-rule="evenodd" transform="matrix(1 0 0 1 0 0)" d="M529.44 806.48L541.919 806.48L541.919 806.48L541.919 792.32L541.919 792.32L529.44 792.32z" /></clipPath><clipPath id="3"><path id="" clip-rule="evenodd" transform="matrix(1 0 0 1 0 0)" d="M529.44 806.48L541.919 806.48L541.919 806.48L541.919 792.32L541.919 792.32L529.44 792.32z" /></clipPath><clipPath id="4"><path id="" clip-rule="evenodd" transform="matrix(1 0 0 1 0 0)" d="M111.36 269.12L504.601 269.12L504.601 269.12L504.601 23.95996L504.601 23.95996L111.36 23.95996z" /></clipPath><clipPath id="5"><path id="" clip-rule="evenodd" transform="matrix(1 0 0 1 0 0)" d="M111.36 269.12L504.601 269.12L504.601 269.12L504.601 23.95996L504.601 23.95996L111.36 23.95996z" /></clipPath><clipPath id="6"><path id="" clip-rule="evenodd" transform="matrix(1 0 0 1 0 0)" d="M68.04 785.24L89.04 785.24L89.04 785.24L89.04 269.121L89.04 269.121L68.04 269.121z" /></clipPath><clipPath id="7"><path id="" clip-rule="evenodd" transform="matrix(1 0 0 1 0 0)" d="M68.04 785.24L89.04 785.24L89.04 785.24L89.04 269.121L89.04 269.121L68.04 269.121z" /></clipPath><clipPath id="8"><path id="" clip-rule="evenodd" transform="matrix(1 0 0 1 0 0)" d="M89.04 785.24L111.36 785.24L111.36 785.24L111.36 269.121L111.36 269.121L89.04 269.121z" /></clipPath><clipPath id="9"><path id="" clip-rule="evenodd" transform="matrix(1 0 0 1 0 0)" d="M111.36 785.24L504.601 785.24L504.601 785.24L504.601 269.121L504.601 269.121L111.36 269.121z" /></clipPath><clipPath id="10"><path id="" clip-rule="evenodd" transform="matrix(1 0 0 1 0 0)" d="M111.36 785.24L504.601 785.24L504.601 785.24L504.601 269.121L504.601 269.121L111.36 269.121z" /></clipPath><clipPath id="11"><path id="" clip-rule="evenodd" transform="matrix(1 0 0 1 0 0)" d="M111.36 785.24L504.601 785.24L504.601 785.24L504.601 269.121L504.601 269.121L111.36 269.121z" /></clipPath><clipPath id="12"><path id="" clip-rule="evenodd" transform="matrix(1 0 0 1 0 0)" d="M111.36 785.24L504.601 785.24L504.601 785.24L504.601 269.121L504.601 269.121L111.36 269.121z" /></clipPath><clipPath id="13"><path id="" clip-rule="evenodd" transform="matrix(1 0 0 1 0 0)" d="M111.36 785.24L504.601 785.24L504.601 785.24L504.601 269.121L504.601 269.121L111.36 269.121z" /></clipPath><clipPath id="14"><path id="" clip-rule="evenodd" transform="matrix(1 0 0 1 0 0)" d="M111.36 785.24L504.601 785.24L504.601 785.24L504.601 269.121L504.601 269.121L111.36 269.121z" /></clipPath><clipPath id="15"><path id="" clip-rule="evenodd" transform="matrix(1 0 0 1 0 0)" d="M111.36 785.24L504.601 785.24L504.601 785.24L504.601 269.121L504.601 269.121L111.36 269.121z" /></clipPath><clipPath id="16"><path id="" clip-rule="evenodd" transform="matrix(1 0 0 1 0 0)" d="M111.36 785.24L504.601 785.24L504.601 785.24L504.601 269.121L504.601 269.121L111.36 269.121z" /></clipPath><clipPath id="17"><path id="" clip-rule="evenodd" transform="matrix(1 0 0 1 0 0)" d="M111.36 785.24L504.601 785.24L504.601 785.24L504.601 269.121L504.601 269.121L111.36 269.121z" /></clipPath><clipPath id="18"><path id="" clip-rule="evenodd" transform="matrix(1 0 0 1 0 0)" d="M111.36 785.24L504.601 785.24L504.601 785.24L504.601 269.121L504.601 269.121L111.36 269.121z" /></clipPath><clipPath id="19"><path id="" clip-rule="evenodd" transform="matrix(1 0 0 1 0 0)" d="M111.36 785.24L504.601 785.24L504.601 785.24L504.601 269.121L504.601 269.121L111.36 269.121z" /></clipPath><clipPath id="20"><path id="" clip-rule="evenodd" transform="matrix(1 0 0 1 0 0)" d="M111.36 785.24L504.601 785.24L504.601 785.24L504.601 269.121L504.601 269.121L111.36 269.121z" /></clipPath><clipPath id="21"><path id="" clip-rule="evenodd" transform="matrix(1 0 0 1 0 0)" d="M111.36 785.24L504.601 785.24L504.601 785.24L504.601 269.121L504.601 269.121L111.36 269.121z" /></clipPath><clipPath id="22"><path id="" clip-rule="evenodd" transform="matrix(1 0 0 1 0 0)" d="M111.36 785.24L504.601 785.24L504.601 785.24L504.601 269.121L504.601 269.121L111.36 269.121z" /></clipPath><clipPath id="23"><path id="" clip-rule="evenodd" transform="matrix(1 0 0 1 0 0)" d="M111.36 785.24L504.601 785.24L504.601 785.24L504.601 269.121L504.601 269.121L111.36 269.121z" /></clipPath><clipPath id="24"><path id="" clip-rule="evenodd" transform="matrix(1 0 0 1 0 0)" d="M186.2 76.85999L395.8 76.85999L395.8 76.85999L395.8 247.86L395.8 247.86L186.2 247.86z" /></clipPath></defs><g transform="matrix(1.333333 0 0 1.333333 0 0)"><g clip-path="url(#1)"><g clip-path="url(#2)"></g><g clip-path="url(#3)"></g><g clip-path="url(#4)"></g><g clip-path="url(#5)"></g><g clip-path="url(#6)"></g><g clip-path="url(#7)"></g><g clip-path="url(#8)"></g><g clip-path="url(#9)"></g><g clip-path="url(#10)"></g><g clip-path="url(#11)"></g><g clip-path="url(#12)"></g><g clip-path="url(#13)"></g><g clip-path="url(#14)"></g><g clip-path="url(#15)"></g><g clip-path="url(#16)"></g><g clip-path="url(#17)"></g><g clip-path="url(#18)"></g><g clip-path="url(#19)"></g><g clip-path="url(#20)"></g><g clip-path="url(#21)"></g><g clip-path="url(#22)"></g><g clip-path="url(#23)"></g><g clip-path="url(#24)"><g transform="matrix(0.2739869 0 0 0.2740384 186.1999 76.85992)"><g transform="matrix(1 0 0 1 0 0)"><image x="0" y="0" xlink:href="img_03.png" width="765" height="624" /></g></g></g></g></g></svg>