<svg xmlns="http://www.w3.org/2000/svg" xmlns:xlink="http://www.w3.org/1999/xlink" id="body_2" preserveAspectRatio="xMinYMin meet" viewBox="0 0 793 1123"><defs><clipPath id="1"><path id="" clip-rule="evenodd" transform="matrix(1 0 0 1 0 0)" d="M0 842L0 -0.03997803L0 -0.03997803L595.56 -0.03997803L595.56 -0.03997803L595.56 842L595.56 842L0 842z" /></clipPath><clipPath id="2"><path id="" clip-rule="evenodd" transform="matrix(1 0 0 1 0 0)" d="M529.44 806.48L541.919 806.48L541.919 806.48L541.919 792.32L541.919 792.32L529.44 792.32z" /></clipPath><clipPath id="3"><path id="" clip-rule="evenodd" transform="matrix(1 0 0 1 0 0)" d="M529.44 806.48L541.919 806.48L541.919 806.48L541.919 792.32L541.919 792.32L529.44 792.32z" /></clipPath><clipPath id="4"><path id="" clip-rule="evenodd" transform="matrix(1 0 0 1 0 0)" d="M111.36 60.67999L504.601 60.67999L504.601 60.67999L504.601 23.95996L504.601 23.95996L111.36 23.95996z" /></clipPath><clipPath id="5"><path id="" clip-rule="evenodd" transform="matrix(1 0 0 1 0 0)" d="M68.04 606.68L89.04 606.68L89.04 606.68L89.04 60.68097L89.04 60.68097L68.04 60.68097z" /></clipPath><clipPath id="6"><path id="" clip-rule="evenodd" transform="matrix(1 0 0 1 0 0)" d="M111.36 606.68L504.601 606.68L504.601 606.68L504.601 60.68097L504.601 60.68097L111.36 60.68097z" /></clipPath><clipPath id="7"><path id="" clip-rule="evenodd" transform="matrix(1 0 0 1 0 0)" d="M111.36 606.68L504.601 606.68L504.601 606.68L504.601 60.68097L504.601 60.68097L111.36 60.68097z" /></clipPath><clipPath id="8"><path id="" clip-rule="evenodd" transform="matrix(1 0 0 1 0 0)" d="M111.36 606.68L504.601 606.68L504.601 606.68L504.601 60.68097L504.601 60.68097L111.36 60.68097z" /></clipPath><clipPath id="9"><path id="" clip-rule="evenodd" transform="matrix(1 0 0 1 0 0)" d="M111.36 606.68L504.601 606.68L504.601 606.68L504.601 60.68097L504.601 60.68097L111.36 60.68097z" /></clipPath><clipPath id="10"><path id="" clip-rule="evenodd" transform="matrix(1 0 0 1 0 0)" d="M111.36 606.68L504.601 606.68L504.601 606.68L504.601 60.68097L504.601 60.68097L111.36 60.68097z" /></clipPath><clipPath id="11"><path id="" clip-rule="evenodd" transform="matrix(1 0 0 1 0 0)" d="M111.36 606.68L504.601 606.68L504.601 606.68L504.601 60.68097L504.601 60.68097L111.36 60.68097z" /></clipPath><clipPath id="12"><path id="" clip-rule="evenodd" transform="matrix(1 0 0 1 0 0)" d="M111.36 606.68L504.601 606.68L504.601 606.68L504.601 60.68097L504.601 60.68097L111.36 60.68097z" /></clipPath><clipPath id="13"><path id="" clip-rule="evenodd" transform="matrix(1 0 0 1 0 0)" d="M111.36 606.68L504.601 606.68L504.601 606.68L504.601 60.68097L504.601 60.68097L111.36 60.68097z" /></clipPath><clipPath id="14"><path id="" clip-rule="evenodd" transform="matrix(1 0 0 1 0 0)" d="M111.36 606.68L504.601 606.68L504.601 606.68L504.601 60.68097L504.601 60.68097L111.36 60.68097z" /></clipPath><clipPath id="15"><path id="" clip-rule="evenodd" transform="matrix(1 0 0 1 0 0)" d="M111.36 606.68L504.601 606.68L504.601 606.68L504.601 60.68097L504.601 60.68097L111.36 60.68097z" /></clipPath><clipPath id="16"><path id="" clip-rule="evenodd" transform="matrix(1 0 0 1 0 0)" d="M111.36 606.68L504.601 606.68L504.601 606.68L504.601 60.68097L504.601 60.68097L111.36 60.68097z" /></clipPath><clipPath id="17"><path id="" clip-rule="evenodd" transform="matrix(1 0 0 1 0 0)" d="M111.36 606.68L504.601 606.68L504.601 606.68L504.601 60.68097L504.601 60.68097L111.36 60.68097z" /></clipPath><clipPath id="18"><path id="" clip-rule="evenodd" transform="matrix(1 0 0 1 0 0)" d="M68.04 638.6L89.04 638.6L89.04 638.6L89.04 606.68L89.04 606.68L68.04 606.68z" /></clipPath><clipPath id="19"><path id="" clip-rule="evenodd" transform="matrix(1 0 0 1 0 0)" d="M89.04 638.6L111.36 638.6L111.36 638.6L111.36 606.68L111.36 606.68L89.04 606.68z" /></clipPath><clipPath id="20"><path id="" clip-rule="evenodd" transform="matrix(1 0 0 1 0 0)" d="M504.6 638.6L548.52 638.6L548.52 638.6L548.52 606.68L548.52 606.68L504.6 606.68z" /></clipPath><clipPath id="21"><path id="" clip-rule="evenodd" transform="matrix(1 0 0 1 0 0)" d="M68.04 794L89.04 794L89.04 794L89.04 638.6L89.04 638.6L68.04 638.6z" /></clipPath><clipPath id="22"><path id="" clip-rule="evenodd" transform="matrix(1 0 0 1 0 0)" d="M111.36 794L504.601 794L504.601 794L504.601 638.6L504.601 638.6L111.36 638.6z" /></clipPath><clipPath id="23"><path id="" clip-rule="evenodd" transform="matrix(1 0 0 1 0 0)" d="M111.36 794L504.601 794L504.601 794L504.601 638.6L504.601 638.6L111.36 638.6z" /></clipPath><clipPath id="24"><path id="" clip-rule="evenodd" transform="matrix(1 0 0 1 0 0)" d="M111.36 794L504.601 794L504.601 794L504.601 638.6L504.601 638.6L111.36 638.6z" /></clipPath><clipPath id="25"><path id="" clip-rule="evenodd" transform="matrix(1 0 0 1 0 0)" d="M111.36 794L504.601 794L504.601 794L504.601 638.6L504.601 638.6L111.36 638.6z" /></clipPath><clipPath id="26"><path id="" clip-rule="evenodd" transform="matrix(1 0 0 1 0 0)" d="M111.36 794L504.601 794L504.601 794L504.601 638.6L504.601 638.6L111.36 638.6z" /></clipPath></defs><g transform="matrix(1.333333 0 0 1.333333 0 0)"><g clip-path="url(#1)"><g clip-path="url(#2)"></g><g clip-path="url(#3)"></g><g clip-path="url(#4)"></g><g clip-path="url(#5)"></g><path id="95" transform="matrix(1 0 0 -1 0 842)" d="M111.36 748.92L111.841 748.92L111.841 749.401L111.36 749.401z" stroke="none" fill="#BFBFBF" fill-rule="nonzero" /><path id="96" transform="matrix(1 0 0 -1 0 842)" d="M111.36 748.92L111.841 748.92L111.841 749.401L111.36 749.401z" stroke="none" fill="#BFBFBF" fill-rule="nonzero" /><path id="97" transform="matrix(1 0 0 -1 0 842)" d="M111.84 748.92L207.6 748.92L207.6 749.401L111.84 749.401z" stroke="none" fill="#BFBFBF" fill-rule="nonzero" /><path id="98" transform="matrix(1 0 0 -1 0 842)" d="M207.6 748.92L208.08 748.92L208.08 749.401L207.6 749.401z" stroke="none" fill="#BFBFBF" fill-rule="nonzero" /><path id="99" transform="matrix(1 0 0 -1 0 842)" d="M208.08 748.92L354.72 748.92L354.72 749.401L208.08 749.401z" stroke="none" fill="#BFBFBF" fill-rule="nonzero" /><path id="100" transform="matrix(1 0 0 -1 0 842)" d="M354.72 748.92L355.201 748.92L355.201 749.401L354.72 749.401z" stroke="none" fill="#BFBFBF" fill-rule="nonzero" /><path id="101" transform="matrix(1 0 0 -1 0 842)" d="M355.2 748.92L504.119 748.92L504.119 749.401L355.2 749.401z" stroke="none" fill="#BFBFBF" fill-rule="nonzero" /><path id="102" transform="matrix(1 0 0 -1 0 842)" d="M504.12 748.92L504.601 748.92L504.601 749.401L504.12 749.401z" stroke="none" fill="#BFBFBF" fill-rule="nonzero" /><path id="103" transform="matrix(1 0 0 -1 0 842)" d="M504.12 748.92L504.601 748.92L504.601 749.401L504.12 749.401z" stroke="none" fill="#BFBFBF" fill-rule="nonzero" /><path id="104" transform="matrix(1 0 0 -1 0 842)" d="M111.36 700.92L111.841 700.92L111.841 748.92L111.36 748.92z" stroke="none" fill="#BFBFBF" fill-rule="nonzero" /><path id="105" transform="matrix(1 0 0 -1 0 842)" d="M207.6 700.92L208.08 700.92L208.08 748.92L207.6 748.92z" stroke="none" fill="#BFBFBF" fill-rule="nonzero" /><path id="106" transform="matrix(1 0 0 -1 0 842)" d="M354.72 700.92L355.201 700.92L355.201 748.92L354.72 748.92z" stroke="none" fill="#BFBFBF" fill-rule="nonzero" /><path id="107" transform="matrix(1 0 0 -1 0 842)" d="M504.12 700.92L504.601 700.92L504.601 748.92L504.12 748.92z" stroke="none" fill="#BFBFBF" fill-rule="nonzero" /><path id="199" transform="matrix(1 0 0 -1 0 842)" d="M111.36 700.44L111.841 700.44L111.841 700.92L111.36 700.92z" stroke="none" fill="#BFBFBF" fill-rule="nonzero" /><path id="200" transform="matrix(1 0 0 -1 0 842)" d="M111.84 700.44L207.6 700.44L207.6 700.92L111.84 700.92z" stroke="none" fill="#BFBFBF" fill-rule="nonzero" /><path id="201" transform="matrix(1 0 0 -1 0 842)" d="M207.6 700.44L208.08 700.44L208.08 700.92L207.6 700.92z" stroke="none" fill="#BFBFBF" fill-rule="nonzero" /><path id="202" transform="matrix(1 0 0 -1 0 842)" d="M208.08 700.44L354.72 700.44L354.72 700.92L208.08 700.92z" stroke="none" fill="#BFBFBF" fill-rule="nonzero" /><path id="203" transform="matrix(1 0 0 -1 0 842)" d="M354.72 700.44L355.201 700.44L355.201 700.92L354.72 700.92z" stroke="none" fill="#BFBFBF" fill-rule="nonzero" /><path id="204" transform="matrix(1 0 0 -1 0 842)" d="M355.2 700.44L504.119 700.44L504.119 700.92L355.2 700.92z" stroke="none" fill="#BFBFBF" fill-rule="nonzero" /><path id="205" transform="matrix(1 0 0 -1 0 842)" d="M504.12 700.44L504.601 700.44L504.601 700.92L504.12 700.92z" stroke="none" fill="#BFBFBF" fill-rule="nonzero" /><path id="206" transform="matrix(1 0 0 -1 0 842)" d="M111.36 636.6L111.841 636.6L111.841 700.441L111.36 700.441z" stroke="none" fill="#BFBFBF" fill-rule="nonzero" /><path id="207" transform="matrix(1 0 0 -1 0 842)" d="M207.6 636.6L208.08 636.6L208.08 700.441L207.6 700.441z" stroke="none" fill="#BFBFBF" fill-rule="nonzero" /><path id="208" transform="matrix(1 0 0 -1 0 842)" d="M354.72 636.6L355.201 636.6L355.201 700.441L354.72 700.441z" stroke="none" fill="#BFBFBF" fill-rule="nonzero" /><path id="209" transform="matrix(1 0 0 -1 0 842)" d="M504.12 636.6L504.601 636.6L504.601 700.441L504.12 700.441z" stroke="none" fill="#BFBFBF" fill-rule="nonzero" /><path id="259" transform="matrix(1 0 0 -1 0 842)" d="M111.36 636.12L111.841 636.12L111.841 636.6L111.36 636.6z" stroke="none" fill="#BFBFBF" fill-rule="nonzero" /><path id="260" transform="matrix(1 0 0 -1 0 842)" d="M111.84 636.12L207.6 636.12L207.6 636.6L111.84 636.6z" stroke="none" fill="#BFBFBF" fill-rule="nonzero" /><path id="261" transform="matrix(1 0 0 -1 0 842)" d="M207.6 636.12L208.08 636.12L208.08 636.6L207.6 636.6z" stroke="none" fill="#BFBFBF" fill-rule="nonzero" /><path id="262" transform="matrix(1 0 0 -1 0 842)" d="M208.08 636.12L354.72 636.12L354.72 636.6L208.08 636.6z" stroke="none" fill="#BFBFBF" fill-rule="nonzero" /><path id="263" transform="matrix(1 0 0 -1 0 842)" d="M354.72 636.12L355.201 636.12L355.201 636.6L354.72 636.6z" stroke="none" fill="#BFBFBF" fill-rule="nonzero" /><path id="264" transform="matrix(1 0 0 -1 0 842)" d="M355.2 636.12L504.119 636.12L504.119 636.6L355.2 636.6z" stroke="none" fill="#BFBFBF" fill-rule="nonzero" /><path id="265" transform="matrix(1 0 0 -1 0 842)" d="M504.12 636.12L504.601 636.12L504.601 636.6L504.12 636.6z" stroke="none" fill="#BFBFBF" fill-rule="nonzero" /><path id="266" transform="matrix(1 0 0 -1 0 842)" d="M111.36 588.12L111.841 588.12L111.841 636.12L111.36 636.12z" stroke="none" fill="#BFBFBF" fill-rule="nonzero" /><path id="267" transform="matrix(1 0 0 -1 0 842)" d="M207.6 588.12L208.08 588.12L208.08 636.12L207.6 636.12z" stroke="none" fill="#BFBFBF" fill-rule="nonzero" /><path id="268" transform="matrix(1 0 0 -1 0 842)" d="M354.72 588.12L355.201 588.12L355.201 636.12L354.72 636.12z" stroke="none" fill="#BFBFBF" fill-rule="nonzero" /><path id="269" transform="matrix(1 0 0 -1 0 842)" d="M504.12 588.12L504.601 588.12L504.601 636.12L504.12 636.12z" stroke="none" fill="#BFBFBF" fill-rule="nonzero" /><path id="345" transform="matrix(1 0 0 -1 0 842)" d="M111.36 587.64L111.841 587.64L111.841 588.121L111.36 588.121z" stroke="none" fill="#BFBFBF" fill-rule="nonzero" /><path id="346" transform="matrix(1 0 0 -1 0 842)" d="M111.84 587.64L207.6 587.64L207.6 588.121L111.84 588.121z" stroke="none" fill="#BFBFBF" fill-rule="nonzero" /><path id="347" transform="matrix(1 0 0 -1 0 842)" d="M207.6 587.64L208.08 587.64L208.08 588.121L207.6 588.121z" stroke="none" fill="#BFBFBF" fill-rule="nonzero" /><path id="348" transform="matrix(1 0 0 -1 0 842)" d="M208.08 587.64L354.72 587.64L354.72 588.121L208.08 588.121z" stroke="none" fill="#BFBFBF" fill-rule="nonzero" /><path id="349" transform="matrix(1 0 0 -1 0 842)" d="M354.72 587.64L355.201 587.64L355.201 588.121L354.72 588.121z" stroke="none" fill="#BFBFBF" fill-rule="nonzero" /><path id="350" transform="matrix(1 0 0 -1 0 842)" d="M355.2 587.64L504.119 587.64L504.119 588.121L355.2 588.121z" stroke="none" fill="#BFBFBF" fill-rule="nonzero" /><path id="351" transform="matrix(1 0 0 -1 0 842)" d="M504.12 587.64L504.601 587.64L504.601 588.121L504.12 588.121z" stroke="none" fill="#BFBFBF" fill-rule="nonzero" /><path id="352" transform="matrix(1 0 0 -1 0 842)" d="M111.36 539.76L111.841 539.76L111.841 587.64L111.36 587.64z" stroke="none" fill="#BFBFBF" fill-rule="nonzero" /><path id="353" transform="matrix(1 0 0 -1 0 842)" d="M207.6 539.76L208.08 539.76L208.08 587.64L207.6 587.64z" stroke="none" fill="#BFBFBF" fill-rule="nonzero" /><path id="354" transform="matrix(1 0 0 -1 0 842)" d="M354.72 539.76L355.201 539.76L355.201 587.64L354.72 587.64z" stroke="none" fill="#BFBFBF" fill-rule="nonzero" /><path id="355" transform="matrix(1 0 0 -1 0 842)" d="M504.12 539.76L504.601 539.76L504.601 587.64L504.12 587.64z" stroke="none" fill="#BFBFBF" fill-rule="nonzero" /><path id="456" transform="matrix(1 0 0 -1 0 842)" d="M111.36 539.28L111.841 539.28L111.841 539.76L111.36 539.76z" stroke="none" fill="#BFBFBF" fill-rule="nonzero" /><path id="457" transform="matrix(1 0 0 -1 0 842)" d="M111.84 539.28L207.6 539.28L207.6 539.76L111.84 539.76z" stroke="none" fill="#BFBFBF" fill-rule="nonzero" /><path id="458" transform="matrix(1 0 0 -1 0 842)" d="M207.6 539.28L208.08 539.28L208.08 539.76L207.6 539.76z" stroke="none" fill="#BFBFBF" fill-rule="nonzero" /><path id="459" transform="matrix(1 0 0 -1 0 842)" d="M208.08 539.28L354.72 539.28L354.72 539.76L208.08 539.76z" stroke="none" fill="#BFBFBF" fill-rule="nonzero" /><path id="460" transform="matrix(1 0 0 -1 0 842)" d="M354.72 539.28L355.201 539.28L355.201 539.76L354.72 539.76z" stroke="none" fill="#BFBFBF" fill-rule="nonzero" /><path id="461" transform="matrix(1 0 0 -1 0 842)" d="M355.2 539.28L504.119 539.28L504.119 539.76L355.2 539.76z" stroke="none" fill="#BFBFBF" fill-rule="nonzero" /><path id="462" transform="matrix(1 0 0 -1 0 842)" d="M504.12 539.28L504.601 539.28L504.601 539.76L504.12 539.76z" stroke="none" fill="#BFBFBF" fill-rule="nonzero" /><path id="463" transform="matrix(1 0 0 -1 0 842)" d="M111.36 475.32L111.841 475.32L111.841 539.28L111.36 539.28z" stroke="none" fill="#BFBFBF" fill-rule="nonzero" /><path id="464" transform="matrix(1 0 0 -1 0 842)" d="M111.36 474.84L111.841 474.84L111.841 475.32L111.36 475.32z" stroke="none" fill="#BFBFBF" fill-rule="nonzero" /><path id="465" transform="matrix(1 0 0 -1 0 842)" d="M111.36 474.84L111.841 474.84L111.841 475.32L111.36 475.32z" stroke="none" fill="#BFBFBF" fill-rule="nonzero" /><path id="466" transform="matrix(1 0 0 -1 0 842)" d="M111.84 474.84L207.6 474.84L207.6 475.32L111.84 475.32z" stroke="none" fill="#BFBFBF" fill-rule="nonzero" /><path id="467" transform="matrix(1 0 0 -1 0 842)" d="M207.6 475.32L208.08 475.32L208.08 539.28L207.6 539.28z" stroke="none" fill="#BFBFBF" fill-rule="nonzero" /><path id="468" transform="matrix(1 0 0 -1 0 842)" d="M207.6 474.84L208.08 474.84L208.08 475.32L207.6 475.32z" stroke="none" fill="#BFBFBF" fill-rule="nonzero" /><path id="469" transform="matrix(1 0 0 -1 0 842)" d="M208.08 474.84L354.72 474.84L354.72 475.32L208.08 475.32z" stroke="none" fill="#BFBFBF" fill-rule="nonzero" /><path id="470" transform="matrix(1 0 0 -1 0 842)" d="M354.72 475.32L355.201 475.32L355.201 539.28L354.72 539.28z" stroke="none" fill="#BFBFBF" fill-rule="nonzero" /><path id="471" transform="matrix(1 0 0 -1 0 842)" d="M354.72 474.84L355.201 474.84L355.201 475.32L354.72 475.32z" stroke="none" fill="#BFBFBF" fill-rule="nonzero" /><path id="472" transform="matrix(1 0 0 -1 0 842)" d="M355.2 474.84L504.119 474.84L504.119 475.32L355.2 475.32z" stroke="none" fill="#BFBFBF" fill-rule="nonzero" /><path id="473" transform="matrix(1 0 0 -1 0 842)" d="M504.12 475.32L504.601 475.32L504.601 539.28L504.12 539.28z" stroke="none" fill="#BFBFBF" fill-rule="nonzero" /><path id="474" transform="matrix(1 0 0 -1 0 842)" d="M504.12 474.84L504.601 474.84L504.601 475.32L504.12 475.32z" stroke="none" fill="#BFBFBF" fill-rule="nonzero" /><path id="475" transform="matrix(1 0 0 -1 0 842)" d="M504.12 474.84L504.601 474.84L504.601 475.32L504.12 475.32z" stroke="none" fill="#BFBFBF" fill-rule="nonzero" /><g clip-path="url(#6)"></g><g clip-path="url(#7)"></g><g clip-path="url(#8)"></g><g clip-path="url(#9)"></g><g clip-path="url(#10)"></g><g clip-path="url(#11)"></g><g clip-path="url(#12)"></g><g clip-path="url(#13)"></g><g clip-path="url(#14)"></g><g clip-path="url(#15)"></g><g clip-path="url(#16)"></g><g clip-path="url(#17)"></g><g clip-path="url(#18)"></g><g clip-path="url(#19)"></g><g clip-path="url(#20)"></g><g clip-path="url(#21)"></g><g clip-path="url(#22)"></g><g clip-path="url(#23)"></g><g clip-path="url(#24)"></g><g clip-path="url(#25)"></g><g clip-path="url(#26)"></g></g></g></svg>