<svg xmlns="http://www.w3.org/2000/svg" xmlns:xlink="http://www.w3.org/1999/xlink" id="body_5" preserveAspectRatio="xMinYMin meet" viewBox="0 0 793 1123"><defs><clipPath id="1"><path id="" clip-rule="evenodd" transform="matrix(1 0 0 1 0 0)" d="M0 842L0 -0.03997803L0 -0.03997803L595.56 -0.03997803L595.56 -0.03997803L595.56 842L595.56 842L0 842z" /></clipPath><clipPath id="2"><path id="" clip-rule="evenodd" transform="matrix(1 0 0 1 0 0)" d="M74.04 289.64L95.04 289.64L95.04 289.64L95.04 259.04L95.04 259.04L74.04 259.04z" /></clipPath><clipPath id="3"><path id="" clip-rule="evenodd" transform="matrix(1 0 0 1 0 0)" d="M95.04 289.64L116.76 289.64L116.76 289.64L116.76 259.04L116.76 259.04L95.04 259.04z" /></clipPath><clipPath id="4"><path id="" clip-rule="evenodd" transform="matrix(1 0 0 1 0 0)" d="M116.76 289.64L503.76 289.64L503.76 289.64L503.76 259.04L503.76 259.04L116.76 259.04z" /></clipPath><clipPath id="5"><path id="" clip-rule="evenodd" transform="matrix(1 0 0 1 0 0)" d="M503.76 289.64L543.481 289.64L543.481 289.64L543.481 259.04L543.481 259.04L503.76 259.04z" /></clipPath><clipPath id="6"><path id="" clip-rule="evenodd" transform="matrix(1 0 0 1 0 0)" d="M74.04 445.16L95.04 445.16L95.04 445.16L95.04 289.64L95.04 289.64L74.04 289.64z" /></clipPath><clipPath id="7"><path id="" clip-rule="evenodd" transform="matrix(1 0 0 1 0 0)" d="M74.04 445.16L95.04 445.16L95.04 445.16L95.04 289.64L95.04 289.64L74.04 289.64z" /></clipPath><clipPath id="8"><path id="" clip-rule="evenodd" transform="matrix(1 0 0 1 0 0)" d="M95.04 445.16L116.76 445.16L116.76 445.16L116.76 289.64L116.76 289.64L95.04 289.64z" /></clipPath><clipPath id="9"><path id="" clip-rule="evenodd" transform="matrix(1 0 0 1 0 0)" d="M74.04 824.36L95.04 824.36L95.04 824.36L95.04 445.16L95.04 445.16L74.04 445.16z" /></clipPath><clipPath id="10"><path id="" clip-rule="evenodd" transform="matrix(1 0 0 1 0 0)" d="M95.04 824.36L116.76 824.36L116.76 824.36L116.76 445.16L116.76 445.16L95.04 445.16z" /></clipPath><clipPath id="11"><path id="" clip-rule="evenodd" transform="matrix(1 0 0 1 0 0)" d="M116.76 824.36L503.76 824.36L503.76 824.36L503.76 445.16L503.76 445.16L116.76 445.16z" /></clipPath><clipPath id="12"><path id="" clip-rule="evenodd" transform="matrix(1 0 0 1 0 0)" d="M116.76 824.36L503.76 824.36L503.76 824.36L503.76 445.16L503.76 445.16L116.76 445.16z" /></clipPath><clipPath id="13"><path id="" clip-rule="evenodd" transform="matrix(1 0 0 1 0 0)" d="M116.76 824.36L503.76 824.36L503.76 824.36L503.76 445.16L503.76 445.16L116.76 445.16z" /></clipPath><clipPath id="14"><path id="" clip-rule="evenodd" transform="matrix(1 0 0 1 0 0)" d="M116.76 824.36L503.76 824.36L503.76 824.36L503.76 445.16L503.76 445.16L116.76 445.16z" /></clipPath><clipPath id="15"><path id="" clip-rule="evenodd" transform="matrix(1 0 0 1 0 0)" d="M116.76 824.36L503.76 824.36L503.76 824.36L503.76 445.16L503.76 445.16L116.76 445.16z" /></clipPath><clipPath id="16"><path id="" clip-rule="evenodd" transform="matrix(1 0 0 1 0 0)" d="M116.76 824.36L503.76 824.36L503.76 824.36L503.76 445.16L503.76 445.16L116.76 445.16z" /></clipPath><clipPath id="17"><path id="" clip-rule="evenodd" transform="matrix(1 0 0 1 0 0)" d="M116.76 824.36L503.76 824.36L503.76 824.36L503.76 445.16L503.76 445.16L116.76 445.16z" /></clipPath><clipPath id="18"><path id="" clip-rule="evenodd" transform="matrix(1 0 0 1 0 0)" d="M116.76 824.36L503.76 824.36L503.76 824.36L503.76 445.16L503.76 445.16L116.76 445.16z" /></clipPath></defs><g transform="matrix(1.333333 0 0 1.333333 0 0)"><g clip-path="url(#1)"><path id="27" transform="matrix(1 0 0 -1 0 842)" d="M129.84 724.8L177.599 724.8L177.599 725.52L129.84 725.52z" stroke="none" fill="#000000" fill-rule="nonzero" /><path id="28" transform="matrix(1 0 0 -1 0 842)" d="M456.72 724.8L521.399 724.8L521.399 725.52L456.72 725.52z" stroke="none" fill="#000000" fill-rule="nonzero" /><g clip-path="url(#2)"></g><g clip-path="url(#3)"></g><g clip-path="url(#4)"></g><g clip-path="url(#5)"></g><g clip-path="url(#6)"></g><g clip-path="url(#7)"></g><g clip-path="url(#8)"></g><g clip-path="url(#9)"></g><g clip-path="url(#10)"></g><g clip-path="url(#11)"></g><g clip-path="url(#12)"></g><g clip-path="url(#13)"></g><g clip-path="url(#14)"></g><g clip-path="url(#15)"></g><g clip-path="url(#16)"></g><g clip-path="url(#17)"></g><g clip-path="url(#18)"></g></g></g></svg>