<svg xmlns="http://www.w3.org/2000/svg" xmlns:xlink="http://www.w3.org/1999/xlink" id="body_3" preserveAspectRatio="xMinYMin meet" viewBox="0 0 793 1123"><defs><clipPath id="1"><path id="" clip-rule="evenodd" transform="matrix(1 0 0 1 0 0)" d="M0 842L0 -0.03997803L0 -0.03997803L595.56 -0.03997803L595.56 -0.03997803L595.56 842L595.56 842L0 842z" /></clipPath><clipPath id="2"><path id="" clip-rule="evenodd" transform="matrix(1 0 0 1 0 0)" d="M119.88 254.24L514.2 254.24L514.2 254.24L514.2 2.959961L514.2 2.959961L119.88 2.959961z" /></clipPath><clipPath id="3"><path id="" clip-rule="evenodd" transform="matrix(1 0 0 1 0 0)" d="M119.88 254.24L514.2 254.24L514.2 254.24L514.2 2.959961L514.2 2.959961L119.88 2.959961z" /></clipPath><clipPath id="4"><path id="" clip-rule="evenodd" transform="matrix(1 0 0 1 0 0)" d="M119.88 254.24L514.2 254.24L514.2 254.24L514.2 2.959961L514.2 2.959961L119.88 2.959961z" /></clipPath><clipPath id="5"><path id="" clip-rule="evenodd" transform="matrix(1 0 0 1 0 0)" d="M119.88 254.24L514.2 254.24L514.2 254.24L514.2 2.959961L514.2 2.959961L119.88 2.959961z" /></clipPath><clipPath id="6"><path id="" clip-rule="evenodd" transform="matrix(1 0 0 1 0 0)" d="M119.88 254.24L514.2 254.24L514.2 254.24L514.2 2.959961L514.2 2.959961L119.88 2.959961z" /></clipPath><clipPath id="7"><path id="" clip-rule="evenodd" transform="matrix(1 0 0 1 0 0)" d="M119.88 254.24L514.2 254.24L514.2 254.24L514.2 2.959961L514.2 2.959961L119.88 2.959961z" /></clipPath><clipPath id="8"><path id="" clip-rule="evenodd" transform="matrix(1 0 0 1 0 0)" d="M119.88 254.24L514.2 254.24L514.2 254.24L514.2 2.959961L514.2 2.959961L119.88 2.959961z" /></clipPath><clipPath id="9"><path id="" clip-rule="evenodd" transform="matrix(1 0 0 1 0 0)" d="M74.04 823.88L95.04 823.88L95.04 823.88L95.04 254.239L95.04 254.239L74.04 254.239z" /></clipPath><clipPath id="10"><path id="" clip-rule="evenodd" transform="matrix(1 0 0 1 0 0)" d="M74.04 823.88L95.04 823.88L95.04 823.88L95.04 254.239L95.04 254.239L74.04 254.239z" /></clipPath><clipPath id="11"><path id="" clip-rule="evenodd" transform="matrix(1 0 0 1 0 0)" d="M74.04 823.88L95.04 823.88L95.04 823.88L95.04 254.239L95.04 254.239L74.04 254.239z" /></clipPath><clipPath id="12"><path id="" clip-rule="evenodd" transform="matrix(1 0 0 1 0 0)" d="M74.04 823.88L95.04 823.88L95.04 823.88L95.04 254.239L95.04 254.239L74.04 254.239z" /></clipPath><clipPath id="13"><path id="" clip-rule="evenodd" transform="matrix(1 0 0 1 0 0)" d="M95.04 823.88L119.88 823.88L119.88 823.88L119.88 254.239L119.88 254.239L95.04 254.239z" /></clipPath><clipPath id="14"><path id="" clip-rule="evenodd" transform="matrix(1 0 0 1 0 0)" d="M95.04 823.88L119.88 823.88L119.88 823.88L119.88 254.239L119.88 254.239L95.04 254.239z" /></clipPath><clipPath id="15"><path id="" clip-rule="evenodd" transform="matrix(1 0 0 1 0 0)" d="M95.04 823.88L119.88 823.88L119.88 823.88L119.88 254.239L119.88 254.239L95.04 254.239z" /></clipPath><clipPath id="16"><path id="" clip-rule="evenodd" transform="matrix(1 0 0 1 0 0)" d="M120.36 298.16L267.6 298.16L267.6 298.16L267.6 284.241L267.6 284.241L120.36 284.241z" /></clipPath><clipPath id="17"><path id="" clip-rule="evenodd" transform="matrix(1 0 0 1 0 0)" d="M120.36 298.16L267.6 298.16L267.6 298.16L267.6 284.241L267.6 284.241L120.36 284.241z" /></clipPath><clipPath id="18"><path id="" clip-rule="evenodd" transform="matrix(1 0 0 1 0 0)" d="M268.08 298.16L450.72 298.16L450.72 298.16L450.72 284.241L450.72 284.241L268.08 284.241z" /></clipPath><clipPath id="19"><path id="" clip-rule="evenodd" transform="matrix(1 0 0 1 0 0)" d="M268.08 298.16L450.72 298.16L450.72 298.16L450.72 284.241L450.72 284.241L268.08 284.241z" /></clipPath><clipPath id="20"><path id="" clip-rule="evenodd" transform="matrix(1 0 0 1 0 0)" d="M268.08 298.16L450.72 298.16L450.72 298.16L450.72 284.241L450.72 284.241L268.08 284.241z" /></clipPath><clipPath id="21"><path id="" clip-rule="evenodd" transform="matrix(1 0 0 1 0 0)" d="M268.08 298.16L450.72 298.16L450.72 298.16L450.72 284.241L450.72 284.241L268.08 284.241z" /></clipPath><clipPath id="22"><path id="" clip-rule="evenodd" transform="matrix(1 0 0 1 0 0)" d="M268.08 298.16L450.72 298.16L450.72 298.16L450.72 284.241L450.72 284.241L268.08 284.241z" /></clipPath><clipPath id="23"><path id="" clip-rule="evenodd" transform="matrix(1 0 0 1 0 0)" d="M268.08 298.16L450.72 298.16L450.72 298.16L450.72 284.241L450.72 284.241L268.08 284.241z" /></clipPath><clipPath id="24"><path id="" clip-rule="evenodd" transform="matrix(1 0 0 1 0 0)" d="M120.36 410.36L267.6 410.36L267.6 410.36L267.6 298.64L267.6 298.64L120.36 298.64z" /></clipPath><clipPath id="25"><path id="" clip-rule="evenodd" transform="matrix(1 0 0 1 0 0)" d="M120.36 410.36L267.6 410.36L267.6 410.36L267.6 298.64L267.6 298.64L120.36 298.64z" /></clipPath><clipPath id="26"><path id="" clip-rule="evenodd" transform="matrix(1 0 0 1 0 0)" d="M120.36 410.36L267.6 410.36L267.6 410.36L267.6 298.64L267.6 298.64L120.36 298.64z" /></clipPath><clipPath id="27"><path id="" clip-rule="evenodd" transform="matrix(1 0 0 1 0 0)" d="M268.08 410.36L450.72 410.36L450.72 410.36L450.72 298.64L450.72 298.64L268.08 298.64z" /></clipPath><clipPath id="28"><path id="" clip-rule="evenodd" transform="matrix(1 0 0 1 0 0)" d="M268.08 410.36L450.72 410.36L450.72 410.36L450.72 298.64L450.72 298.64L268.08 298.64z" /></clipPath><clipPath id="29"><path id="" clip-rule="evenodd" transform="matrix(1 0 0 1 0 0)" d="M268.08 410.36L450.72 410.36L450.72 410.36L450.72 298.64L450.72 298.64L268.08 298.64z" /></clipPath><clipPath id="30"><path id="" clip-rule="evenodd" transform="matrix(1 0 0 1 0 0)" d="M120.36 466.76L267.6 466.76L267.6 466.76L267.6 410.839L267.6 410.839L120.36 410.839z" /></clipPath><clipPath id="31"><path id="" clip-rule="evenodd" transform="matrix(1 0 0 1 0 0)" d="M120.36 466.76L267.6 466.76L267.6 466.76L267.6 410.839L267.6 410.839L120.36 410.839z" /></clipPath><clipPath id="32"><path id="" clip-rule="evenodd" transform="matrix(1 0 0 1 0 0)" d="M120.36 466.76L267.6 466.76L267.6 466.76L267.6 410.839L267.6 410.839L120.36 410.839z" /></clipPath><clipPath id="33"><path id="" clip-rule="evenodd" transform="matrix(1 0 0 1 0 0)" d="M268.08 466.76L450.72 466.76L450.72 466.76L450.72 410.839L450.72 410.839L268.08 410.839z" /></clipPath><clipPath id="34"><path id="" clip-rule="evenodd" transform="matrix(1 0 0 1 0 0)" d="M120.36 537.08L267.6 537.08L267.6 537.08L267.6 467.24L267.6 467.24L120.36 467.24z" /></clipPath><clipPath id="35"><path id="" clip-rule="evenodd" transform="matrix(1 0 0 1 0 0)" d="M120.36 537.08L267.6 537.08L267.6 537.08L267.6 467.24L267.6 467.24L120.36 467.24z" /></clipPath><clipPath id="36"><path id="" clip-rule="evenodd" transform="matrix(1 0 0 1 0 0)" d="M120.36 537.08L267.6 537.08L267.6 537.08L267.6 467.24L267.6 467.24L120.36 467.24z" /></clipPath><clipPath id="37"><path id="" clip-rule="evenodd" transform="matrix(1 0 0 1 0 0)" d="M268.08 537.08L450.72 537.08L450.72 537.08L450.72 467.24L450.72 467.24L268.08 467.24z" /></clipPath><clipPath id="38"><path id="" clip-rule="evenodd" transform="matrix(1 0 0 1 0 0)" d="M120.36 593.48L267.6 593.48L267.6 593.48L267.6 537.559L267.6 537.559L120.36 537.559z" /></clipPath><clipPath id="39"><path id="" clip-rule="evenodd" transform="matrix(1 0 0 1 0 0)" d="M268.08 593.48L450.72 593.48L450.72 593.48L450.72 537.559L450.72 537.559L268.08 537.559z" /></clipPath><clipPath id="40"><path id="" clip-rule="evenodd" transform="matrix(1 0 0 1 0 0)" d="M268.08 593.48L450.72 593.48L450.72 593.48L450.72 537.559L450.72 537.559L268.08 537.559z" /></clipPath><clipPath id="41"><path id="" clip-rule="evenodd" transform="matrix(1 0 0 1 0 0)" d="M268.08 593.48L450.72 593.48L450.72 593.48L450.72 537.559L450.72 537.559L268.08 537.559z" /></clipPath><clipPath id="42"><path id="" clip-rule="evenodd" transform="matrix(1 0 0 1 0 0)" d="M268.08 593.48L450.72 593.48L450.72 593.48L450.72 537.559L450.72 537.559L268.08 537.559z" /></clipPath><clipPath id="43"><path id="" clip-rule="evenodd" transform="matrix(1 0 0 1 0 0)" d="M119.88 823.88L514.2 823.88L514.2 823.88L514.2 254.239L514.2 254.239L119.88 254.239z" /></clipPath><clipPath id="44"><path id="" clip-rule="evenodd" transform="matrix(1 0 0 1 0 0)" d="M119.88 823.88L514.2 823.88L514.2 823.88L514.2 254.239L514.2 254.239L119.88 254.239z" /></clipPath><clipPath id="45"><path id="" clip-rule="evenodd" transform="matrix(1 0 0 1 0 0)" d="M119.88 823.88L514.2 823.88L514.2 823.88L514.2 254.239L514.2 254.239L119.88 254.239z" /></clipPath><clipPath id="46"><path id="" clip-rule="evenodd" transform="matrix(1 0 0 1 0 0)" d="M119.88 823.88L514.2 823.88L514.2 823.88L514.2 254.239L514.2 254.239L119.88 254.239z" /></clipPath><clipPath id="47"><path id="" clip-rule="evenodd" transform="matrix(1 0 0 1 0 0)" d="M119.88 823.88L514.2 823.88L514.2 823.88L514.2 254.239L514.2 254.239L119.88 254.239z" /></clipPath><clipPath id="48"><path id="" clip-rule="evenodd" transform="matrix(1 0 0 1 0 0)" d="M119.88 823.88L514.2 823.88L514.2 823.88L514.2 254.239L514.2 254.239L119.88 254.239z" /></clipPath><clipPath id="49"><path id="" clip-rule="evenodd" transform="matrix(1 0 0 1 0 0)" d="M119.88 823.88L514.2 823.88L514.2 823.88L514.2 254.239L514.2 254.239L119.88 254.239z" /></clipPath><clipPath id="50"><path id="" clip-rule="evenodd" transform="matrix(1 0 0 1 0 0)" d="M119.88 823.88L514.2 823.88L514.2 823.88L514.2 254.239L514.2 254.239L119.88 254.239z" /></clipPath><clipPath id="51"><path id="" clip-rule="evenodd" transform="matrix(1 0 0 1 0 0)" d="M119.88 823.88L514.2 823.88L514.2 823.88L514.2 254.239L514.2 254.239L119.88 254.239z" /></clipPath><clipPath id="52"><path id="" clip-rule="evenodd" transform="matrix(1 0 0 1 0 0)" d="M514.2 823.88L543.481 823.88L543.481 823.88L543.481 254.239L543.481 254.239L514.2 254.239z" /></clipPath><clipPath id="53"><path id="" clip-rule="evenodd" transform="matrix(1 0 0 1 0 0)" d="M514.2 823.88L543.481 823.88L543.481 823.88L543.481 254.239L543.481 254.239L514.2 254.239z" /></clipPath><clipPath id="54"><path id="" clip-rule="evenodd" transform="matrix(1 0 0 1 0 0)" d="M514.2 823.88L543.481 823.88L543.481 823.88L543.481 254.239L543.481 254.239L514.2 254.239z" /></clipPath><clipPath id="55"><path id="" clip-rule="evenodd" transform="matrix(1 0 0 1 0 0)" d="M514.2 823.88L543.481 823.88L543.481 823.88L543.481 254.239L543.481 254.239L514.2 254.239z" /></clipPath><clipPath id="56"><path id="" clip-rule="evenodd" transform="matrix(1 0 0 1 0 0)" d="M514.2 823.88L543.481 823.88L543.481 823.88L543.481 254.239L543.481 254.239L514.2 254.239z" /></clipPath></defs><g transform="matrix(1.333333 0 0 1.333333 0 0)"><g clip-path="url(#1)"><g clip-path="url(#2)"></g><g clip-path="url(#3)"></g><g clip-path="url(#4)"></g><g clip-path="url(#5)"></g><g clip-path="url(#6)"></g><g clip-path="url(#7)"></g><g clip-path="url(#8)"></g><g clip-path="url(#9)"></g><g clip-path="url(#10)"></g><g clip-path="url(#11)"></g><g clip-path="url(#12)"></g><g clip-path="url(#13)"></g><g clip-path="url(#14)"></g><g clip-path="url(#15)"></g><g clip-path="url(#16)"></g><g clip-path="url(#17)"></g><g clip-path="url(#18)"></g><g clip-path="url(#19)"></g><g clip-path="url(#20)"></g><g clip-path="url(#21)"></g><g clip-path="url(#22)"></g><g clip-path="url(#23)"></g><path id="709" transform="matrix(1 0 0 -1 0 842)" d="M119.88 557.76L120.36 557.76L120.36 558.241L119.88 558.241z" stroke="none" fill="#000000" fill-rule="nonzero" /><path id="710" transform="matrix(1 0 0 -1 0 842)" d="M119.88 557.76L120.36 557.76L120.36 558.241L119.88 558.241z" stroke="none" fill="#000000" fill-rule="nonzero" /><path id="711" transform="matrix(1 0 0 -1 0 842)" d="M120.36 557.76L267.6 557.76L267.6 558.241L120.36 558.241z" stroke="none" fill="#000000" fill-rule="nonzero" /><path id="712" transform="matrix(1 0 0 -1 0 842)" d="M267.6 557.76L268.081 557.76L268.081 558.241L267.6 558.241z" stroke="none" fill="#000000" fill-rule="nonzero" /><path id="713" transform="matrix(1 0 0 -1 0 842)" d="M268.08 557.76L450.839 557.76L450.839 558.241L268.08 558.241z" stroke="none" fill="#000000" fill-rule="nonzero" /><path id="714" transform="matrix(1 0 0 -1 0 842)" d="M450.84 557.76L451.321 557.76L451.321 558.241L450.84 558.241z" stroke="none" fill="#000000" fill-rule="nonzero" /><path id="715" transform="matrix(1 0 0 -1 0 842)" d="M450.84 557.76L451.321 557.76L451.321 558.241L450.84 558.241z" stroke="none" fill="#000000" fill-rule="nonzero" /><path id="716" transform="matrix(1 0 0 -1 0 842)" d="M119.88 543.84L120.36 543.84L120.36 557.759L119.88 557.759z" stroke="none" fill="#000000" fill-rule="nonzero" /><path id="717" transform="matrix(1 0 0 -1 0 842)" d="M267.6 543.84L268.081 543.84L268.081 557.759L267.6 557.759z" stroke="none" fill="#000000" fill-rule="nonzero" /><path id="718" transform="matrix(1 0 0 -1 0 842)" d="M450.84 543.84L451.321 543.84L451.321 557.759L450.84 557.759z" stroke="none" fill="#000000" fill-rule="nonzero" /><g clip-path="url(#24)"></g><g clip-path="url(#25)"></g><g clip-path="url(#26)"></g><g clip-path="url(#27)"></g><g clip-path="url(#28)"></g><g clip-path="url(#29)"></g><path id="1178" transform="matrix(1 0 0 -1 0 842)" d="M119.88 543.36L120.36 543.36L120.36 543.841L119.88 543.841z" stroke="none" fill="#000000" fill-rule="nonzero" /><path id="1179" transform="matrix(1 0 0 -1 0 842)" d="M120.36 543.36L267.6 543.36L267.6 543.841L120.36 543.841z" stroke="none" fill="#000000" fill-rule="nonzero" /><path id="1180" transform="matrix(1 0 0 -1 0 842)" d="M267.6 543.36L268.081 543.36L268.081 543.841L267.6 543.841z" stroke="none" fill="#000000" fill-rule="nonzero" /><path id="1181" transform="matrix(1 0 0 -1 0 842)" d="M268.08 543.36L450.839 543.36L450.839 543.841L268.08 543.841z" stroke="none" fill="#000000" fill-rule="nonzero" /><path id="1182" transform="matrix(1 0 0 -1 0 842)" d="M450.84 543.36L451.321 543.36L451.321 543.841L450.84 543.841z" stroke="none" fill="#000000" fill-rule="nonzero" /><path id="1183" transform="matrix(1 0 0 -1 0 842)" d="M119.88 431.64L120.36 431.64L120.36 543.36L119.88 543.36z" stroke="none" fill="#000000" fill-rule="nonzero" /><path id="1184" transform="matrix(1 0 0 -1 0 842)" d="M267.6 431.64L268.081 431.64L268.081 543.36L267.6 543.36z" stroke="none" fill="#000000" fill-rule="nonzero" /><path id="1185" transform="matrix(1 0 0 -1 0 842)" d="M450.84 431.64L451.321 431.64L451.321 543.36L450.84 543.36z" stroke="none" fill="#000000" fill-rule="nonzero" /><g clip-path="url(#30)"></g><g clip-path="url(#31)"></g><g clip-path="url(#32)"></g><g clip-path="url(#33)"></g><path id="1342" transform="matrix(1 0 0 -1 0 842)" d="M119.88 431.16L120.36 431.16L120.36 431.64L119.88 431.64z" stroke="none" fill="#000000" fill-rule="nonzero" /><path id="1343" transform="matrix(1 0 0 -1 0 842)" d="M120.36 431.16L267.6 431.16L267.6 431.64L120.36 431.64z" stroke="none" fill="#000000" fill-rule="nonzero" /><path id="1344" transform="matrix(1 0 0 -1 0 842)" d="M267.6 431.16L268.081 431.16L268.081 431.64L267.6 431.64z" stroke="none" fill="#000000" fill-rule="nonzero" /><path id="1345" transform="matrix(1 0 0 -1 0 842)" d="M268.08 431.16L450.839 431.16L450.839 431.64L268.08 431.64z" stroke="none" fill="#000000" fill-rule="nonzero" /><path id="1346" transform="matrix(1 0 0 -1 0 842)" d="M450.84 431.16L451.321 431.16L451.321 431.64L450.84 431.64z" stroke="none" fill="#000000" fill-rule="nonzero" /><path id="1347" transform="matrix(1 0 0 -1 0 842)" d="M119.88 375.24L120.36 375.24L120.36 431.161L119.88 431.161z" stroke="none" fill="#000000" fill-rule="nonzero" /><path id="1348" transform="matrix(1 0 0 -1 0 842)" d="M267.6 375.24L268.081 375.24L268.081 431.161L267.6 431.161z" stroke="none" fill="#000000" fill-rule="nonzero" /><path id="1349" transform="matrix(1 0 0 -1 0 842)" d="M450.84 375.24L451.321 375.24L451.321 431.161L450.84 431.161z" stroke="none" fill="#000000" fill-rule="nonzero" /><g clip-path="url(#34)"></g><g clip-path="url(#35)"></g><g clip-path="url(#36)"></g><g clip-path="url(#37)"></g><path id="1577" transform="matrix(1 0 0 -1 0 842)" d="M119.88 374.76L120.36 374.76L120.36 375.24L119.88 375.24z" stroke="none" fill="#000000" fill-rule="nonzero" /><path id="1578" transform="matrix(1 0 0 -1 0 842)" d="M120.36 374.76L267.6 374.76L267.6 375.24L120.36 375.24z" stroke="none" fill="#000000" fill-rule="nonzero" /><path id="1579" transform="matrix(1 0 0 -1 0 842)" d="M267.6 374.76L268.081 374.76L268.081 375.24L267.6 375.24z" stroke="none" fill="#000000" fill-rule="nonzero" /><path id="1580" transform="matrix(1 0 0 -1 0 842)" d="M268.08 374.76L450.839 374.76L450.839 375.24L268.08 375.24z" stroke="none" fill="#000000" fill-rule="nonzero" /><path id="1581" transform="matrix(1 0 0 -1 0 842)" d="M450.84 374.76L451.321 374.76L451.321 375.24L450.84 375.24z" stroke="none" fill="#000000" fill-rule="nonzero" /><path id="1582" transform="matrix(1 0 0 -1 0 842)" d="M119.88 304.92L120.36 304.92L120.36 374.76L119.88 374.76z" stroke="none" fill="#000000" fill-rule="nonzero" /><path id="1583" transform="matrix(1 0 0 -1 0 842)" d="M267.6 304.92L268.081 304.92L268.081 374.76L267.6 374.76z" stroke="none" fill="#000000" fill-rule="nonzero" /><path id="1584" transform="matrix(1 0 0 -1 0 842)" d="M450.84 304.92L451.321 304.92L451.321 374.76L450.84 374.76z" stroke="none" fill="#000000" fill-rule="nonzero" /><g clip-path="url(#38)"></g><g clip-path="url(#39)"></g><g clip-path="url(#40)"></g><g clip-path="url(#41)"></g><g clip-path="url(#42)"></g><path id="1761" transform="matrix(1 0 0 -1 0 842)" d="M119.88 304.44L120.36 304.44L120.36 304.92L119.88 304.92z" stroke="none" fill="#000000" fill-rule="nonzero" /><path id="1762" transform="matrix(1 0 0 -1 0 842)" d="M120.36 304.44L267.6 304.44L267.6 304.92L120.36 304.92z" stroke="none" fill="#000000" fill-rule="nonzero" /><path id="1763" transform="matrix(1 0 0 -1 0 842)" d="M267.6 304.44L268.081 304.44L268.081 304.92L267.6 304.92z" stroke="none" fill="#000000" fill-rule="nonzero" /><path id="1764" transform="matrix(1 0 0 -1 0 842)" d="M268.08 304.44L450.839 304.44L450.839 304.92L268.08 304.92z" stroke="none" fill="#000000" fill-rule="nonzero" /><path id="1765" transform="matrix(1 0 0 -1 0 842)" d="M450.84 304.44L451.321 304.44L451.321 304.92L450.84 304.92z" stroke="none" fill="#000000" fill-rule="nonzero" /><path id="1766" transform="matrix(1 0 0 -1 0 842)" d="M119.88 248.52L120.36 248.52L120.36 304.441L119.88 304.441z" stroke="none" fill="#000000" fill-rule="nonzero" /><path id="1767" transform="matrix(1 0 0 -1 0 842)" d="M119.88 248.04L120.36 248.04L120.36 248.52L119.88 248.52z" stroke="none" fill="#000000" fill-rule="nonzero" /><path id="1768" transform="matrix(1 0 0 -1 0 842)" d="M119.88 248.04L120.36 248.04L120.36 248.52L119.88 248.52z" stroke="none" fill="#000000" fill-rule="nonzero" /><path id="1769" transform="matrix(1 0 0 -1 0 842)" d="M120.36 248.04L267.6 248.04L267.6 248.52L120.36 248.52z" stroke="none" fill="#000000" fill-rule="nonzero" /><path id="1770" transform="matrix(1 0 0 -1 0 842)" d="M267.6 248.52L268.081 248.52L268.081 304.441L267.6 304.441z" stroke="none" fill="#000000" fill-rule="nonzero" /><path id="1771" transform="matrix(1 0 0 -1 0 842)" d="M267.6 248.04L268.081 248.04L268.081 248.52L267.6 248.52z" stroke="none" fill="#000000" fill-rule="nonzero" /><path id="1772" transform="matrix(1 0 0 -1 0 842)" d="M268.08 248.04L450.839 248.04L450.839 248.52L268.08 248.52z" stroke="none" fill="#000000" fill-rule="nonzero" /><path id="1773" transform="matrix(1 0 0 -1 0 842)" d="M450.84 248.52L451.321 248.52L451.321 304.441L450.84 304.441z" stroke="none" fill="#000000" fill-rule="nonzero" /><path id="1774" transform="matrix(1 0 0 -1 0 842)" d="M450.84 248.04L451.321 248.04L451.321 248.52L450.84 248.52z" stroke="none" fill="#000000" fill-rule="nonzero" /><path id="1775" transform="matrix(1 0 0 -1 0 842)" d="M450.84 248.04L451.321 248.04L451.321 248.52L450.84 248.52z" stroke="none" fill="#000000" fill-rule="nonzero" /><g clip-path="url(#43)"></g><g clip-path="url(#44)"></g><g clip-path="url(#45)"></g><g clip-path="url(#46)"></g><g clip-path="url(#47)"></g><g clip-path="url(#48)"></g><g clip-path="url(#49)"></g><g clip-path="url(#50)"></g><g clip-path="url(#51)"></g><g clip-path="url(#52)"></g><g clip-path="url(#53)"></g><g clip-path="url(#54)"></g><g clip-path="url(#55)"></g><g clip-path="url(#56)"></g></g></g></svg>