<svg xmlns="http://www.w3.org/2000/svg" xmlns:xlink="http://www.w3.org/1999/xlink" id="body_4" preserveAspectRatio="xMinYMin meet" viewBox="0 0 793 1123"><defs><clipPath id="1"><path id="" clip-rule="evenodd" transform="matrix(1 0 0 1 0 0)" d="M0 842L0 -0.03997803L0 -0.03997803L595.56 -0.03997803L595.56 -0.03997803L595.56 842L595.56 842L0 842z" /></clipPath><clipPath id="2"><path id="" clip-rule="evenodd" transform="matrix(1 0 0 1 0 0)" d="M74.04 569.24L95.04 569.24L95.04 569.24L95.04 2.959961L95.04 2.959961L74.04 2.959961z" /></clipPath><clipPath id="3"><path id="" clip-rule="evenodd" transform="matrix(1 0 0 1 0 0)" d="M74.04 569.24L95.04 569.24L95.04 569.24L95.04 2.959961L95.04 2.959961L74.04 2.959961z" /></clipPath><clipPath id="4"><path id="" clip-rule="evenodd" transform="matrix(1 0 0 1 0 0)" d="M74.04 569.24L95.04 569.24L95.04 569.24L95.04 2.959961L95.04 2.959961L74.04 2.959961z" /></clipPath><clipPath id="5"><path id="" clip-rule="evenodd" transform="matrix(1 0 0 1 0 0)" d="M95.04 569.24L119.88 569.24L119.88 569.24L119.88 2.959961L119.88 2.959961L95.04 2.959961z" /></clipPath><clipPath id="6"><path id="" clip-rule="evenodd" transform="matrix(1 0 0 1 0 0)" d="M119.88 569.24L514.2 569.24L514.2 569.24L514.2 2.959961L514.2 2.959961L119.88 2.959961z" /></clipPath><clipPath id="7"><path id="" clip-rule="evenodd" transform="matrix(1 0 0 1 0 0)" d="M119.88 569.24L514.2 569.24L514.2 569.24L514.2 2.959961L514.2 2.959961L119.88 2.959961z" /></clipPath><clipPath id="8"><path id="" clip-rule="evenodd" transform="matrix(1 0 0 1 0 0)" d="M119.88 569.24L514.2 569.24L514.2 569.24L514.2 2.959961L514.2 2.959961L119.88 2.959961z" /></clipPath><clipPath id="9"><path id="" clip-rule="evenodd" transform="matrix(1 0 0 1 0 0)" d="M119.88 569.24L514.2 569.24L514.2 569.24L514.2 2.959961L514.2 2.959961L119.88 2.959961z" /></clipPath><clipPath id="10"><path id="" clip-rule="evenodd" transform="matrix(1 0 0 1 0 0)" d="M119.88 569.24L514.2 569.24L514.2 569.24L514.2 2.959961L514.2 2.959961L119.88 2.959961z" /></clipPath><clipPath id="11"><path id="" clip-rule="evenodd" transform="matrix(1 0 0 1 0 0)" d="M119.88 569.24L514.2 569.24L514.2 569.24L514.2 2.959961L514.2 2.959961L119.88 2.959961z" /></clipPath><clipPath id="12"><path id="" clip-rule="evenodd" transform="matrix(1 0 0 1 0 0)" d="M119.88 569.24L514.2 569.24L514.2 569.24L514.2 2.959961L514.2 2.959961L119.88 2.959961z" /></clipPath><clipPath id="13"><path id="" clip-rule="evenodd" transform="matrix(1 0 0 1 0 0)" d="M119.88 569.24L514.2 569.24L514.2 569.24L514.2 2.959961L514.2 2.959961L119.88 2.959961z" /></clipPath><clipPath id="14"><path id="" clip-rule="evenodd" transform="matrix(1 0 0 1 0 0)" d="M119.88 569.24L514.2 569.24L514.2 569.24L514.2 2.959961L514.2 2.959961L119.88 2.959961z" /></clipPath><clipPath id="15"><path id="" clip-rule="evenodd" transform="matrix(1 0 0 1 0 0)" d="M119.88 569.24L514.2 569.24L514.2 569.24L514.2 2.959961L514.2 2.959961L119.88 2.959961z" /></clipPath><clipPath id="16"><path id="" clip-rule="evenodd" transform="matrix(1 0 0 1 0 0)" d="M119.88 569.24L514.2 569.24L514.2 569.24L514.2 2.959961L514.2 2.959961L119.88 2.959961z" /></clipPath><clipPath id="17"><path id="" clip-rule="evenodd" transform="matrix(1 0 0 1 0 0)" d="M119.88 569.24L514.2 569.24L514.2 569.24L514.2 2.959961L514.2 2.959961L119.88 2.959961z" /></clipPath><clipPath id="18"><path id="" clip-rule="evenodd" transform="matrix(1 0 0 1 0 0)" d="M119.88 569.24L514.2 569.24L514.2 569.24L514.2 2.959961L514.2 2.959961L119.88 2.959961z" /></clipPath><clipPath id="19"><path id="" clip-rule="evenodd" transform="matrix(1 0 0 1 0 0)" d="M119.88 569.24L514.2 569.24L514.2 569.24L514.2 2.959961L514.2 2.959961L119.88 2.959961z" /></clipPath><clipPath id="20"><path id="" clip-rule="evenodd" transform="matrix(1 0 0 1 0 0)" d="M119.88 569.24L514.2 569.24L514.2 569.24L514.2 2.959961L514.2 2.959961L119.88 2.959961z" /></clipPath><clipPath id="21"><path id="" clip-rule="evenodd" transform="matrix(1 0 0 1 0 0)" d="M119.88 569.24L514.2 569.24L514.2 569.24L514.2 2.959961L514.2 2.959961L119.88 2.959961z" /></clipPath><clipPath id="22"><path id="" clip-rule="evenodd" transform="matrix(1 0 0 1 0 0)" d="M119.88 569.24L514.2 569.24L514.2 569.24L514.2 2.959961L514.2 2.959961L119.88 2.959961z" /></clipPath><clipPath id="23"><path id="" clip-rule="evenodd" transform="matrix(1 0 0 1 0 0)" d="M119.88 569.24L514.2 569.24L514.2 569.24L514.2 2.959961L514.2 2.959961L119.88 2.959961z" /></clipPath><clipPath id="24"><path id="" clip-rule="evenodd" transform="matrix(1 0 0 1 0 0)" d="M119.88 569.24L514.2 569.24L514.2 569.24L514.2 2.959961L514.2 2.959961L119.88 2.959961z" /></clipPath><clipPath id="25"><path id="" clip-rule="evenodd" transform="matrix(1 0 0 1 0 0)" d="M514.2 569.24L543.481 569.24L543.481 569.24L543.481 2.959961L543.481 2.959961L514.2 2.959961z" /></clipPath><clipPath id="26"><path id="" clip-rule="evenodd" transform="matrix(1 0 0 1 0 0)" d="M74.04 817.76L95.04 817.76L95.04 817.76L95.04 569.239L95.04 569.239L74.04 569.239z" /></clipPath><clipPath id="27"><path id="" clip-rule="evenodd" transform="matrix(1 0 0 1 0 0)" d="M120.36 612.8L300 612.8L300 612.8L300 598.76L300 598.76L120.36 598.76z" /></clipPath><clipPath id="28"><path id="" clip-rule="evenodd" transform="matrix(1 0 0 1 0 0)" d="M120.36 612.8L300 612.8L300 612.8L300 598.76L300 598.76L120.36 598.76z" /></clipPath><clipPath id="29"><path id="" clip-rule="evenodd" transform="matrix(1 0 0 1 0 0)" d="M300.6 612.8L455.52 612.8L455.52 612.8L455.52 598.76L455.52 598.76L300.6 598.76z" /></clipPath><clipPath id="30"><path id="" clip-rule="evenodd" transform="matrix(1 0 0 1 0 0)" d="M300.6 612.8L455.52 612.8L455.52 612.8L455.52 598.76L455.52 598.76L300.6 598.76z" /></clipPath><clipPath id="31"><path id="" clip-rule="evenodd" transform="matrix(1 0 0 1 0 0)" d="M120.36 641.24L300 641.24L300 641.24L300 613.281L300 613.281L120.36 613.281z" /></clipPath><clipPath id="32"><path id="" clip-rule="evenodd" transform="matrix(1 0 0 1 0 0)" d="M120.36 641.24L300 641.24L300 641.24L300 613.281L300 613.281L120.36 613.281z" /></clipPath><clipPath id="33"><path id="" clip-rule="evenodd" transform="matrix(1 0 0 1 0 0)" d="M120.36 641.24L300 641.24L300 641.24L300 613.281L300 613.281L120.36 613.281z" /></clipPath><clipPath id="34"><path id="" clip-rule="evenodd" transform="matrix(1 0 0 1 0 0)" d="M120.36 641.24L300 641.24L300 641.24L300 613.281L300 613.281L120.36 613.281z" /></clipPath><clipPath id="35"><path id="" clip-rule="evenodd" transform="matrix(1 0 0 1 0 0)" d="M120.36 641.24L300 641.24L300 641.24L300 613.281L300 613.281L120.36 613.281z" /></clipPath><clipPath id="36"><path id="" clip-rule="evenodd" transform="matrix(1 0 0 1 0 0)" d="M300.6 641.24L455.52 641.24L455.52 641.24L455.52 613.281L455.52 613.281L300.6 613.281z" /></clipPath><clipPath id="37"><path id="" clip-rule="evenodd" transform="matrix(1 0 0 1 0 0)" d="M300.6 641.24L455.52 641.24L455.52 641.24L455.52 613.281L455.52 613.281L300.6 613.281z" /></clipPath><clipPath id="38"><path id="" clip-rule="evenodd" transform="matrix(1 0 0 1 0 0)" d="M300.6 641.24L455.52 641.24L455.52 641.24L455.52 613.281L455.52 613.281L300.6 613.281z" /></clipPath><clipPath id="39"><path id="" clip-rule="evenodd" transform="matrix(1 0 0 1 0 0)" d="M300.6 641.24L455.52 641.24L455.52 641.24L455.52 613.281L455.52 613.281L300.6 613.281z" /></clipPath><clipPath id="40"><path id="" clip-rule="evenodd" transform="matrix(1 0 0 1 0 0)" d="M300.6 641.24L455.52 641.24L455.52 641.24L455.52 613.281L455.52 613.281L300.6 613.281z" /></clipPath><clipPath id="41"><path id="" clip-rule="evenodd" transform="matrix(1 0 0 1 0 0)" d="M120.36 655.64L300 655.64L300 655.64L300 641.721L300 641.721L120.36 641.721z" /></clipPath><clipPath id="42"><path id="" clip-rule="evenodd" transform="matrix(1 0 0 1 0 0)" d="M120.36 655.64L300 655.64L300 655.64L300 641.721L300 641.721L120.36 641.721z" /></clipPath><clipPath id="43"><path id="" clip-rule="evenodd" transform="matrix(1 0 0 1 0 0)" d="M300.6 655.64L455.52 655.64L455.52 655.64L455.52 641.721L455.52 641.721L300.6 641.721z" /></clipPath><clipPath id="44"><path id="" clip-rule="evenodd" transform="matrix(1 0 0 1 0 0)" d="M300.6 655.64L455.52 655.64L455.52 655.64L455.52 641.721L455.52 641.721L300.6 641.721z" /></clipPath><clipPath id="45"><path id="" clip-rule="evenodd" transform="matrix(1 0 0 1 0 0)" d="M120.36 670.16L300 670.16L300 670.16L300 656.12L300 656.12L120.36 656.12z" /></clipPath><clipPath id="46"><path id="" clip-rule="evenodd" transform="matrix(1 0 0 1 0 0)" d="M120.36 670.16L300 670.16L300 670.16L300 656.12L300 656.12L120.36 656.12z" /></clipPath><clipPath id="47"><path id="" clip-rule="evenodd" transform="matrix(1 0 0 1 0 0)" d="M120.36 670.16L300 670.16L300 670.16L300 656.12L300 656.12L120.36 656.12z" /></clipPath><clipPath id="48"><path id="" clip-rule="evenodd" transform="matrix(1 0 0 1 0 0)" d="M120.36 670.16L300 670.16L300 670.16L300 656.12L300 656.12L120.36 656.12z" /></clipPath><clipPath id="49"><path id="" clip-rule="evenodd" transform="matrix(1 0 0 1 0 0)" d="M300.6 670.16L455.52 670.16L455.52 670.16L455.52 656.12L455.52 656.12L300.6 656.12z" /></clipPath><clipPath id="50"><path id="" clip-rule="evenodd" transform="matrix(1 0 0 1 0 0)" d="M300.6 670.16L455.52 670.16L455.52 670.16L455.52 656.12L455.52 656.12L300.6 656.12z" /></clipPath><clipPath id="51"><path id="" clip-rule="evenodd" transform="matrix(1 0 0 1 0 0)" d="M120.36 698.6L300 698.6L300 698.6L300 670.64L300 670.64L120.36 670.64z" /></clipPath><clipPath id="52"><path id="" clip-rule="evenodd" transform="matrix(1 0 0 1 0 0)" d="M120.36 698.6L300 698.6L300 698.6L300 670.64L300 670.64L120.36 670.64z" /></clipPath><clipPath id="53"><path id="" clip-rule="evenodd" transform="matrix(1 0 0 1 0 0)" d="M300.6 698.6L455.52 698.6L455.52 698.6L455.52 670.64L455.52 670.64L300.6 670.64z" /></clipPath><clipPath id="54"><path id="" clip-rule="evenodd" transform="matrix(1 0 0 1 0 0)" d="M300.6 698.6L455.52 698.6L455.52 698.6L455.52 670.64L455.52 670.64L300.6 670.64z" /></clipPath><clipPath id="55"><path id="" clip-rule="evenodd" transform="matrix(1 0 0 1 0 0)" d="M300.6 698.6L455.52 698.6L455.52 698.6L455.52 670.64L455.52 670.64L300.6 670.64z" /></clipPath><clipPath id="56"><path id="" clip-rule="evenodd" transform="matrix(1 0 0 1 0 0)" d="M120.36 713L300 713L300 713L300 699.08L300 699.08L120.36 699.08z" /></clipPath><clipPath id="57"><path id="" clip-rule="evenodd" transform="matrix(1 0 0 1 0 0)" d="M120.36 713L300 713L300 713L300 699.08L300 699.08L120.36 699.08z" /></clipPath><clipPath id="58"><path id="" clip-rule="evenodd" transform="matrix(1 0 0 1 0 0)" d="M300.6 713L455.52 713L455.52 713L455.52 699.08L455.52 699.08L300.6 699.08z" /></clipPath><clipPath id="59"><path id="" clip-rule="evenodd" transform="matrix(1 0 0 1 0 0)" d="M300.6 713L455.52 713L455.52 713L455.52 699.08L455.52 699.08L300.6 699.08z" /></clipPath><clipPath id="60"><path id="" clip-rule="evenodd" transform="matrix(1 0 0 1 0 0)" d="M120.36 727.52L300 727.52L300 727.52L300 713.6L300 713.6L120.36 713.6z" /></clipPath><clipPath id="61"><path id="" clip-rule="evenodd" transform="matrix(1 0 0 1 0 0)" d="M120.36 727.52L300 727.52L300 727.52L300 713.6L300 713.6L120.36 713.6z" /></clipPath><clipPath id="62"><path id="" clip-rule="evenodd" transform="matrix(1 0 0 1 0 0)" d="M300.6 727.52L455.52 727.52L455.52 727.52L455.52 713.6L455.52 713.6L300.6 713.6z" /></clipPath><clipPath id="63"><path id="" clip-rule="evenodd" transform="matrix(1 0 0 1 0 0)" d="M300.6 727.52L455.52 727.52L455.52 727.52L455.52 713.6L455.52 713.6L300.6 713.6z" /></clipPath><clipPath id="64"><path id="" clip-rule="evenodd" transform="matrix(1 0 0 1 0 0)" d="M120.36 741.92L300 741.92L300 741.92L300 728L300 728L120.36 728z" /></clipPath><clipPath id="65"><path id="" clip-rule="evenodd" transform="matrix(1 0 0 1 0 0)" d="M120.36 741.92L300 741.92L300 741.92L300 728L300 728L120.36 728z" /></clipPath><clipPath id="66"><path id="" clip-rule="evenodd" transform="matrix(1 0 0 1 0 0)" d="M300.6 741.92L455.52 741.92L455.52 741.92L455.52 728L455.52 728L300.6 728z" /></clipPath><clipPath id="67"><path id="" clip-rule="evenodd" transform="matrix(1 0 0 1 0 0)" d="M300.6 741.92L455.52 741.92L455.52 741.92L455.52 728L455.52 728L300.6 728z" /></clipPath><clipPath id="68"><path id="" clip-rule="evenodd" transform="matrix(1 0 0 1 0 0)" d="M120.36 756.44L300 756.44L300 756.44L300 742.521L300 742.521L120.36 742.521z" /></clipPath><clipPath id="69"><path id="" clip-rule="evenodd" transform="matrix(1 0 0 1 0 0)" d="M120.36 756.44L300 756.44L300 756.44L300 742.521L300 742.521L120.36 742.521z" /></clipPath><clipPath id="70"><path id="" clip-rule="evenodd" transform="matrix(1 0 0 1 0 0)" d="M300.6 756.44L455.52 756.44L455.52 756.44L455.52 742.521L455.52 742.521L300.6 742.521z" /></clipPath><clipPath id="71"><path id="" clip-rule="evenodd" transform="matrix(1 0 0 1 0 0)" d="M300.6 756.44L455.52 756.44L455.52 756.44L455.52 742.521L455.52 742.521L300.6 742.521z" /></clipPath><clipPath id="72"><path id="" clip-rule="evenodd" transform="matrix(1 0 0 1 0 0)" d="M120.36 770.96L300 770.96L300 770.96L300 756.92L300 756.92L120.36 756.92z" /></clipPath><clipPath id="73"><path id="" clip-rule="evenodd" transform="matrix(1 0 0 1 0 0)" d="M120.36 770.96L300 770.96L300 770.96L300 756.92L300 756.92L120.36 756.92z" /></clipPath><clipPath id="74"><path id="" clip-rule="evenodd" transform="matrix(1 0 0 1 0 0)" d="M300.6 770.96L455.52 770.96L455.52 770.96L455.52 756.92L455.52 756.92L300.6 756.92z" /></clipPath><clipPath id="75"><path id="" clip-rule="evenodd" transform="matrix(1 0 0 1 0 0)" d="M300.6 770.96L455.52 770.96L455.52 770.96L455.52 756.92L455.52 756.92L300.6 756.92z" /></clipPath><clipPath id="76"><path id="" clip-rule="evenodd" transform="matrix(1 0 0 1 0 0)" d="M120.36 785.36L300 785.36L300 785.36L300 771.44L300 771.44L120.36 771.44z" /></clipPath><clipPath id="77"><path id="" clip-rule="evenodd" transform="matrix(1 0 0 1 0 0)" d="M120.36 785.36L300 785.36L300 785.36L300 771.44L300 771.44L120.36 771.44z" /></clipPath><clipPath id="78"><path id="" clip-rule="evenodd" transform="matrix(1 0 0 1 0 0)" d="M300.6 785.36L455.52 785.36L455.52 785.36L455.52 771.44L455.52 771.44L300.6 771.44z" /></clipPath><clipPath id="79"><path id="" clip-rule="evenodd" transform="matrix(1 0 0 1 0 0)" d="M300.6 785.36L455.52 785.36L455.52 785.36L455.52 771.44L455.52 771.44L300.6 771.44z" /></clipPath><clipPath id="80"><path id="" clip-rule="evenodd" transform="matrix(1 0 0 1 0 0)" d="M119.88 817.76L514.2 817.76L514.2 817.76L514.2 569.239L514.2 569.239L119.88 569.239z" /></clipPath><clipPath id="81"><path id="" clip-rule="evenodd" transform="matrix(1 0 0 1 0 0)" d="M514.2 817.76L543.481 817.76L543.481 817.76L543.481 569.239L543.481 569.239L514.2 569.239z" /></clipPath></defs><g transform="matrix(1.333333 0 0 1.333333 0 0)"><g clip-path="url(#1)"><g clip-path="url(#2)"></g><g clip-path="url(#3)"></g><g clip-path="url(#4)"></g><g clip-path="url(#5)"></g><g clip-path="url(#6)"></g><g clip-path="url(#7)"></g><g clip-path="url(#8)"></g><g clip-path="url(#9)"></g><g clip-path="url(#10)"></g><g clip-path="url(#11)"></g><g clip-path="url(#12)"></g><g clip-path="url(#13)"></g><g clip-path="url(#14)"></g><g clip-path="url(#15)"></g><g clip-path="url(#16)"></g><g clip-path="url(#17)"></g><g clip-path="url(#18)"></g><g clip-path="url(#19)"></g><g clip-path="url(#20)"></g><g clip-path="url(#21)"></g><g clip-path="url(#22)"></g><g clip-path="url(#23)"></g><g clip-path="url(#24)"></g><g clip-path="url(#25)"></g><g clip-path="url(#26)"></g><g clip-path="url(#27)"></g><g clip-path="url(#28)"></g><g clip-path="url(#29)"></g><g clip-path="url(#30)"></g><path id="1395" transform="matrix(1 0 0 -1 0 842)" d="M119.88 243.24L120.36 243.24L120.36 243.72L119.88 243.72z" stroke="none" fill="#000000" fill-rule="nonzero" /><path id="1396" transform="matrix(1 0 0 -1 0 842)" d="M119.88 243.24L120.36 243.24L120.36 243.72L119.88 243.72z" stroke="none" fill="#000000" fill-rule="nonzero" /><path id="1397" transform="matrix(1 0 0 -1 0 842)" d="M120.36 243.24L300.121 243.24L300.121 243.72L120.36 243.72z" stroke="none" fill="#000000" fill-rule="nonzero" /><path id="1398" transform="matrix(1 0 0 -1 0 842)" d="M300.12 243.24L300.6 243.24L300.6 243.72L300.12 243.72z" stroke="none" fill="#000000" fill-rule="nonzero" /><path id="1399" transform="matrix(1 0 0 -1 0 842)" d="M300.6 243.24L455.64 243.24L455.64 243.72L300.6 243.72z" stroke="none" fill="#000000" fill-rule="nonzero" /><path id="1400" transform="matrix(1 0 0 -1 0 842)" d="M455.64 243.24L456.12 243.24L456.12 243.72L455.64 243.72z" stroke="none" fill="#000000" fill-rule="nonzero" /><path id="1401" transform="matrix(1 0 0 -1 0 842)" d="M455.64 243.24L456.12 243.24L456.12 243.72L455.64 243.72z" stroke="none" fill="#000000" fill-rule="nonzero" /><path id="1402" transform="matrix(1 0 0 -1 0 842)" d="M119.88 229.2L120.36 229.2L120.36 243.24L119.88 243.24z" stroke="none" fill="#000000" fill-rule="nonzero" /><path id="1403" transform="matrix(1 0 0 -1 0 842)" d="M300.12 229.2L300.6 229.2L300.6 243.24L300.12 243.24z" stroke="none" fill="#000000" fill-rule="nonzero" /><path id="1404" transform="matrix(1 0 0 -1 0 842)" d="M455.64 229.2L456.12 229.2L456.12 243.24L455.64 243.24z" stroke="none" fill="#000000" fill-rule="nonzero" /><g clip-path="url(#31)"></g><g clip-path="url(#32)"></g><g clip-path="url(#33)"></g><g clip-path="url(#34)"></g><g clip-path="url(#35)"></g><g clip-path="url(#36)"></g><g clip-path="url(#37)"></g><g clip-path="url(#38)"></g><g clip-path="url(#39)"></g><g clip-path="url(#40)"></g><path id="1473" transform="matrix(1 0 0 -1 0 842)" d="M119.88 228.72L120.36 228.72L120.36 229.201L119.88 229.201z" stroke="none" fill="#000000" fill-rule="nonzero" /><path id="1474" transform="matrix(1 0 0 -1 0 842)" d="M120.36 228.72L300.121 228.72L300.121 229.201L120.36 229.201z" stroke="none" fill="#000000" fill-rule="nonzero" /><path id="1475" transform="matrix(1 0 0 -1 0 842)" d="M300.12 228.72L300.6 228.72L300.6 229.201L300.12 229.201z" stroke="none" fill="#000000" fill-rule="nonzero" /><path id="1476" transform="matrix(1 0 0 -1 0 842)" d="M300.6 228.72L455.64 228.72L455.64 229.201L300.6 229.201z" stroke="none" fill="#000000" fill-rule="nonzero" /><path id="1477" transform="matrix(1 0 0 -1 0 842)" d="M455.64 228.72L456.12 228.72L456.12 229.201L455.64 229.201z" stroke="none" fill="#000000" fill-rule="nonzero" /><path id="1478" transform="matrix(1 0 0 -1 0 842)" d="M119.88 200.76L120.36 200.76L120.36 228.719L119.88 228.719z" stroke="none" fill="#000000" fill-rule="nonzero" /><path id="1479" transform="matrix(1 0 0 -1 0 842)" d="M300.12 200.76L300.6 200.76L300.6 228.719L300.12 228.719z" stroke="none" fill="#000000" fill-rule="nonzero" /><path id="1480" transform="matrix(1 0 0 -1 0 842)" d="M455.64 200.76L456.12 200.76L456.12 228.719L455.64 228.719z" stroke="none" fill="#000000" fill-rule="nonzero" /><g clip-path="url(#41)"></g><g clip-path="url(#42)"></g><g clip-path="url(#43)"></g><g clip-path="url(#44)"></g><path id="1528" transform="matrix(1 0 0 -1 0 842)" d="M119.88 200.28L120.36 200.28L120.36 200.761L119.88 200.761z" stroke="none" fill="#000000" fill-rule="nonzero" /><path id="1529" transform="matrix(1 0 0 -1 0 842)" d="M120.36 200.28L300.121 200.28L300.121 200.761L120.36 200.761z" stroke="none" fill="#000000" fill-rule="nonzero" /><path id="1530" transform="matrix(1 0 0 -1 0 842)" d="M300.12 200.28L300.6 200.28L300.6 200.761L300.12 200.761z" stroke="none" fill="#000000" fill-rule="nonzero" /><path id="1531" transform="matrix(1 0 0 -1 0 842)" d="M300.6 200.28L455.64 200.28L455.64 200.761L300.6 200.761z" stroke="none" fill="#000000" fill-rule="nonzero" /><path id="1532" transform="matrix(1 0 0 -1 0 842)" d="M455.64 200.28L456.12 200.28L456.12 200.761L455.64 200.761z" stroke="none" fill="#000000" fill-rule="nonzero" /><path id="1533" transform="matrix(1 0 0 -1 0 842)" d="M119.88 186.36L120.36 186.36L120.36 200.279L119.88 200.279z" stroke="none" fill="#000000" fill-rule="nonzero" /><path id="1534" transform="matrix(1 0 0 -1 0 842)" d="M300.12 186.36L300.6 186.36L300.6 200.279L300.12 200.279z" stroke="none" fill="#000000" fill-rule="nonzero" /><path id="1535" transform="matrix(1 0 0 -1 0 842)" d="M455.64 186.36L456.12 186.36L456.12 200.279L455.64 200.279z" stroke="none" fill="#000000" fill-rule="nonzero" /><g clip-path="url(#45)"></g><g clip-path="url(#46)"></g><g clip-path="url(#47)"></g><g clip-path="url(#48)"></g><g clip-path="url(#49)"></g><g clip-path="url(#50)"></g><path id="1577" transform="matrix(1 0 0 -1 0 842)" d="M119.88 185.88L120.36 185.88L120.36 186.361L119.88 186.361z" stroke="none" fill="#000000" fill-rule="nonzero" /><path id="1578" transform="matrix(1 0 0 -1 0 842)" d="M120.36 185.88L300.121 185.88L300.121 186.361L120.36 186.361z" stroke="none" fill="#000000" fill-rule="nonzero" /><path id="1579" transform="matrix(1 0 0 -1 0 842)" d="M300.12 185.88L300.6 185.88L300.6 186.361L300.12 186.361z" stroke="none" fill="#000000" fill-rule="nonzero" /><path id="1580" transform="matrix(1 0 0 -1 0 842)" d="M300.6 185.88L455.64 185.88L455.64 186.361L300.6 186.361z" stroke="none" fill="#000000" fill-rule="nonzero" /><path id="1581" transform="matrix(1 0 0 -1 0 842)" d="M455.64 185.88L456.12 185.88L456.12 186.361L455.64 186.361z" stroke="none" fill="#000000" fill-rule="nonzero" /><path id="1582" transform="matrix(1 0 0 -1 0 842)" d="M119.88 171.84L120.36 171.84L120.36 185.88L119.88 185.88z" stroke="none" fill="#000000" fill-rule="nonzero" /><path id="1583" transform="matrix(1 0 0 -1 0 842)" d="M300.12 171.84L300.6 171.84L300.6 185.88L300.12 185.88z" stroke="none" fill="#000000" fill-rule="nonzero" /><path id="1584" transform="matrix(1 0 0 -1 0 842)" d="M455.64 171.84L456.12 171.84L456.12 185.88L455.64 185.88z" stroke="none" fill="#000000" fill-rule="nonzero" /><g clip-path="url(#51)"></g><g clip-path="url(#52)"></g><g clip-path="url(#53)"></g><g clip-path="url(#54)"></g><g clip-path="url(#55)"></g><path id="1636" transform="matrix(1 0 0 -1 0 842)" d="M119.88 171.36L120.36 171.36L120.36 171.84L119.88 171.84z" stroke="none" fill="#000000" fill-rule="nonzero" /><path id="1637" transform="matrix(1 0 0 -1 0 842)" d="M120.36 171.36L300.121 171.36L300.121 171.84L120.36 171.84z" stroke="none" fill="#000000" fill-rule="nonzero" /><path id="1638" transform="matrix(1 0 0 -1 0 842)" d="M300.12 171.36L300.6 171.36L300.6 171.84L300.12 171.84z" stroke="none" fill="#000000" fill-rule="nonzero" /><path id="1639" transform="matrix(1 0 0 -1 0 842)" d="M300.6 171.36L455.64 171.36L455.64 171.84L300.6 171.84z" stroke="none" fill="#000000" fill-rule="nonzero" /><path id="1640" transform="matrix(1 0 0 -1 0 842)" d="M455.64 171.36L456.12 171.36L456.12 171.84L455.64 171.84z" stroke="none" fill="#000000" fill-rule="nonzero" /><path id="1641" transform="matrix(1 0 0 -1 0 842)" d="M119.88 143.4L120.36 143.4L120.36 171.36L119.88 171.36z" stroke="none" fill="#000000" fill-rule="nonzero" /><path id="1642" transform="matrix(1 0 0 -1 0 842)" d="M300.12 143.4L300.6 143.4L300.6 171.36L300.12 171.36z" stroke="none" fill="#000000" fill-rule="nonzero" /><path id="1643" transform="matrix(1 0 0 -1 0 842)" d="M455.64 143.4L456.12 143.4L456.12 171.36L455.64 171.36z" stroke="none" fill="#000000" fill-rule="nonzero" /><g clip-path="url(#56)"></g><g clip-path="url(#57)"></g><g clip-path="url(#58)"></g><g clip-path="url(#59)"></g><path id="1693" transform="matrix(1 0 0 -1 0 842)" d="M119.88 142.92L120.36 142.92L120.36 143.4L119.88 143.4z" stroke="none" fill="#000000" fill-rule="nonzero" /><path id="1694" transform="matrix(1 0 0 -1 0 842)" d="M120.36 142.92L300.121 142.92L300.121 143.4L120.36 143.4z" stroke="none" fill="#000000" fill-rule="nonzero" /><path id="1695" transform="matrix(1 0 0 -1 0 842)" d="M300.12 142.92L300.6 142.92L300.6 143.4L300.12 143.4z" stroke="none" fill="#000000" fill-rule="nonzero" /><path id="1696" transform="matrix(1 0 0 -1 0 842)" d="M300.6 142.92L455.64 142.92L455.64 143.4L300.6 143.4z" stroke="none" fill="#000000" fill-rule="nonzero" /><path id="1697" transform="matrix(1 0 0 -1 0 842)" d="M455.64 142.92L456.12 142.92L456.12 143.4L455.64 143.4z" stroke="none" fill="#000000" fill-rule="nonzero" /><path id="1698" transform="matrix(1 0 0 -1 0 842)" d="M119.88 129L120.36 129L120.36 142.92L119.88 142.92z" stroke="none" fill="#000000" fill-rule="nonzero" /><path id="1699" transform="matrix(1 0 0 -1 0 842)" d="M300.12 129L300.6 129L300.6 142.92L300.12 142.92z" stroke="none" fill="#000000" fill-rule="nonzero" /><path id="1700" transform="matrix(1 0 0 -1 0 842)" d="M455.64 129L456.12 129L456.12 142.92L455.64 142.92z" stroke="none" fill="#000000" fill-rule="nonzero" /><g clip-path="url(#60)"></g><g clip-path="url(#61)"></g><g clip-path="url(#62)"></g><g clip-path="url(#63)"></g><path id="1729" transform="matrix(1 0 0 -1 0 842)" d="M119.88 128.52L120.36 128.52L120.36 129L119.88 129z" stroke="none" fill="#000000" fill-rule="nonzero" /><path id="1730" transform="matrix(1 0 0 -1 0 842)" d="M120.36 128.52L300.121 128.52L300.121 129L120.36 129z" stroke="none" fill="#000000" fill-rule="nonzero" /><path id="1731" transform="matrix(1 0 0 -1 0 842)" d="M300.12 128.52L300.6 128.52L300.6 129L300.12 129z" stroke="none" fill="#000000" fill-rule="nonzero" /><path id="1732" transform="matrix(1 0 0 -1 0 842)" d="M300.6 128.52L455.64 128.52L455.64 129L300.6 129z" stroke="none" fill="#000000" fill-rule="nonzero" /><path id="1733" transform="matrix(1 0 0 -1 0 842)" d="M455.64 128.52L456.12 128.52L456.12 129L455.64 129z" stroke="none" fill="#000000" fill-rule="nonzero" /><path id="1734" transform="matrix(1 0 0 -1 0 842)" d="M119.88 114.48L120.36 114.48L120.36 128.52L119.88 128.52z" stroke="none" fill="#000000" fill-rule="nonzero" /><path id="1735" transform="matrix(1 0 0 -1 0 842)" d="M300.12 114.48L300.6 114.48L300.6 128.52L300.12 128.52z" stroke="none" fill="#000000" fill-rule="nonzero" /><path id="1736" transform="matrix(1 0 0 -1 0 842)" d="M455.64 114.48L456.12 114.48L456.12 128.52L455.64 128.52z" stroke="none" fill="#000000" fill-rule="nonzero" /><g clip-path="url(#64)"></g><g clip-path="url(#65)"></g><g clip-path="url(#66)"></g><g clip-path="url(#67)"></g><path id="1783" transform="matrix(1 0 0 -1 0 842)" d="M119.88 114L120.36 114L120.36 114.48L119.88 114.48z" stroke="none" fill="#000000" fill-rule="nonzero" /><path id="1784" transform="matrix(1 0 0 -1 0 842)" d="M120.36 114L300.121 114L300.121 114.48L120.36 114.48z" stroke="none" fill="#000000" fill-rule="nonzero" /><path id="1785" transform="matrix(1 0 0 -1 0 842)" d="M300.12 114L300.6 114L300.6 114.48L300.12 114.48z" stroke="none" fill="#000000" fill-rule="nonzero" /><path id="1786" transform="matrix(1 0 0 -1 0 842)" d="M300.6 114L455.64 114L455.64 114.48L300.6 114.48z" stroke="none" fill="#000000" fill-rule="nonzero" /><path id="1787" transform="matrix(1 0 0 -1 0 842)" d="M455.64 114L456.12 114L456.12 114.48L455.64 114.48z" stroke="none" fill="#000000" fill-rule="nonzero" /><path id="1788" transform="matrix(1 0 0 -1 0 842)" d="M119.88 100.08L120.36 100.08L120.36 114L119.88 114z" stroke="none" fill="#000000" fill-rule="nonzero" /><path id="1789" transform="matrix(1 0 0 -1 0 842)" d="M300.12 100.08L300.6 100.08L300.6 114L300.12 114z" stroke="none" fill="#000000" fill-rule="nonzero" /><path id="1790" transform="matrix(1 0 0 -1 0 842)" d="M455.64 100.08L456.12 100.08L456.12 114L455.64 114z" stroke="none" fill="#000000" fill-rule="nonzero" /><g clip-path="url(#68)"></g><g clip-path="url(#69)"></g><g clip-path="url(#70)"></g><g clip-path="url(#71)"></g><path id="1806" transform="matrix(1 0 0 -1 0 842)" d="M119.88 99.6L120.36 99.6L120.36 100.08L119.88 100.08z" stroke="none" fill="#000000" fill-rule="nonzero" /><path id="1807" transform="matrix(1 0 0 -1 0 842)" d="M120.36 99.6L300.121 99.6L300.121 100.08L120.36 100.08z" stroke="none" fill="#000000" fill-rule="nonzero" /><path id="1808" transform="matrix(1 0 0 -1 0 842)" d="M300.12 99.6L300.6 99.6L300.6 100.08L300.12 100.08z" stroke="none" fill="#000000" fill-rule="nonzero" /><path id="1809" transform="matrix(1 0 0 -1 0 842)" d="M300.6 99.6L455.64 99.6L455.64 100.08L300.6 100.08z" stroke="none" fill="#000000" fill-rule="nonzero" /><path id="1810" transform="matrix(1 0 0 -1 0 842)" d="M455.64 99.6L456.12 99.6L456.12 100.08L455.64 100.08z" stroke="none" fill="#000000" fill-rule="nonzero" /><path id="1811" transform="matrix(1 0 0 -1 0 842)" d="M119.88 85.56L120.36 85.56L120.36 99.6L119.88 99.6z" stroke="none" fill="#000000" fill-rule="nonzero" /><path id="1812" transform="matrix(1 0 0 -1 0 842)" d="M300.12 85.56L300.6 85.56L300.6 99.6L300.12 99.6z" stroke="none" fill="#000000" fill-rule="nonzero" /><path id="1813" transform="matrix(1 0 0 -1 0 842)" d="M455.64 85.56L456.12 85.56L456.12 99.6L455.64 99.6z" stroke="none" fill="#000000" fill-rule="nonzero" /><g clip-path="url(#72)"></g><g clip-path="url(#73)"></g><g clip-path="url(#74)"></g><g clip-path="url(#75)"></g><path id="1830" transform="matrix(1 0 0 -1 0 842)" d="M119.88 85.08L120.36 85.08L120.36 85.561L119.88 85.561z" stroke="none" fill="#000000" fill-rule="nonzero" /><path id="1831" transform="matrix(1 0 0 -1 0 842)" d="M120.36 85.08L300.121 85.08L300.121 85.561L120.36 85.561z" stroke="none" fill="#000000" fill-rule="nonzero" /><path id="1832" transform="matrix(1 0 0 -1 0 842)" d="M300.12 85.08L300.6 85.08L300.6 85.561L300.12 85.561z" stroke="none" fill="#000000" fill-rule="nonzero" /><path id="1833" transform="matrix(1 0 0 -1 0 842)" d="M300.6 85.08L455.64 85.08L455.64 85.561L300.6 85.561z" stroke="none" fill="#000000" fill-rule="nonzero" /><path id="1834" transform="matrix(1 0 0 -1 0 842)" d="M455.64 85.08L456.12 85.08L456.12 85.561L455.64 85.561z" stroke="none" fill="#000000" fill-rule="nonzero" /><path id="1835" transform="matrix(1 0 0 -1 0 842)" d="M119.88 71.04L120.36 71.04L120.36 85.08L119.88 85.08z" stroke="none" fill="#000000" fill-rule="nonzero" /><path id="1836" transform="matrix(1 0 0 -1 0 842)" d="M300.12 71.04L300.6 71.04L300.6 85.08L300.12 85.08z" stroke="none" fill="#000000" fill-rule="nonzero" /><path id="1837" transform="matrix(1 0 0 -1 0 842)" d="M455.64 71.04L456.12 71.04L456.12 85.08L455.64 85.08z" stroke="none" fill="#000000" fill-rule="nonzero" /><g clip-path="url(#76)"></g><g clip-path="url(#77)"></g><g clip-path="url(#78)"></g><g clip-path="url(#79)"></g><path id="1852" transform="matrix(1 0 0 -1 0 842)" d="M119.88 70.56L120.36 70.56L120.36 71.04L119.88 71.04z" stroke="none" fill="#000000" fill-rule="nonzero" /><path id="1853" transform="matrix(1 0 0 -1 0 842)" d="M120.36 70.56L300.121 70.56L300.121 71.04L120.36 71.04z" stroke="none" fill="#000000" fill-rule="nonzero" /><path id="1854" transform="matrix(1 0 0 -1 0 842)" d="M300.12 70.56L300.6 70.56L300.6 71.04L300.12 71.04z" stroke="none" fill="#000000" fill-rule="nonzero" /><path id="1855" transform="matrix(1 0 0 -1 0 842)" d="M300.6 70.56L455.64 70.56L455.64 71.04L300.6 71.04z" stroke="none" fill="#000000" fill-rule="nonzero" /><path id="1856" transform="matrix(1 0 0 -1 0 842)" d="M455.64 70.56L456.12 70.56L456.12 71.04L455.64 71.04z" stroke="none" fill="#000000" fill-rule="nonzero" /><path id="1857" transform="matrix(1 0 0 -1 0 842)" d="M119.88 56.64L120.36 56.64L120.36 70.56L119.88 70.56z" stroke="none" fill="#000000" fill-rule="nonzero" /><path id="1858" transform="matrix(1 0 0 -1 0 842)" d="M119.88 56.16L120.36 56.16L120.36 56.64L119.88 56.64z" stroke="none" fill="#000000" fill-rule="nonzero" /><path id="1859" transform="matrix(1 0 0 -1 0 842)" d="M119.88 56.16L120.36 56.16L120.36 56.64L119.88 56.64z" stroke="none" fill="#000000" fill-rule="nonzero" /><path id="1860" transform="matrix(1 0 0 -1 0 842)" d="M120.36 56.16L300.121 56.16L300.121 56.64L120.36 56.64z" stroke="none" fill="#000000" fill-rule="nonzero" /><path id="1861" transform="matrix(1 0 0 -1 0 842)" d="M300.12 56.64L300.6 56.64L300.6 70.56L300.12 70.56z" stroke="none" fill="#000000" fill-rule="nonzero" /><path id="1862" transform="matrix(1 0 0 -1 0 842)" d="M300.12 56.16L300.6 56.16L300.6 56.64L300.12 56.64z" stroke="none" fill="#000000" fill-rule="nonzero" /><path id="1863" transform="matrix(1 0 0 -1 0 842)" d="M300.6 56.16L455.64 56.16L455.64 56.64L300.6 56.64z" stroke="none" fill="#000000" fill-rule="nonzero" /><path id="1864" transform="matrix(1 0 0 -1 0 842)" d="M455.64 56.64L456.12 56.64L456.12 70.56L455.64 70.56z" stroke="none" fill="#000000" fill-rule="nonzero" /><path id="1865" transform="matrix(1 0 0 -1 0 842)" d="M455.64 56.16L456.12 56.16L456.12 56.64L455.64 56.64z" stroke="none" fill="#000000" fill-rule="nonzero" /><path id="1866" transform="matrix(1 0 0 -1 0 842)" d="M455.64 56.16L456.12 56.16L456.12 56.64L455.64 56.64z" stroke="none" fill="#000000" fill-rule="nonzero" /><g clip-path="url(#80)"></g><g clip-path="url(#81)"></g></g></g></svg>