<svg xmlns="http://www.w3.org/2000/svg" xmlns:xlink="http://www.w3.org/1999/xlink" id="body_6" preserveAspectRatio="xMinYMin meet" viewBox="0 0 793 1123"><defs><clipPath id="1"><path id="" clip-rule="evenodd" transform="matrix(1 0 0 1 0 0)" d="M0 842L0 -0.03997803L0 -0.03997803L595.56 -0.03997803L595.56 -0.03997803L595.56 842L595.56 842L0 842z" /></clipPath><clipPath id="2"><path id="" clip-rule="evenodd" transform="matrix(1 0 0 1 0 0)" d="M116.76 127.76L503.76 127.76L503.76 127.76L503.76 2.960022L503.76 2.960022L116.76 2.960022z" /></clipPath><clipPath id="3"><path id="" clip-rule="evenodd" transform="matrix(1 0 0 1 0 0)" d="M116.76 127.76L503.76 127.76L503.76 127.76L503.76 2.960022L503.76 2.960022L116.76 2.960022z" /></clipPath><clipPath id="4"><path id="" clip-rule="evenodd" transform="matrix(1 0 0 1 0 0)" d="M74.04 826.4L95.04 826.4L95.04 826.4L95.04 127.76L95.04 127.76L74.04 127.76z" /></clipPath><clipPath id="5"><path id="" clip-rule="evenodd" transform="matrix(1 0 0 1 0 0)" d="M95.04 826.4L116.76 826.4L116.76 826.4L116.76 127.76L116.76 127.76L95.04 127.76z" /></clipPath><clipPath id="6"><path id="" clip-rule="evenodd" transform="matrix(1 0 0 1 0 0)" d="M116.76 826.4L503.76 826.4L503.76 826.4L503.76 127.76L503.76 127.76L116.76 127.76z" /></clipPath><clipPath id="7"><path id="" clip-rule="evenodd" transform="matrix(1 0 0 1 0 0)" d="M116.76 826.4L503.76 826.4L503.76 826.4L503.76 127.76L503.76 127.76L116.76 127.76z" /></clipPath><clipPath id="8"><path id="" clip-rule="evenodd" transform="matrix(1 0 0 1 0 0)" d="M116.76 826.4L503.76 826.4L503.76 826.4L503.76 127.76L503.76 127.76L116.76 127.76z" /></clipPath><clipPath id="9"><path id="" clip-rule="evenodd" transform="matrix(1 0 0 1 0 0)" d="M116.76 826.4L503.76 826.4L503.76 826.4L503.76 127.76L503.76 127.76L116.76 127.76z" /></clipPath><clipPath id="10"><path id="" clip-rule="evenodd" transform="matrix(1 0 0 1 0 0)" d="M116.76 826.4L503.76 826.4L503.76 826.4L503.76 127.76L503.76 127.76L116.76 127.76z" /></clipPath><clipPath id="11"><path id="" clip-rule="evenodd" transform="matrix(1 0 0 1 0 0)" d="M116.76 826.4L503.76 826.4L503.76 826.4L503.76 127.76L503.76 127.76L116.76 127.76z" /></clipPath><clipPath id="12"><path id="" clip-rule="evenodd" transform="matrix(1 0 0 1 0 0)" d="M116.76 826.4L503.76 826.4L503.76 826.4L503.76 127.76L503.76 127.76L116.76 127.76z" /></clipPath><clipPath id="13"><path id="" clip-rule="evenodd" transform="matrix(1 0 0 1 0 0)" d="M116.76 826.4L503.76 826.4L503.76 826.4L503.76 127.76L503.76 127.76L116.76 127.76z" /></clipPath><clipPath id="14"><path id="" clip-rule="evenodd" transform="matrix(1 0 0 1 0 0)" d="M116.76 826.4L503.76 826.4L503.76 826.4L503.76 127.76L503.76 127.76L116.76 127.76z" /></clipPath><clipPath id="15"><path id="" clip-rule="evenodd" transform="matrix(1 0 0 1 0 0)" d="M116.76 826.4L503.76 826.4L503.76 826.4L503.76 127.76L503.76 127.76L116.76 127.76z" /></clipPath><clipPath id="16"><path id="" clip-rule="evenodd" transform="matrix(1 0 0 1 0 0)" d="M116.76 826.4L503.76 826.4L503.76 826.4L503.76 127.76L503.76 127.76L116.76 127.76z" /></clipPath><clipPath id="17"><path id="" clip-rule="evenodd" transform="matrix(1 0 0 1 0 0)" d="M116.76 826.4L503.76 826.4L503.76 826.4L503.76 127.76L503.76 127.76L116.76 127.76z" /></clipPath><clipPath id="18"><path id="" clip-rule="evenodd" transform="matrix(1 0 0 1 0 0)" d="M116.76 826.4L503.76 826.4L503.76 826.4L503.76 127.76L503.76 127.76L116.76 127.76z" /></clipPath><clipPath id="19"><path id="" clip-rule="evenodd" transform="matrix(1 0 0 1 0 0)" d="M116.76 826.4L503.76 826.4L503.76 826.4L503.76 127.76L503.76 127.76L116.76 127.76z" /></clipPath><clipPath id="20"><path id="" clip-rule="evenodd" transform="matrix(1 0 0 1 0 0)" d="M116.76 826.4L503.76 826.4L503.76 826.4L503.76 127.76L503.76 127.76L116.76 127.76z" /></clipPath><clipPath id="21"><path id="" clip-rule="evenodd" transform="matrix(1 0 0 1 0 0)" d="M116.76 826.4L503.76 826.4L503.76 826.4L503.76 127.76L503.76 127.76L116.76 127.76z" /></clipPath><clipPath id="22"><path id="" clip-rule="evenodd" transform="matrix(1 0 0 1 0 0)" d="M116.76 826.4L503.76 826.4L503.76 826.4L503.76 127.76L503.76 127.76L116.76 127.76z" /></clipPath><clipPath id="23"><path id="" clip-rule="evenodd" transform="matrix(1 0 0 1 0 0)" d="M197.75 337.736L422.75 337.736L422.75 337.736L422.75 503.336L422.75 503.336L197.75 503.336z" /></clipPath></defs><g transform="matrix(1.333333 0 0 1.333333 0 0)"><g clip-path="url(#1)"><g clip-path="url(#2)"></g><g clip-path="url(#3)"></g><g clip-path="url(#4)"></g><g clip-path="url(#5)"></g><g clip-path="url(#6)"></g><g clip-path="url(#7)"></g><g clip-path="url(#8)"></g><g clip-path="url(#9)"></g><g clip-path="url(#10)"></g><g clip-path="url(#11)"></g><g clip-path="url(#12)"></g><g clip-path="url(#13)"></g><g clip-path="url(#14)"></g><g clip-path="url(#15)"></g><g clip-path="url(#16)"></g><g clip-path="url(#17)"></g><g clip-path="url(#18)"></g><g clip-path="url(#19)"></g><g clip-path="url(#20)"></g><g clip-path="url(#21)"></g><g clip-path="url(#22)"></g><g clip-path="url(#23)"><g transform="matrix(0.7499999 0 0 0.7493213 197.75 337.7358)"><g transform="matrix(1 0 0 1 0 0)"><image x="0" y="0" xlink:href="img_08.png" width="300" height="221" /></g></g></g></g></g></svg>